v -1.4861 1.1275 0.0904442
v -1.4936 1.2459 0.0995
v -1.47636 1.12806 0.054219
v -1.48545 1.12735 0.113431
v -1.4936 1.2459 0.0995
v -1.4861 1.1275 0.0904442
v -1.48202 1.12723 0.144009
v -1.4936 1.2459 0.0995
v -1.48545 1.12735 0.113431
v -1.48202 1.12723 0.144009
v -1.37606 1.29085 0.209793
v -1.4936 1.2459 0.0995
v -1.43779 1.12824 0.189863
v -1.43779 1.12824 0.189863
v -0.981874 1.27481 -0.178038
v -1.37606 1.29084 0.209793
v -0.98648 1.26683 -0.177496
v -1.26411 1.13474 0.0256152
v -0.993029 1.25548 -0.176726
v -1.17509 1.13807 -0.0585716
v -1.00753 1.23036 -0.17502
v -1.00753 1.23036 -0.17502
v -1.0825 1.14211 -0.224469
v -0.993029 1.25548 -0.176726
v -1.06261 1.14238 -0.178962
v -1.05827 1.14244 -0.169051
v -1.10788 1.14059 -0.122135
v -1.05827 1.14244 -0.169051
v -1.05827 1.14244 -0.169051
v -1.10788 1.14059 -0.122135
v -1.06261 1.14238 -0.178962
v -1.0825 1.14211 -0.224469
v -1.12732 1.14149 -0.327002
v -1.20568 1.13921 -0.341642
v -1.13165 1.14143 -0.336887
v -1.13165 1.14143 -0.336887
v -1.20568 1.13921 -0.341642
v -1.13135 1.14931 -0.347222
v -1.13135 1.14931 -0.347222
v -1.12732 1.14149 -0.327002
v -1.13165 1.14143 -0.336887
v -1.10689 1.1748 -0.326461
v -1.07873 1.20414 -0.302565
v -0.981874 1.27481 -0.178038
v -0.98648 1.26683 -0.177496
v -0.975635 1.31156 -0.215072
v -0.974752 1.28715 -0.178876
v -0.974752 1.28715 -0.178876
v -0.961719 1.30973 -0.180409
v -1.33926 1.3788 0.217289
v -0.959472 1.31362 -0.180673
v -0.935555 1.37621 -0.173151
v -0.938069 1.3507 -0.183191
v -0.938069 1.3507 -0.183191
v -1.15478 1.45298 -0.253803
v -0.935555 1.37621 -0.173151
v -0.963035 1.32468 -0.204379
v -0.975635 1.31156 -0.215072
v -1.07873 1.20414 -0.302565
v -1.10688 1.1748 -0.326461
v -1.22381 1.17074 -0.385022
v -1.13135 1.14931 -0.347222
v -1.22381 1.17074 -0.385022
v -1.22215 1.13872 -0.3427
v -1.2536 1.14783 -0.357954
v -1.2672 1.13736 -0.345593
v -1.22215 1.13872 -0.3427
v -1.17509 1.13807 -0.0585716
v -1.2672 1.13736 -0.345593
v -1.43956 1.13018 -0.0827625
v -1.2672 1.13736 -0.345593
v -1.43956 1.13018 -0.0827625
v -1.2536 1.14783 -0.357954
v -1.4936 1.2459 0.0995
v -1.22381 1.17074 -0.385022
v -1.15478 1.45298 -0.253803
v -1.12359 1.73315 -0.0653143
v -1.1236 1.73315 -0.0653143
v -1.4936 1.2459 0.0995
v -1.13168 1.79864 0.0190382
v -1.06633 1.75785 0.0101896
v -1.1236 1.73315 -0.0653143
v -1.13168 1.79864 0.0190381
v -1.05664 1.71499 -0.04182
v -1.05368 1.70194 -0.0576517
v -1.1054 1.65488 -0.159939
v -1.04243 1.65221 -0.118004
v -1.03964 1.63988 -0.132977
v -1.01696 1.60267 -0.134734
v -1.1054 1.65488 -0.159939
v -1.03964 1.63988 -0.132977
v -0.969632 1.52507 -0.1384
v -0.927666 1.45626 -0.14165
v -0.927666 1.45626 -0.14165
v -0.954022 1.53096 -0.0797515
v -0.996571 1.65155 0.020178
v -1.09719 1.75794 0.169146
v -1.02086 1.7204 0.0772331
v -1.02397 1.7292 0.0845238
v -1.04145 1.77874 0.125581
v -1.04145 1.77875 0.12558
v -1.11477 1.81069 0.0478948
v -1.09719 1.75794 0.169146
v -1.07674 1.80386 0.0660298
v -1.07151 1.78073 0.0379665
v -1.11477 1.81069 0.0478949
v -1.07674 1.80386 0.0660299
v -1.06754 1.7632 0.0166874
v -1.06754 1.7632 0.0166874
v -1.02086 1.7204 0.077233
v -1.06633 1.75785 0.0101896
v -1.02397 1.7292 0.0845237
v -1.07151 1.78073 0.0379664
v -1.07674 1.80386 0.0660299
v -1.04145 1.77875 0.12558
v -0.99657 1.65155 0.0201779
v -1.05664 1.71499 -0.0418201
v -1.05368 1.70194 -0.0576517
v -1.04243 1.65221 -0.118004
v -1.01696 1.60267 -0.134734
v -0.954022 1.53096 -0.0797515
v -0.969632 1.52507 -0.1384
v -0.927666 1.45626 -0.14165
v -1.03964 1.63988 -0.132977
v -1.13359 1.81407 0.0389215
v -1.13359 1.81407 0.0389214
v -1.23451 1.7563 0.163551
v -1.13359 1.81407 0.0389214
v -1.23451 1.7563 0.163551
v -1.1838 1.7256 0.236848
v -1.19609 1.72102 0.246452
v -1.24809 1.74852 0.180321
v -1.24809 1.74852 0.180321
v -1.33926 1.3788 0.217288
v -1.19609 1.72102 0.246452
v -1.4936 1.2459 0.0995
v -1.37606 1.29085 0.209793
v -1.24809 1.74852 0.180321
v -1.1838 1.7256 0.236849
v -1.19609 1.72102 0.246452
v -1.1054 1.65488 -0.159939
v -1.43956 1.13018 -0.0827625
v -1.26411 1.13474 0.0256152
v -1.47636 1.12806 0.054219
v -1.43779 1.12824 0.189863
v -1.48545 1.12735 0.113431
v -1.48202 1.12723 0.144009
v -1.4861 1.1275 0.0904442
v -0.961719 1.30973 -0.180409
v -0.963035 1.32469 -0.204379
v -0.959472 1.31362 -0.180673
v -0.938069 1.3507 -0.183191
vt 0.31144 0.447573
vt 0.3135 0.4587
vt 0.30772 0.448853
vt 0.314436 0.449126
vt 0.3135 0.4587
vt 0.31144 0.447573
vt 0.322213 0.451494
vt 0.3135 0.4587
vt 0.314436 0.449126
vt 0.322213 0.451494
vt 0.327599 0.464874
vt 0.3135 0.4587
vt 0.328465 0.452808
vt 0.778602 -1.1669
vt 0.933966 -0.583334
vt 0.950967 -1.13629
vt 0.925507 -0.587025
vt 0.785491 -0.927872
vt 0.91348 -0.592275
vt 0.789022 -0.805355
vt 0.886847 -0.603899
vt -0.685265 0.529362
vt -0.738001 0.415028
vt -0.687084 0.558363
vt -0.689469 0.42558
vt -0.678899 0.427879
vt 0.791687 -0.712852
vt 0.793655 -0.644575
vt -0.177632 -1.02296
vt -0.130715 -1.0726
vt -0.187543 -1.02729
vt -0.233052 -1.04718
vt -0.335587 -1.092
vt -0.350228 -1.1704
vt -0.345473 -1.09633
vt 1.08526 -0.958801
vt 1.15944 -0.961242
vt 1.08496 -0.971795
vt -0.868914 0.395849
vt -0.84735 0.391252
vt -0.857892 0.38896
vt -0.846773 0.430329
vt -0.821289 0.470017
vt -0.688483 0.580671
vt -0.687905 0.571461
vt -0.727979 0.615328
vt -0.689376 0.594916
vt 0.947047 -0.577624
vt 0.970982 -0.567177
vt 1.0442 -1.115
vt 0.975109 -0.565376
vt 1.04146 -0.553378
vt 1.01442 -0.54822
vt 1.36334 0.923217
vt 1.47043 1.14892
vt 1.39006 0.916548
vt 1.33611 0.954951
vt 1.32236 0.970967
vt 1.20989 1.10201
vt 1.17917 1.1378
vt 1.17492 1.26857
vt 1.15249 1.1689
vt 1.17761 -1.01486
vt 1.17594 -0.961785
vt 1.20745 -0.979443
vt 1.22108 -0.96327
vt -0.351285 -1.18687
vt -0.0671496 -1.13986
vt -0.354178 -1.23194
vt -0.0913411 -1.40444
vt 0.261444 0.464896
vt 0.293654 0.453691
vt 0.259721 0.466495
vt 0.3135 0.4587
vt 0.255946 0.469997
vt 0.266131 0.494664
vt 0.289682 0.516271
vt 0.289682 0.516271
vt 0.3135 0.4587
vt 0.299565 0.522312
vt 1.53587 -1.04095
vt 1.5981 -0.965338
vt 1.60689 -1.07207
vt 1.52533 -0.973683
vt 1.52212 -0.953208
vt 1.57833 -0.842786
vt 1.5099 -0.875153
vt 1.50686 -0.855788
vt 1.62717 0.972807
vt 1.68183 1.06334
vt 1.66612 0.992418
vt 1.54592 0.931902
vt 1.47387 0.895627
vt 1.12631 -0.569561
vt 1.2055 -0.631495
vt 1.33333 -0.731482
vt 1.44611 -0.907308
vt 1.40632 -0.78857
vt 1.41564 -0.795865
vt 1.46816 -0.836945
vt 0.995194 0.600598
vt 1.06854 0.684572
vt 1.05095 0.552343
vt 1.0305 0.66522
vt 1.54149 -1.07687
vt 1.58851 -1.10251
vt 1.54718 -1.11317
vt 1.53718 -1.04935
vt 0.0240722 2.06098
vt 0.0869278 1.99994
vt 0.0173266 2.0558
vt 0.0944967 2.00905
vt 0.0461631 2.07795
vt 0.0752973 2.10033
vt 0.13712 2.06032
vt 0.027696 1.92868
vt -0.0366674 2.01432
vt -0.0531031 2.00169
vt -0.115758 1.95357
vt -0.133126 1.89805
vt -0.0760461 1.80388
vt -0.136932 1.80717
vt -0.140307 1.72657
vt -0.131302 1.94162
vt 1.60896 -1.09723
vt 0.301894 0.523736
vt 0.317629 0.515236
vt 1.08737 0.694148
vt 1.18833 0.556804
vt 1.1376 0.477352
vt 1.14989 0.466715
vt 1.20191 0.538324
vt 0.319746 0.514093
vt 0.327818 0.474488
vt 0.328673 0.511897
vt 0.3135 0.4587
vt 0.327599 0.464874
vt 0.319746 0.514093
vt 1.41183 -1.01665
vt 1.40697 -1.03217
vt 0.277584 0.511939
vt 0.293654 0.453691
vt 0.0170394 -1.22894
vt 0.045644 -1.44129
vt 0.181291 -1.40273
vt 0.104858 -1.45039
vt 0.135436 -1.44697
vt 0.0818702 -1.45104
vt -0.691011 0.620981
vt -0.716575 0.633089
vt -0.691293 0.625475
vt -0.693979 0.668278
vn -0.964773 -0.0412641 -0.259829
vn -0.964771 -0.0412621 -0.259834
vn -0.964771 -0.0412621 -0.259834
vn -0.997479 -0.0653277 0.0276965
vn -0.997479 -0.0653277 0.0276965
vn -0.997479 -0.0653277 0.0276965
vn -0.992288 -0.0551825 0.110994
vn -0.992288 -0.0551825 0.110994
vn -0.992288 -0.0551825 0.110994
vn -0.70921 0.185874 0.680053
vn -0.70921 0.185874 0.680053
vn -0.709206 0.18587 0.680058
vn -0.709213 0.185878 0.680049
vn 0.654714 -0.331792 0.679164
vn 0.654715 -0.331789 0.679164
vn 0.654716 -0.331787 0.679165
vn 0.654715 -0.331796 0.679161
vn 0.654715 -0.331792 0.679163
vn 0.654714 -0.331786 0.679167
vn 0.654714 -0.331785 0.679167
vn 0.654713 -0.331787 0.679167
vn 0.801682 -0.486325 -0.347553
vn 0.801686 -0.486329 -0.34754
vn 0.801687 -0.486332 -0.347534
vn 0.801683 -0.486335 -0.347538
vn 0.801683 -0.486335 -0.347538
vn 0.654714 -0.331794 0.679163
vn 0.654713 -0.331791 0.679166
vn 0.0305191 -0.999508 -0.00729254
vn 0.0304944 -0.999508 -0.00731174
vn 0.030507 -0.999508 -0.00730218
vn 0.0304917 -0.999508 -0.0073126
vn 0.0304812 -0.999509 -0.00732884
vn 0.0304908 -0.999508 -0.00733491
vn 0.0304821 -0.999508 -0.00736122
vn 0.0626377 -0.794681 -0.603787
vn 0.0626443 -0.794673 -0.603796
vn 0.0626367 -0.794677 -0.603793
vn 0.801647 -0.486374 -0.347567
vn 0.801663 -0.486353 -0.347558
vn 0.801602 -0.486437 -0.347583
vn 0.801689 -0.48632 -0.347545
vn 0.801683 -0.486334 -0.34754
vn 0.801685 -0.48633 -0.347541
vn 0.801688 -0.486341 -0.347519
vn 0.80169 -0.486326 -0.347534
vn 0.801689 -0.486329 -0.347533
vn 0.654716 -0.331784 0.679166
vn 0.654714 -0.331791 0.679164
vn 0.654712 -0.33179 0.679167
vn 0.654714 -0.331792 0.679164
vn 0.654715 -0.33179 0.679164
vn 0.654716 -0.331789 0.679164
vn 0.419445 0.296325 -0.858054
vn 0.419446 0.296328 -0.858053
vn 0.419446 0.296329 -0.858052
vn 0.419446 0.296326 -0.858054
vn 0.419448 0.296329 -0.858051
vn 0.419446 0.296329 -0.858052
vn 0.419445 0.296327 -0.858054
vn 0.419445 0.296326 -0.858054
vn 0.419445 0.296324 -0.858055
vn 0.0626425 -0.794669 -0.603802
vn 0.0626466 -0.794662 -0.603811
vn 0.0626401 -0.794659 -0.603815
vn 0.0626482 -0.79465 -0.603826
vn 0.0304937 -0.999508 -0.00731753
vn 0.0304826 -0.999509 -0.00731102
vn 0.0304866 -0.999509 -0.00731074
vn 0.0304826 -0.999509 -0.00731086
vn -0.765765 0.415554 -0.490835
vn -0.765771 0.415537 -0.49084
vn -0.765774 0.415529 -0.490842
vn -0.765779 0.415508 -0.490853
vn -0.765778 0.415517 -0.490845
vn -0.765782 0.41549 -0.490863
vn -0.765785 0.415474 -0.490872
vn -0.78418 0.451496 -0.425691
vn -0.784184 0.451495 -0.425686
vn -0.784178 0.451493 -0.425698
vn 0.391582 0.744615 -0.540566
vn 0.391584 0.74461 -0.540572
vn 0.391583 0.744614 -0.540566
vn 0.391582 0.744607 -0.540578
vn 0.391586 0.744606 -0.540576
vn 0.391585 0.744615 -0.540565
vn 0.391583 0.744617 -0.540563
vn 0.39158 0.744622 -0.540558
vn 0.419445 0.296328 -0.858053
vn 0.419444 0.296329 -0.858054
vn 0.419443 0.296328 -0.858054
vn 0.419447 0.296328 -0.858052
vn 0.419445 0.29633 -0.858053
vn 0.654715 -0.331791 0.679164
vn 0.654715 -0.331791 0.679164
vn 0.654716 -0.33179 0.679163
vn 0.654713 -0.331795 0.679163
vn 0.654709 -0.331807 0.679161
vn 0.65471 -0.331803 0.679163
vn 0.65472 -0.33178 0.679164
vn -0.0273145 0.915175 0.402131
vn -0.0273174 0.915174 0.402133
vn -0.0273183 0.915169 0.402143
vn -0.0272987 0.915181 0.402118
vn 0.391587 0.744614 -0.540565
vn 0.391584 0.744613 -0.540567
vn 0.391589 0.744613 -0.540565
vn 0.391584 0.744615 -0.540565
vn 0.816701 0.510726 -0.268623
vn 0.816703 0.510724 -0.268623
vn 0.816698 0.510739 -0.268607
vn 0.816698 0.510732 -0.26862
vn 0.816692 0.510743 -0.268617
vn 0.816696 0.510739 -0.268614
vn 0.816697 0.510744 -0.268601
vn 0.816697 0.51074 -0.268608
vn 0.816699 0.510734 -0.268613
vn 0.816697 0.510736 -0.268616
vn 0.816693 0.510743 -0.268617
vn 0.816695 0.510741 -0.268614
vn 0.816697 0.510742 -0.268605
vn 0.816697 0.510742 -0.268603
vn 0.816698 0.510741 -0.268604
vn 0.816686 0.510742 -0.26864
vn 0.391577 0.744617 -0.540567
vn -0.784177 0.451491 -0.425702
vn -0.784183 0.451493 -0.42569
vn -0.0273283 0.915176 0.402128
vn -0.0273155 0.915172 0.402137
vn -0.0272928 0.915175 0.402133
vn -0.0273123 0.915172 0.402136
vn -0.0273515 0.915165 0.402151
vn -0.711524 0.241444 0.659878
vn -0.711523 0.241445 0.659878
vn -0.711526 0.241444 0.659876
vn -0.711522 0.241445 0.659879
vn -0.711523 0.241446 0.659878
vn -0.784194 0.451496 -0.425665
vn 0.654702 -0.331786 0.679179
vn 0.654692 -0.331782 0.67919
vn -0.765789 0.415472 -0.490867
vn -0.96477 -0.0412602 -0.259838
vn 0.0304818 -0.999509 -0.00731179
vn 0.0304674 -0.999509 -0.00732005
vn 0.0304917 -0.999508 -0.00731281
vn 0.0304642 -0.999509 -0.00732123
vn 0.0304851 -0.999509 -0.00730541
vn 0.0303982 -0.999511 -0.0073377
vn 0.801688 -0.486326 -0.34754
vn 0.801686 -0.486326 -0.347545
vn 0.801679 -0.486333 -0.347549
vn 0.801684 -0.486327 -0.347547
f 1/1/1 2/2/2 3/3/3 
f 4/4/4 5/5/5 6/6/6 
f 7/7/7 8/8/8 9/9/9 
f 10/10/10 11/11/11 12/12/12 
f 13/13/13 11/11/11 10/10/10 
f 14/14/14 15/15/15 16/16/16 
f 14/14/14 17/17/17 15/15/15 
f 18/18/18 17/17/17 14/14/14 
f 18/18/18 19/19/19 17/17/17 
f 20/20/20 19/19/19 18/18/18 
f 19/19/19 20/20/20 21/21/21 
f 22/22/22 23/23/23 24/24/24 
f 22/22/22 25/25/25 23/23/23 
f 22/22/22 26/26/26 25/25/25 
f 27/27/27 28/28/28 21/21/21 
f 29/29/29 30/30/30 31/31/31 
f 31/31/31 30/30/30 32/32/32 
f 30/30/30 33/33/33 32/32/32 
f 34/34/34 33/33/33 30/30/30 
f 34/34/34 35/35/35 33/33/33 
f 36/36/36 37/37/37 38/38/38 
f 39/39/39 40/40/40 41/41/41 
f 42/42/42 40/40/40 39/39/39 
f 42/42/42 23/23/23 40/40/40 
f 43/43/43 23/23/23 42/42/42 
f 23/23/23 43/43/43 44/44/44 
f 23/23/23 44/44/44 45/45/45 
f 24/24/24 23/23/23 45/45/45 
f 46/46/46 44/44/44 43/43/43 
f 47/47/47 44/44/44 46/46/46 
f 16/16/16 15/15/15 48/48/48 
f 16/16/16 48/48/48 49/49/49 
f 49/49/49 50/50/50 16/16/16 
f 51/51/51 50/50/50 49/49/49 
f 51/51/51 52/52/52 50/50/50 
f 53/53/53 52/52/52 51/51/51 
f 54/54/54 55/55/55 56/56/56 
f 57/57/57 55/55/55 54/54/54 
f 55/55/55 57/57/57 58/58/58 
f 59/59/59 55/55/55 58/58/58 
f 60/60/60 55/55/55 59/59/59 
f 60/60/60 61/61/61 55/55/55 
f 62/62/62 61/61/61 60/60/60 
f 38/38/38 37/37/37 63/63/63 
f 64/64/64 63/63/63 37/37/37 
f 64/64/64 65/65/65 63/63/63 
f 64/64/64 66/66/66 65/65/65 
f 67/67/67 68/68/68 69/69/69 
f 67/67/67 30/30/30 68/68/68 
f 34/34/34 30/30/30 67/67/67 
f 21/21/21 20/20/20 27/27/27 
f 69/69/69 68/68/68 70/70/70 
f 71/71/71 72/72/72 73/73/73 
f 73/73/73 72/72/72 74/74/74 
f 73/73/73 74/74/74 75/75/75 
f 75/75/75 74/74/74 76/76/76 
f 74/74/74 77/77/77 76/76/76 
f 78/78/78 79/79/79 80/80/80 
f 81/81/81 82/82/82 83/83/83 
f 84/84/84 82/82/82 81/81/81 
f 85/85/85 82/82/82 84/84/84 
f 85/85/85 86/86/86 82/82/82 
f 87/87/87 86/86/86 85/85/85 
f 88/88/88 86/86/86 87/87/87 
f 89/89/89 90/90/90 91/91/91 
f 89/89/89 55/55/55 90/90/90 
f 92/92/92 55/55/55 89/89/89 
f 92/92/92 56/56/56 55/55/55 
f 93/93/93 56/56/56 92/92/92 
f 52/52/52 94/94/94 50/50/50 
f 50/50/50 94/94/94 95/95/95 
f 96/96/96 50/50/50 95/95/95 
f 96/96/96 97/97/97 50/50/50 
f 98/98/98 97/97/97 96/96/96 
f 99/99/99 97/97/97 98/98/98 
f 97/97/97 99/99/99 100/100/100 
f 101/101/101 102/102/102 103/103/103 
f 104/104/104 102/102/102 101/101/101 
f 105/105/105 106/106/106 107/107/107 
f 105/105/105 83/83/83 106/106/106 
f 108/108/108 83/83/83 105/105/105 
f 81/81/81 83/83/83 108/108/108 
f 109/109/109 110/110/110 111/111/111 
f 109/109/109 112/112/112 110/110/110 
f 113/113/113 112/112/112 109/109/109 
f 114/114/114 112/112/112 113/113/113 
f 115/115/115 112/112/112 114/114/114 
f 110/110/110 116/116/116 111/111/111 
f 116/116/116 117/117/117 111/111/111 
f 117/117/117 116/116/116 118/118/118 
f 118/118/118 116/116/116 119/119/119 
f 116/116/116 120/120/120 119/119/119 
f 120/120/120 116/116/116 121/121/121 
f 120/120/120 121/121/121 122/122/122 
f 122/122/122 121/121/121 123/123/123 
f 119/119/119 120/120/120 124/124/124 
f 83/83/83 125/125/125 106/106/106 
f 126/126/126 80/80/80 127/127/127 
f 128/128/128 129/129/129 102/102/102 
f 103/103/103 102/102/102 129/129/129 
f 129/129/129 130/130/130 103/103/103 
f 129/129/129 131/131/131 130/130/130 
f 132/132/132 131/131/131 129/129/129 
f 133/133/133 134/134/134 135/135/135 
f 136/136/136 134/134/134 133/133/133 
f 136/136/136 137/137/137 134/134/134 
f 127/127/127 79/79/79 138/138/138 
f 127/127/127 80/80/80 79/79/79 
f 139/139/139 140/140/140 50/50/50 
f 97/97/97 139/139/139 50/50/50 
f 76/76/76 77/77/77 141/141/141 
f 3/3/3 2/2/2 142/142/142 
f 143/143/143 144/144/144 70/70/70 
f 143/143/143 145/145/145 144/144/144 
f 145/145/145 146/146/146 144/144/144 
f 145/145/145 147/147/147 146/146/146 
f 144/144/144 146/146/146 148/148/148 
f 143/143/143 70/70/70 68/68/68 
f 149/149/149 46/46/46 150/150/150 
f 149/149/149 47/47/47 46/46/46 
f 151/151/151 149/149/149 150/150/150 
f 152/152/152 151/151/151 150/150/150 
