v 0.213126 0.917738 -0.736866
v 0.0708652 0.630063 -0.799943
v 0.212448 0.961176 -0.724419
v 0.0708652 0.630063 -0.799943
v 0.213126 0.917739 -0.736866
v 0.121141 0.596304 -0.764642
v 0.121141 0.596304 -0.764642
v 0.0637044 0.635595 -0.715698
v 0.0708652 0.630063 -0.799943
v 0.121141 0.596304 -0.764642
v 0.213126 0.917738 -0.736866
v 0.0637044 0.635595 -0.715698
v 0.0564073 1.11728 -0.577817
v -0.0211044 0.693612 -0.643428
v -0.0211044 0.693612 -0.643428
v -0.10695 0.750945 -0.742099
v -0.0243904 0.695859 -0.640628
v -0.110765 0.984094 -0.503734
v -0.0243904 0.695859 -0.640628
v -0.0406565 1.1093 -0.515648
v -0.0406565 1.1093 -0.515648
v -0.228661 1.13666 -0.609481
v -0.110765 0.984094 -0.503734
v 0.0564073 1.11728 -0.577817
v -0.228661 1.13666 -0.609481
v -0.0406565 1.1093 -0.515648
v -0.338825 1.18516 -0.826971
v -0.234687 1.13754 -0.612489
v -0.292739 1.14696 -0.646341
v -0.287669 1.14525 -0.638932
v -0.234687 1.13754 -0.612488
v -0.287668 1.14525 -0.638931
v -0.261653 1.08538 -0.606521
v -0.25945 1.08031 -0.603776
v -0.122598 0.96296 -0.501723
v -0.114073 0.978186 -0.503172
v -0.111249 0.983229 -0.503652
v -0.111249 0.983229 -0.503652
v -0.114073 0.978186 -0.503172
v -0.0707665 0.727584 -0.601109
v -0.0707665 0.727584 -0.601109
v -0.111641 0.754103 -0.744322
v -0.151868 0.78119 -0.763388
v -0.171945 0.796799 -0.51489
v -0.172468 0.795047 -0.774834
v -0.172468 0.795047 -0.774834
v 0.0407347 1.17069 -0.841557
v -0.151868 0.78119 -0.763388
v -0.350122 0.91455 -0.873543
v 0.0407347 1.17069 -0.841557
v -0.350122 0.91455 -0.873543
v -0.338825 1.18516 -0.826971
v 0.0407347 1.17069 -0.841557
v 0.109734 1.12166 -0.611973
v 0.147659 1.15815 -0.803336
v 0.139646 1.12412 -0.631132
v 0.263745 1.14599 -0.769065
v 0.263745 1.14599 -0.769065
v 0.249401 1.01909 -0.732931
v 0.147659 1.15815 -0.803336
v 0.249401 1.01909 -0.732931
v 0.263745 1.14599 -0.769065
v 0.303177 1.13755 -0.735875
v 0.249401 1.01909 -0.732931
v 0.303177 1.13755 -0.735875
v 0.216117 1.1304 -0.680112
v 0.236421 0.998745 -0.729941
v 0.236421 0.998745 -0.729941
v -0.111641 0.754103 -0.744322
v -0.151868 0.78119 -0.763388
v 0.147659 1.15815 -0.803336
v -0.10695 0.750945 -0.742099
v 0.212448 0.961176 -0.724419
v 0.0624266 0.6358 -0.797198
v -0.10695 0.750945 -0.742099
v 0.0624266 0.6358 -0.797198
v 0.139646 1.12412 -0.631132
v 0.212448 0.961176 -0.724419
v 0.216117 1.1304 -0.680112
v 0.303177 1.13755 -0.735875
v 0.109734 1.12166 -0.611974
v -0.423678 0.964449 -0.862549
v -0.41953 1.06405 -0.845407
v -0.411797 1.15942 -0.823357
v -0.338825 1.18516 -0.826971
v -0.41953 1.06405 -0.845407
v -0.40074 1.17562 -0.820928
v -0.393554 1.18614 -0.819349
v -0.393554 1.18614 -0.819349
v -0.392703 1.18072 -0.792412
v -0.292739 1.14696 -0.646341
v -0.392703 1.18072 -0.792412
v -0.400689 1.17181 -0.805356
v -0.41953 1.06405 -0.845407
v -0.349715 0.915218 -0.757132
v -0.423678 0.964449 -0.862549
v -0.350122 0.91455 -0.873543
v -0.349715 0.915218 -0.757132
v -0.423678 0.964449 -0.862549
v -0.254004 0.85151 -0.620717
v -0.176832 0.800143 -0.510726
v -0.171945 0.796799 -0.51489
v -0.176517 0.804239 -0.509803
v -0.176832 0.800142 -0.510726
v -0.175611 0.815996 -0.507157
v -0.170941 0.876625 -0.493508
v -0.170941 0.876625 -0.493508
v -0.186956 0.913478 -0.51346
v -0.175611 0.815996 -0.507157
v -0.150646 0.91287 -0.496957
v -0.186956 0.913478 -0.51346
v -0.170941 0.876625 -0.493508
v -0.201389 0.946694 -0.531441
v -0.201389 0.946694 -0.531442
v -0.254004 0.85151 -0.620717
v -0.176517 0.804239 -0.509803
v -0.176832 0.800143 -0.510726
v -0.25945 1.08031 -0.603776
v -0.122598 0.96296 -0.501723
v -0.150646 0.91287 -0.496957
v -0.261653 1.08538 -0.606521
v -0.287668 1.14525 -0.638932
v -0.411797 1.15942 -0.823357
v -0.411797 1.15942 -0.823357
v -0.400689 1.17181 -0.805356
v -0.40074 1.17562 -0.820928
v -0.393554 1.18614 -0.819349
v -0.392703 1.18072 -0.792412
vt 0.0769614 0.515003
vt 0.0785594 0.474339
vt 0.078888 0.520702
vt 0.0785594 0.474339
vt 0.0769614 0.515003
vt 0.0699742 0.472096
vt -0.760856 -0.234048
vt -0.71191 -0.303637
vt -0.796158 -0.294606
vt 0.453184 0.523574
vt 0.783025 0.58488
vt 0.493504 0.448655
vt 0.987781 0.366368
vt 0.553037 0.338034
vt -0.639639 -0.40639
vt -0.738312 -0.509619
vt -0.636839 -0.410372
vt 0.851116 0.186104
vt 0.555344 0.333748
vt 0.979597 0.251115
vt 1.19449 -0.248186
vt 1.22318 -0.458127
vt 1.06318 -0.307273
vt -0.012271 0.78552
vt 0.273084 0.820367
vt 0.0848906 0.722992
vt 0.38336 1.04314
vt 0.279117 0.823488
vt 0.337228 0.858531
vt 0.332152 0.850929
vt 1.2241 -0.464857
vt 1.23219 -0.524021
vt 1.1694 -0.487017
vt 1.16409 -0.483884
vt 1.04102 -0.317247
vt 1.05698 -0.310061
vt 1.06227 -0.307682
vt 0.850228 0.185655
vt 0.845053 0.183036
vt 0.587898 0.273257
vt -0.597319 -0.46656
vt -0.740535 -0.515274
vt -0.759602 -0.56377
vt -0.511098 -0.589147
vt -0.771047 -0.588597
vt 0.113823 0.492794
vt 0.1209 0.550778
vt 0.110996 0.49152
vt 0.13821 0.503781
vt 0.1209 0.550778
vt 0.13821 0.503781
vt 0.156856 0.533512
vt 0.00341734 1.05461
vt -0.0656515 0.819872
vt -0.103615 1.01468
vt -0.0955936 0.839141
vt -0.219818 0.978687
vt 0.092323 0.550436
vt 0.080096 0.530034
vt 0.110381 0.552308
vt 0.980815 0.785946
vt 0.981216 0.805691
vt 0.975516 0.803508
vt 0.887022 0.612937
vt 1.00859 0.659379
vt 1.00125 0.556005
vt 0.86615 0.600467
vt 0.0796717 0.526756
vt 0.102163 0.487196
vt 0.110996 0.49152
vt 0.110381 0.552308
vt 0.101133 0.486692
vt 0.078888 0.520702
vt 0.0796306 0.474926
vt 0.101133 0.486692
vt -0.793413 -0.30481
vt 0.994799 0.465204
vt 0.827599 0.577435
vt -0.172142 0.888403
vt -0.25929 0.944486
vt 0.992277 0.429687
vt 0.148604 0.505512
vt 0.155468 0.516454
vt 0.160242 0.52489
vt 0.156856 0.533512
vt 0.155468 0.516454
vt 0.16041 0.527195
vt 0.16052 0.528693
vt 0.438144 1.03586
vt 0.437292 1.00839
vt 1.13783 -0.70011
vt 1.17165 -0.8771
vt 1.16273 -0.8923
vt 1.05477 -0.936072
vt 0.905657 -0.823891
vt 0.95498 -0.952632
vt -0.869759 -0.802703
vt -0.753345 -0.802741
vt -0.858765 -0.891588
vt -0.616927 -0.687769
vt -0.506934 -0.595068
vt 0.658923 0.141283
vt 0.666558 0.134662
vt 0.662354 0.134908
vt 0.678622 0.133954
vt 0.740836 0.130302
vt 0.866992 -0.505376
vt 0.903915 -0.530861
vt 0.806252 -0.51932
vt 0.988484 -0.340885
vt 0.989121 -0.380769
vt 0.950471 -0.35799
vt 1.02396 -0.401299
vt 0.937191 -0.55383
vt 0.841832 -0.657294
vt 0.794473 -0.522025
vt 0.790369 -0.522967
vt 1.07105 -0.646227
vt 0.829429 0.175131
vt 0.77803 0.149122
vt 1.07613 -0.649733
vt 1.13611 -0.691133
vt 1.15032 -0.913438
vt -0.94897 -0.742107
vt -0.930801 -0.758563
vt -0.946518 -0.761712
vt -0.944924 -0.774455
vt -0.917736 -0.770396
vn -0.125861 0.271461 -0.954185
vn -0.125858 0.27146 -0.954185
vn -0.125859 0.27146 -0.954185
vn 0.535886 -0.0807298 -0.840422
vn 0.535886 -0.0807298 -0.840422
vn 0.535886 -0.0807298 -0.840422
vn -0.560698 -0.827993 0.00671034
vn -0.560698 -0.827993 0.00671015
vn -0.560699 -0.827993 0.00671028
vn 0.538613 -0.224314 0.812145
vn 0.538613 -0.224315 0.812144
vn 0.538614 -0.224315 0.812144
vn 0.538614 -0.224315 0.812144
vn 0.538613 -0.224315 0.812145
vn -0.560697 -0.827994 0.00670852
vn -0.560696 -0.827995 0.00670856
vn -0.560697 -0.827994 0.00670859
vn 0.538624 -0.22431 0.812139
vn 0.538619 -0.224313 0.812141
vn 0.538614 -0.224315 0.812144
vn -0.390344 0.301346 0.869956
vn -0.390335 0.301355 0.869956
vn -0.390309 0.301376 0.869961
vn 0.0448707 0.979631 0.195728
vn 0.0448681 0.979631 0.195728
vn 0.0448658 0.979631 0.195729
vn 0.0448681 0.979631 0.195727
vn 0.0448649 0.979628 0.195743
vn 0.0448739 0.97963 0.195732
vn 0.0448444 0.979622 0.195778
vn -0.390341 0.301345 0.869957
vn -0.390343 0.301346 0.869956
vn -0.390345 0.301348 0.869954
vn -0.390347 0.301349 0.869953
vn -0.390343 0.301345 0.869956
vn -0.390345 0.301345 0.869955
vn -0.390309 0.301376 0.869961
vn 0.538625 -0.22431 0.812138
vn 0.538611 -0.224316 0.812145
vn 0.538614 -0.224315 0.812144
vn -0.560695 -0.827995 0.0067091
vn -0.560692 -0.827997 0.00670781
vn -0.560699 -0.827992 0.00671042
vn -0.560699 -0.827993 0.00671038
vn -0.5607 -0.827992 0.00671041
vn 0.284957 -0.322093 -0.902804
vn 0.284958 -0.322094 -0.902804
vn 0.284957 -0.322094 -0.902804
vn 0.284958 -0.322094 -0.902804
vn -0.0313321 0.170792 -0.984809
vn -0.0313325 0.170792 -0.984809
vn -0.0313314 0.170791 -0.984809
vn 0.0448742 0.979631 0.195727
vn 0.0448732 0.979631 0.195728
vn 0.0448676 0.979631 0.195729
vn 0.0448642 0.979632 0.195727
vn 0.0448688 0.979631 0.195728
vn 0.242724 -0.290933 -0.925442
vn 0.242721 -0.290935 -0.925442
vn 0.242723 -0.290935 -0.925442
vn 0.5815 -0.282907 -0.762772
vn 0.5815 -0.282907 -0.762772
vn 0.5815 -0.282907 -0.762772
vn 0.538609 -0.224316 0.812147
vn 0.538614 -0.224314 0.812144
vn 0.538611 -0.224316 0.812146
vn 0.538612 -0.224316 0.812145
vn 0.242719 -0.290929 -0.925445
vn 0.242719 -0.290928 -0.925445
vn 0.242725 -0.290935 -0.925441
vn 0.28496 -0.322094 -0.902803
vn 0.242716 -0.290923 -0.925447
vn 0.242723 -0.290933 -0.925443
vn -0.125858 0.27146 -0.954185
vn -0.12586 0.271461 -0.954185
vn -0.560699 -0.827993 0.00671021
vn 0.538615 -0.224315 0.812144
vn 0.538614 -0.224315 0.812144
vn 0.0448699 0.979631 0.195728
vn 0.0448788 0.97963 0.195732
vn 0.538613 -0.224316 0.812144
vn -0.031331 0.170791 -0.984809
vn -0.0313292 0.17079 -0.984809
vn -0.130024 0.233337 -0.963664
vn -0.130025 0.233346 -0.963661
vn -0.130026 0.233341 -0.963663
vn -0.130025 0.233349 -0.963661
vn -0.130027 0.233364 -0.963657
vn 0.0448869 0.979634 0.195712
vn 0.044917 0.979636 0.195695
vn -0.83022 -0.0607871 0.554111
vn -0.830222 -0.0607873 0.554109
vn -0.830222 -0.060789 0.554109
vn -0.830222 -0.0607894 0.554109
vn -0.830221 -0.0607899 0.55411
vn -0.830222 -0.0607892 0.554108
vn -0.560697 -0.827994 0.00670987
vn -0.560698 -0.827993 0.00671023
vn -0.560698 -0.827993 0.00671023
vn -0.560697 -0.827994 0.0067094
vn -0.560696 -0.827994 0.00670923
vn 0.538616 -0.224317 0.812142
vn 0.538615 -0.22432 0.812142
vn 0.538607 -0.224327 0.812145
vn 0.538621 -0.224314 0.812139
vn 0.538618 -0.224315 0.812141
vn -0.830223 -0.0607896 0.554107
vn -0.830222 -0.0607886 0.554108
vn -0.830222 -0.060791 0.554108
vn -0.390342 0.301346 0.869956
vn -0.390342 0.301347 0.869956
vn -0.390342 0.301347 0.869956
vn -0.390343 0.301346 0.869956
vn -0.830222 -0.060788 0.554109
vn -0.830222 -0.0607878 0.554109
vn -0.830221 -0.0607863 0.55411
vn -0.83022 -0.0607785 0.554113
vn -0.830221 -0.0607904 0.55411
vn 0.538614 -0.224315 0.812144
vn 0.538615 -0.224315 0.812144
vn -0.830219 -0.0607876 0.554114
vn -0.830216 -0.0607802 0.554119
vn -0.830221 -0.06079 0.554109
vn -0.827595 0.544661 0.135764
vn -0.827582 0.54468 0.135762
vn -0.827582 0.544679 0.135769
vn -0.827576 0.544689 0.135761
vn -0.827584 0.544681 0.135749
f 1/1/1 2/2/2 3/3/3 
f 4/4/4 5/5/5 6/6/6 
f 7/7/7 8/8/8 9/9/9 
f 10/10/10 11/11/11 12/12/12 
f 12/12/12 11/11/11 13/13/13 
f 12/12/12 13/13/13 14/14/14 
f 15/15/15 16/16/16 8/8/8 
f 15/15/15 17/17/17 16/16/16 
f 14/14/14 18/18/18 19/19/19 
f 18/18/18 14/14/14 20/20/20 
f 21/21/21 22/22/22 23/23/23 
f 24/24/24 25/25/25 26/26/26 
f 27/27/27 25/25/25 24/24/24 
f 27/27/27 28/28/28 25/25/25 
f 29/29/29 28/28/28 27/27/27 
f 30/30/30 28/28/28 29/29/29 
f 31/31/31 32/32/32 33/33/33 
f 33/33/33 22/22/22 31/31/31 
f 34/34/34 22/22/22 33/33/33 
f 22/22/22 34/34/34 35/35/35 
f 36/36/36 22/22/22 35/35/35 
f 37/37/37 22/22/22 36/36/36 
f 23/23/23 22/22/22 37/37/37 
f 19/19/19 18/18/18 38/38/38 
f 19/19/19 38/38/38 39/39/39 
f 19/19/19 39/39/39 40/40/40 
f 17/17/17 41/41/41 16/16/16 
f 41/41/41 42/42/42 16/16/16 
f 41/41/41 43/43/43 42/42/42 
f 43/43/43 41/41/41 44/44/44 
f 43/43/43 44/44/44 45/45/45 
f 46/46/46 47/47/47 48/48/48 
f 49/49/49 47/47/47 46/46/46 
f 50/50/50 51/51/51 52/52/52 
f 27/27/27 24/24/24 53/53/53 
f 53/53/53 24/24/24 54/54/54 
f 54/54/54 55/55/55 53/53/53 
f 56/56/56 55/55/55 54/54/54 
f 55/55/55 56/56/56 57/57/57 
f 58/58/58 59/59/59 60/60/60 
f 61/61/61 62/62/62 63/63/63 
f 64/64/64 65/65/65 66/66/66 
f 64/64/64 66/66/66 67/67/67 
f 60/60/60 59/59/59 68/68/68 
f 69/69/69 60/60/60 68/68/68 
f 70/70/70 60/60/60 69/69/69 
f 48/48/48 47/47/47 71/71/71 
f 69/69/69 68/68/68 72/72/72 
f 72/72/72 68/68/68 73/73/73 
f 3/3/3 74/74/74 75/75/75 
f 3/3/3 2/2/2 74/74/74 
f 8/8/8 76/76/76 9/9/9 
f 8/8/8 16/16/16 76/76/76 
f 67/67/67 77/77/77 78/78/78 
f 66/66/66 77/77/77 67/67/67 
f 57/57/57 56/56/56 79/79/79 
f 57/57/57 79/79/79 80/80/80 
f 77/77/77 81/81/81 78/78/78 
f 81/81/81 13/13/13 78/78/78 
f 78/78/78 13/13/13 11/11/11 
f 82/82/82 52/52/52 51/51/51 
f 83/83/83 52/52/52 82/82/82 
f 84/84/84 85/85/85 86/86/86 
f 87/87/87 85/85/85 84/84/84 
f 85/85/85 87/87/87 88/88/88 
f 89/89/89 29/29/29 27/27/27 
f 90/90/90 29/29/29 89/89/89 
f 91/91/91 92/92/92 93/93/93 
f 91/91/91 93/93/93 94/94/94 
f 94/94/94 95/95/95 91/91/91 
f 95/95/95 94/94/94 96/96/96 
f 97/97/97 98/98/98 99/99/99 
f 97/97/97 100/100/100 98/98/98 
f 97/97/97 101/101/101 100/100/100 
f 44/44/44 101/101/101 97/97/97 
f 102/102/102 103/103/103 104/104/104 
f 102/102/102 105/105/105 103/103/103 
f 105/105/105 102/102/102 106/106/106 
f 107/107/107 108/108/108 109/109/109 
f 110/110/110 111/111/111 112/112/112 
f 111/111/111 110/110/110 113/113/113 
f 108/108/108 114/114/114 115/115/115 
f 108/108/108 115/115/115 109/109/109 
f 115/115/115 116/116/116 109/109/109 
f 116/116/116 115/115/115 117/117/117 
f 114/114/114 118/118/118 115/115/115 
f 35/35/35 34/34/34 113/113/113 
f 113/113/113 110/110/110 35/35/35 
f 40/40/40 119/119/119 120/120/120 
f 40/40/40 39/39/39 119/119/119 
f 40/40/40 120/120/120 102/102/102 
f 106/106/106 102/102/102 120/120/120 
f 118/118/118 95/95/95 115/115/115 
f 121/121/121 95/95/95 118/118/118 
f 121/121/121 91/91/91 95/95/95 
f 122/122/122 91/91/91 121/121/121 
f 45/45/45 44/44/44 97/97/97 
f 94/94/94 93/93/93 123/123/123 
f 124/124/124 125/125/125 126/126/126 
f 125/125/125 127/127/127 126/126/126 
f 128/128/128 127/127/127 125/125/125 
f 20/20/20 14/14/14 13/13/13 
