v -0.290156 1.09735 0.815661
v -0.7672 1.2031 0.7234
v -0.497719 1.03571 0.764788
v -0.248782 1.11304 0.817206
v -0.7672 1.2031 0.7234
v -0.290156 1.09735 0.815661
v -0.218019 1.15082 0.811571
v -0.210405 1.16017 0.810177
v -0.301014 1.29364 0.763204
v -0.192562 1.18209 0.806909
v -0.184929 1.19407 0.804832
v -0.184169 1.1924 0.805371
v -0.186042 1.19263 0.801506
v -0.184929 1.19407 0.804832
v -0.184169 1.1924 0.805371
v -0.186649 1.1927 0.800255
v -0.210477 1.22182 0.768126
v -0.211537 1.19573 0.748907
v -0.211538 1.19573 0.748907
v -0.301013 1.29364 0.763204
v -0.210477 1.22182 0.768126
v -0.224741 1.18883 0.735826
v -0.446877 1.13632 0.56101
v -0.275169 1.16246 0.685865
v -0.290309 1.15455 0.670865
v -0.290309 1.15455 0.670865
v -0.290156 1.09735 0.815661
v -0.446877 1.13632 0.56101
v -0.259423 1.12368 0.779708
v -0.258518 1.12277 0.782897
v -0.248782 1.11304 0.817206
v -0.218019 1.15082 0.811571
v -0.248782 1.11304 0.817206
v -0.258518 1.12277 0.782897
v -0.259423 1.12368 0.779708
v -0.224741 1.18883 0.735826
v -0.275169 1.16246 0.685865
v -0.290309 1.15455 0.670865
v -0.211538 1.19573 0.748907
v -0.210405 1.16017 0.810177
v -0.192562 1.18209 0.806909
v -0.186649 1.1927 0.800255
v -0.186042 1.19263 0.801506
v -0.184169 1.1924 0.805371
v -0.497719 1.03571 0.764788
v -0.531688 1.08493 0.606472
v -0.581518 1.01037 0.745391
v -0.581518 1.01037 0.745391
v -0.720922 0.968222 0.713122
v -0.720922 0.968222 0.713122
v -0.7672 1.2031 0.7234
v -0.722507 0.967885 0.712397
v -0.720923 0.968222 0.713122
v -0.722507 0.967885 0.712397
v -0.724367 0.967489 0.711546
v -0.724367 0.967489 0.711546
v -0.769078 1.19987 0.722176
v -0.725955 0.967151 0.710819
v -0.769078 1.19987 0.722176
v -0.531688 1.08493 0.606472
v -0.725955 0.967151 0.710819
v -0.446996 1.13628 0.560982
v -0.446996 1.13628 0.560982
v -0.446951 1.13631 0.560957
v -0.518116 1.24237 0.592377
v -0.446951 1.13631 0.560957
v -0.518116 1.24237 0.592377
v -0.453486 1.36329 0.718407
v -0.542014 1.27798 0.602929
v -0.516754 1.39219 0.699819
v -0.516754 1.39219 0.699819
v -0.7672 1.2031 0.7234
v -0.453486 1.36329 0.718407
v -0.715104 1.35216 0.687732
v -0.755259 1.24491 0.713081
v -0.755259 1.24491 0.713081
v -0.768246 1.20932 0.72132
v -0.769349 1.20591 0.722038
v -0.7672 1.2031 0.7234
v -0.768246 1.20932 0.72132
v -0.769241 1.20351 0.722093
v -0.7672 1.2031 0.7234
v -0.769349 1.20591 0.722038
v -0.769078 1.19987 0.722176
v -0.769241 1.20351 0.722093
v -0.768246 1.20932 0.72132
v -0.769349 1.20591 0.722038
v -0.755259 1.24491 0.713081
v -0.542014 1.27798 0.602929
v -0.559528 1.30408 0.610661
v -0.57058 1.32055 0.615541
v -0.715104 1.35216 0.687732
v -0.714616 1.35346 0.687424
v -0.714616 1.35346 0.687424
v -0.545615 1.40678 0.692337
v -0.545615 1.40678 0.692338
v -0.57058 1.32055 0.615541
v -0.714616 1.35346 0.687424
v -0.545615 1.40678 0.692337
v -0.559528 1.30408 0.610661
v -0.57058 1.32055 0.615541
v -0.301014 1.29364 0.763204
v -0.725955 0.967151 0.710819
v -0.210302 1.22613 0.771299
v -0.209409 1.24809 0.787478
v -0.210302 1.22613 0.771299
v -0.209409 1.24809 0.787478
v -0.209409 1.24809 0.787478
vt 0.46241 0.472024
vt 0.4153 0.4728
vt 0.442019 0.457104
vt 0.465581 0.475446
vt 0.4153 0.4728
vt 0.46241 0.472024
vt 0.466978 0.481656
vt 0.467323 0.483193
vt 0.454203 0.499254
vt 0.468133 0.486795
vt 0.468384 0.488702
vt 0.468515 0.488489
vt 1.2845 -0.647571
vt 1.286 -0.651055
vt 1.28426 -0.651865
vt 1.28457 -0.64618
vt 1.31477 -0.606988
vt 1.28771 -0.589125
vt 0.226246 -1.40845
vt 0.326452 -1.49652
vt 0.225058 -1.44085
vt 0.241032 -1.39525
vt 0.489808 -1.25112
vt 0.297508 -1.3448
vt 0.314464 -1.32966
vt -0.181539 0.199292
vt -0.181703 0.354975
vt -0.0147983 0.103838
vt -0.214433 0.311861
vt -0.215396 0.31516
vt -0.225765 0.350644
vt 0.407625 0.712464
vt 0.413695 0.663794
vt 0.376735 0.664558
vt 0.373299 0.664628
vt 0.326027 0.73631
vt 0.272206 0.683044
vt 0.256047 0.667052
vt 0.340118 0.750256
vt 0.406123 0.724509
vt 0.402602 0.752739
vt 0.395434 0.764591
vt 0.396782 0.76494
vt 0.400946 0.766019
vt 0.0393474 0.330335
vt 0.0755235 0.16501
vt 0.128592 0.321614
vt 0.433616 0.452949
vt 0.419639 0.446036
vt 0.419639 0.446036
vt 0.4153 0.4728
vt 0.419493 0.445954
vt 0.277054 0.307107
vt 0.278741 0.306557
vt 0.280722 0.305911
vt 0.419321 0.445857
vt 0.415128 0.472364
vt 0.419175 0.445774
vt 1.18693 1.0131
vt 1.0719 0.749059
vt 0.954018 0.969524
vt 1.12329 0.652946
vt -0.0146713 0.103825
vt 1.12332 0.652895
vt 1.22946 0.730567
vt 0.489891 -1.25108
vt 0.569589 -1.35571
vt 0.497209 -1.5273
vt 0.596354 -1.39085
vt 0.568065 -1.54007
vt 0.425353 0.51172
vt 0.4153 0.4728
vt 0.433814 0.508064
vt 0.41176 0.493683
vt 0.414096 0.478478
vt 0.414096 0.478478
vt 0.414827 0.473456
vt 0.414876 0.47296
vt 0.4153 0.4728
vt 0.414827 0.473456
vt 0.414976 0.472723
vt 0.4153 0.4728
vt 0.414876 0.47296
vt 0.415128 0.472364
vt 1.19057 1.01321
vt 1.19639 1.01197
vt 1.19298 1.01328
vt 1.23201 0.996662
vt 1.26511 0.756651
vt 1.29123 0.775767
vt 1.30771 0.78783
vt 1.33934 0.949375
vt 1.34064 0.948801
vt 0.411732 0.493868
vt 0.422328 0.511474
vt 0.440855 -1.49159
vt 0.46631 -1.37623
vt 0.613168 -1.44991
vt 0.600387 -1.54762
vt 0.615968 -1.4166
vt 0.628346 -1.43285
vt 0.454203 0.499254
vt 0.282413 0.305359
vt 0.224862 -1.4462
vt 0.223862 -1.47348
vt 1.31924 -0.609937
vt 1.34202 -0.624975
vt 0.464179 0.495562
vn -0.209667 -0.0969757 0.972952
vn -0.209667 -0.0969757 0.972952
vn -0.209667 -0.0969757 0.972952
vn -0.130344 0.249241 0.95963
vn -0.130344 0.249241 0.95963
vn -0.130344 0.249241 0.95963
vn -0.130344 0.249241 0.95963
vn -0.130344 0.249241 0.95963
vn -0.130344 0.249241 0.95963
vn -0.130344 0.249241 0.95963
vn -0.130344 0.249241 0.95963
vn -0.130344 0.249241 0.95963
vn 0.873745 0.264951 -0.407886
vn 0.873745 0.264951 -0.407886
vn 0.873745 0.264951 -0.407886
vn 0.873745 0.264951 -0.407886
vn 0.873745 0.264951 -0.407886
vn 0.873745 0.264951 -0.407886
vn 0.450217 0.517651 -0.727559
vn 0.450217 0.517651 -0.727559
vn 0.450217 0.517651 -0.727559
vn 0.450217 0.517651 -0.727559
vn 0.450217 0.517651 -0.727559
vn 0.450217 0.517651 -0.727559
vn 0.450217 0.517651 -0.727559
vn 0.343951 -0.873194 -0.345297
vn 0.343951 -0.873194 -0.345297
vn 0.343951 -0.873194 -0.345297
vn 0.343951 -0.873194 -0.345297
vn 0.343951 -0.873194 -0.345297
vn 0.343951 -0.873194 -0.345297
vn 0.691923 -0.618824 -0.371887
vn 0.691923 -0.618824 -0.371887
vn 0.691923 -0.618824 -0.371887
vn 0.691923 -0.618824 -0.371887
vn 0.691923 -0.618824 -0.371887
vn 0.691923 -0.618824 -0.371887
vn 0.691923 -0.618824 -0.371887
vn 0.691923 -0.618824 -0.371887
vn 0.691923 -0.618824 -0.371887
vn 0.691923 -0.618824 -0.371887
vn 0.691923 -0.618824 -0.371887
vn 0.691923 -0.618824 -0.371887
vn 0.691923 -0.618824 -0.371887
vn 0.343951 -0.873194 -0.345297
vn 0.343951 -0.873194 -0.345297
vn 0.343951 -0.873194 -0.345297
vn -0.209045 -0.095916 0.973191
vn -0.20801 -0.0941528 0.973585
vn -0.392637 -0.117275 0.912186
vn -0.392637 -0.117275 0.912186
vn -0.392637 -0.117275 0.912186
vn 0.343951 -0.873194 -0.345297
vn 0.343951 -0.873194 -0.345297
vn 0.343951 -0.873194 -0.345297
vn -0.392637 -0.117275 0.912186
vn -0.392637 -0.117275 0.912186
vn -0.392637 -0.117275 0.912186
vn -0.453583 -0.0406026 -0.890288
vn -0.453583 -0.0406026 -0.890288
vn -0.453583 -0.0406026 -0.890288
vn -0.453583 -0.0406026 -0.890288
vn 0.343951 -0.873194 -0.345297
vn -0.453583 -0.0406026 -0.890288
vn -0.453583 -0.0406026 -0.890288
vn 0.450217 0.517651 -0.727559
vn 0.450217 0.517651 -0.727559
vn 0.450217 0.517651 -0.727559
vn 0.450217 0.517651 -0.727559
vn 0.450217 0.517651 -0.727559
vn -0.139168 0.301937 0.943115
vn -0.139168 0.301937 0.943115
vn -0.139168 0.301937 0.943115
vn -0.133436 0.294732 0.946217
vn -0.137457 0.299787 0.944052
vn -0.141894 0.300812 0.943068
vn -0.13957 0.301772 0.943109
vn -0.23474 0.272403 0.93311
vn -0.23474 0.272403 0.93311
vn -0.23474 0.272403 0.93311
vn -0.539991 -0.00501944 0.841656
vn -0.539991 -0.00501944 0.841656
vn -0.539991 -0.00501944 0.841656
vn -0.539991 -0.00501944 0.841656
vn -0.453583 -0.0406026 -0.890288
vn -0.453583 -0.0406026 -0.890288
vn -0.453583 -0.0406026 -0.890288
vn -0.453583 -0.0406026 -0.890288
vn -0.453583 -0.0406026 -0.890288
vn -0.453583 -0.0406026 -0.890288
vn -0.453583 -0.0406026 -0.890288
vn -0.453583 -0.0406026 -0.890288
vn -0.453583 -0.0406026 -0.890288
vn -0.133388 0.294671 0.946244
vn -0.13727 0.299552 0.944153
vn -0.195089 0.68322 -0.70367
vn -0.195089 0.68322 -0.70367
vn -0.195089 0.68322 -0.70367
vn 0.450217 0.517651 -0.727559
vn 0.450217 0.517651 -0.727559
vn 0.450217 0.517651 -0.727559
vn -0.139168 0.301937 0.943115
vn 0.343951 -0.873194 -0.345297
vn 0.450217 0.517651 -0.727559
vn 0.450217 0.517651 -0.727559
vn 0.873745 0.264951 -0.407886
vn 0.873745 0.264951 -0.407886
vn -0.130344 0.249241 0.95963
f 1/1/1 2/2/2 3/3/3 
f 4/4/4 5/5/5 6/6/6 
f 7/7/7 5/5/5 4/4/4 
f 8/8/8 5/5/5 7/7/7 
f 8/8/8 9/9/9 5/5/5 
f 10/10/10 9/9/9 8/8/8 
f 10/10/10 11/11/11 9/9/9 
f 12/12/12 11/11/11 10/10/10 
f 13/13/13 14/14/14 15/15/15 
f 16/16/16 14/14/14 13/13/13 
f 16/16/16 17/17/17 14/14/14 
f 18/18/18 17/17/17 16/16/16 
f 19/19/19 20/20/20 21/21/21 
f 22/22/22 20/20/20 19/19/19 
f 22/22/22 23/23/23 20/20/20 
f 24/24/24 23/23/23 22/22/22 
f 25/25/25 23/23/23 24/24/24 
f 26/26/26 27/27/27 28/28/28 
f 29/29/29 27/27/27 26/26/26 
f 30/30/30 27/27/27 29/29/29 
f 27/27/27 30/30/30 31/31/31 
f 32/32/32 33/33/33 34/34/34 
f 32/32/32 34/34/34 35/35/35 
f 35/35/35 36/36/36 32/32/32 
f 36/36/36 35/35/35 37/37/37 
f 37/37/37 35/35/35 38/38/38 
f 32/32/32 36/36/36 39/39/39 
f 40/40/40 32/32/32 39/39/39 
f 41/41/41 40/40/40 39/39/39 
f 42/42/42 41/41/41 39/39/39 
f 43/43/43 41/41/41 42/42/42 
f 44/44/44 41/41/41 43/43/43 
f 27/27/27 45/45/45 28/28/28 
f 45/45/45 46/46/46 28/28/28 
f 45/45/45 47/47/47 46/46/46 
f 3/3/3 2/2/2 48/48/48 
f 2/2/2 49/49/49 48/48/48 
f 50/50/50 51/51/51 52/52/52 
f 53/53/53 54/54/54 46/46/46 
f 47/47/47 53/53/53 46/46/46 
f 54/54/54 55/55/55 46/46/46 
f 51/51/51 56/56/56 52/52/52 
f 57/57/57 56/56/56 51/51/51 
f 57/57/57 58/58/58 56/56/56 
f 59/59/59 60/60/60 61/61/61 
f 60/60/60 59/59/59 62/62/62 
f 46/46/46 63/63/63 28/28/28 
f 59/59/59 64/64/64 62/62/62 
f 65/65/65 64/64/64 59/59/59 
f 66/66/66 67/67/67 23/23/23 
f 23/23/23 67/67/67 20/20/20 
f 67/67/67 68/68/68 20/20/20 
f 69/69/69 68/68/68 67/67/67 
f 68/68/68 69/69/69 70/70/70 
f 71/71/71 72/72/72 73/73/73 
f 74/74/74 72/72/72 71/71/71 
f 75/75/75 72/72/72 74/74/74 
f 72/72/72 76/76/76 77/77/77 
f 78/78/78 79/79/79 80/80/80 
f 81/81/81 82/82/82 83/83/83 
f 82/82/82 81/81/81 84/84/84 
f 85/85/85 86/86/86 59/59/59 
f 87/87/87 86/86/86 85/85/85 
f 88/88/88 59/59/59 86/86/86 
f 88/88/88 65/65/65 59/59/59 
f 88/88/88 89/89/89 65/65/65 
f 88/88/88 90/90/90 89/89/89 
f 88/88/88 91/91/91 90/90/90 
f 88/88/88 92/92/92 91/91/91 
f 92/92/92 93/93/93 91/91/91 
f 74/74/74 71/71/71 94/94/94 
f 94/94/94 71/71/71 95/95/95 
f 96/96/96 97/97/97 98/98/98 
f 99/99/99 100/100/100 101/101/101 
f 70/70/70 100/100/100 99/99/99 
f 70/70/70 69/69/69 100/100/100 
f 73/73/73 72/72/72 102/102/102 
f 55/55/55 103/103/103 46/46/46 
f 20/20/20 104/104/104 21/21/21 
f 104/104/104 20/20/20 105/105/105 
f 106/106/106 107/107/107 14/14/14 
f 17/17/17 106/106/106 14/14/14 
f 108/108/108 9/9/9 11/11/11 
