v 0.477869 -1.00325 -0.370526
v 0.777347 -1.26133 -0.502247
v 0.387832 -1.10398 -0.306312
v 0.76944 -1.11436 -0.518115
v 0.800857 -1.13876 -0.532302
v 0.800857 -1.13876 -0.532302
v 0.905997 -1.09013 -0.458264
v 0.777347 -1.26133 -0.502247
v 0.827977 -1.11822 -0.516544
v 0.850369 -1.10125 -0.503533
v 0.870714 -1.08584 -0.491712
v 0.899949 -1.07907 -0.468306
v 0.905997 -1.09013 -0.458264
v 0.899949 -1.07907 -0.468306
v 0.88623 -1.07176 -0.46185
v 0.830952 -1.17864 -0.211573
v 0.947728 -1.16644 -0.388978
v 0.985874 -1.2362 -0.325643
v 0.999967 -1.26197 -0.302244
v 0.985874 -1.2362 -0.325643
v 0.999967 -1.26197 -0.302244
v 0.983189 -1.32891 -0.28936
v 0.975793 -1.34168 -0.290671
v 0.767031 -1.31914 -0.487375
v 0.767052 -1.31886 -0.487473
v 0.947728 -1.16644 -0.388978
v 0.767527 -1.31252 -0.489695
v 0.777026 -1.263 -0.501838
v 0.777026 -1.263 -0.501838
v 0.765842 -1.31835 -0.487948
v 0.736564 -1.41975 -0.457593
v 0.693182 -1.56998 -0.412616
v 0.505696 -1.62513 -0.30024
v 0.664705 -1.66859 -0.383092
v 0.644861 -1.67226 -0.371499
v 0.633363 -1.67438 -0.364781
v 0.633363 -1.67438 -0.364781
v 0.507163 -1.6266 -0.299973
v 0.505696 -1.62513 -0.30024
v 0.633133 -1.67445 -0.364487
v 0.632648 -1.67459 -0.363867
v 0.632608 -1.67461 -0.363815
v 0.516889 -1.63634 -0.298202
v 0.630803 -1.67516 -0.36151
v 0.627476 -1.67618 -0.357258
v 0.627214 -1.67626 -0.356924
v 0.573234 -1.69277 -0.287946
v 0.868476 -1.35167 0.0224629
v 0.778379 -1.29328 0.047825
v 0.955811 -1.30858 -0.16608
v 0.994891 -1.2893 -0.250448
v 1.01066 -1.28152 -0.284491
v 1.00178 -1.26528 -0.299242
v 1.00178 -1.26528 -0.299242
v 1.01066 -1.28152 -0.284491
v 0.994891 -1.2893 -0.250448
v 0.983189 -1.32891 -0.28936
v 1.01066 -1.28152 -0.284491
v 0.975793 -1.34168 -0.290671
v 0.939433 -1.4044 -0.297116
v 0.939433 -1.4044 -0.297116
v 0.759332 -1.42198 -0.451367
v 0.759332 -1.42198 -0.451367
v 0.736564 -1.41975 -0.457593
v 0.767031 -1.31914 -0.487375
v 0.759022 -1.42613 -0.449915
v 0.756828 -1.45542 -0.439657
v 0.693182 -1.56998 -0.412616
v 0.747359 -1.58191 -0.395368
v 0.670598 -1.66834 -0.381787
v 0.686477 -1.66765 -0.378272
v 0.742727 -1.64378 -0.373704
v 0.725251 -1.66597 -0.369688
v 0.741117 -1.66528 -0.366175
v 0.741117 -1.66528 -0.366175
v 0.742727 -1.64378 -0.373704
v 0.74956 -1.66597 -0.358315
v 0.74956 -1.66597 -0.358315
v 0.725251 -1.66597 -0.369688
v 0.741117 -1.66528 -0.366175
v 0.712241 -1.68675 -0.257104
v 0.686477 -1.66765 -0.378272
v 0.627214 -1.67626 -0.356924
v 0.595872 -1.69179 -0.282923
v 0.586844 -1.69218 -0.284927
v 0.573234 -1.69277 -0.287946
v 0.627476 -1.67618 -0.357258
v 0.644861 -1.67226 -0.371499
v 0.670598 -1.66834 -0.381787
v 0.664705 -1.66859 -0.383092
v 0.664705 -1.66859 -0.383092
v 0.630803 -1.67516 -0.36151
v 0.632608 -1.67461 -0.363815
v 0.633133 -1.67445 -0.364487
v 0.633363 -1.67438 -0.364781
v 0.77629 -1.67352 -0.302646
v 0.720515 -1.6864 -0.255268
v 0.749885 -1.68589 -0.244394
v 0.733398 -1.69361 -0.208022
v 0.704387 -1.7072 -0.144021
v 0.712447 -1.53354 0.160379
v 0.704387 -1.7072 -0.144021
v 0.868476 -1.35167 0.0224629
v 0.861545 -1.35509 0.0374274
v 0.712567 -1.53095 0.16492
v 0.861545 -1.35509 0.0374275
v 0.778379 -1.29328 0.0478251
v 0.712567 -1.53095 0.16492
v 0.861545 -1.35509 0.0374273
v 0.733398 -1.69361 -0.208022
v 0.955811 -1.30858 -0.16608
v 0.749885 -1.68589 -0.244394
v 0.77629 -1.67352 -0.302646
v 0.776738 -1.67331 -0.303633
v 0.873226 -1.51862 -0.308852
v 0.873226 -1.51862 -0.308852
v 0.759022 -1.42613 -0.449915
v 0.756828 -1.45542 -0.439657
v 0.747359 -1.58191 -0.395368
v 0.786103 -1.66892 -0.324294
v 0.776738 -1.67331 -0.303633
v 0.786103 -1.66892 -0.324294
v 0.786103 -1.66892 -0.324294
v 0.765842 -1.31835 -0.487948
v 0.767052 -1.31886 -0.487473
v 0.767527 -1.31252 -0.489695
v 0.767527 -1.31252 -0.489695
v 0.622221 -0.931015 -0.337621
v 0.572809 -0.938185 -0.25925
v 0.585868 -0.911634 -0.320515
v 0.585868 -0.911634 -0.320515
v 0.515714 -0.989358 -0.273776
v 0.572809 -0.938185 -0.25925
v 0.575115 -0.918318 -0.3361
v 0.477869 -1.00325 -0.370526
v 0.558821 -0.928447 -0.359717
v 0.549039 -0.934527 -0.373895
v 0.548496 -0.934865 -0.374682
v 0.527126 -0.948148 -0.405656
v 0.527126 -0.948148 -0.405656
v 0.547997 -0.959445 -0.415759
v 0.733312 -1.0863 -0.5018
v 0.620555 -0.998717 -0.450882
v 0.733312 -1.0863 -0.5018
v 0.620555 -0.998717 -0.450882
v 0.72824 -1.03622 -0.468458
v 0.807043 -1.06367 -0.48132
v 0.76944 -1.11436 -0.518115
v 0.8281 -1.071 -0.484756
v 0.850369 -1.10125 -0.503533
v 0.827977 -1.11822 -0.516544
v 0.800857 -1.13876 -0.532302
v 0.854165 -1.08008 -0.489011
v 0.870714 -1.08584 -0.491712
v 0.870714 -1.08584 -0.491712
v 0.854165 -1.08008 -0.489011
v 0.88623 -1.07176 -0.46185
v 0.899949 -1.07907 -0.468306
v 0.857964 -1.05669 -0.44855
v 0.857964 -1.05669 -0.44855
v 0.735679 -0.991501 -0.391009
v 0.735679 -0.991501 -0.391009
v 0.620555 -0.998717 -0.450882
v 0.622221 -0.931015 -0.337621
v 0.72824 -1.03622 -0.468458
v 0.807043 -1.06367 -0.48132
v 0.8281 -1.071 -0.484757
v 0.547997 -0.959445 -0.415759
v 0.558821 -0.928447 -0.359717
v 0.575115 -0.918318 -0.3361
v 0.585867 -0.911634 -0.320515
v 0.549039 -0.934527 -0.373895
v 0.548496 -0.934865 -0.374682
v 0.527126 -0.948148 -0.405656
v 0.389929 -1.1021 -0.305779
v 0.387832 -1.10398 -0.306312
v 0.573234 -1.69277 -0.287946
v 0.515714 -0.989358 -0.273776
v 0.516889 -1.63634 -0.298202
v 0.586844 -1.69218 -0.284927
v 0.830952 -1.17864 -0.211573
v 0.595872 -1.69179 -0.282923
v 0.712241 -1.68675 -0.257104
v 0.720515 -1.6864 -0.255268
v 0.830952 -1.17864 -0.211573
v 0.720515 -1.6864 -0.255268
v 0.712447 -1.53354 0.160379
v 0.778379 -1.29328 0.047825
v 0.704387 -1.7072 -0.144021
v 0.712567 -1.53095 0.16492
v 0.572809 -0.938185 -0.25925
v 0.389929 -1.1021 -0.305779
v 0.507163 -1.6266 -0.299973
v 0.505696 -1.62513 -0.30024
v 0.387832 -1.10398 -0.306312
vt -0.985239 -0.597901
vt -1.24518 -0.923585
vt -1.08669 -0.487979
vt -1.09715 -0.924423
vt -1.12173 -0.958769
vt -0.811327 -0.240623
vt -0.760405 -0.368325
vt -0.939667 -0.243194
vt -0.789812 -0.271333
vt -0.772048 -0.296688
vt -0.755908 -0.319726
vt -0.748824 -0.357117
vt -0.300137 -1.39168
vt -0.311233 -1.37999
vt -0.304099 -1.36475
vt -0.0275249 -1.38971
vt -0.223571 -1.47232
vt -0.153581 -1.54603
vt -0.127723 -1.57327
vt -0.913353 -0.516346
vt -0.940339 -0.542462
vt -1.01044 -0.538577
vt -1.0238 -0.532197
vt -1.00021 -0.245448
vt -0.999915 -0.245398
vt -0.840311 -0.445656
vt -0.99327 -0.244268
vt -0.941416 -0.243229
vt -1.24687 -0.923105
vt -1.30262 -0.906566
vt -1.40475 -0.866201
vt -1.55606 -0.806391
vt -1.61162 -0.587906
vt -1.6554 -0.76713
vt -1.65908 -0.744152
vt -1.66122 -0.730838
vt -1.32688 0.845245
vt -1.17809 0.861655
vt -1.17636 0.860476
vt -1.32661 0.845511
vt -1.32604 0.846072
vt -1.32599 0.846119
vt -1.18956 0.869472
vt -1.32386 0.848204
vt -1.31994 0.852051
vt -1.31963 0.852353
vt -1.25599 0.914754
vt 0.231103 -1.52839
vt 0.25913 -1.42169
vt 0.0227487 -1.56865
vt -0.0704845 -1.58666
vt -0.108104 -1.59393
vt -0.124405 -1.57676
vt -0.943802 -0.545813
vt -0.960814 -0.562277
vt -0.645741 -0.579424
vt -0.686103 -0.619314
vt -0.681052 -0.564551
vt -0.687463 -0.634058
vt -0.694148 -0.70654
vt -1.08949 -0.500829
vt -1.10789 -0.263764
vt -0.542325 1.17867
vt -0.518998 1.17443
vt -0.550212 1.06973
vt -0.542007 1.18307
vt -0.53976 1.2141
vt -0.474553 1.33095
vt -0.530058 1.3481
vt -0.451416 1.43391
vt -0.467684 1.43447
vt -0.525312 1.41365
vt -0.507409 1.43586
vt -0.523663 1.43643
vt -1.36266 -0.307098
vt -1.34014 -0.303268
vt -1.36338 -0.318632
vt -0.609844 -0.0655843
vt -0.585456 -0.0767855
vt -0.601373 -0.0734443
vt -0.572404 0.037696
vt -0.546555 -0.0849513
vt -0.487099 -0.0624391
vt -0.455655 0.0131315
vt -0.446597 0.0112257
vt -0.432943 0.00835279
vt -0.487361 -0.0627817
vt -0.504803 -0.0774855
vt -0.530624 -0.0882952
vt -0.524712 -0.0895364
vt -0.445378 1.43369
vt -0.490699 -0.0671457
vt -0.49251 -0.0695118
vt -0.493037 -0.0702014
vt -0.493268 -0.070503
vt -0.636662 -0.00944659
vt -0.580704 0.0394425
vt -0.61017 0.0500658
vt -0.593629 0.0872251
vt -0.564523 0.152611
vt -0.219604 -0.935249
vt -0.535347 -1.08753
vt -0.362659 -0.698652
vt -0.347137 -0.705189
vt -0.214893 -0.932977
vt -1.39765 0.783767
vt -1.33213 0.702824
vt -1.58408 0.5977
vt 0.24764 -1.52519
vt -0.601733 -1.06079
vt -0.558228 -0.616282
vt -0.639461 -1.04559
vt -0.699884 -1.02124
vt -0.700907 -1.02083
vt -0.70632 -0.83852
vt -1.20909 -0.443712
vt -1.11223 -0.264503
vt -1.14291 -0.269721
vt -1.27536 -0.292249
vt -1.36647 -0.368552
vt -0.63711 -0.0104544
vt -0.646507 -0.0315632
vt -0.722339 -1.01219
vt -0.548994 1.06879
vt -0.550234 1.06943
vt -0.550721 1.06271
vt -1.29674 -0.90889
vt -0.166817 -1.07132
vt -0.0802106 -1.03764
vt -0.147914 -1.03092
vt -0.141687 0.205795
vt -0.0943064 0.310208
vt -0.0795807 0.233574
vt -0.157486 0.218188
vt -0.192385 0.347175
vt -0.181427 0.236967
vt -0.1958 0.248241
vt -0.196597 0.248867
vt -0.227996 0.273497
vt -0.929737 -0.658035
vt -0.941116 -0.681184
vt -1.06889 -0.884927
vt -0.980672 -0.761657
vt -0.743249 1.18139
vt -0.630296 1.08029
vt -0.738169 1.12122
vt -0.817109 1.15117
vt -0.77944 1.21377
vt -0.838202 1.15918
vt -0.86051 1.19476
vt -0.838079 1.2161
vt -0.810912 1.24194
vt -0.864313 1.16908
vt -0.880891 1.17537
vt -0.993277 0.981012
vt -0.976352 0.975727
vt -1.00915 0.948166
vt -1.02318 0.957468
vt -0.980237 0.929002
vt -0.289402 -1.33333
vt -0.225814 -1.19742
vt -0.855175 0.846092
vt -0.737437 0.90112
vt -0.739141 0.769167
vt -0.847568 0.935511
vt -0.92816 0.960678
vt -0.949695 0.967403
vt -0.663231 0.85078
vt -0.6743 0.786779
vt -0.690965 0.76132
vt -0.701961 0.74452
vt -0.664296 0.802063
vt -0.663741 0.80291
vt -0.641886 0.8363
vt -0.126749 0.479038
vt -0.127289 0.481853
vt 0.797899 0.768851
vt 0.4157 0.394962
vt 0.822764 0.71357
vt 0.782919 0.775215
vt 0.196806 0.642111
vt 0.772983 0.779436
vt 0.644903 0.833849
vt 0.635797 0.837718
vt 0.196806 0.642111
vt 0.635797 0.837718
vt 0.37501 0.846167
vt 0.209867 0.731321
vt 0.61766 0.864644
vt 0.37139 0.845891
vt 0.322122 0.397719
vt 0.62186 0.388891
vt 0.827057 0.704027
vt 0.827704 0.702588
vt 0.625298 0.38879
vn -0.48429 -0.119626 -0.866691
vn -0.484289 -0.119615 -0.866693
vn -0.48429 -0.119619 -0.866692
vn -0.484291 -0.119625 -0.86669
vn -0.484292 -0.119626 -0.86669
vn 0.637753 -0.296626 -0.710833
vn 0.637754 -0.296633 -0.71083
vn 0.637766 -0.296706 -0.710789
vn 0.637752 -0.296626 -0.710835
vn 0.637752 -0.296643 -0.710827
vn 0.637756 -0.296631 -0.710828
vn 0.637761 -0.296615 -0.710831
vn 0.573457 0.700007 0.425601
vn 0.573454 0.699996 0.425625
vn 0.573454 0.70001 0.425602
vn 0.573451 0.700019 0.425591
vn 0.57345 0.70002 0.425589
vn 0.573451 0.70002 0.425589
vn 0.573451 0.700017 0.425593
vn 0.637761 -0.296639 -0.710821
vn 0.637711 -0.296636 -0.710867
vn 0.637739 -0.296639 -0.710841
vn 0.63776 -0.296639 -0.710821
vn 0.637754 -0.296641 -0.710826
vn 0.637749 -0.296626 -0.710837
vn 0.637759 -0.296674 -0.710808
vn 0.637748 -0.296625 -0.710838
vn 0.637771 -0.296738 -0.710771
vn -0.484359 -0.11959 -0.866657
vn -0.484361 -0.119603 -0.866654
vn -0.484291 -0.119625 -0.866691
vn -0.484291 -0.119625 -0.866691
vn -0.484291 -0.119629 -0.86669
vn -0.48429 -0.119623 -0.866691
vn -0.484292 -0.119632 -0.866689
vn -0.484294 -0.119644 -0.866686
vn -0.529822 -0.631269 -0.566381
vn -0.529772 -0.631664 -0.565988
vn -0.529746 -0.631853 -0.565802
vn -0.529798 -0.631468 -0.566183
vn -0.529696 -0.632249 -0.565405
vn -0.529727 -0.631968 -0.565691
vn -0.52975 -0.631827 -0.565826
vn -0.529729 -0.631948 -0.565711
vn -0.529774 -0.631684 -0.565964
vn -0.529774 -0.631686 -0.565961
vn -0.529751 -0.631834 -0.565818
vn 0.573452 0.700023 0.425583
vn 0.573453 0.700025 0.425578
vn 0.57345 0.700019 0.425591
vn 0.573451 0.70002 0.425589
vn 0.573451 0.700019 0.425591
vn 0.573452 0.700015 0.425595
vn 0.637711 -0.29664 -0.710866
vn 0.63776 -0.296647 -0.710819
vn 0.821993 -0.503754 0.26563
vn 0.822 -0.503749 0.265619
vn 0.821985 -0.503763 0.265637
vn 0.821999 -0.503748 0.265623
vn 0.821987 -0.503758 0.265641
vn 0.637754 -0.296639 -0.710827
vn 0.637755 -0.296638 -0.710827
vn 0.217423 -0.337019 -0.916049
vn 0.217401 -0.337021 -0.916053
vn 0.217374 -0.337019 -0.91606
vn 0.217422 -0.337018 -0.916049
vn 0.217414 -0.337028 -0.916048
vn 0.217404 -0.337027 -0.91605
vn 0.217409 -0.337027 -0.916049
vn 0.217399 -0.337025 -0.916052
vn 0.217411 -0.337029 -0.916048
vn 0.217417 -0.337035 -0.916044
vn 0.217419 -0.337039 -0.916043
vn 0.217422 -0.337041 -0.916041
vn 0.637737 -0.296654 -0.710836
vn 0.637748 -0.296644 -0.71083
vn 0.63775 -0.296646 -0.710828
vn 0.0805298 -0.981815 -0.171914
vn 0.0806352 -0.981794 -0.171985
vn 0.080681 -0.981769 -0.172103
vn 0.0806165 -0.981806 -0.171922
vn 0.0805885 -0.981796 -0.171993
vn 0.080602 -0.981796 -0.171989
vn 0.0806412 -0.981805 -0.171917
vn 0.0806504 -0.981805 -0.171915
vn 0.0806369 -0.981805 -0.171922
vn 0.0805364 -0.981788 -0.172063
vn 0.0804645 -0.981777 -0.17216
vn 0.0805888 -0.981794 -0.172003
vn 0.0805702 -0.981788 -0.172047
vn 0.217384 -0.337024 -0.916056
vn 0.0804589 -0.981789 -0.172096
vn 0.0812393 -0.981936 -0.170887
vn 0.0802689 -0.981732 -0.17251
vn 0.0784654 -0.981363 -0.175412
vn 0.0804851 -0.981828 -0.171861
vn 0.0806069 -0.981806 -0.171927
vn 0.0806038 -0.981806 -0.171934
vn 0.0805993 -0.981806 -0.17193
vn 0.0805957 -0.981807 -0.171929
vn 0.821989 -0.503756 0.26564
vn 0.821989 -0.503757 0.265636
vn 0.821989 -0.503755 0.26564
vn 0.821989 -0.503755 0.265641
vn 0.821988 -0.503762 0.265631
vn 0.355867 0.331877 0.873622
vn 0.355867 0.331877 0.873622
vn 0.355867 0.331877 0.873622
vn 0.573454 0.700032 0.425566
vn 0.821989 -0.503757 0.265637
vn 0.821976 -0.503763 0.265668
vn 0.821989 -0.503757 0.265637
vn 0.821944 -0.503775 0.265743
vn 0.82196 -0.50377 0.265703
vn 0.82199 -0.503759 0.265632
vn 0.637755 -0.29664 -0.710826
vn 0.637756 -0.296637 -0.710827
vn 0.637756 -0.296639 -0.710826
vn 0.637754 -0.296639 -0.710827
vn 0.637757 -0.296643 -0.710823
vn 0.0803746 -0.981846 -0.171811
vn 0.0806581 -0.981799 -0.171946
vn 0.821993 -0.50376 0.265619
vn 0.217314 -0.337021 -0.916074
vn 0.217301 -0.337032 -0.916073
vn 0.217301 -0.337032 -0.916073
vn -0.484501 -0.119558 -0.866582
vn 0.573451 0.700019 0.42559
vn 0.573451 0.700019 0.425591
vn 0.573452 0.700018 0.425591
vn -0.681209 0.713482 0.164002
vn -0.68121 0.713482 0.164002
vn -0.68121 0.713482 0.164001
vn -0.68121 0.713482 0.164002
vn -0.681216 0.713479 0.163987
vn -0.68121 0.713481 0.164005
vn -0.681212 0.713482 0.163995
vn -0.681212 0.713482 0.163991
vn -0.681211 0.713481 0.164001
vn -0.484289 -0.119628 -0.866691
vn -0.484291 -0.119627 -0.86669
vn -0.484291 -0.119626 -0.86669
vn -0.484293 -0.119629 -0.866689
vn 0.0589468 0.557363 -0.828174
vn 0.0589464 0.557364 -0.828173
vn 0.0589463 0.557364 -0.828173
vn 0.0589434 0.557364 -0.828173
vn 0.0589415 0.557363 -0.828174
vn 0.0589436 0.557365 -0.828173
vn 0.0589469 0.557365 -0.828172
vn 0.0589404 0.557362 -0.828175
vn 0.0589401 0.557356 -0.828179
vn 0.0589521 0.557366 -0.828172
vn 0.0589523 0.557366 -0.828172
vn 0.209569 0.837915 -0.503964
vn 0.209574 0.837919 -0.503954
vn 0.209566 0.837919 -0.503959
vn 0.209559 0.837919 -0.50396
vn 0.20957 0.837926 -0.503946
vn 0.573445 0.700024 0.425591
vn 0.573451 0.70002 0.42559
vn 0.209574 0.83792 -0.503953
vn 0.209574 0.837921 -0.503952
vn 0.209574 0.837921 -0.503952
vn 0.209574 0.83792 -0.503953
vn 0.20957 0.837925 -0.503947
vn 0.209572 0.837928 -0.503941
vn 0.209576 0.837921 -0.503951
vn 0.209575 0.83792 -0.503953
vn 0.209575 0.83792 -0.503953
vn 0.209575 0.837922 -0.50395
vn 0.20958 0.83792 -0.50395
vn 0.209577 0.837921 -0.503951
vn 0.209571 0.837922 -0.503951
vn -0.68123 0.713473 0.163958
vn -0.681251 0.713463 0.163915
vn -0.214924 -0.0372352 0.975921
vn -0.214925 -0.0372353 0.97592
vn -0.214923 -0.0372346 0.975921
vn -0.214922 -0.0372361 0.975921
vn -0.214923 -0.0372361 0.975921
vn -0.214923 -0.0372366 0.975921
vn -0.214924 -0.0372357 0.975921
vn -0.214921 -0.0372363 0.975921
vn -0.970479 0.219652 -0.0996182
vn -0.970479 0.219651 -0.0996176
vn -0.970479 0.219652 -0.0996159
vn -0.970479 0.219654 -0.0996141
vn -0.97048 0.219649 -0.0996172
vn -0.970479 0.219656 -0.0996099
vn -0.214925 -0.0372356 0.97592
vn -0.214914 -0.0372326 0.975923
vn -0.214911 -0.0372319 0.975924
vn -0.214906 -0.0372309 0.975925
vn -0.214908 -0.0372313 0.975924
f 1/1/1 2/2/2 3/3/3 
f 4/4/4 2/2/2 1/1/1 
f 5/5/5 2/2/2 4/4/4 
f 6/6/6 7/7/7 8/8/8 
f 9/9/9 7/7/7 6/6/6 
f 10/10/10 7/7/7 9/9/9 
f 11/11/11 7/7/7 10/10/10 
f 12/12/12 7/7/7 11/11/11 
f 13/13/13 14/14/14 15/15/15 
f 13/13/13 15/15/15 16/16/16 
f 16/16/16 17/17/17 13/13/13 
f 16/16/16 18/18/18 17/17/17 
f 18/18/18 16/16/16 19/19/19 
f 20/20/20 21/21/21 22/22/22 
f 20/20/20 22/22/22 23/23/23 
f 24/24/24 20/20/20 23/23/23 
f 25/25/25 20/20/20 24/24/24 
f 26/26/26 20/20/20 25/25/25 
f 26/26/26 25/25/25 27/27/27 
f 26/26/26 27/27/27 28/28/28 
f 26/26/26 28/28/28 8/8/8 
f 7/7/7 26/26/26 8/8/8 
f 3/3/3 2/2/2 29/29/29 
f 3/3/3 29/29/29 30/30/30 
f 31/31/31 3/3/3 30/30/30 
f 32/32/32 3/3/3 31/31/31 
f 32/32/32 33/33/33 3/3/3 
f 34/34/34 33/33/33 32/32/32 
f 35/35/35 33/33/33 34/34/34 
f 36/36/36 33/33/33 35/35/35 
f 37/37/37 38/38/38 39/39/39 
f 40/40/40 38/38/38 37/37/37 
f 41/41/41 38/38/38 40/40/40 
f 42/42/42 38/38/38 41/41/41 
f 42/42/42 43/43/43 38/38/38 
f 44/44/44 43/43/43 42/42/42 
f 45/45/45 43/43/43 44/44/44 
f 46/46/46 43/43/43 45/45/45 
f 43/43/43 46/46/46 47/47/47 
f 48/48/48 16/16/16 49/49/49 
f 50/50/50 16/16/16 48/48/48 
f 16/16/16 50/50/50 51/51/51 
f 52/52/52 16/16/16 51/51/51 
f 53/53/53 16/16/16 52/52/52 
f 19/19/19 16/16/16 53/53/53 
f 21/21/21 54/54/54 22/22/22 
f 54/54/54 55/55/55 22/22/22 
f 56/56/56 57/57/57 58/58/58 
f 57/57/57 56/56/56 59/59/59 
f 59/59/59 56/56/56 60/60/60 
f 61/61/61 24/24/24 23/23/23 
f 62/62/62 24/24/24 61/61/61 
f 63/63/63 64/64/64 65/65/65 
f 66/66/66 64/64/64 63/63/63 
f 67/67/67 64/64/64 66/66/66 
f 67/67/67 68/68/68 64/64/64 
f 69/69/69 68/68/68 67/67/67 
f 69/69/69 70/70/70 68/68/68 
f 69/69/69 71/71/71 70/70/70 
f 72/72/72 71/71/71 69/69/69 
f 72/72/72 73/73/73 71/71/71 
f 72/72/72 74/74/74 73/73/73 
f 75/75/75 76/76/76 77/77/77 
f 78/78/78 79/79/79 80/80/80 
f 81/81/81 79/79/79 78/78/78 
f 81/81/81 82/82/82 79/79/79 
f 81/81/81 83/83/83 82/82/82 
f 81/81/81 84/84/84 83/83/83 
f 84/84/84 85/85/85 83/83/83 
f 85/85/85 86/86/86 83/83/83 
f 83/83/83 87/87/87 82/82/82 
f 88/88/88 82/82/82 87/87/87 
f 82/82/82 88/88/88 89/89/89 
f 89/89/89 88/88/88 90/90/90 
f 68/68/68 70/70/70 91/91/91 
f 92/92/92 88/88/88 87/87/87 
f 92/92/92 93/93/93 88/88/88 
f 93/93/93 94/94/94 88/88/88 
f 94/94/94 95/95/95 88/88/88 
f 96/96/96 81/81/81 78/78/78 
f 97/97/97 81/81/81 96/96/96 
f 98/98/98 97/97/97 96/96/96 
f 99/99/99 97/97/97 98/98/98 
f 100/100/100 97/97/97 99/99/99 
f 101/101/101 102/102/102 103/103/103 
f 104/104/104 101/101/101 103/103/103 
f 104/104/104 105/105/105 101/101/101 
f 106/106/106 107/107/107 108/108/108 
f 48/48/48 49/49/49 109/109/109 
f 103/103/103 102/102/102 110/110/110 
f 110/110/110 111/111/111 103/103/103 
f 112/112/112 111/111/111 110/110/110 
f 111/111/111 112/112/112 113/113/113 
f 111/111/111 113/113/113 114/114/114 
f 111/111/111 114/114/114 115/115/115 
f 111/111/111 115/115/115 60/60/60 
f 60/60/60 56/56/56 111/111/111 
f 61/61/61 116/116/116 117/117/117 
f 62/62/62 61/61/61 117/117/117 
f 117/117/117 116/116/116 118/118/118 
f 119/119/119 118/118/118 116/116/116 
f 119/119/119 116/116/116 76/76/76 
f 77/77/77 76/76/76 116/116/116 
f 77/77/77 116/116/116 120/120/120 
f 121/121/121 78/78/78 122/122/122 
f 96/96/96 78/78/78 121/121/121 
f 115/115/115 114/114/114 123/123/123 
f 65/65/65 64/64/64 124/124/124 
f 65/65/65 124/124/124 125/125/125 
f 125/125/125 124/124/124 126/126/126 
f 30/30/30 29/29/29 127/127/127 
f 128/128/128 129/129/129 16/16/16 
f 130/130/130 129/129/129 128/128/128 
f 131/131/131 132/132/132 133/133/133 
f 134/134/134 132/132/132 131/131/131 
f 134/134/134 135/135/135 132/132/132 
f 136/136/136 135/135/135 134/134/134 
f 135/135/135 136/136/136 137/137/137 
f 138/138/138 135/135/135 137/137/137 
f 139/139/139 135/135/135 138/138/138 
f 1/1/1 140/140/140 141/141/141 
f 141/141/141 142/142/142 1/1/1 
f 143/143/143 142/142/142 141/141/141 
f 144/144/144 145/145/145 146/146/146 
f 144/144/144 146/146/146 147/147/147 
f 144/144/144 147/147/147 148/148/148 
f 4/4/4 1/1/1 142/142/142 
f 148/148/148 147/147/147 149/149/149 
f 148/148/148 149/149/149 150/150/150 
f 151/151/151 148/148/148 150/150/150 
f 152/152/152 148/148/148 151/151/151 
f 150/150/150 149/149/149 153/153/153 
f 154/154/154 150/150/150 153/153/153 
f 155/155/155 156/156/156 157/157/157 
f 158/158/158 155/155/155 157/157/157 
f 157/157/157 156/156/156 159/159/159 
f 16/16/16 15/15/15 160/160/160 
f 16/16/16 160/160/160 161/161/161 
f 16/16/16 161/161/161 128/128/128 
f 162/162/162 163/163/163 164/164/164 
f 165/165/165 163/163/163 162/162/162 
f 165/165/165 162/162/162 166/166/166 
f 166/166/166 162/162/162 159/159/159 
f 167/167/167 166/166/166 159/159/159 
f 156/156/156 167/167/167 159/159/159 
f 163/163/163 168/168/168 164/164/164 
f 169/169/169 164/164/164 168/168/168 
f 169/169/169 170/170/170 164/164/164 
f 164/164/164 170/170/170 171/171/171 
f 169/169/169 168/168/168 172/172/172 
f 168/168/168 173/173/173 172/172/172 
f 168/168/168 174/174/174 173/173/173 
f 175/175/175 132/132/132 135/135/135 
f 176/176/176 175/175/175 135/135/135 
f 177/177/177 178/178/178 179/179/179 
f 180/180/180 178/178/178 177/177/177 
f 180/180/180 181/181/181 178/178/178 
f 182/182/182 181/181/181 180/180/180 
f 183/183/183 181/181/181 182/182/182 
f 184/184/184 181/181/181 183/183/183 
f 185/185/185 186/186/186 187/187/187 
f 185/185/185 187/187/187 188/188/188 
f 187/187/187 186/186/186 189/189/189 
f 188/188/188 187/187/187 190/190/190 
f 181/181/181 191/191/191 178/178/178 
f 179/179/179 178/178/178 192/192/192 
f 192/192/192 193/193/193 179/179/179 
f 192/192/192 194/194/194 193/193/193 
f 195/195/195 194/194/194 192/192/192 
