v -0.584617 2.37985 0.302495
v -0.443788 2.3628 0.329444
v -0.570808 2.38868 0.29306
v -0.443788 2.3628 0.329444
v -0.584617 2.37985 0.302495
v -0.540452 2.38278 0.2741
v -0.310076 2.36212 0.285985
v -0.494131 2.38584 0.244319
v -0.477584 2.38694 0.233681
v -0.429242 2.39015 0.202601
v -0.393429 2.39252 0.179576
v -0.315329 2.38376 0.19145
v -0.302597 2.38001 0.203709
v -0.278464 2.37291 0.226948
v -0.17398 2.34217 0.327557
v -0.310076 2.36212 0.285985
v -0.17398 2.34217 0.327557
v -0.175045 2.3543 0.321335
v -0.272 2.4295 0.2617
v -0.310076 2.36212 0.285985
v -0.272 2.4295 0.2617
v -0.443788 2.3628 0.329444
v -0.272 2.4295 0.2617
v -0.32959 2.54291 0.128257
v -0.32959 2.54291 0.128257
v -0.272 2.4295 0.2617
v -0.315132 2.55002 0.11853
v -0.32959 2.54291 0.128257
v -0.315132 2.55002 0.11853
v -0.32595 2.50691 0.128465
v -0.330533 2.48864 0.132674
v -0.494131 2.38584 0.244319
v -0.570807 2.38868 0.29306
v -0.540452 2.38278 0.2741
v -0.584617 2.37985 0.302495
v -0.477584 2.38694 0.233681
v -0.333914 2.47516 0.13578
v -0.429242 2.39015 0.202601
v -0.393429 2.39252 0.179576
v -0.37001 2.39407 0.164519
v -0.37001 2.39407 0.164519
v -0.353992 2.39513 0.154221
v -0.315329 2.38376 0.19145
v -0.353992 2.39513 0.154221
v -0.333914 2.47516 0.13578
v -0.302597 2.38001 0.203709
v -0.330533 2.48864 0.132674
v -0.278464 2.37291 0.226948
v -0.32595 2.50691 0.128465
v -0.178129 2.38941 0.303332
v -0.315132 2.55002 0.11853
v -0.178128 2.38941 0.303332
v -0.176516 2.37105 0.312747
v -0.178128 2.38941 0.303332
v -0.175045 2.3543 0.321335
v -0.176516 2.37105 0.312747
v -0.17398 2.34217 0.327557
v -0.353992 2.39513 0.154221
vt 0.335477 0.59907
vt 0.342161 0.613382
vt 0.334559 0.600864
vt 0.623064 -0.19614
vt 0.764301 -0.226168
vt 0.720008 -0.254514
vt 0.488965 -0.238394
vt 0.673553 -0.284244
vt 0.656958 -0.294865
vt 0.608476 -0.325892
vt 0.572559 -0.348878
vt 0.494233 -0.335372
vt 0.481465 -0.322591
vt 0.457261 -0.298361
vt 0.352475 -0.193461
vt 0.344399 0.627508
vt 0.346089 0.642609
vt 0.344817 0.642879
vt 0.3372 0.6341
vt 0.344399 0.627508
vt 0.3372 0.6341
vt 0.342161 0.613382
vt 0.3372 0.6341
vt 0.318511 0.632213
vt 0.318511 0.632213
vt 0.3372 0.6341
vt 0.316682 0.634281
vt 2.54256 0.346827
vt 2.54968 0.329407
vt 2.50649 0.343871
vt 2.48819 0.349998
vt 2.38521 0.547968
vt 2.38805 0.638824
vt 2.38213 0.603036
vt 2.3792 0.655541
vt 2.38631 0.528296
vt 2.47469 0.354519
vt 2.38952 0.470826
vt 2.3919 0.428249
vt 2.39345 0.400408
vt 0.549073 -0.363908
vt 0.533008 -0.374189
vt 2.14687 0.119628
vt 2.15887 0.173164
vt 2.24334 0.169549
vt 2.14291 0.101999
vt 2.25757 0.168941
vt 2.13542 0.0685823
vt 2.27685 0.168115
vt 2.15283 -0.0573968
vt 2.32236 0.166168
vt 0.341134 0.643661
vt 0.34306 0.643252
vt 0.341134 0.643661
vt 2.11578 -0.0712919
vt 2.13346 -0.0646639
vt 2.10297 -0.0760946
vt 2.39452 0.381365
vn -0.0342147 0.754193 0.655761
vn -0.0342147 0.754193 0.655761
vn -0.0342147 0.754193 0.655761
vn -0.0759417 -0.972895 -0.218422
vn -0.0759417 -0.972895 -0.218422
vn -0.0759417 -0.972895 -0.218422
vn -0.0759417 -0.972895 -0.218422
vn -0.0759417 -0.972895 -0.218422
vn -0.0759417 -0.972895 -0.218422
vn -0.0759417 -0.972895 -0.218422
vn -0.0759417 -0.972895 -0.218422
vn -0.0759417 -0.972895 -0.218422
vn -0.0759417 -0.972895 -0.218422
vn -0.0759417 -0.972895 -0.218422
vn -0.0759417 -0.972895 -0.218422
vn -0.20485 0.432293 0.878157
vn -0.20485 0.432293 0.878157
vn -0.20485 0.432293 0.878157
vn -0.20485 0.432293 0.878157
vn 0.30561 0.165281 0.937702
vn 0.30561 0.165281 0.937702
vn 0.30561 0.165281 0.937702
vn -0.0342147 0.754193 0.655761
vn -0.0342147 0.754193 0.655761
vn 0.0478016 0.771188 0.63481
vn 0.0478016 0.771188 0.63481
vn 0.0478016 0.771188 0.63481
vn -0.537072 -0.0591522 -0.84146
vn -0.537072 -0.0591522 -0.84146
vn -0.537072 -0.0591522 -0.84146
vn -0.537072 -0.0591522 -0.84146
vn -0.537072 -0.0591522 -0.84146
vn -0.537072 -0.0591522 -0.84146
vn -0.537072 -0.0591522 -0.84146
vn -0.537072 -0.0591522 -0.84146
vn -0.537072 -0.0591522 -0.84146
vn -0.537072 -0.0591522 -0.84146
vn -0.537072 -0.0591522 -0.84146
vn -0.537072 -0.0591522 -0.84146
vn -0.537072 -0.0591522 -0.84146
vn -0.0759417 -0.972895 -0.218422
vn -0.0759417 -0.972895 -0.218422
vn 0.60665 -0.319894 -0.727766
vn 0.60665 -0.319894 -0.727766
vn 0.60665 -0.319894 -0.727766
vn 0.60665 -0.319894 -0.727766
vn 0.60665 -0.319894 -0.727766
vn 0.60665 -0.319894 -0.727766
vn 0.60665 -0.319894 -0.727766
vn 0.60665 -0.319894 -0.727766
vn 0.60665 -0.319894 -0.727766
vn 0.0478016 0.771188 0.63481
vn -0.20485 0.432293 0.878157
vn -0.20485 0.432293 0.878157
vn 0.60665 -0.319894 -0.727766
vn 0.60665 -0.319894 -0.727766
vn 0.60665 -0.319894 -0.727766
vn -0.537072 -0.0591522 -0.84146
f 1/1/1 2/2/2 3/3/3 
f 4/4/4 5/5/5 6/6/6 
f 6/6/6 7/7/7 4/4/4 
f 8/8/8 7/7/7 6/6/6 
f 7/7/7 8/8/8 9/9/9 
f 7/7/7 9/9/9 10/10/10 
f 7/7/7 10/10/10 11/11/11 
f 7/7/7 11/11/11 12/12/12 
f 13/13/13 7/7/7 12/12/12 
f 14/14/14 7/7/7 13/13/13 
f 7/7/7 14/14/14 15/15/15 
f 16/16/16 17/17/17 18/18/18 
f 16/16/16 18/18/18 19/19/19 
f 20/20/20 21/21/21 22/22/22 
f 3/3/3 2/2/2 23/23/23 
f 23/23/23 24/24/24 3/3/3 
f 25/25/25 26/26/26 27/27/27 
f 28/28/28 29/29/29 30/30/30 
f 31/31/31 28/28/28 30/30/30 
f 28/28/28 31/31/31 32/32/32 
f 32/32/32 33/33/33 28/28/28 
f 34/34/34 33/33/33 32/32/32 
f 35/35/35 33/33/33 34/34/34 
f 32/32/32 31/31/31 36/36/36 
f 37/37/37 36/36/36 31/31/31 
f 38/38/38 36/36/36 37/37/37 
f 39/39/39 38/38/38 37/37/37 
f 40/40/40 39/39/39 37/37/37 
f 12/12/12 11/11/11 41/41/41 
f 12/12/12 41/41/41 42/42/42 
f 43/43/43 44/44/44 45/45/45 
f 45/45/45 46/46/46 43/43/43 
f 47/47/47 46/46/46 45/45/45 
f 47/47/47 48/48/48 46/46/46 
f 49/49/49 48/48/48 47/47/47 
f 49/49/49 50/50/50 48/48/48 
f 51/51/51 50/50/50 49/49/49 
f 27/27/27 26/26/26 52/52/52 
f 19/19/19 53/53/53 54/54/54 
f 19/19/19 18/18/18 53/53/53 
f 55/55/55 48/48/48 56/56/56 
f 57/57/57 48/48/48 55/55/55 
f 48/48/48 50/50/50 56/56/56 
f 37/37/37 58/58/58 40/40/40 
