v 0.919753 -0.910558 -0.691589
v 0.979212 -1.05667 -0.611384
v 0.843207 -1.18252 -0.800497
v 0.981846 -1.05405 -0.607719
v 0.981846 -1.05405 -0.60772
v 0.96383 -1.05401 -0.571007
v 0.979212 -1.05667 -0.611384
v 0.986931 -1.04901 -0.600645
v 0.991374 -1.0446 -0.594462
v 0.919753 -0.910558 -0.691589
v 0.96383 -1.05401 -0.571007
v 0.991374 -1.0446 -0.594462
v 0.930987 -1.06524 -0.543038
v 0.723174 -1.03446 -0.467631
v 0.756012 -1.04589 -0.472991
v 0.905671 -1.07389 -0.521479
v 0.770439 -1.05092 -0.475345
v 0.870714 -1.08584 -0.491712
v 0.905671 -1.07389 -0.521479
v 0.870714 -1.08584 -0.491712
v 0.860467 -1.0936 -0.497666
v 0.785414 -1.15688 -0.563392
v 0.924113 -1.11137 -0.688044
v 0.930987 -1.06524 -0.543038
v 0.924113 -1.11137 -0.688044
v 0.851238 -1.17987 -0.789388
v 0.851238 -1.17987 -0.789388
v 0.848756 -1.17553 -0.756194
v 0.843207 -1.18252 -0.800497
v 0.853621 -1.17696 -0.771004
v 0.853621 -1.17696 -0.771004
v 0.851238 -1.17987 -0.789388
v 0.899675 -1.13563 -0.722044
v 0.853621 -1.17696 -0.771004
v 0.899675 -1.13563 -0.722045
v 0.848756 -1.17553 -0.756194
v 0.840202 -1.17301 -0.730159
v 0.840202 -1.17301 -0.730159
v 0.752218 -1.16533 -0.591673
v 0.785414 -1.15688 -0.563392
v 0.800857 -1.13876 -0.532302
v 0.752218 -1.16533 -0.591673
v 0.785414 -1.15688 -0.563391
v 0.793964 -1.13341 -0.529189
v 0.724975 -1.07983 -0.498036
v 0.749695 -1.16597 -0.593822
v 0.723876 -1.07897 -0.497539
v 0.719274 -1.0754 -0.495461
v 0.619684 -1.19906 -0.704583
v 0.696433 -1.05765 -0.485147
v 0.565741 -1.21279 -0.750539
v 0.619684 -1.19906 -0.704583
v 0.565741 -1.21279 -0.750539
v 0.690026 -1.21879 -0.911713
v 0.756012 -1.20477 -0.875204
v 0.839301 -1.18351 -0.803844
v 0.749695 -1.16597 -0.593822
v 0.91148 -0.901192 -0.696707
v 0.843207 -1.18252 -0.800497
v 0.839301 -1.18351 -0.803844
v 0.919753 -0.910558 -0.691589
v 0.716346 -1.03208 -0.466517
v 0.91148 -0.901192 -0.696707
v 0.717047 -1.03232 -0.466631
v 0.717047 -1.03232 -0.466631
v 0.696433 -1.05765 -0.485147
v 0.723174 -1.03446 -0.467631
v 0.716346 -1.03208 -0.466517
v 0.693287 -1.05521 -0.483726
v 0.693287 -1.05521 -0.483726
v 0.594002 -0.986496 -0.449514
v 0.463761 -1.23874 -0.837419
v 0.275013 -1.05595 -0.706442
v 0.453825 -1.24127 -0.845884
v 0.463761 -1.23874 -0.837419
v 0.453825 -1.24127 -0.845884
v 0.467069 -1.24149 -0.860079
v 0.53258 -1.23678 -0.889149
v 0.616784 -1.23072 -0.926513
v 0.687177 -1.21939 -0.91329
v 0.687177 -1.21939 -0.91329
v 0.649248 -0.707097 -0.756413
v 0.690026 -1.21879 -0.911713
v 0.642585 -1.22886 -0.937962
v 0.649248 -0.707097 -0.756413
v 0.642585 -1.22886 -0.937962
v 0.477464 -0.701834 -0.673949
v 0.649248 -0.707097 -0.756413
v 0.477464 -0.701834 -0.673949
v 0.666816 -0.720101 -0.752413
v 0.666816 -0.720101 -0.752413
v 0.756012 -1.20477 -0.875204
v 0.91148 -0.901192 -0.696707
v 0.756012 -1.20477 -0.875204
v 0.594002 -0.986496 -0.449514
v 0.519366 -0.952145 -0.445669
v 0.519366 -0.952145 -0.445669
v 0.262055 -1.04508 -0.699581
v 0.259632 -1.04305 -0.698298
v 0.479824 -0.933946 -0.443631
v 0.311518 -0.930467 -0.528478
v 0.251881 -0.982708 -0.626133
v 0.292659 -0.930077 -0.537985
v 0.251881 -0.982708 -0.626133
v 0.292659 -0.930078 -0.537985
v 0.291691 -0.823264 -0.523865
v 0.291438 -0.795279 -0.520165
v 0.198105 -0.886125 -0.717478
v 0.291297 -0.779801 -0.518119
v 0.28381 -0.748815 -0.528206
v 0.291161 -0.764694 -0.516122
v 0.291161 -0.764694 -0.516122
v 0.28381 -0.748815 -0.528207
v 0.300283 -0.772878 -0.512616
v 0.310055 -0.781645 -0.508861
v 0.392395 -0.855512 -0.477224
v 0.479824 -0.933946 -0.443631
v 0.479824 -0.933946 -0.443631
v 0.392395 -0.855512 -0.477224
v 0.311518 -0.930467 -0.528478
v 0.291691 -0.823264 -0.523865
v 0.310055 -0.781645 -0.508861
v 0.291438 -0.795279 -0.520165
v 0.291297 -0.779801 -0.518119
v 0.300283 -0.772878 -0.512616
v 0.291161 -0.764694 -0.516122
v 0.292659 -0.930077 -0.537985
v 0.381102 -0.669808 -0.656692
v 0.281157 -0.743084 -0.532568
v 0.271654 -0.722559 -0.54819
v 0.345908 -0.640461 -0.667994
v 0.271142 -0.721452 -0.549032
v 0.271654 -0.722559 -0.54819
v 0.271142 -0.721452 -0.549032
v 0.281156 -0.743084 -0.532568
v 0.269022 -0.716874 -0.552516
v 0.269023 -0.716874 -0.552516
v 0.338905 -0.634622 -0.670243
v 0.244261 -0.663388 -0.593224
v 0.241398 -0.657203 -0.597931
v 0.209331 -0.587935 -0.650649
v 0.241398 -0.657203 -0.597931
v 0.209331 -0.587935 -0.650649
v 0.182274 -0.688034 -0.718916
v 0.244261 -0.663388 -0.593224
v 0.176203 -0.781965 -0.744955
v 0.338905 -0.634622 -0.670243
v 0.198105 -0.886125 -0.717478
v 0.176203 -0.781965 -0.744955
v 0.198105 -0.886125 -0.717478
v 0.338905 -0.634622 -0.670243
v 0.200517 -0.91353 -0.716842
v 0.200517 -0.91353 -0.716842
v 0.200986 -0.918858 -0.716719
v 0.200986 -0.918858 -0.716719
v 0.201385 -0.923396 -0.716614
v 0.201385 -0.923396 -0.716614
v 0.211224 -1.03518 -0.714021
v 0.211224 -1.03518 -0.714021
v 0.211224 -1.03518 -0.714021
v 0.345908 -0.640461 -0.667994
v 0.259632 -1.04305 -0.698298
v 0.2732 -1.0287 -0.6938
v 0.2732 -1.0287 -0.6938
v 0.262055 -1.04508 -0.699581
v 0.259632 -1.04305 -0.698298
v 0.275013 -1.05595 -0.706442
v 0.451512 -1.24284 -0.854825
v 0.275013 -1.05595 -0.706442
v 0.2732 -1.0287 -0.6938
v 0.445653 -1.24335 -0.852846
v 0.445653 -1.24335 -0.852846
v 0.445653 -1.24335 -0.852846
v 0.451512 -1.24284 -0.854825
v 0.467069 -1.24149 -0.860079
v 0.467069 -1.24149 -0.860079
v 0.2732 -1.0287 -0.6938
v 0.53258 -1.23678 -0.889149
v 0.616784 -1.23072 -0.926513
v 0.642585 -1.22886 -0.937962
v 0.477464 -0.701834 -0.673949
v 0.2732 -1.0287 -0.6938
v 0.381102 -0.669808 -0.656692
v 0.381102 -0.669808 -0.656692
v 0.26124 -0.5352 -0.729756
v 0.26124 -0.5352 -0.729756
v 0.227205 -0.569777 -0.677889
v 0.227205 -0.569777 -0.677889
v 0.182274 -0.688034 -0.718916
v 0.209331 -0.587935 -0.650649
v 0.16775 -0.741765 -0.75556
v 0.16775 -0.741765 -0.75556
v 0.16775 -0.741765 -0.75556
v 0.26124 -0.5352 -0.729756
v 0.620553 -0.998716 -0.450882
v 0.620553 -0.998716 -0.450882
v 0.620554 -0.998716 -0.450882
v 0.719274 -1.0754 -0.495461
v 0.756012 -1.04589 -0.472991
v 0.723876 -1.07897 -0.497539
v 0.724975 -1.07983 -0.498036
v 0.770439 -1.05092 -0.475345
v 0.793964 -1.13341 -0.529189
v 0.860467 -1.0936 -0.497665
v 0.870714 -1.08584 -0.491712
v 0.800857 -1.13876 -0.532302
v 0.800857 -1.13876 -0.532302
v 0.899675 -1.13563 -0.722045
v 0.986931 -1.04901 -0.600645
v 0.991374 -1.0446 -0.594462
vt 0.885752 0.530576
vt 0.871274 0.519383
vt 0.888882 0.49542
vt 0.870939 0.519867
vt -0.930779 0.311087
vt -0.892935 0.295586
vt -0.934556 0.30749
vt -0.923486 0.31803
vt -0.917113 0.324098
vt -1.25005 -0.156272
vt -1.29692 -0.342993
vt -1.32621 -0.319762
vt -1.262 -0.370693
vt -1.04103 -0.402154
vt -1.07594 -0.406466
vt -1.23508 -0.392046
vt -1.09128 -0.40836
vt -1.19791 -0.421528
vt -0.841883 0.235383
vt -0.811198 0.199199
vt -0.817336 0.186429
vt -0.885086 0.0896457
vt -1.01358 0.232255
vt -0.864106 0.261589
vt 0.878282 0.509275
vt 0.887681 0.496319
vt -0.704124 -0.94628
vt -0.701619 -0.912804
vt -0.696021 -0.957649
vt -0.706528 -0.92767
vt -0.824337 -0.108258
vt -0.842733 -0.111957
vt -0.775343 -0.0464026
vt -1.09909 0.138226
vt -1.04862 0.198885
vt -1.08382 0.134761
vt -1.05699 0.128669
vt -0.69299 -0.886672
vt -0.604229 -0.748469
vt -0.637719 -0.719286
vt -0.93663 -1.124
vt -0.885427 -1.18704
vt -0.920374 -1.15962
vt -0.929375 -1.11823
vt -0.856748 -1.06055
vt -0.882771 -1.18913
vt -0.855591 -1.05964
vt -0.850747 -1.05579
vt -0.745905 -1.29652
vt -0.826701 -1.03669
vt -0.689118 -1.34108
vt -0.470526 -0.864981
vt -0.416106 -0.912403
vt -0.541489 -1.07284
vt -0.608057 -1.03473
vt -0.692081 -0.961102
vt -0.601684 -0.750687
vt 0.887033 0.531274
vt 0.888882 0.49542
vt 0.889355 0.495121
vt 0.885752 0.530576
vt -1.03376 -0.401257
vt -1.24126 -0.146027
vt -1.03451 -0.401349
vt -0.726955 -1.11697
vt -0.706306 -1.14832
vt -0.733094 -1.1193
vt -0.726254 -1.1167
vt -0.703155 -1.1455
vt -0.823389 -1.03406
vt -0.71887 -0.964596
vt -0.581761 -1.42532
vt -0.383061 -1.20918
vt -0.571301 -1.43352
vt -0.313227 -1.00205
vt -0.303203 -1.01079
vt -0.316564 -1.02488
vt -0.382653 -1.053
vt -0.4676 -1.08916
vt -0.538614 -1.07448
vt 0.906933 0.484473
vt 0.91974 0.545393
vt 0.906623 0.484649
vt 0.911786 0.481708
vt 0.91974 0.545393
vt 0.911786 0.481708
vt 0.940641 0.545139
vt -0.962417 0.0335579
vt -0.779752 -0.0209526
vt -0.981097 0.0215266
vt 0.917549 0.544447
vt 0.899441 0.488739
vt 0.887033 0.531274
vt 0.899441 0.488739
vt -0.903672 -0.380992
vt -0.824308 -0.359387
vt -0.640298 -0.940268
vt -0.36942 -1.19706
vt -0.366869 -1.19479
vt -0.598671 -0.927378
vt -0.421491 -0.991761
vt -0.35871 -1.10076
vt -0.401637 -0.998975
vt -1.0149 -0.444106
vt -0.962152 -0.347049
vt -0.855092 -0.334899
vt -0.827042 -0.331715
vt -0.918097 -0.549902
vt -0.811529 -0.329955
vt -0.780472 -0.34234
vt -0.796387 -0.328236
vt -0.581649 -0.176917
vt -0.573832 -0.15714
vt -0.591349 -0.185186
vt -0.60174 -0.194045
vt -0.689294 -0.268686
vt -0.782261 -0.347941
vt -1.00127 0.227378
vt -0.922253 0.134207
vt -0.997765 0.0388953
vt -0.889767 0.0232973
vt -0.847839 0.046461
vt -0.861574 0.0247441
vt -0.845981 0.0255442
vt -0.839007 0.0360471
vt -0.830762 0.0263254
vt -0.997372 0.0177756
vt -0.677286 -0.0104648
vt -0.571011 -0.150002
vt -0.560907 -0.124438
vt -0.639863 0.0182944
vt -0.560362 -0.123059
vt -0.754154 -0.365662
vt -0.753045 -0.366645
vt -0.774727 -0.347431
vt -0.748457 -0.370711
vt -0.558108 -0.117358
vt -0.632417 0.0240167
vt -0.531779 -0.0507418
vt -0.528734 -0.0430379
vt -0.494635 0.0432339
vt -0.688648 -0.423713
vt -0.61922 -0.485238
vt -0.71955 -0.558355
vt -0.694847 -0.418219
vt -0.813698 -0.58432
vt 0.0113371 0.31288
vt 0.0232403 0.279259
vt 0.0283931 0.291561
vt 0.970077 0.520617
vt 0.958098 0.553156
vt 0.969437 0.517304
vt -0.945566 -0.548243
vt -0.950906 -0.54792
vt 0.969313 0.51666
vt 0.969207 0.516111
vt -0.955455 -0.547645
vt -1.0675 -0.540877
vt -0.315909 -1.20224
vt 0.966599 0.502597
vt 0.957251 0.552535
vt 0.96119 0.502271
vt 0.9599 0.5042
vt 0.9599 0.5042
vt 0.960878 0.501985
vt 0.96119 0.502271
vt 0.959214 0.500459
vt 0.934695 0.478696
vt 0.959214 0.500459
vt 0.9599 0.5042
vt 0.935394 0.478486
vt -0.562698 -1.44027
vt -0.294958 -1.01797
vt -0.300869 -1.01986
vt 0.932839 0.479253
vt 0.932839 0.479253
vt 0.9599 0.5042
vt 0.924981 0.480169
vt 0.914881 0.481347
vt -0.493629 -1.10023
vt 0.940641 0.545139
vt 0.9599 0.5042
vt 0.952995 0.549414
vt 0.952995 0.549414
vt 0.0233899 0.323474
vt -0.549833 0.136436
vt -0.513642 0.0753268
vt -0.778827 0.410407
vt -0.821585 0.536338
vt -0.75044 0.434601
vt -0.859774 0.590949
vt -0.773405 -0.597603
vt 0.0303818 0.296308
vt -0.832882 0.364339
vt -0.931905 -0.388678
vt -0.630294 -1.08029
vt -0.746821 -0.973251
vt -0.729187 -1.1688
vt -0.765989 -1.13178
vt -0.733797 -1.17293
vt -0.734898 -1.17391
vt -0.780441 -1.13726
vt -0.804007 -1.23576
vt -0.870626 -1.18514
vt -0.880891 -1.17537
vt -0.810911 -1.24194
vt -0.853038 0.112146
vt 0.881391 0.504792
vt 0.870292 0.520799
vt 0.869727 0.521615
vn 0.809552 0.0072172 -0.587005
vn 0.809551 0.00721648 -0.587006
vn 0.809548 0.00721857 -0.58701
vn 0.809552 0.00721768 -0.587004
vn 0.49234 -0.835911 0.242599
vn 0.492329 -0.83592 0.24259
vn 0.49234 -0.835911 0.242599
vn 0.492317 -0.83593 0.24258
vn 0.492297 -0.835947 0.242562
vn 0.339994 0.664127 0.665837
vn 0.339979 0.664143 0.66583
vn 0.339982 0.664142 0.665828
vn 0.339976 0.664141 0.665832
vn 0.339974 0.664142 0.665833
vn 0.339975 0.664149 0.665825
vn 0.339975 0.664149 0.665825
vn 0.339975 0.664151 0.665824
vn 0.339977 0.664132 0.665841
vn 0.492334 -0.835917 0.242591
vn 0.492332 -0.835922 0.242576
vn 0.492334 -0.835918 0.242588
vn 0.492333 -0.835916 0.242594
vn 0.492333 -0.835916 0.242595
vn 0.492336 -0.835914 0.242598
vn 0.809556 0.00719334 -0.586998
vn 0.80956 0.00718252 -0.586993
vn 0.131952 -0.981562 0.138294
vn 0.131979 -0.981558 0.138298
vn 0.132042 -0.981547 0.138312
vn 0.131838 -0.981578 0.138288
vn 0.645333 -0.762999 0.0371241
vn 0.645333 -0.762999 0.0371241
vn 0.645333 -0.762999 0.0371241
vn 0.492315 -0.835921 0.242617
vn 0.492325 -0.835919 0.242601
vn 0.492322 -0.83592 0.242605
vn 0.49233 -0.835919 0.242592
vn 0.132002 -0.981554 0.1383
vn 0.132075 -0.981539 0.138335
vn 0.131976 -0.981559 0.13829
vn -0.312524 -0.744963 0.589371
vn -0.312523 -0.744968 0.589365
vn -0.312532 -0.744957 0.589375
vn -0.312512 -0.744972 0.589366
vn -0.312567 -0.744968 0.589343
vn -0.312536 -0.744972 0.589354
vn -0.312551 -0.744969 0.589349
vn -0.312489 -0.744976 0.589374
vn -0.312507 -0.744974 0.589367
vn -0.312528 -0.744962 0.589371
vn -0.312521 -0.744965 0.589371
vn 0.131989 -0.981557 0.138296
vn 0.131975 -0.98156 0.138287
vn 0.131969 -0.981561 0.138281
vn 0.131988 -0.981556 0.138297
vn 0.131945 -0.981565 0.138276
vn 0.132032 -0.981548 0.138314
vn 0.625302 0.132008 -0.769137
vn 0.625305 0.132006 -0.769135
vn 0.625306 0.132006 -0.769134
vn 0.625293 0.132012 -0.769143
vn 0.340013 0.664109 0.665846
vn 0.339975 0.664144 0.66583
vn 0.340029 0.664095 0.665852
vn -0.0587405 -0.557482 0.828108
vn -0.0588514 -0.55742 0.828143
vn -0.0589454 -0.55736 0.828176
vn -0.0588221 -0.557442 0.828129
vn -0.0589618 -0.557365 0.828171
vn -0.312528 -0.744965 0.589367
vn -0.31251 -0.744974 0.589365
vn -0.312507 -0.744972 0.589369
vn -0.312507 -0.744968 0.589374
vn -0.312496 -0.744971 0.589377
vn 0.131986 -0.981556 0.138299
vn 0.132002 -0.981552 0.138319
vn 0.131999 -0.981553 0.138308
vn 0.131982 -0.981557 0.138297
vn 0.131992 -0.981558 0.138285
vn 0.131973 -0.981562 0.138269
vn 0.414032 0.294416 -0.861334
vn 0.414031 0.294416 -0.861335
vn 0.414031 0.294416 -0.861335
vn 0.414028 0.294416 -0.861336
vn -0.40451 0.305143 -0.862125
vn -0.404514 0.305141 -0.862124
vn -0.404512 0.305142 -0.862124
vn 0.339974 0.664147 0.665827
vn 0.339975 0.664144 0.66583
vn 0.339975 0.664144 0.66583
vn 0.414028 0.294416 -0.861336
vn 0.414028 0.294416 -0.861336
vn 0.414028 0.294416 -0.861336
vn 0.625296 0.132011 -0.769141
vn 0.339976 0.664143 0.665831
vn 0.339976 0.664143 0.665831
vn -0.312485 -0.744995 0.589352
vn -0.312462 -0.745017 0.589336
vn -0.312489 -0.744993 0.589353
vn -0.312508 -0.744972 0.589368
vn -0.312513 -0.74497 0.589369
vn -0.312516 -0.744969 0.589368
vn -0.312514 -0.74497 0.589369
vn -0.889463 -0.067805 0.451949
vn -0.889463 -0.0678037 0.45195
vn -0.889463 -0.067803 0.451949
vn -0.889463 -0.0678033 0.451949
vn -0.889464 -0.0677999 0.451947
vn -0.889461 -0.0678025 0.451954
vn -0.889461 -0.0678023 0.451954
vn -0.889457 -0.0677996 0.451961
vn 0.339975 0.664144 0.66583
vn 0.339976 0.664143 0.665831
vn 0.339976 0.664143 0.665831
vn 0.339976 0.664143 0.665831
vn 0.339976 0.664143 0.665831
vn 0.339976 0.664142 0.665831
vn -0.448835 -0.121111 0.88537
vn -0.448835 -0.121111 0.88537
vn -0.448836 -0.12111 0.885369
vn -0.448836 -0.121111 0.885369
vn -0.448836 -0.121111 0.885369
vn -0.448835 -0.121111 0.885369
vn -0.448837 -0.121109 0.885369
vn -0.448837 -0.121109 0.885369
vn -0.448838 -0.121107 0.885368
vn -0.448839 -0.12111 0.885368
vn 0.339976 0.664142 0.665831
vn 0.339977 0.664141 0.665832
vn 0.339978 0.664141 0.665831
vn 0.339978 0.664141 0.665831
vn 0.339981 0.664139 0.665832
vn -0.889473 -0.0677808 0.451933
vn -0.889471 -0.0677864 0.451937
vn -0.889463 -0.0678032 0.45195
vn -0.889461 -0.0678058 0.451952
vn 0.339977 0.664142 0.665831
vn 0.339976 0.664142 0.665831
vn 0.339976 0.664142 0.665832
vn 0.339976 0.664142 0.665832
vn 0.339975 0.664142 0.665832
vn -0.889462 -0.0678053 0.45195
vn -0.889463 -0.0678041 0.45195
vn -0.889463 -0.0678038 0.45195
vn -0.889462 -0.0678042 0.45195
vn -0.889463 -0.0678034 0.45195
vn 0.502188 -0.12031 -0.856349
vn 0.502188 -0.12031 -0.856349
vn 0.502188 -0.12031 -0.856349
vn 0.309685 0.00520415 -0.950825
vn 0.309684 0.00520492 -0.950825
vn 0.309685 0.005204 -0.950825
vn -0.889463 -0.0678046 0.45195
vn -0.889464 -0.0678085 0.451947
vn 0.309677 0.0052082 -0.950827
vn 0.309683 0.00520533 -0.950826
vn -0.889464 -0.0678078 0.451948
vn -0.889463 -0.067803 0.45195
vn -0.312519 -0.744968 0.589368
vn 0.309685 0.00520435 -0.950825
vn 0.309687 0.00520332 -0.950824
vn 0.309685 0.00520437 -0.950825
vn 0.309685 0.00520439 -0.950825
vn -0.134275 0.409739 -0.902266
vn -0.134275 0.409739 -0.902266
vn -0.134322 0.409765 -0.902247
vn -0.134228 0.409714 -0.902285
vn -0.325432 0.380073 -0.865817
vn -0.325432 0.380073 -0.865816
vn -0.325433 0.380072 -0.865817
vn -0.32543 0.380075 -0.865816
vn -0.312491 -0.744969 0.589381
vn 0.131992 -0.981551 0.138331
vn 0.132005 -0.98155 0.138327
vn -0.325432 0.380073 -0.865817
vn -0.404509 0.305144 -0.862125
vn -0.404509 0.305143 -0.862125
vn -0.404509 0.305143 -0.862125
vn -0.404512 0.305142 -0.862124
vn 0.132 -0.98156 0.138263
vn -0.129162 0.140331 -0.981644
vn -0.129162 0.140331 -0.981644
vn -0.129162 0.140331 -0.981644
vn 0.309685 0.00520441 -0.950825
vn 0.502188 -0.12031 -0.856349
vn 0.339976 0.664143 0.66583
vn 0.339976 0.664142 0.665831
vn -0.860474 0.424619 -0.281573
vn -0.860474 0.424619 -0.281572
vn -0.860473 0.424619 -0.281574
vn -0.860474 0.424619 -0.281572
vn -0.889462 -0.0678034 0.45195
vn 0.502188 -0.12031 -0.856349
vn -0.860473 0.424619 -0.281574
vn 0.339975 0.664144 0.665831
vn -0.0589514 -0.557372 0.828167
vn -0.312516 -0.744981 0.589353
vn -0.0589369 -0.557366 0.828173
vn -0.0589521 -0.557356 0.828178
vn -0.0589517 -0.557358 0.828177
vn -0.0589657 -0.557349 0.828182
vn -0.0589492 -0.557362 0.828174
vn -0.0589471 -0.557363 0.828174
vn -0.0589465 -0.557363 0.828174
vn -0.0589451 -0.557365 0.828172
vn -0.0589496 -0.55736 0.828176
vn 0.492332 -0.835916 0.242598
vn 0.809574 0.00713864 -0.586974
vn 0.809552 0.00721717 -0.587005
vn 0.809553 0.00721911 -0.587003
f 1/1/1 2/2/2 3/3/3 
f 2/2/2 1/1/1 4/4/4 
f 5/5/5 6/6/6 7/7/7 
f 8/8/8 6/6/6 5/5/5 
f 9/9/9 6/6/6 8/8/8 
f 10/10/10 11/11/11 12/12/12 
f 10/10/10 13/13/13 11/11/11 
f 14/14/14 13/13/13 10/10/10 
f 15/15/15 13/13/13 14/14/14 
f 15/15/15 16/16/16 13/13/13 
f 17/17/17 16/16/16 15/15/15 
f 16/16/16 17/17/17 18/18/18 
f 19/19/19 20/20/20 21/21/21 
f 19/19/19 21/21/21 22/22/22 
f 23/23/23 19/19/19 22/22/22 
f 24/24/24 19/19/19 23/23/23 
f 24/24/24 23/23/23 7/7/7 
f 6/6/6 24/24/24 7/7/7 
f 3/3/3 2/2/2 25/25/25 
f 3/3/3 25/25/25 26/26/26 
f 27/27/27 28/28/28 29/29/29 
f 27/27/27 30/30/30 28/28/28 
f 31/31/31 32/32/32 33/33/33 
f 34/34/34 35/35/35 36/36/36 
f 36/36/36 35/35/35 37/37/37 
f 29/29/29 28/28/28 38/38/38 
f 38/38/38 39/39/39 29/29/29 
f 40/40/40 39/39/39 38/38/38 
f 41/41/41 42/42/42 43/43/43 
f 44/44/44 42/42/42 41/41/41 
f 42/42/42 44/44/44 45/45/45 
f 45/45/45 46/46/46 42/42/42 
f 47/47/47 46/46/46 45/45/45 
f 48/48/48 46/46/46 47/47/47 
f 48/48/48 49/49/49 46/46/46 
f 50/50/50 49/49/49 48/48/48 
f 49/49/49 50/50/50 51/51/51 
f 52/52/52 53/53/53 54/54/54 
f 55/55/55 52/52/52 54/54/54 
f 56/56/56 52/52/52 55/55/55 
f 57/57/57 52/52/52 56/56/56 
f 29/29/29 57/57/57 56/56/56 
f 39/39/39 57/57/57 29/29/29 
f 58/58/58 59/59/59 60/60/60 
f 61/61/61 59/59/59 58/58/58 
f 62/62/62 10/10/10 63/63/63 
f 64/64/64 10/10/10 62/62/62 
f 14/14/14 10/10/10 64/64/64 
f 65/65/65 66/66/66 67/67/67 
f 68/68/68 66/66/66 65/65/65 
f 69/69/69 66/66/66 68/68/68 
f 51/51/51 50/50/50 70/70/70 
f 51/51/51 70/70/70 71/71/71 
f 71/71/71 72/72/72 51/51/51 
f 73/73/73 72/72/72 71/71/71 
f 72/72/72 73/73/73 74/74/74 
f 75/75/75 76/76/76 77/77/77 
f 75/75/75 77/77/77 78/78/78 
f 75/75/75 78/78/78 53/53/53 
f 53/53/53 78/78/78 79/79/79 
f 53/53/53 79/79/79 80/80/80 
f 80/80/80 54/54/54 53/53/53 
f 81/81/81 82/82/82 83/83/83 
f 84/84/84 82/82/82 81/81/81 
f 85/85/85 86/86/86 87/87/87 
f 88/88/88 89/89/89 90/90/90 
f 83/83/83 82/82/82 91/91/91 
f 83/83/83 91/91/91 92/92/92 
f 92/92/92 91/91/91 93/93/93 
f 58/58/58 60/60/60 94/94/94 
f 90/90/90 95/95/95 63/63/63 
f 95/95/95 90/90/90 96/96/96 
f 97/97/97 73/73/73 71/71/71 
f 97/97/97 98/98/98 73/73/73 
f 97/97/97 99/99/99 98/98/98 
f 100/100/100 99/99/99 97/97/97 
f 101/101/101 99/99/99 100/100/100 
f 101/101/101 102/102/102 99/99/99 
f 103/103/103 102/102/102 101/101/101 
f 104/104/104 105/105/105 106/106/106 
f 107/107/107 104/104/104 106/106/106 
f 107/107/107 108/108/108 104/104/104 
f 109/109/109 108/108/108 107/107/107 
f 109/109/109 110/110/110 108/108/108 
f 111/111/111 110/110/110 109/109/109 
f 112/112/112 89/89/89 113/113/113 
f 114/114/114 89/89/89 112/112/112 
f 89/89/89 114/114/114 115/115/115 
f 89/89/89 115/115/115 96/96/96 
f 96/96/96 90/90/90 89/89/89 
f 96/96/96 115/115/115 116/116/116 
f 96/96/96 116/116/116 117/117/117 
f 118/118/118 119/119/119 120/120/120 
f 119/119/119 121/121/121 120/120/120 
f 122/122/122 121/121/121 119/119/119 
f 122/122/122 123/123/123 121/121/121 
f 122/122/122 124/124/124 123/123/123 
f 122/122/122 125/125/125 124/124/124 
f 125/125/125 126/126/126 124/124/124 
f 120/120/120 121/121/121 127/127/127 
f 128/128/128 113/113/113 89/89/89 
f 128/128/128 129/129/129 113/113/113 
f 128/128/128 130/130/130 129/129/129 
f 131/131/131 130/130/130 128/128/128 
f 130/130/130 131/131/131 132/132/132 
f 133/133/133 134/134/134 108/108/108 
f 135/135/135 133/133/133 108/108/108 
f 110/110/110 135/135/135 108/108/108 
f 134/134/134 136/136/136 108/108/108 
f 132/132/132 131/131/131 137/137/137 
f 137/137/137 131/131/131 138/138/138 
f 138/138/138 139/139/139 137/137/137 
f 138/138/138 140/140/140 139/139/139 
f 140/140/140 138/138/138 141/141/141 
f 142/142/142 143/143/143 144/144/144 
f 145/145/145 142/142/142 144/144/144 
f 136/136/136 145/145/145 144/144/144 
f 136/136/136 144/144/144 146/146/146 
f 108/108/108 136/136/136 146/146/146 
f 147/147/147 148/148/148 149/149/149 
f 150/150/150 151/151/151 152/152/152 
f 108/108/108 153/153/153 104/104/104 
f 153/153/153 154/154/154 104/104/104 
f 152/152/152 151/151/151 155/155/155 
f 155/155/155 151/151/151 156/156/156 
f 154/154/154 157/157/157 104/104/104 
f 104/104/104 157/157/157 158/158/158 
f 99/99/99 102/102/102 159/159/159 
f 160/160/160 161/161/161 162/162/162 
f 156/156/156 161/161/161 160/160/160 
f 156/156/156 151/151/151 161/161/161 
f 162/162/162 161/161/161 163/163/163 
f 164/164/164 165/165/165 166/166/166 
f 165/165/165 164/164/164 167/167/167 
f 168/168/168 169/169/169 170/170/170 
f 171/171/171 169/169/169 168/168/168 
f 74/74/74 73/73/73 172/172/172 
f 76/76/76 173/173/173 174/174/174 
f 76/76/76 174/174/174 77/77/77 
f 168/168/168 170/170/170 175/175/175 
f 176/176/176 177/177/177 178/178/178 
f 177/177/177 179/179/179 178/178/178 
f 87/87/87 179/179/179 177/177/177 
f 87/87/87 86/86/86 179/179/179 
f 79/79/79 180/180/180 80/80/80 
f 181/181/181 182/182/182 183/183/183 
f 163/163/163 161/161/161 184/184/184 
f 147/147/147 149/149/149 185/185/185 
f 138/138/138 186/186/186 187/187/187 
f 141/141/141 138/138/138 187/187/187 
f 188/188/188 189/189/189 190/190/190 
f 189/189/189 188/188/188 191/191/191 
f 144/144/144 192/192/192 146/146/146 
f 185/185/185 149/149/149 193/193/193 
f 191/191/191 188/188/188 194/194/194 
f 195/195/195 63/63/63 95/95/95 
f 62/62/62 63/63/63 195/195/195 
f 68/68/68 196/196/196 69/69/69 
f 71/71/71 70/70/70 197/197/197 
f 67/67/67 66/66/66 198/198/198 
f 67/67/67 198/198/198 199/199/199 
f 199/199/199 198/198/198 200/200/200 
f 199/199/199 200/200/200 201/201/201 
f 199/199/199 201/201/201 202/202/202 
f 202/202/202 201/201/201 203/203/203 
f 202/202/202 203/203/203 204/204/204 
f 205/205/205 202/202/202 204/204/204 
f 204/204/204 203/203/203 206/206/206 
f 22/22/22 21/21/21 207/207/207 
f 22/22/22 37/37/37 23/23/23 
f 23/23/23 37/37/37 35/35/35 
f 26/26/26 25/25/25 208/208/208 
f 209/209/209 1/1/1 210/210/210 
f 4/4/4 1/1/1 209/209/209 
