v 1.54509 0.363047 0.750246
v 1.4791 -0.1198 0.8908
v 1.53902 0.358419 0.713472
v 1.46381 0.317855 0.889562
v 1.4791 -0.1198 0.8908
v 1.54509 0.363047 0.750246
v 1.44892 0.309576 0.915084
v 1.3612 -0.006 1.085
v 1.40968 0.287793 0.983505
v 1.40214 0.28361 0.996644
v 1.40214 0.28361 0.996644
v 1.272 0.173569 1.07146
v 1.3612 -0.006 1.085
v 1.30187 0.224662 1.04772
v 1.272 0.173569 1.07146
v 1.30187 0.224662 1.04772
v 1.29138 0.217179 1.00336
v 1.28131 0.209993 0.960767
v 1.26761 0.200219 0.902834
v 1.23651 0.113087 1.09856
v 1.24587 0.184705 0.810875
v 1.2424 0.182232 0.796218
v 1.10555 -0.0974401 1.13481
v 1.21007 0.159161 0.659464
v 1.19814 0.150652 0.609027
v 1.16265 0.104889 0.561911
v 1.14533 0.0780267 0.561833
v 1.10944 0.0223306 0.561671
v 1.05848 -0.158952 1.07649
v 1.10942 0.0223009 0.561671
v 1.09326 -0.00451951 0.570387
v 1.10907 0.0217532 0.561669
v 1.10907 0.0217532 0.561669
v 1.15226 -0.121087 0.599826
v 1.09326 -0.0045195 0.570387
v 1.10957 0.0219382 0.56158
v 1.14808 0.0360837 0.554739
v 1.42743 -0.17289 0.595091
v 1.21647 -0.247963 0.631867
v 1.28491 -0.457758 0.840937
v 1.15226 -0.121087 0.599826
v 1.21647 -0.247963 0.631867
v 1.2054 -0.374437 0.974325
v 1.09326 -0.0045195 0.570387
v 1.05848 -0.158952 1.07649
v 1.08671 -0.214037 1.08894
v 1.05555 -0.17193 1.11902
v 1.10555 -0.0974402 1.13481
v 1.05555 -0.17193 1.11902
v 1.08671 -0.214037 1.08894
v 1.05555 -0.17193 1.11902
v 1.3612 -0.006 1.085
v 1.3612 -0.006 1.085
v 1.23651 0.113087 1.09856
v 1.10555 -0.0974402 1.13481
v 1.23651 0.113087 1.09856
v 1.2054 -0.374437 0.974325
v 1.3612 -0.006 1.085
v 1.2054 -0.374437 0.974325
v 1.28491 -0.457758 0.840937
v 1.4791 -0.1198 0.8908
v 1.33825 -0.513163 0.750325
v 1.34017 -0.504575 0.72222
v 1.4791 -0.1198 0.8908
v 1.33825 -0.513163 0.750325
v 1.34609 -0.485067 0.7003
v 1.37579 -0.394956 0.662912
v 1.34954 -0.473701 0.687529
v 1.37579 -0.394956 0.662912
v 1.34954 -0.473701 0.687529
v 1.32991 -0.458921 0.684666
v 1.31913 -0.450807 0.683094
v 1.31913 -0.450807 0.683094
v 1.32434 -0.464105 0.692771
v 1.33825 -0.513163 0.750325
v 1.32879 -0.475485 0.701052
v 1.34017 -0.504576 0.72222
v 1.34017 -0.504576 0.72222
v 1.32879 -0.475485 0.701052
v 1.34609 -0.485067 0.7003
v 1.34954 -0.473701 0.687529
v 1.32434 -0.464105 0.692771
v 1.32991 -0.458922 0.684666
v 1.31913 -0.450807 0.683094
v 1.4791 -0.1198 0.8908
v 1.37579 -0.394956 0.662912
v 1.42743 -0.17289 0.595091
v 1.42743 -0.17289 0.595091
v 1.53499 0.355346 0.689052
v 1.53902 0.358419 0.713472
v 1.53499 0.355346 0.689052
v 1.46381 0.317855 0.889562
v 1.54509 0.363047 0.750246
v 1.2424 0.182232 0.796218
v 1.24587 0.184705 0.810875
v 1.26761 0.200219 0.902834
v 1.44892 0.309576 0.915084
v 1.40968 0.287793 0.983505
v 1.28131 0.209993 0.960767
v 1.40214 0.28361 0.996644
v 1.29138 0.217179 1.00336
v 1.30187 0.224662 1.04772
v 1.21007 0.159161 0.659464
v 1.35068 0.240523 0.538744
v 1.44579 0.297365 0.525214
v 1.35068 0.240523 0.538744
v 1.44579 0.297365 0.525214
v 1.44 0.146224 0.503325
v 1.38406 0.12278 0.512816
v 1.35839 0.113349 0.517376
v 1.45788 0.0516411 0.528075
v 1.35839 0.113349 0.517376
v 1.38406 0.12278 0.512815
v 1.31115 0.0959929 0.525769
v 1.26737 0.190736 0.550594
v 1.31115 0.0959928 0.525769
v 1.26737 0.190736 0.550593
v 1.19814 0.150652 0.609027
v 1.24594 0.17793 0.553641
v 1.2251 0.165477 0.556605
v 1.18703 0.142722 0.562021
v 1.18703 0.142722 0.562021
v 1.18703 0.142722 0.562022
v 1.25007 0.0735555 0.536619
v 1.16265 0.104889 0.561911
v 1.2251 0.165477 0.556606
v 1.24594 0.17793 0.553642
v 1.25007 0.0735555 0.536619
v 1.18482 0.0495802 0.548213
v 1.18482 0.0495802 0.548213
v 1.14533 0.0780267 0.561833
v 1.14808 0.0360837 0.554739
v 1.10942 0.0223009 0.561671
v 1.10957 0.0219382 0.56158
v 1.10907 0.0217532 0.561669
v 1.45788 0.0516411 0.528075
v 1.44 0.146224 0.503324
v 1.53499 0.355346 0.689052
v 1.45788 0.0516411 0.528075
v 1.44579 0.297365 0.525214
v 1.43988 0.143286 0.502899
v 1.43988 0.143286 0.502899
v 1.43988 0.143287 0.502899
vt 0.746016 0.711964
vt 0.7253 0.6659
vt 0.749833 0.710467
vt 0.728737 0.710927
vt 0.7253 0.6659
vt 0.746016 0.711964
vt 0.725571 0.710737
vt 0.7064 0.6816
vt 0.71852 0.709878
vt 0.717166 0.709713
vt 0.717166 0.709713
vt 0.699522 0.701864
vt 0.7064 0.6816
vt 0.7041 0.706264
vt 1.16952 -0.834677
vt 1.14565 -0.893808
vt 1.10104 -0.881838
vt 1.0582 -0.870343
vt 0.99993 -0.854709
vt 1.19679 -0.764613
vt 0.907443 -0.829892
vt 0.892701 -0.825936
vt 1.23325 -0.516707
vt 0.75516 -0.789031
vt 0.704433 -0.775419
vt 0.657046 -0.717726
vt 0.656967 -0.685768
vt 0.656804 -0.619509
vt 1.17459 -0.439506
vt 0.656804 -0.619474
vt 0.66557 -0.588175
vt 0.656802 -0.618822
vt -1.06903 0.134924
vt -1.11232 0.282744
vt -1.05318 0.162584
vt -1.06953 0.134722
vt -1.10813 0.119234
vt -1.38813 0.331199
vt -1.17668 0.413528
vt 0.639376 1.03208
vt 0.392989 0.673791
vt 0.425732 0.815831
vt 0.775682 0.92038
vt 0.362906 0.543291
vt 0.880085 0.660459
vt 0.892803 0.722304
vt 0.923548 0.670306
vt 0.681493 0.669073
vt 0.678791 0.660047
vt 0.683867 0.655386
vt 1.21737 -0.427012
vt 0.7064 0.6816
vt 0.7064 0.6816
vt 0.693466 0.694766
vt 0.681493 0.669073
vt 0.693466 0.694766
vt 0.703202 0.637634
vt 0.7064 0.6816
vt 0.703202 0.637634
vt 0.720677 0.627777
vt 0.7253 0.6659
vt 0.729425 0.620197
vt 0.732894 0.620244
vt 0.7253 0.6659
vt 0.729425 0.620197
vt 0.735988 0.62163
vt 0.742985 0.629978
vt 0.73779 0.622437
vt -1.33638 0.563364
vt -1.31006 0.645848
vt -1.29039 0.630854
vt -1.27959 0.622622
vt 0.478079 1.04292
vt 0.487968 1.05705
vt 0.546781 1.10659
vt 0.49643 1.06915
vt 0.518062 1.10007
vt -1.17153 0.863307
vt -1.15922 0.827638
vt -1.17794 0.834065
vt -1.18167 0.817029
vt -1.1544 0.813685
vt -1.16043 0.804344
vt -1.14877 0.79738
vt 0.7253 0.6659
vt 0.742985 0.629978
vt 0.755797 0.652215
vt 0.755797 0.652215
vt 0.752367 0.709472
vt 0.70225 -1.50361
vt 0.677824 -1.49857
vt 0.878386 -1.41825
vt 0.739034 -1.5112
vt 0.785017 -1.15862
vt 0.799679 -1.16286
vt 0.891661 -1.18949
vt 0.903914 -1.40122
vt 0.972353 -1.35637
vt 0.949609 -1.20627
vt 0.985496 -1.34776
vt 0.992216 -1.2186
vt 1.03658 -1.23145
vt 0.648229 -1.11902
vt 0.527477 -1.28145
vt 0.513944 -1.39225
vt 0.361174 -1.19227
vt 0.41865 -1.28797
vt 0.265823 -1.28731
vt 0.242118 -1.23069
vt 0.232581 -1.20466
vt -1.41866 0.0968898
vt -1.31894 0.0346362
vt -1.34467 0.0243098
vt -1.27158 0.0536392
vt 0.310831 -1.10846
vt 0.215032 -1.15674
vt 0.53933 -1.18439
vt 0.597779 -1.10441
vt 0.542378 -1.15943
vt 0.545343 -1.13516
vt 0.550761 -1.0908
vt 0.657157 -0.762734
vt 0.262282 -1.02762
vt 0.192344 -1.09481
vt 0.224027 -1.00391
vt 0.285291 -1.06593
vt 0.297883 -1.0869
vt -1.21037 0.078206
vt -1.14495 0.104456
vt 0.168102 -1.02862
vt 0.196865 -0.987074
vt 0.154455 -0.991362
vt 0.140518 -0.952145
vt 0.140151 -0.952313
vt 0.139964 -0.951802
vt 0.765605 0.67359
vt 0.77051 0.683019
vt 0.752367 0.709472
vt 0.765605 0.67359
vt 0.770941 0.69952
vt 0.770501 0.682698
vt 0.262853 -1.2873
vt -1.40062 0.0018571
vn 0.974902 -0.173762 -0.139184
vn 0.974904 -0.173759 -0.139175
vn 0.974906 -0.17376 -0.139164
vn 0.858823 0.0314576 0.511306
vn 0.860084 0.0316671 0.509168
vn 0.858821 0.0314576 0.511308
vn 0.86134 0.0318782 0.507028
vn 0.862589 0.0320887 0.504887
vn 0.862588 0.0320903 0.504889
vn 0.862588 0.0320899 0.504888
vn 0.329338 0.232629 0.915107
vn 0.325177 0.230709 0.917079
vn 0.323094 0.229746 0.918056
vn 0.329336 0.232632 0.915107
vn -0.835908 0.538374 0.106824
vn -0.8359 0.538384 0.106831
vn -0.835903 0.53838 0.106828
vn -0.83591 0.538371 0.106822
vn -0.83591 0.53837 0.106822
vn -0.835904 0.53838 0.106826
vn -0.8359 0.538386 0.106828
vn -0.835901 0.538384 0.106827
vn -0.835906 0.538377 0.106823
vn -0.835905 0.538378 0.106825
vn -0.835909 0.538372 0.106827
vn -0.835909 0.538372 0.106827
vn -0.835904 0.53838 0.106825
vn -0.835906 0.538377 0.106825
vn -0.835908 0.538375 0.10682
vn -0.835852 0.538415 0.107059
vn -0.835852 0.538415 0.107059
vn -0.835795 0.538457 0.107293
vn -0.0686824 -0.276799 -0.95847
vn -0.0686303 -0.276786 -0.958478
vn -0.0686006 -0.276778 -0.958482
vn -0.0686792 -0.276799 -0.95847
vn -0.0685951 -0.276776 -0.958483
vn -0.0685959 -0.276776 -0.958483
vn -0.0685953 -0.276775 -0.958483
vn -0.851206 -0.48279 -0.205821
vn -0.85121 -0.482784 -0.20582
vn -0.851208 -0.482786 -0.205822
vn -0.851209 -0.482785 -0.205821
vn -0.851209 -0.482785 -0.20582
vn -0.851208 -0.482786 -0.205821
vn -0.851208 -0.482786 -0.20582
vn -0.851209 -0.482786 -0.205817
vn 0.308801 -0.391028 0.867029
vn 0.308799 -0.391028 0.867029
vn 0.308802 -0.391029 0.867028
vn -0.835906 0.538379 0.106813
vn 0.308803 -0.391029 0.867028
vn 0.168582 0.064496 0.983575
vn 0.168582 0.064496 0.983575
vn 0.168582 0.064496 0.983575
vn 0.31683 0.226853 0.920954
vn 0.308804 -0.391031 0.867027
vn 0.616312 -0.452341 0.64463
vn 0.611948 -0.453431 0.648013
vn 0.617762 -0.451974 0.643498
vn 0.620657 -0.451235 0.641227
vn 0.620656 -0.451235 0.641228
vn 0.944776 -0.325857 -0.0348553
vn 0.944776 -0.325857 -0.0348555
vn 0.944776 -0.325857 -0.0348556
vn 0.944778 -0.325853 -0.0348457
vn 0.944779 -0.325852 -0.0348411
vn 0.944781 -0.325846 -0.0348263
vn -0.0685936 -0.276777 -0.958483
vn -0.068589 -0.27678 -0.958482
vn -0.0685926 -0.276776 -0.958483
vn -0.0685933 -0.276774 -0.958484
vn -0.851202 -0.482797 -0.205821
vn -0.851207 -0.48279 -0.205818
vn -0.851211 -0.482783 -0.205817
vn -0.851213 -0.48278 -0.205814
vn -0.851209 -0.482785 -0.205819
vn -0.381799 -0.636807 -0.669855
vn -0.381798 -0.636808 -0.669856
vn -0.381799 -0.636807 -0.669856
vn -0.381797 -0.636806 -0.669858
vn -0.38179 -0.636809 -0.669859
vn -0.381787 -0.636808 -0.669861
vn -0.381778 -0.636815 -0.66986
vn 0.958109 -0.259679 -0.120805
vn 0.958109 -0.259679 -0.120805
vn 0.958109 -0.259679 -0.120805
vn 0.974907 -0.173759 -0.139157
vn 0.974907 -0.17376 -0.139152
vn -0.515237 0.856747 -0.0227105
vn -0.515238 0.856746 -0.0227115
vn -0.515236 0.856748 -0.0227095
vn -0.515224 0.856755 -0.0227028
vn -0.515235 0.856748 -0.0227098
vn -0.515235 0.856748 -0.0227093
vn -0.515234 0.856748 -0.0227117
vn -0.515234 0.856749 -0.0227109
vn -0.515234 0.856748 -0.0227136
vn -0.515234 0.856748 -0.0227125
vn -0.515235 0.856748 -0.0227107
vn -0.515235 0.856748 -0.0227104
vn -0.515234 0.856748 -0.0227094
vn -0.515234 0.856749 -0.0227097
vn -0.515235 0.856748 -0.0227088
vn -0.515237 0.856747 -0.0227072
vn -0.225481 0.148112 -0.962923
vn -0.225481 0.148112 -0.962923
vn -0.225484 0.14812 -0.962921
vn -0.225484 0.14812 -0.962921
vn -0.22548 0.148112 -0.962923
vn -0.0685965 -0.276777 -0.958483
vn -0.0685968 -0.276777 -0.958483
vn -0.0685968 -0.276777 -0.958483
vn -0.0685963 -0.276777 -0.958483
vn -0.225479 0.148112 -0.962924
vn -0.22548 0.148113 -0.962923
vn -0.515234 0.856749 -0.0227101
vn -0.515234 0.856749 -0.0227096
vn -0.515234 0.856749 -0.0227106
vn -0.515232 0.85675 -0.0227082
vn -0.515232 0.85675 -0.0227083
vn -0.835913 0.538364 0.106834
vn -0.225482 0.148112 -0.962923
vn -0.225481 0.148113 -0.962923
vn -0.22548 0.148114 -0.962923
vn -0.225481 0.148112 -0.962923
vn -0.22548 0.148112 -0.962923
vn -0.0685966 -0.276777 -0.958483
vn -0.0685958 -0.276775 -0.958483
vn -0.225479 0.148114 -0.962923
vn -0.225479 0.148114 -0.962923
vn -0.22549 0.148146 -0.962916
vn -0.225506 0.148176 -0.962908
vn -0.225518 0.148207 -0.9629
vn -0.225525 0.148204 -0.962899
vn 0.974906 -0.173758 -0.139163
vn 0.872053 0.0371802 -0.487997
vn 0.872092 0.0372062 -0.487926
vn 0.872034 0.0371668 -0.488032
vn 0.872091 0.0372068 -0.487927
vn 0.871976 0.0371281 -0.488138
vn -0.225489 0.148137 -0.962918
vn -0.0685959 -0.276776 -0.958483
f 1/1/1 2/2/2 3/3/3 
f 4/4/4 5/5/5 6/6/6 
f 7/7/7 5/5/5 4/4/4 
f 7/7/7 8/8/8 5/5/5 
f 9/9/9 8/8/8 7/7/7 
f 10/10/10 8/8/8 9/9/9 
f 11/11/11 12/12/12 13/13/13 
f 14/14/14 12/12/12 11/11/11 
f 15/15/15 16/16/16 17/17/17 
f 18/18/18 15/15/15 17/17/17 
f 19/19/19 15/15/15 18/18/18 
f 19/19/19 20/20/20 15/15/15 
f 21/21/21 20/20/20 19/19/19 
f 22/22/22 20/20/20 21/21/21 
f 22/22/22 23/23/23 20/20/20 
f 24/24/24 23/23/23 22/22/22 
f 25/25/25 23/23/23 24/24/24 
f 26/26/26 23/23/23 25/25/25 
f 27/27/27 23/23/23 26/26/26 
f 28/28/28 23/23/23 27/27/27 
f 28/28/28 29/29/29 23/23/23 
f 30/30/30 29/29/29 28/28/28 
f 30/30/30 31/31/31 29/29/29 
f 32/32/32 31/31/31 30/30/30 
f 33/33/33 34/34/34 35/35/35 
f 36/36/36 34/34/34 33/33/33 
f 34/34/34 36/36/36 37/37/37 
f 34/34/34 37/37/37 38/38/38 
f 39/39/39 34/34/34 38/38/38 
f 40/40/40 41/41/41 42/42/42 
f 43/43/43 41/41/41 40/40/40 
f 43/43/43 44/44/44 41/41/41 
f 45/45/45 44/44/44 43/43/43 
f 46/46/46 45/45/45 43/43/43 
f 46/46/46 47/47/47 45/45/45 
f 48/48/48 49/49/49 50/50/50 
f 23/23/23 29/29/29 51/51/51 
f 48/48/48 50/50/50 52/52/52 
f 53/53/53 54/54/54 55/55/55 
f 13/13/13 12/12/12 56/56/56 
f 52/52/52 50/50/50 57/57/57 
f 58/58/58 59/59/59 60/60/60 
f 60/60/60 61/61/61 58/58/58 
f 62/62/62 61/61/61 60/60/60 
f 63/63/63 64/64/64 65/65/65 
f 66/66/66 64/64/64 63/63/63 
f 66/66/66 67/67/67 64/64/64 
f 68/68/68 67/67/67 66/66/66 
f 69/69/69 70/70/70 71/71/71 
f 71/71/71 39/39/39 69/69/69 
f 72/72/72 39/39/39 71/71/71 
f 73/73/73 40/40/40 42/42/42 
f 74/74/74 40/40/40 73/73/73 
f 74/74/74 75/75/75 40/40/40 
f 76/76/76 75/75/75 74/74/74 
f 77/77/77 75/75/75 76/76/76 
f 78/78/78 79/79/79 80/80/80 
f 80/80/80 79/79/79 81/81/81 
f 79/79/79 82/82/82 81/81/81 
f 82/82/82 83/83/83 81/81/81 
f 82/82/82 84/84/84 83/83/83 
f 69/69/69 39/39/39 38/38/38 
f 85/85/85 86/86/86 87/87/87 
f 3/3/3 2/2/2 88/88/88 
f 3/3/3 88/88/88 89/89/89 
f 90/90/90 91/91/91 92/92/92 
f 92/92/92 93/93/93 90/90/90 
f 94/94/94 92/92/92 91/91/91 
f 95/95/95 92/92/92 94/94/94 
f 95/95/95 96/96/96 92/92/92 
f 96/96/96 97/97/97 92/92/92 
f 98/98/98 97/97/97 96/96/96 
f 99/99/99 98/98/98 96/96/96 
f 99/99/99 100/100/100 98/98/98 
f 99/99/99 101/101/101 100/100/100 
f 101/101/101 102/102/102 100/100/100 
f 103/103/103 94/94/94 91/91/91 
f 91/91/91 104/104/104 103/103/103 
f 104/104/104 91/91/91 105/105/105 
f 106/106/106 107/107/107 108/108/108 
f 106/106/106 108/108/108 109/109/109 
f 109/109/109 110/110/110 106/106/106 
f 111/111/111 112/112/112 113/113/113 
f 112/112/112 111/111/111 114/114/114 
f 115/115/115 110/110/110 116/116/116 
f 115/115/115 106/106/106 110/110/110 
f 103/103/103 104/104/104 117/117/117 
f 103/103/103 117/117/117 118/118/118 
f 118/118/118 117/117/117 119/119/119 
f 118/118/118 119/119/119 120/120/120 
f 121/121/121 118/118/118 120/120/120 
f 26/26/26 25/25/25 122/122/122 
f 123/123/123 124/124/124 125/125/125 
f 123/123/123 126/126/126 124/124/124 
f 126/126/126 127/127/127 124/124/124 
f 124/124/124 127/127/127 116/116/116 
f 114/114/114 111/111/111 128/128/128 
f 128/128/128 111/111/111 129/129/129 
f 125/125/125 124/124/124 130/130/130 
f 125/125/125 130/130/130 131/131/131 
f 131/131/131 130/130/130 132/132/132 
f 133/133/133 131/131/131 132/132/132 
f 133/133/133 132/132/132 134/134/134 
f 135/135/135 133/133/133 134/134/134 
f 38/38/38 37/37/37 129/129/129 
f 129/129/129 111/111/111 38/38/38 
f 89/89/89 88/88/88 136/136/136 
f 137/137/137 138/138/138 139/139/139 
f 140/140/140 138/138/138 137/137/137 
f 137/137/137 139/139/139 141/141/141 
f 109/109/109 108/108/108 142/142/142 
f 111/111/111 113/113/113 143/143/143 
f 127/127/127 115/115/115 116/116/116 
