v 0.656268 -0.455683 1.11633
v 0.4217 -0.7964 1.0242
v 0.660553 -0.575608 1.0653
v 0.656268 -0.455683 1.11633
v 0.2948 -0.4649 0.9133
v 0.4217 -0.7964 1.0242
v 0.634924 -0.380302 1.09536
v 0.591686 -0.316265 1.06336
v 0.61929 -0.325086 1.07999
v 0.617279 -0.340198 1.0663
v 0.591686 -0.316265 1.06336
v 0.61929 -0.325086 1.07999
v 0.563769 -0.676896 0.753902
v 0.572847 -0.674072 0.763904
v 0.572846 -0.674073 0.763904
v 0.617278 -0.340198 1.0663
v 0.593248 -0.718082 0.798738
v 0.563769 -0.676896 0.753902
v 0.572847 -0.674072 0.763904
v 0.593248 -0.718082 0.798738
v 0.555192 -0.679563 0.744451
v 0.555192 -0.679563 0.744451
v 0.523362 -0.689463 0.709379
v 0.310564 -0.290429 0.8433
v 0.482939 -0.702034 0.66484
v 0.384816 -0.554622 0.697621
v 0.473702 -0.704907 0.654662
v 0.473702 -0.704907 0.654662
v 0.219743 -0.909845 0.68624
v 0.384816 -0.554622 0.697621
v 0.268338 -0.909644 0.674591
v 0.44684 -0.802841 0.647044
v 0.336015 -0.909364 0.658368
v 0.290817 -0.93958 0.860009
v 0.268338 -0.909644 0.674591
v 0.336015 -0.909364 0.658368
v 0.219743 -0.909845 0.68624
v 0.202856 -0.936424 0.858726
v 0.272744 -0.942635 0.883282
v 0.272744 -0.942635 0.883282
v 0.296729 -0.930025 0.89923
v 0.202856 -0.936424 0.858726
v 0.296729 -0.930025 0.89923
v 0.272744 -0.942635 0.883282
v 0.290817 -0.93958 0.860009
v 0.455939 -0.905176 0.682871
v 0.430196 -0.916014 0.680522
v 0.438013 -0.914692 0.670456
v 0.44598 -0.911081 0.672587
v 0.44598 -0.911082 0.672587
v 0.423939 -0.886335 0.640548
v 0.455939 -0.905176 0.682871
v 0.431643 -0.899209 0.652782
v 0.42304 -0.892086 0.640899
v 0.422487 -0.891628 0.640136
v 0.423939 -0.886335 0.640548
v 0.422487 -0.891628 0.640136
v 0.365893 -0.90924 0.651206
v 0.428836 -0.868484 0.641937
v 0.428836 -0.868484 0.641937
v 0.44684 -0.802841 0.647044
v 0.430196 -0.916014 0.680522
v 0.365893 -0.90924 0.651206
v 0.405542 -0.909513 0.644475
v 0.402874 -0.909087 0.64234
v 0.405542 -0.909513 0.644475
v 0.402874 -0.909087 0.64234
v 0.422487 -0.891629 0.640136
v 0.42304 -0.892086 0.640899
v 0.431643 -0.899209 0.652782
v 0.424923 -0.912604 0.659982
v 0.424923 -0.912604 0.659982
v 0.438013 -0.914692 0.670456
v 0.438013 -0.914692 0.670456
v 0.44598 -0.911082 0.672587
v 0.402874 -0.909087 0.64234
v 0.514012 -0.870742 0.742841
v 0.482939 -0.702034 0.66484
v 0.523362 -0.689463 0.709379
v 0.57095 -0.83698 0.801639
v 0.582541 -0.830107 0.813608
v 0.409395 -0.869709 0.980043
v 0.57095 -0.836979 0.801639
v 0.582541 -0.830107 0.813608
v 0.514012 -0.870742 0.742841
v 0.409395 -0.869709 0.980043
v 0.4217 -0.7964 1.0242
v 0.4217 -0.7964 1.0242
v 0.409395 -0.869709 0.980043
v 0.45416 -0.848815 0.995345
v 0.523505 -0.821398 0.991948
v 0.45416 -0.848815 0.995345
v 0.667305 -0.764544 0.984905
v 0.667305 -0.764544 0.984905
v 0.620812 -0.777541 0.845801
v 0.660553 -0.575608 1.0653
v 0.631674 -0.800973 0.864347
v 0.631674 -0.800973 0.864347
v 0.667305 -0.764544 0.984905
v 0.593599 -0.82355 0.825028
v 0.593599 -0.82355 0.825028
v 0.620812 -0.777541 0.845801
v 0.631674 -0.800973 0.864347
v 0.586762 -0.827604 0.817968
v 0.45416 -0.848815 0.995345
v 0.586762 -0.827604 0.817968
v 0.523505 -0.821398 0.991948
v 0.634924 -0.380302 1.09536
v 0.61929 -0.325086 1.07999
v 0.656268 -0.455683 1.11633
v 0.2074 -0.7587 0.9512
v 0.11155 -0.928308 0.826645
v 0.11155 -0.928308 0.826645
v 0.153762 -0.910119 0.702057
v 0.153762 -0.910119 0.702057
v 0.0516267 -0.904049 0.727474
v 0.0543394 -0.91053 0.725891
v 0.0531369 -0.910834 0.728079
v 0.0543394 -0.91053 0.725891
v 0.0462802 -0.912568 0.740559
v 0.0265186 -0.917565 0.776525
v 0.0823384 -0.924618 0.809427
v 0.0823384 -0.924618 0.809427
v -0.0116016 -0.858004 0.813526
v 0.0265186 -0.917565 0.776525
v -0.0118355 -0.857639 0.813753
v 0.11155 -0.928308 0.826645
v -0.0118355 -0.857639 0.813753
v -0.0124108 -0.856405 0.814154
v -0.0124108 -0.856405 0.814154
v -0.012493 -0.855541 0.81389
v -0.0118356 -0.857639 0.813753
v -0.0124108 -0.856405 0.814154
v 0.2074 -0.7587 0.9512
v -0.012493 -0.855541 0.81389
v 0.1558 -0.593 0.8744
v -0.012493 -0.855541 0.81389
v 0.1558 -0.593 0.8744
v -0.0131721 -0.852538 0.813641
v 0.027109 -0.845466 0.741785
v -0.0131721 -0.852538 0.813641
v -0.0116016 -0.858004 0.813526
v 0.0265185 -0.917565 0.776525
v 0.0462802 -0.912568 0.740559
v 0.0516267 -0.904049 0.727474
v 0.027109 -0.845466 0.741785
v -0.0528651 -0.581556 0.798931
v -0.0491269 -0.663308 0.786284
v -0.0599631 -0.637417 0.792609
v -0.0152049 -0.843548 0.812894
v -0.052865 -0.581556 0.798931
v -0.0599631 -0.637417 0.792609
v -0.0152049 -0.843549 0.812894
v -0.0315035 -0.492898 0.806539
v -0.052865 -0.581556 0.798931
v -0.0136102 -0.850601 0.81348
v 0.00177372 -0.354786 0.81839
v 0.1558 -0.593 0.8744
v 0.0991392 -0.302607 0.802491
v 0.00177372 -0.354786 0.81839
v 0.0991392 -0.302607 0.802491
v 0.1558 -0.593 0.8744
v 0.106513 -0.288477 0.80275
v 0.0991392 -0.302607 0.802491
v 0.106513 -0.288477 0.80275
v 0.196353 -0.288844 0.781107
v 0.342817 -0.483613 0.717919
v 0.227697 -0.288972 0.773556
v 0.239867 -0.290043 0.852487
v 0.227697 -0.288972 0.773556
v 0.196353 -0.288844 0.781107
v 0.27826 -0.289861 0.816112
v 0.27826 -0.289861 0.816112
v 0.342817 -0.483613 0.717919
v 0.227697 -0.288972 0.773556
v -0.0315035 -0.492898 0.806539
v 0.00177368 -0.354786 0.81839
v 0.27785 -0.290534 0.87027
v 0.310564 -0.290429 0.8433
v 0.239867 -0.290043 0.852487
v 0.1558 -0.593 0.8744
v 0.27785 -0.290534 0.87027
v 0.239867 -0.290043 0.852487
v 0.106513 -0.288477 0.80275
v 0.296642 -0.290777 0.879068
v 0.296642 -0.290777 0.879068
v 0.41677 -0.293077 0.995162
v 0.501703 -0.293791 1.00417
v 0.501703 -0.293791 1.00417
v 0.562133 -0.294854 1.05503
v 0.562133 -0.294854 1.05503
v 0.2948 -0.4649 0.9133
v 0.591686 -0.316265 1.06336
v 0.431495 -0.293257 1.00123
v 0.416769 -0.293077 0.995162
v 0.2948 -0.4649 0.9133
v 0.41677 -0.293077 0.995162
v 0.296642 -0.290777 0.879068
v 0.2948 -0.4649 0.9133
v 0.1558 -0.593 0.8744
v 0.2074 -0.7587 0.9512
v 0.2948 -0.4649 0.9133
v 0.4217 -0.7964 1.0242
v 0.2948 -0.4649 0.9133
v 0.2074 -0.7587 0.9512
v 0.431495 -0.293257 1.00123
v 0.562133 -0.294854 1.05503
v -0.0136102 -0.8506 0.81348
v -0.0152049 -0.843548 0.812894
v -0.0491269 -0.663308 0.786284
v -0.0599631 -0.637416 0.792609
v 0.0531369 -0.910834 0.728079
v 0.0543394 -0.91053 0.725891
v 0.473702 -0.704907 0.654662
vt 0.642604 0.621248
vt 0.6261 0.5762
vt 0.647268 0.60694
vt 0.642604 0.621248
vt 0.598 0.6106
vt 0.6261 0.5762
vt 0.637149 0.62927
vt 0.629392 0.635418
vt 0.633153 0.635146
vt -0.0806637 -1.16224
vt -0.0527321 -1.14088
vt -0.0630262 -1.17267
vt -0.473612 -0.918491
vt -0.470317 -0.931891
vt -0.713442 -0.910653
vt -0.374503 -1.21067
vt -0.758119 -0.950281
vt -0.677624 -0.939593
vt -0.674765 -0.953092
vt -0.719326 -0.992851
vt -0.680325 -0.926837
vt -0.476725 -0.905829
vt -0.488279 -0.858843
vt -0.0225797 -0.784211
vt -0.50295 -0.799173
vt -0.33091 -0.745925
vt -0.506303 -0.785538
vt -0.594716 -0.30762
vt -0.801645 -0.0533122
vt -0.442971 -0.211156
vt -0.801442 -0.103283
vt -0.693602 -0.283282
vt -0.801159 -0.172877
vt -0.317 0.995624
vt -0.294508 0.807807
vt -0.362223 0.791737
vt -0.245888 0.819345
vt -0.228991 0.993866
vt -0.298917 1.01909
vt 0.610979 0.550794
vt 0.613688 0.553329
vt 0.602419 0.549215
vt 0.724063 -0.0735147
vt 0.707888 -0.100477
vt 0.684284 -0.0825772
vt 0.504624 0.0834016
vt 0.502241 0.0554736
vt 0.492032 0.063216
vt 0.494193 0.0719554
vt -0.914743 -0.801376
vt -0.889686 -0.762687
vt -0.908764 -0.815661
vt -0.902722 -0.776999
vt -0.895509 -0.762372
vt -0.895046 -0.761433
vt -0.777906 -0.262532
vt -0.783251 -0.261217
vt -0.801034 -0.203602
vt -0.759882 -0.266968
vt -0.871612 -0.766914
vt -0.805147 -0.782458
vt -0.456456 0.814655
vt -0.392117 0.784642
vt -0.431788 0.778036
vt -0.429119 0.775861
vt -0.313565 1.10923
vt -0.310584 1.10751
vt -0.332505 1.09289
vt -0.333122 1.09373
vt -0.342737 1.1069
vt -0.335226 1.12173
vt -0.45118 0.793835
vt -0.464277 0.804506
vt -0.349857 1.13018
vt -0.358761 1.12886
vt -0.80088 -0.241631
vt -0.873898 -0.898961
vt -0.703077 -0.819387
vt -0.690348 -0.879501
vt -0.839713 -0.980635
vt -0.832754 -0.99726
vt 0.806027 0.0535458
vt 0.625083 0.21559
vt 0.637223 0.228912
vt 0.565447 0.150148
vt 0.625918 0.565738
vt 0.6261 0.5762
vt 0.6261 0.5762
vt 0.625918 0.565738
vt 0.631826 0.570491
vt 0.63924 0.575015
vt 0.631826 0.570491
vt 0.654614 0.584397
vt -0.805286 -1.15047
vt -0.81848 -1.00382
vt -0.613483 -1.22408
vt -0.842267 -1.02492
vt 0.688684 0.285384
vt 0.810959 0.332071
vt 0.648805 0.241622
vt -0.826115 -1.01312
vt -0.77953 -1.04657
vt -0.803255 -1.06774
vt -0.830219 -1.00332
vt 0.821547 0.102879
vt 0.641644 0.233764
vt 0.818102 0.177445
vt -0.415215 -1.24393
vt -0.359162 -1.22425
vt -0.49174 -1.2708
vt 0.6002 0.5734
vt 0.591234 0.547153
vt -0.137634 0.960914
vt -0.17987 0.835012
vt -0.801921 0.0145386
vt -0.795792 0.119786
vt -0.802337 0.116778
vt -0.0791893 0.860829
vt -0.0803925 0.85862
vt -0.0723288 0.873426
vt -0.0525563 0.909732
vt -0.108407 0.943331
vt 0.587494 0.546055
vt 0.575222 0.552386
vt 0.580346 0.543958
vt 0.57519 0.552437
vt 0.591234 0.547153
vt 0.57519 0.552437
vt 0.575102 0.552584
vt -0.925988 0.708216
vt -0.925101 0.70803
vt -0.927257 0.707579
vt 0.575102 0.552584
vt 0.6002 0.5734
vt 0.575051 0.552685
vt 0.5858 0.5912
vt 0.575051 0.552685
vt 0.5858 0.5912
vt 0.574869 0.552983
vt -0.914747 0.6258
vt -0.922014 0.708159
vt -0.927632 0.707264
vt -0.988844 0.656051
vt -0.983708 0.61503
vt -0.974953 0.60104
vt -0.736641 0.146968
vt -0.470167 0.238081
vt -0.552713 0.231492
vt -0.52657 0.243506
vt 0.574321 0.553877
vt 0.560902 0.581104
vt 0.561598 0.574249
vt 0.574321 0.553877
vt 0.560366 0.592177
vt 0.560902 0.581104
vt 0.574751 0.553176
vt 0.559531 0.609426
vt 0.5858 0.5912
vt 0.56847 0.621922
vt 0.559531 0.609426
vt 0.56847 0.621922
vt 0.5858 0.5912
vt 0.568827 0.623826
vt -0.188507 0.0911167
vt -0.17424 0.0840079
vt -0.17461 -0.00840251
vt -0.371271 -0.165577
vt -0.174739 -0.0406432
vt -0.241841 -0.85604
vt -0.229671 -0.777101
vt -0.198326 -0.78465
vt -0.280235 -0.819665
vt -0.0219166 -0.74199
vt -0.248038 -0.727208
vt -0.0208787 -0.675904
vt -0.380647 0.219089
vt -0.241193 0.189502
vt -0.279825 -0.873827
vt -0.31254 -0.846858
vt 0.584684 0.629033
vt 0.5858 0.5912
vt 0.589355 0.630225
vt 0.584684 0.629033
vt -0.108483 -0.806286
vt 0.591666 0.630816
vt -0.298617 -0.882628
vt -0.418748 -0.998741
vt -0.503683 -1.00776
vt -0.0265034 -1.03403
vt -0.0277439 -1.11301
vt 0.626051 0.637454
vt 0.598 0.6106
vt 0.629392 0.635418
vt 0.611838 0.634871
vt 0.610236 0.63458
vt 0.598 0.6106
vt 0.610236 0.63458
vt 0.591666 0.630816
vt 0.598 0.6106
vt 0.5858 0.5912
vt 0.6002 0.5734
vt 0.598 0.6106
vt 0.6261 0.5762
vt 0.598 0.6106
vt 0.6002 0.5734
vt -0.433474 -1.00481
vt -0.564115 -1.05863
vt -0.920023 0.708242
vt -0.912776 0.708545
vt -0.72754 0.70279
vt -0.700931 0.713733
vt -0.981927 0.600797
vt -0.981614 0.598301
vt -0.705986 -0.80565
vn 0.193882 -0.378241 0.905176
vn 0.193881 -0.378242 0.905176
vn 0.193881 -0.378241 0.905176
vn -0.489127 0.102522 0.866166
vn -0.489127 0.102525 0.866166
vn -0.489127 0.102527 0.866166
vn -0.489125 0.102529 0.866166
vn -0.489124 0.102535 0.866166
vn -0.48912 0.102539 0.866168
vn 0.557034 0.515571 -0.651076
vn 0.557037 0.51557 -0.651073
vn 0.557037 0.515572 -0.651073
vn 0.557036 0.515568 -0.651076
vn 0.55703 0.515571 -0.651079
vn 0.929307 0.172223 -0.326693
vn 0.929308 0.172222 -0.326689
vn 0.929307 0.172222 -0.326692
vn 0.752961 -0.156809 -0.639109
vn 0.752959 -0.156812 -0.639111
vn 0.752964 -0.156806 -0.639107
vn 0.752964 -0.156804 -0.639107
vn 0.55704 0.515566 -0.651075
vn 0.557037 0.515568 -0.651076
vn 0.557037 0.515566 -0.651076
vn 0.557038 0.515568 -0.651074
vn 0.557038 0.515568 -0.651075
vn 0.55704 0.515569 -0.651072
vn -0.231413 0.138389 -0.962962
vn -0.231414 0.138389 -0.962962
vn -0.231414 0.138389 -0.962962
vn -0.231413 0.138389 -0.962962
vn -0.231413 0.13839 -0.962962
vn -0.231412 0.138389 -0.962963
vn -0.0331587 -0.987298 -0.155379
vn -0.0331588 -0.987298 -0.155379
vn -0.0331583 -0.987298 -0.15538
vn -0.0331585 -0.987298 -0.155379
vn -0.0331588 -0.987298 -0.155379
vn -0.0331589 -0.987298 -0.155378
vn -0.333178 -0.428489 0.839875
vn -0.345609 -0.432772 0.832624
vn -0.333177 -0.428489 0.839875
vn 0.369576 -0.914075 0.166976
vn 0.369575 -0.914075 0.166975
vn 0.369576 -0.914075 0.166976
vn 0.369575 -0.914074 0.166979
vn 0.369578 -0.914074 0.166978
vn 0.369574 -0.914074 0.166983
vn 0.369571 -0.914075 0.166989
vn 0.752959 -0.156819 -0.639109
vn 0.752956 -0.156811 -0.639115
vn 0.752965 -0.156806 -0.639105
vn 0.75296 -0.15682 -0.639107
vn 0.752947 -0.156808 -0.639126
vn 0.752927 -0.156806 -0.639151
vn -0.231413 0.138384 -0.962963
vn -0.231411 0.13838 -0.962964
vn -0.231412 0.138385 -0.962963
vn -0.231413 0.13839 -0.962962
vn 0.752966 -0.156805 -0.639104
vn 0.752965 -0.156807 -0.639105
vn -0.0331584 -0.987298 -0.155379
vn -0.033159 -0.987298 -0.155379
vn -0.0331593 -0.987299 -0.155377
vn -0.03316 -0.987299 -0.155376
vn 0.446633 -0.587005 -0.675236
vn 0.446647 -0.587013 -0.67522
vn 0.446629 -0.587002 -0.675242
vn 0.446624 -0.586999 -0.675247
vn 0.446635 -0.587008 -0.675232
vn 0.446635 -0.587008 -0.675232
vn -0.0331583 -0.987298 -0.155378
vn -0.0331588 -0.987298 -0.155378
vn 0.446635 -0.587008 -0.675233
vn 0.446636 -0.587007 -0.675233
vn -0.231412 0.138386 -0.962963
vn 0.752963 -0.156806 -0.639107
vn 0.752965 -0.156807 -0.639106
vn 0.752964 -0.156805 -0.639107
vn 0.752964 -0.156806 -0.639106
vn 0.752965 -0.156806 -0.639105
vn 0.369576 -0.914075 0.166976
vn 0.369576 -0.914075 0.166976
vn 0.369576 -0.914075 0.166977
vn 0.369576 -0.914075 0.166976
vn -0.357962 -0.436959 0.825185
vn -0.357963 -0.436958 0.825185
vn -0.0565866 -0.508155 0.859405
vn -0.0565866 -0.508155 0.859405
vn -0.0565866 -0.508155 0.859405
vn 0.19388 -0.378241 0.905176
vn 0.19388 -0.378242 0.905176
vn 0.19388 -0.37824 0.905177
vn 0.929307 0.172223 -0.326692
vn 0.929307 0.172222 -0.326692
vn 0.929307 0.172223 -0.326692
vn 0.929307 0.172224 -0.326692
vn 0.369574 -0.914075 0.166978
vn 0.369575 -0.914075 0.166977
vn 0.369575 -0.914075 0.166977
vn 0.752964 -0.156806 -0.639107
vn 0.752964 -0.156806 -0.639107
vn 0.752963 -0.156805 -0.639107
vn 0.752964 -0.156807 -0.639106
vn 0.369576 -0.914075 0.166977
vn 0.369575 -0.914075 0.166976
vn 0.369575 -0.914075 0.166976
vn 0.929308 0.172222 -0.326689
vn 0.929309 0.17222 -0.326687
vn 0.929305 0.172224 -0.326697
vn -0.339403 -0.430642 0.836273
vn -0.333174 -0.428482 0.83988
vn -0.0331585 -0.987298 -0.155379
vn -0.0331596 -0.987298 -0.155383
vn -0.231414 0.138389 -0.962962
vn -0.231413 0.138389 -0.962962
vn -0.231413 0.138389 -0.962962
vn -0.0331627 -0.987296 -0.155395
vn -0.0331661 -0.987293 -0.155409
vn -0.0331583 -0.987298 -0.15538
vn -0.0331579 -0.987298 -0.155378
vn -0.0331586 -0.987298 -0.155379
vn -0.441567 -0.660101 0.607689
vn -0.44156 -0.660093 0.607702
vn -0.441581 -0.660119 0.607659
vn -0.44156 -0.660092 0.607703
vn -0.44158 -0.660118 0.607661
vn -0.333167 -0.428469 0.839889
vn -0.333172 -0.428479 0.839882
vn -0.838857 -0.230627 -0.493083
vn -0.838893 -0.23065 -0.493011
vn -0.838878 -0.230636 -0.493043
vn -0.578392 0.187716 0.793867
vn -0.578402 0.187763 0.793849
vn -0.578402 0.187763 0.793849
vn -0.578411 0.18781 0.793831
vn -0.340049 0.00123397 0.940407
vn -0.340051 0.00123541 0.940406
vn -0.340068 0.00123646 0.9404
vn -0.838907 -0.230666 -0.49298
vn -0.838906 -0.230668 -0.49298
vn -0.838905 -0.230655 -0.492988
vn -0.838906 -0.230667 -0.49298
vn -0.838906 -0.230666 -0.49298
vn -0.838906 -0.230666 -0.492981
vn -0.231413 0.138389 -0.962962
vn -0.231415 0.13839 -0.962962
vn -0.231417 0.138389 -0.962961
vn -0.23142 0.138389 -0.962961
vn -0.523441 -0.0298601 0.851539
vn -0.523441 -0.0298601 0.851539
vn -0.523441 -0.0298601 0.851539
vn -0.340051 0.00123698 0.940406
vn -0.340051 0.00123692 0.940406
vn -0.340054 0.00123678 0.940405
vn -0.340068 0.00123751 0.9404
vn -0.34007 0.0012374 0.940399
vn 0.0268404 0.245212 0.969098
vn 0.0268404 0.245212 0.969098
vn 0.0268404 0.245212 0.969098
vn -0.343165 0.162141 0.925175
vn -0.343165 0.162141 0.925175
vn -0.343165 0.162141 0.925175
vn -0.231413 0.13839 -0.962962
vn -0.231413 0.138391 -0.962962
vn -0.231414 0.13839 -0.962962
vn -0.231414 0.13839 -0.962962
vn -0.231415 0.138389 -0.962962
vn 0.00708723 0.999897 0.0124754
vn 0.00708673 0.999897 0.012476
vn 0.00708635 0.999897 0.0124754
vn 0.00708787 0.999897 0.0124753
vn 0.557037 0.515568 -0.651076
vn 0.557037 0.515568 -0.651076
vn 0.557038 0.515568 -0.651075
vn -0.231414 0.13839 -0.962962
vn -0.231414 0.13839 -0.962962
vn 0.00708799 0.999897 0.0124757
vn 0.00708752 0.999897 0.0124758
vn -0.4152 0.179716 0.891802
vn -0.415199 0.179715 0.891803
vn -0.415199 0.179715 0.891803
vn -0.343164 0.162141 0.925175
vn 0.00708762 0.999897 0.0124747
vn -0.415198 0.179715 0.891803
vn 0.00708765 0.999897 0.0124763
vn 0.00708674 0.999897 0.012479
vn 0.00708678 0.999897 0.0124791
vn 0.557036 0.515576 -0.65107
vn 0.557034 0.515592 -0.65106
vn -0.377251 -0.166265 0.911064
vn -0.37725 -0.166267 0.911064
vn -0.377254 -0.166261 0.911064
vn -0.377248 -0.16627 0.911064
vn -0.377248 -0.16627 0.911064
vn -0.685884 0.147356 0.712635
vn -0.685884 0.147356 0.712635
vn -0.685884 0.147356 0.712635
vn -0.415199 0.179716 0.891803
vn -0.466403 0.248269 0.849018
vn -0.466403 0.248269 0.849018
vn -0.466403 0.248269 0.849018
vn -0.283078 0.205072 0.936916
vn -0.283078 0.205072 0.936916
vn -0.283078 0.205072 0.936916
vn 0.00708648 0.999897 0.012481
vn 0.00708668 0.999897 0.0124762
vn -0.838907 -0.230666 -0.49298
vn -0.838906 -0.230667 -0.492979
vn -0.838907 -0.230667 -0.492979
vn -0.838907 -0.230667 -0.492979
vn -0.838906 -0.230666 -0.492981
vn -0.838905 -0.230666 -0.492982
vn 0.752967 -0.156808 -0.639103
f 1/1/1 2/2/2 3/3/3 
f 4/4/4 5/5/5 6/6/6 
f 7/7/7 5/5/5 4/4/4 
f 7/7/7 8/8/8 5/5/5 
f 9/9/9 8/8/8 7/7/7 
f 10/10/10 11/11/11 12/12/12 
f 10/10/10 13/13/13 11/11/11 
f 10/10/10 14/14/14 13/13/13 
f 15/15/15 16/16/16 17/17/17 
f 18/18/18 19/19/19 20/20/20 
f 21/21/21 18/18/18 20/20/20 
f 11/11/11 13/13/13 22/22/22 
f 23/23/23 11/11/11 22/22/22 
f 23/23/23 24/24/24 11/11/11 
f 25/25/25 24/24/24 23/23/23 
f 25/25/25 26/26/26 24/24/24 
f 27/27/27 26/26/26 25/25/25 
f 28/28/28 29/29/29 30/30/30 
f 28/28/28 31/31/31 29/29/29 
f 32/32/32 31/31/31 28/28/28 
f 31/31/31 32/32/32 33/33/33 
f 34/34/34 35/35/35 36/36/36 
f 34/34/34 37/37/37 35/35/35 
f 34/34/34 38/38/38 37/37/37 
f 39/39/39 38/38/38 34/34/34 
f 40/40/40 41/41/41 42/42/42 
f 43/43/43 44/44/44 45/45/45 
f 45/45/45 46/46/46 43/43/43 
f 47/47/47 46/46/46 45/45/45 
f 48/48/48 46/46/46 47/47/47 
f 49/49/49 46/46/46 48/48/48 
f 50/50/50 51/51/51 52/52/52 
f 53/53/53 51/51/51 50/50/50 
f 54/54/54 51/51/51 53/53/53 
f 55/55/55 51/51/51 54/54/54 
f 56/56/56 57/57/57 58/58/58 
f 56/56/56 58/58/58 59/59/59 
f 51/51/51 60/60/60 52/52/52 
f 60/60/60 61/61/61 52/52/52 
f 33/33/33 32/32/32 59/59/59 
f 59/59/59 58/58/58 33/33/33 
f 62/62/62 36/36/36 63/63/63 
f 36/36/36 62/62/62 34/34/34 
f 63/63/63 64/64/64 62/62/62 
f 64/64/64 63/63/63 65/65/65 
f 66/66/66 67/67/67 68/68/68 
f 69/69/69 66/66/66 68/68/68 
f 70/70/70 66/66/66 69/69/69 
f 71/71/71 66/66/66 70/70/70 
f 62/62/62 64/64/64 72/72/72 
f 62/62/62 72/72/72 73/73/73 
f 71/71/71 70/70/70 74/74/74 
f 74/74/74 70/70/70 75/75/75 
f 58/58/58 57/57/57 76/76/76 
f 61/61/61 77/77/77 52/52/52 
f 78/78/78 77/77/77 61/61/61 
f 79/79/79 77/77/77 78/78/78 
f 79/79/79 80/80/80 77/77/77 
f 79/79/79 20/20/20 80/80/80 
f 79/79/79 21/21/21 20/20/20 
f 80/80/80 20/20/20 81/81/81 
f 82/82/82 83/83/83 84/84/84 
f 43/43/43 83/83/83 82/82/82 
f 83/83/83 43/43/43 85/85/85 
f 85/85/85 43/43/43 46/46/46 
f 86/86/86 87/87/87 41/41/41 
f 88/88/88 89/89/89 90/90/90 
f 91/91/91 2/2/2 92/92/92 
f 91/91/91 3/3/3 2/2/2 
f 93/93/93 3/3/3 91/91/91 
f 94/94/94 95/95/95 96/96/96 
f 94/94/94 97/97/97 95/95/95 
f 98/98/98 99/99/99 100/100/100 
f 101/101/101 102/102/102 103/103/103 
f 101/101/101 20/20/20 102/102/102 
f 104/104/104 20/20/20 101/101/101 
f 81/81/81 20/20/20 104/104/104 
f 105/105/105 84/84/84 106/106/106 
f 82/82/82 84/84/84 105/105/105 
f 106/106/106 107/107/107 105/105/105 
f 100/100/100 107/107/107 106/106/106 
f 100/100/100 99/99/99 107/107/107 
f 96/96/96 95/95/95 17/17/17 
f 17/17/17 16/16/16 96/96/96 
f 16/16/16 108/108/108 96/96/96 
f 16/16/16 109/109/109 108/108/108 
f 96/96/96 108/108/108 110/110/110 
f 41/41/41 87/87/87 111/111/111 
f 42/42/42 41/41/41 111/111/111 
f 42/42/42 111/111/111 112/112/112 
f 38/38/38 113/113/113 114/114/114 
f 38/38/38 114/114/114 37/37/37 
f 30/30/30 29/29/29 115/115/115 
f 115/115/115 116/116/116 30/30/30 
f 115/115/115 117/117/117 116/116/116 
f 114/114/114 118/118/118 119/119/119 
f 114/114/114 120/120/120 118/118/118 
f 114/114/114 121/121/121 120/120/120 
f 122/122/122 121/121/121 114/114/114 
f 123/123/123 124/124/124 125/125/125 
f 123/123/123 126/126/126 124/124/124 
f 127/127/127 126/126/126 123/123/123 
f 128/128/128 112/112/112 129/129/129 
f 130/130/130 131/131/131 132/132/132 
f 133/133/133 134/134/134 135/135/135 
f 129/129/129 112/112/112 111/111/111 
f 135/135/135 134/134/134 136/136/136 
f 137/137/137 138/138/138 139/139/139 
f 140/140/140 131/131/131 141/141/141 
f 142/142/142 131/131/131 140/140/140 
f 131/131/131 142/142/142 132/132/132 
f 142/142/142 140/140/140 143/143/143 
f 140/140/140 144/144/144 143/143/143 
f 140/140/140 145/145/145 144/144/144 
f 30/30/30 116/116/116 146/146/146 
f 146/146/146 147/147/147 30/30/30 
f 148/148/148 147/147/147 146/146/146 
f 149/149/149 147/147/147 148/148/148 
f 150/150/150 151/151/151 152/152/152 
f 153/153/153 154/154/154 155/155/155 
f 156/156/156 154/154/154 153/153/153 
f 156/156/156 157/157/157 154/154/154 
f 139/139/139 157/157/157 156/156/156 
f 139/139/139 138/138/138 157/157/157 
f 158/158/158 159/159/159 160/160/160 
f 161/161/161 162/162/162 163/163/163 
f 164/164/164 165/165/165 166/166/166 
f 166/166/166 167/167/167 164/164/164 
f 166/166/166 168/168/168 167/167/167 
f 169/169/169 170/170/170 171/171/171 
f 172/172/172 170/170/170 169/169/169 
f 173/173/173 174/174/174 175/175/175 
f 174/174/174 173/173/173 26/26/26 
f 167/167/167 30/30/30 147/147/147 
f 167/167/167 147/147/147 176/176/176 
f 164/164/164 167/167/167 176/176/176 
f 177/177/177 164/164/164 176/176/176 
f 26/26/26 173/173/173 24/24/24 
f 172/172/172 178/178/178 179/179/179 
f 172/172/172 169/169/169 178/178/178 
f 180/180/180 181/181/181 182/182/182 
f 163/163/163 162/162/162 183/183/183 
f 169/169/169 171/171/171 184/184/184 
f 182/182/182 181/181/181 185/185/185 
f 179/179/179 178/178/178 186/186/186 
f 179/179/179 186/186/186 187/187/187 
f 179/179/179 187/187/187 188/188/188 
f 189/189/189 11/11/11 24/24/24 
f 11/11/11 189/189/189 190/190/190 
f 191/191/191 192/192/192 193/193/193 
f 194/194/194 192/192/192 191/191/191 
f 195/195/195 192/192/192 194/194/194 
f 196/196/196 197/197/197 198/198/198 
f 185/185/185 181/181/181 199/199/199 
f 200/200/200 201/201/201 202/202/202 
f 203/203/203 204/204/204 205/205/205 
f 188/188/188 187/187/187 206/206/206 
f 206/206/206 207/207/207 188/188/188 
f 140/140/140 141/141/141 208/208/208 
f 140/140/140 208/208/208 209/209/209 
f 210/210/210 140/140/140 209/209/209 
f 209/209/209 211/211/211 210/210/210 
f 144/144/144 145/145/145 212/212/212 
f 212/212/212 145/145/145 213/213/213 
f 113/113/113 122/122/122 114/114/114 
f 78/78/78 61/61/61 214/214/214 
