v 0.585867 -0.911634 -0.320515
v 0.578533 -0.926548 -0.286103
v 0.527126 -0.948148 -0.405655
v 0.585867 -0.911634 -0.320515
v 0.575424 -0.864227 -0.263739
v 0.578533 -0.926548 -0.286103
v 0.580945 -0.861946 -0.290654
v 0.577262 -0.82477 -0.268313
v 0.575167 -0.869748 -0.263099
v 0.573189 -0.912217 -0.258175
v 0.574772 -0.934194 -0.268458
v 0.450824 -1.03351 -0.351237
v 0.574772 -0.934194 -0.268458
v 0.513531 -0.963357 -0.39596
v 0.527126 -0.948148 -0.405655
v 0.513531 -0.963357 -0.39596
v 0.52693 -0.94809 -0.405813
v 0.52693 -0.94809 -0.405813
v 0.585867 -0.911634 -0.320515
v 0.527126 -0.948148 -0.405655
v 0.580945 -0.861946 -0.290654
v 0.50941 -0.942829 -0.419878
v 0.538297 -0.786406 -0.280894
v 0.542578 -0.790622 -0.279512
v 0.577262 -0.82477 -0.268312
v 0.572942 -0.92909 -0.258873
v 0.572809 -0.938185 -0.25925
v 0.387832 -1.10398 -0.306312
v 0.572809 -0.938185 -0.25925
v 0.387832 -1.10398 -0.306312
v 0.26474 -0.963188 -0.516068
v 0.450824 -1.03351 -0.351238
v 0.174776 -1.06988 -0.445443
v 0.174776 -1.06988 -0.445443
v 0.109669 -0.853706 -0.358023
v 0.26474 -0.963188 -0.516067
v 0.085761 -1.17545 -0.375564
v 0.14321 -1.16185 -0.362393
v 0.085761 -1.17545 -0.375564
v 0.291372 -0.787965 -0.519198
v 0.29134 -0.78448 -0.518737
v 0.291161 -0.764695 -0.516122
v 0.29134 -0.78448 -0.518737
v 0.291161 -0.764695 -0.516122
v 0.30828 -0.780053 -0.509544
v 0.291372 -0.787965 -0.519198
v 0.311176 -0.782651 -0.508431
v 0.49261 -0.741425 -0.295646
v 0.311176 -0.782651 -0.508431
v 0.30828 -0.780053 -0.509544
v 0.313883 -0.785079 -0.507391
v 0.313883 -0.78508 -0.507391
v 0.291636 -0.817177 -0.52306
v 0.291636 -0.817177 -0.52306
v 0.292659 -0.930077 -0.537985
v 0.292659 -0.930077 -0.537985
v 0.438654 -0.933094 -0.464386
v 0.50941 -0.942829 -0.419878
v 0.479823 -0.933945 -0.443632
v 0.479822 -0.933945 -0.443632
v 0.527759 -0.776032 -0.284297
v 0.390036 -0.853397 -0.478131
v 0.390036 -0.853397 -0.478131
v 0.292659 -0.930077 -0.537985
v 0.438654 -0.933094 -0.464386
v 0.479823 -0.933945 -0.443632
v 0.262821 -0.669252 -0.477902
v 0.291161 -0.764695 -0.516122
v 0.262821 -0.669252 -0.477902
v 0.198172 -0.451533 -0.390718
v 0.198172 -0.451533 -0.390718
v 0.575424 -0.864227 -0.263739
v 0.577262 -0.82477 -0.268313
v 0.542578 -0.790622 -0.279512
v 0.575167 -0.869748 -0.263099
v 0.538297 -0.786406 -0.280894
v 0.527759 -0.776032 -0.284297
v 0.573189 -0.912217 -0.258175
v 0.492611 -0.741425 -0.295646
v 0.109669 -0.853707 -0.358023
v 0.573189 -0.912217 -0.258175
v 0.109669 -0.853707 -0.358023
v 0.572942 -0.92909 -0.258873
v 0.085761 -1.17545 -0.375564
v 0.14321 -1.16185 -0.362393
v 0.572809 -0.938185 -0.25925
v 0.387832 -1.10398 -0.306312
v 0.198172 -0.451533 -0.390718
vt -0.141687 -0.205795
vt -0.106802 -0.221399
vt -0.227996 -0.273497
vt -0.899888 0.430742
vt -0.852468 0.373023
vt -0.914805 0.395558
vt -0.850186 0.400498
vt -0.813001 0.377871
vt -0.857991 0.372344
vt -0.900471 0.367126
vt -0.922453 0.377518
vt -0.172831 -0.38763
vt -0.0889151 -0.2294
vt -0.218167 -0.293832
vt -0.197361 0.35175
vt -0.183048 0.369221
vt -0.197155 0.351594
vt -1.1422 -0.0812413
vt -1.10156 -0.183353
vt -1.14226 -0.0814909
vt -1.04617 -0.201151
vt -1.13634 -0.0589242
vt -0.961963 -0.178143
vt -0.966662 -0.182134
vt -1.00473 -0.214467
vt -0.917348 0.367761
vt -0.926445 0.368103
vt -0.127289 -0.481853
vt -0.0795808 -0.233575
vt -0.0507053 0.530764
vt 0.0788934 0.281415
vt -0.117026 0.44981
vt 0.173612 0.405885
vt -1.08416 -0.431535
vt -0.867107 -0.324306
vt -0.977036 -0.5455
vt -1.19016 -0.318773
vt 0.206846 0.52937
vt 0.267332 0.529042
vt -0.801096 -0.567119
vt -0.797597 -0.566781
vt -0.777731 -0.564867
vt -0.850695 -0.0253026
vt -0.830763 -0.0263254
vt -0.846235 -0.0445688
vt -0.854205 -0.0251225
vt -0.848852 -0.0476547
vt -0.91182 -0.135554
vt -0.957776 0.143343
vt -0.95488 0.146169
vt -0.960484 0.140701
vt -0.851299 -0.05054
vt -0.883634 -0.0236123
vt -0.830428 -0.569945
vt -0.943789 -0.580868
vt 0.0494985 0.242788
vt -0.104213 0.298584
vt -0.178709 0.337731
vt -0.147558 0.314317
vt -1.12643 -0.0212341
vt -0.950397 -0.16832
vt -1.03664 0.0663857
vt -0.920123 -0.131694
vt -0.997372 -0.0177758
vt -1.00041 -0.181273
vt -1.00127 -0.227377
vt -0.831365 0.155576
vt -0.93776 0.162875
vt -0.681898 -0.518078
vt -0.463288 -0.411345
vt -0.588661 0.138925
vt 0.288323 0.387067
vt 0.274344 0.388652
vt 0.299692 0.369974
vt 0.290279 0.386845
vt 0.302821 0.367668
vt 0.310522 0.361993
vt 0.305326 0.38514
vt 0.33621 0.343065
vt 0.765907 0.129785
vt 0.305326 0.38514
vt 0.765907 0.129785
vt 0.316239 0.393313
vt 0.994624 0.276253
vt 0.924384 0.297656
vt 0.322122 0.397719
vt 0.625297 0.38879
vt 0.551395 0.184501
vn 0.681211 -0.713481 -0.164003
vn 0.681211 -0.713481 -0.164003
vn 0.681211 -0.713481 -0.164003
vn 0.979731 -0.0225615 0.199044
vn 0.97973 -0.022563 0.199048
vn 0.97973 -0.0225641 0.199049
vn 0.979731 -0.0225617 0.199044
vn 0.979731 -0.0225619 0.199044
vn 0.979729 -0.0225638 0.199052
vn 0.97973 -0.0225652 0.199046
vn 0.97973 -0.0225651 0.199046
vn 0.68121 -0.713481 -0.164002
vn 0.681211 -0.713482 -0.164
vn 0.681211 -0.713481 -0.164003
vn nan nan nan
vn 0.312863 -0.69344 -0.649044
vn 0.312858 -0.69344 -0.649045
vn 0.638536 0.441908 -0.630071
vn 0.638533 0.441911 -0.630072
vn nan nan nan
vn 0.638536 0.44191 -0.630069
vn 0.638535 0.441909 -0.630071
vn 0.638536 0.441911 -0.630068
vn 0.638538 0.441911 -0.630066
vn 0.638534 0.44191 -0.630071
vn 0.97973 -0.0225639 0.199046
vn 0.979731 -0.0225602 0.199044
vn 0.681211 -0.713482 -0.164
vn 0.681211 -0.713482 -0.163998
vn 0.312862 -0.69344 -0.649044
vn 0.312863 -0.69344 -0.649044
vn 0.312863 -0.69344 -0.649044
vn 0.312861 -0.693439 -0.649045
vn -0.678941 0.0901747 -0.728634
vn -0.678941 0.0901744 -0.728634
vn -0.67894 0.0901744 -0.728635
vn -0.678941 0.0901746 -0.728634
vn 0.312861 -0.693438 -0.649046
vn 0.31286 -0.693438 -0.649047
vn -0.67894 0.0901729 -0.728635
vn -0.678941 0.0901739 -0.728634
vn -0.678941 0.0901762 -0.728634
vn 0.448839 0.121099 -0.885369
vn 0.448836 0.121113 -0.885369
vn 0.448839 0.121099 -0.885369
vn 0.448836 0.121105 -0.88537
vn 0.448833 0.121113 -0.88537
vn 0.638532 0.441913 -0.630071
vn 0.63853 0.441918 -0.63007
vn 0.638538 0.441903 -0.630072
vn 0.638528 0.441923 -0.630068
vn 0.448832 0.121116 -0.88537
vn 0.448834 0.12111 -0.88537
vn -0.67894 0.0901741 -0.728636
vn -0.678939 0.0901741 -0.728636
vn 0.312863 -0.69344 -0.649043
vn 0.312864 -0.693439 -0.649044
vn 0.312863 -0.693439 -0.649044
vn 0.312865 -0.693439 -0.649044
vn 0.638534 0.44191 -0.630071
vn 0.638534 0.441911 -0.630071
vn 0.638534 0.44191 -0.630071
vn 0.448835 0.12111 -0.88537
vn 0.448835 0.12111 -0.88537
vn 0.448835 0.121109 -0.88537
vn 0.448835 0.121109 -0.88537
vn 0.638534 0.44191 -0.630071
vn 0.638535 0.441911 -0.63007
vn -0.678941 0.0901746 -0.728634
vn -0.678941 0.0901747 -0.728634
vn 0.638534 0.44191 -0.630071
vn -0.194272 0.121888 0.973346
vn -0.194283 0.121883 0.973344
vn -0.194283 0.121884 0.973344
vn -0.194283 0.121884 0.973344
vn -0.194293 0.121879 0.973343
vn -0.194284 0.121883 0.973344
vn -0.194285 0.121883 0.973344
vn -0.194284 0.121883 0.973344
vn -0.194284 0.121883 0.973344
vn -0.214925 -0.037234 0.975921
vn -0.214925 -0.0372349 0.975921
vn -0.214925 -0.0372347 0.97592
vn -0.214925 -0.0372353 0.975921
vn -0.214925 -0.0372353 0.97592
vn -0.214925 -0.0372352 0.97592
vn -0.214925 -0.0372356 0.975921
vn -0.194284 0.121884 0.973344
f 1/1/1 2/2/2 3/3/3 
f 4/4/4 5/5/5 6/6/6 
f 7/7/7 5/5/5 4/4/4 
f 5/5/5 7/7/7 8/8/8 
f 6/6/6 5/5/5 9/9/9 
f 6/6/6 9/9/9 10/10/10 
f 6/6/6 10/10/10 11/11/11 
f 12/12/12 2/2/2 13/13/13 
f 14/14/14 2/2/2 12/12/12 
f 3/3/3 2/2/2 14/14/14 
f 15/15/15 16/16/16 17/17/17 
f 18/18/18 19/19/19 20/20/20 
f 19/19/19 18/18/18 21/21/21 
f 21/21/21 18/18/18 22/22/22 
f 21/21/21 22/22/22 23/23/23 
f 24/24/24 21/21/21 23/23/23 
f 21/21/21 24/24/24 25/25/25 
f 10/10/10 26/26/26 11/11/11 
f 11/11/11 26/26/26 27/27/27 
f 28/28/28 13/13/13 29/29/29 
f 12/12/12 13/13/13 28/28/28 
f 30/30/30 31/31/31 32/32/32 
f 33/33/33 31/31/31 30/30/30 
f 34/34/34 35/35/35 36/36/36 
f 37/37/37 35/35/35 34/34/34 
f 30/30/30 38/38/38 33/33/33 
f 38/38/38 39/39/39 33/33/33 
f 35/35/35 40/40/40 36/36/36 
f 35/35/35 41/41/41 40/40/40 
f 41/41/41 35/35/35 42/42/42 
f 43/43/43 44/44/44 45/45/45 
f 45/45/45 46/46/46 43/43/43 
f 45/45/45 47/47/47 46/46/46 
f 48/48/48 49/49/49 50/50/50 
f 49/49/49 48/48/48 51/51/51 
f 47/47/47 52/52/52 46/46/46 
f 46/46/46 52/52/52 53/53/53 
f 36/36/36 40/40/40 54/54/54 
f 36/36/36 54/54/54 55/55/55 
f 31/31/31 56/56/56 16/16/16 
f 32/32/32 31/31/31 16/16/16 
f 16/16/16 56/56/56 57/57/57 
f 16/16/16 57/57/57 58/58/58 
f 17/17/17 16/16/16 58/58/58 
f 58/58/58 57/57/57 59/59/59 
f 60/60/60 61/61/61 22/22/22 
f 62/62/62 61/61/61 60/60/60 
f 51/51/51 61/61/61 62/62/62 
f 51/51/51 48/48/48 61/61/61 
f 52/52/52 63/63/63 53/53/53 
f 64/64/64 53/53/53 63/63/63 
f 64/64/64 63/63/63 65/65/65 
f 63/63/63 66/66/66 65/65/65 
f 22/22/22 61/61/61 23/23/23 
f 50/50/50 67/67/67 48/48/48 
f 68/68/68 67/67/67 50/50/50 
f 42/42/42 35/35/35 69/69/69 
f 35/35/35 70/70/70 69/69/69 
f 67/67/67 71/71/71 48/48/48 
f 72/72/72 73/73/73 74/74/74 
f 72/72/72 74/74/74 75/75/75 
f 75/75/75 74/74/74 76/76/76 
f 75/75/75 76/76/76 77/77/77 
f 75/75/75 77/77/77 78/78/78 
f 78/78/78 77/77/77 79/79/79 
f 78/78/78 79/79/79 80/80/80 
f 81/81/81 82/82/82 83/83/83 
f 82/82/82 84/84/84 85/85/85 
f 83/83/83 82/82/82 85/85/85 
f 83/83/83 85/85/85 86/86/86 
f 86/86/86 85/85/85 87/87/87 
f 80/80/80 79/79/79 88/88/88 
