v 0.961908 0.62159 -0.0919391
v 0.9744 0.7004 -0.0226
v 0.985598 0.415067 -0.163814
v 0.952848 0.689138 -0.0663306
v 0.9744 0.7004 -0.0226
v 0.961908 0.62159 -0.0919391
v 0.952181 0.69411 -0.0644458
v 0.952514 0.69801 -0.0643376
v 0.9744 0.7004 -0.0226
v 0.952181 0.69411 -0.0644459
v 0.959194 0.724282 -0.0550722
v 0.959194 0.724282 -0.0550722
v 1.1185 0.6941 0.1013
v 0.9744 0.7004 -0.0226
v 0.960926 0.729177 -0.0577361
v 0.973471 0.764633 -0.077032
v 0.981836 0.788276 -0.0898985
v 0.981836 0.788276 -0.0898985
v 1.09469 0.910322 -0.0184013
v 1.1185 0.6941 0.1013
v 0.983476 0.793667 -0.0904235
v 0.998416 0.842775 -0.0952059
v 1.00563 0.903088 -0.000696704
v 1.09469 0.910323 -0.0184014
v 0.998416 0.842775 -0.0952059
v 1.0057 0.903717 0.00028836
v 1.00698 0.914359 0.0169651
v 1.00842 0.926453 0.0359157
v 1.15408 0.941426 0.0120066
v 1.15408 0.941426 0.0120066
v 1.1185 0.6941 0.1013
v 1.09469 0.910322 -0.0184014
v 1.19401 0.905343 0.0592398
v 1.1185 0.6941 0.1013
v 1.19401 0.905343 0.0592398
v 1.20697 0.846341 0.150101
v 1.1185 0.6941 0.1013
v 1.20697 0.846341 0.150101
v 1.20895 0.788573 0.241853
v 1.20895 0.788573 0.241853
v 1.13723 0.651969 0.291354
v 1.1185 0.6941 0.1013
v 1.19234 0.714048 0.365211
v 1.20895 0.788573 0.241853
v 1.10935 0.793759 0.259514
v 1.19234 0.714048 0.365211
v 1.08916 0.813152 0.233799
v 1.10935 0.793759 0.259514
v 1.08916 0.813152 0.233799
v 1.03793 0.629987 0.161145
v 1.1022 0.61251 0.244408
v 1.13723 0.651969 0.291354
v 1.19234 0.714048 0.365211
v 1.1022 0.612509 0.244408
v 1.1022 0.61251 0.244408
v 0.9744 0.7004 -0.0226
v 1.1185 0.6941 0.1013
v 1.03793 0.629987 0.161145
v 1.03793 0.629987 0.161145
v 1.10175 0.407629 0.17195
v 0.9744 0.7004 -0.0226
v 1.09824 0.475271 0.234874
v 1.10175 0.407629 0.17195
v 1.09824 0.475271 0.234874
v 1.11198 0.422344 0.251112
v 1.10175 0.407629 0.17195
v 1.11198 0.422344 0.251112
v 1.05241 0.423989 0.173472
v 1.04867 0.424092 0.168596
v 1.01816 0.424934 0.128828
v 1.06646 0.377831 -0.00910491
v 1.06646 0.377831 -0.00910491
v 1.05958 0.372021 -0.044411
v 1.05958 0.372021 -0.044411
v 0.989598 0.380197 -0.17595
v 0.985598 0.415067 -0.163814
v 0.989598 0.380197 -0.17595
v 0.982482 0.369261 -0.166349
v 0.962203 0.383787 -0.13148
v 0.925664 0.40996 -0.0686521
v 0.961907 0.62159 -0.0919391
v 0.908451 0.42229 -0.0390553
v 0.900213 0.428191 -0.0248898
v 0.900783 0.440711 -0.0237469
v 0.904909 0.531249 -0.0154815
v 0.952848 0.689138 -0.0663306
v 0.906203 0.559635 -0.0128901
v 0.93434 0.643708 -0.0441482
v 0.94733 0.682521 -0.0585788
v 0.952181 0.69411 -0.0644458
v 0.950423 0.691762 -0.0620145
v 0.950522 0.692058 -0.0621248
v 0.950686 0.692549 -0.0623073
v 0.951338 0.694498 -0.0630319
v 0.951351 0.694537 -0.0630464
v 0.951479 0.694919 -0.0631882
v 0.952514 0.69801 -0.0643376
v 0.951479 0.694919 -0.0631882
v 0.959194 0.724282 -0.0550722
v 0.952514 0.69801 -0.0643376
v 0.951351 0.694537 -0.0630464
v 0.950686 0.692549 -0.0623073
v 0.950522 0.692058 -0.0621248
v 0.950423 0.691762 -0.0620145
v 0.94733 0.682521 -0.0585788
v 0.940288 0.694228 0.0358515
v 0.940647 0.695649 0.036366
v 0.944611 0.7113 0.0420338
v 0.944611 0.7113 0.0420338
v 0.940647 0.695649 0.036366
v 0.949065 0.728889 0.0484035
v 0.961654 0.778599 0.0664055
v 0.96902 0.807689 0.07694
v 0.993638 0.904898 0.112143
v 0.969021 0.807689 0.07694
v 0.993638 0.904898 0.112143
v 0.996637 0.911085 0.101478
v 0.997624 0.913122 0.0979693
v 1.00077 0.919606 0.0867934
v 1.00153 0.921191 0.084063
v 1.0058 0.929982 0.0689106
v 1.00626 0.930943 0.0672556
v 1.00971 0.93726 0.0528494
v 1.00842 0.926453 0.0359157
v 1.00698 0.914359 0.0169651
v 1.0057 0.903717 0.00028836
v 1.00563 0.903088 -0.000696704
v 0.983476 0.793667 -0.0904235
v 0.998416 0.842775 -0.0952059
v 0.981836 0.788276 -0.0898985
v 0.961654 0.778599 0.0664055
v 0.973471 0.764633 -0.077032
v 0.960926 0.729177 -0.0577361
v 0.949065 0.728889 0.0484035
v 1.00971 0.93726 0.0528494
v 1.00984 0.938329 0.0545253
v 1.15408 0.941426 0.0120067
v 1.00984 0.938329 0.0545254
v 1.19401 0.905343 0.0592399
v 1.00626 0.930943 0.0672556
v 1.0058 0.929982 0.0689106
v 1.20697 0.846341 0.150102
v 1.00153 0.921191 0.084063
v 1.00077 0.919606 0.0867934
v 0.997624 0.913122 0.0979693
v 0.996637 0.911085 0.101478
v 0.993638 0.904898 0.112143
v 1.00984 0.938329 0.0545253
v 0.940287 0.694228 0.0358515
v 0.928461 0.647528 0.0189394
v 0.926642 0.640344 0.0163377
v 0.925675 0.636525 0.0149549
v 0.910886 0.578128 -0.00619299
v 0.904909 0.531249 -0.0154815
v 1.01816 0.424934 0.128828
v 0.9386 0.427131 0.0251409
v 0.900783 0.440711 -0.0237469
v 0.90445 0.428074 -0.0193677
v 0.903389 0.428103 -0.0207503
v 0.903389 0.428103 -0.0207503
v 1.05958 0.372021 -0.044411
v 0.90445 0.428074 -0.0193677
v 0.908451 0.42229 -0.0390553
v 0.900213 0.428191 -0.0248898
v 0.900213 0.428191 -0.0248898
v 0.925664 0.40996 -0.0686521
v 0.962203 0.383787 -0.13148
v 1.00321 0.364316 -0.158524
v 1.00321 0.364316 -0.158524
v 0.989598 0.380197 -0.17595
v 1.00321 0.364316 -0.158524
v 0.982482 0.369261 -0.166349
v 0.982482 0.369261 -0.166349
v 0.9386 0.427131 0.0251409
v 1.04867 0.424092 0.168596
v 1.09824 0.475271 0.234874
v 1.05241 0.423989 0.173472
v 1.11198 0.422344 0.251112
v 0.906203 0.559635 -0.0128901
v 0.906203 0.559635 -0.0128901
v 0.910886 0.578128 -0.00619299
v 0.93434 0.643708 -0.0441482
v 0.925675 0.636525 0.0149549
v 0.926642 0.640344 0.0163377
v 0.928461 0.647528 0.0189394
vt 0.867544 0.722864
vt 0.8615 0.7335
vt 0.86923 0.697326
vt 0.866797 0.731505
vt 0.8615 0.7335
vt 0.867544 0.722864
vt 0.866742 0.732141
vt 0.866784 0.732657
vt 0.8615 0.7335
vt 0.866742 0.732141
vt 0.865982 0.736238
vt 0.865982 0.736238
vt 0.8402 0.7398
vt 0.8615 0.7335
vt 0.866205 0.737043
vt 0.867816 0.742869
vt 0.868891 0.746754
vt 0.868891 0.746754
vt 0.852813 0.764484
vt 0.8402 0.7398
vt 0.868795 0.747436
vt 0.867922 0.753654
vt -1.12224 -0.476683
vt -1.21264 -0.465476
vt -1.11492 -0.364576
vt -1.12231 -0.477852
vt -1.1236 -0.497634
vt -1.12507 -0.520113
vt -1.27292 -0.507729
vt 0.84602 0.768448
vt 0.8402 0.7398
vt 0.852813 0.764484
vt 0.838989 0.764565
vt 0.8402 0.7398
vt 0.838989 0.764565
vt 0.829781 0.7567
vt 0.8402 0.7398
vt 0.829781 0.7567
vt 0.820434 0.751099
vt 0.820434 0.751099
vt 0.819296 0.735147
vt 0.8402 0.7398
vt 0.808483 0.742544
vt -1.08848 0.213478
vt -0.987925 0.201261
vt -1.07171 0.0693733
vt -0.967543 0.233347
vt 0.779607 0.880954
vt 0.799004 0.848262
vt 0.615805 0.759432
vt 0.598324 0.864613
vt 0.63779 0.923184
vt 0.699881 1.01533
vt 0.826168 0.730446
vt 0.826168 0.730446
vt 0.8615 0.7335
vt 0.8402 0.7398
vt 0.838598 0.729176
vt 0.838598 0.729176
vt 0.829506 0.703549
vt 0.8615 0.7335
vt 0.82492 0.712737
vt 0.829506 0.703549
vt 0.82492 0.712737
vt 0.82106 0.707463
vt 0.322197 0.9221
vt 0.403197 0.927292
vt 0.323755 0.870123
vt 0.318765 0.866532
vt 0.278074 0.83725
vt 0.13694 0.897735
vt 0.848551 0.696278
vt 0.852265 0.69486
vt 0.852265 0.69486
vt 0.869515 0.693014
vt 0.478449 -0.660904
vt 0.443447 -0.673317
vt 0.43247 -0.661404
vt 0.44705 -0.621087
vt 0.473323 -0.548442
vt 0.685752 -0.587389
vt 0.485699 -0.514221
vt 0.491622 -0.497842
vt 0.504189 -0.497174
vt 0.595069 -0.492348
vt 0.753555 -0.560869
vt 0.623563 -0.490835
vt 0.707953 -0.532251
vt 0.746913 -0.551371
vt 0.758546 -0.558917
vt 0.756189 -0.555923
vt 0.756486 -0.556069
vt 0.756979 -0.556311
vt 0.758935 -0.557271
vt 0.758974 -0.55729
vt 0.759357 -0.557478
vt 0.76246 -0.559001
vt -0.138775 -0.934698
vt -0.130613 -0.965046
vt -0.139931 -0.937956
vt -0.138633 -0.934296
vt -0.137889 -0.932202
vt -0.137706 -0.931684
vt -0.137595 -0.931372
vt -0.13414 -0.921634
vt -0.0391758 -0.930885
vt -0.0386585 -0.93235
vt -0.0329586 -0.948483
vt 0.697133 0.608128
vt 0.681479 0.601219
vt 0.714725 0.615893
vt 0.764444 0.637839
vt 0.793539 0.650682
vt 0.890767 0.693597
vt 0.00214483 -1.04785
vt 0.0375471 -1.14805
vt 0.0268219 -1.15483
vt 0.023293 -1.15707
vt 0.0120539 -1.16417
vt 0.00930808 -1.16591
vt -0.00592995 -1.17555
vt -0.00759434 -1.1766
vt -0.022082 -1.18363
vt -0.0391113 -1.1729
vt -0.058169 -1.16089
vt -0.07494 -1.15032
vt -0.0759306 -1.14969
vt -0.166165 -1.03846
vt -0.170974 -1.08979
vt -0.165636 -1.03283
vt -0.00844925 -1.01786
vt -0.152697 -1.00778
vt -0.133292 -0.970231
vt -0.0265529 -0.966615
vt -1.12638 -0.5402
vt -1.12651 -0.542188
vt -1.03308 0.489405
vt -0.88747 0.451723
vt -1.07339 0.430223
vt -0.883856 0.437014
vt -0.883387 0.435101
vt -1.08648 0.321899
vt -0.879085 0.417593
vt -0.87831 0.414438
vt -0.875137 0.401524
vt -0.874141 0.397469
vt -0.871114 0.385146
vt -0.0203966 -1.18469
vt 0.680058 0.600592
vt 0.633349 0.579974
vt 0.626163 0.576803
vt 0.622344 0.575117
vt 0.563936 0.549336
vt 0.517048 0.538328
vt 0.410713 0.721756
vt 0.41291 0.591065
vt 0.426492 0.529259
vt 0.413853 0.534965
vt 0.413883 0.533222
vt 0.125024 0.72711
vt 0.100814 0.892983
vt 0.126439 0.728128
vt 0.106294 0.73372
vt 0.120788 0.724062
vt 0.413971 0.528005
vt 0.0760104 0.753898
vt 0.011724 0.796732
vt -0.0159476 0.841749
vt 0.866687 0.691538
vt -0.998671 -0.395222
vt -1.01236 -0.371688
vt -0.991517 -0.380689
vt -0.0239539 0.820505
vt 0.171981 0.760901
vt 0.409871 0.771881
vt 0.461059 0.854639
vt 0.409767 0.778027
vt 0.408122 0.875888
vt 0.545439 0.541172
vt -0.0881929 -0.79214
vt -0.081458 -0.811203
vt -0.119628 -0.880734
vt -0.0601905 -0.871402
vt -0.0587999 -0.875338
vt -0.0561836 -0.882744
vn 0.860628 0.252607 -0.442164
vn 0.860629 0.252607 -0.442163
vn 0.860629 0.252606 -0.442163
vn 0.825326 0.293561 -0.482347
vn 0.825326 0.293561 -0.482347
vn 0.825327 0.293557 -0.482347
vn 0.825325 0.293564 -0.482348
vn 0.885354 -0.0626657 -0.460675
vn 0.885354 -0.0626657 -0.460675
vn 0.885354 -0.0626563 -0.460676
vn 0.885354 -0.0626751 -0.460675
vn 0.534127 -0.54204 -0.648768
vn 0.534126 -0.542043 -0.648767
vn 0.534124 -0.542046 -0.648766
vn 0.534127 -0.542041 -0.648768
vn 0.534124 -0.542046 -0.648766
vn 0.534125 -0.542045 -0.648767
vn 0.71085 -0.279133 -0.645582
vn 0.71085 -0.279132 -0.645583
vn 0.710849 -0.27913 -0.645585
vn 0.710851 -0.279133 -0.645582
vn 0.71085 -0.279131 -0.645584
vn -0.171441 0.836349 -0.520699
vn -0.171438 0.836363 -0.520678
vn -0.171436 0.83637 -0.520668
vn -0.17144 0.836352 -0.520696
vn -0.171435 0.836373 -0.520663
vn -0.171437 0.83637 -0.520668
vn -0.171435 0.836373 -0.520663
vn 0.565782 -0.350808 -0.746206
vn 0.565782 -0.350808 -0.746206
vn 0.565778 -0.350809 -0.746209
vn 0.565787 -0.350808 -0.746203
vn 0.850736 -0.377002 -0.366221
vn 0.850736 -0.377002 -0.366221
vn 0.850736 -0.377002 -0.366221
vn 0.866385 -0.413951 -0.279325
vn 0.866385 -0.413951 -0.279325
vn 0.866385 -0.413951 -0.279325
vn 0.83729 -0.510544 -0.195679
vn 0.837292 -0.510541 -0.195678
vn 0.837294 -0.510539 -0.195675
vn 0.837289 -0.510545 -0.195683
vn 0.136922 0.839598 0.525669
vn 0.136924 0.839598 0.525668
vn 0.136924 0.839599 0.525667
vn 0.136928 0.839599 0.525665
vn -0.793423 -0.0193822 0.608361
vn -0.793424 -0.0193818 0.608361
vn -0.793424 -0.0193796 0.608361
vn -0.793423 -0.0193819 0.608362
vn -0.793424 -0.0193825 0.608361
vn -0.793425 -0.0193832 0.608359
vn 0.837297 -0.510534 -0.195675
vn 0.338908 -0.833412 -0.43654
vn 0.338908 -0.833412 -0.43654
vn 0.33891 -0.83341 -0.43654
vn 0.338905 -0.833413 -0.436539
vn 0.93926 0.258622 -0.225622
vn 0.93926 0.258621 -0.225624
vn 0.93926 0.25862 -0.225624
vn 0.93926 0.258623 -0.225621
vn 0.966043 0.201075 -0.162264
vn 0.966043 0.201075 -0.162264
vn 0.966043 0.201075 -0.162264
vn -0.301699 -0.929583 0.211785
vn -0.301698 -0.929582 0.21179
vn -0.301699 -0.929585 0.211777
vn -0.3017 -0.929584 0.211779
vn -0.3017 -0.929581 0.211792
vn -0.3017 -0.929582 0.21179
vn 0.93926 0.258619 -0.225624
vn 0.939261 0.25862 -0.225621
vn 0.860629 0.252607 -0.442163
vn 0.860629 0.252607 -0.442163
vn -0.845072 0.0866725 -0.52758
vn -0.845072 0.0866734 -0.52758
vn -0.845073 0.0866734 -0.527579
vn -0.845073 0.0866718 -0.52758
vn -0.845072 0.086672 -0.527581
vn -0.845073 0.0866739 -0.527579
vn -0.845072 0.0866732 -0.52758
vn -0.845075 0.0866756 -0.527575
vn -0.845075 0.0866748 -0.527576
vn -0.845073 0.0866739 -0.527579
vn -0.845071 0.0866726 -0.527582
vn -0.845069 0.0866694 -0.527587
vn -0.845068 0.0866697 -0.527588
vn -0.845075 0.0866776 -0.527576
vn -0.845061 0.0866404 -0.527604
vn -0.845079 0.0866829 -0.527568
vn -0.845031 0.0865632 -0.527664
vn -0.845045 0.0866199 -0.527632
vn -0.845059 0.0866766 -0.527601
vn -0.845075 0.0865861 -0.527589
vn -0.845062 0.0866229 -0.527605
vn -0.845048 0.0866598 -0.527621
vn -0.954126 0.280006 -0.106024
vn -0.954148 0.279981 -0.105891
vn -0.954156 0.279967 -0.105855
vn -0.954123 0.280009 -0.106034
vn -0.954159 0.279966 -0.10583
vn -0.954166 0.279958 -0.105785
vn -0.954152 0.279972 -0.105874
vn -0.954153 0.279972 -0.105869
vn -0.95415 0.279984 -0.105863
vn -0.954149 0.279987 -0.105861
vn -0.954154 0.279969 -0.105869
vn -0.793426 -0.0193837 0.608358
vn -0.793421 -0.0193626 0.608366
vn -0.793425 -0.0193829 0.608359
vn -0.793424 -0.0193816 0.60836
vn -0.793424 -0.0193823 0.608361
vn -0.793424 -0.0193824 0.608361
vn -0.954153 0.279964 -0.105884
vn -0.954152 0.279973 -0.105876
vn -0.954153 0.279972 -0.105871
vn -0.954151 0.279973 -0.105878
vn -0.954167 0.279968 -0.105748
vn -0.954169 0.279964 -0.105739
vn -0.954139 0.279952 -0.106044
vn -0.954141 0.27997 -0.105983
vn -0.95415 0.279982 -0.105867
vn -0.954153 0.279973 -0.105868
vn -0.954152 0.27998 -0.105856
vn -0.95416 0.279929 -0.10592
vn -0.954158 0.279937 -0.10591
vn -0.954151 0.279978 -0.105868
vn -0.954154 0.27997 -0.105868
vn -0.954151 0.279978 -0.105868
vn -0.954153 0.279971 -0.105867
vn -0.954153 0.279971 -0.105867
vn -0.954153 0.279972 -0.105867
vn -0.954153 0.279972 -0.105868
vn -0.171434 0.836374 -0.520662
vn -0.171432 0.836381 -0.520652
vn 0.136925 0.839598 0.525668
vn 0.136925 0.839597 0.525669
vn 0.136924 0.839594 0.525675
vn 0.136924 0.839589 0.525683
vn 0.136924 0.839593 0.525676
vn 0.136931 0.839606 0.525654
vn 0.136937 0.839613 0.525642
vn 0.13693 0.839607 0.525653
vn 0.136917 0.839596 0.525673
vn 0.136926 0.839599 0.525665
vn 0.136935 0.839602 0.52566
vn -0.954145 0.280001 -0.105859
vn -0.793421 -0.0193629 0.608366
vn -0.793425 -0.0193789 0.608359
vn -0.793425 -0.0193784 0.608359
vn -0.793425 -0.0193826 0.608359
vn -0.793422 -0.0193834 0.608363
vn -0.793423 -0.0193833 0.608362
vn -0.793424 -0.0193835 0.608361
vn -0.793424 -0.019382 0.60836
vn -0.793426 -0.019385 0.608357
vn -0.793434 -0.0193885 0.608348
vn -0.793429 -0.019388 0.608355
vn -0.3017 -0.929582 0.211791
vn -0.301699 -0.929582 0.21179
vn -0.3017 -0.929582 0.21179
vn -0.3017 -0.929581 0.211791
vn -0.301701 -0.929581 0.21179
vn -0.793414 -0.0193805 0.608374
vn -0.301699 -0.929582 0.211791
vn -0.301698 -0.929582 0.211791
vn -0.301698 -0.929582 0.211792
vn 0.860628 0.252609 -0.442162
vn 0.103694 -0.693462 -0.712992
vn 0.103694 -0.693462 -0.712992
vn 0.103694 -0.693462 -0.712992
vn -0.301697 -0.929582 0.211793
vn -0.3017 -0.929582 0.211791
vn -0.793435 -0.0193577 0.608347
vn -0.793436 -0.0193575 0.608347
vn -0.79344 -0.019344 0.608341
vn -0.793423 -0.0193839 0.608361
vn -0.793417 -0.0193855 0.60837
vn -0.954153 0.27997 -0.105869
vn -0.954153 0.279971 -0.105868
vn -0.954153 0.279971 -0.105867
vn -0.954153 0.279973 -0.105866
vn -0.954154 0.27997 -0.105866
vn -0.954153 0.279971 -0.105867
f 1/1/1 2/2/2 3/3/3 
f 4/4/4 5/5/5 6/6/6 
f 7/7/7 5/5/5 4/4/4 
f 8/8/8 9/9/9 10/10/10 
f 11/11/11 9/9/9 8/8/8 
f 12/12/12 13/13/13 14/14/14 
f 15/15/15 13/13/13 12/12/12 
f 16/16/16 13/13/13 15/15/15 
f 17/17/17 13/13/13 16/16/16 
f 18/18/18 19/19/19 20/20/20 
f 21/21/21 19/19/19 18/18/18 
f 22/22/22 19/19/19 21/21/21 
f 23/23/23 24/24/24 25/25/25 
f 26/26/26 24/24/24 23/23/23 
f 27/27/27 24/24/24 26/26/26 
f 24/24/24 27/27/27 28/28/28 
f 24/24/24 28/28/28 29/29/29 
f 30/30/30 31/31/31 32/32/32 
f 33/33/33 31/31/31 30/30/30 
f 34/34/34 35/35/35 36/36/36 
f 37/37/37 38/38/38 39/39/39 
f 40/40/40 41/41/41 42/42/42 
f 40/40/40 43/43/43 41/41/41 
f 44/44/44 45/45/45 46/46/46 
f 45/45/45 44/44/44 47/47/47 
f 48/48/48 49/49/49 50/50/50 
f 51/51/51 48/48/48 50/50/50 
f 52/52/52 48/48/48 51/51/51 
f 53/53/53 48/48/48 52/52/52 
f 42/42/42 41/41/41 54/54/54 
f 55/55/55 56/56/56 57/57/57 
f 58/58/58 56/56/56 55/55/55 
f 59/59/59 60/60/60 61/61/61 
f 62/62/62 60/60/60 59/59/59 
f 63/63/63 64/64/64 65/65/65 
f 66/66/66 67/67/67 68/68/68 
f 66/66/66 68/68/68 69/69/69 
f 66/66/66 69/69/69 70/70/70 
f 66/66/66 70/70/70 71/71/71 
f 72/72/72 61/61/61 60/60/60 
f 73/73/73 61/61/61 72/72/72 
f 3/3/3 2/2/2 74/74/74 
f 3/3/3 74/74/74 75/75/75 
f 76/76/76 77/77/77 78/78/78 
f 79/79/79 76/76/76 78/78/78 
f 80/80/80 76/76/76 79/79/79 
f 80/80/80 81/81/81 76/76/76 
f 82/82/82 81/81/81 80/80/80 
f 83/83/83 81/81/81 82/82/82 
f 84/84/84 81/81/81 83/83/83 
f 85/85/85 81/81/81 84/84/84 
f 85/85/85 86/86/86 81/81/81 
f 87/87/87 86/86/86 85/85/85 
f 88/88/88 86/86/86 87/87/87 
f 86/86/86 88/88/88 89/89/89 
f 89/89/89 90/90/90 86/86/86 
f 91/91/91 90/90/90 89/89/89 
f 92/92/92 90/90/90 91/91/91 
f 93/93/93 90/90/90 92/92/92 
f 90/90/90 93/93/93 94/94/94 
f 95/95/95 90/90/90 94/94/94 
f 96/96/96 90/90/90 95/95/95 
f 90/90/90 96/96/96 97/97/97 
f 98/98/98 99/99/99 100/100/100 
f 101/101/101 99/99/99 98/98/98 
f 102/102/102 99/99/99 101/101/101 
f 99/99/99 102/102/102 103/103/103 
f 99/99/99 103/103/103 104/104/104 
f 104/104/104 105/105/105 99/99/99 
f 106/106/106 99/99/99 105/105/105 
f 107/107/107 99/99/99 106/106/106 
f 107/107/107 108/108/108 99/99/99 
f 50/50/50 109/109/109 110/110/110 
f 50/50/50 111/111/111 109/109/109 
f 50/50/50 112/112/112 111/111/111 
f 49/49/49 112/112/112 50/50/50 
f 49/49/49 113/113/113 112/112/112 
f 113/113/113 49/49/49 114/114/114 
f 115/115/115 116/116/116 117/117/117 
f 115/115/115 117/117/117 118/118/118 
f 115/115/115 118/118/118 119/119/119 
f 115/115/115 119/119/119 120/120/120 
f 115/115/115 120/120/120 121/121/121 
f 115/115/115 121/121/121 122/122/122 
f 123/123/123 115/115/115 122/122/122 
f 115/115/115 123/123/123 124/124/124 
f 115/115/115 124/124/124 125/125/125 
f 115/115/115 125/125/125 126/126/126 
f 115/115/115 126/126/126 127/127/127 
f 127/127/127 128/128/128 115/115/115 
f 128/128/128 127/127/127 129/129/129 
f 115/115/115 128/128/128 130/130/130 
f 131/131/131 115/115/115 130/130/130 
f 132/132/132 131/131/131 130/130/130 
f 133/133/133 131/131/131 132/132/132 
f 134/134/134 131/131/131 133/133/133 
f 99/99/99 134/134/134 133/133/133 
f 108/108/108 134/134/134 99/99/99 
f 29/29/29 28/28/28 135/135/135 
f 29/29/29 135/135/135 136/136/136 
f 137/137/137 138/138/138 139/139/139 
f 139/139/139 138/138/138 140/140/140 
f 139/139/139 140/140/140 141/141/141 
f 141/141/141 142/142/142 139/139/139 
f 143/143/143 142/142/142 141/141/141 
f 144/144/144 142/142/142 143/143/143 
f 144/144/144 44/44/44 142/142/142 
f 145/145/145 44/44/44 144/144/144 
f 146/146/146 44/44/44 145/145/145 
f 146/146/146 47/47/47 44/44/44 
f 147/147/147 47/47/47 146/146/146 
f 148/148/148 123/123/123 122/122/122 
f 50/50/50 110/110/110 149/149/149 
f 50/50/50 149/149/149 150/150/150 
f 50/50/50 150/150/150 151/151/151 
f 50/50/50 151/151/151 152/152/152 
f 50/50/50 152/152/152 153/153/153 
f 50/50/50 153/153/153 154/154/154 
f 154/154/154 155/155/155 50/50/50 
f 154/154/154 156/156/156 155/155/155 
f 154/154/154 157/157/157 156/156/156 
f 157/157/157 158/158/158 156/156/156 
f 158/158/158 157/157/157 159/159/159 
f 160/160/160 161/161/161 162/162/162 
f 160/160/160 163/163/163 161/161/161 
f 164/164/164 163/163/163 160/160/160 
f 159/159/159 157/157/157 165/165/165 
f 161/161/161 163/163/163 166/166/166 
f 161/161/161 166/166/166 167/167/167 
f 161/161/161 167/167/167 168/168/168 
f 75/75/75 74/74/74 169/169/169 
f 170/170/170 171/171/171 172/172/172 
f 168/168/168 167/167/167 173/173/173 
f 162/162/162 161/161/161 71/71/71 
f 71/71/71 174/174/174 162/162/162 
f 71/71/71 70/70/70 174/174/174 
f 50/50/50 155/155/155 175/175/175 
f 176/176/176 50/50/50 175/175/175 
f 177/177/177 176/176/176 175/175/175 
f 178/178/178 176/176/176 177/177/177 
f 154/154/154 153/153/153 179/179/179 
f 180/180/180 181/181/181 182/182/182 
f 181/181/181 183/183/183 182/182/182 
f 183/183/183 184/184/184 182/182/182 
f 184/184/184 185/185/185 182/182/182 
f 182/182/182 185/185/185 105/105/105 
f 185/185/185 106/106/106 105/105/105 
