v 1.05122 1.33398 -0.194277
v 1.0648 1.33028 -0.183143
v 0.974913 1.25233 -0.256342
v 1.0648 1.33028 -0.183143
v 1.05122 1.33398 -0.194277
v 1.05077 1.33404 -0.191465
v 1.05076 1.33404 -0.191369
v 1.04993 1.33416 -0.1861
v 1.04912 1.33428 -0.180994
v 1.04873 1.33434 -0.178546
v 1.04797 1.33445 -0.173685
v 1.17574 1.29868 -0.0110661
v 1.02658 1.33758 -0.0380779
v 1.02658 1.33758 -0.038078
v 1.04797 1.33445 -0.173685
v 1.01203 1.3258 -0.0276829
v 1.02658 1.33758 -0.038078
v 1.01203 1.3258 -0.027683
v 1.07759 1.28855 0.0182421
v 1.07838 1.28888 0.0179949
v 1.0951 1.29588 0.0127555
v 1.12958 1.31034 0.0019494
v 1.12958 1.31034 0.00194949
v 1.12958 1.31034 0.00194958
v 1.1872 1.24592 -0.0119648
v 1.17574 1.29868 -0.0110661
v 1.0951 1.29588 0.0127557
v 1.07838 1.28888 0.017995
v 1.18722 1.24441 -0.0119013
v 1.07759 1.28855 0.0182422
v 0.979575 1.24746 0.048957
v 0.9691 1.24307 0.0522395
v 1.18834 1.17378 -0.00892388
v 1.0615 1.2118 -0.1853
v 1.18722 1.24441 -0.0119014
v 1.18834 1.17378 -0.00892391
v 1.0648 1.33028 -0.183143
v 1.1872 1.24592 -0.0119648
v 1.18641 1.29598 -0.0140752
v 1.18641 1.29598 -0.0140752
v 1.18641 1.29598 -0.0140751
v 1.0615 1.2118 -0.1853
v 0.952585 1.22844 -0.274504
v 0.952585 1.22844 -0.274504
v 1.0615 1.2118 -0.1853
v 0.88683 1.16279 -0.300284
v 0.852347 1.13662 -0.265236
v 0.952585 1.22844 -0.274504
v 0.88683 1.16279 -0.300285
v 0.858041 1.14741 -0.233014
v 0.861724 1.15438 -0.212168
v 0.974913 1.25233 -0.256342
v 0.863918 1.15854 -0.199754
v 0.865086 1.16075 -0.193143
v 0.866143 1.16275 -0.18716
v 0.907524 1.24112 0.0470245
v 0.910385 1.24344 0.044979
v 0.991483 1.30915 -0.0129926
v 0.991483 1.30915 -0.0129927
v 0.979575 1.24746 0.048957
v 0.9691 1.24307 0.0522393
v 0.910385 1.24344 0.0449789
v 0.947678 1.23409 0.0589527
v 0.944901 1.23292 0.0598228
v 0.944782 1.23287 0.0598601
v 0.912912 1.23281 0.0561978
v 0.93082 1.22702 0.0642355
v 0.915094 1.22943 0.0599129
v 0.912912 1.23281 0.0561979
v 0.927834 1.19667 0.0665323
v 0.915094 1.22943 0.059913
v 0.866143 1.16275 -0.18716
v 1.00332 0.958872 0.0554805
v 1.00332 0.958872 0.0554805
v 1.15408 0.941426 0.0120069
v 0.927834 1.19667 0.0665323
v 1.00984 0.938329 0.0545258
v 1.00931 0.933916 0.0476106
v 1.15408 0.941426 0.0120069
v 1.00984 0.938329 0.0545257
v 1.09469 0.910323 -0.0184012
v 1.00736 0.917602 0.022046
v 1.00661 0.911339 0.012232
v 1.00563 0.903088 -0.000696525
v 1.00415 0.890699 -0.0201092
v 0.998416 0.842775 -0.0952058
v 0.96974 0.88585 -0.145405
v 1.09469 0.910322 -0.0184012
v 0.998416 0.842775 -0.0952058
v 1.0615 1.2118 -0.1853
v 0.962886 0.896145 -0.157403
v 0.920833 0.959315 -0.23102
v 0.882432 1.0366 -0.275679
v 1.0615 1.2118 -0.1853
v 0.920833 0.959315 -0.23102
v 0.880057 1.04138 -0.278441
v 0.865005 1.07167 -0.295946
v 0.844523 1.1129 -0.319767
v 0.88683 1.16279 -0.300284
v 0.842243 1.11749 -0.322418
v 0.845482 1.12362 -0.304087
v 0.842243 1.11749 -0.322418
v 0.849285 1.13082 -0.282567
v 0.852347 1.13662 -0.265236
v 0.849285 1.13082 -0.282567
v 0.865005 1.07167 -0.295946
v 0.880057 1.04138 -0.278441
v 0.858041 1.14741 -0.233014
v 0.882432 1.0366 -0.275679
v 0.861724 1.15438 -0.212168
v 0.863918 1.15854 -0.199754
v 0.920833 0.959315 -0.23102
v 0.865086 1.16075 -0.193143
v 0.962886 0.896145 -0.157403
v 1.00563 0.903088 -0.000696525
v 1.00661 0.911339 0.012232
v 1.00736 0.917602 0.022046
v 1.00931 0.933916 0.0476106
v 1.00984 0.938329 0.0545258
v 1.00415 0.890699 -0.0201092
v 0.96974 0.88585 -0.145405
v 0.998416 0.842775 -0.0952058
v 0.845482 1.12362 -0.304087
v 0.844523 1.1129 -0.319767
v 0.842243 1.11749 -0.322418
v 1.18709 1.02343 -0.0015237
v 1.09469 0.910322 -0.0184012
v 1.0615 1.2118 -0.1853
v 1.15408 0.941426 0.0120069
v 0.922288 1.21414 0.0673442
v 1.18709 1.02343 -0.00152369
v 0.922288 1.21414 0.0673442
v 0.919683 1.22235 0.0677257
v 0.926997 1.22542 0.0654337
v 0.919683 1.22235 0.0677257
v 0.93082 1.22702 0.0642356
v 0.926997 1.22542 0.0654336
v 0.919683 1.22235 0.0677256
v 0.944782 1.23287 0.0598602
v 1.18835 1.17322 -0.0089002
v 0.944806 1.23288 0.0598527
v 0.944901 1.23292 0.0598229
v 0.947678 1.23409 0.0589528
v 1.18835 1.17322 -0.00890027
v 1.0615 1.2118 -0.1853
v 1.18835 1.17322 -0.00890027
v 1.19714 1.04842 -0.00564678
v 1.19714 1.04842 -0.00564678
v 1.19714 1.04842 -0.00564671
v 0.907524 1.24112 0.0470245
v 0.907524 1.24112 0.0470244
v 1.04873 1.33434 -0.178546
v 1.04912 1.33428 -0.180994
v 1.04993 1.33416 -0.1861
v 1.05076 1.33404 -0.191369
v 1.05122 1.33398 -0.194277
vt 0.870049 0.813104
vt 0.868126 0.812298
vt 0.882402 0.805966
vt -0.209568 -0.699312
vt -0.220704 -0.685234
vt -0.217892 -0.684789
vt -0.217796 -0.684774
vt -0.212527 -0.683938
vt -0.207419 -0.683129
vt -0.204971 -0.682741
vt -0.200109 -0.68197
vt -0.0374669 -0.814628
vt -0.0644826 -0.660476
vt -0.00336624 -1.66289
vt -0.140018 -1.67641
vt 0.00710893 -1.64423
vt -1.09903 0.960481
vt -1.08444 0.944814
vt -1.15021 0.885925
vt -1.151 0.886333
vt -1.16777 0.894976
vt -1.20237 0.912803
vt -0.0244494 -0.767016
vt 1.29466 1.08323
vt 1.23018 1.14244
vt 1.28299 1.13119
vt 1.28019 1.0471
vt 1.27318 1.02958
vt 1.22867 1.14245
vt 1.27285 1.02876
vt 1.23172 0.926061
vt 1.22732 0.915086
vt 1.15796 1.14267
vt 0.8704 0.7989
vt 0.844917 0.802002
vt 0.845659 0.794
vt 0.868126 0.812298
vt 0.844901 0.802173
vt 0.844374 0.807845
vt -0.0404764 -0.825636
vt 1.28029 1.14228
vt 0.8704 0.7989
vt 0.886017 0.803877
vt 0.886017 0.803877
vt 0.8704 0.7989
vt 0.894005 0.79492
vt -0.232275 -1.39843
vt -0.241615 -1.53436
vt -0.267594 -1.4415
vt -0.199805 -1.40995
vt -0.178798 -1.4174
vt -0.223312 -1.56699
vt -0.166288 -1.42184
vt -0.159626 -1.4242
vt -0.153597 -1.42634
vt 0.0823922 -1.51004
vt 0.0803309 -1.51371
vt 0.0219125 -1.61784
vt -1.06382 0.922674
vt -1.05187 0.835254
vt -1.04136 0.829839
vt -0.982448 0.835302
vt -1.01987 0.818764
vt -1.01708 0.817328
vt -1.01696 0.817267
vt -0.984983 0.819843
vt -1.00295 0.810049
vt -0.987172 0.814831
vt 0.384285 -0.883729
vt 0.394997 -0.844739
vt 0.388136 -0.879845
vt 0.132031 -0.83191
vt 0.383541 -0.595264
vt 0.942843 0.947004
vt 0.925379 1.10391
vt 1.18088 0.871464
vt 0.922279 0.95353
vt -1.12598 0.533985
vt -1.27292 0.507729
vt -1.12651 0.542188
vt -1.21264 0.465476
vt -1.124 0.503661
vt -1.12324 0.492019
vt -1.12224 0.476683
vt -1.12073 0.453656
vt -1.11492 0.364576
vt 0.874831 0.757852
vt 0.852813 0.764484
vt 0.867922 0.753654
vt 0.8704 0.7989
vt 0.876482 0.758855
vt 0.886614 0.765011
vt 0.892959 0.77682
vt 0.8704 0.7989
vt 0.886614 0.765011
vt 0.893351 0.777551
vt 0.895839 0.78218
vt 0.899223 0.788478
vt 0.894005 0.79492
vt 0.8996 0.78918
vt -0.271425 -1.38455
vt -0.289898 -1.378
vt -0.24974 -1.39224
vt 0.0511002 -0.811436
vt 0.0331352 -0.806891
vt 0.0192671 -0.745797
vt 0.0374117 -0.712309
vt 0.0844994 -0.819885
vt 0.0402751 -0.707025
vt 0.106107 -0.825351
vt 0.118976 -0.828607
vt 0.0865663 -0.621589
vt 0.125829 -0.830341
vt 0.162875 -0.548408
vt 0.32531 -0.541577
vt 0.338712 -0.5491
vt 0.348884 -0.554811
vt 0.375383 -0.569688
vt 0.382551 -0.573712
vt 0.305188 -0.53028
vt 0.175311 -0.536481
vt 0.227346 -0.48658
vt 0.0108286 -0.801248
vt -0.00542439 -0.791368
vt -0.00817276 -0.796441
vt 0.845044 0.778086
vt 0.852813 0.764484
vt 0.8704 0.7989
vt 0.84602 0.768448
vt 1.19837 0.865914
vt 1.00747 1.13939
vt 0.395839 -0.863067
vt 0.396234 -0.871677
vt 1.20966 0.87097
vt 1.20659 0.863307
vt 1.21126 0.874977
vt -0.999115 0.808072
vt -0.991777 0.804291
vt 1.21712 0.889606
vt 1.1574 1.14268
vt 1.21713 0.889631
vt 1.21717 0.88973
vt 1.21833 0.89264
vt 0.845665 0.793936
vt 0.8704 0.7989
vt 0.845665 0.793936
vt 0.844747 0.781023
vt 0.844747 0.781023
vt 1.03248 1.1502
vt 0.374776 -0.893319
vt -0.979577 0.832219
vt -0.144916 -1.6769
vt -0.147383 -1.67714
vt -0.152529 -1.67765
vt -0.157839 -1.67818
vt -0.160769 -1.67847
vn 0.633305 -0.00356601 -0.773894
vn 0.633302 -0.00355966 -0.773896
vn 0.633301 -0.00355748 -0.773897
vn 0.249425 0.968244 0.0170344
vn 0.249411 0.968248 0.0170155
vn 0.249411 0.968248 0.0170155
vn 0.249448 0.96824 0.0169331
vn 0.249442 0.968241 0.0169653
vn 0.249447 0.968238 0.0170849
vn 0.249443 0.968238 0.0171169
vn 0.249415 0.968247 0.0170356
vn 0.249403 0.96825 0.0170287
vn 0.249409 0.968249 0.0170268
vn -0.676481 0.72604 -0.123446
vn -0.676465 0.726055 -0.123449
vn -0.676469 0.726053 -0.123442
vn -0.0814746 0.714 0.695389
vn -0.0814223 0.714032 0.695363
vn -0.0814773 0.714 0.695388
vn -0.0815207 0.713977 0.695408
vn -0.081409 0.714034 0.695361
vn -0.0814237 0.714023 0.695372
vn 0.249408 0.968249 0.0170315
vn 0.281575 0.0448393 0.958491
vn 0.281561 0.0448099 0.958496
vn 0.281566 0.0448363 0.958494
vn 0.281575 0.0448381 0.958491
vn 0.281549 0.0447652 0.958502
vn 0.281559 0.0447909 0.958498
vn 0.281561 0.0447954 0.958497
vn 0.281574 0.0448296 0.958492
vn 0.281573 0.0448314 0.958492
vn 0.281583 0.0448795 0.958487
vn 0.810605 -0.0118077 -0.585474
vn 0.810564 -0.0120378 -0.585527
vn 0.810612 -0.0117499 -0.585466
vn 0.810563 -0.0120389 -0.585527
vn 0.810549 -0.0120966 -0.585546
vn 0.810592 -0.0119225 -0.585491
vn 0.249387 0.968254 0.0170378
vn 0.281558 0.0448346 0.958496
vn 0.633299 -0.00355321 -0.773899
vn 0.633299 -0.00355312 -0.773899
vn 0.581502 -0.282907 -0.76277
vn 0.581502 -0.282907 -0.76277
vn 0.581502 -0.282907 -0.76277
vn -0.676472 0.72605 -0.123442
vn -0.676472 0.726048 -0.12345
vn -0.676469 0.726052 -0.12344
vn -0.676473 0.726046 -0.123457
vn -0.676469 0.726052 -0.123442
vn -0.676467 0.726054 -0.123439
vn -0.676473 0.726047 -0.123453
vn -0.676472 0.726047 -0.123457
vn -0.676466 0.726057 -0.123431
vn -0.676443 0.726078 -0.123438
vn -0.676443 0.726077 -0.123437
vn -0.676465 0.726056 -0.123442
vn -0.0814182 0.714033 0.695362
vn -0.0814184 0.71403 0.695365
vn -0.0814231 0.714028 0.695366
vn -0.0814112 0.714034 0.695362
vn -0.0814297 0.714016 0.695377
vn -0.0814338 0.71401 0.695384
vn -0.0814076 0.714031 0.695365
vn -0.0814163 0.714008 0.695387
vn -0.0814454 0.71398 0.695413
vn -0.0814493 0.713988 0.695404
vn -0.915926 -0.302985 0.263211
vn -0.915923 -0.302982 0.263225
vn -0.915923 -0.302995 0.263211
vn -0.915922 -0.302976 0.263234
vn -0.915925 -0.302977 0.263224
vn 0.281573 0.044833 0.958492
vn 0.281572 0.0448329 0.958492
vn 0.281572 0.0448332 0.958492
vn 0.281572 0.0448323 0.958492
vn 0.171436 -0.836369 0.520669
vn 0.171436 -0.836369 0.52067
vn 0.171437 -0.836366 0.520674
vn 0.171436 -0.83637 0.520667
vn 0.171434 -0.836373 0.520664
vn 0.171435 -0.836371 0.520667
vn 0.171437 -0.836368 0.520671
vn 0.171436 -0.83637 0.520667
vn 0.171436 -0.83637 0.520668
vn 0.71085 -0.279131 -0.645583
vn 0.710849 -0.279131 -0.645584
vn 0.71085 -0.27913 -0.645585
vn 0.71085 -0.279132 -0.645583
vn 0.71085 -0.279132 -0.645583
vn 0.710848 -0.279131 -0.645585
vn 0.575222 -0.175808 -0.798881
vn 0.575224 -0.175811 -0.798879
vn 0.575224 -0.175813 -0.798879
vn 0.575222 -0.17581 -0.798881
vn 0.575225 -0.175814 -0.798878
vn 0.575224 -0.175811 -0.798879
vn 0.575224 -0.17581 -0.79888
vn 0.575223 -0.175809 -0.79888
vn -0.676467 0.726055 -0.12344
vn -0.676464 0.726054 -0.123457
vn -0.676471 0.726052 -0.123432
vn -0.915921 -0.302978 0.263237
vn -0.915923 -0.302976 0.26323
vn -0.915922 -0.302975 0.263237
vn -0.915924 -0.302976 0.263229
vn -0.915923 -0.302977 0.263232
vn -0.915925 -0.302973 0.263226
vn -0.915924 -0.302973 0.26323
vn -0.915923 -0.302973 0.263236
vn -0.91592 -0.302977 0.26324
vn -0.915919 -0.302977 0.263244
vn -0.91592 -0.30298 0.263237
vn -0.915932 -0.302964 0.263215
vn -0.915932 -0.30296 0.263217
vn -0.915905 -0.303001 0.263265
vn -0.915924 -0.30299 0.263211
vn -0.915944 -0.302977 0.263156
vn -0.91592 -0.302979 0.263238
vn -0.915922 -0.302974 0.263238
vn -0.915921 -0.302975 0.263238
vn -0.915925 -0.302966 0.263235
vn -0.915926 -0.302961 0.26324
vn -0.915931 -0.302951 0.263234
vn 0.565782 -0.350808 -0.746207
vn 0.56578 -0.35081 -0.746208
vn 0.565783 -0.350806 -0.746207
vn 0.56578 -0.350811 -0.746207
vn 0.281573 0.0448352 0.958492
vn 0.281572 0.0448341 0.958492
vn -0.915917 -0.302991 0.263236
vn -0.91592 -0.303008 0.263204
vn 0.281572 0.0448345 0.958492
vn 0.281573 0.0448379 0.958492
vn 0.281571 0.0448323 0.958492
vn -0.0814321 0.714025 0.695369
vn -0.0814214 0.714039 0.695355
vn 0.281573 0.0448356 0.958492
vn 0.281585 0.0448905 0.958486
vn nan nan nan
vn 0.281593 0.0449257 0.958482
vn 0.281574 0.0448405 0.958491
vn 0.810631 -0.0115807 -0.585443
vn 0.815532 0.0424347 -0.577154
vn 0.815532 0.0424347 -0.577154
vn 0.815532 0.0424347 -0.577154
vn 0.565786 -0.350803 -0.746206
vn 0.281573 0.0448348 0.958492
vn -0.915922 -0.302974 0.263236
vn -0.0813662 0.714056 0.695345
vn -0.676509 0.726026 -0.123376
vn -0.676485 0.726041 -0.12342
vn -0.676455 0.726061 -0.123465
vn -0.676473 0.726049 -0.123436
vn -0.676442 0.726068 -0.123496
f 1/1/1 2/2/2 3/3/3 
f 4/4/4 5/5/5 6/6/6 
f 7/7/7 4/4/4 6/6/6 
f 8/8/8 4/4/4 7/7/7 
f 4/4/4 8/8/8 9/9/9 
f 4/4/4 9/9/9 10/10/10 
f 11/11/11 4/4/4 10/10/10 
f 11/11/11 12/12/12 4/4/4 
f 11/11/11 13/13/13 12/12/12 
f 14/14/14 15/15/15 16/16/16 
f 17/17/17 18/18/18 19/19/19 
f 20/20/20 17/17/17 19/19/19 
f 21/21/21 17/17/17 20/20/20 
f 22/22/22 17/17/17 21/21/21 
f 12/12/12 13/13/13 23/23/23 
f 24/24/24 25/25/25 26/26/26 
f 27/27/27 25/25/25 24/24/24 
f 25/25/25 27/27/27 28/28/28 
f 28/28/28 29/29/29 25/25/25 
f 30/30/30 29/29/29 28/28/28 
f 31/31/31 29/29/29 30/30/30 
f 32/32/32 29/29/29 31/31/31 
f 29/29/29 32/32/32 33/33/33 
f 34/34/34 35/35/35 36/36/36 
f 37/37/37 35/35/35 34/34/34 
f 37/37/37 38/38/38 35/35/35 
f 37/37/37 39/39/39 38/38/38 
f 4/4/4 12/12/12 40/40/40 
f 41/41/41 26/26/26 25/25/25 
f 3/3/3 2/2/2 42/42/42 
f 42/42/42 43/43/43 3/3/3 
f 44/44/44 45/45/45 46/46/46 
f 47/47/47 48/48/48 49/49/49 
f 50/50/50 48/48/48 47/47/47 
f 51/51/51 48/48/48 50/50/50 
f 51/51/51 52/52/52 48/48/48 
f 53/53/53 52/52/52 51/51/51 
f 54/54/54 52/52/52 53/53/53 
f 52/52/52 54/54/54 55/55/55 
f 56/56/56 52/52/52 55/55/55 
f 57/57/57 52/52/52 56/56/56 
f 52/52/52 57/57/57 58/58/58 
f 58/58/58 15/15/15 52/52/52 
f 16/16/16 15/15/15 58/58/58 
f 18/18/18 59/59/59 19/19/19 
f 59/59/59 60/60/60 19/19/19 
f 59/59/59 61/61/61 60/60/60 
f 62/62/62 61/61/61 59/59/59 
f 62/62/62 63/63/63 61/61/61 
f 62/62/62 64/64/64 63/63/63 
f 62/62/62 65/65/65 64/64/64 
f 65/65/65 62/62/62 66/66/66 
f 66/66/66 67/67/67 65/65/65 
f 66/66/66 68/68/68 67/67/67 
f 69/69/69 70/70/70 71/71/71 
f 70/70/70 69/69/69 72/72/72 
f 73/73/73 70/70/70 72/72/72 
f 74/74/74 75/75/75 76/76/76 
f 77/77/77 75/75/75 74/74/74 
f 78/78/78 79/79/79 80/80/80 
f 78/78/78 81/81/81 79/79/79 
f 82/82/82 81/81/81 78/78/78 
f 83/83/83 81/81/81 82/82/82 
f 84/84/84 81/81/81 83/83/83 
f 81/81/81 84/84/84 85/85/85 
f 86/86/86 81/81/81 85/85/85 
f 87/87/87 88/88/88 89/89/89 
f 87/87/87 90/90/90 88/88/88 
f 91/91/91 90/90/90 87/87/87 
f 92/92/92 90/90/90 91/91/91 
f 93/93/93 94/94/94 95/95/95 
f 96/96/96 94/94/94 93/93/93 
f 97/97/97 94/94/94 96/96/96 
f 94/94/94 97/97/97 98/98/98 
f 98/98/98 99/99/99 94/94/94 
f 100/100/100 99/99/99 98/98/98 
f 101/101/101 49/49/49 102/102/102 
f 103/103/103 49/49/49 101/101/101 
f 49/49/49 103/103/103 47/47/47 
f 104/104/104 105/105/105 106/106/106 
f 107/107/107 104/104/104 106/106/106 
f 108/108/108 104/104/104 107/107/107 
f 108/108/108 107/107/107 109/109/109 
f 110/110/110 108/108/108 109/109/109 
f 111/111/111 110/110/110 109/109/109 
f 109/109/109 112/112/112 111/111/111 
f 112/112/112 113/113/113 111/111/111 
f 112/112/112 72/72/72 113/113/113 
f 112/112/112 114/114/114 72/72/72 
f 73/73/73 72/72/72 114/114/114 
f 73/73/73 114/114/114 115/115/115 
f 116/116/116 73/73/73 115/115/115 
f 117/117/117 73/73/73 116/116/116 
f 118/118/118 73/73/73 117/117/117 
f 119/119/119 73/73/73 118/118/118 
f 115/115/115 114/114/114 120/120/120 
f 120/120/120 114/114/114 121/121/121 
f 122/122/122 120/120/120 121/121/121 
f 106/106/106 105/105/105 123/123/123 
f 124/124/124 106/106/106 123/123/123 
f 124/124/124 123/123/123 125/125/125 
f 126/126/126 127/127/127 128/128/128 
f 129/129/129 127/127/127 126/126/126 
f 130/130/130 75/75/75 131/131/131 
f 76/76/76 75/75/75 130/130/130 
f 71/71/71 70/70/70 132/132/132 
f 132/132/132 133/133/133 71/71/71 
f 130/130/130 134/134/134 135/135/135 
f 131/131/131 134/134/134 130/130/130 
f 134/134/134 131/131/131 136/136/136 
f 67/67/67 68/68/68 137/137/137 
f 137/137/137 68/68/68 138/138/138 
f 136/136/136 131/131/131 139/139/139 
f 139/139/139 131/131/131 140/140/140 
f 140/140/140 141/141/141 139/139/139 
f 140/140/140 142/142/142 141/141/141 
f 33/33/33 142/142/142 140/140/140 
f 33/33/33 143/143/143 142/142/142 
f 33/33/33 32/32/32 143/143/143 
f 34/34/34 36/36/36 144/144/144 
f 145/145/145 146/146/146 147/147/147 
f 126/126/126 128/128/128 148/148/148 
f 149/149/149 140/140/140 131/131/131 
f 72/72/72 69/69/69 150/150/150 
f 62/62/62 151/151/151 66/66/66 
f 15/15/15 152/152/152 52/52/52 
f 152/152/152 153/153/153 52/52/52 
f 153/153/153 154/154/154 52/52/52 
f 154/154/154 155/155/155 52/52/52 
f 155/155/155 156/156/156 52/52/52 
