v 0.869727 -1.60708 -0.769141
v 0.873886 -1.93502 -0.742716
v 0.70805 -1.81671 -0.994687
v 0.827617 -1.90657 -0.603653
v 0.873886 -1.93502 -0.742715
v 0.869727 -1.60708 -0.769141
v 0.832426 -1.91998 -0.616857
v 0.873886 -1.93502 -0.742716
v 0.832426 -1.91998 -0.616857
v 0.70805 -1.81671 -0.994687
v 0.82164 -1.91389 -0.612379
v 0.479012 -1.68041 -0.990608
v 0.81527 -1.9103 -0.609734
v 0.736055 -1.86558 -0.576842
v 0.634844 -1.80845 -0.534818
v 0.551732 -1.75568 -0.576249
v 0.455979 -1.68962 -0.692497
v 0.433685 -1.67424 -0.719563
v 0.358105 -1.6221 -0.811319
v 0.427568 -1.65074 -0.977372
v 0.433896 -1.65335 -0.9925
v 0.479012 -1.68041 -0.990608
v 0.433896 -1.65335 -0.9925
v 0.372392 -1.54502 -0.936058
v 0.334772 -1.47875 -0.901535
v 0.479012 -1.68041 -0.990608
v 0.334773 -1.47875 -0.901535
v 0.639857 -1.77049 -1.06673
v 0.666164 -1.7876 -1.04828
v 0.639857 -1.77049 -1.06673
v 0.667396 -1.7884 -1.04742
v 0.671858 -1.7913 -1.04429
v 0.671858 -1.7913 -1.04429
v 0.843207 -1.18252 -0.800497
v 0.70805 -1.81671 -0.994687
v 0.843207 -1.18252 -0.800497
v 0.671858 -1.7913 -1.04429
v 0.809259 -1.19118 -0.829583
v 0.846734 -1.17493 -0.750039
v 0.843207 -1.18252 -0.800497
v 0.809259 -1.19118 -0.829583
v 0.844395 -1.18213 -0.798854
v 0.844395 -1.18213 -0.798854
v 0.869727 -1.60708 -0.769141
v 0.848605 -1.18074 -0.793031
v 0.857901 -1.20744 -0.780538
v 0.857902 -1.20744 -0.780538
v 0.7453 -1.6094 -0.385743
v 0.746108 -1.59861 -0.389522
v 0.747345 -1.58209 -0.395307
v 0.853622 -1.17696 -0.771005
v 0.846734 -1.17493 -0.75004
v 0.767526 -1.31253 -0.489692
v 0.670035 -1.65014 -0.388618
v 0.747345 -1.58209 -0.395307
v 0.767526 -1.31253 -0.489692
v 0.746108 -1.59861 -0.389521
v 0.7453 -1.6094 -0.385743
v 0.718648 -1.66626 -0.37115
v 0.741116 -1.66528 -0.366175
v 0.741116 -1.66528 -0.366175
v 0.743509 -1.67196 -0.372745
v 0.751259 -1.69358 -0.394022
v 0.75404 -1.70133 -0.401657
v 0.75404 -1.70133 -0.401657
v 0.736055 -1.86558 -0.576842
v 0.827617 -1.90657 -0.603653
v 0.634844 -1.80845 -0.534818
v 0.64194 -1.68813 -0.407553
v 0.598343 -1.78784 -0.519662
v 0.64194 -1.68813 -0.407553
v 0.639359 -1.67423 -0.405164
v 0.598342 -1.78784 -0.519662
v 0.64523 -1.6806 -0.399094
v 0.646451 -1.67781 -0.395954
v 0.639359 -1.67423 -0.405165
v 0.646451 -1.67781 -0.395954
v 0.656932 -1.67252 -0.388569
v 0.498687 -1.60328 -0.587846
v 0.66074 -1.6706 -0.385886
v 0.670035 -1.65014 -0.388618
v 0.664705 -1.66859 -0.383092
v 0.664705 -1.66859 -0.383092
v 0.664705 -1.66859 -0.383092
v 0.751259 -1.69358 -0.394022
v 0.718648 -1.66626 -0.371149
v 0.66074 -1.6706 -0.385886
v 0.656932 -1.67252 -0.388569
v 0.64523 -1.6806 -0.399094
v 0.646451 -1.67781 -0.395954
v 0.743509 -1.67196 -0.372745
v 0.741116 -1.66528 -0.366175
v 0.777407 -1.15892 -0.570213
v 0.785414 -1.15688 -0.563391
v 0.767526 -1.31252 -0.489693
v 0.842365 -1.17365 -0.736742
v 0.785414 -1.15688 -0.563392
v 0.842365 -1.17365 -0.736742
v 0.808449 -1.19139 -0.830277
v 0.799567 -1.19366 -0.837887
v 0.799298 -1.19372 -0.838118
v 0.733963 -1.16998 -0.607225
v 0.746752 -1.16672 -0.596329
v 0.777407 -1.15892 -0.570213
v 0.785414 -1.15688 -0.563392
v 0.746752 -1.16672 -0.596329
v 0.449805 -1.57863 -0.651328
v 0.498687 -1.60328 -0.587846
v 0.449804 -1.57863 -0.651328
v 0.455979 -1.68962 -0.692497
v 0.551731 -1.75568 -0.576249
v 0.598343 -1.78784 -0.519662
v 0.433685 -1.67424 -0.719563
v 0.427274 -1.56726 -0.680587
v 0.455853 -1.24076 -0.844156
v 0.427274 -1.56726 -0.680587
v 0.455073 -1.24095 -0.844821
v 0.352386 -1.52949 -0.77784
v 0.352386 -1.52949 -0.77784
v 0.349033 -1.5278 -0.782193
v 0.30942 -1.43655 -0.875588
v 0.349033 -1.5278 -0.782194
v 0.308242 -1.42756 -0.882063
v 0.309782 -1.43004 -0.883731
v 0.30942 -1.43655 -0.875589
v 0.308242 -1.42756 -0.882064
v 0.311884 -1.43414 -0.885229
v 0.309494 -1.43711 -0.875184
v 0.309494 -1.43711 -0.875184
v 0.310993 -1.44857 -0.866939
v 0.348252 -1.52741 -0.783208
v 0.348252 -1.52741 -0.783208
v 0.326684 -1.53339 -0.818905
v 0.319412 -1.51286 -0.820661
v 0.311332 -1.45116 -0.865076
v 0.319412 -1.51286 -0.820661
v 0.311028 -1.44884 -0.866748
v 0.320185 -1.45032 -0.891142
v 0.311028 -1.44884 -0.866748
v 0.310993 -1.44857 -0.866939
v 0.311332 -1.45116 -0.865076
v 0.321641 -1.45316 -0.89218
v 0.334772 -1.47875 -0.901535
v 0.319412 -1.51286 -0.820661
v 0.326684 -1.53339 -0.818905
v 0.372392 -1.54502 -0.936058
v 0.358105 -1.6221 -0.811319
v 0.358105 -1.6221 -0.811319
v 0.427568 -1.65074 -0.977372
v 0.433896 -1.65335 -0.9925
v 0.321641 -1.45316 -0.892179
v 0.320185 -1.45032 -0.891142
v 0.64 -1.4313 -1.0084
v 0.64 -1.4313 -1.0084
v 0.666164 -1.7876 -1.04828
v 0.639857 -1.77049 -1.06673
v 0.756012 -1.20477 -0.875204
v 0.799298 -1.19372 -0.838118
v 0.667396 -1.7884 -1.04742
v 0.799567 -1.19366 -0.837887
v 0.808449 -1.19139 -0.830277
v 0.756012 -1.20477 -0.875204
v 0.682204 -1.22045 -0.916041
v 0.455853 -1.24076 -0.844155
v 0.733963 -1.16998 -0.607225
v 0.467069 -1.24149 -0.860079
v 0.455073 -1.24095 -0.844821
v 0.451777 -1.24179 -0.847629
v 0.445904 -1.24333 -0.852931
v 0.467069 -1.24149 -0.860079
v 0.64 -1.4313 -1.0084
v 0.445904 -1.24333 -0.852931
v 0.64 -1.4313 -1.0084
v 0.467069 -1.24149 -0.860079
v 0.642585 -1.22886 -0.937962
v 0.64 -1.4313 -1.0084
v 0.642585 -1.22886 -0.937962
v 0.668829 -1.22329 -0.923442
v 0.682204 -1.22045 -0.916041
v 0.756011 -1.20477 -0.875204
v 0.668829 -1.22329 -0.923442
v 0.642585 -1.22886 -0.937962
v 0.309782 -1.43004 -0.883731
v 0.445653 -1.24335 -0.852847
v 0.445653 -1.24335 -0.852847
v 0.445652 -1.24335 -0.852846
v 0.451777 -1.24179 -0.847629
v 0.308242 -1.42756 -0.882064
v 0.311885 -1.43414 -0.885229
v 0.309783 -1.43004 -0.883731
v 0.81527 -1.9103 -0.609734
v 0.82164 -1.91389 -0.612378
v 0.832426 -1.91998 -0.616857
v 0.853622 -1.17696 -0.771005
v 0.848605 -1.18074 -0.793031
v 0.851239 -1.17987 -0.789387
v 0.851239 -1.17987 -0.789388
v 0.857901 -1.20744 -0.780538
v 0.851239 -1.17987 -0.789388
v 0.853622 -1.17696 -0.771005
vt 0.870309 0.451708
vt 0.858123 0.421694
vt 0.889218 0.416755
vt -1.92745 0.829776
vt -1.95592 0.97633
vt -1.62776 1.00018
vt -1.94087 0.84382
vt -0.660992 1.74176
vt -0.534859 1.69844
vt -0.913513 1.53872
vt -0.53037 1.68606
vt -0.909425 1.2722
vt -0.527719 1.67875
vt -0.494756 1.58781
vt -0.45264 1.47162
vt -0.494162 1.37321
vt -0.610663 1.25714
vt -0.637788 1.23011
vt -0.729745 1.13849
vt -0.89616 1.21282
vt -0.911321 1.21959
vt 0.922082 0.42428
vt 0.927943 0.42417
vt 0.938156 0.43664
vt 0.944403 0.444268
vt 0.922082 0.42428
vt 0.944403 0.444268
vt 0.900469 0.417635
vt -0.967225 1.48784
vt -0.985716 1.45648
vt -0.966359 1.48931
vt -0.963223 1.49463
vt 0.895889 0.416723
vt 0.888882 0.49542
vt 0.889218 0.416755
vt 0.888882 0.49542
vt 0.895889 0.416723
vt 0.892993 0.492819
vt -0.69958 0.906627
vt -0.696021 0.957649
vt -0.661774 0.987659
vt -0.69722 0.955967
vt 0.888705 0.495553
vt 0.870309 0.451708
vt 0.888075 0.496024
vt 0.885682 0.49386
vt -1.22784 1.00736
vt -1.63008 0.597095
vt -1.61928 0.600939
vt -1.60274 0.606823
vt -1.19735 0.996977
vt -1.19532 0.974909
vt -1.333 0.702827
vt -0.45084 -1.41446
vt -0.530044 -1.34829
vt -0.550719 -1.06272
vt -0.528776 -1.36579
vt -0.527949 -1.37723
vt -0.500643 -1.43562
vt -0.523662 -1.43643
vt -1.686 0.577192
vt -1.69268 0.58418
vt -1.71431 0.60681
vt -1.72207 0.614931
vt -0.863527 -1.4654
vt -0.84541 -1.70553
vt -0.937645 -1.75323
vt -0.743454 -1.63568
vt -0.750602 -1.46055
vt -0.706684 -1.61049
vt -1.822 0.0103754
vt -1.80768 0.0109606
vt -1.92478 -0.107309
vt -1.81425 0.0192547
vt -1.81137 0.0225504
vt -1.26221 0.164956
vt -1.26609 0.176485
vt -1.26035 0.189116
vt -1.18537 -0.0637147
vt -1.25827 0.193706
vt -1.23611 0.198339
vt -1.25611 0.198484
vt -0.445379 -1.43369
vt -0.773535 -1.42937
vt -0.860726 -1.45452
vt -0.827874 -1.41912
vt -0.76954 -1.43277
vt -0.765704 -1.43604
vt -0.753916 -1.44923
vt -0.755146 -1.44503
vt -0.852918 -1.42421
vt -0.850508 -1.41485
vt -0.704114 0.145677
vt -0.701907 0.156162
vt -0.87047 0.195682
vt -1.19403 0.960913
vt -1.17725 0.778448
vt -0.695172 0.89328
vt -0.660957 0.988374
vt -0.651997 0.996226
vt -0.651725 0.996465
vt -0.585813 0.764517
vt -0.598715 0.753273
vt -0.629641 0.726325
vt -0.637719 0.719286
vt -0.712563 0.105537
vt -1.15867 -0.143177
vt -1.73456 -0.218925
vt -1.70914 -0.29881
vt -1.82355 -0.329881
vt -1.89163 -0.180181
vt -0.437451 1.42972
vt -1.80769 -0.364736
vt -1.69743 -0.335629
vt -0.792743 -0.275372
vt -1.14636 -0.179802
vt -0.792959 -0.276395
vt -1.10545 -0.301538
vt -1.6585 -0.458012
vt -1.65676 -0.46349
vt -1.0048 -0.401072
vt -1.10362 -0.306988
vt -0.995056 -0.406487
vt -0.769692 1.44598
vt -0.761121 1.45193
vt -0.767937 1.44311
vt -0.771268 1.45056
vt -0.760695 1.45248
vt -1.00541 -0.400733
vt -1.01781 -0.393839
vt -1.10319 -0.308258
vt -1.65635 -0.464767
vt -1.66252 -0.506448
vt -1.64136 -0.511898
vt -1.02061 -0.392281
vt -1.08744 -0.35514
vt -1.0181 -0.393679
vt -0.777493 1.46864
vt -0.751815 1.46397
vt -0.752017 1.46371
vt -0.750056 1.46625
vt -0.778585 1.47181
vt -0.788432 1.50042
vt -0.703305 1.52674
vt -0.701457 1.54852
vt -0.824772 1.57577
vt -0.693472 1.64259
vt -1.75395 -0.482897
vt -0.868258 1.69425
vt -0.884182 1.69896
vt 0.946612 0.446927
vt 0.946856 0.447223
vt 0.9087 0.457
vt 0.9087 0.457
vt 0.896704 0.416886
vt 0.900469 0.417635
vt 0.899441 0.488739
vt 0.894199 0.492056
vt 0.896528 0.416851
vt 0.894167 0.492076
vt 0.893091 0.492757
vt -0.608057 1.03473
vt -0.533597 1.07736
vt -0.30525 1.009
vt -0.716088 0.0887902
vt -0.316564 1.02488
vt -0.304462 1.00969
vt -0.301137 1.01259
vt -0.295212 1.01805
vt 0.932839 0.479253
vt 0.9087 0.457
vt 0.935363 0.478495
vt 0.9087 0.457
vt 0.932839 0.479253
vt 0.911786 0.481708
vt 0.9087 0.457
vt 0.911786 0.481708
vt 0.90893 0.483335
vt 0.907474 0.484164
vt 0.899441 0.488739
vt -0.520104 1.08508
vt -0.493629 1.10023
vt 0.948606 0.44933
vt 0.935394 0.478486
vt -0.294959 1.01797
vt -0.795555 -0.28873
vt -0.793867 -0.280711
vt 0.948834 0.449637
vt 0.948252 0.448904
vt 0.948606 0.44933
vt -0.925207 -1.7602
vt -0.931624 -1.7646
vt -0.94249 -1.77204
vt -0.706528 0.92767
vt -0.701467 0.950007
vt -0.704124 0.946279
vt 0.887681 0.49632
vt -0.675441 -1.34661
vt -0.684399 -1.31829
vt -0.665792 -1.31587
vn 0.827257 -0.0346944 -0.560751
vn 0.827257 -0.0346944 -0.560751
vn 0.827257 -0.0346944 -0.560751
vn 0.950449 0.0369267 0.308681
vn 0.950449 0.0369268 0.308681
vn 0.950449 0.0369258 0.30868
vn 0.950449 0.0369269 0.308681
vn -0.511149 -0.856956 -0.0659735
vn -0.511146 -0.856958 -0.0659748
vn -0.511244 -0.856908 -0.0658679
vn -0.511147 -0.856958 -0.0659728
vn -0.511143 -0.85696 -0.065971
vn -0.511148 -0.856957 -0.0659719
vn -0.511146 -0.856958 -0.0659745
vn -0.511143 -0.85696 -0.0659744
vn -0.511143 -0.85696 -0.0659751
vn -0.511142 -0.85696 -0.0659737
vn -0.511139 -0.856962 -0.0659738
vn -0.51114 -0.856962 -0.0659725
vn -0.511136 -0.856965 -0.0659645
vn -0.511135 -0.856966 -0.0659585
vn 0.382718 0.588371 -0.712283
vn 0.382711 0.588368 -0.712289
vn 0.382718 0.588371 -0.712283
vn 0.382724 0.588374 -0.712277
vn -0.348173 0.159029 -0.923843
vn -0.348175 0.159027 -0.923842
vn -0.348158 0.159047 -0.923846
vn -0.511376 -0.85684 -0.0657225
vn -0.511142 -0.856962 -0.0659592
vn -0.511441 -0.856807 -0.0656542
vn -0.51104 -0.857014 -0.0660736
vn 0.809551 0.00721302 -0.587005
vn 0.809556 0.00720925 -0.586998
vn 0.809554 0.00721096 -0.587001
vn 0.625298 0.13201 -0.769139
vn 0.625292 0.132013 -0.769144
vn 0.625308 0.132005 -0.769132
vn -0.132123 0.98154 -0.138285
vn -0.13228 0.98152 -0.138278
vn -0.132212 0.981539 -0.138209
vn -0.132116 0.98154 -0.138296
vn 0.809552 0.00721122 -0.587004
vn 0.809548 0.0072142 -0.587009
vn 0.809548 0.00721375 -0.587009
vn 0.80955 0.00721373 -0.587007
vn 0.950449 0.0369263 0.30868
vn 0.950448 0.0369284 0.308682
vn 0.950449 0.0369256 0.308679
vn 0.95045 0.0369243 0.308678
vn 0.950449 0.0369266 0.30868
vn 0.950449 0.0369277 0.30868
vn 0.950449 0.0369281 0.30868
vn -0.217411 0.337029 0.916048
vn -0.217411 0.337027 0.916049
vn -0.217413 0.337029 0.916047
vn -0.21741 0.337027 0.916049
vn -0.217412 0.337029 0.916048
vn -0.217412 0.33703 0.916048
vn -0.217413 0.33703 0.916047
vn 0.950449 0.0369247 0.30868
vn 0.950449 0.0369261 0.30868
vn 0.950449 0.0369258 0.30868
vn 0.950449 0.0369252 0.30868
vn -0.120649 -0.717974 0.685534
vn -0.120648 -0.717976 0.685532
vn -0.12065 -0.717972 0.685536
vn -0.120655 -0.717973 0.685534
vn -0.120657 -0.717976 0.68553
vn -0.120662 -0.717972 0.685534
vn -0.811924 -0.242178 0.531159
vn -0.811926 -0.242181 0.531155
vn -0.811926 -0.242177 0.531156
vn -0.811924 -0.242187 0.531153
vn -0.811927 -0.242197 0.531146
vn -0.653466 0.383992 0.652328
vn -0.653466 0.383992 0.652328
vn -0.653475 0.383975 0.652329
vn -0.65347 0.383985 0.652329
vn -0.653472 0.383981 0.652329
vn -0.653464 0.383996 0.652328
vn -0.653461 0.384001 0.652328
vn -0.217411 0.33703 0.916048
vn -0.120638 -0.717941 0.685571
vn -0.120643 -0.717955 0.685555
vn -0.120651 -0.717969 0.685539
vn -0.120664 -0.717947 0.68556
vn -0.12068 -0.717956 0.685547
vn -0.120652 -0.717966 0.685542
vn -0.120724 -0.717915 0.685583
vn -0.12065 -0.717966 0.685542
vn -0.120647 -0.717956 0.685553
vn -0.653465 0.383992 0.65233
vn -0.653466 0.383993 0.652328
vn -0.653467 0.383993 0.652327
vn 0.950449 0.0369288 0.308681
vn 0.950449 0.0369268 0.30868
vn -0.131456 0.981595 -0.138532
vn -0.132379 0.981525 -0.138148
vn -0.129512 0.981733 -0.139379
vn -0.130313 0.981677 -0.139027
vn -0.131988 0.981557 -0.138296
vn -0.13198 0.981558 -0.138293
vn -0.131988 0.981557 -0.138294
vn -0.132 0.981555 -0.138299
vn -0.653465 0.383992 0.652329
vn -0.653466 0.383993 0.652328
vn -0.811927 -0.242175 0.531155
vn -0.811928 -0.242174 0.531154
vn -0.811928 -0.242174 0.531155
vn -0.811927 -0.242175 0.531155
vn -0.511141 -0.856961 -0.0659745
vn -0.811929 -0.242177 0.531152
vn -0.811927 -0.242175 0.531155
vn -0.653397 0.384015 0.652384
vn -0.653397 0.384015 0.652384
vn -0.6534 0.384015 0.652381
vn -0.653464 0.383996 0.652328
vn -0.811924 -0.242171 0.531162
vn -0.811931 -0.242183 0.531145
vn -0.653225 0.384213 0.652439
vn -0.653292 0.384152 0.652408
vn -0.653468 0.383999 0.652322
vn -0.886802 -0.340797 -0.312153
vn -0.886728 -0.340967 -0.312178
vn -0.886806 -0.340791 -0.312148
vn -0.886725 -0.340979 -0.312174
vn -0.886725 -0.340977 -0.312175
vn -0.653132 0.384299 0.652483
vn -0.653476 0.383984 0.652323
vn -0.653416 0.38404 0.652351
vn -0.811932 -0.242186 0.531143
vn -0.811927 -0.242178 0.531154
vn -0.811926 -0.242183 0.531153
vn -0.653398 0.384056 0.652359
vn -0.653472 0.383986 0.652326
vn -0.653324 0.384126 0.652392
vn -0.886797 -0.340805 -0.312157
vn -0.886819 -0.340737 -0.312171
vn -0.886799 -0.340799 -0.31216
vn -0.886794 -0.340807 -0.312166
vn -0.886783 -0.340835 -0.312165
vn -0.886791 -0.340818 -0.312163
vn -0.886789 -0.340822 -0.312163
vn -0.886791 -0.340818 -0.31216
vn -0.886793 -0.340817 -0.312157
vn -0.886793 -0.340815 -0.31216
vn -0.811927 -0.242174 0.531156
vn -0.886793 -0.34082 -0.312155
vn -0.886793 -0.340822 -0.31215
vn -0.34814 0.159066 -0.923849
vn -0.348152 0.159053 -0.923847
vn -0.348176 0.159028 -0.923842
vn 0.625296 0.13201 -0.769142
vn 0.625293 0.132012 -0.769143
vn 0.625293 0.13201 -0.769143
vn 0.625296 0.132011 -0.769141
vn 0.625353 0.131984 -0.769099
vn 0.625328 0.131996 -0.769117
vn 0.625384 0.131969 -0.769077
vn 0.625289 0.132014 -0.769146
vn -0.131993 0.981556 -0.138297
vn -0.131983 0.981559 -0.138284
vn -0.131809 0.981601 -0.138152
vn -0.653466 0.383992 0.652328
vn -0.131901 0.981578 -0.138225
vn -0.131737 0.981616 -0.138114
vn -0.132004 0.981551 -0.13832
vn -0.132 0.981552 -0.138315
vn -0.325428 0.380077 -0.865817
vn -0.325426 0.380079 -0.865816
vn -0.325426 0.380079 -0.865816
vn -0.40451 0.305142 -0.862125
vn -0.40451 0.305142 -0.862125
vn -0.40451 0.305142 -0.862125
vn 0.414029 0.294416 -0.861336
vn 0.414033 0.294415 -0.861334
vn 0.414031 0.294415 -0.861335
vn 0.414028 0.294416 -0.861336
vn 0.414026 0.294417 -0.861337
vn -0.131978 0.981561 -0.138276
vn -0.131975 0.981562 -0.138268
vn -0.325402 0.380067 -0.865831
vn -0.32538 0.380053 -0.865845
vn nan nan nan
vn -0.653478 0.384005 0.652309
vn -0.653473 0.383997 0.652319
vn -0.32538 0.380053 -0.865845
vn -0.348176 0.159029 -0.923842
vn -0.348176 0.159032 -0.923841
vn -0.120652 -0.717971 0.685536
vn -0.120652 -0.717968 0.68554
vn -0.120648 -0.71797 0.685539
vn -0.131984 0.981557 -0.138294
vn -0.132002 0.981555 -0.138295
vn -0.132211 0.981534 -0.138244
vn 0.809549 0.00721303 -0.587008
vn 0.970467 0.184804 -0.155056
vn 0.970467 0.184804 -0.155056
vn 0.970467 0.184804 -0.155056
f 1/1/1 2/2/2 3/3/3 
f 4/4/4 5/5/5 6/6/6 
f 7/7/7 5/5/5 4/4/4 
f 8/8/8 9/9/9 10/10/10 
f 10/10/10 9/9/9 11/11/11 
f 11/11/11 12/12/12 10/10/10 
f 13/13/13 12/12/12 11/11/11 
f 14/14/14 12/12/12 13/13/13 
f 12/12/12 14/14/14 15/15/15 
f 12/12/12 15/15/15 16/16/16 
f 12/12/12 16/16/16 17/17/17 
f 12/12/12 17/17/17 18/18/18 
f 19/19/19 12/12/12 18/18/18 
f 20/20/20 12/12/12 19/19/19 
f 12/12/12 20/20/20 21/21/21 
f 22/22/22 23/23/23 24/24/24 
f 22/22/22 24/24/24 25/25/25 
f 26/26/26 27/27/27 28/28/28 
f 29/29/29 12/12/12 30/30/30 
f 29/29/29 10/10/10 12/12/12 
f 10/10/10 29/29/29 31/31/31 
f 10/10/10 31/31/31 32/32/32 
f 33/33/33 34/34/34 35/35/35 
f 36/36/36 37/37/37 38/38/38 
f 39/39/39 40/40/40 41/41/41 
f 40/40/40 39/39/39 42/42/42 
f 35/35/35 34/34/34 43/43/43 
f 35/35/35 43/43/43 44/44/44 
f 44/44/44 43/43/43 45/45/45 
f 44/44/44 45/45/45 46/46/46 
f 47/47/47 48/48/48 6/6/6 
f 47/47/47 49/49/49 48/48/48 
f 47/47/47 50/50/50 49/49/49 
f 51/51/51 50/50/50 47/47/47 
f 52/52/52 50/50/50 51/51/51 
f 50/50/50 52/52/52 53/53/53 
f 54/54/54 55/55/55 56/56/56 
f 54/54/54 57/57/57 55/55/55 
f 57/57/57 54/54/54 58/58/58 
f 59/59/59 58/58/58 54/54/54 
f 60/60/60 58/58/58 59/59/59 
f 61/61/61 6/6/6 48/48/48 
f 62/62/62 6/6/6 61/61/61 
f 63/63/63 6/6/6 62/62/62 
f 64/64/64 6/6/6 63/63/63 
f 6/6/6 64/64/64 4/4/4 
f 65/65/65 66/66/66 67/67/67 
f 65/65/65 68/68/68 66/66/66 
f 69/69/69 68/68/68 65/65/65 
f 69/69/69 70/70/70 68/68/68 
f 71/71/71 72/72/72 73/73/73 
f 74/74/74 72/72/72 71/71/71 
f 75/75/75 72/72/72 74/74/74 
f 76/76/76 77/77/77 78/78/78 
f 78/78/78 79/79/79 76/76/76 
f 80/80/80 79/79/79 78/78/78 
f 80/80/80 81/81/81 79/79/79 
f 82/82/82 81/81/81 80/80/80 
f 54/54/54 83/83/83 59/59/59 
f 84/84/84 85/85/85 86/86/86 
f 84/84/84 87/87/87 85/85/85 
f 65/65/65 85/85/85 87/87/87 
f 87/87/87 69/69/69 65/65/65 
f 69/69/69 87/87/87 88/88/88 
f 69/69/69 88/88/88 89/89/89 
f 90/90/90 89/89/89 88/88/88 
f 86/86/86 85/85/85 91/91/91 
f 92/92/92 86/86/86 91/91/91 
f 81/81/81 93/93/93 79/79/79 
f 81/81/81 94/94/94 93/93/93 
f 95/95/95 94/94/94 81/81/81 
f 53/53/53 96/96/96 97/97/97 
f 53/53/53 52/52/52 96/96/96 
f 41/41/41 98/98/98 39/39/39 
f 99/99/99 98/98/98 41/41/41 
f 98/98/98 99/99/99 100/100/100 
f 98/98/98 100/100/100 101/101/101 
f 102/102/102 98/98/98 101/101/101 
f 98/98/98 102/102/102 103/103/103 
f 98/98/98 103/103/103 104/104/104 
f 98/98/98 104/104/104 105/105/105 
f 79/79/79 93/93/93 106/106/106 
f 79/79/79 106/106/106 107/107/107 
f 108/108/108 109/109/109 110/110/110 
f 111/111/111 108/108/108 110/110/110 
f 72/72/72 108/108/108 111/111/111 
f 73/73/73 72/72/72 111/111/111 
f 16/16/16 15/15/15 112/112/112 
f 110/110/110 109/109/109 113/113/113 
f 109/109/109 114/114/114 113/113/113 
f 115/115/115 116/116/116 107/107/107 
f 117/117/117 116/116/116 115/115/115 
f 116/116/116 117/117/117 118/118/118 
f 114/114/114 119/119/119 113/113/113 
f 119/119/119 120/120/120 113/113/113 
f 118/118/118 121/121/121 122/122/122 
f 121/121/121 118/118/118 123/123/123 
f 124/124/124 125/125/125 126/126/126 
f 127/127/127 125/125/125 124/124/124 
f 128/128/128 125/125/125 127/127/127 
f 122/122/122 121/121/121 129/129/129 
f 122/122/122 129/129/129 130/130/130 
f 122/122/122 130/130/130 131/131/131 
f 132/132/132 113/113/113 120/120/120 
f 132/132/132 133/133/133 113/113/113 
f 132/132/132 134/134/134 133/133/133 
f 131/131/131 135/135/135 136/136/136 
f 131/131/131 137/137/137 135/135/135 
f 131/131/131 130/130/130 137/137/137 
f 138/138/138 139/139/139 140/140/140 
f 138/138/138 141/141/141 139/139/139 
f 142/142/142 141/141/141 138/138/138 
f 141/141/141 142/142/142 143/143/143 
f 144/144/144 141/141/141 143/143/143 
f 144/144/144 143/143/143 145/145/145 
f 145/145/145 143/143/143 146/146/146 
f 147/147/147 145/145/145 146/146/146 
f 113/113/113 133/133/133 148/148/148 
f 146/146/146 149/149/149 147/147/147 
f 149/149/149 146/146/146 150/150/150 
f 28/28/28 27/27/27 151/151/151 
f 28/28/28 151/151/151 152/152/152 
f 28/28/28 152/152/152 153/153/153 
f 154/154/154 155/155/155 156/156/156 
f 157/157/157 155/155/155 154/154/154 
f 158/158/158 155/155/155 157/157/157 
f 158/158/158 159/159/159 155/155/155 
f 160/160/160 159/159/159 158/158/158 
f 161/161/161 159/159/159 160/160/160 
f 161/161/161 37/37/37 159/159/159 
f 38/38/38 37/37/37 161/161/161 
f 102/102/102 101/101/101 162/162/162 
f 102/102/102 162/162/162 163/163/163 
f 102/102/102 163/163/163 164/164/164 
f 107/107/107 165/165/165 115/115/115 
f 107/107/107 106/106/106 165/165/165 
f 164/164/164 163/163/163 166/166/166 
f 166/166/166 167/167/167 164/164/164 
f 166/166/166 168/168/168 167/167/167 
f 166/166/166 169/169/169 168/168/168 
f 170/170/170 171/171/171 172/172/172 
f 173/173/173 174/174/174 175/175/175 
f 176/176/176 177/177/177 178/178/178 
f 176/176/176 178/178/178 179/179/179 
f 176/176/176 179/179/179 180/180/180 
f 181/181/181 166/166/166 163/163/163 
f 182/182/182 166/166/166 181/181/181 
f 172/172/172 171/171/171 183/183/183 
f 172/172/172 183/183/183 184/184/184 
f 169/169/169 185/185/185 168/168/168 
f 186/186/186 123/123/123 187/187/187 
f 184/184/184 183/183/183 188/188/188 
f 187/187/187 123/123/123 118/118/118 
f 118/118/118 117/117/117 187/187/187 
f 153/153/153 189/189/189 190/190/190 
f 153/153/153 152/152/152 189/189/189 
f 128/128/128 127/127/127 138/138/138 
f 138/138/138 140/140/140 128/128/128 
f 66/66/66 191/191/191 67/67/67 
f 67/67/67 191/191/191 192/192/192 
f 67/67/67 192/192/192 193/193/193 
f 42/42/42 39/39/39 194/194/194 
f 194/194/194 195/195/195 42/42/42 
f 195/195/195 194/194/194 196/196/196 
f 46/46/46 45/45/45 197/197/197 
f 198/198/198 199/199/199 200/200/200 
