v -1.3605 -1.798 -0.861
v -1.37249 -1.74184 -0.767874
v -1.36653 -1.67779 -0.832274
v -1.37249 -1.74184 -0.767874
v -1.3605 -1.798 -0.861
v -1.35203 -1.75517 -0.761953
v -1.36653 -1.67779 -0.832274
v -1.37249 -1.74184 -0.767874
v -1.35203 -1.75517 -0.761953
v -1.32727 -1.64209 -0.880557
v -1.32727 -1.64209 -0.880557
v -1.3605 -1.798 -0.861
v -1.36653 -1.67779 -0.832274
v -1.32727 -1.64209 -0.880557
v -1.1496 -1.6685 -1.0533
v -1.3605 -1.798 -0.861
v -1.30604 -1.62966 -0.89997
v -1.15112 -1.65671 -1.0509
v -1.30451 -1.62877 -0.901361
v -1.30451 -1.62877 -0.901361
v -1.14606 -1.6574 -1.052
v -1.15112 -1.65671 -1.0509
v -1.30395 -1.62885 -0.901481
v -1.1364 -1.65879 -1.05547
v -1.3031 -1.62896 -0.901663
v -0.99612 -1.67039 -0.967152
v -0.970088 -1.67694 -1.02175
v -0.961515 -1.67969 -1.04919
v -1.1364 -1.65879 -1.05547
v -0.961515 -1.67969 -1.04919
v -0.983694 -1.78092 -1.02567
v -0.985664 -1.78838 -1.02394
v -1.1496 -1.6685 -1.0533
v -0.988355 -1.79856 -1.02158
v -0.988388 -1.79868 -1.02155
v -1.1496 -1.6685 -1.0533
v -0.988388 -1.79868 -1.02155
v -1.1326 -1.8421 -1.0219
v -1.1496 -1.6685 -1.0533
v -1.1326 -1.8421 -1.0219
v -1.3605 -1.798 -0.861
v -1.1326 -1.8421 -1.0219
v -1.08768 -1.97736 -0.87486
v -1.3605 -1.798 -0.861
v -1.1326 -1.8421 -1.0219
v -1.00953 -1.8906 -1.00659
v -1.08768 -1.97736 -0.87486
v -1.00933 -1.8897 -1.00674
v -1.00953 -1.8906 -1.00659
v -1.11311 -1.82415 -0.777163
v -1.00933 -1.8897 -1.00674
v -0.988388 -1.79868 -1.02155
v -1.08768 -1.97736 -0.87486
v -1.1088 -1.97331 -0.830949
v -1.13769 -1.92364 -0.757559
v -1.13784 -1.91316 -0.754087
v -1.13788 -1.92322 -0.757036
v -1.13788 -1.92322 -0.757036
v -1.14185 -1.91831 -0.753534
v -1.13769 -1.92364 -0.757559
v -1.14185 -1.91831 -0.753534
v -1.13788 -1.92322 -0.757036
v -1.13784 -1.91316 -0.754087
v -1.18654 -1.86297 -0.714068
v -1.18654 -1.86297 -0.714068
v -1.18654 -1.86297 -0.714068
v -1.3031 -1.62896 -0.901663
v -1.30395 -1.62885 -0.901481
v -1.30603 -1.62966 -0.89997
v -1.30451 -1.62877 -0.901361
v -1.13759 -1.85632 -0.737415
v -1.11311 -1.82415 -0.777163
v -0.996121 -1.67039 -0.967152
v -0.996121 -1.67039 -0.967153
v -0.988355 -1.79856 -1.02158
v -0.985664 -1.78838 -1.02394
v -0.983694 -1.78092 -1.02567
v -0.958494 -1.68558 -1.04779
v -0.970088 -1.67694 -1.02175
v -0.961515 -1.67969 -1.04919
v -0.970088 -1.67694 -1.02175
v -0.958494 -1.68558 -1.04779
v -0.958494 -1.68558 -1.04779
v -1.13759 -1.85632 -0.737415
v -1.13759 -1.85632 -0.737415
v -1.3605 -1.798 -0.861
v -1.1088 -1.97331 -0.830949
v -1.13769 -1.92364 -0.757559
v -1.10155 -1.98578 -0.849384
v -1.10155 -1.98578 -0.849384
v -1.10155 -1.98579 -0.849384
v -1.00953 -1.8906 -1.00659
v -1.1496 -1.6685 -1.0533
v -1.14606 -1.6574 -1.052
v -1.1364 -1.65879 -1.05547
v -1.14606 -1.6574 -1.052
v -1.1496 -1.6685 -1.0533
v -1.15112 -1.65671 -1.0509
vt 0.1851 0.176
vt 0.19405 0.179714
vt 0.187908 0.187709
vt 0.19405 0.179714
vt 0.1851 0.176
vt 0.193216 0.17703
vt 0.903032 -0.621786
vt 0.909177 -0.712604
vt 0.888102 -0.726284
vt 0.862599 -0.562524
vt 0.182052 0.191875
vt 0.1851 0.176
vt 0.187908 0.187709
vt 0.182052 0.191875
vt 0.163 0.1872
vt 0.1851 0.176
vt 0.179824 0.192939
vt 0.1632 0.188444
vt 0.179665 0.193015
vt -1.00868 1.09817
vt -1.1596 0.937418
vt -1.1585 0.942523
vt -1.0088 1.0976
vt -1.16308 0.927654
vt -1.00898 1.09674
vt -1.07459 0.787003
vt -1.12929 0.76037
vt -1.15679 0.751528
vt 0.161731 0.188187
vt 0.147728 0.182926
vt 0.151458 0.170856
vt 0.15176 0.169973
vt 0.163 0.1872
vt 0.152173 0.168766
vt 0.152178 0.168751
vt 0.163 0.1872
vt 0.152178 0.168751
vt 0.1632 0.1709
vt 0.163 0.1872
vt 0.1632 0.1709
vt 0.1851 0.176
vt 0.1632 0.1709
vt 0.168624 0.150221
vt 0.1851 0.176
vt 0.1632 0.1709
vt 0.154512 0.161384
vt 0.168624 0.150221
vt 0.154489 0.161457
vt 0.154512 0.161384
vt -1.98628 0.202948
vt -2.05241 0.454742
vt -1.96059 0.477303
vt -2.14086 0.30179
vt -2.13678 0.253067
vt -2.08666 0.174479
vt -2.07609 0.1713
vt -2.08624 0.173923
vt 0.179485 0.147671
vt 0.180054 0.148294
vt 0.179426 0.147632
vt -2.15858 -0.668135
vt -2.16366 -0.663004
vt -2.15326 -0.66432
vt -2.10137 -0.725961
vt 0.186466 0.155319
vt 0.717637 -0.836933
vt 0.837699 -0.538398
vt 0.838578 -0.538443
vt 0.840723 -0.54008
vt 0.839155 -0.538472
vt 0.667214 -0.815882
vt 0.642003 -0.765105
vt 0.521495 -0.522404
vt -1.83115 0.425116
vt -1.96046 0.477344
vt -1.95019 0.480655
vt -1.94267 0.483078
vt -1.84647 0.514078
vt -1.83776 0.485595
vt -0.663827 -0.978575
vt -0.635718 -0.971928
vt -0.662391 -0.985188
vt 0.14759 0.182158
vt -2.01874 0.156468
vt -2.0945 -0.671755
vt 0.1851 0.176
vt 0.172541 0.148569
vt 0.179426 0.147632
vt 0.170811 0.148805
vt 0.170811 0.148805
vt -2.14936 0.272808
vt -2.05333 0.454517
vt 0.163 0.1872
vt 0.162789 0.188448
vt 0.161731 0.188187
vt 0.162789 0.188448
vt 0.163 0.1872
vt 0.1632 0.188444
vn -0.993187 -0.0224628 -0.114348
vn -0.993187 -0.0224628 -0.114348
vn -0.993187 -0.0224628 -0.114348
vn -0.580034 -0.728446 0.364592
vn -0.580022 -0.728448 0.364606
vn -0.580021 -0.728456 0.364591
vn 0.239803 0.67714 0.695684
vn 0.239813 0.677139 0.695681
vn 0.239783 0.677146 0.695685
vn 0.239628 0.677294 0.695594
vn -0.806636 0.0988146 -0.58273
vn -0.806636 0.0988146 -0.58273
vn -0.806636 0.0988146 -0.58273
vn -0.691584 0.0570482 -0.720039
vn -0.691582 0.0570576 -0.720041
vn -0.691582 0.0570713 -0.72004
vn -0.691561 0.0572194 -0.720049
vn -0.691547 0.0573166 -0.720054
vn -0.691516 0.057557 -0.720065
vn 0.121103 0.99077 -0.0608969
vn 0.120943 0.990779 -0.0610665
vn 0.120493 0.990805 -0.0615454
vn 0.120938 0.99078 -0.0610719
vn 0.120576 0.9908 -0.0614572
vn 0.120538 0.990802 -0.0614982
vn 0.120593 0.9908 -0.0614291
vn 0.120593 0.990799 -0.061442
vn 0.120596 0.990797 -0.0614604
vn 0.00769586 -0.227913 -0.973651
vn 0.00774771 -0.227913 -0.973651
vn 0.00773082 -0.227912 -0.973651
vn 0.00770419 -0.227901 -0.973654
vn 0.00770776 -0.227896 -0.973655
vn 0.00772868 -0.227869 -0.973661
vn nan nan nan
vn 0.0543204 -0.172571 -0.983498
vn 0.0543205 -0.172571 -0.983498
vn 0.0542538 -0.172736 -0.983473
vn -0.590628 -0.199274 -0.781952
vn -0.590628 -0.199274 -0.781952
vn -0.590628 -0.199274 -0.781952
vn -0.492514 -0.710279 -0.502925
vn -0.492518 -0.710284 -0.502914
vn -0.492518 -0.710284 -0.502914
vn -0.218205 -0.750542 -0.623758
vn -0.218205 -0.750542 -0.623758
vn -0.218205 -0.750542 -0.623758
vn 0.0542206 -0.172819 -0.98346
vn 0.0541206 -0.173065 -0.983422
vn 0.888353 -0.132829 0.439529
vn 0.888369 -0.132944 0.439461
vn 0.888353 -0.132827 0.439529
vn 0.888365 -0.132908 0.43948
vn 0.888354 -0.132818 0.439531
vn 0.888178 -0.132938 0.43985
vn 0.888178 -0.132939 0.439848
vn 0.887827 -0.133156 0.440492
vn -0.578464 -0.728697 0.366578
vn -0.579629 -0.728515 0.365097
vn -0.579242 -0.728569 0.365604
vn 0.444247 -0.253926 0.859166
vn 0.444222 -0.253905 0.859185
vn 0.444257 -0.25393 0.859159
vn 0.444275 -0.253942 0.859147
vn -0.580016 -0.728464 0.364585
vn 0.239785 0.677141 0.695689
vn 0.239774 0.677148 0.695686
vn 0.239531 0.677371 0.695553
vn 0.239302 0.677588 0.69542
vn 0.239314 0.677575 0.695429
vn 0.239785 0.677142 0.695688
vn 0.23979 0.677144 0.695684
vn 0.239791 0.677144 0.695684
vn 0.888352 -0.132829 0.439531
vn 0.888349 -0.132832 0.439536
vn 0.88835 -0.132832 0.439534
vn 0.888352 -0.13283 0.439531
vn 0.888353 -0.132827 0.43953
vn 0.888353 -0.132824 0.43953
vn 0.846944 0.485854 0.215944
vn 0.846944 0.485854 0.215944
vn 0.846944 0.485854 0.215944
vn 0.00779174 -0.227922 -0.973648
vn 0.888355 -0.132831 0.439524
vn 0.444279 -0.253937 0.859146
vn -0.569559 -0.767167 0.295055
vn -0.569559 -0.767167 0.295055
vn -0.569558 -0.767164 0.295064
vn -0.56956 -0.76717 0.295045
vn -0.492521 -0.71029 -0.502903
vn 0.888357 -0.132793 0.439532
vn 0.888401 -0.13318 0.439325
vn -0.304504 0.206273 -0.929908
vn -0.304504 0.206273 -0.929908
vn -0.304504 0.206273 -0.929908
vn -0.18549 0.17277 -0.967339
vn -0.18549 0.17277 -0.967339
vn -0.18549 0.17277 -0.967339
f 1/1/1 2/2/2 3/3/3 
f 4/4/4 5/5/5 6/6/6 
f 7/7/7 8/8/8 9/9/9 
f 10/10/10 7/7/7 9/9/9 
f 11/11/11 12/12/12 13/13/13 
f 14/14/14 15/15/15 16/16/16 
f 17/17/17 15/15/15 14/14/14 
f 17/17/17 18/18/18 15/15/15 
f 19/19/19 18/18/18 17/17/17 
f 20/20/20 21/21/21 22/22/22 
f 23/23/23 21/21/21 20/20/20 
f 23/23/23 24/24/24 21/21/21 
f 25/25/25 24/24/24 23/23/23 
f 26/26/26 24/24/24 25/25/25 
f 27/27/27 24/24/24 26/26/26 
f 28/28/28 24/24/24 27/27/27 
f 29/29/29 30/30/30 31/31/31 
f 29/29/29 31/31/31 32/32/32 
f 32/32/32 33/33/33 29/29/29 
f 34/34/34 33/33/33 32/32/32 
f 35/35/35 33/33/33 34/34/34 
f 36/36/36 37/37/37 38/38/38 
f 39/39/39 40/40/40 41/41/41 
f 42/42/42 43/43/43 44/44/44 
f 45/45/45 46/46/46 47/47/47 
f 38/38/38 48/48/48 49/49/49 
f 38/38/38 37/37/37 48/48/48 
f 50/50/50 51/51/51 52/52/52 
f 50/50/50 53/53/53 51/51/51 
f 50/50/50 54/54/54 53/53/53 
f 50/50/50 55/55/55 54/54/54 
f 56/56/56 55/55/55 50/50/50 
f 57/57/57 55/55/55 56/56/56 
f 58/58/58 59/59/59 60/60/60 
f 61/61/61 62/62/62 63/63/63 
f 61/61/61 63/63/63 64/64/64 
f 65/65/65 6/6/6 59/59/59 
f 9/9/9 66/66/66 67/67/67 
f 68/68/68 9/9/9 67/67/67 
f 9/9/9 68/68/68 10/10/10 
f 68/68/68 69/69/69 10/10/10 
f 69/69/69 68/68/68 70/70/70 
f 71/71/71 67/67/67 66/66/66 
f 72/72/72 67/67/67 71/71/71 
f 67/67/67 72/72/72 73/73/73 
f 74/74/74 50/50/50 52/52/52 
f 75/75/75 74/74/74 52/52/52 
f 76/76/76 74/74/74 75/75/75 
f 77/77/77 74/74/74 76/76/76 
f 78/78/78 74/74/74 77/77/77 
f 79/79/79 74/74/74 78/78/78 
f 80/80/80 81/81/81 82/82/82 
f 31/31/31 30/30/30 83/83/83 
f 50/50/50 84/84/84 56/56/56 
f 64/64/64 63/63/63 85/85/85 
f 59/59/59 6/6/6 5/5/5 
f 60/60/60 59/59/59 5/5/5 
f 86/86/86 87/87/87 88/88/88 
f 86/86/86 89/89/89 87/87/87 
f 44/44/44 43/43/43 90/90/90 
f 53/53/53 54/54/54 91/91/91 
f 51/51/51 53/53/53 92/92/92 
f 93/93/93 94/94/94 95/95/95 
f 96/96/96 97/97/97 98/98/98 
