v 0.308101 -2.25883 -0.858568
v 0.288479 -2.37334 -0.559078
v 0.260037 -2.38485 -0.528597
v 0.288479 -2.37334 -0.559078
v 0.308101 -2.25883 -0.858568
v 0.194644 -2.27155 -0.509323
v 0.288479 -2.37334 -0.559078
v 0.194644 -2.27155 -0.509323
v 0.260037 -2.38485 -0.528597
v 0.234594 -2.39514 -0.501331
v -0.1416 -2.2641 -0.838
v 0.234594 -2.39514 -0.501331
v -0.1416 -2.2641 -0.838
v 0.30638 -2.15863 -1.06699
v 0.308101 -2.25883 -0.858568
v -0.1416 -2.2641 -0.838
v 0.304501 -2.15583 -1.0676
v 0.30638 -2.15863 -1.06699
v 0.289949 -2.1342 -1.07233
v -0.1821 -2.1338 -0.8852
v 0.289949 -2.1342 -1.07233
v -0.1821 -2.1338 -0.8852
v 0.273491 -2.10576 -1.08613
v 0.289949 -2.1342 -1.07233
v 0.273491 -2.10576 -1.08613
v 0.304501 -2.15583 -1.0676
v 0.30638 -2.15863 -1.06699
v 0.0788235 -2.05286 -0.645965
v 0.0967104 -2.10024 -0.595902
v 0.106695 -2.12668 -0.567956
v 0.116553 -2.1528 -0.540366
v 0.138315 -2.21044 -0.479456
v 0.138315 -2.21044 -0.479456
v 0.133323 -2.21447 -0.473376
v 0.133418 -2.21245 -0.474196
v 0.133418 -2.21245 -0.474196
v 0.138315 -2.21044 -0.479456
v 0.126789 -2.20807 -0.476063
v 0.133418 -2.21245 -0.474196
v 0.126789 -2.20807 -0.476064
v 0.133323 -2.21447 -0.473376
v 0.122336 -2.22434 -0.469489
v 0.123737 -2.20606 -0.476923
v 0.0442159 -2.18614 -0.486045
v 0.0650674 -2.16733 -0.493449
v 0.0513319 -2.15826 -0.497318
v 0.0364587 -2.18234 -0.487689
v 0.044162 -2.15353 -0.499338
v 0.0163155 -2.17249 -0.491957
v 0.0396338 -2.15054 -0.500613
v 0.0256589 -2.14131 -0.50455
v 0.0163013 -2.13513 -0.507186
v 0.00856261 -2.0361 -0.628258
v 0.0163013 -2.13513 -0.507185
v 0.0256589 -2.14131 -0.50455
v -0.0384186 -2.02489 -0.616417
v 0.0161071 -2.135 -0.50724
v -0.0392164 -2.0247 -0.616215
v -0.0736521 -2.07575 -0.532523
v -0.0736521 -2.07575 -0.532524
v -0.0927429 -2.11916 -0.515069
v 0.0161071 -2.135 -0.50724
v -0.0741969 -2.07539 -0.532677
v -0.109669 -2.11088 -0.518656
v -0.109669 -2.11088 -0.518656
v -0.284885 -2.23619 -0.635281
v -0.0927429 -2.11916 -0.515069
v -0.143135 -2.09452 -0.525748
v -0.181234 -2.07588 -0.533822
v -0.290128 -2.21967 -0.631135
v -0.183086 -2.07498 -0.534215
v -0.183618 -2.07472 -0.534328
v -0.183618 -2.07472 -0.534328
v -0.290141 -2.20463 -0.644851
v -0.290128 -2.21967 -0.631134
v -0.182851 -2.07146 -0.535647
v -0.182629 -2.07052 -0.536027
v -0.282991 -2.11081 -0.714897
v -0.1821 -2.1338 -0.8852
v -0.290141 -2.20463 -0.644851
v -0.282991 -2.11081 -0.714897
v -0.261186 -2.28971 -0.646056
v -0.290993 -2.21581 -0.636504
v -0.284885 -2.23619 -0.635282
v -0.290993 -2.21581 -0.636504
v -0.284885 -2.23619 -0.635282
v -0.293825 -2.2247 -0.634494
v -0.290993 -2.21581 -0.636504
v -0.293825 -2.2247 -0.634494
v -0.293825 -2.2247 -0.634494
v -0.261186 -2.28971 -0.646056
v -0.152943 -2.34086 -0.622444
v -0.256733 -2.29659 -0.646882
v -0.1416 -2.2641 -0.838
v -0.152942 -2.34086 -0.622444
v -0.256733 -2.29659 -0.646883
v -0.1416 -2.2641 -0.838
v -0.015353 -2.36475 -0.576938
v -0.152942 -2.34086 -0.622444
v -0.015353 -2.36475 -0.576938
v 0.227208 -2.39812 -0.493415
v 0.132623 -2.22937 -0.467309
v -0.0153531 -2.36475 -0.576937
v 0.227208 -2.39812 -0.493415
v 0.122336 -2.22434 -0.469489
v 0.0442159 -2.18614 -0.486045
v 0.0364587 -2.18234 -0.487689
v 0.0163155 -2.17249 -0.491957
v 0.132877 -2.22396 -0.469513
v 0.132623 -2.22937 -0.467309
v 0.132877 -2.22396 -0.469513
v 0.227208 -2.39812 -0.493416
v 0.132623 -2.22937 -0.467309
v -0.256733 -2.29659 -0.646883
v -0.1821 -2.1338 -0.8852
v -0.1416 -2.2641 -0.838
v -0.261186 -2.28971 -0.646056
v -0.258786 -2.08085 -0.777302
v -0.281229 -2.0877 -0.732153
v -0.281229 -2.0877 -0.732153
v -0.175766 -2.00573 -0.872917
v -0.258786 -2.08085 -0.777302
v -0.270128 -2.06593 -0.728127
v -0.229036 -1.98535 -0.713226
v -0.173566 -1.99734 -0.866277
v -0.227422 -1.98218 -0.712641
v -0.227422 -1.98218 -0.712641
v -0.137006 -2.00137 -0.591569
v -0.173566 -1.99734 -0.866277
v -0.171622 -1.99312 -0.582845
v -0.171622 -1.99312 -0.582845
v -0.227423 -1.98218 -0.712641
v -0.17149 -1.99412 -0.581647
v -0.137006 -2.00137 -0.591569
v -0.171622 -1.99312 -0.582845
v -0.17149 -1.99412 -0.581647
v -0.169035 -2.01278 -0.55939
v -0.156 -2.02138 -0.555719
v -0.128943 -2.03924 -0.548098
v -0.0857135 -2.01361 -0.604497
v -0.10914 -2.05232 -0.54252
v -0.0858219 -2.06771 -0.535951
v -0.0752132 -2.01611 -0.607143
v -0.0857135 -2.01361 -0.604497
v -0.0752132 -2.01611 -0.607143
v -0.068883 -2.01762 -0.608738
v -0.107881 -2.01353 -0.914135
v -0.0417777 -2.02409 -0.61557
v -0.0392164 -2.0247 -0.616215
v -0.0384186 -2.02489 -0.616417
v 0.0353281 -2.04905 -1.03213
v -0.1821 -2.1338 -0.8852
v -0.107881 -2.01353 -0.914135
v 0.035328 -2.04905 -1.03213
v -0.107881 -2.01353 -0.914134
v -0.1821 -2.1338 -0.8852
v -0.170043 -1.99832 -0.875382
v -0.170043 -1.99832 -0.875382
v -0.170467 -1.99822 -0.875117
v -0.170467 -1.99822 -0.875117
v -0.175766 -2.00573 -0.872917
v -0.170467 -1.99822 -0.875117
v -0.1821 -2.1338 -0.8852
v -0.258786 -2.08085 -0.777302
v -0.175766 -2.00573 -0.872917
v 0.035328 -2.04905 -1.03213
v 0.01511 -2.03766 -0.629908
v 0.273491 -2.10576 -1.08613
v 0.00856257 -2.0361 -0.628257
v 0.0151101 -2.03766 -0.629908
v 0.0967104 -2.10024 -0.595902
v 0.0788234 -2.05286 -0.645966
v 0.0788234 -2.05286 -0.645966
v 0.0396338 -2.15054 -0.500613
v 0.106695 -2.12668 -0.567956
v 0.044162 -2.15353 -0.499338
v 0.116553 -2.1528 -0.540366
v 0.0513319 -2.15826 -0.497318
v 0.0650674 -2.16733 -0.493449
v 0.123737 -2.20606 -0.476923
v -0.0741969 -2.07539 -0.532677
v -0.0417776 -2.02409 -0.61557
v -0.0807868 -2.07104 -0.534533
v -0.068883 -2.01762 -0.608738
v -0.0825817 -2.06985 -0.535038
v -0.0858219 -2.06771 -0.535951
v -0.0825817 -2.06985 -0.535039
v -0.10914 -2.05232 -0.54252
v -0.143135 -2.09452 -0.525749
v -0.128943 -2.03924 -0.548098
v -0.179121 -2.05562 -0.542056
v -0.181234 -2.07588 -0.533823
v -0.182629 -2.07052 -0.536027
v -0.179121 -2.05562 -0.542056
v -0.178002 -2.05086 -0.543981
v -0.270128 -2.06593 -0.728127
v -0.176851 -2.04597 -0.545959
v -0.176296 -2.04362 -0.546912
v -0.229036 -1.98535 -0.713226
v -0.173914 -2.0335 -0.551006
v -0.172571 -2.0278 -0.553314
v -0.169035 -2.01278 -0.559391
v -0.169035 -2.01278 -0.559391
v -0.172571 -2.0278 -0.553314
v -0.156 -2.02138 -0.555719
v -0.173914 -2.0335 -0.551006
v -0.176296 -2.04362 -0.546912
v -0.176851 -2.04597 -0.545959
v -0.178002 -2.05086 -0.543981
v -0.281229 -2.0877 -0.732153
v -0.182851 -2.07146 -0.535647
v -0.183086 -2.07498 -0.534215
v -0.183618 -2.07472 -0.534328
v -0.0807868 -2.07104 -0.534533
vt 0.852768 0.338452
vt 0.813873 0.331766
vt 0.809507 0.328355
vt -0.214626 -2.07203
vt -0.525779 -1.99217
vt -0.162934 -1.93429
vt -2.2377 0.591369
vt -2.13233 0.488694
vt -2.2496 0.549792
vt -2.26025 0.5126
vt 0.8432 0.2917
vt 0.805602 0.325304
vt 0.8432 0.2917
vt 0.880173 0.345006
vt 0.852768 0.338452
vt 0.8432 0.2917
vt 0.880549 0.344848
vt 0.880173 0.345006
vt 0.883459 0.343621
vt 0.8628 0.2897
vt 0.883459 0.343621
vt 0.8628 0.2897
vt 0.888477 0.344387
vt -0.747863 -1.88156
vt -0.762203 -1.84893
vt -0.742949 -1.9076
vt -0.742314 -1.91096
vt -0.304897 -1.68984
vt -0.252884 -1.73848
vt -0.22385 -1.76563
vt -0.195186 -1.79243
vt -0.131904 -1.85161
vt -2.06909 0.427058
vt -2.07326 0.419265
vt -2.07117 0.419892
vt -0.785536 -0.9994
vt -0.790714 -0.994026
vt -0.778527 -0.995222
vt -0.118548 -1.86982
vt -0.111919 -1.86506
vt -0.118453 -1.872
vt -0.107466 -1.88261
vt -0.108867 -1.86287
vt -0.0293401 -1.84098
vt -0.050193 -1.82077
vt -0.0364566 -1.81091
vt -0.0215824 -1.83685
vt -0.0292862 -1.80577
vt -0.00143779 -1.82612
vt -0.0247577 -1.80252
vt -0.0107818 -1.79248
vt -0.00142362 -1.78577
vt -0.653523 -0.769191
vt -0.661706 -0.925585
vt -0.6716 -0.931482
vt -0.603849 -0.771535
vt -0.6615 -0.925462
vt -0.603005 -0.771575
vt -0.566596 -0.86889
vt 0.0885359 -1.72121
vt 0.107628 -1.768
vt -0.00122936 -1.78563
vt 0.0890807 -1.72082
vt 0.124555 -1.75898
vt -2.13826 -0.292989
vt -2.27103 -0.498843
vt -2.14703 -0.275932
vt -2.12091 -0.326715
vt -2.10117 -0.365109
vt -2.25352 -0.50219
vt -2.10021 -0.366976
vt -2.09994 -0.367512
vt -1.91549 -0.5619
vt -2.05466 -0.707058
vt -2.07077 -0.694618
vt -1.912 -0.562772
vt -1.91099 -0.563023
vt -1.95416 -0.76754
vt 0.8628 0.2897
vt 0.834332 0.268602
vt 0.849533 0.268962
vt 0.826415 0.275466
vt 0.832521 0.268559
vt 0.830488 0.270035
vt 0.128534 0.0649441
vt 0.130285 0.0616587
vt 0.129619 0.0642895
vt -2.06664 -0.699851
vt -2.07616 -0.699224
vt -2.25886 -0.506864
vt -2.32774 -0.480778
vt -2.38193 -0.371447
vt -2.33502 -0.476943
vt 0.8432 0.2917
vt 0.812057 0.286909
vt 0.825615 0.275874
vt 0.8432 0.2917
vt 0.8115 0.300673
vt 0.812057 0.286909
vt 0.8115 0.300673
vt 0.804469 0.324418
vt -2.2638 -0.0488185
vt -2.40725 -0.22677
vt -2.44261 0.0295017
vt -2.25847 -0.0591851
vt -2.21799 -0.137911
vt -2.21397 -0.145728
vt -2.20354 -0.166028
vt -0.118007 -1.88224
vt -0.117753 -1.88809
vt -2.08308 0.416315
vt -2.26334 0.501803
vt -2.08868 0.414632
vt 0.825615 0.275874
vt 0.8628 0.2897
vt 0.8432 0.2917
vt 0.826415 0.275466
vt 0.858016 0.273524
vt 0.853278 0.26905
vt -0.960425 1.94374
vt -1.10967 1.81972
vt -1.0083 1.92649
vt -0.956157 1.91934
vt -0.940358 1.82904
vt -1.10263 1.81137
vt -0.939737 1.8255
vt -0.744434 -0.230908
vt -0.623346 -0.323318
vt -0.89809 -0.286804
vt -0.61462 -0.287731
vt -1.82807 -0.600819
vt -1.81636 -0.74204
vt -1.82915 -0.599678
vt -0.49961 -0.776453
vt -0.46301 -0.77818
vt -0.463149 -0.779742
vt -0.465745 -0.808773
vt -0.479527 -0.816988
vt -0.508135 -0.834041
vt -0.553843 -0.773894
vt -0.529073 -0.846523
vt -0.553728 -0.861219
vt -0.564945 -0.77337
vt -0.636275 -0.376049
vt -0.638922 -0.386844
vt -0.640517 -0.393352
vt -0.945953 -0.354449
vt -0.647349 -0.421218
vt -0.647995 -0.423851
vt -0.648196 -0.424671
vt -1.06396 -0.501984
vt 0.0682 0.104
vt 0.0583941 0.11741
vt 0.0377435 0.111833
vt 0.0583941 0.11741
vt 0.0682 0.104
vt 0.0676838 0.120843
vt -0.907195 -0.290456
vt -0.90693 -0.29002
vt -1.112 1.81056
vt 0.0684572 0.120044
vt 0.0677472 0.120866
vt 0.0682 0.104
vt 0.0879296 0.100765
vt 0.0684572 0.120044
vt 0.889462 0.322443
vt -0.661689 -0.479701
vt -1.11797 -0.746804
vt -0.660039 -0.47297
vt -0.660446 -0.768864
vt -0.746724 -0.834339
vt -0.727812 -0.765685
vt -0.677749 -0.545202
vt -0.686376 -0.940291
vt -0.757281 -0.872662
vt -0.691163 -0.943144
vt -0.767704 -0.910497
vt -0.698744 -0.947663
vt -0.713267 -0.956321
vt -0.775301 -0.993299
vt -0.56602 -0.868546
vt -0.600297 -0.771702
vt -0.559052 -0.864393
vt -0.571638 -0.773055
vt -0.557154 -0.863262
vt 0.100707 -1.71248
vt 0.0974661 -1.71481
vt 0.124026 -1.69574
vt 0.158023 -1.74115
vt 0.143831 -1.68153
vt 0.194012 -1.69898
vt 0.196125 -1.72085
vt 0.197521 -1.71505
vt -1.89503 -0.567008
vt -1.88993 -0.56828
vt -1.90607 -0.774104
vt -1.8847 -0.569587
vt -1.88217 -0.570217
vt -1.81975 -0.743251
vt -1.87133 -0.572923
vt -1.86522 -0.574449
vt -1.84913 -0.578465
vt 0.183925 -1.65276
vt 0.187461 -1.66896
vt 0.17089 -1.66211
vt 0.188805 -1.67511
vt 0.191187 -1.68603
vt 0.191741 -1.68857
vt 0.192893 -1.69385
vt -1.92939 -0.78244
vt 0.197742 -1.71606
vt 0.197977 -1.71986
vt 0.198509 -1.71958
vt 0.0956711 -1.71609
vn -0.00540278 -0.933915 -0.357455
vn -0.00540278 -0.933915 -0.357455
vn -0.00540278 -0.933915 -0.357455
vn 0.770142 0.577342 0.271215
vn 0.770142 0.577342 0.271215
vn 0.770142 0.577342 0.271215
vn 0.655934 0.257906 0.709391
vn 0.655934 0.257906 0.709391
vn 0.655934 0.257906 0.709391
vn 0.655934 0.257906 0.709391
vn -0.00540278 -0.933915 -0.357455
vn -0.00540278 -0.933915 -0.357455
vn -0.00925107 -0.901241 -0.43322
vn -0.00925108 -0.901241 -0.43322
vn -0.00925107 -0.901241 -0.43322
vn -0.336191 -0.411384 -0.847195
vn -0.336191 -0.411384 -0.847195
vn -0.336191 -0.411384 -0.847195
vn -0.336191 -0.411384 -0.847195
vn -0.336191 -0.411384 -0.847195
vn -0.307317 -0.553529 -0.774055
vn -0.307317 -0.553529 -0.774055
vn -0.307317 -0.553529 -0.774055
vn 0.770142 0.577342 0.271215
vn 0.770142 0.577342 0.271215
vn 0.770142 0.577342 0.271215
vn 0.770142 0.577342 0.271215
vn 0.770142 0.577342 0.271215
vn 0.770142 0.577342 0.271215
vn 0.770142 0.577342 0.271215
vn 0.770142 0.577342 0.271215
vn 0.770142 0.577342 0.271215
vn 0.655934 0.257906 0.709391
vn 0.655934 0.257906 0.709391
vn 0.655934 0.257906 0.709391
vn 0.3248 0.742139 0.586289
vn 0.3248 0.742139 0.586289
vn 0.3248 0.742139 0.586289
vn -0.0116628 0.377417 0.92597
vn -0.0116628 0.377417 0.92597
vn -0.0116628 0.377417 0.92597
vn -0.0116628 0.377417 0.92597
vn -0.0116628 0.377417 0.92597
vn -0.0116628 0.377417 0.92597
vn -0.0116628 0.377417 0.92597
vn -0.0116628 0.377417 0.92597
vn -0.0116628 0.377417 0.92597
vn -0.0116628 0.377417 0.92597
vn -0.0116628 0.377417 0.92597
vn -0.0116628 0.377417 0.92597
vn -0.0116628 0.377417 0.92597
vn -0.0116628 0.377417 0.92597
vn 0.3248 0.742139 0.586289
vn 0.3248 0.742139 0.586289
vn 0.3248 0.742139 0.586289
vn 0.3248 0.742139 0.586289
vn 0.3248 0.742139 0.586289
vn 0.3248 0.742139 0.586289
vn 0.3248 0.742139 0.586289
vn -0.0116628 0.377417 0.92597
vn -0.0116628 0.377417 0.92597
vn -0.0116628 0.377417 0.92597
vn -0.0116628 0.377417 0.92597
vn -0.0116628 0.377417 0.92597
vn -0.347611 -0.330574 0.877432
vn -0.347611 -0.330574 0.877432
vn -0.347611 -0.330574 0.877432
vn -0.347611 -0.330574 0.877432
vn -0.347611 -0.330574 0.877432
vn -0.347611 -0.330574 0.877432
vn -0.347611 -0.330574 0.877432
vn -0.347611 -0.330574 0.877432
vn -0.846234 0.358666 0.394013
vn -0.846234 0.358666 0.394013
vn -0.846234 0.358666 0.394013
vn -0.846234 0.358666 0.394013
vn -0.846234 0.358666 0.394013
vn -0.846234 0.358666 0.394013
vn -0.842034 -0.28004 -0.461038
vn -0.842034 -0.28004 -0.461038
vn -0.842034 -0.28004 -0.461038
vn -0.842034 -0.28004 -0.461038
vn -0.842034 -0.28004 -0.461038
vn -0.842034 -0.28004 -0.461038
vn -0.257122 -0.134495 -0.956974
vn -0.257122 -0.134495 -0.956974
vn -0.257122 -0.134495 -0.956974
vn -0.846234 0.358666 0.394013
vn -0.846234 0.358666 0.394013
vn -0.347611 -0.330574 0.877432
vn -0.347611 -0.330574 0.877432
vn -0.347611 -0.330574 0.877432
vn -0.347611 -0.330574 0.877432
vn -0.302243 -0.89286 -0.333842
vn -0.302243 -0.89286 -0.333842
vn -0.302243 -0.89286 -0.333842
vn -0.0516369 -0.939937 -0.337419
vn -0.0516369 -0.939937 -0.337419
vn -0.0516369 -0.939937 -0.337419
vn -0.00540278 -0.933915 -0.357455
vn -0.00540278 -0.933915 -0.357455
vn -0.347611 -0.330574 0.877432
vn -0.347611 -0.330574 0.877432
vn -0.347611 -0.330574 0.877432
vn -0.347611 -0.330574 0.877432
vn -0.347611 -0.330574 0.877432
vn -0.347611 -0.330574 0.877432
vn -0.347611 -0.330574 0.877432
vn -0.0116628 0.377417 0.92597
vn -0.0116628 0.377417 0.92597
vn 0.655934 0.257906 0.709391
vn 0.655934 0.257906 0.709391
vn 0.655934 0.257906 0.709391
vn -0.744248 -0.419573 -0.519668
vn -0.744248 -0.419573 -0.519668
vn -0.744248 -0.419573 -0.519668
vn -0.744248 -0.419573 -0.519668
vn -0.842034 -0.28004 -0.461038
vn -0.842034 -0.28004 -0.461038
vn -0.81393 0.476511 -0.332348
vn -0.81393 0.476511 -0.332348
vn -0.81393 0.476511 -0.332348
vn -0.81393 0.476511 -0.332348
vn -0.81393 0.476511 -0.332348
vn -0.81393 0.476511 -0.332348
vn -0.81393 0.476511 -0.332348
vn 0.228168 0.973489 -0.0160888
vn 0.228168 0.973489 -0.0160888
vn 0.228168 0.973489 -0.0160888
vn 0.228168 0.973489 -0.0160888
vn -0.846234 0.358666 0.394013
vn -0.846234 0.358666 0.394013
vn -0.846234 0.358666 0.394013
vn 0.3248 0.742139 0.586289
vn 0.3248 0.742139 0.586289
vn 0.3248 0.742139 0.586289
vn 0.3248 0.742139 0.586289
vn 0.3248 0.742139 0.586289
vn 0.3248 0.742139 0.586289
vn 0.3248 0.742139 0.586289
vn 0.3248 0.742139 0.586289
vn 0.3248 0.742139 0.586289
vn 0.3248 0.742139 0.586289
vn 0.228168 0.973489 -0.0160888
vn 0.228168 0.973489 -0.0160888
vn 0.228168 0.973489 -0.0160888
vn 0.228168 0.973489 -0.0160888
vn 0.228168 0.973489 -0.0160888
vn 0.228168 0.973489 -0.0160888
vn 0.228168 0.973489 -0.0160888
vn 0.228168 0.973489 -0.0160888
vn -0.598176 0.181347 -0.780576
vn -0.598176 0.181347 -0.780576
vn -0.598176 0.181347 -0.780576
vn -0.506987 0.107103 -0.855274
vn -0.506987 0.107103 -0.855274
vn -0.506987 0.107103 -0.855274
vn 0.228168 0.973489 -0.0160888
vn 0.228168 0.973489 -0.0160888
vn -0.81393 0.476511 -0.332348
vn -0.506987 0.107103 -0.855274
vn -0.506987 0.107103 -0.855274
vn -0.788078 0.0972751 -0.607841
vn -0.788078 0.0972751 -0.607841
vn -0.788078 0.0972751 -0.607841
vn -0.307317 -0.553529 -0.774055
vn 0.228168 0.973489 -0.0160888
vn 0.228168 0.973489 -0.0160888
vn 0.228168 0.973489 -0.0160888
vn 0.3248 0.742139 0.586289
vn 0.3248 0.742139 0.586289
vn 0.3248 0.742139 0.586289
vn 0.228168 0.973489 -0.0160888
vn 0.3248 0.742139 0.586289
vn 0.3248 0.742139 0.586289
vn 0.3248 0.742139 0.586289
vn 0.3248 0.742139 0.586289
vn 0.3248 0.742139 0.586289
vn 0.3248 0.742139 0.586289
vn 0.3248 0.742139 0.586289
vn 0.3248 0.742139 0.586289
vn 0.3248 0.742139 0.586289
vn 0.3248 0.742139 0.586289
vn 0.3248 0.742139 0.586289
vn 0.3248 0.742139 0.586289
vn -0.0116628 0.377417 0.92597
vn -0.0116628 0.377417 0.92597
vn -0.0116628 0.377417 0.92597
vn -0.0116628 0.377417 0.92597
vn -0.0116628 0.377417 0.92597
vn -0.0116628 0.377417 0.92597
vn -0.0116628 0.377417 0.92597
vn -0.0116628 0.377417 0.92597
vn -0.846234 0.358666 0.394013
vn -0.846234 0.358666 0.394013
vn -0.846234 0.358666 0.394013
vn -0.846234 0.358666 0.394013
vn -0.846234 0.358666 0.394013
vn -0.846234 0.358666 0.394013
vn -0.846234 0.358666 0.394013
vn -0.846234 0.358666 0.394013
vn -0.846234 0.358666 0.394013
vn -0.0116628 0.377417 0.92597
vn -0.0116628 0.377417 0.92597
vn -0.0116628 0.377417 0.92597
vn -0.0116628 0.377417 0.92597
vn -0.0116628 0.377417 0.92597
vn -0.0116628 0.377417 0.92597
vn -0.0116628 0.377417 0.92597
vn -0.846234 0.358666 0.394013
vn -0.0116628 0.377417 0.92597
vn -0.0116628 0.377417 0.92597
vn -0.0116628 0.377417 0.92597
vn -0.0116628 0.377417 0.92597
f 1/1/1 2/2/2 3/3/3 
f 4/4/4 5/5/5 6/6/6 
f 7/7/7 8/8/8 9/9/9 
f 9/9/9 8/8/8 10/10/10 
f 11/11/11 3/3/3 12/12/12 
f 1/1/1 3/3/3 11/11/11 
f 13/13/13 14/14/14 15/15/15 
f 16/16/16 17/17/17 18/18/18 
f 16/16/16 19/19/19 17/17/17 
f 20/20/20 19/19/19 16/16/16 
f 21/21/21 22/22/22 23/23/23 
f 5/5/5 24/24/24 25/25/25 
f 5/5/5 26/26/26 24/24/24 
f 26/26/26 5/5/5 27/27/27 
f 28/28/28 5/5/5 25/25/25 
f 29/29/29 5/5/5 28/28/28 
f 30/30/30 5/5/5 29/29/29 
f 31/31/31 5/5/5 30/30/30 
f 6/6/6 5/5/5 31/31/31 
f 6/6/6 31/31/31 32/32/32 
f 33/33/33 34/34/34 8/8/8 
f 33/33/33 35/35/35 34/34/34 
f 36/36/36 37/37/37 38/38/38 
f 39/39/39 40/40/40 41/41/41 
f 40/40/40 42/42/42 41/41/41 
f 43/43/43 42/42/42 40/40/40 
f 43/43/43 44/44/44 42/42/42 
f 45/45/45 44/44/44 43/43/43 
f 46/46/46 44/44/44 45/45/45 
f 46/46/46 47/47/47 44/44/44 
f 48/48/48 47/47/47 46/46/46 
f 48/48/48 49/49/49 47/47/47 
f 50/50/50 49/49/49 48/48/48 
f 51/51/51 49/49/49 50/50/50 
f 51/51/51 52/52/52 49/49/49 
f 53/53/53 54/54/54 55/55/55 
f 56/56/56 54/54/54 53/53/53 
f 56/56/56 57/57/57 54/54/54 
f 58/58/58 57/57/57 56/56/56 
f 57/57/57 58/58/58 59/59/59 
f 60/60/60 61/61/61 62/62/62 
f 63/63/63 61/61/61 60/60/60 
f 64/64/64 61/61/61 63/63/63 
f 65/65/65 66/66/66 67/67/67 
f 68/68/68 66/66/66 65/65/65 
f 69/69/69 66/66/66 68/68/68 
f 69/69/69 70/70/70 66/66/66 
f 71/71/71 70/70/70 69/69/69 
f 72/72/72 70/70/70 71/71/71 
f 73/73/73 74/74/74 75/75/75 
f 76/76/76 74/74/74 73/73/73 
f 77/77/77 74/74/74 76/76/76 
f 74/74/74 77/77/77 78/78/78 
f 79/79/79 80/80/80 81/81/81 
f 82/82/82 80/80/80 79/79/79 
f 82/82/82 83/83/83 80/80/80 
f 84/84/84 83/83/83 82/82/82 
f 85/85/85 86/86/86 87/87/87 
f 75/75/75 88/88/88 89/89/89 
f 75/75/75 74/74/74 88/88/88 
f 90/90/90 66/66/66 70/70/70 
f 91/91/91 92/92/92 66/66/66 
f 92/92/92 91/91/91 93/93/93 
f 94/94/94 95/95/95 96/96/96 
f 97/97/97 98/98/98 99/99/99 
f 11/11/11 12/12/12 100/100/100 
f 100/100/100 12/12/12 101/101/101 
f 102/102/102 103/103/103 104/104/104 
f 105/105/105 103/103/103 102/102/102 
f 103/103/103 105/105/105 106/106/106 
f 103/103/103 106/106/106 92/92/92 
f 92/92/92 106/106/106 107/107/107 
f 92/92/92 107/107/107 108/108/108 
f 67/67/67 92/92/92 108/108/108 
f 67/67/67 66/66/66 92/92/92 
f 49/49/49 62/62/62 61/61/61 
f 62/62/62 49/49/49 52/52/52 
f 109/109/109 42/42/42 110/110/110 
f 42/42/42 109/109/109 41/41/41 
f 8/8/8 34/34/34 111/111/111 
f 8/8/8 111/111/111 112/112/112 
f 10/10/10 8/8/8 112/112/112 
f 112/112/112 111/111/111 113/113/113 
f 114/114/114 115/115/115 116/116/116 
f 117/117/117 115/115/115 114/114/114 
f 81/81/81 118/118/118 79/79/79 
f 119/119/119 118/118/118 81/81/81 
f 120/120/120 121/121/121 122/122/122 
f 123/123/123 121/121/121 120/120/120 
f 124/124/124 121/121/121 123/123/123 
f 124/124/124 125/125/125 121/121/121 
f 126/126/126 125/125/125 124/124/124 
f 127/127/127 128/128/128 129/129/129 
f 127/127/127 130/130/130 128/128/128 
f 131/131/131 132/132/132 133/133/133 
f 134/134/134 135/135/135 136/136/136 
f 137/137/137 134/134/134 136/136/136 
f 138/138/138 134/134/134 137/137/137 
f 134/134/134 138/138/138 139/139/139 
f 139/139/139 140/140/140 134/134/134 
f 141/141/141 140/140/140 139/139/139 
f 140/140/140 141/141/141 142/142/142 
f 140/140/140 142/142/142 143/143/143 
f 129/129/129 144/144/144 145/145/145 
f 129/129/129 128/128/128 144/144/144 
f 129/129/129 145/145/145 146/146/146 
f 146/146/146 147/147/147 129/129/129 
f 148/148/148 147/147/147 146/146/146 
f 149/149/149 147/147/147 148/148/148 
f 147/147/147 149/149/149 150/150/150 
f 147/147/147 150/150/150 151/151/151 
f 152/152/152 153/153/153 154/154/154 
f 155/155/155 156/156/156 157/157/157 
f 129/129/129 147/147/147 158/158/158 
f 129/129/129 158/158/158 159/159/159 
f 121/121/121 125/125/125 160/160/160 
f 157/157/157 161/161/161 162/162/162 
f 157/157/157 156/156/156 161/161/161 
f 163/163/163 164/164/164 165/165/165 
f 23/23/23 22/22/22 166/166/166 
f 151/151/151 167/167/167 168/168/168 
f 151/151/151 169/169/169 167/167/167 
f 151/151/151 150/150/150 169/169/169 
f 170/170/170 53/53/53 171/171/171 
f 172/172/172 170/170/170 171/171/171 
f 168/168/168 167/167/167 173/173/173 
f 55/55/55 171/171/171 53/53/53 
f 174/174/174 171/171/171 55/55/55 
f 174/174/174 175/175/175 171/171/171 
f 176/176/176 175/175/175 174/174/174 
f 176/176/176 177/177/177 175/175/175 
f 178/178/178 177/177/177 176/176/176 
f 179/179/179 177/177/177 178/178/178 
f 180/180/180 177/177/177 179/179/179 
f 38/38/38 177/177/177 180/180/180 
f 38/38/38 37/37/37 177/177/177 
f 181/181/181 58/58/58 182/182/182 
f 59/59/59 58/58/58 181/181/181 
f 182/182/182 183/183/183 181/181/181 
f 184/184/184 183/183/183 182/182/182 
f 184/184/184 185/185/185 183/183/183 
f 143/143/143 185/185/185 184/184/184 
f 143/143/143 142/142/142 185/185/185 
f 186/186/186 64/64/64 187/187/187 
f 188/188/188 64/64/64 186/186/186 
f 189/189/189 64/64/64 188/188/188 
f 190/190/190 189/189/189 188/188/188 
f 189/189/189 190/190/190 191/191/191 
f 191/191/191 192/192/192 189/189/189 
f 191/191/191 193/193/193 192/192/192 
f 78/78/78 77/77/77 194/194/194 
f 78/78/78 194/194/194 195/195/195 
f 195/195/195 196/196/196 78/78/78 
f 197/197/197 196/196/196 195/195/195 
f 198/198/198 196/196/196 197/197/197 
f 198/198/198 199/199/199 196/196/196 
f 200/200/200 199/199/199 198/198/198 
f 201/201/201 199/199/199 200/200/200 
f 199/199/199 201/201/201 133/133/133 
f 133/133/133 132/132/132 199/199/199 
f 133/133/133 201/201/201 202/202/202 
f 203/203/203 204/204/204 205/205/205 
f 204/204/204 206/206/206 205/205/205 
f 207/207/207 205/205/205 206/206/206 
f 207/207/207 190/190/190 205/205/205 
f 207/207/207 208/208/208 190/190/190 
f 209/209/209 190/190/190 208/208/208 
f 191/191/191 190/190/190 209/209/209 
f 78/78/78 196/196/196 210/210/210 
f 193/193/193 211/211/211 192/192/192 
f 211/211/211 212/212/212 192/192/192 
f 211/211/211 213/213/213 212/212/212 
f 187/187/187 64/64/64 214/214/214 
f 214/214/214 64/64/64 63/63/63 
