v 0.2657 1.8068 0.7886
v -0.0310461 1.72988 0.680859
v 0.3712 1.4242 0.8206
v 0.2657 1.8068 0.7886
v 0.0310917 1.87847 0.627255
v -0.0310461 1.72988 0.680859
v 0.0310917 1.87847 0.627255
v 0.2657 1.8068 0.7886
v 0.0397897 1.89193 0.613484
v 0.0855086 1.66562 0.287141
v 0.0310921 1.87847 0.627255
v 0.0397901 1.89193 0.613484
v 0.084907 1.66402 0.287517
v 0.0849064 1.66402 0.287518
v -0.0310457 1.72988 0.68086
v 0.0802819 1.65168 0.290412
v 0.0802775 1.65166 0.290415
v -0.042568 1.68505 0.676033
v -0.0425684 1.68505 0.676032
v -0.184427 1.31629 0.773159
v 0.3712 1.4242 0.8206
v -0.0425683 1.68505 0.676032
v -0.209409 1.24809 0.787479
v 0.3712 1.4242 0.8206
v -0.184427 1.31629 0.773159
v -0.193014 1.21191 0.799101
v -0.102265 1.17993 0.819734
v -0.184169 1.1924 0.805371
v -0.186229 1.19265 0.801121
v -0.102265 1.17993 0.819734
v -0.184169 1.1924 0.805371
v -0.197271 1.19281 0.704942
v -0.211537 1.19573 0.748908
v -0.211537 1.19573 0.748908
v -0.184427 1.31629 0.773159
v -0.197271 1.19281 0.704942
v -0.209552 1.24456 0.784878
v -0.209409 1.24809 0.787479
v -0.193014 1.21191 0.799101
v -0.209409 1.24809 0.787478
v -0.209552 1.24456 0.784877
v -0.211537 1.19573 0.748908
v -0.186229 1.19265 0.801121
v -0.184168 1.1924 0.805371
v -0.120253 1.17702 0.467583
v -0.0298191 1.35791 0.359332
v -0.102841 1.17346 0.413921
v -0.0924208 1.19087 0.398519
v -0.0992251 1.17272 0.402778
v -0.0992251 1.17272 0.402778
v -0.0924209 1.19087 0.398519
v -0.0761058 1.16901 0.395485
v -0.0761058 1.16901 0.395485
v -0.102841 1.17346 0.413921
v -0.0992251 1.17272 0.402778
v -0.120253 1.17702 0.467583
v -0.0742275 1.16871 0.394893
v 0.0155197 1.15999 0.715831
v 0.0137927 1.16028 0.717643
v -0.0865584 1.17754 0.822488
v -0.0861765 1.17748 0.822555
v 0.0137927 1.16028 0.717643
v 0.402381 1.25048 0.575803
v -0.0861766 1.17748 0.822555
v 0.0155197 1.15999 0.715831
v 0.295957 1.12186 0.438657
v 0.281532 1.11801 0.44307
v 0.263964 1.11725 0.455103
v 0.281255 1.11793 0.443155
v 0.264401 1.11717 0.454645
v 0.27292 1.11571 0.445704
v 0.27292 1.11571 0.445705
v 0.260699 1.11757 0.443449
v 0.281255 1.11793 0.443155
v 0.264401 1.11717 0.454645
v 0.260699 1.11757 0.443449
v 0.27292 1.11571 0.445704
v 0.258144 1.11795 0.442978
v 0.257451 1.11806 0.44285
v 0.258144 1.11795 0.442978
v 0.257451 1.11806 0.44285
v 0.295957 1.12186 0.438657
v 0.281532 1.11801 0.44307
v 0.239884 1.20338 0.342887
v 0.0781506 1.20477 0.340187
v 0.223697 1.21856 0.325009
v 0.402381 1.25048 0.575803
v 0.239884 1.20338 0.342887
v 0.223697 1.21856 0.325009
v 0.319948 1.12827 0.431318
v 0.319948 1.12827 0.431318
v 0.319948 1.12827 0.431318
v 0.187815 1.28686 0.294654
v 0.182787 1.30935 0.293859
v 0.425843 1.28526 0.616925
v 0.381093 1.39133 0.83048
v 0.425843 1.28526 0.616925
v 0.381093 1.39133 0.83048
v -0.0865584 1.17754 0.822488
v -0.0861765 1.17748 0.822555
v 0.406163 1.39551 0.818558
v 0.3712 1.4242 0.8206
v 0.381093 1.39133 0.830481
v 0.430646 1.3996 0.806914
v 0.430646 1.3996 0.806914
v 0.2657 1.8068 0.7886
v 0.3712 1.4242 0.8206
v 0.49866 1.41639 0.783792
v 0.511734 1.44266 0.77552
v 0.517409 1.42102 0.777418
v 0.517409 1.42102 0.777418
v 0.165346 1.38735 0.291103
v 0.511734 1.44266 0.77552
v 0.167011 1.37991 0.291366
v 0.169836 1.36727 0.291813
v 0.170578 1.36396 0.29193
v 0.474833 1.3579 0.702793
v 0.172754 1.35422 0.292274
v 0.177092 1.33482 0.292959
v 0.178252 1.32963 0.293143
v 0.179397 1.32451 0.293323
v 0.182034 1.31272 0.29374
v 0.182034 1.31272 0.29374
v 0.182787 1.30935 0.293859
v -0.0298191 1.35791 0.359332
v 0.179397 1.32451 0.293323
v 0.178252 1.32963 0.293143
v 0.177092 1.33482 0.292959
v 0.172754 1.35422 0.292274
v 0.170578 1.36396 0.29193
v 0.169836 1.36727 0.291813
v 0.167011 1.37991 0.291366
v 0.165346 1.38735 0.291103
v 0.165096 1.38847 0.291064
v 0.164167 1.39263 0.290917
v 0.163575 1.39527 0.290823
v 0.152883 1.4431 0.289134
v 0.0681253 1.61924 0.298022
v 0.119537 1.59224 0.283865
v 0.0790133 1.64829 0.291206
v 0.101769 1.67171 0.281057
v 0.101769 1.67171 0.281058
v 0.23862 1.97272 0.547198
v 0.119537 1.59224 0.283865
v 0.127651 1.90009 0.377308
v 0.123834 1.89319 0.370283
v 0.096552 1.69504 0.280233
v 0.123833 1.89319 0.370282
v 0.123833 1.89319 0.370282
v 0.0965519 1.69504 0.280233
v 0.123828 1.89318 0.370272
v 0.0965451 1.69507 0.280232
v 0.123828 1.89318 0.370272
v 0.0965454 1.69507 0.280232
v 0.121561 1.94149 0.418163
v 0.121444 1.94399 0.420634
v 0.121561 1.94149 0.418162
v 0.121444 1.94399 0.420634
v 0.182194 1.99876 0.477675
v 0.127651 1.90009 0.377308
v 0.123834 1.89319 0.370283
v 0.182194 1.99876 0.477675
v 0.188442 2.01006 0.489171
v 0.188442 2.01006 0.489171
v 0.0674658 1.92919 0.564885
v 0.23862 1.97272 0.547198
v 0.157413 2.00767 0.485445
v 0.118596 2.00467 0.480783
v 0.118596 2.00467 0.480783
v 0.0943575 1.68923 0.281602
v 0.0674662 1.92919 0.564885
v 0.0943575 1.68923 0.281601
v 0.096545 1.69507 0.280232
v 0.0876155 1.67124 0.285822
v 0.0855086 1.66562 0.287141
v 0.0849064 1.66402 0.287518
v 0.0802774 1.65166 0.290415
v 0.118596 2.00467 0.480783
v 0.157413 2.00767 0.485445
v 0.188442 2.01006 0.489171
v 0.0876279 1.67128 0.285814
v 0.0876156 1.67124 0.285822
v 0.0480166 1.90467 0.60046
v 0.0480163 1.90467 0.60046
v 0.3477 1.91643 0.680008
v 0.0674658 1.92919 0.564885
v 0.0480162 1.90467 0.600459
v 0.447432 1.8468 0.79657
v 0.3477 1.91643 0.680008
v 0.447431 1.8468 0.79657
v 0.2657 1.8068 0.7886
v 0.511734 1.44266 0.77552
v 0.3477 1.91643 0.680008
v 0.447431 1.8468 0.79657
v 0.23862 1.97272 0.547198
v 0.163575 1.39527 0.290824
v 0.152883 1.4431 0.289134
v 0.164167 1.39263 0.290917
v 0.165096 1.38847 0.291064
v 0.0855108 1.66563 0.287139
v 0.0681254 1.61924 0.298022
v 0.0681343 1.61926 0.298016
v 0.0790133 1.64829 0.291207
v 0.0790144 1.64829 0.291206
v 0.187815 1.28686 0.294654
v 0.197615 1.24303 0.296202
v 0.0781506 1.20477 0.340187
v 0.0394035 1.19237 0.354453
v 0.00731853 1.18209 0.366267
v -0.0182521 1.1739 0.375681
v -0.0740881 1.16869 0.394849
v -0.0477179 1.16447 0.38653
v -0.0477179 1.16447 0.38653
v -0.0182521 1.1739 0.375681
v 0.00731853 1.18209 0.366267
v 0.0394035 1.19237 0.354454
v -0.0741175 1.1687 0.394858
v -0.0742275 1.16871 0.394893
v -0.0741175 1.1687 0.394858
v 0.263964 1.11725 0.455103
v -0.0477178 1.16447 0.38653
v 0.197616 1.24303 0.296202
v 0.197615 1.24303 0.296202
v 0.474832 1.3579 0.702793
v 0.406163 1.39551 0.818557
v 0.430646 1.3996 0.806914
v 0.49866 1.41639 0.783792
v 0.517409 1.42102 0.777418
vt 0.495 0.5816
vt 0.451152 0.578677
vt 0.5103 0.5374
vt 0.697 0.9419
vt 0.706272 0.979063
vt 0.68656 0.979484
vt 0.706272 0.979063
vt 0.697 0.9419
vt 0.709513 0.980136
vt 1.65142 0.243704
vt 1.87234 0.583021
vt 1.88632 0.567169
vt 1.64975 0.244256
vt 1.64975 0.244257
vt 1.71811 0.653924
vt 1.63695 0.248499
vt 1.63693 0.248503
vt 1.67159 0.653108
vt 0.44942 0.573946
vt 0.463933 0.50587
vt 0.5103 0.5374
vt 0.44942 0.573946
vt 0.464179 0.495562
vt 0.5103 0.5374
vt 0.463933 0.50587
vt 0.466995 0.490968
vt 0.476393 0.489154
vt 0.468515 0.488489
vt 0.81939 -0.366771
vt 0.838006 -0.28185
vt 0.823641 -0.364696
vt 0.723199 -0.377706
vt 0.767171 -0.392252
vt 1.1637 0.776988
vt 1.28883 0.7911
vt 1.16066 0.730772
vt 1.21438 0.810355
vt 1.21804 0.812768
vt 1.3045 0.642442
vt 1.34202 0.624976
vt 1.33835 0.622558
vt 1.28771 0.589126
vt 1.28452 0.647143
vt 1.28426 0.651866
vt 1.14428 0.481269
vt 1.33203 0.349487
vt 1.14058 0.424862
vt 1.15866 0.406907
vt 1.13981 0.413148
vt 1.13006 0.221406
vt 1.14832 0.213605
vt 1.12634 0.197167
vt 0.413703 -0.254327
vt 0.432141 -0.281427
vt 0.420996 -0.277741
vt 0.48581 -0.29918
vt 0.41311 -0.252425
vt 0.73409 -0.1624
vt 0.735902 -0.164152
vt 0.840761 -0.265962
vt 0.840828 -0.265576
vt -0.24098 1.2079
vt -0.657438 1.13163
vt -0.133841 1.30699
vt -0.242831 1.20619
vt -0.543381 0.948135
vt -0.527922 0.949976
vt -0.509094 0.959952
vt -0.527625 0.950011
vt -0.509562 0.959519
vt -0.518692 0.951075
vt -0.277781 -0.38593
vt -0.265561 -0.388852
vt -0.286117 -0.389315
vt 0.472869 0.090102
vt 0.461673 0.0863837
vt 0.463928 0.0987447
vt 0.461201 0.083799
vt 0.461073 0.0830983
vt -0.263005 -0.389463
vt -0.262312 -0.389629
vt -0.300818 -0.395284
vt -0.286394 -0.389427
vt -0.244745 -0.521049
vt -0.0830103 -0.52401
vt -0.228558 -0.544505
vt 1.2378 -0.702237
vt 1.1901 -0.418337
vt 1.20548 -0.394341
vt 1.11405 -0.537029
vt -0.569093 0.945072
vt -0.32481 -0.405025
vt 1.27464 -0.348612
vt 1.2974 -0.344989
vt 1.27302 -0.749257
vt -0.634624 1.42254
vt -0.682582 1.18472
vt 0.512406 0.533079
vt 0.477904 0.489282
vt 0.477941 0.489285
vt 0.515192 0.53392
vt 0.5103 0.5374
vt 0.512406 0.533079
vt 0.517913 0.534741
vt 0.517913 0.534741
vt 0.495 0.5816
vt 0.5103 0.5374
vt 0.526385 0.536934
vt 0.527892 0.54004
vt 0.528721 0.537539
vt 1.41048 -0.932769
vt 1.37639 -0.332418
vt 1.43239 -0.927873
vt 1.36885 -0.333618
vt 1.35606 -0.335654
vt 1.3527 -0.336189
vt 1.34656 -0.84744
vt 1.34284 -0.337757
vt 1.3232 -0.340884
vt 1.31794 -0.34172
vt 1.31276 -0.342545
vt 1.30081 -0.344446
vt 1.27082 -0.0798965
vt 1.26743 -0.0805733
vt 1.31625 0.141828
vt 1.28268 -0.0775257
vt 1.28783 -0.0764971
vt 1.29305 -0.0754538
vt 1.31255 -0.0715551
vt 1.32234 -0.069599
vt 1.32567 -0.0689322
vt 1.33838 -0.0663927
vt 1.34586 -0.0648965
vt 1.34698 -0.064672
vt 1.35116 -0.0638365
vt 1.35382 -0.0633047
vt 1.4019 -0.053694
vt 1.579 0.0295297
vt 1.55185 -0.0237213
vt 1.60821 0.0170461
vt 1.63175 -0.00775037
vt 1.66431 -0.286594
vt 1.9691 -0.582008
vt 1.58385 -0.299401
vt 1.89557 -0.379416
vt 1.88858 -0.371497
vt 1.68794 -0.282834
vt 1.88857 -0.371496
vt 1.88857 -0.371496
vt 1.68794 -0.282834
vt 1.88856 -0.371484
vt 1.68797 -0.282829
vt 1.88761 0.309848
vt 1.68199 0.233581
vt 1.93776 0.355871
vt 1.94035 0.358246
vt -0.0885136 -1.67218
vt -0.0883966 -1.67569
vt -0.149176 -1.75475
vt -0.0946069 -1.61401
vt -0.0907879 -1.60416
vt 1.99547 -0.492564
vt 2.00692 -0.505524
vt 0.73818 0.975562
vt 0.718096 0.981707
vt 0.731879 0.967619
vt 0.736815 0.978534
vt 0.735108 0.982252
vt 2.00333 0.41605
vt 1.67593 0.235588
vt 1.92499 0.51221
vt 1.64937 -0.000546863
vt 1.65524 -0.00305504
vt 1.63129 0.00718315
vt 1.62563 0.00959891
vt 1.62402 0.0102893
vt 1.6116 0.0155967
vt -0.0855471 -1.76113
vt -0.124383 -1.76654
vt -0.155426 -1.77086
vt 1.65729 0.241761
vt 1.65726 0.241772
vt 1.89954 0.552177
vt 0.712579 0.98115
vt 0.723704 0.949378
vt 0.718096 0.981707
vt 0.712579 0.98115
vt 0.711055 0.927628
vt 0.723704 0.949378
vt 0.711055 0.927628
vt 0.697 0.9419
vt 0.678348 0.880759
vt 1.91211 -0.753638
vt 1.84161 -0.906643
vt 0.731879 0.967619
vt 1.38441 -0.331142
vt 1.43283 -0.323435
vt 1.38173 -0.331568
vt 1.37752 -0.332238
vt 1.65143 0.243703
vt 1.60328 0.259649
vt 1.6033 0.259641
vt 1.63343 0.249662
vt 1.63344 0.249661
vt 1.24483 -0.0850924
vt 1.20076 -0.0939016
vt 1.16229 0.0333409
vt 1.14982 0.0746106
vt 1.13949 0.108784
vt 1.13126 0.13602
vt 1.12601 0.195052
vt 1.12177 0.167404
vt 0.0428594 -0.462593
vt 0.0133933 -0.476971
vt -0.0121776 -0.489448
vt -0.0442628 -0.505103
vt 1.12602 0.195082
vt 1.12604 0.195198
vt 0.413075 -0.252313
vt 0.473328 0.0896588
vt 0.404747 -0.225578
vt -0.202476 -0.582301
vt 1.23025 -0.355676
vt -0.735086 1.29559
vt -0.661492 1.4144
vt -0.68773 1.40645
vt -0.760622 1.39508
vt -0.780716 1.39195
vn -0.337923 -0.014472 0.941062
vn -0.337924 -0.0144723 0.941062
vn -0.337924 -0.0144723 0.941062
vn -0.405769 0.455538 0.792361
vn -0.405769 0.455538 0.792361
vn -0.405769 0.455538 0.792361
vn -0.194464 0.759882 0.620292
vn -0.194468 0.759879 0.620296
vn -0.194472 0.759873 0.620302
vn -0.911062 0.267862 -0.313394
vn -0.911054 0.267879 -0.313404
vn -0.911037 0.267899 -0.313436
vn -0.911089 0.267805 -0.313364
vn -0.911037 0.267914 -0.313423
vn -0.911037 0.267914 -0.313423
vn -0.911037 0.267915 -0.313423
vn -0.911035 0.267919 -0.313423
vn -0.911036 0.267917 -0.313423
vn -0.337924 -0.0144725 0.941062
vn -0.139169 0.301937 0.943115
vn -0.139169 0.301937 0.943115
vn -0.139169 0.301937 0.943115
vn -0.130343 0.24924 0.95963
vn -0.130344 0.249241 0.95963
vn -0.130345 0.249245 0.959629
vn -0.130343 0.249243 0.95963
vn -0.130345 0.249246 0.959628
vn -0.130342 0.249249 0.959628
vn -0.153209 -0.988064 0.0160335
vn -0.153203 -0.988065 0.0160304
vn -0.153246 -0.988056 0.016174
vn -0.153198 -0.988066 0.0159677
vn -0.153179 -0.988069 0.015962
vn -0.911039 0.267912 -0.313419
vn -0.911037 0.267914 -0.313422
vn -0.911038 0.267914 -0.313421
vn -0.911038 0.267913 -0.313421
vn -0.911038 0.267913 -0.313421
vn -0.873749 -0.264957 0.407874
vn -0.873757 -0.264962 0.407853
vn -0.873752 -0.264954 0.407868
vn -0.873746 -0.264952 0.407884
vn -0.873745 -0.26496 0.40788
vn -0.873747 -0.264961 0.407876
vn -0.911037 0.267915 -0.313422
vn -0.911036 0.267913 -0.313425
vn -0.911035 0.267913 -0.313429
vn -0.911034 0.267911 -0.313434
vn -0.911034 0.267912 -0.313433
vn -0.314269 -0.103607 -0.943663
vn -0.314268 -0.103607 -0.943664
vn -0.314275 -0.103612 -0.943661
vn -0.153258 -0.988057 0.0159486
vn -0.153225 -0.988062 0.0159728
vn -0.153213 -0.988064 0.01599
vn -0.153243 -0.98806 0.0159527
vn -0.153265 -0.988057 0.0159391
vn -0.153204 -0.988065 0.0159745
vn -0.153665 -0.988001 0.0155192
vn -0.154126 -0.987936 0.0150709
vn -0.155091 -0.987799 0.0141258
vn 0.359667 -0.803472 0.474418
vn 0.359667 -0.803469 0.474423
vn 0.359669 -0.803469 0.474422
vn 0.359672 -0.803465 0.474427
vn 0.359678 -0.803459 0.474432
vn 0.359676 -0.80346 0.474432
vn 0.359496 -0.803695 0.47417
vn 0.359524 -0.803655 0.474217
vn 0.359524 -0.803655 0.474217
vn 0.359712 -0.803397 0.474511
vn 0.00426302 -0.76019 -0.649687
vn 0.0042749 -0.760465 -0.649365
vn 0.00426302 -0.76019 -0.649687
vn -0.153353 -0.988041 0.0160796
vn -0.153113 -0.98808 0.0159498
vn -0.153251 -0.988058 0.0159965
vn -0.153586 -0.988002 0.0162384
vn -0.153463 -0.988023 0.0161265
vn 0.00418985 -0.75999 -0.649921
vn 0.00423564 -0.760077 -0.64982
vn 0.00420929 -0.759936 -0.649984
vn 0.00428736 -0.760487 -0.64934
vn 0.00427558 -0.760257 -0.649608
vn 0.00427468 -0.760256 -0.649609
vn 0.00427363 -0.760258 -0.649608
vn 0.79478 0.156991 -0.586241
vn 0.79478 0.156992 -0.586241
vn 0.79478 0.156991 -0.586241
vn 0.79478 0.156992 -0.586241
vn 0.359671 -0.803467 0.474423
vn 0.00427489 -0.760257 -0.649608
vn 0.79478 0.156989 -0.586242
vn 0.794779 0.157 -0.58624
vn 0.794779 0.156998 -0.58624
vn 0.359665 -0.803469 0.474424
vn 0.359667 -0.803467 0.474427
vn -0.130194 0.24891 0.959736
vn -0.130119 0.248745 0.959789
vn -0.129889 0.248235 0.959952
vn 0.349603 0.364659 0.863019
vn 0.349603 0.364659 0.863019
vn 0.349609 0.364666 0.863014
vn 0.349598 0.364652 0.863024
vn 0.28287 0.157138 0.946199
vn 0.282871 0.157139 0.946198
vn 0.282869 0.157138 0.946199
vn 0.282872 0.157139 0.946198
vn 0.282873 0.157139 0.946198
vn 0.282874 0.157139 0.946198
vn 0.794781 0.156989 -0.586241
vn 0.794783 0.156976 -0.586241
vn 0.794781 0.156987 -0.586241
vn 0.79478 0.156994 -0.586241
vn 0.794782 0.156979 -0.586241
vn 0.79478 0.156992 -0.586241
vn 0.79478 0.156993 -0.586241
vn 0.794779 0.156999 -0.58624
vn 0.794781 0.156986 -0.586241
vn 0.79478 0.156993 -0.58624
vn 0.79478 0.156993 -0.58624
vn 0.794779 0.157001 -0.58624
vn -0.314267 -0.103608 -0.943664
vn -0.314268 -0.103612 -0.943663
vn -0.314267 -0.103605 -0.943664
vn -0.314266 -0.103609 -0.943664
vn -0.314267 -0.103612 -0.943663
vn -0.314266 -0.103603 -0.943665
vn -0.314266 -0.103607 -0.943664
vn -0.314267 -0.103603 -0.943665
vn -0.314267 -0.103601 -0.943665
vn -0.314267 -0.103602 -0.943665
vn -0.314269 -0.103592 -0.943665
vn -0.314267 -0.103599 -0.943665
vn -0.314264 -0.103615 -0.943664
vn -0.314265 -0.10361 -0.943664
vn -0.314267 -0.103604 -0.943664
vn -0.314267 -0.103605 -0.943664
vn -0.314266 -0.103605 -0.943664
vn -0.314272 -0.103598 -0.943663
vn -0.314268 -0.103606 -0.943664
vn 0.794782 0.15699 -0.586239
vn 0.794781 0.156991 -0.58624
vn 0.79478 0.156991 -0.586241
vn 0.794784 0.156989 -0.586237
vn 0.794784 0.156989 -0.586237
vn 0.794776 0.156993 -0.586245
vn nan nan nan
vn nan nan nan
vn nan nan nan
vn nan nan nan
vn nan nan nan
vn -0.911035 0.267915 -0.313426
vn -0.911059 0.267891 -0.313378
vn -0.911066 0.267884 -0.313364
vn -0.91106 0.26789 -0.313377
vn 0.0307778 0.704387 -0.709148
vn 0.0307593 0.704387 -0.70915
vn 0.0307698 0.704384 -0.709152
vn 0.0308256 0.704366 -0.709168
vn 0.0308488 0.704367 -0.709165
vn 0.794781 0.15699 -0.58624
vn 0.794781 0.156991 -0.58624
vn -0.133878 0.776607 0.615596
vn -0.133881 0.776608 0.615594
vn -0.133887 0.776612 0.615588
vn -0.133878 0.776605 0.615598
vn -0.133887 0.776609 0.615591
vn -0.911037 0.267914 -0.313424
vn -0.911039 0.267911 -0.313419
vn -0.911038 0.267898 -0.313435
vn -0.314265 -0.103605 -0.943665
vn -0.314268 -0.103606 -0.943664
vn -0.314262 -0.103614 -0.943665
vn -0.314261 -0.103624 -0.943664
vn -0.314268 -0.10361 -0.943664
vn -0.314278 -0.10359 -0.943662
vn 0.0308012 0.704364 -0.70917
vn 0.0307986 0.704368 -0.709167
vn 0.0308001 0.704374 -0.70916
vn -0.911037 0.267913 -0.313422
vn -0.911037 0.267914 -0.313424
vn -0.911039 0.267852 -0.313471
vn -0.165311 0.851957 0.496832
vn -0.165314 0.851953 0.496838
vn -0.165314 0.851953 0.496838
vn -0.194476 0.759868 0.620306
vn -0.194474 0.75987 0.620304
vn -0.194471 0.759875 0.620299
vn -0.0312275 -0.056943 0.997889
vn -0.0312275 -0.056943 0.997889
vn -0.0312275 -0.056943 0.997889
vn 0.79478 0.156991 -0.586241
vn 0.794781 0.156991 -0.58624
vn -0.165316 0.851949 0.496843
vn 0.79478 0.156999 -0.58624
vn 0.794782 0.15699 -0.586239
vn 0.794778 0.157004 -0.586241
vn 0.794785 0.156964 -0.586242
vn -0.911036 0.267915 -0.313424
vn -0.911037 0.267913 -0.313423
vn -0.911037 0.267918 -0.31342
vn -0.911037 0.267916 -0.313421
vn -0.911034 0.267924 -0.313423
vn -0.314266 -0.103604 -0.943665
vn -0.314266 -0.103606 -0.943664
vn -0.314266 -0.103604 -0.943665
vn -0.314266 -0.103609 -0.943664
vn -0.314265 -0.103608 -0.943665
vn -0.314266 -0.103609 -0.943664
vn -0.314266 -0.103614 -0.943664
vn -0.314266 -0.103619 -0.943663
vn 0.00426844 -0.760272 -0.649591
vn 0.00427606 -0.760257 -0.649609
vn 0.00427765 -0.760251 -0.649616
vn 0.00427454 -0.760257 -0.649608
vn nan nan nan
vn -0.314281 -0.103616 -0.943658
vn -0.153204 -0.988066 0.0159736
vn -0.153149 -0.988075 0.0159383
vn -0.153202 -0.988066 0.0159663
vn 0.00427333 -0.760256 -0.649609
vn 0.794779 0.156991 -0.586242
vn 0.359669 -0.803467 0.474426
vn 0.359673 -0.803466 0.474424
vn 0.359677 -0.803462 0.474428
vn 0.359662 -0.803469 0.474427
vn 0.359659 -0.80347 0.474429
f 1/1/1 2/2/2 3/3/3 
f 4/4/4 5/5/5 6/6/6 
f 7/7/7 8/8/8 9/9/9 
f 10/10/10 11/11/11 12/12/12 
f 13/13/13 11/11/11 10/10/10 
f 14/14/14 11/11/11 13/13/13 
f 11/11/11 14/14/14 15/15/15 
f 15/15/15 14/14/14 16/16/16 
f 15/15/15 16/16/16 17/17/17 
f 15/15/15 17/17/17 18/18/18 
f 3/3/3 2/2/2 19/19/19 
f 20/20/20 21/21/21 22/22/22 
f 23/23/23 24/24/24 25/25/25 
f 26/26/26 24/24/24 23/23/23 
f 26/26/26 27/27/27 24/24/24 
f 28/28/28 27/27/27 26/26/26 
f 29/29/29 30/30/30 31/31/31 
f 29/29/29 32/32/32 30/30/30 
f 33/33/33 32/32/32 29/29/29 
f 34/34/34 35/35/35 36/36/36 
f 37/37/37 35/35/35 34/34/34 
f 35/35/35 37/37/37 38/38/38 
f 39/39/39 40/40/40 41/41/41 
f 39/39/39 41/41/41 42/42/42 
f 43/43/43 39/39/39 42/42/42 
f 44/44/44 39/39/39 43/43/43 
f 35/35/35 45/45/45 36/36/36 
f 46/46/46 45/45/45 35/35/35 
f 46/46/46 47/47/47 45/45/45 
f 48/48/48 47/47/47 46/46/46 
f 48/48/48 49/49/49 47/47/47 
f 50/50/50 51/51/51 52/52/52 
f 53/53/53 54/54/54 55/55/55 
f 56/56/56 54/54/54 53/53/53 
f 56/56/56 53/53/53 57/57/57 
f 58/58/58 56/56/56 57/57/57 
f 58/58/58 32/32/32 56/56/56 
f 59/59/59 32/32/32 58/58/58 
f 59/59/59 30/30/30 32/32/32 
f 59/59/59 60/60/60 30/30/30 
f 59/59/59 61/61/61 60/60/60 
f 62/62/62 63/63/63 64/64/64 
f 65/65/65 63/63/63 62/62/62 
f 65/65/65 66/66/66 63/63/63 
f 65/65/65 67/67/67 66/66/66 
f 68/68/68 67/67/67 65/65/65 
f 68/68/68 69/69/69 67/67/67 
f 70/70/70 69/69/69 68/68/68 
f 69/69/69 70/70/70 71/71/71 
f 72/72/72 73/73/73 74/74/74 
f 75/75/75 76/76/76 77/77/77 
f 75/75/75 78/78/78 76/76/76 
f 78/78/78 75/75/75 79/79/79 
f 80/80/80 81/81/81 82/82/82 
f 83/83/83 80/80/80 82/82/82 
f 80/80/80 83/83/83 73/73/73 
f 73/73/73 83/83/83 74/74/74 
f 81/81/81 84/84/84 82/82/82 
f 85/85/85 84/84/84 81/81/81 
f 86/86/86 84/84/84 85/85/85 
f 87/87/87 88/88/88 89/89/89 
f 87/87/87 90/90/90 88/88/88 
f 63/63/63 66/66/66 91/91/91 
f 82/82/82 84/84/84 92/92/92 
f 87/87/87 89/89/89 93/93/93 
f 87/87/87 93/93/93 94/94/94 
f 87/87/87 94/94/94 95/95/95 
f 96/96/96 63/63/63 97/97/97 
f 64/64/64 63/63/63 96/96/96 
f 98/98/98 99/99/99 100/100/100 
f 98/98/98 27/27/27 99/99/99 
f 24/24/24 27/27/27 98/98/98 
f 101/101/101 102/102/102 103/103/103 
f 104/104/104 102/102/102 101/101/101 
f 105/105/105 106/106/106 107/107/107 
f 108/108/108 106/106/106 105/105/105 
f 108/108/108 109/109/109 106/106/106 
f 110/110/110 109/109/109 108/108/108 
f 111/111/111 112/112/112 113/113/113 
f 111/111/111 114/114/114 112/112/112 
f 111/111/111 115/115/115 114/114/114 
f 111/111/111 116/116/116 115/115/115 
f 117/117/117 116/116/116 111/111/111 
f 117/117/117 118/118/118 116/116/116 
f 117/117/117 119/119/119 118/118/118 
f 117/117/117 120/120/120 119/119/119 
f 95/95/95 120/120/120 117/117/117 
f 95/95/95 121/121/121 120/120/120 
f 95/95/95 122/122/122 121/121/121 
f 95/95/95 94/94/94 122/122/122 
f 123/123/123 124/124/124 125/125/125 
f 126/126/126 123/123/123 125/125/125 
f 127/127/127 126/126/126 125/125/125 
f 128/128/128 127/127/127 125/125/125 
f 125/125/125 129/129/129 128/128/128 
f 125/125/125 130/130/130 129/129/129 
f 125/125/125 131/131/131 130/130/130 
f 125/125/125 132/132/132 131/131/131 
f 125/125/125 133/133/133 132/132/132 
f 125/125/125 134/134/134 133/133/133 
f 125/125/125 135/135/135 134/134/134 
f 125/125/125 136/136/136 135/135/135 
f 125/125/125 137/137/137 136/136/136 
f 138/138/138 137/137/137 125/125/125 
f 138/138/138 139/139/139 137/137/137 
f 138/138/138 140/140/140 139/139/139 
f 141/141/141 139/139/139 140/140/140 
f 142/142/142 143/143/143 144/144/144 
f 142/142/142 145/145/145 143/143/143 
f 142/142/142 146/146/146 145/145/145 
f 147/147/147 146/146/146 142/142/142 
f 146/146/146 147/147/147 148/148/148 
f 148/148/148 147/147/147 149/149/149 
f 149/149/149 147/147/147 150/150/150 
f 149/149/149 150/150/150 151/151/151 
f 151/151/151 150/150/150 152/152/152 
f 153/153/153 154/154/154 155/155/155 
f 155/155/155 154/154/154 156/156/156 
f 157/157/157 158/158/158 159/159/159 
f 160/160/160 157/157/157 159/159/159 
f 161/161/161 157/157/157 160/160/160 
f 143/143/143 145/145/145 162/162/162 
f 163/163/163 143/143/143 162/162/162 
f 164/164/164 165/165/165 166/166/166 
f 167/167/167 165/165/165 164/164/164 
f 168/168/168 165/165/165 167/167/167 
f 169/169/169 170/170/170 171/171/171 
f 156/156/156 170/170/170 169/169/169 
f 156/156/156 154/154/154 170/170/170 
f 172/172/172 173/173/173 141/141/141 
f 174/174/174 172/172/172 141/141/141 
f 174/174/174 141/141/141 175/175/175 
f 175/175/175 141/141/141 176/176/176 
f 176/176/176 141/141/141 177/177/177 
f 177/177/177 141/141/141 140/140/140 
f 158/158/158 178/178/178 179/179/179 
f 159/159/159 158/158/158 179/179/179 
f 159/159/159 179/179/179 180/180/180 
f 171/171/171 170/170/170 181/181/181 
f 182/182/182 171/171/171 181/181/181 
f 171/171/171 182/182/182 12/12/12 
f 183/183/183 171/171/171 12/12/12 
f 184/184/184 185/185/185 186/186/186 
f 187/187/187 188/188/188 189/189/189 
f 9/9/9 188/188/188 187/187/187 
f 9/9/9 8/8/8 188/188/188 
f 190/190/190 191/191/191 192/192/192 
f 193/193/193 194/194/194 113/113/113 
f 143/143/143 193/193/193 113/113/113 
f 186/186/186 185/185/185 195/195/195 
f 196/196/196 143/143/143 113/113/113 
f 197/197/197 143/143/143 196/196/196 
f 144/144/144 143/143/143 197/197/197 
f 113/113/113 198/198/198 196/196/196 
f 113/113/113 199/199/199 198/198/198 
f 113/113/113 112/112/112 199/199/199 
f 12/12/12 182/182/182 200/200/200 
f 12/12/12 200/200/200 10/10/10 
f 35/35/35 201/201/201 46/46/46 
f 201/201/201 35/35/35 202/202/202 
f 202/202/202 35/35/35 203/203/203 
f 203/203/203 35/35/35 18/18/18 
f 18/18/18 204/204/204 203/203/203 
f 18/18/18 17/17/17 204/204/204 
f 124/124/124 205/205/205 125/125/125 
f 125/125/125 205/205/205 51/51/51 
f 206/206/206 51/51/51 205/205/205 
f 207/207/207 51/51/51 206/206/206 
f 51/51/51 207/207/207 208/208/208 
f 51/51/51 208/208/208 209/209/209 
f 210/210/210 51/51/51 209/209/209 
f 210/210/210 211/211/211 51/51/51 
f 212/212/212 211/211/211 210/210/210 
f 81/81/81 213/213/213 214/214/214 
f 81/81/81 214/214/214 215/215/215 
f 81/81/81 215/215/215 216/216/216 
f 81/81/81 216/216/216 85/85/85 
f 51/51/51 211/211/211 217/217/217 
f 51/51/51 217/217/217 218/218/218 
f 51/51/51 218/218/218 52/52/52 
f 58/58/58 57/57/57 219/219/219 
f 220/220/220 58/58/58 219/219/219 
f 221/221/221 220/220/220 219/219/219 
f 79/79/79 220/220/220 221/221/221 
f 79/79/79 75/75/75 220/220/220 
f 85/85/85 222/222/222 86/86/86 
f 93/93/93 89/89/89 223/223/223 
f 97/97/97 224/224/224 96/96/96 
f 96/96/96 224/224/224 225/225/225 
f 225/225/225 224/224/224 226/226/226 
f 227/227/227 226/226/226 224/224/224 
f 227/227/227 224/224/224 228/228/228 
