v -0.105206 2.28766 0.400902
v -0.0896089 2.33174 0.360948
v -0.119668 2.30524 0.371107
v -0.0896089 2.33174 0.360948
v -0.105206 2.28766 0.400902
v -0.0744937 2.24924 0.396765
v -0.0896089 2.33174 0.360948
v -0.0744937 2.24924 0.396765
v -0.119668 2.30524 0.371107
v -0.0744936 2.24924 0.396765
v -0.105206 2.28766 0.400902
v -0.119668 2.30524 0.371107
vt 0.35891 0.648106
vt 0.348987 0.651838
vt 0.352851 0.647407
vt 0.348987 0.651838
vt 0.35891 0.648106
vt 0.350763 0.657661
vt 0.0453991 -2.0026
vt 0.0302744 -1.91266
vt 0.0754771 -1.97424
vt 0.410444 -1.80238
vt 0.414581 -1.85158
vt 0.384784 -1.87434
vn -0.403585 0.688774 0.602253
vn -0.403585 0.688774 0.602253
vn -0.403585 0.688774 0.602253
vn 0.602923 0.408076 0.685535
vn 0.602923 0.408076 0.685535
vn 0.602923 0.408076 0.685535
vn 0.0353864 -0.392514 -0.919065
vn 0.0353864 -0.392514 -0.919065
vn 0.0353864 -0.392514 -0.919065
vn -0.780593 -0.624957 0.0101658
vn -0.780593 -0.624957 0.0101658
vn -0.780593 -0.624957 0.0101658
f 1/1/1 2/2/2 3/3/3 
f 4/4/4 5/5/5 6/6/6 
f 7/7/7 8/8/8 9/9/9 
f 10/10/10 11/11/11 12/12/12 
