v -1.05828 -2.39144 0.352825
v -1.16616 -2.13072 0.312579
v -1.12035 -2.25857 0.296679
v -1.16616 -2.13072 0.312579
v -1.05828 -2.39144 0.352825
v -1.16678 -2.12869 0.312834
v -1.16678 -2.12869 0.312833
v -1.16688 -2.11783 0.31426
v -1.16616 -2.13072 0.312578
v -1.17039 -2.11667 0.314341
v -1.1704 -2.11667 0.314341
v -1.1704 -2.11667 0.314342
v -1.15885 -2.11064 0.348426
v -1.11498 -2.08771 0.477885
v -1.15885 -2.11064 0.348426
v -1.11498 -2.08771 0.477885
v -1.10689 -2.11315 0.398003
v -1.11885 -2.11666 0.372289
v -1.14606 -2.12465 0.313779
v -1.16635 -2.118 0.314247
v -1.16688 -2.11783 0.31426
v -1.17039 -2.11667 0.314341
v -1.16635 -2.118 0.314247
v -1.12035 -2.25857 0.296678
v -1.14606 -2.12465 0.313778
v -1.12035 -2.25857 0.296679
v -1.14606 -2.12465 0.313779
v -1.11885 -2.11666 0.372289
v -1.05828 -2.39144 0.352825
v -1.10689 -2.11315 0.398003
v -1.03649 -2.18803 0.50045
v -1.02722 -2.20384 0.5109
v -1.05571 -2.3949 0.356187
v -1.07773 -2.14953 0.516507
v -1.05571 -2.3949 0.356187
v -1.07773 -2.14953 0.516507
v -1.11494 -2.08773 0.477846
v -1.11497 -2.08771 0.477885
v -1.11043 -2.09049 0.473249
v -1.09846 -2.09783 0.461048
v -1.08428 -2.10652 0.446593
v -1.09846 -2.09783 0.461048
v -1.08428 -2.10652 0.446593
v -1.11043 -2.09049 0.473249
v -1.08428 -2.10652 0.446593
v -1.03649 -2.18803 0.50045
v -1.02722 -2.20384 0.5109
v -1.07773 -2.14953 0.516507
v -1.05571 -2.3949 0.356187
v -1.02722 -2.20384 0.5109
vt 0.284627 0.088395
vt 0.285659 0.118169
vt 0.281481 0.104155
vt 0.285659 0.118169
vt 0.284627 0.088395
vt 0.28573 0.118374
vt 1.15489 2.06971
vt 1.155 2.05876
vt 1.15428 2.07176
vt 1.15851 2.05761
vt 1.15852 2.0576
vt 0.286148 0.119581
vt 0.29004 0.118556
vt 0.304818 0.114663
vt -0.284836 0.457768
vt -0.150664 0.42301
vt -0.233454 0.407526
vt -0.260104 0.417841
vt -0.320744 0.44131
vt -0.320258 0.462659
vt -0.320246 0.463219
vt -0.320162 0.466908
vt 1.15447 2.05893
vt 1.10846 2.20059
vt 1.13418 2.06559
vt -1.94855 0.235777
vt -1.81117 0.231982
vt -1.80298 0.167478
vt -2.08485 0.157795
vt -1.79937 0.139129
vt -1.87618 0.0160169
vt -1.89241 0.00252216
vt -2.08841 0.153641
vt 0.307785 0.106179
vt 0.284926 0.0878612
vt 1.20204 -0.897336
vt 1.16124 -0.826384
vt 1.16128 -0.826341
vt 1.15639 -0.83144
vt 1.14351 -0.844859
vt 1.12826 -0.860758
vt -0.168114 0.404192
vt -0.183096 0.388036
vt -0.155469 0.417828
vt -1.79257 0.0855613
vt 1.18509 -0.953484
vt 1.19612 -0.971477
vt 0.307785 0.106179
vt 0.284926 0.0878612
vt 0.307891 0.098861
vn -0.918105 -0.351697 0.182736
vn -0.918105 -0.351697 0.182736
vn -0.918105 -0.351697 0.182736
vn -0.882239 -0.310423 0.353965
vn -0.882239 -0.310423 0.353965
vn -0.882239 -0.310423 0.353965
vn 0.0198252 0.130383 -0.991265
vn 0.0198252 0.130383 -0.991265
vn 0.0198252 0.130383 -0.991265
vn 0.0198252 0.130383 -0.991265
vn 0.0198252 0.130383 -0.991265
vn -0.882239 -0.310423 0.353965
vn -0.882239 -0.310423 0.353965
vn -0.882239 -0.310423 0.353965
vn 0.295111 0.918637 -0.262708
vn 0.295111 0.918637 -0.262708
vn 0.295111 0.918637 -0.262708
vn 0.295111 0.918637 -0.262708
vn 0.295111 0.918637 -0.262708
vn 0.295111 0.918637 -0.262708
vn 0.295111 0.918637 -0.262708
vn 0.295111 0.918637 -0.262708
vn 0.0198252 0.130383 -0.991265
vn 0.0198252 0.130383 -0.991265
vn 0.0198252 0.130383 -0.991265
vn 0.871855 0.22306 -0.43602
vn 0.871855 0.22306 -0.43602
vn 0.871855 0.22306 -0.43602
vn 0.871855 0.22306 -0.43602
vn 0.871855 0.22306 -0.43602
vn 0.871855 0.22306 -0.43602
vn 0.871855 0.22306 -0.43602
vn 0.871855 0.22306 -0.43602
vn -0.882239 -0.310423 0.353965
vn -0.882239 -0.310423 0.353965
vn 0.710157 0.627412 0.319423
vn 0.710157 0.627412 0.319423
vn 0.710157 0.627412 0.319423
vn 0.710157 0.627412 0.319423
vn 0.710157 0.627412 0.319423
vn 0.710157 0.627412 0.319423
vn 0.295111 0.918637 -0.262708
vn 0.295111 0.918637 -0.262708
vn 0.295111 0.918637 -0.262708
vn 0.871855 0.22306 -0.43602
vn 0.710157 0.627412 0.319423
vn 0.710157 0.627412 0.319423
vn -0.47061 -0.511824 0.718723
vn -0.47061 -0.511824 0.718723
vn -0.47061 -0.511824 0.718723
f 1/1/1 2/2/2 3/3/3 
f 4/4/4 5/5/5 6/6/6 
f 7/7/7 8/8/8 9/9/9 
f 7/7/7 10/10/10 8/8/8 
f 7/7/7 11/11/11 10/10/10 
f 12/12/12 6/6/6 13/13/13 
f 13/13/13 6/6/6 5/5/5 
f 13/13/13 5/5/5 14/14/14 
f 15/15/15 16/16/16 17/17/17 
f 15/15/15 17/17/17 18/18/18 
f 15/15/15 18/18/18 19/19/19 
f 20/20/20 15/15/15 19/19/19 
f 21/21/21 15/15/15 20/20/20 
f 22/22/22 15/15/15 21/21/21 
f 9/9/9 8/8/8 23/23/23 
f 9/9/9 23/23/23 24/24/24 
f 24/24/24 23/23/23 25/25/25 
f 26/26/26 27/27/27 28/28/28 
f 26/26/26 28/28/28 29/29/29 
f 29/29/29 28/28/28 30/30/30 
f 29/29/29 30/30/30 31/31/31 
f 29/29/29 31/31/31 32/32/32 
f 29/29/29 32/32/32 33/33/33 
f 34/34/34 5/5/5 35/35/35 
f 14/14/14 5/5/5 34/34/34 
f 36/36/36 37/37/37 38/38/38 
f 36/36/36 39/39/39 37/37/37 
f 36/36/36 40/40/40 39/39/39 
f 40/40/40 36/36/36 41/41/41 
f 42/42/42 43/43/43 17/17/17 
f 44/44/44 42/42/42 17/17/17 
f 16/16/16 44/44/44 17/17/17 
f 31/31/31 30/30/30 45/45/45 
f 41/41/41 36/36/36 46/46/46 
f 36/36/36 47/47/47 46/46/46 
f 48/48/48 49/49/49 50/50/50 
