v 1.03227 -2.19851 0.301215
v 1.04397 -2.33272 0.190055
v 1.03659 -2.17835 0.2944
v 0.943913 -2.22625 0.184088
v 1.04397 -2.33272 0.190055
v 1.03227 -2.19851 0.301215
v 0.942396 -2.23373 0.175639
v 0.936532 -2.26266 0.142981
v 1.01241 -2.45384 0.0460418
v 0.929973 -2.29501 0.106458
v 0.920555 -2.34147 0.054006
v 0.916729 -2.36034 0.0326995
v 0.922003 -2.50417 -0.093968
v 0.898617 -2.44969 -0.0681672
v 0.896369 -2.46077 -0.0806871
v 0.895093 -2.46707 -0.0877956
v 0.891625 -2.48418 -0.107108
v 0.894675 -2.50581 -0.123814
v 0.922003 -2.50417 -0.0939679
v 0.894675 -2.50581 -0.123814
v 0.905641 -2.49947 -0.14046
v 0.905641 -2.49947 -0.14046
v 1.01241 -2.45384 0.0460419
v 0.922003 -2.50417 -0.0939678
v 0.912402 -2.48555 -0.14555
v 0.919711 -2.47049 -0.151052
v 0.936106 -2.43673 -0.163394
v 1.03063 -2.24205 -0.234553
v 1.01241 -2.45384 0.0460418
v 1.03063 -2.24205 -0.234553
v 1.03528 -2.42058 0.100319
v 1.03528 -2.42058 0.100319
v 1.14711 -2.0091 -0.069207
v 1.04397 -2.33272 0.190055
v 1.03528 -2.42058 0.100319
v 1.14404 -2.00481 -0.0358121
v 1.14404 -2.00481 -0.035812
v 1.03745 -2.17432 0.293039
v 0.944133 -2.22457 0.183305
v 1.03659 -2.17835 0.2944
v 1.03745 -2.17432 0.293039
v 0.944097 -2.22484 0.183433
v 1.03227 -2.19851 0.301215
v 0.943913 -2.22625 0.184089
v 0.942396 -2.23373 0.175639
v 0.943913 -2.22625 0.184088
v 0.944097 -2.22484 0.183433
v 0.944133 -2.22457 0.183305
v 0.962285 -2.06728 0.0567399
v 0.965827 -2.05855 0.105839
v 0.965827 -2.05855 0.105839
v 0.965959 -2.05754 0.105369
v 0.965899 -2.0577 0.10458
v 0.965959 -2.05754 0.105369
v 1.12301 -1.99977 0.0479625
v 0.962285 -2.06728 0.0567399
v 0.965899 -2.0577 0.10458
v 0.960678 -2.07154 0.035464
v 0.936532 -2.26266 0.142981
v 0.960678 -2.07154 0.0354639
v 0.929973 -2.29501 0.106458
v 0.959097 -2.07573 0.0145358
v 0.959097 -2.07573 0.0145358
v 1.14404 -2.00481 -0.0358121
v 0.956671 -2.08216 -0.0175774
v 0.956671 -2.08216 -0.0175775
v 0.920555 -2.34147 0.054006
v 0.956665 -2.08218 -0.0176633
v 0.942809 -2.16782 -0.0367188
v 0.916729 -2.36034 0.0326995
v 0.940578 -2.18161 -0.0397867
v 0.933246 -2.22692 -0.0498695
v 0.921464 -2.29975 -0.0660722
v 0.898617 -2.44969 -0.0681672
v 0.902555 -2.41662 -0.0920773
v 0.902355 -2.41786 -0.0923517
v 0.902296 -2.41822 -0.0924337
v 0.901641 -2.42227 -0.0933336
v 0.897728 -2.44646 -0.0987153
v 0.896279 -2.45542 -0.100709
v 0.896369 -2.46077 -0.0806871
v 0.895018 -2.46321 -0.102443
v 0.895093 -2.46707 -0.0877956
v 0.894215 -2.46817 -0.103547
v 0.893734 -2.47114 -0.104208
v 0.891625 -2.48418 -0.107109
v 0.893734 -2.47114 -0.104208
v 0.912402 -2.48555 -0.14555
v 0.891625 -2.48418 -0.107108
v 0.894215 -2.46817 -0.103547
v 0.919711 -2.47049 -0.151052
v 0.895018 -2.46321 -0.102443
v 0.896279 -2.45542 -0.100709
v 0.897728 -2.44646 -0.0987153
v 0.936106 -2.43673 -0.163394
v 0.901641 -2.42227 -0.0933336
v 0.902296 -2.41822 -0.0924337
v 0.902355 -2.41786 -0.0923517
v 0.902555 -2.41662 -0.0920773
v 0.921464 -2.29975 -0.0660721
v 1.03063 -2.24205 -0.234553
v 0.933246 -2.22692 -0.0498695
v 1.03272 -2.23585 -0.23514
v 1.03272 -2.23585 -0.23514
v 1.04187 -2.20865 -0.237712
v 1.10833 -2.04671 -0.194115
v 1.05778 -2.16136 -0.242184
v 1.10086 -2.05395 -0.218154
v 1.07471 -2.06611 -0.223753
v 1.10833 -2.04671 -0.194115
v 1.10086 -2.05395 -0.218154
v 1.06611 -2.06728 -0.208745
v 1.06542 -2.06737 -0.207536
v 1.0414 -2.07064 -0.165605
v 1.01866 -2.07374 -0.125903
v 0.985785 -2.07821 -0.0685037
v 0.956665 -2.08218 -0.0176631
v 0.956665 -2.08218 -0.0176631
v 0.985785 -2.07821 -0.0685037
v 0.942809 -2.16782 -0.0367188
v 1.01866 -2.07374 -0.125903
v 0.940578 -2.18161 -0.0397867
v 1.04187 -2.20865 -0.237712
v 1.05778 -2.16136 -0.242184
v 1.0414 -2.07064 -0.165605
v 1.06254 -2.14721 -0.243522
v 1.06254 -2.14721 -0.243522
v 1.10086 -2.05395 -0.218154
v 1.06254 -2.14721 -0.243522
v 1.07375 -2.07248 -0.225306
v 1.07471 -2.06611 -0.223753
v 1.06611 -2.06728 -0.208745
v 1.07471 -2.06611 -0.223754
v 1.07375 -2.07248 -0.225306
v 1.06542 -2.06737 -0.207536
v 1.14711 -2.0091 -0.069207
v 1.14711 -2.0091 -0.069207
v 0.905641 -2.49947 -0.14046
v 0.894675 -2.50581 -0.123814
v 1.12301 -1.99977 0.0479626
v 1.07724 -1.98881 0.230336
v 1.07724 -1.98881 0.230336
v 1.03431 -2.01532 0.18213
v 1.03431 -2.01532 0.18213
v 0.965959 -2.05754 0.105369
v 1.07724 -1.98881 0.230336
vt 0.745667 0.43211
vt 0.756211 0.41938
vt 0.746742 0.434031
vt -2.17374 0.787677
vt -2.30001 0.86142
vt -2.14084 0.933322
vt -2.18262 0.780541
vt -2.21693 0.752961
vt -2.44367 0.735838
vt -2.2553 0.722116
vt -2.3104 0.677819
vt -2.33278 0.659825
vt -2.50336 0.572298
vt -2.43874 0.57464
vt -2.45189 0.564067
vt -2.45936 0.558063
vt -2.47965 0.541753
vt -2.5053 0.531844
vt 0.776291 0.390751
vt 0.778222 0.387822
vt 0.780282 0.388969
vt 0.780282 0.388969
vt 0.766848 0.404177
vt 0.776291 0.390751
vt 0.781255 0.39045
vt 0.782307 0.392051
vt 0.784667 0.395641
vt 0.79827 0.416342
vt 0.766848 0.404177
vt 0.79827 0.416342
vt 0.762871 0.410316
vt -2.40422 0.790787
vt 0.789882 0.450104
vt 0.756211 0.41938
vt 0.762871 0.410316
vt 0.786693 0.450677
vt 0.786693 0.450677
vt 0.746956 0.434415
vt -1.85381 0.668922
vt -1.80462 0.812475
vt -1.80033 0.811806
vt -1.8541 0.66901
vt -1.82608 0.815825
vt -1.8556 0.669459
vt 0.231966 2.06707
vt 0.240423 2.05944
vt 0.239767 2.05802
vt 0.239639 2.05775
vt 0.112948 1.89951
vt 0.162096 1.89035
vt -1.67712 0.615855
vt -1.67605 0.615533
vt 0.160836 1.8895
vt 0.161625 1.88933
vt -0.300241 -0.243349
vt -0.29136 -0.0690279
vt -0.242954 -0.0761274
vt -0.312887 -0.0658706
vt 0.199275 2.09655
vt 0.0916506 1.90397
vt 0.162715 2.12952
vt 0.0707017 1.90835
vt -0.334063 -0.0627649
vt -0.385006 -0.260685
vt -0.366556 -0.0579994
vt 0.0385564 1.91507
vt 0.110211 2.17686
vt 0.0384705 1.91509
vt 0.019396 2.00184
vt 0.0888835 2.19609
vt 0.016325 2.01581
vt 0.00623216 2.06171
vt -0.00998661 2.13547
vt -0.0120838 2.28714
vt -0.0360177 2.25387
vt -0.0362923 2.25511
vt -0.0363744 2.25549
vt -0.0372752 2.25958
vt -0.0426623 2.28409
vt -0.0446577 2.29316
vt -0.0246162 2.29845
vt -0.0463932 2.30105
vt -0.0317317 2.30486
vt -0.0474989 2.30608
vt -0.0481605 2.30909
vt -0.051064 2.3223
vt -2.22085 -0.522357
vt -2.23569 -0.567577
vt -2.23428 -0.523881
vt -2.21779 -0.52201
vt -2.22018 -0.575922
vt -2.21267 -0.52143
vt -2.20464 -0.520519
vt -2.19541 -0.519472
vt -2.18538 -0.594641
vt -2.17048 -0.516645
vt -2.16631 -0.516173
vt -2.16593 -0.51613
vt -2.16466 -0.515985
vt -2.04421 -0.502326
vt -1.98476 -0.702568
vt -1.96917 -0.493815
vt -1.97836 -0.70409
vt 0.798499 0.417027
vt 0.799501 0.420028
vt 0.800135 0.44043
vt 0.801246 0.425246
vt 0.802109 0.438569
vt -0.57517 -0.172799
vt -0.545182 -0.211346
vt -0.569505 -0.201631
vt -0.559984 -0.164438
vt -0.558761 -0.163764
vt -0.516334 -0.140405
vt -0.476163 -0.118287
vt -0.418085 -0.0863098
vt -0.366643 -0.0579867
vt -1.82 -0.476898
vt -1.81592 -0.535479
vt -1.90826 -0.486907
vt -1.8113 -0.601618
vt -1.92247 -0.488519
vt -1.95034 -0.710755
vt -1.9016 -0.722345
vt -1.80811 -0.647365
vt -1.88702 -0.725813
vt 0.801767 0.426808
vt -1.12028 2.05116
vt -1.08174 2.14773
vt -1.09302 2.07082
vt -1.09398 2.06426
vt -1.80465 -0.697073
vt -1.80344 -0.714367
vt -1.81001 -0.715266
vt -1.80474 -0.69568
vt -0.418796 -0.261822
vt 0.789882 0.450104
vt -2.25004 -0.559857
vt -2.25657 -0.539985
vt 0.777297 0.451124
vt 0.756844 0.452096
vt -1.60291 0.78098
vt -1.63112 0.717159
vt -0.164487 -0.155706
vt -0.242156 -0.0762444
vt -0.115711 -0.205608
vn 0.960898 -0.12207 0.248543
vn 0.960902 -0.122063 0.248533
vn 0.960902 -0.12198 0.248571
vn -0.606991 -0.537651 0.58523
vn -0.606994 -0.537652 0.585225
vn -0.606993 -0.537654 0.585225
vn -0.606991 -0.537652 0.585228
vn -0.606992 -0.537655 0.585225
vn -0.606993 -0.537655 0.585224
vn -0.606989 -0.537655 0.585228
vn -0.606992 -0.537657 0.585223
vn -0.606989 -0.537658 0.585225
vn -0.606987 -0.537656 0.585229
vn -0.606998 -0.537659 0.585215
vn -0.606985 -0.537652 0.585234
vn -0.606973 -0.537654 0.585246
vn -0.606988 -0.537659 0.585225
vn -0.606987 -0.537655 0.585229
vn 0.261719 -0.946694 -0.187812
vn 0.261719 -0.946694 -0.187812
vn 0.261719 -0.946694 -0.187812
vn 0.795514 -0.507366 -0.331266
vn 0.795515 -0.507364 -0.331266
vn 0.795513 -0.507368 -0.331265
vn 0.795514 -0.507366 -0.331266
vn 0.795515 -0.507365 -0.331266
vn 0.795517 -0.507361 -0.331267
vn 0.795518 -0.507359 -0.331267
vn 0.925353 -0.329059 -0.188261
vn 0.925345 -0.329077 -0.188271
vn 0.925349 -0.329068 -0.188266
vn -0.607 -0.53765 0.585221
vn 0.969516 -0.215333 0.116924
vn 0.969516 -0.215333 0.116924
vn 0.969516 -0.215337 0.116918
vn 0.969516 -0.215328 0.116929
vn 0.960904 -0.121977 0.248565
vn 0.960904 -0.121979 0.248565
vn -0.787316 0.342197 0.51287
vn -0.787317 0.342186 0.512874
vn -0.787279 0.342246 0.512893
vn -0.787312 0.342208 0.512869
vn -0.787312 0.342208 0.512869
vn -0.787304 0.342248 0.512854
vn -0.987697 0.149888 0.0445846
vn -0.987695 0.149914 0.0445554
vn -0.987695 0.149914 0.0445554
vn -0.987698 0.149876 0.0445993
vn -0.987698 0.14988 0.0445993
vn -0.987695 0.149898 0.0446033
vn -0.787223 0.342327 0.512925
vn -0.787225 0.342325 0.512924
vn -0.987693 0.149909 0.0446047
vn -0.987691 0.14992 0.0446126
vn -0.389759 0.908213 -0.152437
vn -0.389761 0.908214 -0.152424
vn -0.389687 0.908232 -0.152509
vn -0.389758 0.908213 -0.152439
vn -0.987698 0.149876 0.0446004
vn -0.987698 0.149876 0.0445989
vn -0.987698 0.149876 0.0445982
vn -0.987699 0.149875 0.0445972
vn -0.389759 0.908211 -0.152448
vn -0.389763 0.908212 -0.152434
vn -0.389762 0.908213 -0.152433
vn -0.987699 0.149876 0.0445986
vn -0.987698 0.149876 0.0445991
vn -0.987699 0.149875 0.0445973
vn -0.987698 0.149879 0.0446065
vn -0.987698 0.149878 0.0446038
vn -0.987697 0.14988 0.0446097
vn -0.987699 0.149876 0.0445989
vn -0.987698 0.149876 0.0445997
vn -0.9877 0.149871 0.0445923
vn -0.987695 0.149891 0.044623
vn -0.987704 0.149848 0.0445657
vn -0.987707 0.149835 0.0445466
vn -0.987698 0.149878 0.044604
vn -0.987699 0.149874 0.0446008
vn -0.987698 0.149881 0.0445984
vn -0.987699 0.149874 0.044598
vn -0.9877 0.149866 0.0445993
vn -0.987699 0.149873 0.0446017
vn -0.987697 0.149882 0.0446009
vn -0.987696 0.149888 0.0446026
vn -0.987698 0.149876 0.0446056
vn -0.850021 0.241678 -0.468034
vn -0.850024 0.241671 -0.468032
vn -0.850029 0.24166 -0.468029
vn -0.850025 0.241668 -0.468033
vn -0.850028 0.24166 -0.468031
vn -0.850029 0.241656 -0.468031
vn -0.850026 0.241666 -0.468031
vn -0.850028 0.24166 -0.468031
vn -0.850038 0.241629 -0.468029
vn -0.85002 0.241681 -0.468034
vn -0.850081 0.241504 -0.468016
vn -0.850073 0.241525 -0.468019
vn -0.850012 0.241706 -0.468037
vn -0.850028 0.241662 -0.468031
vn -0.850026 0.24167 -0.46803
vn -0.850027 0.241666 -0.46803
vn -0.850026 0.24167 -0.46803
vn 0.925346 -0.329074 -0.188269
vn 0.925352 -0.329063 -0.188257
vn 0.92535 -0.32907 -0.188254
vn 0.925351 -0.329071 -0.188252
vn 0.92535 -0.329071 -0.188254
vn -0.389748 0.908218 -0.152437
vn -0.389771 0.908213 -0.152404
vn -0.389734 0.908221 -0.152455
vn -0.3898 0.908217 -0.152309
vn -0.389801 0.908215 -0.152316
vn -0.389766 0.908209 -0.152443
vn -0.389762 0.908211 -0.152442
vn -0.389761 0.908213 -0.152432
vn nan nan nan
vn -0.850028 0.241662 -0.46803
vn -0.850029 0.241663 -0.468028
vn -0.850029 0.241664 -0.468027
vn -0.850026 0.241667 -0.468031
vn -0.850029 0.241663 -0.468028
vn -0.850027 0.241661 -0.468032
vn -0.850023 0.241669 -0.468036
vn -0.850027 0.241664 -0.468031
vn -0.85003 0.241659 -0.468028
vn 0.925348 -0.329066 -0.188273
vn 0.10497 0.220636 -0.969691
vn 0.104983 0.220618 -0.969694
vn 0.10497 0.220636 -0.969691
vn 0.104958 0.220654 -0.969688
vn -0.849889 0.242069 -0.468073
vn -0.850034 0.241671 -0.468015
vn -0.849935 0.241933 -0.468059
vn -0.849935 0.241927 -0.468062
vn -0.389774 0.908208 -0.152432
vn 0.925349 -0.329067 -0.188268
vn -0.850029 0.24166 -0.468029
vn -0.850031 0.241656 -0.468028
vn 0.960905 -0.122061 0.248522
vn 0.960905 -0.122062 0.248522
vn -0.787317 0.342187 0.512875
vn -0.787318 0.342186 0.512874
vn -0.389687 0.908232 -0.152506
vn -0.389542 0.90827 -0.152652
vn -0.38976 0.908213 -0.152433
f 1/1/1 2/2/2 3/3/3 
f 4/4/4 5/5/5 6/6/6 
f 7/7/7 5/5/5 4/4/4 
f 5/5/5 7/7/7 8/8/8 
f 8/8/8 9/9/9 5/5/5 
f 10/10/10 9/9/9 8/8/8 
f 11/11/11 9/9/9 10/10/10 
f 12/12/12 9/9/9 11/11/11 
f 12/12/12 13/13/13 9/9/9 
f 14/14/14 13/13/13 12/12/12 
f 15/15/15 13/13/13 14/14/14 
f 16/16/16 13/13/13 15/15/15 
f 17/17/17 13/13/13 16/16/16 
f 18/18/18 13/13/13 17/17/17 
f 19/19/19 20/20/20 21/21/21 
f 22/22/22 23/23/23 24/24/24 
f 25/25/25 23/23/23 22/22/22 
f 26/26/26 23/23/23 25/25/25 
f 27/27/27 23/23/23 26/26/26 
f 23/23/23 27/27/27 28/28/28 
f 29/29/29 30/30/30 31/31/31 
f 5/5/5 9/9/9 32/32/32 
f 33/33/33 34/34/34 35/35/35 
f 36/36/36 34/34/34 33/33/33 
f 3/3/3 2/2/2 37/37/37 
f 3/3/3 37/37/37 38/38/38 
f 39/39/39 40/40/40 41/41/41 
f 42/42/42 40/40/40 39/39/39 
f 42/42/42 43/43/43 40/40/40 
f 44/44/44 43/43/43 42/42/42 
f 45/45/45 46/46/46 47/47/47 
f 45/45/45 47/47/47 48/48/48 
f 48/48/48 49/49/49 45/45/45 
f 48/48/48 50/50/50 49/49/49 
f 41/41/41 51/51/51 39/39/39 
f 51/51/51 41/41/41 52/52/52 
f 53/53/53 50/50/50 54/54/54 
f 49/49/49 50/50/50 53/53/53 
f 55/55/55 56/56/56 57/57/57 
f 56/56/56 55/55/55 58/58/58 
f 59/59/59 49/49/49 60/60/60 
f 45/45/45 49/49/49 59/59/59 
f 59/59/59 60/60/60 61/61/61 
f 60/60/60 62/62/62 61/61/61 
f 58/58/58 55/55/55 63/63/63 
f 63/63/63 55/55/55 64/64/64 
f 63/63/63 64/64/64 65/65/65 
f 61/61/61 62/62/62 66/66/66 
f 67/67/67 61/61/61 66/66/66 
f 68/68/68 67/67/67 66/66/66 
f 69/69/69 67/67/67 68/68/68 
f 69/69/69 70/70/70 67/67/67 
f 71/71/71 70/70/70 69/69/69 
f 72/72/72 70/70/70 71/71/71 
f 70/70/70 72/72/72 73/73/73 
f 73/73/73 74/74/74 70/70/70 
f 75/75/75 74/74/74 73/73/73 
f 74/74/74 75/75/75 76/76/76 
f 74/74/74 76/76/76 77/77/77 
f 74/74/74 77/77/77 78/78/78 
f 74/74/74 78/78/78 79/79/79 
f 80/80/80 74/74/74 79/79/79 
f 74/74/74 80/80/80 81/81/81 
f 81/81/81 80/80/80 82/82/82 
f 82/82/82 83/83/83 81/81/81 
f 84/84/84 83/83/83 82/82/82 
f 85/85/85 83/83/83 84/84/84 
f 86/86/86 83/83/83 85/85/85 
f 87/87/87 88/88/88 89/89/89 
f 88/88/88 87/87/87 90/90/90 
f 90/90/90 91/91/91 88/88/88 
f 92/92/92 91/91/91 90/90/90 
f 91/91/91 92/92/92 93/93/93 
f 91/91/91 93/93/93 94/94/94 
f 95/95/95 91/91/91 94/94/94 
f 94/94/94 96/96/96 95/95/95 
f 97/97/97 95/95/95 96/96/96 
f 95/95/95 97/97/97 98/98/98 
f 95/95/95 98/98/98 99/99/99 
f 95/95/95 99/99/99 100/100/100 
f 101/101/101 95/95/95 100/100/100 
f 100/100/100 102/102/102 101/101/101 
f 101/101/101 102/102/102 103/103/103 
f 31/31/31 30/30/30 104/104/104 
f 31/31/31 104/104/104 105/105/105 
f 105/105/105 106/106/106 31/31/31 
f 107/107/107 106/106/106 105/105/105 
f 106/106/106 107/107/107 108/108/108 
f 109/109/109 110/110/110 111/111/111 
f 112/112/112 110/110/110 109/109/109 
f 113/113/113 110/110/110 112/112/112 
f 114/114/114 110/110/110 113/113/113 
f 115/115/115 110/110/110 114/114/114 
f 115/115/115 64/64/64 110/110/110 
f 116/116/116 64/64/64 115/115/115 
f 116/116/116 65/65/65 64/64/64 
f 117/117/117 65/65/65 116/116/116 
f 118/118/118 119/119/119 120/120/120 
f 119/119/119 121/121/121 120/120/120 
f 121/121/121 122/122/122 120/120/120 
f 121/121/121 123/123/123 122/122/122 
f 124/124/124 123/123/123 121/121/121 
f 125/125/125 124/124/124 121/121/121 
f 126/126/126 124/124/124 125/125/125 
f 108/108/108 107/107/107 127/127/127 
f 128/128/128 129/129/129 130/130/130 
f 128/128/128 130/130/130 131/131/131 
f 132/132/132 133/133/133 134/134/134 
f 135/135/135 132/132/132 134/134/134 
f 135/135/135 134/134/134 126/126/126 
f 135/135/135 126/126/126 125/125/125 
f 102/102/102 122/122/122 123/123/123 
f 102/102/102 123/123/123 103/103/103 
f 110/110/110 64/64/64 136/136/136 
f 137/137/137 31/31/31 106/106/106 
f 138/138/138 89/89/89 88/88/88 
f 139/139/139 89/89/89 138/138/138 
f 38/38/38 37/37/37 140/140/140 
f 38/38/38 140/140/140 141/141/141 
f 41/41/41 142/142/142 143/143/143 
f 52/52/52 41/41/41 143/143/143 
f 144/144/144 57/57/57 145/145/145 
f 55/55/55 57/57/57 144/144/144 
f 55/55/55 144/144/144 146/146/146 
