v -1.22381 1.17074 -0.385022
v -1.15478 1.45298 -0.253803
v -1.13435 1.17296 -0.522725
v -1.15893 1.1557 -0.358497
v -1.15478 1.45298 -0.253803
v -1.22381 1.17074 -0.385022
v -1.11011 1.17144 -0.329197
v -1.13135 1.14931 -0.347222
v -1.15893 1.1557 -0.358497
v -1.10439 1.1609 -0.471649
v -1.13135 1.14931 -0.347222
v -1.13435 1.17296 -0.522725
v -1.08507 1.1692 -0.560768
v -1.08481 1.16932 -0.562007
v -1.08304 1.17094 -0.562495
v -1.08507 1.1692 -0.560768
v -1.08481 1.16932 -0.562007
v -1.05423 1.20354 -0.514977
v -1.10439 1.1609 -0.471649
v -1.03321 1.22732 -0.480316
v -1.00969 1.25394 -0.441525
v -1.06959 1.22749 -0.57759
v -1.00969 1.25394 -0.441525
v -1.03321 1.22732 -0.480316
v -1.05205 1.26994 -0.569027
v -0.997388 1.26786 -0.421228
v -0.997388 1.26786 -0.421228
v -1.11011 1.17144 -0.329197
v -0.997445 1.28883 -0.233582
v -0.916323 1.3596 -0.287522
v -0.975635 1.31156 -0.215072
v -0.964889 1.32275 -0.205953
v -0.908921 1.36798 -0.275314
v -0.92784 1.36058 -0.181438
v -0.938069 1.3507 -0.183191
v -0.938069 1.3507 -0.183191
v -0.984725 1.54982 -0.137231
v -0.964889 1.32275 -0.205953
v -0.935103 1.38079 -0.171348
v -0.928569 1.4471 -0.145255
v -0.927666 1.45626 -0.141651
v -0.984725 1.54982 -0.137231
v -0.927666 1.45626 -0.141651
v -0.89218 1.67072 -0.479167
v -0.895497 1.67157 -0.473275
v -0.994165 1.69682 -0.29798
v -0.985308 1.55078 -0.137186
v -0.985308 1.55078 -0.137186
v -1.15378 1.45706 -0.251908
v -1.11748 1.60548 -0.182908
v -1.01858 1.60534 -0.134608
v -1.11606 1.61131 -0.180195
v -1.02066 1.60875 -0.134447
v -1.1054 1.65489 -0.159938
v -1.03964 1.63988 -0.132977
v -1.1054 1.65488 -0.159939
v -1.03964 1.63988 -0.132977
v -1.02018 1.70348 -0.251754
v -1.02018 1.70348 -0.251753
v -1.11606 1.61131 -0.180195
v -1.1054 1.65489 -0.159938
v -0.994165 1.69682 -0.29798
v -0.895497 1.67157 -0.473275
v -1.11748 1.60548 -0.182908
v -0.89218 1.67072 -0.479167
v -0.886957 1.66938 -0.488448
v -0.891974 1.65724 -0.490896
v -1.15378 1.45705 -0.251908
v -0.899818 1.63827 -0.494723
v -0.912831 1.60678 -0.501074
v -0.913307 1.60562 -0.501306
v -0.91346 1.60526 -0.501381
v -0.916108 1.59885 -0.502673
v -1.10874 1.1736 -0.56214
v -1.10874 1.1736 -0.56214
v -1.08467 1.16938 -0.562642
v -1.10224 1.17376 -0.572137
v -1.08426 1.16955 -0.564515
v -1.09169 1.17402 -0.588377
v -1.08426 1.16955 -0.564516
v -1.09169 1.17402 -0.588377
v -1.08304 1.17094 -0.562495
v -1.08426 1.16955 -0.564516
v -1.08467 1.16938 -0.562642
v -1.05423 1.20354 -0.514977
v -1.10224 1.17376 -0.572137
v -1.06959 1.22749 -0.57759
v -1.09169 1.17402 -0.588377
v -1.05205 1.26994 -0.569027
v -0.916108 1.59885 -0.502673
v -0.916323 1.3596 -0.287522
v -0.908921 1.36798 -0.275314
v -0.875969 1.40527 -0.220964
v -0.875969 1.40527 -0.220964
v -0.923078 1.36518 -0.180621
v -0.920482 1.36769 -0.180176
v -0.870277 1.41217 -0.207504
v -0.88213 1.40474 -0.173602
v -0.870277 1.41217 -0.207504
v -0.887946 1.41132 -0.169521
v -0.882131 1.40474 -0.173602
v -0.892335 1.41629 -0.166442
v -0.905036 1.43066 -0.15753
v -0.927666 1.45626 -0.14165
v -0.928569 1.4471 -0.145255
v -0.905036 1.43066 -0.157529
v -0.935103 1.38079 -0.171348
v -0.892335 1.41629 -0.166442
v -0.887946 1.41132 -0.169521
v -0.920482 1.36769 -0.180176
v -0.88213 1.40474 -0.173602
v -0.923078 1.36518 -0.180621
v -0.92784 1.36058 -0.181438
v -0.938069 1.3507 -0.183191
v -0.885294 1.64512 -0.462132
v -0.886957 1.66938 -0.488448
v -0.891974 1.65724 -0.490896
v -0.886957 1.66938 -0.488448
v -0.885294 1.64512 -0.462132
v -0.899818 1.63827 -0.494723
v -0.912832 1.60678 -0.501074
v -0.913307 1.60562 -0.501306
v -0.91346 1.60525 -0.501381
v -0.869374 1.41273 -0.210086
v -0.869374 1.41273 -0.210086
v -0.869374 1.41273 -0.210086
v -0.975635 1.31156 -0.215072
v -0.997445 1.28883 -0.233582
v -1.02018 1.70348 -0.251753
v -1.01858 1.60534 -0.134608
v -1.02066 1.60875 -0.134447
v -1.03964 1.63988 -0.132977
v -1.13135 1.14931 -0.347222
v -1.22381 1.17074 -0.385022
vt 0.255946 0.469997
vt 0.266131 0.494664
vt 0.239102 0.475704
vt 1.15918 -1.19863
vt 1.47043 -1.14892
vt 1.17492 -1.26857
vt 1.17566 -1.1419
vt 1.15249 -1.1689
vt -0.475745 -1.34347
vt -0.589845 -1.29068
vt -0.464376 -1.31519
vt -0.641348 -1.32229
vt -0.67971 -1.27312
vt -0.680959 -1.27287
vt -0.43134 0.0186712
vt -0.429606 0.0159989
vt -0.43085 0.0162733
vt -0.383664 0.0620075
vt -0.340193 -0.00373251
vt -0.348889 0.0936176
vt -0.30997 0.128994
vt 0.929391 0.916068
vt 0.957134 0.767638
vt 0.929219 0.812214
vt 0.97391 0.901896
vt 0.97174 0.744315
vt -0.289606 0.147505
vt -0.197271 -0.000642976
vt -0.10134 0.161879
vt -0.155458 0.269443
vt -0.0827692 0.19334
vt -0.0736193 0.208841
vt -0.143209 0.280577
vt -0.0490235 0.261752
vt -0.0507828 0.24753
vt 1.36334 -0.923217
vt 1.57183 -0.944948
vt 1.33408 -0.957308
vt 1.39485 -0.915351
vt 1.46428 -0.898021
vt 1.47387 -0.895627
vt -0.102339 1.83507
vt -0.10712 1.7255
vt -0.472214 1.89246
vt -0.465841 1.89487
vt -0.276222 1.96661
vt -0.10229 1.83619
vt 1.57283 -0.945452
vt 1.4747 -1.14719
vt 1.6301 -1.08428
vt 1.62996 -0.974214
vt 1.63621 -1.0818
vt 1.63353 -0.976009
vt 1.68184 -1.06334
vt 1.66612 -0.992419
vt 1.11529 0.923607
vt 1.04953 0.892753
vt 1.03007 1.02749
vt 0.265297 0.520739
vt 0.275113 0.508211
vt 0.277584 0.511939
vt 0.259248 0.52192
vt 0.236309 0.526399
vt 0.274782 0.507711
vt 0.235538 0.526549
vt 0.234324 0.526787
vt 0.234055 0.525618
vt 0.266362 0.495013
vt 0.233636 0.523792
vt 0.232939 0.520761
vt 0.232914 0.52065
vt 0.232906 0.520615
vt 0.232764 0.519998
vt 0.234281 0.477338
vt -0.681093 -1.29719
vt -0.6816 -1.27275
vt -0.691174 -1.29082
vt -0.683489 -1.27238
vt -0.70755 -1.28048
vt 0.868629 0.90897
vt 0.873312 0.933922
vt 0.870082 0.906649
vt -0.433367 0.0168286
vt -0.431487 0.0164139
vt 0.904277 0.852044
vt 0.233059 0.477752
vt 0.231285 0.483657
vt 0.231072 0.478425
vt 0.231454 0.487811
vt 1.31888 0.792074
vt 1.06796 0.590669
vt 1.07674 0.57664
vt 1.11585 0.514185
vt -0.0886808 0.330143
vt -0.0482045 0.268373
vt -0.0477579 0.271983
vt -0.0751764 0.33902
vt -0.0411618 0.325306
vt -0.178354 1.65842
vt -0.137267 1.66664
vt -0.141682 1.65802
vt -0.133937 1.67314
vt -0.124296 1.69196
vt 0.763479 1.29
vt 0.764402 1.28015
vt 0.740341 1.26026
vt 0.771083 1.20891
vt 0.727354 1.24356
vt 0.722868 1.2378
vt 0.756133 1.19342
vt 0.716921 1.23015
vt 0.758788 1.19094
vt 0.763657 1.18637
vt 0.774115 1.17658
vt -0.453788 1.8669
vt -0.482253 1.88866
vt 1.38013 0.77258
vt 1.39286 0.768527
vt 1.36741 0.743301
vt 1.36022 0.778916
vt 1.3272 0.789428
vt 1.32599 0.789812
vt 1.3256 0.789935
vt 1.12368 0.501685
vt -0.181147 1.65845
vt -0.0777667 0.340064
vt 1.32236 -0.970967
vt 1.29857 -0.99869
vt -0.226219 1.98553
vt -0.0995016 1.90009
vt -0.0993277 1.90408
vt -0.0977369 1.94054
vt -0.215356 -0.0312814
vt -0.502492 -1.40998
vn -0.765777 0.415521 -0.490844
vn -0.765777 0.415521 -0.490844
vn -0.765777 0.415521 -0.490844
vn -0.419447 -0.296328 0.858052
vn -0.419447 -0.296328 0.858052
vn -0.419447 -0.296328 0.858052
vn -0.419447 -0.296328 0.858052
vn -0.419447 -0.296328 0.858052
vn -0.173728 -0.97636 -0.12861
vn -0.173728 -0.97636 -0.12861
vn -0.173728 -0.97636 -0.12861
vn -0.173728 -0.97636 -0.12861
vn -0.173728 -0.97636 -0.12861
vn -0.173728 -0.97636 -0.12861
vn 0.685297 -0.723737 0.0810732
vn 0.685297 -0.723737 0.0810732
vn 0.685297 -0.723737 0.0810732
vn 0.685297 -0.723737 0.0810732
vn 0.685297 -0.723737 0.0810732
vn 0.685297 -0.723737 0.0810732
vn 0.685297 -0.723737 0.0810732
vn 0.892869 -0.301558 -0.334437
vn 0.892869 -0.301558 -0.334437
vn 0.892869 -0.301558 -0.334437
vn 0.892869 -0.301558 -0.334437
vn 0.892869 -0.301558 -0.334437
vn 0.685297 -0.723737 0.0810732
vn 0.685297 -0.723737 0.0810732
vn 0.685297 -0.723737 0.0810732
vn 0.685297 -0.723737 0.0810732
vn 0.685297 -0.723737 0.0810732
vn 0.685297 -0.723737 0.0810732
vn 0.685297 -0.723737 0.0810732
vn 0.685297 -0.723737 0.0810732
vn 0.685297 -0.723737 0.0810732
vn -0.419447 -0.296328 0.858052
vn -0.419447 -0.296328 0.858052
vn -0.419447 -0.296328 0.858052
vn -0.419447 -0.296328 0.858052
vn -0.419447 -0.296328 0.858052
vn -0.419447 -0.296328 0.858052
vn 0.79717 0.468135 0.381273
vn 0.79717 0.468135 0.381273
vn 0.79717 0.468135 0.381273
vn 0.79717 0.468135 0.381273
vn 0.79717 0.468135 0.381273
vn 0.79717 0.468135 0.381273
vn -0.419447 -0.296328 0.858052
vn -0.419447 -0.296328 0.858052
vn -0.419447 -0.296328 0.858052
vn -0.419447 -0.296328 0.858052
vn -0.419447 -0.296328 0.858052
vn -0.419447 -0.296328 0.858052
vn -0.419447 -0.296328 0.858052
vn -0.419447 -0.296328 0.858052
vn 0.00717106 0.881064 0.472944
vn 0.00717106 0.881064 0.472944
vn 0.00717106 0.881064 0.472944
vn -0.765779 0.415502 -0.490857
vn -0.765778 0.415506 -0.490854
vn -0.765779 0.415502 -0.490857
vn -0.765779 0.415505 -0.490855
vn -0.765778 0.415514 -0.490849
vn -0.765778 0.415507 -0.490854
vn -0.765778 0.415515 -0.490849
vn -0.765778 0.415515 -0.490848
vn -0.765778 0.415516 -0.490848
vn -0.765777 0.41552 -0.490845
vn -0.765777 0.415518 -0.490847
vn -0.765777 0.41552 -0.490845
vn -0.765777 0.41552 -0.490845
vn -0.765777 0.41552 -0.490845
vn -0.765777 0.415521 -0.490844
vn -0.765777 0.415521 -0.490844
vn -0.173728 -0.97636 -0.12861
vn -0.173728 -0.97636 -0.12861
vn -0.173728 -0.97636 -0.12861
vn -0.173728 -0.97636 -0.12861
vn -0.173728 -0.97636 -0.12861
vn 0.892869 -0.301558 -0.334437
vn 0.892869 -0.301558 -0.334437
vn 0.892869 -0.301558 -0.334437
vn 0.685297 -0.723737 0.0810732
vn 0.685297 -0.723737 0.0810732
vn 0.892869 -0.301558 -0.334437
vn -0.765777 0.415521 -0.490844
vn -0.765777 0.415521 -0.490844
vn -0.765777 0.415521 -0.490844
vn -0.765777 0.415521 -0.490844
vn 0.892869 -0.301558 -0.334437
vn 0.892869 -0.301558 -0.334437
vn 0.892869 -0.301558 -0.334437
vn 0.892869 -0.301558 -0.334437
vn 0.685297 -0.723737 0.0810732
vn 0.685297 -0.723737 0.0810732
vn 0.685297 -0.723737 0.0810732
vn 0.685297 -0.723737 0.0810732
vn 0.685297 -0.723737 0.0810732
vn 0.79717 0.468135 0.381273
vn 0.79717 0.468135 0.381273
vn 0.79717 0.468135 0.381273
vn 0.79717 0.468135 0.381273
vn 0.79717 0.468135 0.381273
vn 0.20833 -0.375865 0.902953
vn 0.20833 -0.375865 0.902953
vn 0.20833 -0.375865 0.902953
vn 0.20833 -0.375865 0.902953
vn 0.20833 -0.375865 0.902953
vn 0.20833 -0.375865 0.902953
vn 0.20833 -0.375865 0.902953
vn 0.20833 -0.375865 0.902953
vn 0.20833 -0.375865 0.902953
vn 0.20833 -0.375865 0.902953
vn 0.20833 -0.375865 0.902953
vn 0.79717 0.468135 0.381273
vn 0.79717 0.468135 0.381273
vn 0.892869 -0.301558 -0.334437
vn 0.892869 -0.301558 -0.334437
vn 0.892869 -0.301558 -0.334437
vn 0.892869 -0.301558 -0.334437
vn 0.892869 -0.301558 -0.334437
vn 0.892869 -0.301558 -0.334437
vn 0.892869 -0.301558 -0.334437
vn 0.892869 -0.301558 -0.334437
vn 0.79717 0.468135 0.381273
vn 0.685297 -0.723737 0.0810732
vn -0.419447 -0.296328 0.858052
vn -0.419447 -0.296328 0.858052
vn 0.79717 0.468135 0.381273
vn 0.79717 0.468135 0.381273
vn 0.79717 0.468135 0.381273
vn 0.79717 0.468135 0.381273
vn 0.685297 -0.723737 0.0810732
vn -0.173728 -0.97636 -0.12861
f 1/1/1 2/2/2 3/3/3 
f 4/4/4 5/5/5 6/6/6 
f 4/4/4 7/7/7 5/5/5 
f 4/4/4 8/8/8 7/7/7 
f 9/9/9 10/10/10 11/11/11 
f 12/12/12 10/10/10 9/9/9 
f 12/12/12 13/13/13 10/10/10 
f 13/13/13 12/12/12 14/14/14 
f 15/15/15 16/16/16 17/17/17 
f 18/18/18 16/16/16 15/15/15 
f 18/18/18 19/19/19 16/16/16 
f 20/20/20 19/19/19 18/18/18 
f 20/20/20 21/21/21 19/19/19 
f 22/22/22 23/23/23 24/24/24 
f 25/25/25 23/23/23 22/22/22 
f 23/23/23 25/25/25 26/26/26 
f 27/27/27 28/28/28 21/21/21 
f 27/27/27 29/29/29 28/28/28 
f 30/30/30 29/29/29 27/27/27 
f 30/30/30 31/31/31 29/29/29 
f 30/30/30 32/32/32 31/31/31 
f 33/33/33 32/32/32 30/30/30 
f 34/34/34 32/32/32 33/33/33 
f 35/35/35 32/32/32 34/34/34 
f 36/36/36 37/37/37 38/38/38 
f 39/39/39 37/37/37 36/36/36 
f 40/40/40 37/37/37 39/39/39 
f 41/41/41 37/37/37 40/40/40 
f 42/42/42 43/43/43 44/44/44 
f 42/42/42 44/44/44 45/45/45 
f 42/42/42 45/45/45 46/46/46 
f 47/47/47 42/42/42 46/46/46 
f 48/48/48 49/49/49 37/37/37 
f 48/48/48 50/50/50 49/49/49 
f 51/51/51 50/50/50 48/48/48 
f 51/51/51 52/52/52 50/50/50 
f 53/53/53 52/52/52 51/51/51 
f 53/53/53 54/54/54 52/52/52 
f 55/55/55 54/54/54 53/53/53 
f 56/56/56 57/57/57 58/58/58 
f 59/59/59 60/60/60 61/61/61 
f 62/62/62 60/60/60 59/59/59 
f 63/63/63 60/60/60 62/62/62 
f 63/63/63 64/64/64 60/60/60 
f 65/65/65 64/64/64 63/63/63 
f 66/66/66 64/64/64 65/65/65 
f 67/67/67 64/64/64 66/66/66 
f 67/67/67 68/68/68 64/64/64 
f 69/69/69 68/68/68 67/67/67 
f 70/70/70 68/68/68 69/69/69 
f 70/70/70 2/2/2 68/68/68 
f 71/71/71 2/2/2 70/70/70 
f 72/72/72 2/2/2 71/71/71 
f 73/73/73 2/2/2 72/72/72 
f 3/3/3 2/2/2 73/73/73 
f 3/3/3 73/73/73 74/74/74 
f 14/14/14 12/12/12 75/75/75 
f 75/75/75 76/76/76 14/14/14 
f 77/77/77 76/76/76 75/75/75 
f 77/77/77 78/78/78 76/76/76 
f 79/79/79 78/78/78 77/77/77 
f 80/80/80 81/81/81 82/82/82 
f 83/83/83 15/15/15 84/84/84 
f 15/15/15 17/17/17 84/84/84 
f 82/82/82 81/81/81 22/22/22 
f 82/82/82 22/22/22 85/85/85 
f 85/85/85 22/22/22 24/24/24 
f 86/86/86 87/87/87 88/88/88 
f 86/86/86 89/89/89 87/87/87 
f 74/74/74 89/89/89 86/86/86 
f 74/74/74 73/73/73 89/89/89 
f 90/90/90 91/91/91 25/25/25 
f 90/90/90 92/92/92 91/91/91 
f 92/92/92 90/90/90 93/93/93 
f 94/94/94 95/95/95 33/33/33 
f 94/94/94 96/96/96 95/95/95 
f 97/97/97 96/96/96 94/94/94 
f 97/97/97 98/98/98 96/96/96 
f 99/99/99 100/100/100 101/101/101 
f 99/99/99 102/102/102 100/100/100 
f 44/44/44 102/102/102 99/99/99 
f 44/44/44 103/103/103 102/102/102 
f 44/44/44 43/43/43 103/103/103 
f 104/104/104 105/105/105 106/106/106 
f 105/105/105 107/107/107 106/106/106 
f 106/106/106 107/107/107 108/108/108 
f 108/108/108 107/107/107 109/109/109 
f 109/109/109 107/107/107 110/110/110 
f 109/109/109 110/110/110 111/111/111 
f 110/110/110 107/107/107 112/112/112 
f 112/112/112 107/107/107 113/113/113 
f 33/33/33 95/95/95 34/34/34 
f 107/107/107 114/114/114 113/113/113 
f 44/44/44 99/99/99 115/115/115 
f 44/44/44 115/115/115 116/116/116 
f 117/117/117 118/118/118 119/119/119 
f 120/120/120 117/117/117 119/119/119 
f 120/120/120 119/119/119 121/121/121 
f 121/121/121 119/119/119 122/122/122 
f 122/122/122 119/119/119 123/123/123 
f 123/123/123 119/119/119 90/90/90 
f 119/119/119 124/124/124 90/90/90 
f 115/115/115 99/99/99 125/125/125 
f 126/126/126 97/97/97 94/94/94 
f 90/90/90 124/124/124 93/93/93 
f 25/25/25 91/91/91 26/26/26 
f 37/37/37 49/49/49 5/5/5 
f 38/38/38 37/37/37 5/5/5 
f 38/38/38 5/5/5 127/127/127 
f 127/127/127 5/5/5 128/128/128 
f 5/5/5 7/7/7 128/128/128 
f 47/47/47 46/46/46 129/129/129 
f 130/130/130 47/47/47 129/129/129 
f 131/131/131 130/130/130 129/129/129 
f 132/132/132 131/131/131 129/129/129 
f 28/28/28 19/19/19 21/21/21 
f 28/28/28 133/133/133 19/19/19 
f 12/12/12 9/9/9 134/134/134 
