v 0.69742 2.17476 0.392087
v 0.609127 2.1172 0.445504
v 0.623072 2.11099 0.456376
v 0.609127 2.1172 0.445504
v 0.69742 2.17476 0.392087
v 0.619307 2.1142 0.444661
v 0.619307 2.1142 0.444661
v 0.623072 2.11099 0.456376
v 0.609128 2.1172 0.445504
v 0.641143 2.1062 0.451825
v 0.640013 2.10558 0.457376
v 0.641143 2.1062 0.451825
v 0.733184 2.15377 0.426347
v 0.640013 2.10558 0.457375
v 0.67507 2.12387 0.425654
v 0.643 2.10723 0.442699
v 0.67507 2.12387 0.425654
v 0.642999 2.10723 0.4427
v 0.689998 2.13162 0.417719
v 0.693881 2.13363 0.415656
v 0.740616 2.1577 0.413005
v 0.689998 2.13162 0.417719
v 0.69388 2.13363 0.415655
v 0.721434 2.17169 0.387895
v 0.733184 2.15377 0.426347
v 0.740616 2.1577 0.413005
v 0.711315 2.17299 0.389661
v 0.707952 2.17342 0.390249
v 0.69742 2.17476 0.392087
v 0.733184 2.15377 0.426347
v 0.637868 2.10439 0.467913
v 0.637868 2.10439 0.467913
v 0.637868 2.10439 0.467913
v 0.707952 2.17342 0.390249
v 0.711315 2.17299 0.389662
v 0.733542 2.15421 0.394575
v 0.733542 2.15421 0.394575
v 0.758175 2.16699 0.381482
v 0.749826 2.16806 0.382939
v 0.758175 2.16699 0.381482
v 0.721434 2.17169 0.387895
v 0.749826 2.16806 0.382939
v 0.758175 2.16699 0.381482
v 0.643 2.10723 0.442699
vt 0.786447 0.936349
vt 0.77209 0.940945
vt 0.771199 0.939055
vt -0.298983 -1.63838
vt -0.389288 -1.71459
vt -0.309394 -1.63616
vt 0.0742 -0.032055
vt 0.086078 -0.0275076
vt 0.0750539 -0.0426648
vt 0.0814636 -0.0088306
vt 0.0870916 -0.00972553
vt 0.440666 1.53383
vt 0.415187 1.63743
vt 0.446217 1.53253
vt 0.414494 1.57208
vt 0.43154 1.53595
vt -0.366428 -1.65381
vt -0.333627 -1.63101
vt -0.381696 -1.66443
vt -0.385667 -1.66719
vt 0.401845 1.64584
vt 0.406559 1.58889
vt 0.404496 1.59327
vt 0.787404 0.933969
vt 0.783118 0.931116
vt 0.784828 0.930881
vt 0.787001 0.934972
vt 0.786867 0.935305
vt 0.786447 0.936349
vt 0.783118 0.931116
vt 0.770253 0.937049
vt 0.456754 1.53008
vt 0.0977759 -0.0114244
vt -0.400059 -1.7143
vt -0.403499 -1.7142
vt -0.426232 -1.69539
vt 0.383414 1.63795
vt 0.370321 1.6657
vt 0.788536 0.931154
vt 0.788869 0.930326
vt -0.413848 -1.71392
vt -0.442887 -1.71314
vt -0.451426 -1.7129
vt 0.0722106 -0.00735938
vn -0.13387 0.776604 0.615602
vn -0.133853 0.776597 0.615614
vn -0.133881 0.776612 0.615589
vn -0.20991 -0.472397 -0.856025
vn -0.2099 -0.472416 -0.856017
vn -0.209892 -0.472417 -0.856018
vn -0.290998 -0.94232 -0.165389
vn -0.290977 -0.94233 -0.165371
vn -0.29105 -0.942306 -0.165379
vn -0.290964 -0.942334 -0.165368
vn -0.290945 -0.942344 -0.165347
vn 0.457572 -0.889145 -0.00702301
vn 0.457566 -0.889148 -0.00702258
vn 0.457572 -0.889145 -0.00700278
vn 0.457561 -0.889151 -0.00705175
vn 0.457572 -0.889145 -0.00704424
vn -0.209883 -0.472426 -0.856016
vn -0.209882 -0.472429 -0.856014
vn -0.209904 -0.47242 -0.856014
vn -0.209876 -0.472428 -0.856016
vn 0.457562 -0.88915 -0.00702999
vn 0.457557 -0.889153 -0.00700065
vn 0.45756 -0.889151 -0.00699088
vn 0.18113 0.911455 0.369379
vn 0.181145 0.911456 0.36937
vn 0.181106 0.911459 0.369383
vn 0.181181 0.911459 0.369345
vn 0.181151 0.911455 0.36937
vn 0.18107 0.91145 0.369423
vn -0.133894 0.77662 0.615576
vn -0.133901 0.776629 0.615563
vn 0.457561 -0.889151 -0.007044
vn -0.290942 -0.942339 -0.165377
vn -0.209848 -0.472438 -0.856017
vn -0.209858 -0.472437 -0.856016
vn -0.209882 -0.472439 -0.856009
vn 0.457567 -0.889147 -0.00706355
vn 0.457578 -0.889142 -0.00706863
vn 0.181085 0.91146 0.36939
vn 0.181059 0.911467 0.369384
vn -0.209895 -0.472433 -0.856009
vn -0.209875 -0.472451 -0.856004
vn -0.209855 -0.47247 -0.855998
vn -0.290978 -0.942328 -0.165377
f 1/1/1 2/2/2 3/3/3 
f 4/4/4 5/5/5 6/6/6 
f 7/7/7 8/8/8 9/9/9 
f 10/10/10 8/8/8 7/7/7 
f 10/10/10 11/11/11 8/8/8 
f 12/12/12 13/13/13 14/14/14 
f 12/12/12 15/15/15 13/13/13 
f 16/16/16 15/15/15 12/12/12 
f 17/17/17 18/18/18 6/6/6 
f 6/6/6 5/5/5 17/17/17 
f 5/5/5 19/19/19 17/17/17 
f 19/19/19 5/5/5 20/20/20 
f 21/21/21 22/22/22 23/23/23 
f 21/21/21 15/15/15 22/22/22 
f 13/13/13 15/15/15 21/21/21 
f 24/24/24 25/25/25 26/26/26 
f 27/27/27 25/25/25 24/24/24 
f 28/28/28 25/25/25 27/27/27 
f 29/29/29 25/25/25 28/28/28 
f 1/1/1 3/3/3 30/30/30 
f 30/30/30 3/3/3 31/31/31 
f 14/14/14 13/13/13 32/32/32 
f 11/11/11 33/33/33 8/8/8 
f 34/34/34 20/20/20 5/5/5 
f 35/35/35 20/20/20 34/34/34 
f 20/20/20 35/35/35 36/36/36 
f 21/21/21 23/23/23 37/37/37 
f 21/21/21 37/37/37 38/38/38 
f 39/39/39 26/26/26 40/40/40 
f 24/24/24 26/26/26 39/39/39 
f 36/36/36 41/41/41 42/42/42 
f 36/36/36 35/35/35 41/41/41 
f 43/43/43 36/36/36 42/42/42 
f 44/44/44 10/10/10 7/7/7 
