v -1.2988 -0.0248 -0.4853
v -1.33602 0.020355 -0.335254
v -1.28943 0.183648 -0.536247
v -1.33602 0.0203549 -0.335255
v -1.2988 -0.0248 -0.4853
v -1.26403 -0.0946555 -0.316966
v -1.33602 0.020355 -0.335254
v -1.26403 -0.0946554 -0.316966
v -1.25271 -0.101781 -0.323899
v -1.24387 -0.107345 -0.329313
v -1.24041 -0.109522 -0.331432
v -1.14951 -0.120617 -0.428426
v -1.13906 0.0015619 -0.550109
v -1.28943 0.183648 -0.536247
v -1.13785 0.0156047 -0.564095
v -1.12634 0.150192 -0.698135
v -1.12345 0.183896 -0.731703
v -1.12634 0.150192 -0.698135
v -1.17142 0.129705 -0.787021
v -1.12345 0.183896 -0.731703
v -1.17654 -0.025942 -0.611322
v -1.13785 0.0156047 -0.564095
v -1.13906 0.00156189 -0.550109
v -1.1911 -0.184741 -0.45562
v -1.1911 -0.184741 -0.45562
v -1.1969 -0.1888 -0.446
v -1.17654 -0.025942 -0.611322
v -1.1969 -0.1888 -0.446
v -1.1911 -0.184741 -0.45562
v -1.19264 -0.191577 -0.451216
v -1.19264 -0.191577 -0.451216
v -1.26047 -0.323879 -0.407777
v -1.1969 -0.1888 -0.446
v -1.25489 -0.347665 -0.419109
v -1.19264 -0.191577 -0.451216
v -1.21487 -0.275492 -0.405608
v -1.25489 -0.347665 -0.419109
v -1.17878 -0.210413 -0.393434
v -1.15209 -0.150787 -0.398379
v -1.1518 -0.147316 -0.401836
v -1.15163 -0.145405 -0.403739
v -1.14951 -0.120617 -0.428426
v -1.16645 -0.156089 -0.376745
v -1.15163 -0.145405 -0.403739
v -1.1518 -0.147316 -0.401836
v -1.15209 -0.150787 -0.398379
v -1.15326 -0.164395 -0.384826
v -1.15326 -0.164395 -0.384826
v -1.15326 -0.164395 -0.384826
v -1.20736 -0.184261 -0.37274
v -1.17878 -0.210414 -0.393434
v -1.16645 -0.156089 -0.376745
v -1.25694 -0.105224 -0.323695
v -1.24041 -0.109522 -0.331432
v -1.24387 -0.107345 -0.329313
v -1.25271 -0.101781 -0.323899
v -1.26403 -0.0946554 -0.316966
v -1.25694 -0.105224 -0.323695
v -1.1969 -0.1888 -0.446
v -1.1969 -0.1888 -0.446
v -1.20736 -0.184261 -0.37274
v -1.25694 -0.105224 -0.323695
v -1.20736 -0.184261 -0.37274
v -1.1969 -0.1888 -0.446
v -1.21512 -0.234361 -0.389454
v -1.21512 -0.234361 -0.389454
v -1.21487 -0.275492 -0.405608
v -1.26146 -0.31965 -0.405762
v -1.1969 -0.1888 -0.446
v -1.26146 -0.31965 -0.405762
v -1.21512 -0.234361 -0.389454
v -1.26146 -0.31965 -0.405762
v -1.26047 -0.323879 -0.407777
v -1.25489 -0.347665 -0.419109
v -1.2988 -0.0248 -0.4853
v -1.2988 -0.0248 -0.4853
v -1.17142 0.129705 -0.787021
v -1.17654 -0.025942 -0.611322
v -1.17142 0.129705 -0.787021
v -1.2988 -0.0248 -0.4853
v -1.15617 0.197148 -0.830283
v -1.15617 0.197148 -0.830282
v -1.12932 0.254166 -0.831646
v -1.12932 0.254166 -0.831646
v -1.15617 0.197148 -0.830283
v -1.12945 0.256806 -0.831083
v -1.12932 0.254166 -0.831647
v -1.12945 0.256806 -0.831083
v -1.12901 0.254103 -0.830804
v -1.12901 0.254103 -0.830803
v -1.12627 0.25354 -0.823197
v -1.11795 0.248214 -0.795759
v -1.11805 0.246974 -0.794524
v -1.11805 0.246974 -0.794524
v -1.12409 0.254793 -0.794427
v -1.12304 0.254708 -0.795578
v -1.11795 0.248214 -0.795759
v -1.11764 0.251771 -0.799302
v -1.1222 0.252706 -0.811925
v -1.11764 0.251771 -0.799302
v -1.12627 0.25354 -0.823197
v -1.12492 0.255788 -0.81855
v -1.1222 0.252706 -0.811925
v -1.12515 0.255841 -0.819201
v -1.12673 0.256195 -0.823565
v -1.12945 0.256806 -0.831083
v -1.16849 0.260891 -0.81257
v -1.12673 0.256195 -0.823565
v -1.16849 0.260891 -0.81257
v -1.16849 0.260891 -0.81257
v -1.23053 0.263449 -0.676968
v -1.23053 0.263449 -0.676968
v -1.15277 0.257126 -0.762774
v -1.12409 0.254793 -0.794427
v -1.12515 0.255841 -0.8192
v -1.12492 0.255788 -0.81855
v -1.12304 0.254708 -0.795578
v -1.11844 0.254334 -0.800656
v -1.11844 0.254334 -0.800656
v -1.11844 0.254334 -0.800656
v -1.11764 0.251771 -0.799302
v -1.15277 0.257126 -0.762774
v -1.23053 0.263449 -0.676968
v -1.28943 0.183648 -0.536247
vt 0.232 0.3517
vt 0.250639 0.352211
vt 0.231224 0.374644
vt 0.250639 0.352211
vt 0.232 0.3517
vt 0.248468 0.341078
vt 0.637157 -0.609935
vt 0.504208 -0.57724
vt 0.495972 -0.564628
vt 0.48954 -0.554778
vt 0.487023 -0.550924
vt 0.474197 -0.418146
vt 0.615433 -0.318665
vt 0.825919 -0.426626
vt 0.631666 -0.307231
vt 0.787244 -0.197648
vt 0.826206 -0.170205
vt -1.02094 -0.352358
vt -1.11533 -0.390346
vt -1.05659 -0.320729
vt -0.928754 -0.532859
vt -0.878603 -0.47866
vt -0.863751 -0.491838
vt -0.763411 -0.682304
vt 0.229063 0.336221
vt 0.2304 0.3355
vt 0.211887 0.356268
vt 0.2304 0.3355
vt 0.229063 0.336221
vt 0.229535 0.335383
vt 0.229535 0.335383
vt 0.234557 0.321277
vt 0.2304 0.3355
vt 0.232428 0.319301
vt -0.758733 -0.689131
vt -0.710301 -0.774398
vt -0.724638 -0.856785
vt -0.697374 -0.700109
vt -0.702624 -0.634807
vt -0.706295 -0.63155
vt -0.708316 -0.629757
vt -0.734532 -0.606495
vt 0.433193 -0.468492
vt 0.445543 -0.438329
vt 0.443335 -0.439885
vt 0.439323 -0.44271
vt 0.423592 -0.45379
vt -0.688232 -0.647578
vt 0.994755 -0.293105
vt 1.05193 -0.307215
vt 1.02172 -0.339103
vt 1.0087 -0.282429
vt 1.10432 -0.215752
vt 1.08686 -0.22257
vt 1.09051 -0.219772
vt 1.09985 -0.212619
vt 1.11181 -0.20346
vt 0.247317 0.340261
vt 0.2304 0.3355
vt 0.2304 0.3355
vt 0.240085 0.334236
vt 0.247317 0.340261
vt 0.240085 0.334236
vt 0.2304 0.3355
vt 0.236926 0.329937
vt 1.06013 -0.359963
vt 1.05986 -0.404152
vt 1.1091 -0.445342
vt 0.2304 0.3355
vt 0.234935 0.321628
vt 0.236926 0.329937
vt 0.234935 0.321628
vt 1.10805 -0.450014
vt 1.10216 -0.476292
vt 0.232 0.3517
vt 0.232 0.3517
vt 0.199201 0.376533
vt 0.211887 0.356268
vt 0.199201 0.376533
vt 0.232 0.3517
vt 0.19568 0.38475
vt -1.16128 -0.32295
vt -1.16272 -0.259928
vt 0.19474 0.391316
vt 0.19568 0.38475
vt 0.194855 0.391578
vt 0.345695 1.1591
vt 0.348354 1.15861
vt 0.345633 1.15821
vt -1.16183 -0.259853
vt -1.15375 -0.259172
vt -1.12461 -0.260371
vt -1.1233 -0.261534
vt 0.899122 -0.118846
vt 0.908161 -0.122829
vt 0.908062 -0.121276
vt 0.900555 -0.117837
vt 0.904666 -0.114941
vt -1.14178 -0.258162
vt -1.12838 -0.257032
vt 0.345065 1.15012
vt 0.347329 1.14529
vt 0.344225 1.13813
vt 0.347382 1.14598
vt 0.347739 1.15062
vt -0.834855 1.15226
vt -0.816329 1.19151
vt -0.827331 1.14948
vt 0.199507 0.390779
vt 0.199507 0.390779
vt 0.216128 0.387022
vt -0.680635 1.2534
vt -0.7665 1.17545
vt -0.798174 1.14669
vt -0.822964 1.14787
vt -0.822313 1.14763
vt -0.799326 1.14565
vt -0.804407 1.14103
vt 0.90763 -0.114427
vt 0.345865 1.12626
vt 0.343284 1.12472
vt 0.910857 -0.165524
vt 0.918166 -0.281265
vt 0.231224 0.374644
vn -0.971479 -0.0141839 -0.236702
vn -0.971479 -0.0141839 -0.236702
vn -0.971479 -0.0141839 -0.236702
vn -0.843212 -0.535432 -0.0480207
vn -0.843212 -0.535433 -0.0480211
vn -0.843211 -0.535434 -0.0480221
vn 0.659081 0.50164 0.560329
vn 0.659099 0.501649 0.5603
vn 0.659087 0.501643 0.56032
vn 0.659065 0.50163 0.560358
vn 0.659077 0.501637 0.560337
vn 0.659086 0.501645 0.56032
vn 0.659085 0.501642 0.560324
vn 0.659084 0.501643 0.560323
vn 0.659083 0.501642 0.560326
vn 0.659084 0.501646 0.560322
vn 0.659087 0.501643 0.56032
vn 0.848813 -0.407776 -0.336505
vn 0.84882 -0.407772 -0.336492
vn 0.848814 -0.407773 -0.336505
vn 0.848813 -0.407779 -0.336502
vn 0.848812 -0.407781 -0.3365
vn 0.848815 -0.407777 -0.336499
vn 0.848815 -0.407781 -0.336493
vn -0.613999 -0.523175 -0.59101
vn -0.614019 -0.523162 -0.591001
vn -0.614019 -0.523162 -0.591001
vn -0.806459 -0.181243 -0.562828
vn -0.806459 -0.181243 -0.562828
vn -0.806459 -0.181243 -0.562828
vn -0.724543 0.150651 -0.672563
vn -0.724538 0.150646 -0.67257
vn -0.724533 0.150642 -0.672576
vn -0.724547 0.150655 -0.672558
vn 0.848812 -0.407785 -0.336496
vn 0.848814 -0.407777 -0.336502
vn 0.84881 -0.407779 -0.336509
vn 0.848811 -0.407775 -0.33651
vn 0.848805 -0.407819 -0.336474
vn 0.84881 -0.407782 -0.336505
vn 0.848816 -0.407747 -0.336532
vn 0.848818 -0.40777 -0.336501
vn 0.659049 0.501688 0.560325
vn 0.659002 0.501756 0.56032
vn 0.658999 0.501754 0.560325
vn 0.659077 0.501642 0.560332
vn 0.659079 0.501639 0.560333
vn 0.8488 -0.407774 -0.336539
vn 0.323313 -0.344188 0.881478
vn 0.323315 -0.344188 0.881477
vn 0.323319 -0.344191 0.881475
vn 0.323313 -0.344186 0.881479
vn 0.323323 -0.344163 0.881484
vn 0.323327 -0.344152 0.881487
vn 0.323334 -0.34414 0.881489
vn 0.323324 -0.344163 0.881484
vn 0.323321 -0.344159 0.881486
vn -0.843211 -0.535433 -0.0480213
vn -0.843213 -0.53543 -0.0480192
vn -0.868574 -0.486593 -0.0938405
vn -0.868574 -0.486593 -0.0938405
vn -0.868574 -0.486593 -0.0938405
vn -0.968088 0.200306 -0.150608
vn -0.968088 0.200306 -0.150608
vn -0.968088 0.200306 -0.150608
vn 0.323319 -0.344191 0.881475
vn 0.323316 -0.34419 0.881476
vn 0.323312 -0.344188 0.881478
vn -0.882258 0.462421 0.0882508
vn -0.882258 0.462421 0.0882508
vn -0.882258 0.462421 0.0882508
vn -0.724527 0.150636 -0.672584
vn 0.323314 -0.344189 0.881477
vn 0.323321 -0.344195 0.881472
vn -0.614039 -0.52315 -0.590991
vn -0.574621 -0.604229 -0.552013
vn -0.574621 -0.604229 -0.552013
vn -0.574621 -0.604229 -0.552013
vn -0.908109 -0.0604461 -0.414349
vn -0.908108 -0.0604495 -0.414351
vn -0.908107 -0.0604493 -0.414352
vn 0.848814 -0.407778 -0.3365
vn 0.848853 -0.407763 -0.33642
vn -0.407313 0.170352 -0.89726
vn -0.407452 0.170415 -0.897185
vn -0.407452 0.170415 -0.897185
vn 0.936885 0.118055 -0.329104
vn 0.936867 0.118046 -0.329157
vn 0.936836 0.118169 -0.329204
vn 0.848851 -0.407763 -0.336423
vn 0.848783 -0.407846 -0.336496
vn 0.848771 -0.407857 -0.336513
vn 0.848799 -0.407771 -0.336547
vn 0.659074 0.501594 0.560379
vn 0.65904 0.5016 0.560414
vn 0.659089 0.501599 0.560358
vn 0.659152 0.501594 0.560288
vn 0.659112 0.501627 0.560305
vn 0.84874 -0.407942 -0.336489
vn 0.848763 -0.407899 -0.336483
vn 0.936647 0.118784 -0.329518
vn 0.936615 0.118855 -0.329585
vn 0.936794 0.118256 -0.329292
vn 0.936509 0.119298 -0.329725
vn 0.936799 0.118289 -0.329266
vn 0.1212 0.991948 0.0367279
vn 0.121202 0.991948 0.0367361
vn 0.121202 0.991948 0.0367326
vn -0.407591 0.170478 -0.89711
vn -0.908107 -0.0604479 -0.414353
vn -0.908107 -0.0604491 -0.414353
vn 0.121201 0.991948 0.0367389
vn 0.121202 0.991948 0.0367385
vn 0.121046 0.991967 0.0367467
vn 0.121033 0.991968 0.0367461
vn 0.120998 0.991972 0.0367486
vn 0.121151 0.991954 0.0367416
vn 0.121219 0.991946 0.0367356
vn 0.659109 0.501691 0.560251
vn 0.936792 0.11832 -0.329274
vn 0.936782 0.118383 -0.32928
vn 0.659086 0.501642 0.560322
vn 0.659087 0.501641 0.560323
vn -0.908107 -0.0604516 -0.414352
f 1/1/1 2/2/2 3/3/3 
f 4/4/4 5/5/5 6/6/6 
f 7/7/7 8/8/8 9/9/9 
f 7/7/7 9/9/9 10/10/10 
f 7/7/7 10/10/10 11/11/11 
f 7/7/7 11/11/11 12/12/12 
f 13/13/13 7/7/7 12/12/12 
f 13/13/13 14/14/14 7/7/7 
f 15/15/15 14/14/14 13/13/13 
f 16/16/16 14/14/14 15/15/15 
f 16/16/16 17/17/17 14/14/14 
f 18/18/18 19/19/19 20/20/20 
f 18/18/18 21/21/21 19/19/19 
f 22/22/22 21/21/21 18/18/18 
f 23/23/23 21/21/21 22/22/22 
f 21/21/21 23/23/23 24/24/24 
f 25/25/25 26/26/26 27/27/27 
f 28/28/28 29/29/29 30/30/30 
f 31/31/31 32/32/32 33/33/33 
f 31/31/31 34/34/34 32/32/32 
f 35/35/35 36/36/36 37/37/37 
f 35/35/35 38/38/38 36/36/36 
f 35/35/35 39/39/39 38/38/38 
f 35/35/35 40/40/40 39/39/39 
f 35/35/35 41/41/41 40/40/40 
f 24/24/24 41/41/41 35/35/35 
f 24/24/24 42/42/42 41/41/41 
f 24/24/24 23/23/23 42/42/42 
f 43/43/43 44/44/44 12/12/12 
f 43/43/43 45/45/45 44/44/44 
f 45/45/45 43/43/43 46/46/46 
f 47/47/47 46/46/46 43/43/43 
f 38/38/38 39/39/39 48/48/48 
f 49/49/49 50/50/50 51/51/51 
f 52/52/52 50/50/50 49/49/49 
f 52/52/52 53/53/53 50/50/50 
f 54/54/54 53/53/53 52/52/52 
f 55/55/55 53/53/53 54/54/54 
f 56/56/56 53/53/53 55/55/55 
f 53/53/53 56/56/56 57/57/57 
f 6/6/6 5/5/5 58/58/58 
f 59/59/59 58/58/58 5/5/5 
f 60/60/60 61/61/61 62/62/62 
f 63/63/63 64/64/64 65/65/65 
f 50/50/50 66/66/66 51/51/51 
f 51/51/51 66/66/66 67/67/67 
f 66/66/66 68/68/68 67/67/67 
f 69/69/69 70/70/70 71/71/71 
f 33/33/33 32/32/32 72/72/72 
f 67/67/67 68/68/68 73/73/73 
f 67/67/67 73/73/73 74/74/74 
f 27/27/27 26/26/26 75/75/75 
f 76/76/76 77/77/77 78/78/78 
f 79/79/79 80/80/80 81/81/81 
f 82/82/82 83/83/83 19/19/19 
f 84/84/84 85/85/85 86/86/86 
f 87/87/87 88/88/88 89/89/89 
f 19/19/19 83/83/83 90/90/90 
f 19/19/19 90/90/90 91/91/91 
f 19/19/19 91/91/91 92/92/92 
f 19/19/19 92/92/92 93/93/93 
f 20/20/20 19/19/19 93/93/93 
f 94/94/94 95/95/95 17/17/17 
f 94/94/94 96/96/96 95/95/95 
f 97/97/97 96/96/96 94/94/94 
f 97/97/97 98/98/98 96/96/96 
f 92/92/92 99/99/99 100/100/100 
f 92/92/92 91/91/91 99/99/99 
f 101/101/101 102/102/102 103/103/103 
f 101/101/101 104/104/104 102/102/102 
f 101/101/101 105/105/105 104/104/104 
f 89/89/89 105/105/105 101/101/101 
f 89/89/89 88/88/88 105/105/105 
f 106/106/106 107/107/107 108/108/108 
f 86/86/86 85/85/85 109/109/109 
f 110/110/110 81/81/81 111/111/111 
f 107/107/107 112/112/112 113/113/113 
f 107/107/107 113/113/113 114/114/114 
f 115/115/115 107/107/107 114/114/114 
f 108/108/108 107/107/107 115/115/115 
f 115/115/115 114/114/114 116/116/116 
f 116/116/116 114/114/114 117/117/117 
f 117/117/117 118/118/118 116/116/116 
f 96/96/96 98/98/98 119/119/119 
f 103/103/103 120/120/120 121/121/121 
f 103/103/103 102/102/102 120/120/120 
f 17/17/17 95/95/95 122/122/122 
f 122/122/122 14/14/14 17/17/17 
f 123/123/123 14/14/14 122/122/122 
f 111/111/111 81/81/81 124/124/124 
f 124/124/124 81/81/81 80/80/80 
f 11/11/11 43/43/43 12/12/12 
