v 1.31185 0.40116 0.442856
v 1.18376 0.412706 0.311056
v 1.28763 0.428661 0.435682
v 1.18376 0.412706 0.311056
v 1.31185 0.40116 0.442856
v 1.26512 0.412862 0.427642
v 1.20835 0.419683 0.37671
v 1.17427 0.420624 0.332296
v 1.15447 0.42117 0.306497
v 1.18376 0.412706 0.311056
v 1.15447 0.42117 0.306497
v 1.15934 0.454814 0.313906
v 1.15934 0.454814 0.313906
v 1.24162 0.480895 0.422055
v 1.28763 0.428661 0.435682
v 1.24162 0.480895 0.422055
v 1.24159 0.457454 0.421267
v 1.24158 0.446232 0.42089
v 1.26512 0.412862 0.427642
v 1.31185 0.40116 0.442856
v 1.24154 0.418766 0.419966
v 1.24158 0.446232 0.42089
v 1.20835 0.419683 0.37671
v 1.24154 0.418766 0.419966
v 1.24159 0.457454 0.421267
v 1.15934 0.454814 0.313906
v 1.24162 0.480895 0.422056
v 1.17427 0.420624 0.332296
v 1.15448 0.42117 0.306496
v 1.24154 0.418766 0.419966
vt 0.789451 0.709295
vt 0.809754 0.707905
vt 0.792352 0.7122
vt 0.464532 0.998537
vt 0.599392 1.12394
vt 0.583824 1.07588
vt 0.53171 1.01977
vt 0.486265 0.98707
vt 0.459867 0.968073
vt 0.809754 0.707905
vt 0.812441 0.70881
vt 0.812145 0.712634
vt 0.812145 0.712634
vt 0.797861 0.717718
vt 0.428623 1.35933
vt 0.480882 1.31138
vt 0.45743 1.31109
vt 0.446202 1.31096
vt 0.412816 1.33543
vt 0.401108 1.38458
vt 0.418723 1.31063
vt 0.432015 1.08947
vt 0.405461 1.0342
vt 0.404544 1.08872
vt 0.443239 1.08978
vt 0.440599 0.954533
vt 0.466685 1.09043
vt 0.406402 0.978215
vt 0.406948 0.945696
vt 0.57597 1.05163
vn 0.666586 0.427913 -0.610372
vn 0.666586 0.427913 -0.610372
vn 0.666586 0.427913 -0.610372
vn -0.301699 -0.929582 0.211791
vn -0.301699 -0.929582 0.211791
vn -0.301699 -0.929582 0.211791
vn -0.301699 -0.929582 0.211791
vn -0.301699 -0.929582 0.211791
vn -0.301699 -0.929582 0.211791
vn 0.20259 0.182612 -0.962086
vn 0.20259 0.182612 -0.962086
vn 0.20259 0.182612 -0.962086
vn 0.666586 0.427913 -0.610372
vn 0.666586 0.427913 -0.610372
vn -0.316505 -0.0314565 0.948069
vn -0.316505 -0.0314565 0.948069
vn -0.316505 -0.0314565 0.948069
vn -0.316505 -0.0314565 0.948069
vn -0.316505 -0.0314565 0.948069
vn -0.316505 -0.0314565 0.948069
vn -0.316505 -0.0314565 0.948069
vn -0.793424 -0.0193825 0.60836
vn -0.793424 -0.0193825 0.60836
vn -0.793424 -0.0193825 0.60836
vn -0.793424 -0.0193825 0.60836
vn -0.793424 -0.0193825 0.60836
vn -0.793424 -0.0193825 0.60836
vn -0.793424 -0.0193825 0.60836
vn -0.793424 -0.0193825 0.60836
vn -0.301699 -0.929582 0.211791
f 1/1/1 2/2/2 3/3/3 
f 4/4/4 5/5/5 6/6/6 
f 4/4/4 6/6/6 7/7/7 
f 4/4/4 7/7/7 8/8/8 
f 4/4/4 8/8/8 9/9/9 
f 10/10/10 11/11/11 12/12/12 
f 3/3/3 2/2/2 13/13/13 
f 3/3/3 13/13/13 14/14/14 
f 15/15/15 16/16/16 17/17/17 
f 15/15/15 17/17/17 18/18/18 
f 15/15/15 18/18/18 19/19/19 
f 20/20/20 15/15/15 19/19/19 
f 18/18/18 21/21/21 19/19/19 
f 22/22/22 23/23/23 24/24/24 
f 23/23/23 22/22/22 25/25/25 
f 25/25/25 26/26/26 23/23/23 
f 27/27/27 26/26/26 25/25/25 
f 23/23/23 26/26/26 28/28/28 
f 28/28/28 26/26/26 29/29/29 
f 7/7/7 6/6/6 30/30/30 
