v 1.10555 -0.0974402 1.13481
v 0.866878 -0.182806 1.18132
v 0.995278 -0.175405 1.13893
v 0.866878 -0.182806 1.18132
v 1.10555 -0.0974402 1.13481
v 0.839566 -0.183049 1.18602
v 0.839566 -0.183049 1.18602
v 0.826615 -0.182194 1.1851
v 0.866879 -0.182806 1.18132
v 0.839566 -0.183049 1.18602
v 0.9852 0.3531 1.1259
v 0.826615 -0.182194 1.1851
v 0.9852 0.3531 1.1259
v 1.23651 0.113087 1.09856
v 1.23651 0.113087 1.09856
v 1.22136 0.275513 1.06377
v 0.9852 0.3531 1.1259
v 1.272 0.173569 1.07146
v 1.30187 0.224663 1.04772
v 1.22136 0.275513 1.06377
v 1.30187 0.224663 1.04772
v 1.29424 0.219217 1.01544
v 1.27322 0.204217 0.926523
v 1.20461 0.155266 0.636376
v 1.01373 0.251189 0.593348
v 1.18703 0.142722 0.562021
v 1.20461 0.155266 0.636376
v 1.13174 0.0569302 0.561772
v 1.18703 0.142722 0.562021
v 1.10076 0.0079377 0.566253
v 1.10907 0.0217534 0.561669
v 1.10907 0.0217538 0.561669
v 1.01082 0.0112932 0.530874
v 1.13174 0.0569302 0.561772
v 1.07565 0.00104156 0.554861
v 1.07565 0.00104152 0.554861
v 1.09036 -0.0174023 0.612606
v 1.01082 0.0112933 0.530874
v 1.09326 -0.00451976 0.570387
v 1.09326 -0.00451973 0.570387
v 1.09036 -0.0174023 0.612606
v 1.09326 -0.00451964 0.570387
v 1.07565 0.00104159 0.554861
v 1.10076 0.00793774 0.566253
v 1.10907 0.0217535 0.561669
v 1.08839 -0.0261676 0.641332
v 1.07975 -0.064511 0.766991
v 1.08839 -0.0261676 0.641332
v 1.07975 -0.064511 0.766991
v 0.927387 -0.031643 0.682141
v 0.968346 -0.0103956 0.607332
v 0.862438 0.0867176 0.561316
v 0.968346 -0.0103956 0.607332
v 0.927387 -0.031643 0.682141
v 0.978998 -0.00486979 0.587876
v 0.978998 -0.0048698 0.587876
v 1.01019 0.011309 0.530913
v 1.01031 0.0113737 0.530685
v 1.01019 0.011309 0.530913
v 1.0099 0.0117819 0.530459
v 1.01031 0.0113737 0.530685
v 0.965429 0.0557496 0.506112
v 0.965429 0.0557496 0.506112
v 0.991141 0.0800152 0.50957
v 1.0099 0.0117819 0.530459
v 0.965429 0.0557496 0.506112
v 0.862438 0.0867176 0.561316
v 0.991141 0.0800152 0.50957
v 1.01373 0.251189 0.593348
v 1.05154 0.137019 0.517692
v 1.05778 0.142904 0.518531
v 1.05154 0.137019 0.517692
v 1.05778 0.142904 0.518531
v 1.01031 0.0113737 0.530685
v 1.09877 0.181585 0.524043
v 1.09877 0.181584 0.524043
v 1.09877 0.181585 0.524043
v 1.18703 0.142722 0.562021
v 0.704281 0.134273 0.64609
v 0.870263 0.368628 0.710283
v 0.870263 0.368628 0.710283
v 0.923545 0.446176 1.06577
v 0.793064 0.431821 0.773203
v 0.72512 0.5185 0.930857
v 0.714696 0.495969 0.837076
v 0.7023 0.506116 0.847179
v 0.667093 0.535831 0.878824
v 0.666205 0.535662 0.876598
v 0.702299 0.506116 0.847179
v 0.522358 0.471197 0.895663
v 0.666205 0.535662 0.876598
v 0.521996 0.471034 0.895711
v 0.520906 0.470509 0.89623
v 0.522358 0.471197 0.895663
v 0.521996 0.471034 0.895711
v 0.610123 0.505017 0.940469
v 0.666205 0.535661 0.876598
v 0.667093 0.53583 0.878824
v 0.642137 0.517516 0.955148
v 0.6436 0.3451 0.9278
v 0.642137 0.517516 0.955148
v 0.610123 0.505017 0.940469
v 0.642137 0.517516 0.955148
v 0.6436 0.3451 0.9278
v 0.693009 0.540765 0.943792
v 0.689652 0.540125 0.935375
v 0.693009 0.540765 0.943792
v 0.689652 0.540125 0.935375
v 0.693009 0.540765 0.943792
v 0.72512 0.5185 0.930857
v 0.6436 0.3451 0.9278
v 0.923545 0.446176 1.06577
v 0.72512 0.5185 0.930857
v 0.9852 0.3531 1.1259
v 0.9852 0.3531 1.1259
v 0.993187 0.418913 1.10694
v 0.923545 0.446176 1.06577
v 0.993187 0.418913 1.10694
v 0.993187 0.418913 1.10694
v 0.642703 0.0261122 1.14618
v 0.9852 0.3531 1.1259
v 0.6436 0.3451 0.9278
v 0.642989 0.0254763 1.14678
v 0.642989 0.0254763 1.14678
v 0.826585 -0.182192 1.18509
v 0.643523 0.0242723 1.14697
v 0.643523 0.0242723 1.14697
v 0.727709 -0.166118 1.14708
v 0.826585 -0.182192 1.18509
v 0.727709 -0.166118 1.14708
v 0.643523 0.0242722 1.14697
v 0.716078 -0.141261 1.06809
v 0.727709 -0.166118 1.14708
v 0.716078 -0.141261 1.06809
v 0.789349 -0.103251 0.934263
v 0.995278 -0.175405 1.13893
v 0.805733 -0.0947519 0.904338
v 1.07171 -0.10021 0.883985
v 0.807866 -0.0936454 0.900442
v 0.805733 -0.0947519 0.904338
v 0.667859 -0.0344034 0.94849
v 0.807866 -0.0936455 0.900442
v 0.789349 -0.103251 0.934263
v 0.716078 -0.141261 1.06809
v 0.667859 -0.0344034 0.94849
v 0.665912 -0.0300887 0.943661
v 0.665558 -0.0293043 0.942783
v 0.642703 0.0261122 1.14618
v 0.662845 -0.0232923 0.936054
v 0.811091 -0.0919725 0.894552
v 0.665558 -0.0293044 0.942783
v 0.662845 -0.0232923 0.936054
v 0.808246 -0.0934481 0.899747
v 0.665912 -0.0300887 0.943661
v 0.808246 -0.0934481 0.899747
v 0.811091 -0.0919725 0.894552
v 1.07718 -0.07594 0.804446
v 0.704281 0.134273 0.64609
v 0.697468 0.136322 0.649742
v 0.695063 0.137045 0.651031
v 0.676156 0.14273 0.661165
v 0.608443 0.0972684 0.801116
v 0.653218 0.149627 0.67346
v 0.579392 0.161649 0.729058
v 0.585158 0.170092 0.709941
v 0.585158 0.170092 0.709941
v 0.520661 0.470436 0.895888
v 0.653218 0.149627 0.67346
v 0.52031 0.470279 0.895935
v 0.481441 0.385661 0.86488
v 0.52031 0.470279 0.895935
v 0.481441 0.385661 0.864879
v 0.520906 0.470509 0.89623
v 0.52031 0.470279 0.895935
v 0.52075 0.470476 0.895877
v 0.52134 0.47074 0.895798
v 0.793064 0.43182 0.773203
v 0.52075 0.470476 0.895877
v 0.52134 0.47074 0.895798
v 0.676156 0.14273 0.661165
v 0.52073 0.470467 0.895879
v 0.695063 0.137045 0.651031
v 0.697468 0.136322 0.649742
v 0.714696 0.495969 0.837076
v 0.534014 0.266809 0.867382
v 0.6436 0.3451 0.9278
v 0.534014 0.266809 0.867382
v 0.642703 0.0261122 1.14618
v 0.608443 0.0972684 0.801116
v 0.534014 0.266809 0.867382
v 0.579392 0.161649 0.729058
v 0.574079 0.173423 0.71588
v 0.574079 0.173423 0.71588
v 0.574079 0.173423 0.71588
v 0.481441 0.385661 0.864879
v 1.07718 -0.07594 0.804446
v 1.07171 -0.10021 0.883985
v 1.05555 -0.17193 1.11902
v 1.10555 -0.0974403 1.13481
v 1.05555 -0.17193 1.11902
v 1.05555 -0.17193 1.11902
v 1.27322 0.204217 0.926523
v 1.23651 0.113087 1.09856
v 1.272 0.173569 1.07146
v 1.29424 0.219217 1.01544
v 1.30187 0.224663 1.04772
v 0.642989 0.0254763 1.14678
vt 0.681493 0.669073
vt 0.65824 0.657379
vt 0.672226 0.659194
vt 0.65824 0.657379
vt 0.681493 0.669073
vt 0.655534 0.657162
vt -0.831479 1.18733
vt -0.818516 1.18619
vt -0.858816 1.18277
vt 0.655534 0.657162
vt 0.6674 0.7213
vt 0.654135 0.657105
vt 0.6674 0.7213
vt 0.693466 0.694766
vt 0.693466 0.694766
vt 0.695617 0.713368
vt 0.6674 0.7213
vt 0.699522 0.701864
vt 0.7041 0.706264
vt 1.24406 -0.924008
vt 1.22746 -1.01914
vt 1.19408 -1.01522
vt 1.10213 -1.0044
vt 0.802057 -0.969091
vt 0.757557 -0.755771
vt 0.725159 -0.960043
vt 0.731939 0.782801
vt 0.656905 0.660671
vt 0.657157 0.762735
vt 0.661413 0.602706
vt 0.656802 0.618823
vt -0.0142157 -1.23024
vt -0.0248888 -1.12729
vt 0.0216753 -1.25176
vt -0.0353488 -1.19639
vt -1.06778 0.529947
vt -1.0825 0.590562
vt -1.00288 0.504004
vt -1.0854 0.546422
vt 0.665571 0.588175
vt 0.708032 0.575773
vt -1.18114 0.338335
vt -1.16123 0.324722
vt -1.18962 0.325822
vt -1.19903 0.311945
vt 0.736924 0.567335
vt 0.863306 0.530422
vt -1.08052 0.620595
vt -1.07188 0.751974
vt -0.919378 0.661207
vt -0.960373 0.583459
vt 0.241168 0.679258
vt 0.293347 0.820829
vt 0.378174 0.797814
vt 0.271286 0.826814
vt -0.971035 0.563239
vt -1.00225 0.504037
vt -1.00238 0.5038
vt 0.206694 0.844339
vt 0.206179 0.843841
vt 0.206435 0.844409
vt 0.178571 0.782676
vt 0.0204707 -1.07638
vt 0.0452293 -1.10185
vt -0.0243903 -1.12629
vt -0.785932 -0.289143
vt -0.677502 -0.342591
vt -0.813002 -0.312145
vt -0.836788 -0.502576
vt -0.876595 -0.366181
vt -0.88316 -0.37176
vt 0.103391 -1.16169
vt 0.109396 -1.16787
vt -0.0248067 -1.12675
vt 0.148862 -1.20848
vt -0.926312 -0.408427
vt 0.685882 -0.864128
vt 0.10921 -1.30424
vt -0.510994 -0.424667
vt -0.68574 -0.661429
vt 0.878491 -0.572946
vt 1.24614 -0.580764
vt 0.943563 -0.474572
vt 1.10661 -0.372588
vt 1.00962 -0.374708
vt 1.02007 -0.358912
vt 1.0528 -0.313604
vt 1.05049 -0.312917
vt -0.508907 -0.8474
vt -0.319463 -0.839657
vt -0.470907 -0.887365
vt -0.319082 -0.839536
vt 0.872719 -0.665391
vt 0.87215 -0.666997
vt 0.872198 -0.6666
vt 0.917135 -0.760967
vt 0.853008 -0.824619
vt 0.855243 -0.8255
vt 0.931872 -0.795309
vt 0.5712 0.4102
vt 0.566689 0.430071
vt 0.563257 0.42712
vt 0.627761 0.752262
vt 0.6226 0.7278
vt 0.634912 0.753799
vt 0.912021 -0.847899
vt 0.920471 -0.851233
vt 1.11128 -0.331064
vt 1.11999 -0.333663
vt 0.638281 0.749539
vt 0.6226 0.7278
vt 0.662064 0.73531
vt 0.638281 0.749539
vt 0.6674 0.7213
vt 0.6674 0.7213
vt 0.670076 0.728896
vt 0.662064 0.73531
vt 0.670076 0.728896
vt 1.28871 -0.65476
vt 0.632871 0.679139
vt 0.6674 0.7213
vt 0.6226 0.7278
vt 0.632929 0.679036
vt 0.632929 0.679036
vt 0.654132 0.657104
vt 0.632995 0.678902
vt 0.632995 0.678902
vt 0.643285 0.657
vt 0.654132 0.657104
vt 1.15149 0.446215
vt 1.15137 0.238043
vt 1.07249 0.418778
vt -0.719522 1.14513
vt -0.707881 1.06232
vt -0.781217 0.923237
vt -0.98733 1.14007
vt -0.797616 0.892136
vt -1.06383 0.874293
vt -0.799751 0.888087
vt 0.630129 0.729456
vt 0.680194 0.580815
vt 0.625712 0.730655
vt 0.664062 0.72025
vt 0.815812 0.679079
vt 0.952887 0.301548
vt 0.948058 0.296814
vt 0.94718 0.295954
vt 1.15058 0.236028
vt 0.940451 0.289358
vt 0.619033 0.732467
vt 0.673723 0.576127
vt 0.666093 0.570598
vt 0.624924 0.730869
vt 0.674718 0.576848
vt -0.800132 0.887365
vt -0.802979 0.881965
vt -1.0693 0.791134
vt 0.337295 0.520446
vt 0.341437 0.513604
vt 0.342898 0.51119
vt 0.35439 0.492204
vt 0.513084 0.459734
vt 0.368331 0.469171
vt 0.431375 0.400532
vt 0.409698 0.40083
vt -0.38558 -0.486486
vt -0.317677 -0.839094
vt -0.457234 -0.451166
vt -0.317307 -0.838977
vt -0.276386 -0.749754
vt 0.553398 0.418963
vt 0.550849 0.407398
vt 0.553463 0.419017
vt 0.872422 -0.664752
vt 0.872364 -0.665234
vt 0.872285 -0.665881
vt -0.604464 -0.746905
vt -0.31777 -0.839123
vt -0.318391 -0.839319
vt -0.481383 -0.439263
vt -0.31775 -0.839117
vt -0.501288 -0.429451
vt -0.50382 -0.428203
vt -0.521958 -0.833675
vt 0.560056 0.396101
vt 0.6226 0.7278
vt 0.606792 0.712562
vt 0.632871 0.679139
vt 0.80551 0.157096
vt 0.871777 -0.0280624
vt 0.73345 0.086466
vt 0.720271 0.0735486
vt 0.416432 0.389704
vt -0.373916 -0.492236
vt 0.869275 -0.158023
vt 0.900976 0.51942
vt 0.980973 0.496055
vt 1.21737 0.427011
vt 1.23325 0.516707
vt 0.678791 0.660047
vt -1.04766 1.12003
vt 1.02376 0.861103
vt 1.19679 0.764613
vt 1.16952 0.834677
vt 1.11318 0.885098
vt 1.14565 0.893809
vt 1.15119 0.236726
vn 0.306653 -0.391669 0.867502
vn 0.304644 -0.392265 0.86794
vn 0.305669 -0.391961 0.867717
vn 0.168584 0.0644932 0.983575
vn 0.168584 0.0644932 0.983575
vn 0.168584 0.0644932 0.983575
vn -0.0421108 -0.954803 -0.294241
vn -0.0421108 -0.954803 -0.294241
vn -0.0421108 -0.954803 -0.294241
vn -0.0619716 0.127824 0.989859
vn -0.0619716 0.127824 0.989859
vn -0.0619716 0.127824 0.989859
vn 0.168584 0.0644932 0.983575
vn 0.168584 0.0644932 0.983575
vn 0.325201 0.230719 0.917068
vn 0.329339 0.232626 0.915107
vn 0.316838 0.226857 0.92095
vn 0.329339 0.232626 0.915107
vn 0.329339 0.232626 0.915107
vn 0.479467 0.839684 -0.255034
vn 0.479467 0.839684 -0.255034
vn 0.479467 0.839684 -0.255034
vn 0.479467 0.839684 -0.255034
vn 0.479467 0.839684 -0.255034
vn 0.479467 0.839684 -0.255034
vn 0.479467 0.839684 -0.255034
vn 0.835906 -0.538377 -0.106826
vn 0.835906 -0.538377 -0.106826
vn 0.835906 -0.538377 -0.106826
vn 0.835906 -0.538377 -0.106826
vn 0.835906 -0.538377 -0.106826
vn 0.312318 -0.198563 -0.928994
vn 0.312318 -0.198563 -0.928994
vn 0.312318 -0.198563 -0.928994
vn 0.312318 -0.198563 -0.928994
vn -0.0421108 -0.954803 -0.294241
vn -0.0421108 -0.954803 -0.294241
vn -0.0421108 -0.954803 -0.294241
vn -0.0421108 -0.954803 -0.294241
vn 0.835906 -0.538377 -0.106826
vn 0.835906 -0.538377 -0.106826
vn 0.467344 -0.518732 -0.715896
vn 0.467344 -0.518732 -0.715896
vn 0.467344 -0.518732 -0.715896
vn 0.467344 -0.518732 -0.715896
vn 0.835906 -0.538377 -0.106826
vn 0.835906 -0.538377 -0.106826
vn -0.0421108 -0.954803 -0.294241
vn -0.0421108 -0.954803 -0.294241
vn -0.0421108 -0.954803 -0.294241
vn -0.0421108 -0.954803 -0.294241
vn -0.475944 -0.742436 -0.471451
vn -0.475944 -0.742436 -0.471451
vn -0.475944 -0.742436 -0.471451
vn -0.475944 -0.742436 -0.471451
vn -0.0421108 -0.954803 -0.294241
vn -0.0421108 -0.954803 -0.294241
vn -0.0421108 -0.954803 -0.294241
vn -0.475944 -0.742436 -0.471451
vn -0.475944 -0.742436 -0.471451
vn -0.475944 -0.742436 -0.471451
vn -0.475944 -0.742436 -0.471451
vn 0.312318 -0.198563 -0.928994
vn 0.312318 -0.198563 -0.928994
vn 0.312318 -0.198563 -0.928994
vn -0.312736 0.450538 -0.836189
vn -0.312736 0.450538 -0.836189
vn -0.312736 0.450538 -0.836189
vn -0.312736 0.450538 -0.836189
vn -0.312736 0.450538 -0.836189
vn -0.312736 0.450538 -0.836189
vn 0.312318 -0.198563 -0.928994
vn 0.312318 -0.198563 -0.928994
vn 0.312318 -0.198563 -0.928994
vn 0.312318 -0.198563 -0.928994
vn -0.312736 0.450538 -0.836189
vn 0.479467 0.839684 -0.255034
vn 0.312318 -0.198563 -0.928994
vn -0.312736 0.450538 -0.836189
vn -0.312736 0.450538 -0.836189
vn 0.479467 0.839684 -0.255034
vn 0.479467 0.839684 -0.255034
vn 0.479467 0.839684 -0.255034
vn 0.479467 0.839684 -0.255034
vn 0.479467 0.839684 -0.255034
vn 0.479467 0.839684 -0.255034
vn 0.479467 0.839684 -0.255034
vn 0.479467 0.839684 -0.255034
vn -0.312736 0.450538 -0.836189
vn -0.312736 0.450538 -0.836189
vn -0.312736 0.450538 -0.836189
vn -0.312736 0.450538 -0.836189
vn -0.397461 0.913274 0.0891909
vn -0.397461 0.913274 0.0891909
vn -0.397461 0.913274 0.0891909
vn -0.397461 0.913274 0.0891909
vn -0.397461 0.913274 0.0891909
vn -0.397461 0.913274 0.0891909
vn -0.397461 0.913274 0.0891909
vn -0.390617 -0.153677 0.907635
vn -0.379636 -0.151772 0.912602
vn -0.390617 -0.153677 0.907635
vn 0.279449 -0.148102 0.94867
vn 0.279449 -0.148102 0.94867
vn 0.279449 -0.148102 0.94867
vn -0.397461 0.913274 0.0891909
vn -0.397461 0.913274 0.0891909
vn 0.479467 0.839684 -0.255034
vn 0.479467 0.839684 -0.255034
vn 0.279449 -0.148102 0.94867
vn -0.493494 0.217157 0.842203
vn -0.493494 0.217157 0.842203
vn -0.493494 0.217157 0.842203
vn -0.493494 0.217157 0.842203
vn -0.396481 0.298245 0.868247
vn -0.396481 0.298245 0.868247
vn -0.396481 0.298245 0.868247
vn 0.319417 0.228049 0.919764
vn 0.479467 0.839684 -0.255034
vn -0.441031 0.507835 0.739997
vn -0.441031 0.507835 0.739997
vn -0.441031 0.507835 0.739997
vn -0.441031 0.507835 0.739997
vn -0.0619716 0.127824 0.989859
vn -0.0619716 0.127824 0.989859
vn -0.0619716 0.127824 0.989859
vn -0.37725 -0.166268 0.911064
vn -0.37725 -0.166268 0.911064
vn -0.37725 -0.166268 0.911064
vn -0.914557 -0.404391 0.00741109
vn -0.914557 -0.404391 0.00741109
vn -0.914557 -0.404391 0.00741109
vn -0.0421108 -0.954803 -0.294241
vn -0.0421108 -0.954803 -0.294241
vn -0.0421108 -0.954803 -0.294241
vn -0.0421108 -0.954803 -0.294241
vn -0.0421108 -0.954803 -0.294241
vn -0.0421108 -0.954803 -0.294241
vn -0.0421108 -0.954803 -0.294241
vn -0.475944 -0.742436 -0.471451
vn -0.475944 -0.742436 -0.471451
vn -0.475944 -0.742436 -0.471451
vn -0.475944 -0.742436 -0.471451
vn -0.475944 -0.742436 -0.471451
vn -0.914557 -0.404391 0.00741109
vn -0.914557 -0.404391 0.00741109
vn -0.914557 -0.404391 0.00741109
vn -0.914557 -0.404391 0.00741109
vn -0.914557 -0.404391 0.00741109
vn -0.475944 -0.742436 -0.471451
vn -0.475944 -0.742436 -0.471451
vn -0.475944 -0.742436 -0.471451
vn -0.475944 -0.742436 -0.471451
vn -0.475944 -0.742436 -0.471451
vn -0.0421108 -0.954803 -0.294241
vn -0.0421108 -0.954803 -0.294241
vn -0.0421108 -0.954803 -0.294241
vn -0.475944 -0.742436 -0.471451
vn -0.475944 -0.742436 -0.471451
vn -0.475944 -0.742436 -0.471451
vn -0.475944 -0.742436 -0.471451
vn -0.475944 -0.742436 -0.471451
vn -0.475944 -0.742436 -0.471451
vn -0.475944 -0.742436 -0.471451
vn -0.475944 -0.742436 -0.471451
vn -0.312736 0.450538 -0.836189
vn -0.312736 0.450538 -0.836189
vn -0.312736 0.450538 -0.836189
vn -0.312736 0.450538 -0.836189
vn -0.312736 0.450538 -0.836189
vn -0.390617 -0.153677 0.907635
vn -0.390617 -0.153677 0.907635
vn -0.390617 -0.153677 0.907635
vn -0.397461 0.913274 0.0891909
vn -0.397461 0.913274 0.0891909
vn -0.397461 0.913274 0.0891909
vn -0.312736 0.450538 -0.836189
vn -0.312736 0.450538 -0.836189
vn -0.312736 0.450538 -0.836189
vn -0.312736 0.450538 -0.836189
vn -0.312736 0.450538 -0.836189
vn -0.312736 0.450538 -0.836189
vn -0.312736 0.450538 -0.836189
vn -0.312736 0.450538 -0.836189
vn -0.390617 -0.153677 0.907635
vn -0.651632 0.429741 0.625058
vn -0.651632 0.429741 0.625058
vn -0.651632 0.429741 0.625058
vn -0.914557 -0.404391 0.00741109
vn -0.914557 -0.404391 0.00741109
vn -0.914557 -0.404391 0.00741109
vn -0.914557 -0.404391 0.00741109
vn -0.475944 -0.742436 -0.471451
vn -0.312736 0.450538 -0.836189
vn -0.914557 -0.404391 0.00741109
vn 0.835906 -0.538377 -0.106826
vn 0.835906 -0.538377 -0.106826
vn 0.835906 -0.538377 -0.106826
vn 0.835906 -0.538377 -0.106826
vn 0.30615 -0.391819 0.867612
vn -0.0421108 -0.954803 -0.294241
vn 0.835906 -0.538377 -0.106826
vn 0.835906 -0.538377 -0.106826
vn 0.835906 -0.538377 -0.106826
vn 0.835906 -0.538377 -0.106826
vn 0.835906 -0.538377 -0.106826
vn -0.914557 -0.404391 0.00741109
f 1/1/1 2/2/2 3/3/3 
f 4/4/4 5/5/5 6/6/6 
f 7/7/7 8/8/8 9/9/9 
f 10/10/10 11/11/11 12/12/12 
f 6/6/6 5/5/5 13/13/13 
f 14/14/14 13/13/13 5/5/5 
f 15/15/15 16/16/16 17/17/17 
f 18/18/18 16/16/16 15/15/15 
f 16/16/16 18/18/18 19/19/19 
f 20/20/20 21/21/21 22/22/22 
f 20/20/20 22/22/22 23/23/23 
f 24/24/24 20/20/20 23/23/23 
f 24/24/24 25/25/25 20/20/20 
f 24/24/24 26/26/26 25/25/25 
f 27/27/27 28/28/28 29/29/29 
f 30/30/30 28/28/28 27/27/27 
f 31/31/31 28/28/28 30/30/30 
f 32/32/32 33/33/33 34/34/34 
f 35/35/35 33/33/33 32/32/32 
f 36/36/36 37/37/37 38/38/38 
f 39/39/39 37/37/37 36/36/36 
f 40/40/40 27/27/27 41/41/41 
f 30/30/30 27/27/27 40/40/40 
f 42/42/42 43/43/43 44/44/44 
f 44/44/44 43/43/43 45/45/45 
f 27/27/27 46/46/46 41/41/41 
f 46/46/46 27/27/27 47/47/47 
f 48/48/48 49/49/49 50/50/50 
f 50/50/50 51/51/51 48/48/48 
f 52/52/52 53/53/53 54/54/54 
f 53/53/53 52/52/52 55/55/55 
f 51/51/51 56/56/56 48/48/48 
f 48/48/48 56/56/56 37/37/37 
f 37/37/37 56/56/56 57/57/57 
f 57/57/57 38/38/38 37/37/37 
f 57/57/57 58/58/58 38/38/38 
f 59/59/59 60/60/60 61/61/61 
f 60/60/60 59/59/59 62/62/62 
f 63/63/63 64/64/64 65/65/65 
f 66/66/66 67/67/67 68/68/68 
f 62/62/62 59/59/59 52/52/52 
f 55/55/55 52/52/52 59/59/59 
f 68/68/68 67/67/67 69/69/69 
f 69/69/69 70/70/70 68/68/68 
f 70/70/70 69/69/69 71/71/71 
f 72/72/72 73/73/73 34/34/34 
f 33/33/33 72/72/72 34/34/34 
f 72/72/72 33/33/33 64/64/64 
f 33/33/33 65/65/65 64/64/64 
f 65/65/65 33/33/33 74/74/74 
f 73/73/73 75/75/75 34/34/34 
f 71/71/71 69/69/69 76/76/76 
f 25/25/25 26/26/26 77/77/77 
f 34/34/34 75/75/75 78/78/78 
f 69/69/69 67/67/67 79/79/79 
f 69/69/69 79/79/79 80/80/80 
f 20/20/20 25/25/25 81/81/81 
f 81/81/81 82/82/82 20/20/20 
f 83/83/83 82/82/82 81/81/81 
f 83/83/83 84/84/84 82/82/82 
f 85/85/85 84/84/84 83/83/83 
f 84/84/84 85/85/85 86/86/86 
f 86/86/86 87/87/87 84/84/84 
f 86/86/86 88/88/88 87/87/87 
f 89/89/89 90/90/90 91/91/91 
f 90/90/90 89/89/89 92/92/92 
f 93/93/93 94/94/94 95/95/95 
f 94/94/94 93/93/93 96/96/96 
f 94/94/94 96/96/96 97/97/97 
f 96/96/96 98/98/98 97/97/97 
f 96/96/96 99/99/99 98/98/98 
f 100/100/100 101/101/101 102/102/102 
f 103/103/103 104/104/104 105/105/105 
f 106/106/106 99/99/99 107/107/107 
f 98/98/98 99/99/99 106/106/106 
f 84/84/84 87/87/87 108/108/108 
f 84/84/84 108/108/108 109/109/109 
f 105/105/105 104/104/104 110/110/110 
f 111/111/111 112/112/112 113/113/113 
f 114/114/114 112/112/112 111/111/111 
f 115/115/115 116/116/116 117/117/117 
f 118/118/118 17/17/17 16/16/16 
f 82/82/82 119/119/119 20/20/20 
f 120/120/120 121/121/121 122/122/122 
f 123/123/123 121/121/121 120/120/120 
f 12/12/12 11/11/11 124/124/124 
f 12/12/12 124/124/124 125/125/125 
f 125/125/125 124/124/124 126/126/126 
f 127/127/127 128/128/128 129/129/129 
f 130/130/130 131/131/131 132/132/132 
f 133/133/133 134/134/134 8/8/8 
f 134/134/134 9/9/9 8/8/8 
f 135/135/135 9/9/9 134/134/134 
f 135/135/135 136/136/136 9/9/9 
f 137/137/137 136/136/136 135/135/135 
f 137/137/137 138/138/138 136/136/136 
f 137/137/137 139/139/139 138/138/138 
f 140/140/140 141/141/141 142/142/142 
f 141/141/141 140/140/140 143/143/143 
f 141/141/141 143/143/143 144/144/144 
f 132/132/132 131/131/131 145/145/145 
f 131/131/131 146/146/146 145/145/145 
f 131/131/131 147/147/147 146/146/146 
f 148/148/148 147/147/147 131/131/131 
f 147/147/147 148/148/148 149/149/149 
f 150/150/150 151/151/151 152/152/152 
f 153/153/153 151/151/151 150/150/150 
f 153/153/153 154/154/154 151/151/151 
f 142/142/142 154/154/154 153/153/153 
f 142/142/142 141/141/141 154/154/154 
f 139/139/139 155/155/155 138/138/138 
f 155/155/155 156/156/156 138/138/138 
f 156/156/156 157/157/157 138/138/138 
f 156/156/156 50/50/50 157/157/157 
f 150/150/150 152/152/152 54/54/54 
f 54/54/54 152/152/152 52/52/52 
f 152/152/152 158/158/158 52/52/52 
f 152/152/152 159/159/159 158/158/158 
f 152/152/152 160/160/160 159/159/159 
f 152/152/152 161/161/161 160/160/160 
f 161/161/161 152/152/152 162/162/162 
f 162/162/162 163/163/163 161/161/161 
f 164/164/164 163/163/163 162/162/162 
f 163/163/163 164/164/164 165/165/165 
f 166/166/166 167/167/167 168/168/168 
f 167/167/167 166/166/166 169/169/169 
f 169/169/169 166/166/166 170/170/170 
f 171/171/171 172/172/172 173/173/173 
f 174/174/174 93/93/93 175/175/175 
f 175/175/175 93/93/93 176/176/176 
f 177/177/177 178/178/178 179/179/179 
f 180/180/180 178/178/178 177/177/177 
f 180/180/180 181/181/181 178/178/178 
f 168/168/168 181/181/181 180/180/180 
f 168/168/168 167/167/167 181/181/181 
f 180/180/180 177/177/177 182/182/182 
f 177/177/177 183/183/183 182/182/182 
f 80/80/80 183/183/183 177/177/177 
f 80/80/80 79/79/79 183/183/183 
f 179/179/179 184/184/184 177/177/177 
f 92/92/92 184/184/184 179/179/179 
f 92/92/92 89/89/89 184/184/184 
f 93/93/93 95/95/95 176/176/176 
f 173/173/173 172/172/172 100/100/100 
f 173/173/173 100/100/100 102/102/102 
f 185/185/185 100/100/100 172/172/172 
f 186/186/186 187/187/187 188/188/188 
f 189/189/189 148/148/148 190/190/190 
f 149/149/149 148/148/148 189/189/189 
f 189/189/189 190/190/190 191/191/191 
f 191/191/191 190/190/190 192/192/192 
f 165/165/165 164/164/164 193/193/193 
f 194/194/194 170/170/170 166/166/166 
f 192/192/192 190/190/190 195/195/195 
f 157/157/157 50/50/50 49/49/49 
f 47/47/47 27/27/27 196/196/196 
f 27/27/27 197/197/197 196/196/196 
f 27/27/27 198/198/198 197/197/197 
f 199/199/199 198/198/198 27/27/27 
f 1/1/1 3/3/3 200/200/200 
f 138/138/138 201/201/201 136/136/136 
f 199/199/199 27/27/27 202/202/202 
f 199/199/199 202/202/202 203/203/203 
f 204/204/204 203/203/203 202/202/202 
f 205/205/205 204/204/204 202/202/202 
f 206/206/206 204/204/204 205/205/205 
f 207/207/207 148/148/148 131/131/131 
