v 0.332893 0.350865 0.579638
v 0.343495 0.382708 0.492277
v 0.244571 0.246685 0.667594
v 0.332893 0.350864 0.579638
v 0.376795 0.269242 0.671074
v 0.343495 0.382708 0.492277
v 0.359092 0.283818 0.673131
v 0.376795 0.269242 0.671074
v 0.359092 0.283818 0.673131
v 0.204559 0.210834 0.66238
v 0.371291 0.0512126 0.639805
v 0.37212 0.0514092 0.639834
v -0.0958283 -0.0137081 0.4461
v 0.11998 0.158425 0.558529
v -0.0981397 -0.0137409 0.437704
v -0.0742463 -0.0134018 0.524494
v -0.00464363 0.0293843 0.611315
v 0.0551796 0.076992 0.642914
v 0.0162727 0.042242 0.637406
v 0.0166644 0.0424828 0.637895
v 0.0551796 0.076992 0.642914
v 0.0166644 0.0424828 0.637895
v 0.0291544 -0.0357529 0.626701
v 0.0294045 -0.0358201 0.626692
v 0.0324918 -0.0366501 0.626579
v 0.223906 -0.0868282 0.61974
v 0.222836 -0.0878231 0.619595
v 0.0324918 -0.0366501 0.626579
v -0.0480074 -0.0527791 0.535153
v 0.222836 -0.0878231 0.619595
v -0.0477875 -0.0510116 0.539709
v -0.0477875 -0.0510116 0.539709
v -0.0958283 -0.013708 0.4461
v -0.0480074 -0.0527791 0.535153
v -0.0476796 -0.0501443 0.541945
v -0.0476707 -0.0500728 0.542129
v -0.047517 -0.0473573 0.548465
v -0.047358 -0.0475593 0.548608
v -0.047358 -0.0475593 0.548608
v -0.0476707 -0.0500729 0.542129
v 0.0195127 -0.0331608 0.627055
v 0.0194991 -0.0327989 0.627107
v -0.047358 -0.0475593 0.548608
v 0.0195128 -0.0331608 0.627055
v -0.00464363 0.0293843 0.611315
v -0.047517 -0.0473573 0.548465
v -0.0742463 -0.0134018 0.524494
v -0.0742463 -0.0134018 0.524494
v 0.0162727 0.042242 0.637406
v 0.0166644 0.0424828 0.637895
v 0.0194991 -0.032799 0.627107
v 0.0195127 -0.0331608 0.627055
v 0.0291544 -0.0357529 0.626701
v 0.0294045 -0.0358201 0.626692
v -0.0476796 -0.0501443 0.541945
v -0.0756735 -0.0507737 0.439766
v -0.0514458 -0.0804179 0.463907
v -0.0514458 -0.0804179 0.463907
v 0.266785 -0.120871 0.564928
v 0.266785 -0.120871 0.564928
v 0.223906 -0.0868282 0.61974
v 0.222836 -0.0878232 0.619595
v 0.267887 -0.119067 0.565716
v 0.247483 -0.0648974 0.622928
v 0.290435 -0.0821591 0.581829
v 0.371389 0.0503525 0.639682
v 0.247483 -0.0648974 0.622928
v 0.371327 0.0508969 0.639759
v 0.110504 0.126562 0.650123
v 0.199711 0.20649 0.661748
v 0.110504 0.126562 0.650123
v 0.199711 0.20649 0.661748
v 0.204559 0.210834 0.66238
v 0.244571 0.246685 0.667594
v 0.332893 0.350864 0.579638
v 0.244571 0.246685 0.667594
v 0.359092 0.283818 0.673131
v 0.372664 0.051538 0.639854
v 0.452615 0.206816 0.662265
v 0.495777 0.202202 0.591604
v 0.452615 0.206816 0.662265
v 0.537766 0.152431 0.618991
v 0.537766 0.152431 0.618991
v 0.49595 0.166212 0.656524
v 0.372664 0.051538 0.639854
v 0.498759 0.168824 0.656903
v 0.498759 0.168824 0.656903
v 0.498759 0.168824 0.656903
v 0.49595 0.166212 0.656524
v 0.371389 0.0503525 0.639682
v -0.0525083 -0.0889587 0.441891
v -0.0525083 -0.0889587 0.441891
v -0.0528392 -0.0884133 0.441861
v -0.0546567 -0.0854173 0.441694
v -0.0608226 -0.0752536 0.441128
v -0.0981397 -0.0137408 0.437704
v 0.371291 0.0512126 0.639805
v 0.119979 0.158426 0.558529
v 0.37212 0.0514092 0.639834
v -0.0756735 -0.0507738 0.439765
v 0.119979 0.158426 0.558529
v 0.371291 0.0512126 0.639805
v -0.0981397 -0.0137408 0.437704
v 0.290435 -0.0821591 0.581829
v 0.371327 0.0508969 0.639759
v 0.371389 0.0503525 0.639682
v -0.0608226 -0.0752536 0.441128
v -0.0756425 -0.0508248 0.439768
v 0.343495 0.382708 0.492277
v 0.495777 0.202202 0.591604
v 0.372664 0.051538 0.639854
v 0.537766 0.152431 0.618991
v -0.0546567 -0.0854173 0.441694
v 0.267887 -0.119067 0.565716
v -0.0528391 -0.0884133 0.441861
v -0.0525083 -0.0889587 0.441891
v 0.266784 -0.120871 0.564928
vt 0.564478 -0.482692
vt 0.475643 -0.512131
vt 0.653919 -0.347079
vt 0.385146 -0.0186401
vt 0.482141 -0.105485
vt 0.292473 -0.00559563
vt 0.484323 -0.0825648
vt -0.377945 0.361755
vt -0.360242 0.376476
vt -0.205708 0.302704
vt -0.372441 0.141495
vt -0.37327 0.141694
vt 0.428687 0.0795431
vt 0.543013 -0.195725
vt 0.420149 0.081259
vt 0.508404 0.0635213
vt 0.59669 -0.0165949
vt 0.628822 -0.092827
vt 0.623221 -0.0406707
vt 0.623718 -0.0411216
vt -0.0563293 0.167455
vt -0.017814 0.132583
vt -0.030304 0.0535502
vt -0.0305541 0.0534824
vt -0.0336414 0.0526447
vt -0.225055 0.00200399
vt -0.223986 0.000998614
vt -0.0929044 0.568106
vt -0.0101944 0.477232
vt -0.288476 0.542609
vt -0.0104204 0.482119
vt 0.509333 0.0195918
vt 0.413089 -0.0369684
vt 0.504649 0.0210014
vt 0.511632 0.0189001
vt 0.511821 0.0188431
vt 0.518336 0.0165838
vt 0.518483 0.0168386
vt -0.0108616 0.491663
vt -0.0105403 0.484714
vt -0.0795689 0.569844
vt 0.0163422 0.483083
vt 0.00147051 0.379988
vt 0.0159776 0.483053
vt 0.0789945 0.455267
vt 0.00167399 0.379775
vt 0.0358857 0.344116
vt 0.49369 -0.0262487
vt 0.0919491 0.48867
vt 0.0921917 0.489295
vt -0.0206487 0.0565318
vt -0.0206623 0.0561663
vt -0.0894754 0.568553
vt -0.0897323 0.568519
vt -0.0105312 0.484516
vt 0.406576 0.00519544
vt 0.431397 0.0430434
vt -0.00666159 0.400817
vt -0.333632 0.479575
vt -0.0158811 0.264702
vt 0.031778 0.32578
vt 0.032967 0.324919
vt -0.0171065 0.266597
vt 0.00557179 0.344761
vt -0.0421678 0.305355
vt -0.132147 0.444508
vt -0.248633 0.0241652
vt -0.372477 0.141176
vt -0.111653 0.217546
vt -0.200861 0.298315
vt 0.636153 -0.167098
vt 0.647974 -0.286855
vt 0.648617 -0.293363
vt -0.245721 0.338932
vt -0.493504 -0.226088
vt -0.40175 -0.360147
vt -0.520721 -0.3409
vt -0.373814 0.141824
vt -0.453766 0.298711
vt 0.39784 -0.239126
vt 0.472796 -0.203649
vt 0.426892 -0.303517
vt -0.317071 0.510329
vt -0.270594 0.544782
vt -0.133564 0.445534
vt -0.273715 0.547043
vt 0.467109 -0.263389
vt -0.499909 0.260343
vt -0.497101 0.257703
vt -0.37254 0.140626
vt -0.00556989 0.377204
vt 0.408761 0.0498547
vt 0.40873 0.0492169
vt 0.408559 0.045713
vt 0.407977 0.033826
vt 0.404456 -0.0381165
vt 0.33769 0
vt 0.250031 0
vt 0.337885 0.000288363
vt 0.393365 0.259872
vt 0.5515 0
vt 0.74485 0
vt 0.376794 0.2355
vt 0.67828 0.149055
vt 0.74487 0.000266591
vt 0.744905 0.000726312
vt 0.404319 0.275983
vt 0.393388 0.259906
vt 0.273315 0.167445
vt 0.346197 0.106918
vt 0.338013 0.000477341
vt 0.366292 0.0902292
vt 0.408867 0.282672
vt 0.659723 0.190369
vt 0.410208 0.284644
vt 0.410452 0.285003
vt 0.658816 0.192389
vn -0.669248 0.720549 0.181429
vn -0.669247 0.72055 0.181429
vn -0.669247 0.72055 0.181429
vn 0.621997 0.70836 0.333686
vn 0.621997 0.70836 0.333686
vn 0.621996 0.70836 0.333687
vn 0.621998 0.708359 0.333685
vn -0.00183485 -0.14192 0.989876
vn -0.00183757 -0.141921 0.989876
vn -0.0018402 -0.141923 0.989876
vn -0.00183148 -0.141921 0.989876
vn -0.00183088 -0.14192 0.989877
vn -0.669247 0.72055 0.181429
vn -0.669248 0.720548 0.18143
vn -0.669247 0.720549 0.18143
vn -0.669247 0.72055 0.181429
vn -0.669247 0.72055 0.181429
vn -0.669247 0.72055 0.181429
vn -0.669247 0.72055 0.181429
vn -0.669247 0.72055 0.181429
vn -0.0018393 -0.141919 0.989877
vn -0.00184294 -0.141919 0.989877
vn -0.0018295 -0.141872 0.989883
vn -0.0018429 -0.141918 0.989877
vn -0.00184591 -0.141942 0.989873
vn -0.00184437 -0.141942 0.989873
vn -0.00185666 -0.141989 0.989867
vn -0.229659 -0.903597 0.36162
vn -0.22966 -0.903596 0.361621
vn -0.22966 -0.903596 0.361621
vn -0.229658 -0.903597 0.36162
vn -0.837242 -0.494978 0.232427
vn -0.837242 -0.494978 0.232428
vn -0.837241 -0.49498 0.232426
vn -0.837245 -0.494972 0.232431
vn -0.837243 -0.494977 0.232428
vn -0.837242 -0.494978 0.232427
vn nan nan nan
vn -0.229653 -0.9036 0.361616
vn -0.229657 -0.903598 0.361619
vn -0.229657 -0.903598 0.361619
vn -0.744127 -0.12218 0.65677
vn -0.744131 -0.122224 0.656757
vn -0.744114 -0.122313 0.65676
vn -0.744148 -0.122135 0.656755
vn -0.744147 -0.122136 0.656756
vn -0.744147 -0.122136 0.656756
vn -0.837242 -0.494979 0.232427
vn -0.744123 -0.122137 0.656783
vn -0.744098 -0.122139 0.656811
vn -0.00182491 -0.141849 0.989887
vn -0.00180264 -0.141777 0.989897
vn -0.229662 -0.903596 0.361622
vn -0.229659 -0.903597 0.36162
vn -0.229658 -0.903598 0.361619
vn -0.837242 -0.494979 0.232428
vn -0.837237 -0.494986 0.23243
vn -0.22966 -0.903596 0.361622
vn -0.22966 -0.903596 0.361622
vn 0.436499 -0.570431 0.695756
vn 0.4365 -0.57043 0.695757
vn 0.436516 -0.570415 0.695759
vn 0.436496 -0.570434 0.695756
vn 0.436503 -0.570428 0.695757
vn 0.436503 -0.570427 0.695757
vn 0.436503 -0.570428 0.695757
vn -0.00185092 -0.141906 0.989878
vn -0.00188882 -0.141866 0.989884
vn -0.00183815 -0.141919 0.989877
vn -0.00184276 -0.141924 0.989876
vn -0.669247 0.72055 0.181429
vn -0.669251 0.720544 0.181435
vn -0.66925 0.720546 0.181433
vn -0.0018383 -0.14192 0.989877
vn -0.270952 0.744676 0.609954
vn -0.270952 0.744676 0.609954
vn -0.270952 0.744676 0.609954
vn -0.00184752 -0.141919 0.989877
vn -0.0018366 -0.141917 0.989877
vn 0.621996 0.70836 0.333686
vn 0.621996 0.708361 0.333686
vn 0.621996 0.708361 0.333686
vn 0.436504 -0.570426 0.695758
vn 0.436504 -0.570426 0.695758
vn 0.436502 -0.570428 0.695757
vn 0.436505 -0.570424 0.695759
vn 0.621996 0.708361 0.333686
vn -0.00183323 -0.141913 0.989877
vn -0.00183607 -0.141916 0.989877
vn -0.00188882 -0.141866 0.989884
vn -0.22966 -0.903596 0.361623
vn -0.837214 -0.495019 0.23244
vn -0.83723 -0.494996 0.232433
vn -0.837243 -0.494977 0.232426
vn -0.837241 -0.49498 0.232427
vn -0.837242 -0.494978 0.23243
vn 0.12604 -0.394551 -0.910189
vn 0.126057 -0.39452 -0.9102
vn 0.125988 -0.394473 -0.91023
vn 0.369158 0.173119 -0.9131
vn 0.369158 0.173119 -0.9131
vn 0.369158 0.173119 -0.9131
vn 0.369157 0.173119 -0.9131
vn 0.369153 0.173124 -0.913101
vn 0.369152 0.173124 -0.913102
vn 0.36914 0.173135 -0.913105
vn 0.369157 0.17312 -0.9131
vn 0.369158 0.173118 -0.913101
vn 0.126065 -0.394504 -0.910205
vn 0.126013 -0.394469 -0.910228
vn 0.125962 -0.394433 -0.910251
vn 0.126065 -0.394503 -0.910206
vn 0.369157 0.173117 -0.913101
vn 0.369158 0.173155 -0.913093
vn 0.369159 0.173167 -0.913091
vn 0.369159 0.173195 -0.913085
vn 0.369158 0.173166 -0.913091
f 1/1/1 2/2/2 3/3/3 
f 4/4/4 5/5/5 6/6/6 
f 7/7/7 5/5/5 4/4/4 
f 8/8/8 9/9/9 10/10/10 
f 11/11/11 8/8/8 10/10/10 
f 11/11/11 12/12/12 8/8/8 
f 13/13/13 14/14/14 15/15/15 
f 16/16/16 14/14/14 13/13/13 
f 17/17/17 14/14/14 16/16/16 
f 17/17/17 18/18/18 14/14/14 
f 19/19/19 18/18/18 17/17/17 
f 20/20/20 18/18/18 19/19/19 
f 21/21/21 22/22/22 23/23/23 
f 21/21/21 23/23/23 24/24/24 
f 21/21/21 24/24/24 25/25/25 
f 25/25/25 26/26/26 21/21/21 
f 25/25/25 27/27/27 26/26/26 
f 28/28/28 29/29/29 30/30/30 
f 29/29/29 28/28/28 31/31/31 
f 32/32/32 33/33/33 34/34/34 
f 35/35/35 33/33/33 32/32/32 
f 36/36/36 33/33/33 35/35/35 
f 36/36/36 37/37/37 33/33/33 
f 36/36/36 38/38/38 37/37/37 
f 39/39/39 40/40/40 41/41/41 
f 42/42/42 43/43/43 44/44/44 
f 45/45/45 43/43/43 42/42/42 
f 43/43/43 45/45/45 46/46/46 
f 46/46/46 45/45/45 47/47/47 
f 33/33/33 37/37/37 48/48/48 
f 42/42/42 49/49/49 45/45/45 
f 42/42/42 50/50/50 49/49/49 
f 23/23/23 22/22/22 51/51/51 
f 23/23/23 51/51/51 52/52/52 
f 41/41/41 40/40/40 53/53/53 
f 40/40/40 54/54/54 53/53/53 
f 55/55/55 54/54/54 40/40/40 
f 55/55/55 28/28/28 54/54/54 
f 31/31/31 28/28/28 55/55/55 
f 56/56/56 34/34/34 33/33/33 
f 34/34/34 56/56/56 57/57/57 
f 30/30/30 29/29/29 58/58/58 
f 30/30/30 58/58/58 59/59/59 
f 60/60/60 61/61/61 62/62/62 
f 63/63/63 61/61/61 60/60/60 
f 63/63/63 64/64/64 61/61/61 
f 65/65/65 64/64/64 63/63/63 
f 65/65/65 66/66/66 64/64/64 
f 11/11/11 67/67/67 68/68/68 
f 11/11/11 69/69/69 67/67/67 
f 70/70/70 69/69/69 11/11/11 
f 14/14/14 71/71/71 72/72/72 
f 14/14/14 18/18/18 71/71/71 
f 69/69/69 21/21/21 67/67/67 
f 21/21/21 26/26/26 67/67/67 
f 73/73/73 14/14/14 72/72/72 
f 73/73/73 2/2/2 14/14/14 
f 3/3/3 2/2/2 73/73/73 
f 10/10/10 9/9/9 74/74/74 
f 75/75/75 76/76/76 77/77/77 
f 8/8/8 12/12/12 78/78/78 
f 8/8/8 78/78/78 79/79/79 
f 80/80/80 5/5/5 81/81/81 
f 6/6/6 5/5/5 80/80/80 
f 80/80/80 81/81/81 82/82/82 
f 83/83/83 84/84/84 85/85/85 
f 83/83/83 86/86/86 84/84/84 
f 82/82/82 81/81/81 87/87/87 
f 88/88/88 79/79/79 89/89/89 
f 79/79/79 78/78/78 89/89/89 
f 10/10/10 70/70/70 11/11/11 
f 68/68/68 67/67/67 90/90/90 
f 59/59/59 58/58/58 91/91/91 
f 92/92/92 57/57/57 93/93/93 
f 93/93/93 57/57/57 94/94/94 
f 94/94/94 57/57/57 95/95/95 
f 57/57/57 56/56/56 95/95/95 
f 56/56/56 33/33/33 96/96/96 
f 97/97/97 98/98/98 99/99/99 
f 100/100/100 101/101/101 102/102/102 
f 103/103/103 101/101/101 100/100/100 
f 104/104/104 105/105/105 106/106/106 
f 107/107/107 105/105/105 104/104/104 
f 108/108/108 105/105/105 107/107/107 
f 108/108/108 102/102/102 105/105/105 
f 100/100/100 102/102/102 108/108/108 
f 98/98/98 109/109/109 110/110/110 
f 99/99/99 98/98/98 110/110/110 
f 99/99/99 110/110/110 111/111/111 
f 111/111/111 110/110/110 112/112/112 
f 104/104/104 113/113/113 107/107/107 
f 114/114/114 113/113/113 104/104/104 
f 114/114/114 115/115/115 113/113/113 
f 114/114/114 116/116/116 115/115/115 
f 117/117/117 116/116/116 114/114/114 
