v 0.989598 0.380197 -0.17595
v 1.00321 0.364316 -0.158524
v 0.987145 0.361122 -0.191622
v 1.00321 0.364316 -0.158524
v 0.989598 0.380197 -0.17595
v 0.982482 0.369261 -0.166349
v 1.00321 0.364316 -0.158524
v 0.982482 0.369261 -0.166349
v 0.996919 0.345691 -0.181413
v 0.996919 0.345691 -0.181413
v 0.985616 0.349233 -0.20139
v 0.985616 0.349233 -0.20139
v 0.981499 0.352021 -0.18453
v 0.987145 0.361122 -0.191622
v 0.978906 0.306527 -0.23251
v 0.98259 0.303281 -0.233531
v 0.981499 0.352021 -0.18453
v 0.978906 0.306527 -0.23251
v 0.982482 0.369261 -0.166349
v 0.989598 0.380197 -0.17595
v 0.980061 0.306029 -0.236885
v 0.98259 0.303281 -0.233531
v 0.980061 0.306029 -0.236885
v 0.978776 0.304244 -0.234917
v 0.978776 0.304244 -0.234917
v 0.978508 0.299537 -0.239881
v 0.98259 0.303281 -0.233531
v 0.978508 0.299537 -0.239881
v 0.978812 0.300808 -0.239295
v 0.980061 0.306029 -0.236885
v 0.978812 0.300808 -0.239295
v 0.978508 0.299537 -0.239881
vt 0.869515 0.693014
vt 0.866687 0.691538
vt 0.870835 0.690463
vt -1.01236 0.371688
vt -0.998671 0.395223
vt -0.991517 0.380689
vt -0.772153 0.141987
vt -0.74955 0.139865
vt -0.765292 0.112604
vt 0.868953 0.688886
vt 0.871657 0.688873
vt -0.413406 -0.677243
vt -0.395865 -0.678383
vt -0.403243 -0.688897
vt -0.445783 -0.634946
vt -0.749668 0.0457013
vt -0.748479 0.114813
vt -0.745651 0.048703
vt -0.376949 -0.694843
vt -0.386939 -0.707596
vt 0.874646 0.683096
vt 0.874113 0.682847
vt -0.450334 -0.634892
vt -0.448287 -0.632766
vt -0.745509 0.0453856
vt -0.745217 0.0385461
vt 0.874113 0.682847
vt 0.874817 0.682194
vt 0.874783 0.68237
vt 0.874646 0.683096
vt -0.452841 -0.629568
vt -0.453452 -0.628272
vn 0.860629 0.252607 -0.442163
vn 0.86063 0.252603 -0.442163
vn 0.86063 0.252602 -0.442163
vn -0.103692 0.693463 0.712992
vn -0.103692 0.693463 0.712992
vn -0.103692 0.693463 0.712992
vn -0.398607 -0.654651 0.642296
vn -0.398608 -0.654651 0.642296
vn -0.398609 -0.654652 0.642295
vn 0.860632 0.252601 -0.44216
vn 0.860631 0.252603 -0.442161
vn -0.898205 0.342188 -0.275926
vn -0.898203 0.34219 -0.275929
vn -0.898204 0.34219 -0.275927
vn -0.898208 0.342186 -0.27592
vn -0.398614 -0.654652 0.642291
vn -0.398612 -0.654651 0.642292
vn -0.398616 -0.654648 0.642293
vn -0.898203 0.342192 -0.275925
vn -0.898202 0.342195 -0.275926
vn 0.860633 0.252602 -0.442158
vn 0.860635 0.252597 -0.442156
vn -0.898211 0.342181 -0.275914
vn -0.898224 0.34216 -0.2759
vn -0.398613 -0.654652 0.642291
vn -0.398613 -0.654658 0.642286
vn 0.821547 0.0649205 -0.566433
vn 0.821544 0.0649323 -0.566436
vn 0.821547 0.0649205 -0.566433
vn 0.82155 0.0649086 -0.56643
vn -0.89823 0.34215 -0.275893
vn -0.898247 0.342122 -0.275871
f 1/1/1 2/2/2 3/3/3 
f 4/4/4 5/5/5 6/6/6 
f 7/7/7 8/8/8 9/9/9 
f 3/3/3 2/2/2 10/10/10 
f 3/3/3 10/10/10 11/11/11 
f 12/12/12 13/13/13 14/14/14 
f 15/15/15 13/13/13 12/12/12 
f 16/16/16 17/17/17 18/18/18 
f 9/9/9 17/17/17 16/16/16 
f 9/9/9 8/8/8 17/17/17 
f 13/13/13 19/19/19 14/14/14 
f 14/14/14 19/19/19 20/20/20 
f 21/21/21 10/10/10 22/22/22 
f 11/11/11 10/10/10 21/21/21 
f 15/15/15 12/12/12 23/23/23 
f 24/24/24 15/15/15 23/23/23 
f 16/16/16 18/18/18 25/25/25 
f 16/16/16 25/25/25 26/26/26 
f 27/27/27 28/28/28 29/29/29 
f 27/27/27 29/29/29 30/30/30 
f 31/31/31 24/24/24 23/23/23 
f 32/32/32 24/24/24 31/31/31 
