v 1.2426 1.284 0.9063
v 1.26465 1.36179 0.842626
v 1.13627 1.46249 0.881154
v 1.26465 1.36179 0.842626
v 1.2426 1.284 0.9063
v 1.39421 1.12922 0.742435
v 0.959926 1.24808 0.768921
v 1.26465 1.36179 0.842626
v 1.39421 1.12922 0.742435
v 0.959354 1.2495 0.769544
v 0.94954 1.34537 0.813775
v 1.13627 1.46249 0.881154
v 0.948166 1.35879 0.819968
v 0.944395 1.39564 0.836967
v 0.943064 1.40889 0.843082
v 0.94304 1.40887 0.843072
v 0.943064 1.40889 0.843082
v 0.94304 1.40887 0.843072
v 0.943039 1.40887 0.843077
v 0.943039 1.40887 0.843077
v 1.2426 1.284 0.9063
v 0.943064 1.40889 0.843082
v 0.943864 1.38232 0.843779
v 0.946185 1.30752 0.845757
v 1.2426 1.284 0.9063
v 0.946185 1.30752 0.845757
v 0.963445 1.22217 0.887626
v 0.963445 1.22217 0.887626
v 1.2801 0.9805 0.8939
v 1.2426 1.284 0.9063
v 0.970352 1.20412 0.887152
v 1.03259 1.04597 0.850955
v 1.2801 0.9805 0.8939
v 0.970352 1.20412 0.887152
v 1.14118 0.958033 0.850154
v 1.04822 1.00624 0.841862
v 1.04822 1.00624 0.841862
v 1.24231 0.953362 0.691962
v 1.14118 0.958033 0.850154
v 1.21338 0.968962 0.687296
v 1.04309 1.03029 0.766567
v 1.12095 1.01881 0.672385
v 1.03749 1.05652 0.684438
v 1.12095 1.01881 0.672385
v 1.03749 1.05652 0.684438
v 1.16214 1.02254 0.6769
v 1.12095 1.01881 0.672385
v 1.16214 1.02254 0.6769
v 1.21338 0.968962 0.687296
v 1.27162 1.03247 0.688901
v 1.01469 1.11285 0.709278
v 1.27162 1.03247 0.688901
v 1.04309 1.03029 0.766567
v 1.01469 1.11285 0.709278
v 1.03749 1.05652 0.684438
v 1.03259 1.04597 0.850955
v 0.987164 1.18081 0.739253
v 1.30551 1.03554 0.692615
v 0.987164 1.18081 0.739253
v 1.30551 1.03554 0.692616
v 1.26291 0.942251 0.695287
v 1.24231 0.953362 0.691963
v 1.26291 0.942251 0.695287
v 1.41686 0.828372 0.828113
v 1.34044 0.900441 0.707794
v 1.3898 0.873823 0.715756
v 1.44533 0.830175 0.77267
v 1.44533 0.830175 0.77267
v 1.4094 0.9609 0.7867
v 1.41686 0.828372 0.828113
v 1.44548 0.843797 0.724738
v 1.4094 0.9609 0.7867
v 1.44533 0.830175 0.77267
v 1.42771 0.912798 0.716995
v 1.41149 0.975781 0.709927
v 1.4094 0.9609 0.7867
v 1.41149 0.975782 0.709927
v 1.40315 0.983512 0.708315
v 1.4094 0.9609 0.7867
v 1.40315 0.983512 0.708315
v 1.40805 1.07688 0.718857
v 1.39421 1.12922 0.742435
v 1.4094 0.9609 0.7867
v 1.40805 1.07688 0.718857
v 1.4094 0.9609 0.7867
v 1.4094 0.9609 0.7867
v 1.2426 1.284 0.9063
v 1.2801 0.9805 0.8939
v 1.2801 0.9805 0.8939
v 1.211 0.9089 0.9998
v 1.4094 0.9609 0.7867
v 1.14118 0.958033 0.850154
v 1.211 0.9089 0.9998
v 1.2801 0.9805 0.8939
v 1.16954 0.909312 0.971705
v 1.211 0.9089 0.9998
v 1.16954 0.909312 0.971705
v 1.19453 0.888102 1.00279
v 1.211 0.9089 0.9998
v 1.19453 0.888102 1.00279
v 1.23149 0.872648 0.993094
v 1.23149 0.872648 0.993094
v 1.4094 0.9609 0.7867
v 1.211 0.9089 0.9998
v 1.41686 0.828372 0.828113
v 1.23149 0.872648 0.993094
v 1.16954 0.909312 0.971705
v 1.19453 0.888102 1.00279
v 1.40529 1.04459 0.703552
v 1.40805 1.07688 0.718857
v 1.39829 1.04396 0.702786
v 1.39829 1.04396 0.702786
v 1.40315 0.983512 0.708315
v 1.34044 0.900441 0.707794
v 1.41149 0.975782 0.709927
v 1.42771 0.912798 0.716995
v 1.3898 0.873823 0.715756
v 1.41653 0.859411 0.720067
v 1.41653 0.859411 0.720067
v 1.44548 0.843797 0.724738
v 1.44548 0.843797 0.724738
v 1.40529 1.04459 0.703553
v 1.40529 1.04459 0.703552
v 0.970352 1.20412 0.887152
v 0.959926 1.24808 0.768921
v 0.963445 1.22217 0.887626
v 0.94514 1.27393 0.860919
v 0.959097 1.24994 0.771194
v 0.959354 1.2495 0.769545
v 0.94954 1.34537 0.813775
v 0.959354 1.2495 0.769545
v 0.959097 1.24994 0.771194
v 0.946185 1.30752 0.845757
v 0.948166 1.35879 0.819968
v 0.943864 1.38232 0.843779
v 0.944395 1.39564 0.836967
v 0.943039 1.40887 0.843077
v 0.945141 1.27393 0.860919
v 0.94514 1.27393 0.860919
v 1.04823 1.00624 0.841862
v 1.13627 1.46249 0.881154
vt 0.7317 0.8138
vt 0.740594 0.819567
vt 0.734655 0.83621
vt 0.740594 0.819567
vt 0.7317 0.8138
vt 0.751785 0.790792
vt -0.968302 -1.45637
vt -1.27359 -1.5906
vt -1.40339 -1.33749
vt -0.967729 -1.45791
vt -0.957897 -1.5635
vt -1.14497 -1.69814
vt -0.956521 -1.57828
vt -0.952742 -1.61886
vt -0.951409 -1.63345
vt -0.951385 -1.63343
vt -1.17117 -1.44172
vt -1.17114 -1.4417
vt -1.17114 -1.44171
vt 0.712369 0.844733
vt 0.7317 0.8138
vt 0.712372 0.844732
vt 0.710504 0.842414
vt 0.705252 0.835885
vt 0.7317 0.8138
vt 0.705252 0.835885
vt 0.703118 0.825138
vt 0.703118 0.825138
vt 0.7227 0.7835
vt 0.7317 0.8138
vt 0.703019 0.82305
vt 0.699871 0.804008
vt 0.7227 0.7835
vt 0.703019 0.82305
vt 0.706172 0.789207
vt 0.69908 0.799224
vt 0.476348 0.495042
vt 0.321604 0.6925
vt 0.484908 0.599731
vt 0.316786 0.659656
vt 0.39862 0.479801
vt 0.301393 0.554708
vt 0.313837 0.463176
vt -1.12962 -1.2078
vt -1.04601 -1.24706
vt -1.17089 -1.21309
vt 0.971769 -1.19152
vt 0.975516 -1.23296
vt 0.921756 -1.28506
vt 0.985476 -1.34309
vt -1.02316 -1.3086
vt -1.28057 -1.22717
vt 0.698507 -0.591079
vt 0.641146 -0.678336
vt 0.616276 -0.617585
vt 0.783001 -0.609471
vt 0.671159 -0.751647
vt -1.31452 -1.23153
vt -0.995591 -1.38287
vt 0.988558 -1.37718
vt 0.894957 -1.33519
vt 0.906105 -1.31433
vt 0.325035 0.715893
vt 0.462155 0.904332
vt 0.337947 0.803921
vt 0.346166 0.859962
vt 0.40492 0.929067
vt 0.745764 0.760743
vt 0.7447 0.7746
vt 0.739076 0.761989
vt 0.752343 0.76169
vt 0.7447 0.7746
vt 0.745764 0.760743
vt 0.753833 0.768852
vt 0.755193 0.775389
vt 0.7447 0.7746
vt 0.755193 0.775389
vt 0.754179 0.77637
vt 0.7447 0.7746
vt 0.754179 0.77637
vt 0.753261 0.785947
vt 0.751785 0.790792
vt 0.7447 0.7746
vt 0.753261 0.785947
vt 0.7447 0.7746
vt 0.7447 0.7746
vt 0.7317 0.8138
vt 0.7227 0.7835
vt 0.7227 0.7835
vt 0.7106 0.7761
vt 0.7447 0.7746
vt 0.706172 0.789207
vt 0.7106 0.7761
vt 0.7227 0.7835
vt 0.706124 0.77901
vt 0.7106 0.7761
vt 0.706124 0.77901
vt 0.70794 0.774523
vt 0.7106 0.7761
vt 0.70794 0.774523
vt 0.711983 0.77206
vt 0.711983 0.77206
vt 0.7447 0.7746
vt 0.7106 0.7761
vt 0.739076 0.761989
vt 0.632468 0.718492
vt 0.610388 0.646715
vt 0.642483 0.678511
vt -1.41448 -1.24436
vt -1.41726 -1.28009
vt -1.40748 -1.24346
vt 0.996999 -1.47052
vt 0.936354 -1.47598
vt 0.853007 -1.41365
vt 0.928599 -1.48446
vt 0.865406 -1.50139
vt 0.826302 -1.46359
vt 0.811842 -1.49064
vt 0.350617 0.890305
vt 0.355439 0.923179
vt 0.796176 -1.51994
vt 0.997635 -1.47755
vt 0.754976 0.782556
vt 0.819243 -0.779414
vt 0.700864 -0.824206
vt 0.819718 -0.798738
vt 0.792977 -0.853627
vt 0.70314 -0.826235
vt 0.701489 -0.825732
vt 1.30807 0.667836
vt 1.21214 0.622651
vt 1.21258 0.62432
vt 1.27021 0.699968
vt 1.3215 0.674162
vt 1.34504 0.698346
vt 1.35837 0.691528
vt 1.37162 0.69777
vt 1.23659 0.715121
vt 0.703686 0.832169
vt 0.773897 -0.56678
vt 0.734655 0.83621
vn 0.551357 0.42925 0.715367
vn 0.551357 0.42925 0.715367
vn 0.551357 0.42925 0.715367
vn 0.810025 0.216439 0.544989
vn 0.810025 0.216439 0.544989
vn 0.810025 0.216439 0.544989
vn 0.0607124 0.423261 -0.903971
vn 0.0607124 0.423261 -0.903971
vn 0.0607124 0.423261 -0.903971
vn 0.0607124 0.423261 -0.903971
vn 0.0607124 0.423261 -0.903971
vn 0.0607124 0.423261 -0.903971
vn 0.0607124 0.423261 -0.903971
vn 0.0607124 0.423261 -0.903971
vn 0.0607124 0.423261 -0.903971
vn 0.0607124 0.423261 -0.903971
vn -0.38079 0.796576 -0.469537
vn -0.38079 0.796576 -0.469537
vn -0.38079 0.796576 -0.469537
vn -0.198573 0.0197549 0.979887
vn -0.198573 0.0197549 0.979887
vn -0.198573 0.0197549 0.979887
vn -0.198573 0.0197549 0.979887
vn -0.198573 0.0197549 0.979887
vn -0.151088 0.410534 0.899241
vn -0.151088 0.410534 0.899241
vn -0.151088 0.410534 0.899241
vn -0.0561505 -0.0476835 0.997283
vn -0.0561505 -0.0476835 0.997283
vn -0.0561505 -0.0476835 0.997283
vn -0.0561505 -0.0476835 0.997283
vn -0.240675 -0.305574 0.921249
vn -0.240675 -0.305574 0.921249
vn -0.240675 -0.305574 0.921249
vn -0.240675 -0.305574 0.921249
vn -0.240675 -0.305574 0.921249
vn -0.428461 -0.868784 -0.248266
vn -0.428461 -0.868784 -0.248266
vn -0.428461 -0.868784 -0.248266
vn -0.428461 -0.868784 -0.248266
vn -0.428461 -0.868784 -0.248266
vn -0.428461 -0.868784 -0.248266
vn -0.428461 -0.868784 -0.248266
vn 0.0607124 0.423261 -0.903971
vn 0.0607124 0.423261 -0.903971
vn 0.0607124 0.423261 -0.903971
vn 0.115879 -0.0812497 -0.989935
vn 0.115879 -0.0812497 -0.989935
vn 0.115879 -0.0812497 -0.989935
vn 0.115879 -0.0812497 -0.989935
vn 0.0607124 0.423261 -0.903971
vn 0.0607124 0.423261 -0.903971
vn -0.933218 -0.355815 -0.0500112
vn -0.933218 -0.355815 -0.0500112
vn -0.933218 -0.355815 -0.0500112
vn -0.933218 -0.355815 -0.0500112
vn -0.933218 -0.355815 -0.0500112
vn 0.0607124 0.423261 -0.903971
vn 0.0607124 0.423261 -0.903971
vn 0.115879 -0.0812497 -0.989935
vn 0.115879 -0.0812497 -0.989935
vn 0.115879 -0.0812497 -0.989935
vn -0.428461 -0.868784 -0.248266
vn -0.428461 -0.868784 -0.248266
vn -0.428461 -0.868784 -0.248266
vn -0.428461 -0.868784 -0.248266
vn -0.428461 -0.868784 -0.248266
vn 0.870726 0.190663 0.453304
vn 0.870726 0.190663 0.453304
vn 0.870726 0.190663 0.453304
vn 0.96351 0.256658 0.0759999
vn 0.96351 0.256658 0.0759999
vn 0.96351 0.256658 0.0759999
vn 0.96351 0.256658 0.0759999
vn 0.96351 0.256658 0.0759999
vn 0.653807 0.739309 0.161118
vn 0.653807 0.739309 0.161118
vn 0.653807 0.739309 0.161118
vn 0.994925 -0.0419471 -0.0914627
vn 0.994925 -0.0419471 -0.0914627
vn 0.994925 -0.0419471 -0.0914627
vn 0.960674 0.148431 0.234678
vn 0.960674 0.148431 0.234678
vn 0.960674 0.148431 0.234678
vn 0.810025 0.216439 0.544989
vn 0.641818 0.0480322 0.765351
vn 0.641818 0.0480322 0.765351
vn 0.641818 0.0480322 0.765351
vn 0.620187 0.399758 0.674953
vn 0.620187 0.399758 0.674953
vn 0.620187 0.399758 0.674953
vn -0.270425 0.870184 0.411887
vn -0.270425 0.870184 0.411887
vn -0.270425 0.870184 0.411887
vn -0.270425 0.870184 0.411887
vn -0.485899 0.489156 0.724312
vn -0.485899 0.489156 0.724312
vn -0.485899 0.489156 0.724312
vn 0.235343 -0.0465996 0.970795
vn 0.235343 -0.0465996 0.970795
vn 0.235343 -0.0465996 0.970795
vn 0.676157 0.254154 0.691533
vn 0.676157 0.254154 0.691533
vn 0.676157 0.254154 0.691533
vn 0.676157 0.254154 0.691533
vn -0.428461 -0.868784 -0.248266
vn -0.428461 -0.868784 -0.248266
vn -0.428461 -0.868784 -0.248266
vn 0.0607124 0.423261 -0.903971
vn 0.0607124 0.423261 -0.903971
vn 0.0607124 0.423261 -0.903971
vn 0.115879 -0.0812497 -0.989935
vn 0.115879 -0.0812497 -0.989935
vn 0.115879 -0.0812497 -0.989935
vn 0.115879 -0.0812497 -0.989935
vn 0.115879 -0.0812497 -0.989935
vn 0.115879 -0.0812497 -0.989935
vn 0.115879 -0.0812497 -0.989935
vn -0.428461 -0.868784 -0.248266
vn -0.428461 -0.868784 -0.248266
vn 0.115879 -0.0812497 -0.989935
vn 0.115879 -0.0812497 -0.989935
vn 0.994925 -0.0419471 -0.0914627
vn -0.933218 -0.355815 -0.0500112
vn -0.933218 -0.355815 -0.0500112
vn -0.933218 -0.355815 -0.0500112
vn -0.933218 -0.355815 -0.0500112
vn -0.933218 -0.355815 -0.0500112
vn -0.933218 -0.355815 -0.0500112
vn -0.988889 -0.0345151 -0.144591
vn -0.988889 -0.0345151 -0.144591
vn -0.988889 -0.0345151 -0.144591
vn -0.988889 -0.0345151 -0.144591
vn -0.988889 -0.0345151 -0.144591
vn -0.988889 -0.0345151 -0.144591
vn -0.988889 -0.0345151 -0.144591
vn -0.988889 -0.0345151 -0.144591
vn -0.988889 -0.0345151 -0.144591
vn -0.151088 0.410534 0.899241
vn -0.933218 -0.355815 -0.0500112
vn -0.198573 0.0197549 0.979887
f 1/1/1 2/2/2 3/3/3 
f 4/4/4 5/5/5 6/6/6 
f 7/7/7 8/8/8 9/9/9 
f 10/10/10 8/8/8 7/7/7 
f 11/11/11 8/8/8 10/10/10 
f 11/11/11 12/12/12 8/8/8 
f 13/13/13 12/12/12 11/11/11 
f 14/14/14 12/12/12 13/13/13 
f 14/14/14 15/15/15 12/12/12 
f 16/16/16 15/15/15 14/14/14 
f 17/17/17 18/18/18 19/19/19 
f 20/20/20 21/21/21 22/22/22 
f 23/23/23 21/21/21 20/20/20 
f 21/21/21 23/23/23 24/24/24 
f 25/25/25 26/26/26 27/27/27 
f 28/28/28 29/29/29 30/30/30 
f 31/31/31 29/29/29 28/28/28 
f 32/32/32 33/33/33 34/34/34 
f 32/32/32 35/35/35 33/33/33 
f 36/36/36 35/35/35 32/32/32 
f 37/37/37 38/38/38 39/39/39 
f 37/37/37 40/40/40 38/38/38 
f 41/41/41 40/40/40 37/37/37 
f 41/41/41 42/42/42 40/40/40 
f 43/43/43 42/42/42 41/41/41 
f 44/44/44 45/45/45 46/46/46 
f 47/47/47 48/48/48 49/49/49 
f 48/48/48 50/50/50 49/49/49 
f 46/46/46 51/51/51 52/52/52 
f 46/46/46 45/45/45 51/51/51 
f 53/53/53 54/54/54 55/55/55 
f 56/56/56 54/54/54 53/53/53 
f 54/54/54 56/56/56 57/57/57 
f 58/58/58 51/51/51 59/59/59 
f 52/52/52 51/51/51 58/58/58 
f 50/50/50 60/60/60 61/61/61 
f 62/62/62 50/50/50 61/61/61 
f 49/49/49 50/50/50 62/62/62 
f 39/39/39 38/38/38 63/63/63 
f 63/63/63 64/64/64 39/39/39 
f 65/65/65 64/64/64 63/63/63 
f 66/66/66 64/64/64 65/65/65 
f 64/64/64 66/66/66 67/67/67 
f 68/68/68 69/69/69 70/70/70 
f 71/71/71 72/72/72 73/73/73 
f 74/74/74 72/72/72 71/71/71 
f 72/72/72 74/74/74 75/75/75 
f 76/76/76 77/77/77 78/78/78 
f 79/79/79 80/80/80 81/81/81 
f 82/82/82 83/83/83 84/84/84 
f 6/6/6 5/5/5 85/85/85 
f 86/86/86 87/87/87 88/88/88 
f 89/89/89 90/90/90 91/91/91 
f 92/92/92 93/93/93 94/94/94 
f 95/95/95 93/93/93 92/92/92 
f 96/96/96 97/97/97 98/98/98 
f 99/99/99 100/100/100 101/101/101 
f 102/102/102 103/103/103 104/104/104 
f 105/105/105 103/103/103 102/102/102 
f 106/106/106 39/39/39 64/64/64 
f 106/106/106 107/107/107 39/39/39 
f 106/106/106 108/108/108 107/107/107 
f 109/109/109 9/9/9 110/110/110 
f 111/111/111 9/9/9 109/109/109 
f 111/111/111 59/59/59 9/9/9 
f 58/58/58 59/59/59 111/111/111 
f 60/60/60 112/112/112 113/113/113 
f 114/114/114 60/60/60 113/113/113 
f 60/60/60 114/114/114 61/61/61 
f 114/114/114 113/113/113 115/115/115 
f 114/114/114 115/115/115 116/116/116 
f 114/114/114 116/116/116 117/117/117 
f 117/117/117 116/116/116 118/118/118 
f 67/67/67 66/66/66 119/119/119 
f 67/67/67 119/119/119 120/120/120 
f 118/118/118 116/116/116 121/121/121 
f 112/112/112 122/122/122 113/113/113 
f 81/81/81 80/80/80 123/123/123 
f 7/7/7 9/9/9 59/59/59 
f 124/124/124 125/125/125 57/57/57 
f 124/124/124 126/126/126 125/125/125 
f 127/127/127 125/125/125 126/126/126 
f 128/128/128 125/125/125 127/127/127 
f 125/125/125 128/128/128 129/129/129 
f 130/130/130 131/131/131 132/132/132 
f 133/133/133 130/130/130 132/132/132 
f 133/133/133 134/134/134 130/130/130 
f 133/133/133 135/135/135 134/134/134 
f 135/135/135 136/136/136 134/134/134 
f 135/135/135 137/137/137 136/136/136 
f 138/138/138 133/133/133 132/132/132 
f 27/27/27 26/26/26 139/139/139 
f 56/56/56 124/124/124 57/57/57 
f 140/140/140 56/56/56 53/53/53 
f 22/22/22 21/21/21 141/141/141 
