v 1.13625 -0.806603 -0.143211
v 1.16147 -1.17573 -0.332491
v 1.07462 -1.04333 -0.456033
v 1.16155 -1.17586 -0.332373
v 1.05198 -1.2672 -0.286173
v 1.16147 -1.17573 -0.332491
v 1.16155 -1.17586 -0.332373
v 0.985874 -1.2362 -0.325643
v 0.973223 -1.21307 -0.346647
v 0.985874 -1.2362 -0.325643
v 0.830952 -1.17864 -0.211573
v 0.973223 -1.21307 -0.346647
v 1.00178 -1.26528 -0.299242
v 0.994891 -1.2893 -0.250448
v 0.920663 -1.32592 -0.0902012
v 0.778379 -1.29328 0.0478251
v 0.861545 -1.35509 0.0374275
v 0.975422 -1.31981 0.0933227
v 0.778379 -1.29328 0.0478251
v 0.861544 -1.35509 0.0374275
v 0.810904 -1.09147 0.175934
v 1.05964 -1.29373 0.134662
v 1.01619 -1.10627 0.230848
v 1.09157 -1.28384 0.150333
v 1.01619 -1.10627 0.230848
v 1.09157 -1.28384 0.150333
v 1.14647 -1.25912 0.0659782
v 1.18858 -0.958807 -0.0456737
v 1.21585 -1.22789 -0.0406067
v 1.18858 -0.958807 -0.0456737
v 1.21585 -1.22789 -0.0406067
v 1.1708 -0.883616 -0.110631
v 1.11125 -0.918627 0.0606318
v 1.18858 -0.958807 -0.0456737
v 1.1708 -0.883616 -0.110631
v 1.11125 -0.918627 0.0606318
v 1.01619 -1.10627 0.230848
v 1.11125 -0.918627 0.0606318
v 1.01856 -0.999455 0.294058
v 1.01856 -0.999455 0.294058
v 1.01391 -0.974399 0.307275
v 0.997784 -0.961976 0.309547
v 0.989061 -0.955257 0.310776
v 0.905783 -0.891578 0.322233
v 0.906833 -0.891912 0.322364
v 0.989061 -0.955257 0.310776
v 0.876815 -0.81652 0.275097
v 0.906833 -0.891912 0.322364
v 1.00426 -0.859151 0.202411
v 0.854604 -0.760733 0.240122
v 0.967638 -0.742604 0.120539
v 0.817233 -0.666873 0.181277
v 0.808788 -0.645662 0.167978
v 0.943877 -0.666985 0.0674181
v 0.772715 -0.555062 0.111177
v 0.774906 -0.541085 0.0954343
v 0.757568 -0.844533 0.303853
v 0.757568 -0.844533 0.303853
v 0.905783 -0.891578 0.322233
v 0.876815 -0.81652 0.275097
v 0.757695 -0.842102 0.302235
v 0.854604 -0.760733 0.240122
v 0.765638 -0.69031 0.2012
v 0.817233 -0.666873 0.181277
v 0.808787 -0.645662 0.167978
v 0.772715 -0.555062 0.111177
v 0.906833 -0.891912 0.322364
v 0.577262 -0.82477 -0.268312
v 0.585475 -0.912432 -0.318674
v 0.573189 -0.912217 -0.258175
v 0.585143 -0.904323 -0.316121
v 0.585867 -0.911634 -0.320515
v 0.587543 -0.912528 -0.321304
v 0.585475 -0.912432 -0.318674
v 0.585867 -0.911634 -0.320515
v 0.587566 -0.91254 -0.321315
v 0.587782 -0.912655 -0.321416
v 0.572809 -0.938184 -0.25925
v 0.572809 -0.938184 -0.25925
v 0.637692 -0.939263 -0.344901
v 0.781354 -1.13244 -0.220734
v 0.630973 -0.93568 -0.34174
v 0.587782 -0.912655 -0.321416
v 0.585143 -0.904323 -0.316121
v 0.630973 -0.93568 -0.34174
v 0.587566 -0.91254 -0.321315
v 0.585867 -0.911634 -0.320515
v 0.626683 -0.799858 -0.261567
v 0.642187 -0.792043 -0.259451
v 0.637692 -0.939263 -0.344901
v 0.723692 -0.750958 -0.248327
v 0.785581 -1.0181 -0.41449
v 0.785581 -1.0181 -0.41449
v 0.839795 -1.04701 -0.440001
v 0.86142 -1.05853 -0.450176
v 0.87003 -1.06313 -0.454227
v 0.907948 -1.0937 -0.455025
v 0.899949 -1.07907 -0.468306
v 0.87003 -1.06313 -0.454227
v 0.949425 -1.065 -0.467914
v 0.899949 -1.07907 -0.468306
v 1.06693 -1.03159 -0.466985
v 0.949425 -1.065 -0.467914
v 1.06693 -1.03159 -0.466985
v 1.07462 -1.04333 -0.456033
v 0.907948 -1.0937 -0.455025
v 0.899949 -1.07907 -0.468306
v 1.06295 -0.922678 -0.402613
v 1.06693 -1.03159 -0.466985
v 1.06849 -0.822583 -0.320826
v 1.13625 -0.806603 -0.143211
v 1.06849 -0.822583 -0.320826
v 1.10539 -0.72741 -0.186421
v 1.00661 -0.64208 -0.0967635
v 1.13625 -0.806603 -0.143211
v 1.10539 -0.72741 -0.186421
v 0.913616 -0.561742 -0.0123508
v 0.910418 -0.558978 -0.00944754
v 0.943877 -0.666985 0.067418
v 0.909762 -0.558412 -0.00885244
v 0.909762 -0.558412 -0.00885242
v 0.906174 -0.556649 -0.00736143
v 0.782032 -0.495628 0.0442355
v 0.790181 -0.706934 -0.233102
v 0.794149 -0.709049 -0.234969
v 1.02958 -0.834554 -0.345748
v 0.839795 -1.04701 -0.440001
v 1.06295 -0.922678 -0.402613
v 0.86142 -1.05853 -0.450176
v 1.03164 -0.835653 -0.346718
v 1.03436 -0.837103 -0.347997
v 1.03164 -0.835653 -0.346718
v 1.06849 -0.822583 -0.320826
v 1.03436 -0.837103 -0.347997
v 1.02958 -0.834554 -0.345748
v 0.794646 -0.706807 -0.23189
v 0.794167 -0.709059 -0.234978
v 0.794149 -0.709049 -0.234969
v 0.790181 -0.706934 -0.233102
v 0.859403 -0.704961 -0.2143
v 0.861159 -0.704913 -0.213826
v 1.10539 -0.72741 -0.186421
v 1.00661 -0.64208 -0.0967635
v 0.83292 -0.630225 -0.121731
v 0.913616 -0.561742 -0.0123508
v 0.906175 -0.556649 -0.00736148
v 0.790238 -0.517334 0.0174713
v 0.782032 -0.495628 0.0442355
v 0.910418 -0.558978 -0.00944757
v 0.909762 -0.558412 -0.00885245
v 1.06033 -0.850944 -0.360214
v 1.06033 -0.850944 -0.360214
v 1.06033 -0.850944 -0.360214
v 0.967638 -0.742604 0.120539
v 1.06092 -0.943971 0.19961
v 1.00426 -0.859151 0.202411
v 1.03103 -0.944341 0.262255
v 1.03501 -0.957019 0.271162
v 1.03501 -0.957019 0.271162
v 1.06092 -0.943971 0.19961
v 1.03124 -0.962048 0.279512
v 1.01856 -0.999455 0.294058
v 1.03124 -0.962048 0.279512
v 1.01391 -0.974399 0.307275
v 0.997784 -0.961977 0.309547
v 1.01391 -0.974399 0.307275
v 1.03124 -0.962049 0.279512
v 1.03103 -0.944341 0.262255
v 1.03501 -0.957019 0.271162
v 1.16555 -1.18195 -0.326685
v 1.1708 -0.883616 -0.110631
v 1.16555 -1.18195 -0.326686
v 1.1754 -1.22443 -0.291198
v 1.1754 -1.22443 -0.291198
v 1.21307 -1.22765 -0.0578466
v 1.05198 -1.2672 -0.286173
v 1.1754 -1.22443 -0.291198
v 1.21307 -1.22765 -0.0578466
v 1.16555 -1.18195 -0.326685
v 1.21585 -1.22789 -0.0406067
v 1.14647 -1.25912 0.0659782
v 0.920663 -1.32592 -0.0902012
v 0.994891 -1.2893 -0.250448
v 1.01066 -1.28152 -0.28449
v 1.01066 -1.28152 -0.284491
v 1.00178 -1.26528 -0.299242
v 1.01066 -1.28152 -0.28449
v 0.975422 -1.31981 0.0933227
v 1.05964 -1.29373 0.134662
v 1.09157 -1.28384 0.150332
v 0.861544 -1.35509 0.0374274
v 0.577262 -0.82477 -0.268312
v 0.774906 -0.541085 0.0954343
v 0.765638 -0.69031 0.2012
v 0.772715 -0.555062 0.111177
v 0.810904 -1.09147 0.175934
v 0.757695 -0.842102 0.302235
v 0.757568 -0.844533 0.303853
v 0.880463 -0.951005 -0.191985
v 0.880463 -0.951005 -0.191985
v 0.830952 -1.17864 -0.211573
v 0.810904 -1.09147 0.175934
v 0.880463 -0.951005 -0.191985
v 0.781354 -1.13244 -0.220734
v 0.830952 -1.17864 -0.211573
v 0.573189 -0.912217 -0.258175
v 0.626683 -0.799858 -0.261567
v 0.573189 -0.912217 -0.258175
v 0.880463 -0.951005 -0.191985
v 0.577262 -0.82477 -0.268312
v 0.572809 -0.938185 -0.25925
v 0.782032 -0.495628 0.0442355
v 0.790238 -0.517334 0.0174714
v 0.83292 -0.630225 -0.121731
v 0.861159 -0.704913 -0.213826
v 0.859403 -0.704961 -0.2143
v 0.880463 -0.951005 -0.191985
v 0.861159 -0.704913 -0.213826
v 0.794646 -0.706807 -0.23189
v 0.880463 -0.951005 -0.191985
v 0.859403 -0.704961 -0.2143
v 0.790181 -0.706934 -0.233102
v 0.723692 -0.750958 -0.248327
v 0.723692 -0.750958 -0.248327
v 0.642187 -0.792043 -0.259451
v 0.778379 -1.29328 0.047825
vt 0.822716 0.562226
vt 0.834273 0.520953
vt 0.853379 0.528489
vt 0.834255 0.520946
vt -0.85549 0.821929
vt -0.96677 0.721338
vt -0.966855 0.721511
vt -0.78831 0.773191
vt -0.775453 0.742029
vt -0.153581 1.54603
vt -0.0275251 1.38971
vt -0.176792 1.52159
vt -0.124405 1.57676
vt -0.0704848 1.58666
vt 0.1066 1.55245
vt 0.25913 1.42169
vt 0.24764 1.52519
vt -1.13522 -1.09213
vt -0.931254 -1.0922
vt -1.01734 -1.1508
vt -0.964921 -0.853319
vt -1.22239 -1.04874
vt -1.17742 -0.838371
vt -1.25544 -1.03229
vt 0.764939 0.539605
vt 0.77213 0.519976
vt 0.784586 0.521096
vt 0.807321 0.550114
vt 0.800324 0.522511
vt 0.807321 0.550114
vt 0.800324 0.522511
vt 0.816374 0.556352
vt -0.104096 -1.37648
vt -0.218707 -1.45238
vt -0.288738 -1.37968
vt 0.79329 0.556042
vt 0.764939 0.539605
vt 0.79329 0.556042
vt 0.759967 0.549029
vt -1.17986 -0.714253
vt -1.17505 -0.685952
vt -1.15836 -0.674082
vt -1.14933 -0.667661
vt -1.06313 -0.60691
vt -1.06422 -0.607132
vt -1.07501 -0.898582
vt -0.941678 -0.774713
vt -0.977333 -0.861591
vt -1.09306 -0.754068
vt -0.915294 -0.710427
vt -1.04956 -0.613586
vt -0.870904 -0.602267
vt -0.860872 -0.577824
vt -1.02134 -0.522437
vt -0.818024 -0.473422
vt -0.820627 -0.452416
vt -0.909712 -0.575581
vt -0.770795 -0.872065
vt -0.919389 -0.921446
vt -0.890348 -0.832838
vt -0.770922 -0.869144
vt -0.868079 -0.767013
vt -0.778885 -0.686802
vt -0.830613 -0.656265
vt -0.822146 -0.631237
vt -0.785981 -0.524335
vt -0.920443 -0.921796
vt -0.813001 -0.377871
vt -0.900686 -0.428859
vt -0.900471 -0.367126
vt -0.892574 -0.426292
vt -0.899887 -0.430742
vt -0.148786 1.03278
vt -0.145879 1.03112
vt -0.147914 1.03092
vt -0.148797 1.03281
vt -0.14891 1.03305
vt -0.0802109 1.03764
vt -0.926444 -0.368103
vt -0.174862 1.08852
vt -0.0376479 1.32207
vt -0.171368 1.08105
vt -0.557468 0.950021
vt -0.554804 0.940156
vt -0.601061 0.980159
vt -0.557249 0.94987
vt -0.555535 0.948685
vt -0.596731 0.822441
vt -0.61238 0.814627
vt -0.607843 0.984847
vt -0.694644 0.773549
vt -0.75711 1.08804
vt -0.251763 1.25288
vt -0.279954 1.31314
vt -0.291199 1.33717
vt -0.295676 1.34674
vt -0.296557 1.39545
vt -0.311234 1.37999
vt -0.842345 1.14697
vt -0.92248 1.1555
vt -0.872543 1.16785
vt -1.04107 1.1262
vt -0.751266 0.550694
vt -0.870684 0.524943
vt -0.878509 0.540936
vt -0.709112 0.58124
vt -0.700982 0.561537
vt 0.850627 0.541659
vt 0.855073 0.529158
vt 0.843794 0.554007
vt 0.822716 0.562226
vt 0.843794 0.554007
vt 0.831361 0.569227
vt -0.273788 -1.08768
vt -0.323863 -1.2963
vt -0.370449 -1.21311
vt -0.18278 -0.969586
vt -0.17965 -0.965524
vt -0.0967799 -1.07427
vt -0.179009 -0.964692
vt -0.980812 -0.391567
vt -0.976551 -0.391357
vt -0.829091 -0.384102
vt -0.761753 0.727864
vt -0.765757 0.730633
vt -1.00338 0.894906
vt -0.811829 1.12587
vt -1.03706 0.999685
vt -0.833655 1.14096
vt -1.00547 0.896344
vt -1.00821 0.898242
vt -1.08542 0.780729
vt -1.12263 0.752196
vt -1.08817 0.782625
vt -1.08334 0.779293
vt -0.84607 0.611414
vt -0.845586 0.615236
vt -0.845568 0.615223
vt -0.841561 0.612458
vt -0.911469 0.596274
vt -0.913242 0.595867
vt -1.15989 0.587589
vt -1.06014 0.464604
vt -0.884724 0.477359
vt -0.96622 0.348813
vt -0.958704 0.341762
vt -0.841618 0.298236
vt -0.833331 0.263796
vt -0.962989 0.344831
vt -0.962327 0.344015
vt -1.11439 0.800718
vt 0.847699 0.549893
vt -1.03442 0.916358
vt -0.0395089 -1.15059
vt 0.0457387 -1.37022
vt 0.0487593 -1.26822
vt 0.113279 -1.3542
vt 0.122881 -1.36699
vt 0.764322 0.552753
vt 0.774167 0.553871
vt 0.763063 0.552314
vt 0.759967 0.549029
vt 0.763063 0.552314
vt 0.758129 0.551121
vt -1.08537 -0.902506
vt -1.10452 -0.90976
vt -1.12511 -0.881477
vt -1.12486 -0.856753
vt -1.12959 -0.872034
vt 0.833375 0.520599
vt 0.816374 0.556352
vt -0.970918 0.729815
vt -0.980934 0.785137
vt -0.189885 0.71353
vt 0.0439665 0.7481
vt -0.184849 0.582898
vt 0.828396 0.517047
vt 0.802255 0.522135
vt 0.833375 0.520599
vt 0.0612433 0.750653
vt 0.168057 0.674895
vt 0.0115425 0.439632
vt -0.149048 0.521732
vt -0.183163 0.539173
vt -0.813501 0.834245
vt -0.804471 0.81236
vt -0.108104 1.59393
vt 0.19546 0.493402
vt 0.236888 0.58153
vt 0.252592 0.614937
vt 0.139445 0.374243
vt -0.54685 0.847348
vt 0.810578 0.545749
vt 0.850254 0.415954
vt 0.813482 0.525405
vt 1 0.501346
vt 0.891524 0.293114
vt 0.892185 0.291147
vt 1 1
vt 0 0.554418
vt 0.196806 0.642111
vt 0 0.672105
vt 0 0.554418
vt 0.220883 0.595154
vt 0.196806 0.642111
vt 0.305326 0.38514
vt 0.215698 0.416327
vt 0.305326 0.38514
vt 0 0.554418
vt 0.274344 0.388652
vt 0.322122 0.397718
vt 0.801134 0.611915
vt 0.81277 0.652164
vt 0.873293 0.861503
vt 0.913335 1
vt 0.000850863 0.506374
vt 0 0.554418
vt 0 0.506369
vt 0.0472774 0.485954
vt 0 0.554418
vt 0.000850863 0.506374
vt 0.0504785 0.484546
vt 0.10058 0.470651
vt 0.10058 0.470651
vt 0.197299 0.425009
vt 0.209867 0.731321
vn 0.897404 0.248327 -0.364693
vn 0.897404 0.248327 -0.364693
vn 0.897404 0.248327 -0.364693
vn 0.897404 0.248327 -0.364693
vn 0.178509 -0.606124 -0.775079
vn 0.178509 -0.606124 -0.775079
vn 0.178509 -0.606124 -0.775079
vn 0.178509 -0.606124 -0.775079
vn 0.178509 -0.606124 -0.775079
vn -0.573451 -0.700019 -0.42559
vn -0.573451 -0.700019 -0.42559
vn -0.573451 -0.700019 -0.42559
vn -0.573451 -0.700019 -0.42559
vn -0.573451 -0.700019 -0.42559
vn -0.573451 -0.700019 -0.42559
vn -0.573451 -0.700019 -0.42559
vn -0.573451 -0.700019 -0.42559
vn -0.258235 -0.487758 0.833911
vn -0.258235 -0.487758 0.833911
vn -0.258235 -0.487758 0.833911
vn -0.258235 -0.487758 0.833911
vn -0.258235 -0.487758 0.833911
vn -0.258235 -0.487758 0.833911
vn -0.258235 -0.487758 0.833911
vn 0.821614 0.0938395 0.562267
vn 0.821614 0.0938395 0.562267
vn 0.821614 0.0938395 0.562267
vn 0.821614 0.0938395 0.562267
vn 0.821614 0.0938395 0.562267
vn 0.982814 0.0966237 -0.157291
vn 0.982814 0.0966237 -0.157291
vn 0.982814 0.0966237 -0.157291
vn 0.776932 0.506661 0.373726
vn 0.776932 0.506661 0.373726
vn 0.776932 0.506661 0.373726
vn 0.821614 0.0938395 0.562267
vn 0.932509 -0.19899 0.30138
vn 0.932509 -0.19899 0.30138
vn 0.932509 -0.19899 0.30138
vn -0.258235 -0.487758 0.833911
vn -0.258235 -0.487758 0.833911
vn -0.258235 -0.487758 0.833911
vn -0.258235 -0.487758 0.833911
vn -0.258235 -0.487758 0.833911
vn -0.258235 -0.487758 0.833911
vn 0.539677 0.590854 0.5997
vn 0.539677 0.590854 0.5997
vn 0.539677 0.590854 0.5997
vn 0.539677 0.590854 0.5997
vn 0.539677 0.590854 0.5997
vn 0.539677 0.590854 0.5997
vn 0.539677 0.590854 0.5997
vn 0.539677 0.590854 0.5997
vn 0.539677 0.590854 0.5997
vn 0.539677 0.590854 0.5997
vn 0.539677 0.590854 0.5997
vn -0.258235 -0.487758 0.833911
vn 0.0714213 0.550086 0.832049
vn 0.0714213 0.550086 0.832049
vn 0.0714213 0.550086 0.832049
vn 0.0714213 0.550086 0.832049
vn 0.0714213 0.550086 0.832049
vn 0.0714213 0.550086 0.832049
vn 0.0714213 0.550086 0.832049
vn 0.0714213 0.550086 0.832049
vn 0.0714213 0.550086 0.832049
vn 0.0714213 0.550086 0.832049
vn -0.979731 0.0225636 -0.199045
vn -0.979731 0.0225636 -0.199045
vn -0.979731 0.0225636 -0.199045
vn -0.979731 0.0225636 -0.199045
vn -0.979731 0.0225636 -0.199045
vn -0.573451 -0.700019 -0.42559
vn -0.573451 -0.700019 -0.42559
vn -0.573451 -0.700019 -0.42559
vn -0.573451 -0.700019 -0.42559
vn -0.573451 -0.700019 -0.42559
vn -0.573451 -0.700019 -0.42559
vn -0.979731 0.0225636 -0.199045
vn -0.573451 -0.700019 -0.42559
vn -0.573451 -0.700019 -0.42559
vn -0.573451 -0.700019 -0.42559
vn -0.135561 0.500452 -0.855085
vn -0.135561 0.500452 -0.855085
vn -0.135561 0.500452 -0.855085
vn -0.135561 0.500452 -0.855085
vn -0.135561 0.500452 -0.855085
vn -0.135561 0.500452 -0.855085
vn -0.135561 0.500452 -0.855085
vn -0.135561 0.500452 -0.855085
vn -0.135561 0.500452 -0.855085
vn -0.135561 0.500452 -0.855085
vn -0.573451 -0.700019 -0.42559
vn -0.573451 -0.700019 -0.42559
vn -0.573451 -0.700019 -0.42559
vn -0.573451 -0.700019 -0.42559
vn -0.573451 -0.700019 -0.42559
vn -0.573451 -0.700019 -0.42559
vn -0.135561 0.500452 -0.855085
vn -0.135561 0.500452 -0.855085
vn -0.135561 0.500452 -0.855085
vn -0.135561 0.500452 -0.855085
vn 0.178509 -0.606124 -0.775079
vn 0.178509 -0.606124 -0.775079
vn 0.178509 -0.606124 -0.775079
vn 0.178509 -0.606124 -0.775079
vn 0.178509 -0.606124 -0.775079
vn 0.897404 0.248327 -0.364693
vn 0.897404 0.248327 -0.364693
vn 0.897404 0.248327 -0.364693
vn 0.917629 0.158767 -0.36435
vn 0.917629 0.158767 -0.36435
vn 0.917629 0.158767 -0.36435
vn 0.776932 0.506661 0.373726
vn 0.776932 0.506661 0.373726
vn 0.776932 0.506661 0.373726
vn 0.776932 0.506661 0.373726
vn 0.776932 0.506661 0.373726
vn 0.776932 0.506661 0.373726
vn 0.776932 0.506661 0.373726
vn 0.539677 0.590854 0.5997
vn 0.539677 0.590854 0.5997
vn 0.539677 0.590854 0.5997
vn -0.135561 0.500452 -0.855085
vn -0.135561 0.500452 -0.855085
vn -0.135561 0.500452 -0.855085
vn -0.135561 0.500452 -0.855085
vn -0.135561 0.500452 -0.855085
vn -0.135561 0.500452 -0.855085
vn -0.135561 0.500452 -0.855085
vn -0.135561 0.500452 -0.855085
vn 0.139781 0.789597 -0.597493
vn 0.139781 0.789597 -0.597493
vn 0.139781 0.789597 -0.597493
vn 0.139781 0.789597 -0.597493
vn 0.139781 0.789597 -0.597493
vn 0.139781 0.789597 -0.597493
vn 0.139781 0.789597 -0.597493
vn 0.139781 0.789597 -0.597493
vn 0.139781 0.789597 -0.597493
vn 0.139781 0.789597 -0.597493
vn 0.139781 0.789597 -0.597493
vn 0.139781 0.789597 -0.597493
vn 0.139781 0.789597 -0.597493
vn 0.139781 0.789597 -0.597493
vn 0.139781 0.789597 -0.597493
vn 0.139781 0.789597 -0.597493
vn 0.139781 0.789597 -0.597493
vn 0.139781 0.789597 -0.597493
vn 0.139781 0.789597 -0.597493
vn 0.139781 0.789597 -0.597493
vn 0.897404 0.248327 -0.364693
vn -0.135561 0.500452 -0.855085
vn 0.776932 0.506661 0.373726
vn 0.776932 0.506661 0.373726
vn 0.776932 0.506661 0.373726
vn 0.776932 0.506661 0.373726
vn 0.776932 0.506661 0.373726
vn 0.932509 -0.19899 0.30138
vn 0.932509 -0.19899 0.30138
vn 0.932509 -0.19899 0.30138
vn 0.863488 -0.100589 0.494237
vn 0.863488 -0.100589 0.494237
vn 0.863488 -0.100589 0.494237
vn 0.539677 0.590854 0.5997
vn 0.539677 0.590854 0.5997
vn 0.539677 0.590854 0.5997
vn 0.539677 0.590854 0.5997
vn 0.539677 0.590854 0.5997
vn 0.897404 0.248327 -0.364693
vn 0.897404 0.248327 -0.364693
vn 0.178509 -0.606124 -0.775079
vn 0.178509 -0.606124 -0.775079
vn 0.324383 -0.943664 -0.0653819
vn 0.324383 -0.943664 -0.0653819
vn 0.324383 -0.943664 -0.0653819
vn 0.982814 0.0966237 -0.157291
vn 0.982814 0.0966237 -0.157291
vn 0.982814 0.0966237 -0.157291
vn 0.324383 -0.943664 -0.0653819
vn 0.324383 -0.943664 -0.0653819
vn 0.324383 -0.943664 -0.0653819
vn 0.324383 -0.943664 -0.0653819
vn 0.324383 -0.943664 -0.0653819
vn 0.178509 -0.606124 -0.775079
vn 0.178509 -0.606124 -0.775079
vn -0.573451 -0.700019 -0.42559
vn 0.324383 -0.943664 -0.0653819
vn 0.324383 -0.943664 -0.0653819
vn 0.324383 -0.943664 -0.0653819
vn 0.324383 -0.943664 -0.0653819
vn -0.135561 0.500452 -0.855085
vn -0.970781 -0.0956809 -0.220065
vn -0.970781 -0.0956809 -0.220065
vn -0.970781 -0.0956809 -0.220065
vn -0.970781 -0.0956809 -0.220065
vn -0.970781 -0.0956809 -0.220065
vn -0.970781 -0.0956809 -0.220065
vn -0.970781 -0.0956809 -0.220065
vn -0.970479 0.219652 -0.0996185
vn -0.970479 0.219652 -0.0996185
vn -0.970479 0.219652 -0.0996185
vn -0.214925 -0.0372353 0.97592
vn -0.214925 -0.0372353 0.97592
vn -0.214925 -0.0372353 0.97592
vn -0.214925 -0.0372353 0.97592
vn -0.194285 0.121883 0.973344
vn -0.194285 0.121883 0.973344
vn -0.194285 0.121883 0.973344
vn -0.194285 0.121883 0.973344
vn -0.214925 -0.0372353 0.97592
vn -0.970781 -0.0956809 -0.220065
vn -0.970781 -0.0956809 -0.220065
vn -0.970781 -0.0956809 -0.220065
vn -0.970781 -0.0956809 -0.220065
vn -0.261945 0.0649125 0.962897
vn -0.261945 0.0649125 0.962897
vn -0.261945 0.0649125 0.962897
vn -0.263178 0.0647773 0.96257
vn -0.263288 0.0647653 0.962541
vn -0.263109 0.0647849 0.962589
vn -0.263183 0.0647768 0.962569
vn -0.263288 0.0647653 0.962541
vn -0.194285 0.121883 0.973344
vn -0.194285 0.121883 0.973344
vn -0.970479 0.219652 -0.0996185
f 1/1/1 2/2/2 3/3/3 
f 2/2/2 1/1/1 4/4/4 
f 5/5/5 6/6/6 7/7/7 
f 8/8/8 6/6/6 5/5/5 
f 8/8/8 9/9/9 6/6/6 
f 10/10/10 11/11/11 12/12/12 
f 13/13/13 11/11/11 10/10/10 
f 11/11/11 13/13/13 14/14/14 
f 11/11/11 14/14/14 15/15/15 
f 15/15/15 16/16/16 11/11/11 
f 17/17/17 16/16/16 15/15/15 
f 18/18/18 19/19/19 20/20/20 
f 18/18/18 21/21/21 19/19/19 
f 22/22/22 21/21/21 18/18/18 
f 22/22/22 23/23/23 21/21/21 
f 24/24/24 23/23/23 22/22/22 
f 25/25/25 26/26/26 27/27/27 
f 27/27/27 28/28/28 25/25/25 
f 29/29/29 28/28/28 27/27/27 
f 30/30/30 31/31/31 32/32/32 
f 33/33/33 34/34/34 35/35/35 
f 36/36/36 25/25/25 28/28/28 
f 37/37/37 38/38/38 39/39/39 
f 21/21/21 23/23/23 40/40/40 
f 41/41/41 21/21/21 40/40/40 
f 42/42/42 21/21/21 41/41/41 
f 43/43/43 21/21/21 42/42/42 
f 43/43/43 44/44/44 21/21/21 
f 43/43/43 45/45/45 44/44/44 
f 46/46/46 47/47/47 48/48/48 
f 49/49/49 47/47/47 46/46/46 
f 49/49/49 50/50/50 47/47/47 
f 51/51/51 50/50/50 49/49/49 
f 51/51/51 52/52/52 50/50/50 
f 51/51/51 53/53/53 52/52/52 
f 54/54/54 53/53/53 51/51/51 
f 54/54/54 55/55/55 53/53/53 
f 56/56/56 55/55/55 54/54/54 
f 21/21/21 44/44/44 57/57/57 
f 58/58/58 59/59/59 60/60/60 
f 61/61/61 58/58/58 60/60/60 
f 62/62/62 61/61/61 60/60/60 
f 63/63/63 61/61/61 62/62/62 
f 64/64/64 63/63/63 62/62/62 
f 65/65/65 63/63/63 64/64/64 
f 66/66/66 63/63/63 65/65/65 
f 67/67/67 60/60/60 59/59/59 
f 68/68/68 69/69/69 70/70/70 
f 71/71/71 69/69/69 68/68/68 
f 69/69/69 71/71/71 72/72/72 
f 73/73/73 74/74/74 75/75/75 
f 76/76/76 74/74/74 73/73/73 
f 77/77/77 74/74/74 76/76/76 
f 74/74/74 77/77/77 78/78/78 
f 79/79/79 70/70/70 69/69/69 
f 78/78/78 80/80/80 81/81/81 
f 78/78/78 82/82/82 80/80/80 
f 78/78/78 77/77/77 82/82/82 
f 83/83/83 84/84/84 85/85/85 
f 86/86/86 84/84/84 83/83/83 
f 87/87/87 84/84/84 86/86/86 
f 85/85/85 84/84/84 88/88/88 
f 85/85/85 88/88/88 89/89/89 
f 90/90/90 85/85/85 89/89/89 
f 90/90/90 89/89/89 91/91/91 
f 90/90/90 91/91/91 92/92/92 
f 81/81/81 80/80/80 93/93/93 
f 81/81/81 93/93/93 94/94/94 
f 94/94/94 11/11/11 81/81/81 
f 95/95/95 11/11/11 94/94/94 
f 96/96/96 11/11/11 95/95/95 
f 96/96/96 97/97/97 11/11/11 
f 96/96/96 98/98/98 97/97/97 
f 99/99/99 100/100/100 101/101/101 
f 100/100/100 99/99/99 102/102/102 
f 103/103/103 104/104/104 105/105/105 
f 9/9/9 103/103/103 105/105/105 
f 9/9/9 106/106/106 103/103/103 
f 11/11/11 97/97/97 12/12/12 
f 106/106/106 107/107/107 103/103/103 
f 6/6/6 9/9/9 105/105/105 
f 108/108/108 3/3/3 109/109/109 
f 1/1/1 3/3/3 108/108/108 
f 1/1/1 108/108/108 110/110/110 
f 111/111/111 112/112/112 113/113/113 
f 114/114/114 115/115/115 116/116/116 
f 117/117/117 115/115/115 114/114/114 
f 117/117/117 33/33/33 115/115/115 
f 118/118/118 33/33/33 117/117/117 
f 118/118/118 119/119/119 33/33/33 
f 120/120/120 119/119/119 118/118/118 
f 121/121/121 56/56/56 54/54/54 
f 122/122/122 56/56/56 121/121/121 
f 123/123/123 56/56/56 122/122/122 
f 91/91/91 124/124/124 125/125/125 
f 91/91/91 125/125/125 126/126/126 
f 92/92/92 91/91/91 126/126/126 
f 127/127/127 92/92/92 126/126/126 
f 127/127/127 126/126/126 128/128/128 
f 129/129/129 127/127/127 128/128/128 
f 129/129/129 128/128/128 99/99/99 
f 102/102/102 99/99/99 128/128/128 
f 128/128/128 126/126/126 130/130/130 
f 130/130/130 131/131/131 128/128/128 
f 132/132/132 133/133/133 134/134/134 
f 135/135/135 133/133/133 132/132/132 
f 135/135/135 136/136/136 133/133/133 
f 137/137/137 136/136/136 135/135/135 
f 136/136/136 137/137/137 138/138/138 
f 136/136/136 138/138/138 139/139/139 
f 136/136/136 140/140/140 133/133/133 
f 140/140/140 141/141/141 133/133/133 
f 133/133/133 141/141/141 142/142/142 
f 142/142/142 141/141/141 143/143/143 
f 141/141/141 144/144/144 143/143/143 
f 143/143/143 144/144/144 145/145/145 
f 144/144/144 146/146/146 145/145/145 
f 144/144/144 147/147/147 146/146/146 
f 147/147/147 148/148/148 146/146/146 
f 146/146/146 149/149/149 145/145/145 
f 149/149/149 146/146/146 150/150/150 
f 133/133/133 151/151/151 134/134/134 
f 110/110/110 108/108/108 152/152/152 
f 128/128/128 131/131/131 153/153/153 
f 154/154/154 33/33/33 119/119/119 
f 154/154/154 155/155/155 33/33/33 
f 156/156/156 155/155/155 154/154/154 
f 155/155/155 156/156/156 157/157/157 
f 158/158/158 155/155/155 157/157/157 
f 159/159/159 39/39/39 160/160/160 
f 161/161/161 39/39/39 159/159/159 
f 162/162/162 163/163/163 164/164/164 
f 165/165/165 166/166/166 167/167/167 
f 165/165/165 167/167/167 168/168/168 
f 46/46/46 165/165/165 168/168/168 
f 46/46/46 168/168/168 49/49/49 
f 169/169/169 168/168/168 167/167/167 
f 39/39/39 38/38/38 160/160/160 
f 33/33/33 35/35/35 115/115/115 
f 170/170/170 1/1/1 171/171/171 
f 4/4/4 1/1/1 170/170/170 
f 5/5/5 7/7/7 172/172/172 
f 5/5/5 172/172/172 173/173/173 
f 174/174/174 175/175/175 176/176/176 
f 177/177/177 32/32/32 178/178/178 
f 179/179/179 32/32/32 177/177/177 
f 32/32/32 31/31/31 178/178/178 
f 180/180/180 181/181/181 175/175/175 
f 175/175/175 181/181/181 182/182/182 
f 183/183/183 175/175/175 182/182/182 
f 176/176/176 175/175/175 183/183/183 
f 176/176/176 183/183/183 184/184/184 
f 185/185/185 186/186/186 5/5/5 
f 14/14/14 13/13/13 187/187/187 
f 186/186/186 8/8/8 5/5/5 
f 181/181/181 188/188/188 182/182/182 
f 181/181/181 189/189/189 188/188/188 
f 181/181/181 190/190/190 189/189/189 
f 182/182/182 188/188/188 191/191/191 
f 84/84/84 192/192/192 88/88/88 
f 193/193/193 194/194/194 195/195/195 
f 196/196/196 194/194/194 193/193/193 
f 196/196/196 197/197/197 194/194/194 
f 196/196/196 198/198/198 197/197/197 
f 196/196/196 193/193/193 199/199/199 
f 200/200/200 201/201/201 202/202/202 
f 203/203/203 204/204/204 205/205/205 
f 203/203/203 206/206/206 204/204/204 
f 207/207/207 208/208/208 209/209/209 
f 210/210/210 208/208/208 207/207/207 
f 204/204/204 206/206/206 211/211/211 
f 212/212/212 199/199/199 193/193/193 
f 213/213/213 199/199/199 212/212/212 
f 199/199/199 213/213/213 214/214/214 
f 199/199/199 214/214/214 215/215/215 
f 216/216/216 217/217/217 218/218/218 
f 219/219/219 220/220/220 221/221/221 
f 222/222/222 220/220/220 219/219/219 
f 223/223/223 220/220/220 222/222/222 
f 209/209/209 224/224/224 225/225/225 
f 207/207/207 209/209/209 225/225/225 
f 202/202/202 201/201/201 226/226/226 
