v -0.821145 2.20074 -0.154983
v -0.705 2.4417 -0.1495
v -0.665526 2.29697 -0.336239
v -1.01969 2.0747 0.0871217
v -0.821145 2.20074 -0.154983
v -1.02059 2.08384 0.0967586
v -1.02059 2.08384 0.0967586
v -0.9581 2.2319 0.184
v -0.705 2.4417 -0.1495
v -1.0178 2.10796 0.131503
v -1.01307 2.14889 0.19048
v -0.957216 2.12175 0.258191
v -0.9581 2.2319 0.184
v -1.01307 2.14889 0.19048
v -0.937247 2.13554 0.266742
v -0.9581 2.2319 0.184
v -0.937247 2.13554 0.266742
v -0.848402 2.23568 0.337261
v -0.9581 2.2319 0.184
v -0.848402 2.23568 0.337261
v -0.5034 2.6481 -0.1484
v -0.9581 2.2319 0.184
v -0.5034 2.6481 -0.1484
v -0.705 2.4417 -0.1495
v -0.6579 2.3058 -0.3417
v -0.705 2.4417 -0.1495
v -0.5034 2.6481 -0.1484
v -0.6579 2.3058 -0.3417
v -0.6579 2.3058 -0.3417
v -0.658298 2.30051 -0.341547
v -0.665526 2.29697 -0.336239
v -0.6579 2.3058 -0.3417
v -0.647238 2.30409 -0.343552
v -0.658298 2.30051 -0.341547
v -0.568379 2.327 -0.335909
v -0.647238 2.30409 -0.343552
v -0.6579 2.3058 -0.3417
v -0.569769 2.32326 -0.338039
v -0.539548 2.22835 0.00536218
v -0.647238 2.30409 -0.343552
v -0.569769 2.32326 -0.338039
v -0.821145 2.20074 -0.154983
v -0.665526 2.29697 -0.336239
v -0.658298 2.30051 -0.341547
v -0.538107 2.22382 0.0217419
v -0.641176 2.17784 0.082598
v -0.675158 2.16268 0.102662
v -0.832418 2.09254 0.195515
v -0.856371 2.08185 0.209658
v -0.884591 2.07477 0.207963
v -1.01969 2.0747 0.0871217
v -0.908561 2.06876 0.206523
v -0.944735 2.05968 0.20435
v -1.01969 2.0747 0.0871219
v -0.944735 2.05968 0.20435
v -1.02059 2.08384 0.0967588
v -0.945233 2.06216 0.206497
v -0.945471 2.06334 0.207527
v -1.0178 2.10796 0.131503
v -0.947038 2.07114 0.214287
v -0.947692 2.07439 0.217107
v -1.01307 2.14889 0.19048
v -0.951222 2.09194 0.232331
v -0.952269 2.09715 0.23685
v -0.957217 2.12175 0.258191
v -0.937247 2.13554 0.266741
v -0.957216 2.12175 0.25819
v -0.952269 2.09715 0.236849
v -0.884591 2.07477 0.207962
v -0.856372 2.08185 0.209658
v -0.819694 2.10892 0.226818
v -0.856371 2.08185 0.209658
v -0.832418 2.09254 0.195515
v -0.819694 2.10892 0.226818
v -0.711816 2.18808 0.27568
v -0.713707 2.18713 0.276407
v -0.713706 2.18713 0.276407
v -0.848402 2.23568 0.337261
v -0.719161 2.19898 0.287147
v -0.757112 2.28143 0.361874
v -0.757113 2.28143 0.361874
v -0.719109 2.30875 0.35213
v -0.719109 2.30875 0.35213
v -0.431594 2.55406 0.110112
v -0.5034 2.6481 -0.1484
v -0.699075 2.32081 0.345606
v -0.639234 2.35683 0.326118
v -0.584616 2.37985 0.302494
v -0.431594 2.55406 0.110112
v -0.639234 2.35683 0.326118
v -0.449706 2.46611 0.210322
v -0.438839 2.47306 0.202898
v -0.438839 2.47306 0.202898
v -0.539548 2.22835 0.00536219
v -0.431594 2.55406 0.110112
v -0.452303 2.41728 0.215412
v -0.487064 2.30612 0.192278
v -0.459334 2.38815 0.221948
v -0.487064 2.30612 0.192278
v -0.459334 2.38815 0.221948
v -0.46747 2.38761 0.227178
v -0.524069 2.2825 0.203531
v -0.477342 2.38696 0.233525
v -0.639234 2.35683 0.326119
v -0.536966 2.27602 0.208488
v -0.675158 2.16268 0.102662
v -0.524069 2.2825 0.203531
v -0.536967 2.27602 0.208488
v -0.641176 2.17784 0.0825981
v -0.489105 2.30009 0.190095
v -0.538107 2.22382 0.0217419
v -0.538107 2.22382 0.0217419
v -0.487792 2.30397 0.191499
v -0.489105 2.30009 0.190095
v -0.487792 2.30397 0.191499
v -0.489105 2.30009 0.190095
v -0.619267 2.23463 0.240115
v -0.702166 2.19293 0.271972
v -0.702166 2.19293 0.271972
v -0.719161 2.19898 0.287147
v -0.711815 2.18808 0.27568
v -0.699075 2.32081 0.345606
v -0.619267 2.23463 0.240115
v -0.719109 2.30875 0.35213
v -0.757113 2.28143 0.361874
v -0.713707 2.18713 0.276407
v -0.584617 2.37985 0.302494
v -0.449706 2.46611 0.210322
v -0.584616 2.37985 0.302494
v -0.477342 2.38696 0.233525
v -0.452303 2.41728 0.215412
v -0.438839 2.47306 0.202898
v -0.46747 2.38761 0.227178
v -0.459334 2.38815 0.221948
v -0.437164 2.63246 -0.0559696
v -0.437164 2.63246 -0.0559696
v -0.449818 2.62697 -0.123415
v -0.5034 2.6481 -0.1484
v -0.437164 2.63246 -0.0559696
v -0.450182 2.62681 -0.125353
v -0.454706 2.62526 -0.150162
v -0.46348 2.60857 -0.175187
v -0.5034 2.6481 -0.1484
v -0.454706 2.62526 -0.150162
v -0.46348 2.60857 -0.175187
v -0.5034 2.6481 -0.1484
v -0.46348 2.60857 -0.175187
v -0.568379 2.327 -0.335909
v -0.449818 2.62697 -0.123415
v -0.450182 2.62681 -0.125353
v -0.454706 2.62526 -0.150162
v -0.569769 2.32326 -0.338039
v -0.908561 2.06876 0.206522
v -0.951222 2.09194 0.232331
v -0.947692 2.07439 0.217107
v -0.947039 2.07114 0.214287
v -0.945471 2.06334 0.207527
v -0.945233 2.06216 0.206497
v -0.944735 2.05968 0.204349
vt 0.281475 0.569232
vt 0.2883 0.5948
vt 0.261646 0.587223
vt 0.30994 0.551586
vt 0.281475 0.569232
vt 0.311432 0.552392
vt 0.311432 0.552392
vt 0.3213 0.5627
vt 0.2883 0.5948
vt 0.31515 0.553285
vt 0.321461 0.554801
vt 0.331288 0.555527
vt 0.3213 0.5627
vt 0.321461 0.554801
vt 0.332696 0.557325
vt 0.3213 0.5627
vt 0.332696 0.557325
vt 0.338285 0.569528
vt 0.3213 0.5627
vt 0.338285 0.569528
vt 0.2901 0.6236
vt 0.3213 0.5627
vt 0.2901 0.6236
vt 0.2883 0.5948
vt 0.2612 0.5884
vt 0.2883 0.5948
vt 0.2901 0.6236
vt 0.2612 0.5884
vt 0.2612 0.5884
vt 0.260918 0.588031
vt 0.261646 0.587223
vt 0.2612 0.5884
vt 0.260554 0.589455
vt 0.260918 0.588031
vt 0.259482 0.59919
vt 0.260554 0.589455
vt 0.2612 0.5884
vt 0.259154 0.598838
vt -0.0102446 -0.635298
vt 0.10096 -0.991259
vt 0.0209627 -0.99149
vt 0.280543 -0.780943
vt 0.119845 -0.98221
vt 0.112381 -0.988311
vt -0.0117332 -0.618309
vt 0.0947001 -0.546806
vt 0.129791 -0.523232
vt 0.292184 -0.414135
vt 0.316919 -0.397518
vt 0.346059 -0.397107
vt 0.485567 -0.512829
vt 0.370812 -0.396758
vt 0.408166 -0.396231
vt 0.213678 -2.28898
vt 0.34255 -2.2344
vt 0.224273 -2.29704
vt 0.344911 -2.23673
vt 0.346043 -2.23785
vt 0.262468 -2.31541
vt 0.353475 -2.24517
vt 0.356574 -2.24823
vt 0.327303 -2.3466
vt 0.373311 -2.26473
vt 0.378278 -2.26962
vt 0.401739 -2.29275
vt 0.797852 1.80863
vt 0.817953 1.79257
vt 0.812973 1.76
vt 0.744849 1.7243
vt 0.716444 1.73082
vt 0.679524 1.76259
vt 0.713873 0.351292
vt 0.699343 0.377308
vt 0.731503 0.396695
vt 0.781702 0.530007
vt 0.782449 0.527897
vt 0.572838 1.85439
vt 0.708422 1.93068
vt 0.578329 1.87037
vt 0.61653 1.98156
vt 0.341612 0.578677
vt 0.340899 0.58316
vt 0.340899 0.58316
vt 0.313849 0.621802
vt 0.2901 0.6236
vt 0.340003 0.585481
vt 0.337327 0.592415
vt 0.335477 0.59907
vt 0.313849 0.621802
vt 0.337327 0.592415
vt 0.326502 0.616603
vt 0.325779 0.618015
vt 0.0299444 2.26477
vt -0.17007 2.00201
vt -0.0640051 2.34475
vt 0.0426157 2.20742
vt 0.0191916 2.09101
vt 0.0492334 2.17747
vt 2.02062 -0.510714
vt 2.11194 -0.504527
vt 2.11134 -0.514195
vt 1.99433 -0.547625
vt 2.11062 -0.525926
vt 2.07707 -0.711844
vt 1.9871 -0.561073
vt 0.603949 0.54811
vt 0.707579 0.739474
vt 0.712671 0.725083
vt 0.583336 0.585019
vt 0.693775 0.778482
vt 0.520814 0.696964
vt -0.153484 1.99804
vt 0.0184029 2.08874
vt 0.0169812 2.08465
vt 2.01822 -0.510877
vt 2.0139 -0.511169
vt 0.745164 0.633262
vt 0.777892 0.540773
vt 1.89461 -0.733318
vt 1.90134 -0.755909
vt 1.8892 -0.743379
vt 2.03697 -0.77226
vt 1.94102 -0.646884
vt 2.02355 -0.792486
vt 1.99313 -0.829372
vt 1.88814 -0.745351
vt 2.1027 -0.653413
vt 2.46562 -0.49223
vt 2.3792 -0.65554
vt 2.38633 -0.528008
vt 2.4167 -0.497157
vt 2.47258 -0.479075
vt 2.38698 -0.516272
vt 2.38752 -0.5066
vt -0.232171 2.41878
vt 0.298041 0.627183
vt 0.29125 0.627874
vt 0.2901 0.6236
vt 0.298041 0.627183
vt 0.291054 0.627894
vt 0.287802 0.627459
vt 0.284228 0.625756
vt 0.2901 0.6236
vt 0.287802 0.627459
vt 0.284228 0.625756
vt 0.2901 0.6236
vt -0.352884 2.3887
vt -0.515622 2.08931
vt -0.300462 2.41009
vt -0.302425 2.40984
vt -0.327545 2.40714
vt -0.517779 2.08534
vt 0.768977 1.71877
vt 0.811919 1.75311
vt 0.808366 1.72988
vt 0.807708 1.72558
vt 0.806131 1.71526
vt 0.80589 1.71369
vt 0.805389 1.71041
vn -0.781311 0.407061 -0.473132
vn -0.800328 0.396006 -0.450172
vn -0.789813 0.392473 -0.47134
vn -0.800328 0.396006 -0.450172
vn -0.800328 0.396006 -0.450172
vn -0.800328 0.396006 -0.450172
vn -0.807993 0.512393 -0.290863
vn -0.807993 0.512393 -0.290863
vn -0.807993 0.512393 -0.290863
vn -0.807993 0.512393 -0.290863
vn -0.807993 0.512393 -0.290863
vn -0.594469 0.445928 0.669145
vn -0.594469 0.445928 0.669145
vn -0.594469 0.445928 0.669145
vn -0.594469 0.445928 0.669145
vn -0.778339 0.303499 0.549615
vn -0.778339 0.303499 0.549615
vn -0.778339 0.303499 0.549615
vn -0.492682 0.804055 0.332807
vn -0.492682 0.804055 0.332807
vn -0.492682 0.804055 0.332807
vn -0.711341 0.695344 -0.102421
vn -0.711341 0.695344 -0.102421
vn -0.711341 0.695344 -0.102421
vn -0.592767 0.581949 -0.556744
vn -0.592767 0.581949 -0.556744
vn -0.592767 0.581949 -0.556744
vn -0.790535 0.391754 -0.470726
vn -0.598697 0.0218612 -0.800677
vn -0.598697 0.0218612 -0.800677
vn -0.598697 0.0218612 -0.800677
vn -0.173499 -0.0154317 -0.984713
vn -0.173499 -0.0154317 -0.984713
vn -0.173499 -0.0154317 -0.984713
vn -0.0661279 0.51311 -0.855772
vn -0.0661279 0.51311 -0.855772
vn -0.0661279 0.51311 -0.855772
vn -0.0661279 0.51311 -0.855772
vn 0.249425 -0.927537 -0.27832
vn 0.249425 -0.927537 -0.27832
vn 0.249425 -0.927537 -0.27832
vn 0.249425 -0.927537 -0.27832
vn 0.249425 -0.927537 -0.27832
vn 0.249425 -0.927537 -0.27832
vn 0.249425 -0.927537 -0.27832
vn 0.249425 -0.927537 -0.27832
vn 0.249425 -0.927537 -0.27832
vn 0.249425 -0.927537 -0.27832
vn 0.249425 -0.927537 -0.27832
vn 0.249425 -0.927537 -0.27832
vn 0.249425 -0.927537 -0.27832
vn 0.249425 -0.927537 -0.27832
vn 0.249425 -0.927537 -0.27832
vn -0.752164 -0.511571 0.415383
vn -0.752164 -0.511571 0.415383
vn -0.752164 -0.511571 0.415383
vn -0.752164 -0.511571 0.415383
vn -0.752164 -0.511571 0.415383
vn -0.752164 -0.511571 0.415383
vn -0.752164 -0.511571 0.415383
vn -0.752164 -0.511571 0.415383
vn -0.752164 -0.511571 0.415383
vn -0.752164 -0.511571 0.415383
vn -0.752164 -0.511571 0.415383
vn -0.752164 -0.511571 0.415383
vn 0.114245 -0.637762 0.761714
vn 0.114245 -0.637762 0.761714
vn 0.114245 -0.637762 0.761714
vn 0.114245 -0.637762 0.761714
vn 0.114245 -0.637762 0.761714
vn 0.114245 -0.637762 0.761714
vn 0.506228 -0.831364 0.229276
vn 0.506228 -0.831364 0.229276
vn 0.506228 -0.831364 0.229276
vn 0.506228 -0.831364 0.229276
vn 0.506228 -0.831364 0.229276
vn 0.114245 -0.637762 0.761714
vn 0.114245 -0.637762 0.761714
vn 0.114245 -0.637762 0.761714
vn 0.114245 -0.637762 0.761714
vn -0.492682 0.804055 0.332807
vn -0.492682 0.804055 0.332807
vn -0.370281 0.835178 0.406657
vn -0.370281 0.835178 0.406657
vn -0.370281 0.835178 0.406657
vn -0.370281 0.835178 0.406657
vn -0.370281 0.835178 0.406657
vn -0.0342147 0.754193 0.655761
vn -0.0342147 0.754193 0.655761
vn -0.0342147 0.754193 0.655761
vn -0.0342147 0.754193 0.655761
vn -0.0342147 0.754193 0.655761
vn 0.951428 -0.264869 -0.156939
vn 0.951428 -0.264869 -0.156939
vn 0.951428 -0.264869 -0.156939
vn 0.951428 -0.264869 -0.156939
vn 0.951428 -0.264869 -0.156939
vn 0.951428 -0.264869 -0.156939
vn 0.506195 -0.439509 0.742024
vn 0.506195 -0.439509 0.742024
vn 0.506195 -0.439509 0.742024
vn 0.506195 -0.439509 0.742024
vn 0.506195 -0.439509 0.742024
vn 0.506195 -0.439509 0.742024
vn 0.506195 -0.439509 0.742024
vn 0.506228 -0.831364 0.229276
vn 0.506228 -0.831364 0.229276
vn 0.506228 -0.831364 0.229276
vn 0.506228 -0.831364 0.229276
vn 0.506228 -0.831364 0.229276
vn 0.506228 -0.831364 0.229276
vn 0.951428 -0.264869 -0.156939
vn 0.951428 -0.264869 -0.156939
vn 0.951428 -0.264869 -0.156939
vn 0.506195 -0.439509 0.742024
vn 0.506195 -0.439509 0.742024
vn 0.506228 -0.831364 0.229276
vn 0.506228 -0.831364 0.229276
vn 0.506195 -0.439509 0.742024
vn 0.506195 -0.439509 0.742024
vn 0.506195 -0.439509 0.742024
vn 0.506195 -0.439509 0.742024
vn 0.506195 -0.439509 0.742024
vn 0.506195 -0.439509 0.742024
vn 0.506195 -0.439509 0.742024
vn 0.506195 -0.439509 0.742024
vn 0.506195 -0.439509 0.742024
vn 0.537072 0.0591524 0.84146
vn 0.537072 0.0591524 0.84146
vn 0.537072 0.0591524 0.84146
vn 0.537072 0.0591524 0.84146
vn 0.537072 0.0591524 0.84146
vn 0.537072 0.0591524 0.84146
vn 0.537072 0.0591524 0.84146
vn 0.951428 -0.264869 -0.156939
vn -0.370281 0.835178 0.406657
vn 0.417099 0.899137 -0.132596
vn 0.417015 0.899215 -0.132328
vn 0.420022 0.896348 -0.141921
vn 0.417015 0.899215 -0.132328
vn 0.417015 0.899215 -0.132328
vn 0.32155 0.731844 -0.600841
vn 0.32155 0.731844 -0.600841
vn 0.32155 0.731844 -0.600841
vn -0.0661279 0.51311 -0.855772
vn -0.0661279 0.51311 -0.855772
vn 0.951428 -0.264869 -0.156939
vn 0.951428 -0.264869 -0.156939
vn 0.951428 -0.264869 -0.156939
vn 0.951428 -0.264869 -0.156939
vn 0.951428 -0.264869 -0.156939
vn 0.951428 -0.264869 -0.156939
vn 0.114245 -0.637762 0.761714
vn 0.114245 -0.637762 0.761714
vn 0.114245 -0.637762 0.761714
vn 0.114245 -0.637762 0.761714
vn 0.114245 -0.637762 0.761714
vn 0.114245 -0.637762 0.761714
vn 0.114245 -0.637762 0.761714
f 1/1/1 2/2/2 3/3/3 
f 4/4/4 2/2/2 5/5/5 
f 6/6/6 2/2/2 4/4/4 
f 7/7/7 8/8/8 9/9/9 
f 10/10/10 8/8/8 7/7/7 
f 11/11/11 8/8/8 10/10/10 
f 12/12/12 13/13/13 14/14/14 
f 15/15/15 13/13/13 12/12/12 
f 16/16/16 17/17/17 18/18/18 
f 19/19/19 20/20/20 21/21/21 
f 22/22/22 23/23/23 24/24/24 
f 25/25/25 26/26/26 27/27/27 
f 3/3/3 2/2/2 28/28/28 
f 29/29/29 30/30/30 31/31/31 
f 32/32/32 33/33/33 34/34/34 
f 35/35/35 36/36/36 37/37/37 
f 38/38/38 36/36/36 35/35/35 
f 39/39/39 40/40/40 41/41/41 
f 40/40/40 39/39/39 42/42/42 
f 42/42/42 43/43/43 40/40/40 
f 43/43/43 44/44/44 40/40/40 
f 45/45/45 42/42/42 39/39/39 
f 46/46/46 42/42/42 45/45/45 
f 42/42/42 46/46/46 47/47/47 
f 48/48/48 42/42/42 47/47/47 
f 49/49/49 42/42/42 48/48/48 
f 50/50/50 42/42/42 49/49/49 
f 50/50/50 51/51/51 42/42/42 
f 52/52/52 51/51/51 50/50/50 
f 53/53/53 51/51/51 52/52/52 
f 54/54/54 55/55/55 56/56/56 
f 56/56/56 55/55/55 57/57/57 
f 56/56/56 57/57/57 58/58/58 
f 56/56/56 58/58/58 59/59/59 
f 59/59/59 58/58/58 60/60/60 
f 59/59/59 60/60/60 61/61/61 
f 59/59/59 61/61/61 62/62/62 
f 62/62/62 61/61/61 63/63/63 
f 62/62/62 63/63/63 64/64/64 
f 62/62/62 64/64/64 65/65/65 
f 66/66/66 67/67/67 68/68/68 
f 66/66/66 68/68/68 69/69/69 
f 69/69/69 70/70/70 66/66/66 
f 70/70/70 71/71/71 66/66/66 
f 72/72/72 73/73/73 74/74/74 
f 75/75/75 74/74/74 73/73/73 
f 76/76/76 74/74/74 75/75/75 
f 77/77/77 78/78/78 71/71/71 
f 79/79/79 78/78/78 77/77/77 
f 80/80/80 78/78/78 79/79/79 
f 81/81/81 21/21/21 20/20/20 
f 82/82/82 21/21/21 81/81/81 
f 83/83/83 84/84/84 85/85/85 
f 86/86/86 84/84/84 83/83/83 
f 87/87/87 84/84/84 86/86/86 
f 88/88/88 89/89/89 90/90/90 
f 91/91/91 89/89/89 88/88/88 
f 89/89/89 91/91/91 92/92/92 
f 93/93/93 94/94/94 95/95/95 
f 96/96/96 94/94/94 93/93/93 
f 96/96/96 97/97/97 94/94/94 
f 98/98/98 97/97/97 96/96/96 
f 99/99/99 100/100/100 101/101/101 
f 101/101/101 102/102/102 99/99/99 
f 103/103/103 102/102/102 101/101/101 
f 102/102/102 103/103/103 104/104/104 
f 102/102/102 104/104/104 105/105/105 
f 106/106/106 107/107/107 108/108/108 
f 109/109/109 107/107/107 106/106/106 
f 109/109/109 110/110/110 107/107/107 
f 111/111/111 110/110/110 109/109/109 
f 112/112/112 113/113/113 114/114/114 
f 94/94/94 113/113/113 112/112/112 
f 113/113/113 94/94/94 97/97/97 
f 102/102/102 115/115/115 99/99/99 
f 115/115/115 102/102/102 116/116/116 
f 106/106/106 108/108/108 117/117/117 
f 106/106/106 117/117/117 118/118/118 
f 118/118/118 73/73/73 106/106/106 
f 75/75/75 73/73/73 118/118/118 
f 119/119/119 120/120/120 121/121/121 
f 119/119/119 122/122/122 120/120/120 
f 123/123/123 122/122/122 119/119/119 
f 123/123/123 104/104/104 122/122/122 
f 105/105/105 104/104/104 123/123/123 
f 122/122/122 124/124/124 120/120/120 
f 124/124/124 125/125/125 120/120/120 
f 121/121/121 120/120/120 126/126/126 
f 104/104/104 103/103/103 127/127/127 
f 128/128/128 129/129/129 130/130/130 
f 131/131/131 128/128/128 130/130/130 
f 131/131/131 132/132/132 128/128/128 
f 131/131/131 130/130/130 133/133/133 
f 131/131/131 133/133/133 134/134/134 
f 95/95/95 94/94/94 135/135/135 
f 136/136/136 85/85/85 84/84/84 
f 137/137/137 138/138/138 139/139/139 
f 140/140/140 138/138/138 137/137/137 
f 138/138/138 140/140/140 141/141/141 
f 142/142/142 143/143/143 144/144/144 
f 145/145/145 37/37/37 146/146/146 
f 35/35/35 37/37/37 145/145/145 
f 147/147/147 94/94/94 148/148/148 
f 149/149/149 94/94/94 147/147/147 
f 94/94/94 149/149/149 135/135/135 
f 149/149/149 147/147/147 150/150/150 
f 150/150/150 147/147/147 151/151/151 
f 148/148/148 94/94/94 152/152/152 
f 71/71/71 78/78/78 66/66/66 
f 69/69/69 68/68/68 153/153/153 
f 68/68/68 154/154/154 153/153/153 
f 154/154/154 155/155/155 153/153/153 
f 155/155/155 156/156/156 153/153/153 
f 156/156/156 157/157/157 153/153/153 
f 157/157/157 158/158/158 153/153/153 
f 153/153/153 158/158/158 159/159/159 
