v 1.0869 2.1235 -0.1687
v 1.04929 2.16031 0.121387
v 1.15463 2.00077 0.032758
v 1.0869 2.1235 -0.1687
v 1.01354 2.16006 0.0608572
v 1.04929 2.16031 0.121387
v 0.939813 2.14219 -0.229739
v 1.0869 2.1235 -0.1687
v 0.912835 2.06486 -0.318368
v 0.939813 2.14219 -0.229739
v 1.0869 2.1235 -0.1687
v 0.907651 1.97471 -0.316577
v 0.912835 2.06486 -0.318368
v 0.918339 1.95689 -0.305872
v 0.907615 1.97221 -0.316432
v 0.907615 1.97221 -0.316432
v 0.918339 1.95689 -0.305872
v 0.907572 1.97216 -0.316255
v 0.907572 1.97216 -0.316255
v 0.90762 1.97417 -0.316566
v 0.907615 1.97221 -0.316432
v 0.907572 1.97216 -0.316255
v 0.907912 1.97098 -0.314598
v 0.90762 1.97417 -0.316566
v 0.907912 1.97098 -0.314598
v 0.909986 1.96378 -0.3045
v 0.912115 1.95639 -0.294132
v 0.913968 1.94995 -0.285105
v 0.918433 1.93445 -0.263364
v 0.927797 1.94418 -0.298074
v 0.940958 1.85626 -0.15367
v 1.03029 1.80641 -0.213566
v 0.945195 1.84155 -0.133036
v 1.07634 1.74451 -0.1756
v 0.945533 1.84037 -0.13139
v 1.07932 1.73957 -0.17137
v 1.07932 1.73957 -0.17137
v 0.956678 1.88394 -0.097681
v 0.945533 1.84037 -0.131391
v 1.15892 1.864 -0.0637082
v 0.963331 1.90994 -0.0775589
v 0.963331 1.90994 -0.0775589
v 0.918433 1.93445 -0.263364
v 0.956678 1.88394 -0.097681
v 0.939813 2.14219 -0.229739
v 0.913968 1.94995 -0.285105
v 0.912115 1.95639 -0.294132
v 0.909986 1.96378 -0.3045
v 0.912835 2.06486 -0.318368
v 0.907651 1.97471 -0.316577
v 0.90762 1.97417 -0.316566
v 0.979787 1.97427 -0.0277838
v 0.986408 2.00015 -0.00775953
v 1.01354 2.16006 0.0608572
v 1.02243 2.14097 0.101201
v 1.02823 2.16362 0.118732
v 1.02243 2.14097 0.101201
v 1.15463 2.00077 0.0327581
v 1.02823 2.16362 0.118732
v 0.986408 2.00015 -0.00775956
v 0.979787 1.97427 -0.0277838
v 1.18316 1.96041 0.0107893
v 1.18316 1.96041 0.0107893
v 1.0869 2.1235 -0.1687
v 1.18316 1.96041 0.0107893
v 1.15892 1.864 -0.0637082
v 1.07932 1.73957 -0.17137
v 1.0869 2.1235 -0.1687
v 1.15892 1.864 -0.0637082
v 1.07634 1.74451 -0.1756
v 1.0869 2.1235 -0.1687
v 1.07634 1.74451 -0.1756
v 1.03029 1.80641 -0.213566
v 0.927797 1.94418 -0.298074
v 0.918339 1.95689 -0.305872
v 1.04929 2.16031 0.121387
v 1.02823 2.16362 0.118732
v 0.940958 1.85626 -0.15367
v 0.945195 1.84155 -0.133036
v 0.945533 1.84037 -0.131391
vt 0.8529 0.902
vt 0.823176 0.905798
vt 0.832301 0.886141
vt 0.8529 0.902
vt 0.830496 0.908881
vt 0.823176 0.905798
vt 0.863132 0.914981
vt 0.8529 0.902
vt 0.878138 0.903955
vt 0.863132 0.914981
vt 0.8529 0.902
vt 0.881016 0.891056
vt 0.878138 0.903955
vt 0.879982 0.887797
vt 0.881081 0.890692
vt -1.04486 -0.65674
vt -1.03353 -0.638497
vt -1.04467 -0.656735
vt 1.96065 -0.525522
vt 1.96266 -0.525835
vt 1.9607 -0.525704
vt 2.02645 -0.0868016
vt 2.02527 -0.0851112
vt 2.02847 -0.0870912
vt -1.04289 -0.655688
vt -1.03206 -0.649309
vt -1.02093 -0.642758
vt -1.01125 -0.637055
vt -0.987919 -0.62332
vt -1.02516 -0.622944
vt -0.870224 -0.554016
vt -0.934488 -0.454401
vt -0.848085 -0.54098
vt -0.893754 -0.378682
vt -0.846319 -0.539941
vt -0.889215 -0.37315
vt -0.840693 1.31705
vt -0.71576 1.47738
vt -0.704408 1.42234
vt -0.921771 1.48087
vt -0.722537 1.51024
vt 1.96412 0.158292
vt 1.98868 -0.0328554
vt 1.93807 0.137157
vt 2.1968 0.00495008
vt 2.0042 -0.0550297
vt 2.01065 -0.0642367
vt 2.01806 -0.0748119
vt 2.11932 -0.0875759
vt 2.02901 -0.0870941
vt 0.881033 0.890979
vt 2.02857 0.210572
vt 2.0545 0.231604
vt 2.2147 0.304752
vt 2.19557 0.346047
vt 2.21827 0.36446
vt -0.78274 1.80212
vt -0.917407 1.64823
vt -0.788644 1.83074
vt -0.746044 1.62421
vt -0.7393 1.59151
vt -0.94647 1.60261
vt 0.834026 0.881873
vt 0.8529 0.902
vt 0.834026 0.881873
vt 0.842098 0.872283
vt 0.859648 0.858569
vt 0.8529 0.902
vt 0.842098 0.872283
vt 0.860175 0.859142
vt 0.8529 0.902
vt 0.860175 0.859142
vt 0.865947 0.867493
vt 0.878796 0.886082
vt 0.879982 0.887797
vt -0.810097 1.82959
vt 0.823997 0.907666
vt 1.91034 0.0790273
vt 1.8956 0.100073
vt 1.89443 0.101751
vn 0.844257 0.534317 0.0416658
vn 0.844257 0.534317 0.0416658
vn 0.844257 0.534317 0.0416658
vn 0.167264 0.980545 -0.102732
vn 0.167264 0.980545 -0.102732
vn 0.167264 0.980545 -0.102732
vn 0.167264 0.980545 -0.102732
vn 0.361334 0.645308 -0.673064
vn 0.361334 0.645308 -0.673064
vn 0.361334 0.645308 -0.673064
vn 0.661245 -0.0529001 -0.748303
vn 0.661245 -0.0529001 -0.748303
vn 0.661245 -0.0529001 -0.748303
vn 0.661245 -0.0529001 -0.748303
vn 0.661245 -0.0529001 -0.748303
vn -0.6275 -0.689134 -0.362407
vn -0.6275 -0.689134 -0.362407
vn -0.6275 -0.689134 -0.362407
vn -0.97047 -0.0140579 -0.240811
vn -0.97047 -0.0140579 -0.240811
vn -0.97047 -0.0140579 -0.240811
vn -0.968393 0.0604978 0.241983
vn -0.968393 0.0604978 0.241983
vn -0.968393 0.0604978 0.241983
vn -0.6275 -0.689134 -0.362407
vn -0.6275 -0.689134 -0.362407
vn -0.6275 -0.689134 -0.362407
vn -0.6275 -0.689134 -0.362407
vn -0.6275 -0.689134 -0.362407
vn -0.6275 -0.689134 -0.362407
vn -0.6275 -0.689134 -0.362407
vn -0.6275 -0.689134 -0.362407
vn -0.6275 -0.689134 -0.362407
vn -0.6275 -0.689134 -0.362407
vn -0.6275 -0.689134 -0.362407
vn -0.6275 -0.689134 -0.362407
vn -0.190446 -0.569829 0.799391
vn -0.190446 -0.569829 0.799391
vn -0.190446 -0.569829 0.799391
vn -0.190446 -0.569829 0.799391
vn -0.190446 -0.569829 0.799391
vn -0.968393 0.0604978 0.241983
vn -0.968393 0.0604978 0.241983
vn -0.968393 0.0604978 0.241983
vn -0.968393 0.0604978 0.241983
vn -0.968393 0.0604978 0.241983
vn -0.968393 0.0604978 0.241983
vn -0.968393 0.0604978 0.241983
vn -0.968393 0.0604978 0.241983
vn -0.968393 0.0604978 0.241983
vn 0.661245 -0.0529001 -0.748303
vn -0.968393 0.0604978 0.241983
vn -0.968393 0.0604978 0.241983
vn -0.968393 0.0604978 0.241983
vn -0.968393 0.0604978 0.241983
vn -0.968393 0.0604978 0.241983
vn -0.190446 -0.569829 0.799391
vn -0.190446 -0.569829 0.799391
vn -0.190446 -0.569829 0.799391
vn -0.190446 -0.569829 0.799391
vn -0.190446 -0.569829 0.799391
vn -0.190446 -0.569829 0.799391
vn 0.83997 0.5406 0.0469344
vn 0.908687 0.086987 -0.408316
vn 0.908687 0.086987 -0.408316
vn 0.908687 0.086987 -0.408316
vn 0.810592 -0.0119227 -0.58549
vn 0.810592 -0.0119227 -0.58549
vn 0.810592 -0.0119227 -0.58549
vn 0.810592 -0.0119227 -0.58549
vn 0.633299 -0.00355283 -0.773899
vn 0.633299 -0.00355283 -0.773899
vn 0.633299 -0.00355283 -0.773899
vn 0.633299 -0.00355283 -0.773899
vn 0.633299 -0.00355283 -0.773899
vn -0.190446 -0.569829 0.799391
vn 0.167264 0.980545 -0.102732
vn -0.968393 0.0604978 0.241983
vn -0.968393 0.0604978 0.241983
vn -0.968393 0.0604978 0.241983
f 1/1/1 2/2/2 3/3/3 
f 4/4/4 5/5/5 6/6/6 
f 4/4/4 7/7/7 5/5/5 
f 8/8/8 9/9/9 10/10/10 
f 11/11/11 12/12/12 13/13/13 
f 14/14/14 12/12/12 11/11/11 
f 14/14/14 15/15/15 12/12/12 
f 16/16/16 17/17/17 18/18/18 
f 19/19/19 20/20/20 21/21/21 
f 22/22/22 23/23/23 24/24/24 
f 18/18/18 17/17/17 25/25/25 
f 17/17/17 26/26/26 25/25/25 
f 17/17/17 27/27/27 26/26/26 
f 17/17/17 28/28/28 27/27/27 
f 17/17/17 29/29/29 28/28/28 
f 30/30/30 29/29/29 17/17/17 
f 30/30/30 31/31/31 29/29/29 
f 32/32/32 31/31/31 30/30/30 
f 32/32/32 33/33/33 31/31/31 
f 34/34/34 33/33/33 32/32/32 
f 34/34/34 35/35/35 33/33/33 
f 36/36/36 35/35/35 34/34/34 
f 37/37/37 38/38/38 39/39/39 
f 40/40/40 38/38/38 37/37/37 
f 38/38/38 40/40/40 41/41/41 
f 42/42/42 43/43/43 44/44/44 
f 45/45/45 43/43/43 42/42/42 
f 45/45/45 46/46/46 43/43/43 
f 45/45/45 47/47/47 46/46/46 
f 45/45/45 48/48/48 47/47/47 
f 49/49/49 48/48/48 45/45/45 
f 48/48/48 49/49/49 50/50/50 
f 48/48/48 50/50/50 23/23/23 
f 24/24/24 23/23/23 50/50/50 
f 12/12/12 15/15/15 51/51/51 
f 52/52/52 45/45/45 42/42/42 
f 53/53/53 45/45/45 52/52/52 
f 53/53/53 54/54/54 45/45/45 
f 55/55/55 54/54/54 53/53/53 
f 55/55/55 56/56/56 54/54/54 
f 57/57/57 58/58/58 59/59/59 
f 60/60/60 58/58/58 57/57/57 
f 61/61/61 58/58/58 60/60/60 
f 61/61/61 40/40/40 58/58/58 
f 41/41/41 40/40/40 61/61/61 
f 62/62/62 58/58/58 40/40/40 
f 63/63/63 1/1/1 3/3/3 
f 64/64/64 65/65/65 66/66/66 
f 67/67/67 68/68/68 69/69/69 
f 70/70/70 68/68/68 67/67/67 
f 71/71/71 72/72/72 73/73/73 
f 71/71/71 73/73/73 74/74/74 
f 75/75/75 71/71/71 74/74/74 
f 59/59/59 58/58/58 76/76/76 
f 6/6/6 5/5/5 77/77/77 
f 44/44/44 43/43/43 78/78/78 
f 79/79/79 44/44/44 78/78/78 
f 80/80/80 44/44/44 79/79/79 
