v 1.2901 1.39135 0.127528
v 1.3656 1.1193 0.2376
v 1.24179 1.36475 0.0611944
v 1.3656 1.1193 0.2376
v 1.2901 1.39135 0.127528
v 1.3832 1.34601 0.325062
v 1.40475 1.02927 0.704747
v 1.3656 1.1193 0.2376
v 1.3832 1.34601 0.325062
v 1.40315 0.983512 0.708315
v 1.40315 0.983512 0.708315
v 1.4155 1.0043 0.5628
v 1.3656 1.1193 0.2376
v 1.41149 0.975782 0.709926
v 1.41149 0.975782 0.709926
v 1.44978 0.830437 0.715298
v 1.4155 1.0043 0.5628
v 1.44548 0.843797 0.724738
v 1.41149 0.975782 0.709926
v 1.34371 0.89868 0.70832
v 1.44548 0.843796 0.724738
v 1.33526 0.903234 0.706958
v 1.40315 0.983512 0.708315
v 1.16027 0.997603 0.678728
v 1.12893 1.01451 0.673671
v 1.12893 1.01451 0.673671
v 1.02838 1.03745 0.628731
v 1.16027 0.997603 0.678728
v 1.12095 1.01881 0.672384
v 1.12095 1.01881 0.672384
v 1.40529 1.04459 0.703552
v 1.02838 1.03745 0.628732
v 1.40529 1.04459 0.703552
v 1.12095 1.01881 0.672384
v 1.40475 1.02927 0.704747
v 1.40529 1.04459 0.703552
v 1.3832 1.34601 0.325062
v 1.00153 1.0511 0.60585
v 1.01287 1.04057 0.621421
v 1.01287 1.04057 0.621421
v 1.03715 1.00091 0.600948
v 1.13106 0.847491 0.521746
v 1.17098 0.782283 0.488083
v 1.17452 0.776502 0.485099
v 1.19099 0.749596 0.471209
v 1.33526 0.903234 0.706958
v 1.21591 0.708895 0.450197
v 1.22222 0.698582 0.444874
v 1.22707 0.690651 0.440779
v 1.34371 0.89868 0.70832
v 1.22747 0.69 0.440443
v 1.47641 0.727437 0.638219
v 1.2348 0.678035 0.434266
v 1.47641 0.727437 0.638219
v 1.2348 0.678035 0.434266
v 1.21415 0.699994 0.414667
v 1.4155 1.0043 0.5628
v 1.48256 0.728693 0.643404
v 1.48256 0.728693 0.643404
v 1.44978 0.830437 0.715298
v 1.48256 0.728693 0.643404
v 1.44548 0.843796 0.724738
v 1.20096 0.714025 0.402143
v 1.4155 1.0043 0.5628
v 1.20096 0.714025 0.402143
v 1.20895 0.788573 0.241852
v 1.20895 0.788573 0.241852
v 1.3656 1.1193 0.2376
v 1.4155 1.0043 0.5628
v 1.20697 0.846341 0.150101
v 1.3656 1.1193 0.2376
v 1.20697 0.846341 0.150101
v 1.2307 1.008 0.0387999
v 1.19714 1.04842 -0.00564668
v 1.3656 1.1193 0.2376
v 1.2307 1.008 0.0387999
v 1.18835 1.17322 -0.00890017
v 1.18784 1.20565 -0.0102673
v 1.18835 1.17322 -0.00890017
v 1.18641 1.29598 -0.0140751
v 1.20028 1.34189 0.00419465
v 1.20028 1.34189 0.00419462
v 1.20314 1.36338 0.26355
v 1.24179 1.36475 0.0611944
v 1.18702 1.33597 0.00377351
v 1.12203 1.30718 0.00431451
v 1.12958 1.31034 0.00194937
v 1.12203 1.30718 0.00431469
v 1.12958 1.31034 0.00194937
v 1.18784 1.20565 -0.0102671
v 1.18835 1.17322 -0.00889993
v 0.940375 1.15717 0.0646966
v 0.924793 1.20625 0.0669779
v 0.922868 1.21232 0.0672597
v 0.919683 1.22235 0.067726
v 0.919683 1.22235 0.0677258
v 0.908062 1.21935 0.0953344
v 0.879081 1.21186 0.164181
v 0.859595 1.20683 0.210472
v 0.866513 1.21134 0.228954
v 0.912035 1.24102 0.350586
v 0.895876 1.17106 0.433717
v 1.20314 1.36338 0.26355
v 0.912035 1.24102 0.350586
v 0.936175 1.11181 0.516101
v 0.891726 1.15309 0.455064
v 0.891726 1.15309 0.455064
v 1.02189 0.877759 0.14813
v 0.936175 1.11181 0.516101
v 0.886239 1.15334 0.432276
v 1.01936 0.880193 0.144901
v 0.886196 1.15334 0.432096
v 0.848401 1.15503 0.275128
v 0.93348 1.00784 0.177567
v 0.847441 1.15508 0.271138
v 0.933481 1.00784 0.177567
v 0.847441 1.15508 0.271138
v 0.856712 1.19455 0.224865
v 0.978022 1.03857 0.0591847
v 0.857562 1.19817 0.220622
v 0.879081 1.21186 0.164181
v 0.859595 1.20683 0.210472
v 0.857562 1.19817 0.220622
v 0.866513 1.21134 0.228954
v 0.859595 1.20683 0.210472
v 0.856712 1.19455 0.224865
v 0.847441 1.15508 0.271138
v 0.848401 1.15503 0.275128
v 0.912035 1.24102 0.350586
v 0.886196 1.15334 0.432096
v 0.895876 1.17106 0.433717
v 0.886239 1.15334 0.432276
v 0.891726 1.15309 0.455064
v 0.940375 1.15717 0.0646966
v 0.978022 1.03857 0.0591846
v 0.994011 0.988197 0.0568436
v 1.00491 0.953861 0.0552479
v 1.16581 0.970559 0.0072003
v 1.00773 0.944987 0.0548354
v 1.00334 0.924914 0.0776455
v 1.00491 0.953861 0.0552479
v 1.00773 0.944987 0.0548355
v 0.994011 0.988197 0.0568437
v 1.00096 0.920009 0.0860991
v 0.999346 0.916675 0.0918459
v 0.993638 0.904897 0.112143
v 0.993638 0.904897 0.112143
v 0.993638 0.904897 0.112143
v 1.19401 0.905343 0.0592398
v 1.01936 0.880193 0.144901
v 0.999346 0.916675 0.0918458
v 1.00096 0.920009 0.086099
v 1.15408 0.941426 0.012007
v 1.19401 0.905343 0.0592397
v 1.15408 0.941426 0.012007
v 1.16581 0.970559 0.00720012
v 1.2307 1.008 0.0387999
v 1.19401 0.905343 0.0592397
v 1.20697 0.846341 0.150101
v 1.02189 0.877759 0.14813
v 1.07531 0.826453 0.216161
v 1.07531 0.826453 0.216161
v 1.0775 0.824349 0.218952
v 1.13106 0.847491 0.521746
v 1.03715 1.00091 0.600948
v 0.985234 1.06624 0.583469
v 0.985234 1.06624 0.583469
v 0.99021 1.06162 0.590301
v 1.00153 1.0511 0.60585
v 0.99021 1.06162 0.590301
v 1.01287 1.04057 0.621421
v 1.33149 1.41733 0.225176
v 1.33149 1.41733 0.225176
v 1.2901 1.39135 0.127528
v 1.33149 1.41733 0.225176
v 1.17098 0.782283 0.488083
v 1.19234 0.714049 0.365211
v 1.17452 0.776502 0.485099
v 1.20096 0.714025 0.402143
v 1.19099 0.749596 0.471209
v 1.2159 0.708895 0.450197
v 1.21415 0.699994 0.414667
v 1.22222 0.698582 0.444873
v 1.22707 0.690651 0.440779
v 1.22747 0.69 0.440443
v 1.2348 0.678035 0.434266
v 1.19234 0.714049 0.365211
v 1.0775 0.824349 0.218952
v 1.20895 0.788573 0.241853
v 1.19234 0.714049 0.365211
v 1.19714 1.04842 -0.00564668
v 1.19714 1.04842 -0.00564647
v 1.00984 0.938329 0.054526
v 1.15408 0.941426 0.0120071
v 1.00984 0.938329 0.0545258
v 1.00334 0.924914 0.0776454
v 1.00984 0.938329 0.0545258
v 0.908062 1.21935 0.0953345
v 0.924793 1.20625 0.066978
v 0.922868 1.21232 0.0672598
v 0.919683 1.22235 0.0677261
v 1.18641 1.29598 -0.0140749
v 1.18641 1.29598 -0.0140749
v 1.12958 1.31034 0.00194952
v 1.18702 1.33597 0.00377366
v 1.20028 1.34189 0.00419483
vt 0.822424 0.818155
vt 0.8111 0.787
vt 0.832407 0.81537
vt 0.8111 0.787
vt 0.822424 0.818155
vt 0.801457 0.810673
vt 0.754776 0.781004
vt 0.8111 0.787
vt 0.801457 0.810673
vt 0.754179 0.77637
vt 0.754179 0.77637
vt 0.7753 0.7769
vt 0.8111 0.787
vt 0.755193 0.775389
vt 0.755193 0.775389
vt 0.753536 0.760193
vt 0.7753 0.7769
vt 0.752343 0.76169
vt 0.928598 1.48446
vt 0.851241 1.41695
vt 0.796175 1.51994
vt 0.85581 1.4084
vt 0.936354 1.47598
vt 0.950492 1.23131
vt 0.967452 1.19959
vt -0.933709 1.20292
vt -0.822021 1.18943
vt -0.968526 1.19389
vt -0.924847 1.20522
vt -1.27797 0.116434
vt -1.56506 0.108365
vt -1.18451 0.162112
vt 0.997635 1.47755
vt 0.971768 1.19152
vt 0.98226 1.47716
vt 0.754976 0.782556
vt -1.54276 0.592201
vt -1.15741 0.188493
vt -1.16885 0.169761
vt -0.8048 1.18678
vt -0.831766 1.14373
vt -0.936085 0.977146
vt -0.980423 0.906346
vt -0.984354 0.900069
vt -1.00265 0.870856
vt -1.1629 1.14346
vt -1.03032 0.826663
vt -1.03734 0.815466
vt -1.04273 0.806855
vt -1.17228 1.14103
vt -1.04317 0.806147
vt -1.31969 0.967477
vt -1.05131 0.793157
vt 0.763518 0.74856
vt 0.798774 0.739341
vt 0.802049 0.741328
vt 0.7753 0.7769
vt 0.762621 0.748795
vt -1.32651 0.97191
vt -1.29011 1.09548
vt 0.762621 0.748795
vt -1.28533 1.1117
vt 0.804141 0.742597
vt 0.7753 0.7769
vt 0.804141 0.742597
vt 0.820434 0.751099
vt 0.820434 0.751099
vt 0.8111 0.787
vt 0.7753 0.7769
vt 0.829781 0.7567
vt 0.8111 0.787
vt 0.829781 0.7567
vt 0.8384 0.7766
vt 0.844747 0.781023
vt 0.8111 0.787
vt 0.8384 0.7766
vt 0.845665 0.793936
vt 0.845324 0.797611
vt 0.845665 0.793936
vt 0.844374 0.807845
vt 0.840985 0.812976
vt 0.0568029 -1.64134
vt 0.316817 -1.65267
vt 0.113947 -1.68855
vt 0.0563807 -1.62682
vt 0.0569231 -1.55573
vt 0.054552 -1.56392
vt 1.2915 -1.07533
vt 1.29467 -1.08323
vt 1.18987 -1.14257
vt 1.1574 -1.14268
vt 1.14134 -0.884013
vt 1.19047 -0.86842
vt 1.19654 -0.866494
vt 1.20659 -0.863307
vt 0.120495 -1.33637
vt 0.148174 -1.32453
vt 0.217195 -1.295
vt 0.263604 -1.27515
vt 0.282133 -1.2833
vt 0.404074 -1.33695
vt -1.05073 0.397783
vt -1.36096 0.650985
vt -1.06704 0.506414
vt -1.09142 0.29646
vt -1.04654 0.369887
vt 0.705876 -0.403406
vt 0.393571 -0.104365
vt 0.767981 -0.343836
vt 0.682689 -0.406847
vt 0.390286 -0.107827
vt 0.682506 -0.406874
vt 0.522791 -0.430573
vt 0.423523 -0.261552
vt 0.518731 -0.431175
vt 0.732323 -0.223575
vt 0.884828 -0.102833
vt 0.925712 -0.148806
vt 0.764147 -0.349787
vt 0.929461 -0.153021
vt 0.943644 -0.213313
vt 0.93843 -0.163106
vt 0.259001 -1.45928
vt 0.267529 -1.4751
vt 0.248611 -1.4679
vt 0.263344 -1.45568
vt 0.310706 -1.41641
vt 0.31479 -1.41682
vt 0.392026 -1.52252
vt 0.475455 -1.43286
vt 0.477114 -1.45304
vt 0.475639 -1.43288
vt 0.498964 -1.4352
vt 0.886991 -0.329227
vt 1.02262 -0.921688
vt 0.972197 -0.937688
vt 0.937827 -0.948596
vt 0.954541 -1.11651
vt 0.928943 -0.951415
vt 0.646427 -0.343422
vt 0.67641 -0.364471
vt 0.667218 -0.366009
vt 0.711974 -0.358519
vt 0.641346 -0.334741
vt 0.637892 -0.32884
vt 0.625693 -0.307996
vt 0.356955 -0.142955
vt -0.871114 -0.385146
vt -1.07339 -0.430223
vt -0.897079 -0.344272
vt -0.876876 -0.4086
vt -0.878507 -0.41524
vt -1.03308 -0.489404
vt 0.838989 0.764565
vt 0.84602 0.768448
vt 0.845673 0.771872
vt 0.8384 0.7766
vt 0.838989 0.764565
vt -1.08648 -0.3219
vt -0.899638 -0.340243
vt -0.953562 -0.255355
vt 0.462793 -0.0314113
vt 0.465633 -0.0284183
vt 0.773724 -0.0154417
vt 0.854312 -0.194709
vt 0.836527 -0.278087
vt -1.14095 0.215417
vt -1.14597 0.207198
vt 0.8593 -0.256244
vt 0.843479 -0.271419
vt 0.875143 -0.241048
vt -1.49055 0.714727
vt 0.811989 0.819749
vt 0.180449 -1.74349
vt 0.278346 -1.79187
vt 0.739473 0.0607516
vt 0.614451 0.128422
vt 0.736436 0.0675067
vt 0.652029 0.133533
vt 0.722303 0.0989453
vt 0.700924 0.146503
vt 0.664772 0.152648
vt 0.695507 0.158554
vt 0.691341 0.167821
vt 0.690999 0.168582
vt 0.684714 0.182563
vt 0.808483 0.742544
vt -0.955775 -0.251873
vt -1.08848 -0.213478
vt -1.07171 -0.0693736
vt 0.844747 0.781023
vt 1.03248 -1.1502
vt 0.922279 -0.95353
vt 0.925379 -1.10391
vt 0.660321 -0.367164
vt -0.880907 -0.425008
vt -0.88747 -0.451723
vt 0.951399 -0.287983
vt 0.937835 -0.320717
vt 0.944116 -0.319666
vt 0.954509 -0.317927
vt 1.28029 -1.14228
vt -1.25525 -1.17654
vt -1.19774 -1.1962
vt -1.25586 -1.22033
vt -1.26928 -1.2259
vn 0.810592 -0.0119227 -0.58549
vn 0.810592 -0.0119227 -0.58549
vn 0.810592 -0.0119227 -0.58549
vn 0.908687 0.086987 -0.408316
vn 0.908687 0.086987 -0.408316
vn 0.908687 0.086987 -0.408316
vn 0.994925 -0.0419471 -0.0914627
vn 0.994925 -0.0419471 -0.0914627
vn 0.994925 -0.0419471 -0.0914627
vn 0.994925 -0.0419471 -0.0914627
vn 0.653807 0.739309 0.161118
vn 0.653807 0.739308 0.161118
vn 0.653807 0.739309 0.161118
vn 0.653807 0.739309 0.161118
vn 0.96351 0.256658 0.0759999
vn 0.96351 0.256658 0.0759999
vn 0.96351 0.256658 0.0759999
vn 0.96351 0.256658 0.0759999
vn -0.115879 0.0812502 0.989935
vn -0.115879 0.0812502 0.989935
vn -0.115879 0.0812502 0.989935
vn -0.115879 0.0812502 0.989935
vn -0.115879 0.0812502 0.989935
vn -0.115879 0.0812502 0.989935
vn -0.115879 0.0812502 0.989935
vn -0.435315 -0.60884 0.663185
vn -0.435315 -0.60884 0.663185
vn -0.435315 -0.60884 0.663185
vn -0.435315 -0.60884 0.663185
vn -0.138062 0.770822 0.62191
vn -0.138062 0.770822 0.62191
vn -0.138062 0.770822 0.62191
vn -0.115879 0.0812502 0.989935
vn -0.115879 0.0812502 0.989935
vn -0.115879 0.0812502 0.989935
vn 0.994925 -0.0419471 -0.0914627
vn -0.138062 0.770822 0.62191
vn -0.138062 0.770822 0.62191
vn -0.138062 0.770822 0.62191
vn -0.435315 -0.60884 0.663185
vn -0.435315 -0.60884 0.663185
vn -0.435315 -0.60884 0.663185
vn -0.435315 -0.60884 0.663185
vn -0.435315 -0.60884 0.663185
vn -0.435315 -0.60884 0.663185
vn -0.435315 -0.60884 0.663185
vn -0.435315 -0.60884 0.663185
vn -0.435315 -0.60884 0.663185
vn -0.435315 -0.60884 0.663185
vn -0.435315 -0.60884 0.663185
vn -0.435315 -0.60884 0.663185
vn -0.435315 -0.60884 0.663185
vn -0.435315 -0.60884 0.663185
vn 0.651221 -0.0627374 -0.756291
vn 0.651221 -0.0627374 -0.756291
vn 0.651221 -0.0627374 -0.756291
vn 0.651221 -0.0627374 -0.756291
vn 0.651221 -0.0627374 -0.756291
vn -0.435315 -0.60884 0.663185
vn -0.435315 -0.60884 0.663185
vn 0.96351 0.256658 0.0759999
vn -0.435315 -0.60884 0.663185
vn 0.651221 -0.0627374 -0.756291
vn 0.837292 -0.510541 -0.195679
vn 0.837292 -0.510542 -0.195679
vn 0.837292 -0.510541 -0.195679
vn 0.866385 -0.41395 -0.279326
vn 0.866385 -0.41395 -0.279326
vn 0.866385 -0.41395 -0.279326
vn 0.866385 -0.41395 -0.279326
vn 0.850737 -0.377003 -0.366217
vn 0.850737 -0.377003 -0.366217
vn 0.850737 -0.377003 -0.366217
vn 0.815532 0.0424335 -0.577154
vn 0.815532 0.0424335 -0.577154
vn 0.815532 0.0424335 -0.577154
vn 0.815532 0.0424335 -0.577154
vn 0.810592 -0.0119227 -0.58549
vn 0.810592 -0.0119227 -0.58549
vn 0.810592 -0.0119227 -0.58549
vn 0.810592 -0.0119227 -0.58549
vn -0.404511 0.911763 -0.0711232
vn -0.404511 0.911763 -0.0711232
vn -0.404511 0.911763 -0.0711232
vn -0.404511 0.911763 -0.0711232
vn -0.404511 0.911763 -0.0711232
vn -0.404511 0.911763 -0.0711232
vn -0.281573 -0.0448338 -0.958492
vn -0.281573 -0.0448338 -0.958492
vn -0.281573 -0.0448338 -0.958492
vn -0.281573 -0.0448338 -0.958492
vn -0.281573 -0.0448338 -0.958492
vn -0.281573 -0.0448338 -0.958492
vn -0.281573 -0.0448338 -0.958492
vn -0.281573 -0.0448338 -0.958492
vn -0.404511 0.911763 -0.0711232
vn -0.404511 0.911763 -0.0711232
vn -0.404511 0.911763 -0.0711232
vn -0.404511 0.911763 -0.0711232
vn -0.404511 0.911763 -0.0711232
vn -0.404511 0.911763 -0.0711232
vn -0.138062 0.770822 0.62191
vn -0.138062 0.770822 0.62191
vn -0.138062 0.770822 0.62191
vn -0.138062 0.770822 0.62191
vn -0.138062 0.770822 0.62191
vn -0.792906 -0.580696 0.184643
vn -0.792906 -0.580696 0.184643
vn -0.792906 -0.580696 0.184643
vn -0.792906 -0.580696 0.184643
vn -0.792906 -0.580696 0.184643
vn -0.792906 -0.580696 0.184643
vn -0.792906 -0.580696 0.184643
vn -0.792906 -0.580696 0.184643
vn -0.792906 -0.580696 0.184643
vn -0.879361 -0.260616 -0.398502
vn -0.879361 -0.260616 -0.398502
vn -0.879361 -0.260616 -0.398502
vn -0.879361 -0.260616 -0.398502
vn -0.879361 -0.260616 -0.398502
vn -0.879361 -0.260616 -0.398502
vn -0.879361 -0.260616 -0.398502
vn -0.865465 0.453302 0.21328
vn -0.865465 0.453302 0.21328
vn -0.865465 0.453302 0.21328
vn -0.865465 0.453302 0.21328
vn -0.865465 0.453302 0.21328
vn -0.865465 0.453302 0.21328
vn -0.865465 0.453302 0.21328
vn -0.865465 0.453302 0.21328
vn -0.865465 0.453302 0.21328
vn -0.865465 0.453302 0.21328
vn -0.865465 0.453302 0.21328
vn -0.879361 -0.260616 -0.398502
vn -0.281573 -0.0448338 -0.958492
vn -0.281573 -0.0448338 -0.958492
vn -0.281573 -0.0448338 -0.958492
vn -0.281573 -0.0448338 -0.958492
vn -0.281573 -0.0448338 -0.958492
vn -0.879361 -0.260616 -0.398502
vn -0.879361 -0.260616 -0.398502
vn -0.879361 -0.260616 -0.398502
vn -0.879361 -0.260616 -0.398502
vn -0.879361 -0.260616 -0.398502
vn -0.879361 -0.260616 -0.398502
vn -0.879361 -0.260616 -0.398502
vn -0.792906 -0.580696 0.184643
vn -0.136924 -0.839599 -0.525666
vn -0.136924 -0.839599 -0.525666
vn -0.136924 -0.839599 -0.525666
vn -0.136924 -0.839599 -0.525666
vn -0.136924 -0.839599 -0.525666
vn -0.136924 -0.839599 -0.525666
vn 0.565782 -0.350808 -0.746207
vn 0.565782 -0.350808 -0.746207
vn 0.565782 -0.350808 -0.746207
vn 0.565782 -0.350808 -0.746207
vn 0.850737 -0.377003 -0.366217
vn -0.136924 -0.839599 -0.525666
vn -0.136924 -0.839599 -0.525666
vn -0.136924 -0.839599 -0.525666
vn -0.792906 -0.580696 0.184643
vn -0.792906 -0.580696 0.184643
vn -0.792906 -0.580696 0.184643
vn -0.792906 -0.580696 0.184643
vn -0.792906 -0.580696 0.184643
vn -0.138062 0.770822 0.62191
vn -0.138062 0.770822 0.62191
vn -0.792906 -0.580696 0.184643
vn -0.792906 -0.580696 0.184643
vn -0.792906 -0.580696 0.184643
vn -0.138062 0.770822 0.62191
vn 0.908687 0.086987 -0.408316
vn -0.404511 0.911763 -0.0711232
vn -0.404511 0.911763 -0.0711232
vn -0.792906 -0.580696 0.184643
vn -0.792906 -0.580696 0.184643
vn -0.792906 -0.580696 0.184643
vn -0.792906 -0.580696 0.184643
vn -0.792906 -0.580696 0.184643
vn -0.792906 -0.580696 0.184643
vn -0.792906 -0.580696 0.184643
vn -0.792906 -0.580696 0.184643
vn -0.792906 -0.580696 0.184643
vn -0.792906 -0.580696 0.184643
vn -0.792906 -0.580696 0.184643
vn 0.837292 -0.510542 -0.195679
vn -0.136924 -0.839599 -0.525666
vn -0.136924 -0.839599 -0.525666
vn -0.136924 -0.839599 -0.525666
vn 0.565782 -0.350808 -0.746207
vn -0.281573 -0.0448338 -0.958492
vn -0.281573 -0.0448338 -0.958492
vn -0.281573 -0.0448338 -0.958492
vn -0.879361 -0.260616 -0.398502
vn -0.136924 -0.839599 -0.525666
vn -0.136924 -0.839599 -0.525666
vn -0.879361 -0.260616 -0.398502
vn -0.879361 -0.260616 -0.398502
vn -0.879361 -0.260616 -0.398502
vn -0.879361 -0.260616 -0.398502
vn -0.281573 -0.0448338 -0.958492
vn -0.151965 0.404806 -0.901687
vn -0.151965 0.404806 -0.901687
vn -0.151965 0.404806 -0.901687
vn -0.151965 0.404806 -0.901687
f 1/1/1 2/2/2 3/3/3 
f 4/4/4 5/5/5 6/6/6 
f 7/7/7 8/8/8 9/9/9 
f 10/10/10 8/8/8 7/7/7 
f 11/11/11 12/12/12 13/13/13 
f 14/14/14 12/12/12 11/11/11 
f 15/15/15 16/16/16 17/17/17 
f 15/15/15 18/18/18 16/16/16 
f 19/19/19 20/20/20 21/21/21 
f 19/19/19 22/22/22 20/20/20 
f 23/23/23 22/22/22 19/19/19 
f 23/23/23 24/24/24 22/22/22 
f 24/24/24 23/23/23 25/25/25 
f 26/26/26 27/27/27 28/28/28 
f 29/29/29 27/27/27 26/26/26 
f 30/30/30 31/31/31 32/32/32 
f 33/33/33 34/34/34 35/35/35 
f 7/7/7 9/9/9 36/36/36 
f 32/32/32 31/31/31 37/37/37 
f 38/38/38 32/32/32 37/37/37 
f 39/39/39 32/32/32 38/38/38 
f 27/27/27 40/40/40 41/41/41 
f 41/41/41 28/28/28 27/27/27 
f 42/42/42 28/28/28 41/41/41 
f 28/28/28 42/42/42 43/43/43 
f 44/44/44 28/28/28 43/43/43 
f 45/45/45 28/28/28 44/44/44 
f 45/45/45 46/46/46 28/28/28 
f 47/47/47 46/46/46 45/45/45 
f 46/46/46 47/47/47 48/48/48 
f 46/46/46 48/48/48 49/49/49 
f 46/46/46 49/49/49 50/50/50 
f 50/50/50 49/49/49 51/51/51 
f 51/51/51 52/52/52 50/50/50 
f 53/53/53 52/52/52 51/51/51 
f 54/54/54 55/55/55 56/56/56 
f 54/54/54 56/56/56 57/57/57 
f 54/54/54 57/57/57 58/58/58 
f 59/59/59 60/60/60 52/52/52 
f 17/17/17 16/16/16 61/61/61 
f 50/50/50 52/52/52 60/60/60 
f 50/50/50 60/60/60 62/62/62 
f 57/57/57 56/56/56 63/63/63 
f 64/64/64 65/65/65 66/66/66 
f 67/67/67 68/68/68 69/69/69 
f 70/70/70 68/68/68 67/67/67 
f 71/71/71 72/72/72 73/73/73 
f 74/74/74 75/75/75 76/76/76 
f 77/77/77 75/75/75 74/74/74 
f 78/78/78 2/2/2 79/79/79 
f 78/78/78 3/3/3 2/2/2 
f 80/80/80 3/3/3 78/78/78 
f 81/81/81 3/3/3 80/80/80 
f 82/82/82 83/83/83 84/84/84 
f 85/85/85 83/83/83 82/82/82 
f 85/85/85 86/86/86 83/83/83 
f 87/87/87 86/86/86 85/85/85 
f 88/88/88 89/89/89 90/90/90 
f 88/88/88 90/90/90 91/91/91 
f 92/92/92 88/88/88 91/91/91 
f 93/93/93 88/88/88 92/92/92 
f 94/94/94 88/88/88 93/93/93 
f 95/95/95 88/88/88 94/94/94 
f 86/86/86 96/96/96 97/97/97 
f 97/97/97 83/83/83 86/86/86 
f 98/98/98 83/83/83 97/97/97 
f 99/99/99 83/83/83 98/98/98 
f 100/100/100 83/83/83 99/99/99 
f 83/83/83 100/100/100 101/101/101 
f 102/102/102 103/103/103 104/104/104 
f 102/102/102 105/105/105 103/103/103 
f 106/106/106 105/105/105 102/102/102 
f 107/107/107 108/108/108 109/109/109 
f 110/110/110 108/108/108 107/107/107 
f 110/110/110 111/111/111 108/108/108 
f 112/112/112 111/111/111 110/110/110 
f 113/113/113 111/111/111 112/112/112 
f 113/113/113 114/114/114 111/111/111 
f 115/115/115 114/114/114 113/113/113 
f 116/116/116 117/117/117 118/118/118 
f 118/118/118 119/119/119 116/116/116 
f 120/120/120 119/119/119 118/118/118 
f 120/120/120 121/121/121 119/119/119 
f 122/122/122 121/121/121 120/120/120 
f 123/123/123 124/124/124 125/125/125 
f 126/126/126 124/124/124 123/123/123 
f 127/127/127 124/124/124 126/126/126 
f 128/128/128 124/124/124 127/127/127 
f 128/128/128 129/129/129 124/124/124 
f 128/128/128 130/130/130 129/129/129 
f 131/131/131 129/129/129 130/130/130 
f 132/132/132 131/131/131 130/130/130 
f 132/132/132 133/133/133 131/131/131 
f 134/134/134 119/119/119 121/121/121 
f 91/91/91 135/135/135 92/92/92 
f 91/91/91 136/136/136 135/135/135 
f 91/91/91 137/137/137 136/136/136 
f 138/138/138 137/137/137 91/91/91 
f 137/137/137 138/138/138 139/139/139 
f 140/140/140 141/141/141 142/142/142 
f 140/140/140 143/143/143 141/141/141 
f 144/144/144 143/143/143 140/140/140 
f 143/143/143 144/144/144 145/145/145 
f 116/116/116 143/143/143 145/145/145 
f 116/116/116 119/119/119 143/143/143 
f 146/146/146 116/116/116 145/145/145 
f 111/111/111 114/114/114 147/147/147 
f 148/148/148 149/149/149 150/150/150 
f 151/151/151 149/149/149 148/148/148 
f 152/152/152 149/149/149 151/151/151 
f 149/149/149 152/152/152 153/153/153 
f 154/154/154 155/155/155 156/156/156 
f 154/154/154 156/156/156 157/157/157 
f 73/73/73 72/72/72 158/158/158 
f 150/150/150 149/149/149 159/159/159 
f 150/150/150 159/159/159 160/160/160 
f 160/160/160 159/159/159 161/161/161 
f 108/108/108 162/162/162 109/109/109 
f 109/109/109 162/162/162 163/163/163 
f 164/164/164 109/109/109 163/163/163 
f 109/109/109 164/164/164 165/165/165 
f 166/166/166 109/109/109 165/165/165 
f 167/167/167 103/103/103 105/105/105 
f 167/167/167 37/37/37 103/103/103 
f 168/168/168 37/37/37 167/167/167 
f 38/38/38 37/37/37 168/168/168 
f 165/165/165 169/169/169 170/170/170 
f 165/165/165 171/171/171 169/169/169 
f 165/165/165 170/170/170 166/166/166 
f 37/37/37 172/172/172 103/103/103 
f 6/6/6 5/5/5 173/173/173 
f 174/174/174 83/83/83 175/175/175 
f 84/84/84 83/83/83 174/174/174 
f 176/176/176 164/164/164 163/163/163 
f 176/176/176 163/163/163 177/177/177 
f 176/176/176 177/177/177 178/178/178 
f 178/178/178 177/177/177 179/179/179 
f 180/180/180 178/178/178 179/179/179 
f 181/181/181 180/180/180 179/179/179 
f 182/182/182 181/181/181 179/179/179 
f 183/183/183 181/181/181 182/182/182 
f 184/184/184 183/183/183 182/182/182 
f 185/185/185 184/184/184 182/182/182 
f 186/186/186 185/185/185 182/182/182 
f 66/66/66 65/65/65 187/187/187 
f 188/188/188 189/189/189 190/190/190 
f 161/161/161 189/189/189 188/188/188 
f 161/161/161 159/159/159 189/189/189 
f 157/157/157 156/156/156 191/191/191 
f 138/138/138 91/91/91 192/192/192 
f 193/193/193 138/138/138 194/194/194 
f 139/139/139 138/138/138 193/193/193 
f 140/140/140 142/142/142 195/195/195 
f 153/153/153 196/196/196 197/197/197 
f 153/153/153 152/152/152 196/196/196 
f 198/198/198 134/134/134 121/121/121 
f 199/199/199 134/134/134 198/198/198 
f 198/198/198 200/200/200 199/199/199 
f 198/198/198 201/201/201 200/200/200 
f 90/90/90 89/89/89 202/202/202 
f 203/203/203 204/204/204 205/205/205 
f 206/206/206 203/203/203 205/205/205 
f 35/35/35 34/34/34 25/25/25 
f 25/25/25 23/23/23 35/35/35 
