v -1.14606 -1.6574 -1.052
v -0.965948 -1.09179 -0.985494
v -1.1364 -1.65879 -1.05547
v -0.965948 -1.09179 -0.985494
v -1.14606 -1.6574 -1.052
v -0.968162 -1.0217 -0.972549
v -0.965948 -1.09179 -0.985494
v -0.968162 -1.0217 -0.972549
v -0.968457 -1.02218 -0.971654
v -0.975672 -1.03402 -0.949749
v -1.01213 -1.09386 -0.839085
v -0.965773 -1.09542 -0.986356
v -0.965773 -1.09542 -0.986356
v -0.945361 -1.51827 -1.08685
v -1.1364 -1.65879 -1.05547
v -0.945361 -1.51827 -1.08685
v -0.961515 -1.67969 -1.04919
v -0.961515 -1.67969 -1.04919
v -0.976503 -1.67533 -1.0083
v -1.1364 -1.65879 -1.05547
v -0.970087 -1.67694 -1.02175
v -0.970087 -1.67694 -1.02175
v -0.961515 -1.67969 -1.04919
v -0.98371 -1.66364 -0.977383
v -0.970087 -1.67694 -1.02175
v -0.98371 -1.66364 -0.977383
v -0.976503 -1.67533 -1.0083
v -0.994634 -1.67076 -0.970269
v -0.984237 -1.66312 -0.975667
v -0.992535 -1.66647 -0.966962
v -0.994712 -1.67074 -0.970106
v -1.14606 -1.6574 -1.052
v -0.994634 -1.67076 -0.970269
v -0.994712 -1.67074 -0.970106
v -1.22467 -1.63955 -0.918394
v -0.996121 -1.67039 -0.967152
v -0.996121 -1.67039 -0.967152
v -1.14447 -1.1469 -0.826239
v -1.22467 -1.63955 -0.918394
v -0.992535 -1.66647 -0.966962
v -0.989154 -1.66278 -0.966783
v -1.00265 -1.30742 -0.887176
v -0.987 -1.66042 -0.966669
v -0.987 -1.66042 -0.966669
v -0.945361 -1.51827 -1.08685
v -1.00265 -1.30742 -0.887176
v -0.984237 -1.66312 -0.975667
v -0.987 -1.66042 -0.966668
v -0.989154 -1.66278 -0.966783
v -1.01213 -1.09386 -0.839085
v -1.14447 -1.1469 -0.826239
v -1.01213 -1.09386 -0.839085
v -0.975672 -1.03402 -0.949749
v -1.21891 -1.12802 -0.934421
v -1.2628 -1.19433 -0.814753
v -1.26883 -1.19675 -0.814168
v -1.26883 -1.19675 -0.814168
v -1.31356 -1.57776 -0.888625
v -1.2628 -1.19433 -0.814753
v -1.32758 -1.22331 -0.80912
v -1.3277 -1.22034 -0.808454
v -1.22678 -1.13142 -0.933075
v -1.3277 -1.22034 -0.808454
v -1.3277 -1.22034 -0.808454
v -1.22678 -1.13142 -0.933075
v -1.32758 -1.22331 -0.80912
v -1.2188 -1.1331 -0.9444
v -1.31356 -1.57776 -0.888625
v -1.2188 -1.1331 -0.9444
v -1.27094 -1.63489 -0.934095
v -1.31356 -1.57776 -0.888625
v -1.15112 -1.65671 -1.0509
v -1.2188 -1.1331 -0.9444
v -1.15087 -1.65675 -1.05096
v -1.15112 -1.65671 -1.0509
v -1.20878 -1.12031 -0.944038
v -1.20878 -1.12031 -0.944038
v -0.968457 -1.02218 -0.971654
v -0.968162 -1.0217 -0.972549
v -1.21465 -1.12287 -0.942989
v -1.2188 -1.1331 -0.9444
v -1.21891 -1.12802 -0.934421
v -1.21465 -1.12287 -0.942989
v -1.2188 -1.1331 -0.9444
v -1.22678 -1.13142 -0.933075
v -1.21891 -1.12802 -0.934421
v -1.20878 -1.12031 -0.944038
v -1.2188 -1.1331 -0.9444
v -1.21465 -1.12287 -0.942989
v -1.15087 -1.65675 -1.05096
v -1.15112 -1.65671 -1.0509
v -1.27094 -1.63489 -0.934095
v -1.27825 -1.63232 -0.906964
v -1.27825 -1.63232 -0.906964
v -1.30451 -1.62877 -0.901361
v -1.30451 -1.62877 -0.901361
v -1.30451 -1.62877 -0.901361
v -0.996121 -1.67039 -0.967152
vt 0.162789 0.188448
vt 0.152019 0.252041
vt 0.161731 0.188187
vt 0.152019 0.252041
vt 0.162789 0.188448
vt 0.15266 0.259544
vt -1.12231 0.649725
vt -1.05219 0.636713
vt -1.05268 0.63577
vt -1.06452 0.61271
vt -1.12438 0.496206
vt -1.12594 0.650599
vt 0.151946 0.25162
vt 0.143362 0.202468
vt 0.161731 0.188187
vt 0.143362 0.202468
vt 0.147728 0.182926
vt -1.15679 -0.751528
vt -1.11581 -0.766933
vt -1.16308 -0.927654
vt -1.12929 -0.760368
vt -1.70765 0.683062
vt -1.71039 0.711813
vt -1.69434 0.636651
vt -1.11478 -1.88531
vt -1.0665 -1.88499
vt -1.10014 -1.88854
vt -1.05876 -1.89767
vt -1.06463 -1.88498
vt -1.05516 -1.89311
vt -1.05858 -1.89771
vt -1.1596 -0.937418
vt -1.07772 -0.785483
vt -1.07755 -0.785563
vt -1.02574 -1.0176
vt -1.07459 -0.787004
vt 0.87579 -1.83751
vt 1.02652 -1.29605
vt 1.10801 -1.79703
vt 0.872147 -1.83364
vt 0.868711 -1.82999
vt 0.882428 -1.46584
vt 0.866523 -1.82767
vt -1.69112 0.625444
vt -1.54893 0.752581
vt -1.33801 0.544921
vt -1.69382 0.634857
vt -1.05484 -1.88491
vt -1.05496 -1.8881
vt 0.892051 -1.24694
vt 1.51992 0.315137
vt 1.38049 0.347602
vt 1.34209 0.472824
vt 1.59834 0.422147
vt 1.64459 0.286109
vt 1.65093 0.284632
vt 1.15287 -1.3422
vt 1.19833 -1.73034
vt 1.14675 -1.33996
vt 1.21257 -1.36709
vt 1.21269 -1.36404
vt 1.60663 0.419584
vt 1.71295 0.270191
vt 0.188525 0.233304
vt 0.173425 0.243732
vt 0.18846 0.233014
vt 0.1721 0.2437
vt 0.180794 0.198425
vt 0.1721 0.2437
vt 0.176061 0.192014
vt 0.180794 0.198425
vt 0.1632 0.188444
vt 0.1721 0.2437
vt 0.16318 0.188444
vt 0.1632 0.188444
vt 0.171377 0.245229
vt 1.58767 0.434002
vt 1.33449 0.49761
vt 1.33418 0.498623
vt 1.59386 0.432043
vt 0.1721 0.2437
vt 0.173037 0.244367
vt 0.17199 0.244822
vt 0.1721 0.2437
vt 0.173425 0.243732
vt 0.173037 0.244367
vt 0.171377 0.245229
vt 0.1721 0.2437
vt 0.17199 0.244822
vt -1.15856 -0.942266
vt -1.1585 -0.942523
vt -1.04147 -1.0641
vt -1.01429 -1.07166
vt 1.16244 -1.78754
vt 1.18913 -1.78289
vt 0.179665 0.193015
vt -1.00868 -1.09817
vt -1.05537 -1.89842
vn -0.304483 0.206296 -0.92991
vn -0.304483 0.206296 -0.92991
vn -0.304483 0.206296 -0.92991
vn -0.185442 0.172789 -0.967344
vn -0.185442 0.172789 -0.967344
vn -0.185442 0.172789 -0.967344
vn 0.953487 -0.0253554 0.300368
vn 0.953487 -0.0253554 0.300368
vn 0.953487 -0.0253554 0.300368
vn 0.953487 -0.0253554 0.300368
vn 0.953487 -0.0253554 0.300368
vn 0.953487 -0.0253554 0.300368
vn -0.304483 0.206296 -0.92991
vn -0.304483 0.206296 -0.92991
vn 0.0077022 -0.227902 -0.973654
vn 0.0077022 -0.227902 -0.973654
vn 0.0077022 -0.227902 -0.973654
vn -0.120594 -0.990799 0.0614378
vn -0.120594 -0.990799 0.0614378
vn -0.120594 -0.990799 0.0614378
vn -0.120594 -0.990799 0.0614378
vn 0.953487 -0.0253554 0.300368
vn 0.953487 -0.0253554 0.300368
vn 0.953487 -0.0253554 0.300368
vn 0.668195 -0.630881 0.394342
vn 0.668195 -0.630881 0.394342
vn 0.668195 -0.630881 0.394342
vn 0.668195 -0.630881 0.394342
vn 0.668195 -0.630881 0.394342
vn 0.668195 -0.630881 0.394342
vn 0.668195 -0.630881 0.394342
vn -0.120594 -0.990799 0.0614378
vn -0.120594 -0.990799 0.0614378
vn -0.120594 -0.990799 0.0614378
vn -0.120594 -0.990799 0.0614378
vn -0.120594 -0.990799 0.0614378
vn 0.177023 -0.20874 0.961816
vn 0.177023 -0.20874 0.961816
vn 0.177023 -0.20874 0.961816
vn 0.177023 -0.20874 0.961816
vn 0.177023 -0.20874 0.961816
vn 0.177023 -0.20874 0.961816
vn 0.177023 -0.20874 0.961816
vn 0.953487 -0.0253554 0.300368
vn 0.953487 -0.0253554 0.300368
vn 0.953487 -0.0253554 0.300368
vn 0.953487 -0.0253554 0.300368
vn 0.668195 -0.630881 0.394342
vn 0.668195 -0.630881 0.394342
vn 0.177023 -0.20874 0.961816
vn -0.314661 0.874475 0.369164
vn -0.314661 0.874475 0.369164
vn -0.314661 0.874475 0.369164
vn -0.314661 0.874475 0.369164
vn -0.314661 0.874475 0.369164
vn -0.314661 0.874475 0.369164
vn 0.177023 -0.20874 0.961816
vn 0.177023 -0.20874 0.961816
vn 0.177023 -0.20874 0.961816
vn 0.177023 -0.20874 0.961816
vn 0.177023 -0.20874 0.961816
vn -0.314661 0.874475 0.369164
vn -0.314661 0.874475 0.369164
vn -0.80664 0.0988143 -0.582725
vn -0.80664 0.0988143 -0.582725
vn -0.80664 0.0988143 -0.582725
vn -0.80664 0.0988143 -0.582725
vn -0.80664 0.0988143 -0.582725
vn -0.691581 0.0570696 -0.720041
vn -0.691581 0.0570696 -0.720041
vn -0.691581 0.0570696 -0.720041
vn -0.691581 0.0570696 -0.720041
vn -0.185442 0.172789 -0.967344
vn -0.185442 0.172789 -0.967344
vn -0.185442 0.172789 -0.967344
vn -0.185442 0.172789 -0.967344
vn -0.314661 0.874475 0.369164
vn -0.314661 0.874475 0.369164
vn -0.314661 0.874475 0.369164
vn -0.314661 0.874475 0.369164
vn -0.895639 0.392413 -0.20939
vn -0.895639 0.392413 -0.20939
vn -0.895639 0.392413 -0.20939
vn -0.419761 0.806981 -0.41543
vn -0.419761 0.806981 -0.41543
vn -0.419761 0.806981 -0.41543
vn -0.271141 0.237528 -0.932771
vn -0.270285 0.238317 -0.932819
vn -0.270285 0.238317 -0.932819
vn -0.120594 -0.990799 0.0614378
vn -0.120594 -0.990799 0.0614378
vn -0.120594 -0.990799 0.0614378
vn -0.120594 -0.990799 0.0614378
vn 0.177023 -0.20874 0.961816
vn 0.177023 -0.20874 0.961816
vn -0.691581 0.0570696 -0.720041
vn -0.120594 -0.990799 0.0614378
vn 0.668195 -0.630881 0.394342
f 1/1/1 2/2/2 3/3/3 
f 4/4/4 5/5/5 6/6/6 
f 7/7/7 8/8/8 9/9/9 
f 7/7/7 9/9/9 10/10/10 
f 7/7/7 10/10/10 11/11/11 
f 7/7/7 11/11/11 12/12/12 
f 3/3/3 2/2/2 13/13/13 
f 3/3/3 13/13/13 14/14/14 
f 15/15/15 16/16/16 17/17/17 
f 18/18/18 19/19/19 20/20/20 
f 18/18/18 21/21/21 19/19/19 
f 22/22/22 23/23/23 24/24/24 
f 25/25/25 26/26/26 27/27/27 
f 26/26/26 28/28/28 27/27/27 
f 29/29/29 28/28/28 26/26/26 
f 30/30/30 28/28/28 29/29/29 
f 28/28/28 30/30/30 31/31/31 
f 32/32/32 33/33/33 34/34/34 
f 20/20/20 33/33/33 32/32/32 
f 20/20/20 19/19/19 33/33/33 
f 34/34/34 35/35/35 32/32/32 
f 36/36/36 35/35/35 34/34/34 
f 37/37/37 38/38/38 39/39/39 
f 40/40/40 38/38/38 37/37/37 
f 41/41/41 38/38/38 40/40/40 
f 41/41/41 42/42/42 38/38/38 
f 43/43/43 42/42/42 41/41/41 
f 44/44/44 45/45/45 46/46/46 
f 47/47/47 45/45/45 44/44/44 
f 45/45/45 47/47/47 24/24/24 
f 24/24/24 23/23/23 45/45/45 
f 29/29/29 48/48/48 49/49/49 
f 29/29/29 49/49/49 30/30/30 
f 45/45/45 12/12/12 46/46/46 
f 12/12/12 11/11/11 46/46/46 
f 38/38/38 42/42/42 50/50/50 
f 51/51/51 52/52/52 53/53/53 
f 51/51/51 53/53/53 54/54/54 
f 54/54/54 55/55/55 51/51/51 
f 55/55/55 54/54/54 56/56/56 
f 57/57/57 58/58/58 59/59/59 
f 57/57/57 60/60/60 58/58/58 
f 57/57/57 61/61/61 60/60/60 
f 62/62/62 63/63/63 56/56/56 
f 64/64/64 65/65/65 66/66/66 
f 66/66/66 65/65/65 67/67/67 
f 66/66/66 67/67/67 68/68/68 
f 69/69/69 70/70/70 71/71/71 
f 69/69/69 72/72/72 70/70/70 
f 73/73/73 74/74/74 75/75/75 
f 76/76/76 74/74/74 73/73/73 
f 76/76/76 5/5/5 74/74/74 
f 6/6/6 5/5/5 76/76/76 
f 77/77/77 78/78/78 79/79/79 
f 54/54/54 78/78/78 77/77/77 
f 54/54/54 53/53/53 78/78/78 
f 80/80/80 54/54/54 77/77/77 
f 81/81/81 82/82/82 83/83/83 
f 84/84/84 85/85/85 86/86/86 
f 56/56/56 54/54/54 62/62/62 
f 87/87/87 88/88/88 89/89/89 
f 35/35/35 90/90/90 32/32/32 
f 35/35/35 91/91/91 90/90/90 
f 91/91/91 35/35/35 92/92/92 
f 35/35/35 93/93/93 92/92/92 
f 58/58/58 94/94/94 39/39/39 
f 58/58/58 95/95/95 94/94/94 
f 71/71/71 70/70/70 96/96/96 
f 93/93/93 97/97/97 92/92/92 
f 39/39/39 38/38/38 58/58/58 
f 59/59/59 58/58/58 38/38/38 
f 31/31/31 30/30/30 98/98/98 
