v 0.857902 -1.20744 -0.780537
v 0.851239 -1.17987 -0.789388
v 0.867169 -1.16532 -0.767238
v 0.857902 -1.20744 -0.780537
v 0.853622 -1.17696 -0.771004
v 0.851238 -1.17987 -0.789388
v 0.857902 -1.20744 -0.780537
v 0.899674 -1.13563 -0.722045
v 0.853622 -1.17696 -0.771004
v 0.899674 -1.13563 -0.722045
v 0.853622 -1.17696 -0.771004
v 0.899674 -1.13563 -0.722045
v 0.867169 -1.16532 -0.767238
v 0.851238 -1.17987 -0.789388
vt 0.885681 0.49386
vt 0.887681 0.496319
vt 0.885612 0.499106
vt -0.67544 1.34661
vt -0.66579 1.31587
vt -0.684399 1.31829
vt -1.50527 0.259195
vt -1.42949 0.326874
vt -1.47311 0.261119
vt 0.881391 0.504791
vt -0.824337 0.108258
vt -0.775344 0.0464043
vt -0.820568 0.0903966
vt -0.842733 0.111957
vn 0.809549 0.00721439 -0.587008
vn 0.809549 0.00721439 -0.587008
vn 0.809549 0.00721439 -0.587008
vn -0.970465 -0.184807 0.155064
vn -0.970465 -0.184807 0.155064
vn -0.970465 -0.184807 0.155064
vn -0.540689 -0.319388 0.778233
vn -0.540689 -0.319388 0.778233
vn -0.540689 -0.319388 0.778233
vn 0.809549 0.00721439 -0.587008
vn -0.645313 0.763015 -0.0371508
vn -0.645313 0.763015 -0.0371508
vn -0.645313 0.763015 -0.0371508
vn -0.645313 0.763015 -0.0371508
f 1/1/1 2/2/2 3/3/3 
f 4/4/4 5/5/5 6/6/6 
f 7/7/7 8/8/8 9/9/9 
f 1/1/1 3/3/3 10/10/10 
f 11/11/11 12/12/12 13/13/13 
f 11/11/11 13/13/13 14/14/14 
