v -1.12359 1.73315 -0.0653144
v -1.04876 1.8317 -0.0986496
v -1.1054 1.65489 -0.159938
v -1.09645 1.88017 0.0406229
v -1.04876 1.8317 -0.0986496
v -1.12359 1.73315 -0.0653144
v -1.07445 1.91935 0.0416315
v -1.04876 1.8317 -0.0986495
v -1.07445 1.91935 0.0416317
v -1.0755 1.86642 0.052813
v -1.07632 1.82532 0.0614962
v -1.06214 1.73931 -0.0123075
v -1.07674 1.80386 0.0660293
v -1.06214 1.73931 -0.0123075
v -1.07674 1.80386 0.0660293
v -1.12187 1.81197 0.0445066
v -1.1236 1.73315 -0.0653144
v -1.03964 1.63988 -0.132977
v -1.03964 1.63988 -0.132977
v -1.02018 1.70348 -0.251754
v -1.1054 1.65489 -0.159938
v -1.02018 1.70348 -0.251754
v -1.03964 1.63988 -0.132977
v -1.02018 1.70348 -0.251754
v -1.1054 1.65489 -0.159939
v -1.13359 1.81407 0.0389211
v -1.13359 1.81407 0.0389211
v -1.12187 1.81197 0.0445066
v -1.09645 1.88017 0.040623
v -1.13359 1.81407 0.0389212
v -1.0755 1.86642 0.052813
v -1.07445 1.91935 0.0416316
v -1.07632 1.82532 0.0614963
v -1.07674 1.80386 0.0660294
vt 0.289682 0.516271
vt 0.284865 0.527915
vt 0.277584 0.511939
vt 0.301619 0.531163
vt 0.284865 0.527915
vt 0.289682 0.516271
vt 0.301456 0.535565
vt 1.84864 -0.081301
vt 1.9363 -0.223907
vt 1.88337 -0.235105
vt 1.84226 -0.2438
vt 1.75624 -0.168661
vt 1.8208 -0.24834
vt 1.53131 1.01185
vt 1.54718 1.11317
vt 1.59623 1.10052
vt 1.5981 0.965338
vt 1.50686 0.855789
vt 1.65679 -0.0459235
vt 1.7204 0.0744332
vt 1.11529 -0.923607
vt 1.03007 -1.02749
vt 1.04953 -0.892753
vt 0.265297 0.520739
vt 1.57833 0.842787
vt 1.60896 1.09723
vt 0.301894 0.523736
vt 1.6794 -1.01004
vt 1.74898 -0.988301
vt 1.68155 -1.02301
vt 1.73495 -0.964217
vt 1.78894 -0.967733
vt 1.69302 -0.961486
vt 1.67113 -0.96006
vn -0.76578 0.415492 -0.490864
vn -0.765781 0.415486 -0.490868
vn -0.765779 0.415502 -0.490857
vn -0.784178 0.451493 -0.425698
vn -0.784178 0.451493 -0.425698
vn -0.784178 0.451493 -0.425698
vn -0.784178 0.451493 -0.425698
vn 0.985276 0.0163631 0.170189
vn 0.985276 0.0163631 0.170189
vn 0.985276 0.0163631 0.170189
vn 0.985276 0.0163631 0.170189
vn 0.985276 0.0163631 0.170189
vn 0.985276 0.0163631 0.170189
vn -0.391585 -0.744613 0.540567
vn -0.391585 -0.744613 0.540567
vn -0.391585 -0.744613 0.540567
vn -0.391585 -0.744613 0.540567
vn -0.391585 -0.744613 0.540567
vn 0.985276 0.0163631 0.170189
vn 0.985276 0.0163631 0.170189
vn -0.00717107 -0.881064 -0.472944
vn -0.00717107 -0.881064 -0.472944
vn -0.00717107 -0.881064 -0.472944
vn -0.765779 0.415502 -0.490857
vn -0.391585 -0.744613 0.540567
vn -0.391585 -0.744613 0.540567
vn -0.784178 0.451493 -0.425698
vn -0.392808 0.197546 0.898152
vn -0.392808 0.197546 0.898152
vn -0.392808 0.197546 0.898152
vn -0.392808 0.197546 0.898152
vn -0.392808 0.197546 0.898152
vn -0.392808 0.197546 0.898152
vn -0.392808 0.197546 0.898152
f 1/1/1 2/2/2 3/3/3 
f 4/4/4 5/5/5 6/6/6 
f 7/7/7 5/5/5 4/4/4 
f 8/8/8 9/9/9 10/10/10 
f 8/8/8 10/10/10 11/11/11 
f 11/11/11 12/12/12 8/8/8 
f 13/13/13 12/12/12 11/11/11 
f 14/14/14 15/15/15 16/16/16 
f 14/14/14 16/16/16 17/17/17 
f 14/14/14 17/17/17 18/18/18 
f 19/19/19 20/20/20 12/12/12 
f 21/21/21 22/22/22 23/23/23 
f 3/3/3 2/2/2 24/24/24 
f 12/12/12 20/20/20 8/8/8 
f 18/18/18 17/17/17 25/25/25 
f 17/17/17 16/16/16 26/26/26 
f 4/4/4 6/6/6 27/27/27 
f 28/28/28 29/29/29 30/30/30 
f 31/31/31 29/29/29 28/28/28 
f 31/31/31 32/32/32 29/29/29 
f 33/33/33 31/31/31 28/28/28 
f 34/34/34 33/33/33 28/28/28 
