v 1.19331 -0.740013 0.322765
v 1.2542 -0.7188 0.3947
v 1.06608 -0.829394 0.245631
v 1.2542 -0.7188 0.3947
v 1.19331 -0.740013 0.322765
v 1.24892 -0.723913 0.366111
v 1.2542 -0.7188 0.3947
v 1.24892 -0.723913 0.366111
v 1.25739 -0.585288 0.315601
v 1.28471 -0.508788 0.330657
v 1.2542 -0.7188 0.3947
v 1.25739 -0.585288 0.315601
v 1.30959 -0.513442 0.392602
v 1.2542 -0.7188 0.3947
v 1.30959 -0.513442 0.392602
v 1.33969 -0.491114 0.583273
v 1.33969 -0.491114 0.583273
v 1.2196 -0.8445 0.632
v 1.2542 -0.7188 0.3947
v 1.34954 -0.473701 0.687529
v 1.34466 -0.489771 0.705586
v 1.32581 -0.547893 0.737922
v 1.34017 -0.504575 0.72222
v 1.34017 -0.504575 0.72222
v 1.28818 -0.432524 0.657764
v 1.32581 -0.547893 0.737922
v 1.31913 -0.450807 0.683094
v 1.31913 -0.450807 0.683094
v 1.33969 -0.491114 0.583273
v 1.28818 -0.432524 0.657764
v 1.34954 -0.473701 0.687529
v 1.34954 -0.473701 0.687529
v 1.31913 -0.450807 0.683094
v 1.34466 -0.489771 0.705586
v 1.34017 -0.504576 0.72222
v 1.27272 -0.423393 0.645113
v 1.25373 -0.41218 0.629577
v 1.21591 -0.38984 0.598624
v 1.30959 -0.513442 0.392602
v 1.20727 -0.384738 0.591555
v 1.28471 -0.508788 0.330657
v 1.0296 -0.279807 0.446172
v 0.947593 -0.243262 0.329834
v 1.0296 -0.279807 0.446172
v 0.947594 -0.243262 0.329834
v 1.104 -0.423821 0.560094
v 1.20727 -0.384738 0.591555
v 1.0296 -0.279807 0.446172
v 1.104 -0.423821 0.560094
v 1.1101 -0.435609 0.569419
v 1.21591 -0.38984 0.598624
v 1.25373 -0.41218 0.629577
v 1.1821 -0.574978 0.679665
v 1.27272 -0.423393 0.645113
v 1.18497 -0.580539 0.684064
v 1.1821 -0.574978 0.679665
v 0.846465 -0.740293 0.227307
v 1.18497 -0.580539 0.684064
v 1.1101 -0.435609 0.569418
v 0.823554 -0.682748 0.191229
v 0.81107 -0.651394 0.171572
v 0.823554 -0.682748 0.191229
v 0.81107 -0.651394 0.171572
v 0.952305 -0.693806 0.0862593
v 0.846465 -0.740293 0.227307
v 0.857462 -0.767913 0.244623
v 0.857462 -0.767913 0.244623
v 1.22814 -0.6641 0.750164
v 1.25551 -0.631834 0.746893
v 1.22814 -0.6641 0.750164
v 1.2856 -0.595906 0.743054
v 1.2196 -0.8445 0.632
v 1.32581 -0.547893 0.737922
v 1.2856 -0.595906 0.743053
v 1.25551 -0.631834 0.746893
v 1.16163 -0.863957 0.673133
v 1.2196 -0.8445 0.632
v 1.16163 -0.863957 0.673133
v 1.03835 -1.00149 0.512783
v 1.2196 -0.8445 0.632
v 1.03835 -1.00149 0.512783
v 1.2542 -0.7188 0.3947
v 1.03633 -1.00273 0.510081
v 1.02216 -0.98715 0.425103
v 1.02216 -0.98715 0.425103
v 1.00585 -0.971569 0.371296
v 1.00135 -0.967273 0.35646
v 0.99643 -0.962571 0.34022
v 1.06608 -0.829394 0.245631
v 0.99643 -0.962571 0.34022
v 1.04313 -0.926993 0.265879
v 1.02856 -0.9365 0.256748
v 1.06608 -0.829394 0.245631
v 1.04313 -0.926993 0.265879
v 1.01178 -0.883099 0.219234
v 0.952305 -0.693806 0.0862593
v 1.25739 -0.585288 0.315601
v 0.909762 -0.558412 -0.00885248
v 0.918576 -0.546182 -0.00604045
v 1.06554 -0.40016 0.0651197
v 0.946153 -0.50792 0.0027571
v 0.996831 -0.437608 0.0189242
v 1.02737 -0.395234 0.028667
v 1.03516 -0.384421 0.0311535
v 1.06554 -0.40016 0.0651197
v 1.03516 -0.384421 0.0311534
v 0.986723 -0.321841 0.132174
v 0.929799 -0.235333 0.304591
v 0.929799 -0.235333 0.304591
v 0.867843 -0.261288 0.220744
v 0.772715 -0.555062 0.111177
v 0.772715 -0.555062 0.111177
v 0.772987 -0.553327 0.109223
v 0.884574 -0.546031 0.00161645
v 0.909762 -0.558412 -0.00885251
v 0.909762 -0.558412 -0.0088526
v 0.884574 -0.546031 0.00161636
v 0.918576 -0.546182 -0.0060406
v 0.946153 -0.50792 0.00275701
v 0.836211 -0.522259 0.021717
v 0.836211 -0.522259 0.0217171
v 0.782032 -0.495628 0.0442354
v 0.763949 -0.403922 0.0841312
v 0.763413 -0.401201 0.0853147
v 0.861589 -0.314844 0.0971413
v 0.915039 -0.33285 0.0781579
v 0.782032 -0.495628 0.0442353
v 0.996831 -0.437607 0.0189241
v 0.979823 -0.354675 0.0551492
v 0.986723 -0.321841 0.132174
v 0.979823 -0.354675 0.0551493
v 0.915039 -0.33285 0.078158
v 1.01645 -0.367014 0.0421413
v 1.01645 -0.367014 0.0421413
v 1.02737 -0.395234 0.028667
v 1.03516 -0.384421 0.0311534
v 1.01645 -0.367014 0.0421414
v 0.861589 -0.314844 0.0971414
v 0.844877 -0.270909 0.189663
v 0.795587 -0.292609 0.120583
v 0.794474 -0.292234 0.120978
v 0.794377 -0.292201 0.121013
v 0.794197 -0.292141 0.121076
v 0.794197 -0.292141 0.121076
v 0.844877 -0.270909 0.189663
v 0.76307 -0.399464 0.0860704
v 0.763366 -0.400963 0.085418
v 0.76328 -0.400526 0.0856084
v 0.76307 -0.399464 0.0860704
v 0.795587 -0.292609 0.120583
v 0.794474 -0.292234 0.120978
v 0.794377 -0.292201 0.121013
v 0.794197 -0.292141 0.121076
v 0.859095 -0.264953 0.208905
v 0.859095 -0.264953 0.208905
v 0.867843 -0.261288 0.220744
v 0.929799 -0.235333 0.304591
v 1.25571 -0.498701 0.277777
v 1.25571 -0.498701 0.277777
v 1.26979 -0.505999 0.293526
v 1.26979 -0.505999 0.293525
v 1.26979 -0.505999 0.293525
v 1.19331 -0.740013 0.322765
v 1.24892 -0.723913 0.366111
v 1.01178 -0.883099 0.219234
v 0.878646 -0.821117 0.277979
v 1.16163 -0.863957 0.673133
v 0.878646 -0.821117 0.277979
v 1.22814 -0.6641 0.750164
v 1.03835 -1.00149 0.512783
v 0.906833 -0.891912 0.322364
v 1.00102 -0.972512 0.458891
v 1.03633 -1.00273 0.51008
v 1.02216 -0.98715 0.425103
v 1.03633 -1.00273 0.510081
v 1.00102 -0.972512 0.458891
v 1.00585 -0.971569 0.371296
v 0.926725 -0.907236 0.31956
v 0.918941 -0.901239 0.320657
v 0.906833 -0.891912 0.322364
v 0.906833 -0.891912 0.322363
v 0.918941 -0.901239 0.320657
v 0.926725 -0.907236 0.31956
v 1.02856 -0.9365 0.256748
v 1.01092 -0.972095 0.307696
v 1.00552 -0.968724 0.323082
v 1.01092 -0.972095 0.307696
v 0.99643 -0.962571 0.34022
v 1.00552 -0.968724 0.323082
v 1.00936 -0.971321 0.315849
v 1.01168 -0.972887 0.311485
v 1.03124 -0.962049 0.279511
v 1.04313 -0.926993 0.265879
v 1.03124 -0.962048 0.279511
v 1.03501 -0.957019 0.271161
v 1.03501 -0.957019 0.271161
v 1.03124 -0.962049 0.279511
v 1.03501 -0.957019 0.271161
v 1.01391 -0.974399 0.307275
v 1.01391 -0.974399 0.307275
v 1.01168 -0.972887 0.311485
v 1.01391 -0.974399 0.307275
v 1.00936 -0.971321 0.315849
v 1.00135 -0.967273 0.35646
v 0.772987 -0.553327 0.109223
v 0.763949 -0.403922 0.0841312
v 0.782032 -0.495628 0.0442355
v 0.763413 -0.401201 0.0853148
v 0.76307 -0.399464 0.0860705
v 0.772715 -0.555062 0.111177
v 0.76328 -0.400526 0.0856085
v 0.763366 -0.400963 0.0854181
vt 0.769457 0.580476
vt 0.7638 0.5877
vt 0.771024 0.563879
vt 0.7638 0.5877
vt 0.769457 0.580476
vt 0.766876 0.586339
vt 0.7638 0.5877
vt 0.766876 0.586339
vt 0.776959 0.599895
vt 0.776967 0.608616
vt 0.7638 0.5877
vt 0.776959 0.599895
vt 0.769126 0.60989
vt 0.7638 0.5877
vt 0.769126 0.60989
vt 0.749166 0.617425
vt 0.749166 0.617425
vt 0.7329 0.5817
vt 0.7638 0.5877
vt 0.73779 0.622437
vt 0.735242 0.621296
vt 0.729789 0.616162
vt 0.732894 0.620244
vt -1.38757 -0.784041
vt -1.33063 -0.690193
vt -1.37184 -0.829668
vt -1.36453 -0.718209
vt 0.757323 -1.31506
vt 0.655722 -1.35616
vt 0.731541 -1.27943
vt 0.761837 -1.35311
vt -1.18167 -0.817029
vt -1.14877 -0.79738
vt -1.17639 -0.841116
vt -1.17153 -0.863307
vt 0.718664 -1.26164
vt 0.702851 -1.23979
vt 0.671346 -1.19625
vt 0.461652 -1.34634
vt 0.664152 -1.18631
vt 0.398602 -1.32392
vt 0.516177 -0.981818
vt 0.397765 -0.89479
vt -0.254205 0.964454
vt -0.217624 0.822127
vt -0.39836 1.10037
vt -1.24203 -0.616966
vt -1.04746 -0.456169
vt -1.12894 -0.636765
vt -1.13561 -0.651548
vt -1.25148 -0.624783
vt -1.29291 -0.659018
vt -1.21446 -0.826318
vt -1.3137 -0.676201
vt -1.21761 -0.833292
vt -0.549664 1.24303
vt -0.71514 0.679803
vt -0.555231 1.24828
vt -0.410159 1.1115
vt -0.657539 0.637141
vt -0.626154 0.613895
vt -0.878412 0.620561
vt -0.863583 0.584429
vt -1.03135 0.554766
vt -0.905627 0.686872
vt -0.91869 0.718701
vt -0.742787 0.70028
vt -0.638873 1.32714
vt -1.29486 -0.908036
vt -1.26488 -0.938078
vt -1.32781 -0.874494
vt 0.7329 0.5817
vt 0.729789 0.616162
vt 0.727724 0.610943
vt 0.726179 0.607037
vt 0.724842 0.579341
vt 0.7329 0.5817
vt 0.724842 0.579341
vt 0.733453 0.555904
vt 0.7329 0.5817
vt 0.733453 0.555904
vt 0.7638 0.5877
vt 0.733623 0.555622
vt 0.742687 0.553919
vt 0.742687 0.553919
vt 0.749041 0.552692
vt 0.750793 0.552354
vt 0.752711 0.551984
vt 0.771024 0.563879
vt 0.752711 0.551984
vt 0.765964 0.555392
vt -0.746039 -0.936028
vt -0.633854 -0.956464
vt -0.736081 -0.952959
vt -0.690105 -0.898452
vt -0.491836 -0.765257
vt -0.378172 -1.14543
vt -0.350022 -0.669987
vt -0.337212 -0.678418
vt -0.184265 -0.835235
vt -0.297136 -0.704795
vt -0.223489 -0.753267
vt -0.179106 -0.782479
vt -0.16778 -0.789933
vt 0.128331 -1.08455
vt 0.0937597 -1.05095
vt 0.196581 -0.974165
vt 0.372072 -0.875907
vt -0.209687 0.791245
vt -0.235668 0.686996
vt -0.529729 0.542478
vt -0.818024 0.473422
vt -0.818347 0.470814
vt -0.950893 0.390095
vt -0.980812 0.391567
vt -0.850931 0.523299
vt -0.825203 0.507955
vt -0.859934 0.510884
vt -0.888102 0.472046
vt -0.775805 0.478496
vt -0.893447 0.387269
vt -0.829091 0.384102
vt -0.701994 0.345556
vt -0.701446 0.342591
vt -0.801726 0.257856
vt -0.856321 0.281539
vt -0.720465 0.445494
vt -0.939865 0.400673
vt -0.922493 0.310243
vt -1.03007 0.00933253
vt -1.02308 0.0930555
vt -0.957427 0.0631843
vt -1.0602 0.109943
vt -0.959903 0.326472
vt -0.97106 0.357661
vt -0.979021 0.346684
vt 0.104943 -1.02547
vt -0.90326 0.0385389
vt -0.886324 -0.0638475
vt -0.836372 0.00810608
vt -0.835244 0.00759289
vt -0.835145 0.00754802
vt -0.834964 0.0074653
vt -0.266551 0.563079
vt -0.245298 0.648354
vt -0.373979 0.516477
vt -0.701399 0.342332
vt -0.701311 0.341855
vt -0.701097 0.340698
vt -0.73431 0.228612
vt -0.733173 0.228118
vt -0.733074 0.228075
vt -0.732891 0.227996
vt -0.239336 0.672277
vt -0.900733 -0.0838536
vt -0.909598 -0.0961633
vt -0.972386 -0.183343
vt 0.34478 -1.2949
vt -0.287479 -1.11887
vt -0.295123 -1.13987
vt 0.781667 0.607852
vt 0.360809 -1.31048
vt -0.540235 -1.10262
vt -0.523371 -1.17294
vt -1.102 0.782933
vt -0.943852 0.78001
vt -0.838925 1.22575
vt -0.796043 0.739724
vt 0.723722 0.603177
vt -0.976592 1.02358
vt -0.866908 0.792209
vt -0.947587 0.958033
vt -0.977837 1.02021
vt 0.43114 1.41291
vt 0.516194 1.43366
vt 0.464958 1.38723
vt 0.377284 1.39047
vt 0.325502 1.28851
vt 0.3266 1.27869
vt 0.328308 1.2634
vt -0.977334 0.861591
vt -0.991716 0.867038
vt -1.00096 0.87054
vt -1.12193 0.847302
vt -1.10097 0.908415
vt 0.329027 1.38846
vt 0.313628 1.39479
vt 0.34618 1.37751
vt 0.755529 0.551535
vt 0.756719 0.551346
vt 0.757436 0.551232
vt 0.763063 0.552314
vt 0.765964 0.555392
vt 0.763063 0.552314
vt 0.764322 0.552753
vt -0.767531 -0.950466
vt -1.12511 0.881477
vt -1.12959 0.872034
vt -1.10452 0.90976
vt 0.313206 1.39857
vt 0.31742 1.39588
vt 0.758129 0.551121
vt 0.321788 1.39309
vt 0.362435 1.38428
vt 0.813122 0.52793
vt 0.762153 0.544528
vt 0.801134 0.611915
vt 0.760997 0.542529
vt 0.760258 0.541253
vt 0.813482 0.525404
vt 0.76071 0.542033
vt 0.760896 0.542355
vn 0.675497 -0.627886 -0.386605
vn 0.675497 -0.627886 -0.386605
vn 0.675497 -0.627886 -0.386605
vn 0.170973 -0.974877 0.142772
vn 0.170973 -0.974877 0.142772
vn 0.170973 -0.974877 0.142772
vn 0.98004 -0.118129 -0.159895
vn 0.98004 -0.118129 -0.159895
vn 0.98004 -0.118129 -0.159895
vn 0.893201 -0.244789 -0.377187
vn 0.893201 -0.244789 -0.377187
vn 0.893201 -0.244789 -0.377187
vn 0.893201 -0.244789 -0.377187
vn 0.958109 -0.259679 -0.120805
vn 0.958109 -0.259679 -0.120805
vn 0.958109 -0.259679 -0.120805
vn 0.944776 -0.325858 -0.0348549
vn 0.944776 -0.325858 -0.0348549
vn 0.944776 -0.325858 -0.0348549
vn 0.944776 -0.325858 -0.0348549
vn 0.944776 -0.325858 -0.0348549
vn 0.944776 -0.325858 -0.0348549
vn 0.944776 -0.325858 -0.0348549
vn -0.40766 0.427615 0.80682
vn -0.40766 0.427615 0.80682
vn -0.40766 0.427615 0.80682
vn -0.40766 0.427615 0.80682
vn 0.608198 0.771603 -0.186345
vn 0.608198 0.771603 -0.186345
vn 0.608198 0.771603 -0.186345
vn 0.608198 0.771603 -0.186345
vn 0.381801 0.636807 0.669855
vn 0.381801 0.636807 0.669855
vn 0.381801 0.636807 0.669855
vn 0.381801 0.636807 0.669855
vn 0.608198 0.771603 -0.186345
vn 0.608198 0.771603 -0.186345
vn 0.608198 0.771603 -0.186345
vn 0.608198 0.771603 -0.186345
vn 0.608198 0.771603 -0.186345
vn 0.608198 0.771603 -0.186345
vn 0.608198 0.771603 -0.186345
vn 0.608198 0.771603 -0.186345
vn -0.80996 0.0441608 0.584821
vn -0.80996 0.0441608 0.584821
vn -0.80996 0.0441608 0.584821
vn -0.40766 0.427615 0.80682
vn -0.40766 0.427615 0.80682
vn -0.40766 0.427615 0.80682
vn -0.40766 0.427615 0.80682
vn -0.40766 0.427615 0.80682
vn -0.40766 0.427615 0.80682
vn -0.40766 0.427615 0.80682
vn -0.40766 0.427615 0.80682
vn -0.40766 0.427615 0.80682
vn -0.80996 0.0441608 0.584821
vn -0.80996 0.0441608 0.584821
vn -0.80996 0.0441608 0.584821
vn -0.80996 0.0441608 0.584821
vn -0.80996 0.0441608 0.584821
vn -0.80996 0.0441608 0.584821
vn -0.539677 -0.590854 -0.5997
vn -0.539677 -0.590854 -0.5997
vn -0.539677 -0.590854 -0.5997
vn -0.539677 -0.590854 -0.5997
vn -0.539677 -0.590854 -0.5997
vn -0.80996 0.0441608 0.584821
vn -0.80996 0.0441608 0.584821
vn -0.40766 0.427615 0.80682
vn -0.40766 0.427615 0.80682
vn -0.40766 0.427615 0.80682
vn 0.620658 -0.451235 0.641226
vn 0.620658 -0.451235 0.641226
vn 0.620658 -0.451235 0.641226
vn 0.620658 -0.451235 0.641226
vn 0.61863 -0.451753 0.642819
vn 0.494908 -0.810097 0.314339
vn 0.494908 -0.810097 0.314339
vn 0.494908 -0.810097 0.314339
vn 0.720847 -0.650424 -0.239431
vn 0.720847 -0.650424 -0.239431
vn 0.720847 -0.650424 -0.239431
vn 0.720847 -0.650424 -0.239431
vn 0.720847 -0.650424 -0.239431
vn 0.675497 -0.627886 -0.386605
vn 0.675497 -0.627886 -0.386605
vn 0.675497 -0.627886 -0.386605
vn 0.675497 -0.627886 -0.386605
vn 0.863488 -0.100589 0.494237
vn 0.863488 -0.100589 0.494237
vn 0.863488 -0.100589 0.494237
vn 0.639037 -0.297487 -0.709319
vn 0.639037 -0.297487 -0.709319
vn 0.639037 -0.297487 -0.709319
vn 0.639037 -0.297487 -0.709319
vn 0.639037 -0.297487 -0.709319
vn 0.639037 -0.297487 -0.709319
vn 0.639037 -0.297487 -0.709319
vn 0.639037 -0.297487 -0.709319
vn 0.639037 -0.297487 -0.709319
vn 0.639037 -0.297487 -0.709319
vn 0.639037 -0.297487 -0.709319
vn 0.639037 -0.297487 -0.709319
vn 0.639037 -0.297487 -0.709319
vn 0.608198 0.771603 -0.186345
vn 0.608198 0.771603 -0.186345
vn 0.608198 0.771603 -0.186345
vn 0.608198 0.771603 -0.186345
vn -0.80996 0.0441608 0.584821
vn -0.80996 0.0441608 0.584821
vn -0.80996 0.0441608 0.584821
vn -0.539677 -0.590854 -0.5997
vn -0.539677 -0.590854 -0.5997
vn -0.539677 -0.590854 -0.5997
vn -0.539677 -0.590854 -0.5997
vn -0.203741 0.356498 -0.911811
vn -0.203741 0.356498 -0.911811
vn -0.203741 0.356498 -0.911811
vn -0.203741 0.356498 -0.911811
vn -0.203741 0.356498 -0.911811
vn -0.539677 -0.590854 -0.5997
vn -0.539677 -0.590854 -0.5997
vn -0.203741 0.356498 -0.911811
vn -0.203741 0.356498 -0.911811
vn -0.203741 0.356498 -0.911811
vn -0.203741 0.356498 -0.911811
vn -0.203741 0.356498 -0.911811
vn -0.203741 0.356498 -0.911811
vn -0.203741 0.356498 -0.911811
vn 0.162221 0.902395 -0.399208
vn 0.162221 0.902395 -0.399208
vn 0.162221 0.902395 -0.399208
vn 0.162221 0.902395 -0.399208
vn -0.203741 0.356498 -0.911811
vn -0.203741 0.356498 -0.911811
vn -0.203741 0.356498 -0.911811
vn 0.608198 0.771603 -0.186345
vn 0.162221 0.902395 -0.399208
vn 0.162221 0.902395 -0.399208
vn 0.162221 0.902395 -0.399208
vn 0.162221 0.902395 -0.399208
vn 0.162221 0.902395 -0.399208
vn 0.162221 0.902395 -0.399208
vn -0.80996 0.0441608 0.584821
vn -0.80996 0.0441608 0.584821
vn -0.80996 0.0441608 0.584821
vn -0.203741 0.356498 -0.911811
vn -0.203741 0.356498 -0.911811
vn -0.203741 0.356498 -0.911811
vn -0.203741 0.356498 -0.911811
vn -0.203741 0.356498 -0.911811
vn -0.203741 0.356498 -0.911811
vn -0.203741 0.356498 -0.911811
vn -0.80996 0.0441608 0.584821
vn 0.162221 0.902395 -0.399208
vn 0.162221 0.902395 -0.399208
vn 0.162221 0.902395 -0.399208
vn 0.608198 0.771603 -0.186345
vn 0.639037 -0.297487 -0.709319
vn 0.639037 -0.297487 -0.709319
vn 0.893201 -0.244789 -0.377187
vn 0.608198 0.771603 -0.186345
vn 0.639037 -0.297487 -0.709319
vn 0.639037 -0.297487 -0.709319
vn -0.539677 -0.590854 -0.5997
vn -0.539677 -0.590854 -0.5997
vn -0.80996 0.0441608 0.584821
vn -0.80996 0.0441608 0.584821
vn 0.619846 -0.451443 0.641865
vn -0.80996 0.0441608 0.584821
vn -0.80996 0.0441608 0.584821
vn -0.80996 0.0441608 0.584821
vn -0.80996 0.0441608 0.584821
vn -0.613462 -0.788587 -0.0423559
vn -0.613462 -0.788587 -0.0423559
vn -0.613462 -0.788587 -0.0423559
vn -0.613462 -0.788587 -0.0423559
vn -0.613462 -0.788587 -0.0423559
vn -0.613462 -0.788587 -0.0423559
vn -0.613462 -0.788587 -0.0423559
vn -0.539677 -0.590854 -0.5997
vn -0.539677 -0.590854 -0.5997
vn -0.539677 -0.590854 -0.5997
vn -0.539677 -0.590854 -0.5997
vn -0.539677 -0.590854 -0.5997
vn -0.613462 -0.788587 -0.0423559
vn -0.613462 -0.788587 -0.0423559
vn -0.613462 -0.788587 -0.0423559
vn 0.863488 -0.100589 0.494237
vn 0.863488 -0.100589 0.494237
vn 0.863488 -0.100589 0.494237
vn 0.863488 -0.100589 0.494237
vn 0.932509 -0.19899 0.30138
vn 0.932509 -0.19899 0.30138
vn 0.932509 -0.19899 0.30138
vn 0.639037 -0.297487 -0.709319
vn -0.539677 -0.590854 -0.5997
vn -0.539677 -0.590854 -0.5997
vn -0.539677 -0.590854 -0.5997
vn -0.613462 -0.788587 -0.0423559
vn -0.613462 -0.788587 -0.0423559
vn 0.863488 -0.100589 0.494237
vn -0.613462 -0.788587 -0.0423559
vn -0.613462 -0.788587 -0.0423559
vn -0.970781 -0.0956809 -0.220065
vn -0.970781 -0.0956809 -0.220065
vn -0.970781 -0.0956809 -0.220065
vn -0.970781 -0.0956809 -0.220065
vn -0.970781 -0.0956809 -0.220065
vn -0.970781 -0.0956809 -0.220065
vn -0.970781 -0.0956809 -0.220065
vn -0.970781 -0.0956809 -0.220065
f 1/1/1 2/2/2 3/3/3 
f 4/4/4 5/5/5 6/6/6 
f 7/7/7 8/8/8 9/9/9 
f 10/10/10 11/11/11 12/12/12 
f 13/13/13 11/11/11 10/10/10 
f 14/14/14 15/15/15 16/16/16 
f 17/17/17 18/18/18 19/19/19 
f 20/20/20 18/18/18 17/17/17 
f 21/21/21 18/18/18 20/20/20 
f 21/21/21 22/22/22 18/18/18 
f 23/23/23 22/22/22 21/21/21 
f 24/24/24 25/25/25 26/26/26 
f 27/27/27 25/25/25 24/24/24 
f 28/28/28 29/29/29 30/30/30 
f 31/31/31 29/29/29 28/28/28 
f 32/32/32 33/33/33 34/34/34 
f 35/35/35 34/34/34 33/33/33 
f 29/29/29 36/36/36 30/30/30 
f 29/29/29 37/37/37 36/36/36 
f 29/29/29 38/38/38 37/37/37 
f 39/39/39 38/38/38 29/29/29 
f 39/39/39 40/40/40 38/38/38 
f 41/41/41 40/40/40 39/39/39 
f 41/41/41 42/42/42 40/40/40 
f 43/43/43 42/42/42 41/41/41 
f 44/44/44 45/45/45 46/46/46 
f 47/47/47 48/48/48 49/49/49 
f 47/47/47 49/49/49 50/50/50 
f 47/47/47 50/50/50 51/51/51 
f 51/51/51 50/50/50 52/52/52 
f 52/52/52 50/50/50 53/53/53 
f 52/52/52 53/53/53 54/54/54 
f 54/54/54 53/53/53 25/25/25 
f 26/26/26 25/25/25 53/53/53 
f 53/53/53 55/55/55 26/26/26 
f 56/56/56 57/57/57 58/58/58 
f 59/59/59 57/57/57 56/56/56 
f 59/59/59 60/60/60 57/57/57 
f 46/46/46 60/60/60 59/59/59 
f 46/46/46 45/45/45 60/60/60 
f 60/60/60 45/45/45 61/61/61 
f 62/62/62 63/63/63 64/64/64 
f 65/65/65 62/62/62 64/64/64 
f 66/66/66 65/65/65 64/64/64 
f 58/58/58 57/57/57 67/67/67 
f 58/58/58 67/67/67 68/68/68 
f 69/69/69 55/55/55 70/70/70 
f 71/71/71 55/55/55 69/69/69 
f 55/55/55 71/71/71 26/26/26 
f 72/72/72 73/73/73 74/74/74 
f 72/72/72 74/74/74 75/75/75 
f 72/72/72 75/75/75 76/76/76 
f 77/77/77 78/78/78 79/79/79 
f 80/80/80 81/81/81 82/82/82 
f 83/83/83 82/82/82 81/81/81 
f 84/84/84 82/82/82 83/83/83 
f 85/85/85 3/3/3 2/2/2 
f 86/86/86 3/3/3 85/85/85 
f 87/87/87 3/3/3 86/86/86 
f 88/88/88 3/3/3 87/87/87 
f 89/89/89 90/90/90 91/91/91 
f 92/92/92 93/93/93 94/94/94 
f 95/95/95 93/93/93 92/92/92 
f 96/96/96 93/93/93 95/95/95 
f 96/96/96 97/97/97 93/93/93 
f 98/98/98 97/97/97 96/96/96 
f 99/99/99 97/97/97 98/98/98 
f 99/99/99 100/100/100 97/97/97 
f 101/101/101 100/100/100 99/99/99 
f 102/102/102 100/100/100 101/101/101 
f 100/100/100 102/102/102 103/103/103 
f 100/100/100 103/103/103 104/104/104 
f 105/105/105 106/106/106 107/107/107 
f 107/107/107 43/43/43 105/105/105 
f 108/108/108 43/43/43 107/107/107 
f 109/109/109 61/61/61 45/45/45 
f 110/110/110 61/61/61 109/109/109 
f 61/61/61 110/110/110 111/111/111 
f 63/63/63 112/112/112 64/64/64 
f 64/64/64 112/112/112 113/113/113 
f 114/114/114 64/64/64 113/113/113 
f 115/115/115 64/64/64 114/114/114 
f 116/116/116 117/117/117 118/118/118 
f 118/118/118 117/117/117 119/119/119 
f 117/117/117 120/120/120 119/119/119 
f 114/114/114 113/113/113 121/121/121 
f 113/113/113 122/122/122 121/121/121 
f 123/123/123 124/124/124 125/125/125 
f 123/123/123 125/125/125 126/126/126 
f 123/123/123 126/126/126 120/120/120 
f 123/123/123 120/120/120 127/127/127 
f 120/120/120 126/126/126 119/119/119 
f 119/119/119 126/126/126 128/128/128 
f 126/126/126 129/129/129 128/128/128 
f 130/130/130 131/131/131 132/132/132 
f 131/131/131 130/130/130 133/133/133 
f 129/129/129 134/134/134 135/135/135 
f 128/128/128 129/129/129 135/135/135 
f 135/135/135 134/134/134 136/136/136 
f 107/107/107 106/106/106 137/137/137 
f 130/130/130 132/132/132 138/138/138 
f 138/138/138 139/139/139 130/130/130 
f 140/140/140 139/139/139 138/138/138 
f 139/139/139 140/140/140 141/141/141 
f 139/139/139 141/141/141 142/142/142 
f 139/139/139 142/142/142 143/143/143 
f 144/144/144 111/111/111 145/145/145 
f 146/146/146 111/111/111 144/144/144 
f 124/124/124 147/147/147 125/125/125 
f 147/147/147 148/148/148 125/125/125 
f 148/148/148 149/149/149 125/125/125 
f 125/125/125 149/149/149 150/150/150 
f 150/150/150 149/149/149 151/151/151 
f 151/151/151 149/149/149 152/152/152 
f 152/152/152 149/149/149 153/153/153 
f 145/145/145 111/111/111 154/154/154 
f 130/130/130 139/139/139 155/155/155 
f 130/130/130 155/155/155 156/156/156 
f 130/130/130 156/156/156 157/157/157 
f 111/111/111 110/110/110 154/154/154 
f 105/105/105 43/43/43 158/158/158 
f 159/159/159 97/97/97 100/100/100 
f 97/97/97 159/159/159 160/160/160 
f 10/10/10 12/12/12 161/161/161 
f 41/41/41 162/162/162 158/158/158 
f 43/43/43 41/41/41 158/158/158 
f 97/97/97 163/163/163 93/93/93 
f 163/163/163 97/97/97 164/164/164 
f 66/66/66 64/64/64 165/165/165 
f 166/166/166 66/66/66 165/165/165 
f 167/167/167 67/67/67 168/168/168 
f 68/68/68 67/67/67 167/167/167 
f 76/76/76 75/75/75 169/169/169 
f 167/167/167 168/168/168 170/170/170 
f 171/171/171 170/170/170 168/168/168 
f 172/172/172 170/170/170 171/171/171 
f 170/170/170 172/172/172 173/173/173 
f 174/174/174 175/175/175 176/176/176 
f 174/174/174 176/176/176 177/177/177 
f 176/176/176 178/178/178 177/177/177 
f 176/176/176 179/179/179 178/178/178 
f 180/180/180 179/179/179 176/176/176 
f 181/181/181 166/166/166 182/182/182 
f 182/182/182 166/166/166 165/165/165 
f 165/165/165 183/183/183 182/182/182 
f 184/184/184 183/183/183 165/165/165 
f 183/183/183 184/184/184 185/185/185 
f 186/186/186 178/178/178 187/187/187 
f 186/186/186 188/188/188 178/178/178 
f 91/91/91 90/90/90 189/189/189 
f 91/91/91 189/189/189 190/190/190 
f 91/91/91 190/190/190 191/191/191 
f 91/91/91 191/191/191 192/192/192 
f 193/193/193 194/194/194 195/195/195 
f 92/92/92 94/94/94 196/196/196 
f 197/197/197 184/184/184 198/198/198 
f 199/199/199 184/184/184 197/197/197 
f 185/185/185 184/184/184 199/199/199 
f 200/200/200 201/201/201 187/187/187 
f 192/192/192 191/191/191 202/202/202 
f 201/201/201 203/203/203 187/187/187 
f 186/186/186 187/187/187 203/203/203 
f 204/204/204 178/178/178 188/188/188 
f 204/204/204 177/177/177 178/178/178 
f 205/205/205 206/206/206 207/207/207 
f 206/206/206 205/205/205 208/208/208 
f 209/209/209 205/205/205 210/210/210 
f 211/211/211 205/205/205 209/209/209 
f 212/212/212 205/205/205 211/211/211 
f 208/208/208 205/205/205 212/212/212 
