v 0.746617 -0.208833 0.0757664
v 0.744154 -0.0947562 0.0370324
v 0.751893 -0.249103 0.109485
v 0.743091 -0.278571 0.121643
v 0.746617 -0.208832 0.0757664
v 0.751893 -0.249103 0.109485
v 0.749511 -0.272755 0.123871
v 0.739954 -0.276262 0.134477
v 0.743091 -0.278571 0.121643
v 0.751828 -0.270656 0.124676
v 0.746647 -0.267733 0.143466
v 0.753068 -0.269532 0.125106
v 0.758923 -0.258123 0.143643
v 0.75441 -0.268317 0.125572
v 0.75441 -0.268317 0.125573
v 0.758923 -0.258123 0.143643
v 0.753195 -0.259039 0.117805
v 0.753195 -0.259039 0.117805
v 0.749511 -0.272755 0.123871
v 0.751828 -0.270656 0.124676
v 0.753068 -0.269532 0.125106
v 0.75441 -0.268317 0.125573
v 0.762154 -0.242362 0.154538
v 0.758923 -0.258123 0.143643
v 0.762154 -0.242362 0.154538
v 0.746647 -0.267733 0.143466
v 0.726786 -0.235286 0.182528
v 0.738017 -0.274489 0.143341
v 0.739321 -0.275696 0.137338
v 0.738017 -0.274489 0.143341
v 0.739349 -0.275722 0.137208
v 0.739842 -0.276179 0.134937
v 0.739594 -0.0656128 0.0444809
v 0.746434 -0.0764744 0.0429894
v 0.744154 -0.0947562 0.0370324
v 0.746763 -0.0738361 0.0438491
v 0.746763 -0.0738361 0.0438491
v 0.785022 -0.130814 0.231645
v 0.746434 -0.0764744 0.0429894
v 0.747467 -0.0681831 0.0456911
v 0.748294 -0.0615548 0.0478509
v 0.750131 -0.0468191 0.0526525
v 0.790008 -0.106493 0.248457
v 0.694578 -0.122861 0.294908
v 0.785022 -0.130814 0.231645
v 0.790008 -0.106493 0.248457
v 0.76618 -0.222726 0.168111
v 0.76618 -0.222726 0.168111
v 0.682997 0.18317 0.283025
v 0.812679 0.0554061 0.312518
v 0.680417 0.215922 0.21831
v 0.81345 0.0527768 0.316662
v 0.683804 0.172928 0.303263
v 0.818871 0.0343001 0.34578
v 0.80814 0.0388098 0.356211
v 0.818871 0.0343001 0.34578
v 0.80814 0.0388098 0.356211
v 0.815977 0.0201825 0.336022
v 0.815977 0.0201825 0.336022
v 0.81345 0.0527769 0.316662
v 0.818871 0.0343001 0.34578
v 0.814368 0.0123345 0.330597
v 0.812679 0.0554061 0.312518
v 0.809818 -0.00985876 0.315256
v 0.810002 0.0645288 0.298141
v 0.810003 0.0645287 0.298141
v 0.783957 0.153304 0.158236
v 0.687902 0.229875 0.174737
v 0.78135 0.162189 0.144232
v 0.690052 0.233882 0.162223
v 0.780508 0.165062 0.139704
v 0.696375 0.245669 0.125413
v 0.777729 0.174533 0.124779
v 0.777729 0.174533 0.124779
v 0.696375 0.245669 0.125413
v 0.750131 -0.0468191 0.0526524
v 0.748294 -0.0615549 0.0478509
v 0.747468 -0.0681832 0.0456911
v 0.777729 0.174533 0.124779
v 0.780508 0.165062 0.139704
v 0.78135 0.162189 0.144232
v 0.783957 0.153304 0.158236
v 0.798272 -0.066183 0.276322
v 0.798196 -0.0665508 0.276067
v 0.798196 -0.0665508 0.276067
v 0.798272 -0.066183 0.276322
v 0.693929 -0.0894754 0.322687
v 0.80218 -0.0471203 0.289499
v 0.804238 -0.0370802 0.296439
v 0.692772 -0.0299591 0.372208
v 0.809818 -0.00985877 0.315256
v 0.814368 0.0123345 0.330597
v 0.692039 0.0077429 0.403578
v 0.788652 0.0469994 0.375151
v 0.691159 0.0530532 0.441279
v 0.73903 0.0678522 0.423379
v 0.690475 0.0882573 0.470571
v 0.68551 0.151278 0.346044
v 0.788652 0.0469994 0.375151
v 0.686695 0.136238 0.375762
v 0.73903 0.0678522 0.423379
v 0.687701 0.123464 0.401004
v 0.689138 0.105229 0.437036
v 0.690475 0.0882573 0.470571
v 0.804238 -0.0370802 0.296439
v 0.80218 -0.0471203 0.289499
v 0.744154 -0.0947561 0.0370323
v 0.746617 -0.208832 0.0757661
v 0.739954 -0.276262 0.134477
v 0.743091 -0.278571 0.121643
v 0.739594 -0.0656128 0.0444809
v 0.739842 -0.276179 0.134937
v 0.694578 -0.122861 0.294908
v 0.680417 0.215922 0.21831
v 0.726786 -0.235286 0.182528
v 0.680417 0.215922 0.21831
v 0.694578 -0.122861 0.294908
v 0.682997 0.18317 0.283025
v 0.689138 0.105229 0.437036
v 0.691159 0.0530532 0.441279
v 0.690475 0.0882573 0.470571
v 0.692039 0.00774293 0.403578
v 0.687701 0.123464 0.401004
v 0.692772 -0.029959 0.372208
v 0.686695 0.136238 0.375762
v 0.68551 0.151278 0.346044
v 0.693929 -0.0894754 0.322687
v 0.683804 0.172928 0.303263
v 0.690052 0.233882 0.162223
v 0.696375 0.245669 0.125413
v 0.739349 -0.275722 0.137208
v 0.687902 0.229875 0.174737
v 0.73932 -0.275696 0.137338
v 0.738017 -0.274489 0.143341
vt -0.171663 -0.234297
vt -0.0574334 -0.195937
vt -0.211987 -0.268362
vt -0.0528393 -0.614013
vt 0.025237 -0.584272
vt -0.0198482 -0.611727
vt -0.0704223 0.424298
vt -0.0593739 0.4146
vt -0.0727443 0.41566
vt -0.0695842 0.427416
vt -0.0500098 0.425119
vt -0.0691357 0.429084
vt -0.0498253 0.440709
vt -0.0686503 0.43089
vt -0.231227 -0.284615
vt -0.22102 -0.303232
vt -0.221937 -0.276767
vt -0.0309728 -0.618501
vt -0.046328 -0.620146
vt -0.043978 -0.62236
vt -0.0427203 -0.623544
vt -0.0413592 -0.624826
vt -0.205237 -0.314567
vt -0.562882 -0.10854
vt -0.566474 -0.0894436
vt -0.549238 -0.116084
vt -0.527163 -0.066225
vt -0.539646 -0.121387
vt -0.0563931 0.414447
vt -0.0501395 0.41416
vt -0.0565288 0.414454
vt -0.058895 0.414563
vt -0.73349 0.0503634
vt -0.740524 0.0612037
vt -0.73818 0.0804237
vt -0.740862 0.05843
vt -0.0364853 -0.203155
vt -0.0935394 -0.394786
vt -0.0391271 -0.202245
vt -0.0308247 -0.205105
vt -0.0241875 -0.207392
vt -0.00943202 -0.212476
vt -0.0691863 -0.412276
vt -0.491364 0.0919658
vt -0.591891 0.0457064
vt -0.597432 0.0751726
vt -0.570948 -0.0656532
vt -0.185575 -0.328688
vt 0.0704986 -0.392366
vt 0.101785 -0.574113
vt 0.00184849 -0.368817
vt 0.10618 -0.576427
vt 0.0919674 -0.39973
vt 0.13707 -0.592692
vt 0.148134 -0.581653
vt -0.629513 0.245756
vt -0.617585 0.255856
vt -0.626297 0.228651
vt 0.0576595 -0.503375
vt 0.0902975 -0.483923
vt 0.071796 -0.513527
vt 0.049801 -0.497731
vt 0.0929303 -0.479711
vt 0.0275779 -0.48177
vt 0.102065 -0.465095
vt 0.0865339 -0.566082
vt -0.0618783 -0.487936
vt -0.0443736 -0.365235
vt -0.0767328 -0.480115
vt -0.0576486 -0.364207
vt -0.081536 -0.477586
vt -0.0966962 -0.361181
vt -0.097369 -0.469249
vt -0.772706 -0.202687
vt -0.689048 -0.271101
vt -0.744326 0.0300264
vt -0.742437 0.0455184
vt -0.741587 0.0524869
vt 0.212217 -0.288846
vt 0.202734 -0.30402
vt 0.199857 -0.308623
vt 0.190959 -0.32286
vt -0.0288219 -0.441265
vt -0.0291902 -0.441001
vt -0.606534 0.123566
vt -0.606618 0.124012
vt -0.490643 0.135396
vt -0.610961 0.147108
vt -0.613249 0.159273
vt -0.489357 0.212819
vt -0.619451 0.192254
vt -0.624508 0.219143
vt -0.488543 0.261863
vt -0.595925 0.274198
vt -0.487564 0.320806
vt -0.540772 0.320901
vt -0.486803 0.366601
vt 0.137349 -0.415297
vt 0.168226 -0.561605
vt 0.168874 -0.42611
vt 0.219386 -0.510559
vt 0.195651 -0.435295
vt 0.233874 -0.448407
vt 0.269448 -0.460609
vt 0.000319945 -0.462194
vt -0.0097336 -0.454974
vt 0.656012 0.572108
vt 0.692204 0.531973
vt 0.708613 0.458005
vt 0.71124 0.476297
vt 0.644352 0.55803
vt 0.708518 0.45735
vt 0.65297 0.300462
vt 0.547037 0.39218
vt 0.69351 0.410486
vt 0.547037 0.392179
vt 0.65297 0.300462
vt 0.477112 0.344739
vt 0.310702 0.23184
vt 0.337583 0.222799
vt 0.274467 0.207257
vt 0.418817 0.242803
vt 0.349635 0.258254
vt 0.486411 0.259447
vt 0.376909 0.276758
vt 0.40902 0.298543
vt 0.593114 0.285723
vt 0.455245 0.329904
vt 0.543455 0.450073
vt 0.541104 0.488068
vt 0.708283 0.455053
vt 0.544254 0.437156
vt 0.708269 0.454921
vt 0.707646 0.448851
vn 0.975372 -0.0517435 -0.21441
vn 0.975372 -0.0517435 -0.21441
vn 0.975372 -0.0517435 -0.21441
vn 0.627895 -0.449649 -0.635267
vn 0.627895 -0.449649 -0.635267
vn 0.627895 -0.449649 -0.635267
vn 0.589184 -0.757811 0.280328
vn 0.589184 -0.757811 0.280328
vn 0.589184 -0.757811 0.280328
vn 0.589184 -0.757811 0.280328
vn 0.589184 -0.757811 0.280328
vn 0.589184 -0.757811 0.280328
vn 0.589184 -0.757811 0.280328
vn 0.589184 -0.757811 0.280328
vn 0.975372 -0.0517435 -0.21441
vn 0.975372 -0.0517435 -0.21441
vn 0.975372 -0.0517435 -0.21441
vn 0.627895 -0.449649 -0.635267
vn 0.627895 -0.449649 -0.635267
vn 0.627895 -0.449649 -0.635267
vn 0.627895 -0.449649 -0.635267
vn 0.627895 -0.449649 -0.635267
vn 0.975372 -0.0517435 -0.21441
vn 0.436503 -0.570427 0.695757
vn 0.436503 -0.570427 0.695757
vn 0.436503 -0.570427 0.695757
vn 0.436503 -0.570427 0.695757
vn 0.436503 -0.570427 0.695757
vn 0.589184 -0.757811 0.280328
vn 0.589184 -0.757811 0.280328
vn 0.589184 -0.757811 0.280328
vn 0.589184 -0.757811 0.280328
vn 0.233089 0.274885 -0.932796
vn 0.233089 0.274885 -0.932796
vn 0.233089 0.274885 -0.932796
vn 0.233089 0.274885 -0.932796
vn 0.975372 -0.0517435 -0.21441
vn 0.975372 -0.0517435 -0.21441
vn 0.975372 -0.0517435 -0.21441
vn 0.975372 -0.0517435 -0.21441
vn 0.975372 -0.0517435 -0.21441
vn 0.975372 -0.0517435 -0.21441
vn 0.975372 -0.0517435 -0.21441
vn 0.436503 -0.570427 0.695757
vn 0.436503 -0.570427 0.695757
vn 0.436503 -0.570427 0.695757
vn 0.436503 -0.570427 0.695757
vn 0.975372 -0.0517435 -0.21441
vn 0.621996 0.70836 0.333686
vn 0.621996 0.70836 0.333686
vn 0.621996 0.70836 0.333686
vn 0.621996 0.70836 0.333686
vn 0.621996 0.70836 0.333686
vn 0.621996 0.70836 0.333686
vn 0.621996 0.70836 0.333686
vn 0.436503 -0.570427 0.695757
vn 0.436503 -0.570427 0.695757
vn 0.436503 -0.570427 0.695757
vn 0.975372 -0.0517435 -0.21441
vn 0.975372 -0.0517435 -0.21441
vn 0.975372 -0.0517435 -0.21441
vn 0.975372 -0.0517435 -0.21441
vn 0.975372 -0.0517435 -0.21441
vn 0.975372 -0.0517435 -0.21441
vn 0.975372 -0.0517435 -0.21441
vn 0.621996 0.70836 0.333686
vn 0.621996 0.70836 0.333686
vn 0.621996 0.70836 0.333686
vn 0.621996 0.70836 0.333686
vn 0.621996 0.70836 0.333686
vn 0.621996 0.70836 0.333686
vn 0.621996 0.70836 0.333686
vn 0.621996 0.70836 0.333686
vn 0.233089 0.274885 -0.932796
vn 0.233089 0.274885 -0.932796
vn 0.233089 0.274885 -0.932796
vn 0.233089 0.274885 -0.932796
vn 0.233089 0.274885 -0.932796
vn 0.975372 -0.0517435 -0.21441
vn 0.975372 -0.0517435 -0.21441
vn 0.975372 -0.0517435 -0.21441
vn 0.975372 -0.0517435 -0.21441
vn 0.975372 -0.0517435 -0.21441
vn 0.975372 -0.0517435 -0.21441
vn 0.436503 -0.570427 0.695757
vn 0.436503 -0.570427 0.695757
vn 0.436503 -0.570427 0.695757
vn 0.436503 -0.570427 0.695757
vn 0.436503 -0.570427 0.695757
vn 0.436503 -0.570427 0.695757
vn 0.436503 -0.570427 0.695757
vn 0.436503 -0.570427 0.695757
vn 0.436503 -0.570427 0.695757
vn 0.436503 -0.570427 0.695757
vn 0.436503 -0.570427 0.695757
vn 0.436503 -0.570427 0.695757
vn 0.436503 -0.570427 0.695757
vn 0.621996 0.70836 0.333686
vn 0.621996 0.70836 0.333686
vn 0.621996 0.70836 0.333686
vn 0.621996 0.70836 0.333686
vn 0.621996 0.70836 0.333686
vn 0.621996 0.70836 0.333686
vn 0.621996 0.70836 0.333686
vn 0.975372 -0.0517435 -0.21441
vn 0.975372 -0.0517435 -0.21441
vn -0.970781 -0.0956809 -0.220065
vn -0.970781 -0.0956809 -0.220065
vn -0.970781 -0.0956809 -0.220065
vn -0.970781 -0.0956809 -0.220065
vn -0.970781 -0.0956809 -0.220065
vn -0.970781 -0.0956809 -0.220065
vn -0.973062 -0.0919637 -0.211406
vn -0.97374 -0.0908271 -0.208758
vn -0.971449 -0.0946094 -0.217569
vn -0.999093 -0.0369884 0.0211155
vn -0.999093 -0.0369884 0.0211155
vn -0.999093 -0.0369884 0.0211155
vn -0.999093 -0.0369884 0.0211155
vn -0.999093 -0.0369884 0.0211155
vn -0.999093 -0.0369884 0.0211155
vn -0.999093 -0.0369884 0.0211155
vn -0.999093 -0.0369884 0.0211155
vn -0.999093 -0.0369884 0.0211155
vn -0.999093 -0.0369884 0.0211155
vn -0.999093 -0.0369884 0.0211155
vn -0.999093 -0.0369884 0.0211155
vn -0.999093 -0.0369884 0.0211155
vn -0.973266 -0.0916247 -0.210616
vn -0.972952 -0.0921479 -0.211835
vn -0.970807 -0.0956403 -0.219971
vn -0.973372 -0.0914468 -0.210202
vn -0.970808 -0.095638 -0.219965
vn -0.970875 -0.0955308 -0.219716
f 1/1/1 2/2/2 3/3/3 
f 4/4/4 5/5/5 6/6/6 
f 7/7/7 8/8/8 9/9/9 
f 10/10/10 8/8/8 7/7/7 
f 10/10/10 11/11/11 8/8/8 
f 12/12/12 11/11/11 10/10/10 
f 12/12/12 13/13/13 11/11/11 
f 14/14/14 13/13/13 12/12/12 
f 15/15/15 2/2/2 16/16/16 
f 17/17/17 2/2/2 15/15/15 
f 3/3/3 2/2/2 17/17/17 
f 6/6/6 18/18/18 4/4/4 
f 18/18/18 19/19/19 4/4/4 
f 18/18/18 20/20/20 19/19/19 
f 18/18/18 21/21/21 20/20/20 
f 21/21/21 18/18/18 22/22/22 
f 16/16/16 2/2/2 23/23/23 
f 24/24/24 25/25/25 26/26/26 
f 26/26/26 25/25/25 27/27/27 
f 26/26/26 27/27/27 28/28/28 
f 29/29/29 11/11/11 30/30/30 
f 31/31/31 11/11/11 29/29/29 
f 11/11/11 31/31/31 32/32/32 
f 11/11/11 32/32/32 8/8/8 
f 33/33/33 34/34/34 35/35/35 
f 34/34/34 33/33/33 36/36/36 
f 37/37/37 38/38/38 39/39/39 
f 40/40/40 38/38/38 37/37/37 
f 41/41/41 38/38/38 40/40/40 
f 42/42/42 38/38/38 41/41/41 
f 38/38/38 42/42/42 43/43/43 
f 44/44/44 45/45/45 46/46/46 
f 45/45/45 44/44/44 47/47/47 
f 38/38/38 48/48/48 2/2/2 
f 39/39/39 38/38/38 2/2/2 
f 23/23/23 2/2/2 48/48/48 
f 27/27/27 25/25/25 47/47/47 
f 47/47/47 44/44/44 27/27/27 
f 49/49/49 50/50/50 51/51/51 
f 49/49/49 52/52/52 50/50/50 
f 53/53/53 52/52/52 49/49/49 
f 53/53/53 54/54/54 52/52/52 
f 55/55/55 54/54/54 53/53/53 
f 56/56/56 57/57/57 58/58/58 
f 59/59/59 60/60/60 61/61/61 
f 62/62/62 60/60/60 59/59/59 
f 63/63/63 60/60/60 62/62/62 
f 63/63/63 62/62/62 64/64/64 
f 65/65/65 63/63/63 64/64/64 
f 51/51/51 50/50/50 66/66/66 
f 51/51/51 66/66/66 67/67/67 
f 67/67/67 68/68/68 51/51/51 
f 69/69/69 68/68/68 67/67/67 
f 69/69/69 70/70/70 68/68/68 
f 71/71/71 70/70/70 69/69/69 
f 71/71/71 72/72/72 70/70/70 
f 73/73/73 72/72/72 71/71/71 
f 74/74/74 33/33/33 75/75/75 
f 76/76/76 33/33/33 74/74/74 
f 77/77/77 33/33/33 76/76/76 
f 33/33/33 77/77/77 78/78/78 
f 36/36/36 33/33/33 78/78/78 
f 42/42/42 79/79/79 80/80/80 
f 42/42/42 80/80/80 81/81/81 
f 42/42/42 81/81/81 82/82/82 
f 42/42/42 82/82/82 83/83/83 
f 84/84/84 42/42/42 83/83/83 
f 43/43/43 42/42/42 84/84/84 
f 44/44/44 46/46/46 85/85/85 
f 44/44/44 85/85/85 86/86/86 
f 86/86/86 87/87/87 44/44/44 
f 88/88/88 87/87/87 86/86/86 
f 89/89/89 87/87/87 88/88/88 
f 89/89/89 90/90/90 87/87/87 
f 91/91/91 90/90/90 89/89/89 
f 92/92/92 90/90/90 91/91/91 
f 92/92/92 93/93/93 90/90/90 
f 58/58/58 93/93/93 92/92/92 
f 58/58/58 57/57/57 93/93/93 
f 93/93/93 57/57/57 94/94/94 
f 94/94/94 95/95/95 93/93/93 
f 96/96/96 95/95/95 94/94/94 
f 97/97/97 95/95/95 96/96/96 
f 98/98/98 55/55/55 53/53/53 
f 98/98/98 99/99/99 55/55/55 
f 98/98/98 100/100/100 99/99/99 
f 101/101/101 99/99/99 100/100/100 
f 102/102/102 101/101/101 100/100/100 
f 102/102/102 103/103/103 101/101/101 
f 103/103/103 104/104/104 101/101/101 
f 65/65/65 64/64/64 105/105/105 
f 106/106/106 65/65/65 105/105/105 
f 65/65/65 106/106/106 82/82/82 
f 106/106/106 83/83/83 82/82/82 
f 107/107/107 108/108/108 109/109/109 
f 109/109/109 108/108/108 110/110/110 
f 111/111/111 109/109/109 112/112/112 
f 107/107/107 109/109/109 111/111/111 
f 113/113/113 114/114/114 115/115/115 
f 116/116/116 117/117/117 118/118/118 
f 119/119/119 120/120/120 121/121/121 
f 119/119/119 122/122/122 120/120/120 
f 123/123/123 122/122/122 119/119/119 
f 123/123/123 124/124/124 122/122/122 
f 125/125/125 124/124/124 123/123/123 
f 126/126/126 124/124/124 125/125/125 
f 126/126/126 127/127/127 124/124/124 
f 128/128/128 127/127/127 126/126/126 
f 128/128/128 117/117/117 127/127/127 
f 118/118/118 117/117/117 128/128/128 
f 111/111/111 129/129/129 130/130/130 
f 112/112/112 129/129/129 111/111/111 
f 131/131/131 129/129/129 112/112/112 
f 131/131/131 132/132/132 129/129/129 
f 133/133/133 132/132/132 131/131/131 
f 133/133/133 115/115/115 132/132/132 
f 134/134/134 115/115/115 133/133/133 
f 115/115/115 114/114/114 132/132/132 
