v -0.747923 2.26342 0.418991
v -0.719109 2.30875 0.352131
v -0.722666 2.30619 0.353043
v -0.747923 2.26342 0.418991
v -0.661057 2.34369 0.333225
v -0.719109 2.30875 0.352131
v -0.646467 2.35247 0.328474
v -0.639234 2.35683 0.326119
v -0.74458 2.25676 0.435709
v -0.639234 2.35683 0.326119
v -0.74458 2.25676 0.435709
v -0.584616 2.37985 0.302494
v -0.639234 2.35683 0.326119
v -0.584616 2.37985 0.302494
v -0.607061 2.24076 0.235425
v -0.646467 2.35247 0.328474
v -0.661057 2.34369 0.333225
v -0.685821 2.20115 0.265691
v -0.719109 2.30875 0.352131
v -0.722666 2.30619 0.353043
v -0.689275 2.19942 0.267018
v -0.690543 2.19878 0.267506
v -0.730136 2.30082 0.354958
v -0.730136 2.30082 0.354958
v -0.757113 2.28143 0.361874
v -0.747923 2.26342 0.418991
v -0.757113 2.28143 0.361874
v -0.692749 2.14304 0.290636
v -0.727985 2.22185 0.446913
v -0.679772 2.11574 0.299447
v -0.557509 1.86109 0.481188
v -0.580386 1.90665 0.366923
v -0.580386 1.90665 0.366923
v -0.295873 1.92704 0.50502
v -0.557509 1.86109 0.481188
v -0.459618 1.96244 0.322533
v -0.440024 1.97149 0.315331
v -0.387438 1.99578 0.296003
v -0.341894 2.01681 0.279263
v -0.267503 2.05118 0.25192
v -0.177941 2.09255 0.219
v -0.143018 2.08659 0.254433
v -0.0322915 2.06772 0.366776
v 0.0274779 2.05753 0.427418
v -0.0507321 1.98661 0.532198
v -0.123889 1.93743 0.59273
v -0.123889 1.93743 0.59273
v -0.1558 2.1447 0.5305
v -0.295873 1.92704 0.50502
v -0.1558 2.1447 0.5305
v -0.123889 1.93743 0.592731
v -0.0728138 1.96548 0.564195
v -0.0728138 1.96548 0.564195
v -0.0809451 2.25731 0.397634
v -0.1558 2.1447 0.5305
v -0.0798882 2.25599 0.397492
v -0.0744773 2.24921 0.396763
v -0.0507321 1.98661 0.532198
v 0.0229463 2.10033 0.440377
v -0.0744773 2.24921 0.396763
v -0.0507321 1.98661 0.532198
v -0.0322915 2.06772 0.366776
v -0.0744828 2.24921 0.396768
v 0.0229464 2.10034 0.440377
v -0.143018 2.08659 0.254433
v -0.101975 2.28331 0.381156
v -0.101975 2.28331 0.381156
v -0.0798883 2.25599 0.397492
v -0.0744774 2.24921 0.396763
v -0.0809453 2.25731 0.397634
v -0.104295 2.28618 0.379839
v -0.101125 2.28256 0.400352
v -0.118738 2.30409 0.371635
v -0.105206 2.28766 0.400902
v -0.119668 2.30524 0.371107
v -0.119668 2.30524 0.371107
v -0.4603 2.0963 0.3818
v -0.105206 2.28766 0.400902
v -0.124414 2.30651 0.366482
v -0.140484 2.31078 0.35082
v -0.4603 2.0963 0.3818
v -0.140484 2.31078 0.35082
v -0.310076 2.36212 0.285985
v -0.310076 2.36212 0.285985
v -0.740191 2.24773 0.446329
v -0.4603 2.0963 0.3818
v -0.443787 2.3628 0.329443
v -0.740191 2.24773 0.446329
v -0.443787 2.3628 0.329443
v -0.74458 2.25676 0.435709
v -0.740191 2.24773 0.446329
v -0.727986 2.22185 0.446913
v -0.4603 2.0963 0.3818
v -0.727986 2.22185 0.446913
v -0.566839 1.88243 0.540906
v -0.566839 1.88243 0.540906
v -0.507161 1.83171 0.577717
v -0.4603 2.0963 0.3818
v -0.547968 1.84315 0.569715
v -0.507161 1.83171 0.577717
v -0.547968 1.84315 0.569715
v -0.538436 1.8231 0.576455
v -0.507161 1.83171 0.577717
v -0.538437 1.8231 0.576455
v -0.549927 1.84599 0.519061
v -0.295873 1.92704 0.50502
v -0.4603 2.0963 0.3818
v -0.1558 2.1447 0.5305
v -0.101125 2.28256 0.400352
v -0.105206 2.28766 0.400902
v -0.549927 1.84599 0.519061
v -0.566839 1.88243 0.540906
v -0.547968 1.84315 0.569715
v -0.538436 1.8231 0.576455
v -0.45181 2.36378 0.327908
v -0.45181 2.36378 0.327908
v -0.57743 2.38032 0.297874
v -0.584616 2.37985 0.302494
v -0.541862 2.38268 0.275007
v -0.494131 2.38584 0.244319
v -0.541862 2.38268 0.275007
v -0.494131 2.38584 0.244319
v -0.474916 2.34206 0.205277
v -0.489105 2.30009 0.190095
v -0.57743 2.38032 0.297874
v -0.516373 2.28637 0.200574
v -0.516373 2.28637 0.200574
v -0.387438 1.99578 0.296003
v -0.607061 2.24076 0.235425
v -0.437403 2.27129 0.19258
v -0.489105 2.30009 0.190095
v -0.437403 2.27129 0.19258
v -0.489105 2.30009 0.190095
v -0.358948 2.37635 0.239598
v -0.416746 2.25978 0.193572
v -0.341894 2.01681 0.279263
v -0.416746 2.25978 0.193572
v -0.267503 2.05118 0.25192
v -0.366302 2.23168 0.195996
v -0.316596 2.20399 0.198385
v -0.287818 2.18796 0.199767
v -0.177941 2.09255 0.219
v -0.213019 2.1463 0.203361
v -0.213019 2.1463 0.203361
v -0.17398 2.34217 0.327556
v -0.177941 2.09255 0.219
v -0.237131 2.31265 0.246659
v -0.244413 2.36289 0.259735
v -0.244413 2.36289 0.259735
v -0.310076 2.36212 0.285985
v -0.17398 2.34217 0.327556
v -0.271168 2.36604 0.255032
v -0.283517 2.36749 0.25286
v -0.29158 2.36843 0.251443
v -0.312197 2.37086 0.247818
v -0.358948 2.37635 0.239598
v -0.468434 2.38755 0.227798
v -0.443787 2.3628 0.329443
v -0.468434 2.38755 0.227798
v -0.459335 2.38815 0.221948
v -0.459335 2.38815 0.221948
v -0.474916 2.34206 0.205277
v -0.459335 2.38815 0.221948
v -0.312196 2.37086 0.247818
v -0.366302 2.23168 0.195996
v -0.237131 2.31265 0.246659
v -0.29158 2.36843 0.251443
v -0.283517 2.36749 0.25286
v -0.271168 2.36604 0.255032
v -0.244413 2.36289 0.259735
v -0.316596 2.20399 0.198385
v -0.287818 2.18796 0.199767
v -0.213019 2.1463 0.203361
v -0.154386 2.32381 0.341165
v -0.17398 2.34217 0.327556
v -0.154386 2.32381 0.341165
v -0.140483 2.31078 0.35082
v -0.124414 2.30651 0.366482
v -0.104295 2.28618 0.379839
v -0.118738 2.30409 0.371635
v -0.119668 2.30524 0.371107
v -0.692749 2.14304 0.290636
v -0.685821 2.20115 0.265691
v -0.689275 2.19942 0.267018
v -0.690543 2.19878 0.267506
v -0.713707 2.18713 0.276407
v -0.715424 2.19086 0.279788
v -0.713707 2.18713 0.276407
v -0.757113 2.28143 0.361874
v -0.715424 2.19086 0.279788
v -0.713707 2.18713 0.276407
v -0.679772 2.11574 0.299446
v -0.440024 1.97149 0.315331
v -0.459618 1.96244 0.322533
v -0.580386 1.90665 0.366923
v 0.0274779 2.05753 0.427418
v 0.0413815 2.07217 0.448629
v 0.0419126 2.05507 0.442064
v 0.0419127 2.05507 0.442064
v 0.0539109 2.05302 0.454237
v 0.0413814 2.07217 0.448629
v 0.0539109 2.05302 0.454237
v 0.0539109 2.05302 0.454237
v -0.0728137 1.96548 0.564195
vt 0.347685 0.577758
vt 0.340899 0.58316
vt 0.340966 0.58274
vt 0.347685 0.577758
vt 0.338303 0.589886
vt 0.340899 0.58316
vt 0.33765 0.591577
vt 0.337327 0.592415
vt 0.349238 0.577506
vt 0.337327 0.592415
vt 0.349238 0.577506
vt 0.335477 0.59907
vt 2.07707 0.711845
vt 2.1027 0.653412
vt 1.94786 0.634157
vt 2.07223 0.719147
vt 2.06245 0.733877
vt 1.90376 0.716275
vt 2.02355 0.792487
vt 2.0207 0.79594
vt 1.90182 0.719877
vt 1.90111 0.7212
vt 2.01472 0.803189
vt 0.341106 0.581859
vt 0.341613 0.578677
vt 0.422163 -2.36626
vt 0.365042 -2.38647
vt 0.293799 -2.23384
vt 0.450086 -2.32016
vt 0.30261 -2.20362
vt 0.484363 -1.92115
vt 0.370091 -1.97211
vt 0.0739062 -0.459634
vt -0.220582 -0.342539
vt 0.0502275 -0.336771
vt -0.051096 -0.523209
vt -0.0713767 -0.533523
vt -0.125807 -0.561206
vt -0.172947 -0.585181
vt -0.249946 -0.624342
vt -0.342648 -0.67149
vt -0.378796 -0.636792
vt -0.493404 -0.526781
vt -0.555269 -0.467397
vt -0.474317 -0.342611
vt -0.398595 -0.267103
vt 0.415877 0.60809
vt 0.3911 0.636
vt 0.403716 0.591121
vt 0.3911 0.636
vt 0.415877 0.60809
vt 0.416849 0.617166
vt 0.375945 0.663147
vt 0.352475 0.655654
vt 0.3911 0.636
vt 0.352194 0.655983
vt 0.350759 0.657667
vt 0.365651 0.669158
vt 0.350223 0.671645
vt 0.350759 0.657667
vt 0.365651 0.669158
vt 2.06372 -0.247915
vt 2.25235 -0.241394
vt 2.09762 -0.339474
vt 2.08334 -0.0902677
vt 2.28778 -0.211286
vt 0.394835 1.84616
vt 0.411171 1.81103
vt 0.410442 1.80236
vt 0.411314 1.81272
vt 0.393517 1.84985
vt 0.414032 1.84504
vt 0.385313 1.87286
vt 0.414581 1.85158
vt 0.384785 1.87434
vt 0.352851 0.647407
vt 0.3728 0.6015
vt 0.35891 0.648106
vt 0.352039 0.646964
vt 0.349289 0.645466
vt 0.3728 0.6015
vt 0.349289 0.645466
vt 0.344399 0.627508
vt 0.344399 0.627508
vt 0.350721 0.577635
vt 0.3728 0.6015
vt 0.342161 0.613382
vt 0.350721 0.577635
vt 0.342161 0.613382
vt 0.438882 -2.35881
vt 0.449502 -2.34877
vt 0.353919 0.577943
vt 0.3728 0.6015
vt 0.353919 0.577943
vt 0.393687 0.565958
vt 0.393687 0.565958
vt 0.403553 0.56359
vt 0.3728 0.6015
vt 0.399746 0.562172
vt 0.403553 0.56359
vt 0.399746 0.562172
vt 0.401527 0.560479
vt -0.00188634 -0.236772
vt 0.0304858 -0.234337
vt 0.0423794 -0.29605
vt 0.403716 0.591121
vt 0.3728 0.6015
vt 0.3911 0.636
vt 0.357828 0.649376
vt 0.35891 0.648106
vt 0.522238 -1.90425
vt 0.544085 -1.94443
vt 0.572895 -1.90085
vt 0.579636 -1.87865
vt 0.34178 0.612567
vt 0.631109 0.197851
vt 0.757093 0.230781
vt 0.764301 0.226169
vt 0.721422 0.253609
vt 0.673553 0.284245
vt 2.10585 0.602603
vt 2.10938 0.545879
vt 2.06063 0.508004
vt 2.0139 0.51117
vt 2.10323 0.644872
vt 1.99864 0.539601
vt 0.681114 -2.04129
vt 0.550417 -1.73618
vt 0.773042 -1.9859
vt 0.601066 -2.03034
vt 0.653474 -2.05795
vt 0.517546 -2.23476
vt 0.570289 -2.26172
vt 0.437512 -2.34877
vt 0.496473 -2.22398
vt 0.504251 -1.76198
vt 0.580127 -2.01932
vt 0.428844 -1.80412
vt 0.528993 -1.99238
vt 0.478607 -1.96584
vt 0.449436 -1.95048
vt 0.338058 -1.85486
vt 0.373615 -1.91054
vt 2.14539 -0.00527884
vt 2.34895 -0.12308
vt 2.08953 -0.0405454
vt 2.31827 -0.0207925
vt 2.37049 -0.0254779
vt 0.423112 0.264174
vt 0.488965 0.238394
vt 0.352475 0.193461
vt 0.449944 0.269453
vt 0.462329 0.271889
vt 0.470415 0.27348
vt 0.491092 0.277548
vt 0.537979 0.286772
vt 0.647782 0.300738
vt 0.623063 0.196141
vt 2.11127 0.515341
vt 2.11194 0.504528
vt 0.638656 0.306578
vt 0.555814 -2.30626
vt 0.539919 -2.35517
vt 0.389819 -2.34579
vt 0.445014 -2.19768
vt 0.313243 -2.28957
vt 0.368788 -2.34447
vt 0.360562 -2.34396
vt 0.347965 -2.34317
vt 0.320672 -2.34146
vt 0.394307 -2.17176
vt 0.36495 -2.15675
vt 0.288646 -2.11774
vt 0.347961 0.64428
vt 0.346089 0.642609
vt 2.32987 -0.146363
vt 2.31633 -0.162884
vt 2.31189 -0.185291
vt 2.29077 -0.208745
vt 2.30938 -0.192926
vt 2.31058 -0.191908
vt 0.859901 -1.87456
vt 0.852878 -1.93779
vt 0.85638 -1.93568
vt 0.857665 -1.93491
vt 0.881145 -1.92076
vt 0.282951 -2.28677
vt 0.27957 -2.28266
vt 1.99313 0.829372
vt 1.8923 0.748675
vt 1.88815 0.745351
vt 0.846747 -1.84595
vt 0.603723 -1.70639
vt 0.623584 -1.69529
vt 0.746003 -1.62687
vt 2.05313 -0.333012
vt 2.06835 -0.358033
vt 2.05058 -0.353564
vt -0.57021 -0.453056
vt -0.582629 -0.441135
vt 0.350121 0.67429
vt 0.350052 0.676088
vt 2.04845 -0.370646
vt -0.451461 -0.304726
vn -0.492682 0.804055 0.332807
vn -0.492682 0.804055 0.332807
vn -0.492682 0.804055 0.332807
vn -0.370281 0.835178 0.406657
vn -0.370281 0.835178 0.406657
vn -0.370281 0.835178 0.406657
vn -0.370281 0.835178 0.406657
vn -0.370281 0.835178 0.406657
vn -0.370281 0.835178 0.406657
vn -0.0342147 0.754193 0.655761
vn -0.0342147 0.754193 0.655761
vn -0.0342147 0.754193 0.655761
vn -0.506194 0.439509 -0.742023
vn -0.506194 0.439509 -0.742023
vn -0.506194 0.439509 -0.742023
vn -0.506194 0.439509 -0.742023
vn -0.506194 0.439509 -0.742023
vn -0.506194 0.439509 -0.742023
vn -0.506194 0.439509 -0.742023
vn -0.506194 0.439509 -0.742023
vn -0.506194 0.439509 -0.742023
vn -0.506194 0.439509 -0.742023
vn -0.506194 0.439509 -0.742023
vn -0.492682 0.804055 0.332807
vn -0.492682 0.804055 0.332807
vn -0.904486 -0.426359 0.0110779
vn -0.904486 -0.426359 0.0110779
vn -0.904486 -0.426359 0.0110779
vn -0.904486 -0.426359 0.0110779
vn -0.904486 -0.426359 0.0110779
vn -0.904486 -0.426359 0.0110779
vn -0.904486 -0.426359 0.0110779
vn 0.258062 -0.878534 -0.401972
vn 0.258062 -0.878534 -0.401972
vn 0.258062 -0.878534 -0.401972
vn 0.258062 -0.878534 -0.401972
vn 0.258062 -0.878534 -0.401972
vn 0.258062 -0.878534 -0.401972
vn 0.258062 -0.878534 -0.401972
vn 0.258062 -0.878534 -0.401972
vn 0.258062 -0.878534 -0.401972
vn 0.258062 -0.878534 -0.401972
vn 0.258062 -0.878534 -0.401972
vn 0.258062 -0.878534 -0.401972
vn 0.258062 -0.878534 -0.401972
vn 0.258062 -0.878534 -0.401972
vn -0.455084 0.191054 0.869711
vn -0.455084 0.191054 0.869711
vn -0.455084 0.191054 0.869711
vn 0.323607 0.317434 0.891355
vn 0.323607 0.317434 0.891355
vn 0.323607 0.317434 0.891355
vn 0.602923 0.408076 0.685535
vn 0.602923 0.408076 0.685535
vn 0.602923 0.408076 0.685535
vn 0.602923 0.408076 0.685535
vn 0.602923 0.408076 0.685535
vn 0.602923 0.408076 0.685535
vn 0.326927 0.456365 0.827556
vn 0.326927 0.456365 0.827556
vn 0.326927 0.456365 0.827556
vn 0.707787 0.272253 -0.651856
vn 0.707787 0.272253 -0.651856
vn 0.707787 0.272253 -0.651856
vn 0.707787 0.272253 -0.651856
vn 0.707787 0.272253 -0.651856
vn 0.780593 0.624957 -0.0101657
vn 0.780593 0.624957 -0.0101657
vn 0.780593 0.624957 -0.0101657
vn 0.780593 0.624957 -0.0101657
vn 0.780593 0.624957 -0.0101657
vn 0.780593 0.624957 -0.0101657
vn 0.780593 0.624957 -0.0101657
vn 0.780593 0.624957 -0.0101657
vn 0.780593 0.624957 -0.0101657
vn -0.403585 0.688774 0.602253
vn -0.403585 0.688774 0.602253
vn -0.403585 0.688774 0.602253
vn -0.403585 0.688774 0.602253
vn -0.403585 0.688774 0.602253
vn -0.20485 0.432293 0.878157
vn -0.20485 0.432293 0.878157
vn -0.20485 0.432293 0.878157
vn 0.30561 0.165281 0.937702
vn 0.30561 0.165281 0.937702
vn 0.30561 0.165281 0.937702
vn 0.30561 0.165281 0.937702
vn -0.0342147 0.754193 0.655761
vn -0.0342147 0.754193 0.655761
vn -0.904486 -0.426359 0.0110779
vn -0.904486 -0.426359 0.0110779
vn 0.30561 0.165281 0.937702
vn 0.39387 0.414228 0.820537
vn 0.39387 0.414228 0.820537
vn 0.39387 0.414228 0.820537
vn 0.00873557 0.59406 0.804374
vn 0.00873557 0.59406 0.804374
vn 0.00873558 0.59406 0.804374
vn 0.00873557 0.59406 0.804374
vn -0.116511 0.273389 0.954821
vn -0.114288 0.270577 0.95589
vn -0.115722 0.27239 0.955203
vn 0.258062 -0.878534 -0.401972
vn 0.258062 -0.878534 -0.401972
vn 0.258062 -0.878534 -0.401972
vn 0.00873558 0.59406 0.804374
vn -0.455084 0.191054 0.869711
vn -0.403585 0.688774 0.602253
vn 0.602923 0.408076 0.685535
vn 0.602923 0.408076 0.685535
vn -0.904486 -0.426359 0.0110779
vn -0.904486 -0.426359 0.0110779
vn -0.904486 -0.426359 0.0110779
vn -0.904486 -0.426359 0.0110779
vn -0.0342147 0.754193 0.655761
vn 0.0759417 0.972895 0.218422
vn 0.0759417 0.972895 0.218422
vn 0.0759417 0.972895 0.218422
vn 0.0759417 0.972895 0.218422
vn 0.0759417 0.972895 0.218422
vn -0.506194 0.439509 -0.742023
vn -0.506194 0.439509 -0.742023
vn -0.506194 0.439509 -0.742023
vn -0.506194 0.439509 -0.742023
vn -0.506194 0.439509 -0.742023
vn -0.506194 0.439509 -0.742023
vn -0.163649 -0.372579 -0.913457
vn -0.163649 -0.372579 -0.913457
vn -0.163649 -0.372579 -0.913457
vn -0.163649 -0.372579 -0.913457
vn -0.163649 -0.372579 -0.913457
vn 0.197661 0.273647 -0.941301
vn 0.197661 0.273647 -0.941301
vn 0.197661 0.273647 -0.941301
vn 0.197661 0.273647 -0.941301
vn -0.163649 -0.372579 -0.913457
vn -0.163649 -0.372579 -0.913457
vn -0.163649 -0.372579 -0.913457
vn -0.163649 -0.372579 -0.913457
vn -0.163649 -0.372579 -0.913457
vn -0.163649 -0.372579 -0.913457
vn -0.163649 -0.372579 -0.913457
vn -0.163649 -0.372579 -0.913457
vn 0.707787 0.272253 -0.651856
vn 0.707787 0.272253 -0.651856
vn 0.707787 0.272253 -0.651856
vn 0.707787 0.272253 -0.651856
vn 0.707787 0.272253 -0.651856
vn 0.0759417 0.972895 0.218422
vn 0.0759417 0.972895 0.218422
vn 0.0759417 0.972895 0.218422
vn 0.0759417 0.972895 0.218422
vn 0.0759417 0.972895 0.218422
vn 0.0759417 0.972895 0.218422
vn 0.0759417 0.972895 0.218422
vn 0.0759417 0.972895 0.218422
vn 0.0759417 0.972895 0.218422
vn 0.0759417 0.972895 0.218422
vn -0.506194 0.439509 -0.742023
vn -0.506194 0.439509 -0.742023
vn 0.0759417 0.972895 0.218422
vn 0.197661 0.273647 -0.941301
vn 0.197661 0.273647 -0.941301
vn 0.197661 0.273647 -0.941301
vn 0.197661 0.273647 -0.941301
vn 0.197661 0.273647 -0.941301
vn 0.197661 0.273647 -0.941301
vn 0.197661 0.273647 -0.941301
vn 0.197661 0.273647 -0.941301
vn 0.197661 0.273647 -0.941301
vn 0.197661 0.273647 -0.941301
vn 0.197661 0.273647 -0.941301
vn 0.197661 0.273647 -0.941301
vn -0.20485 0.432293 0.878157
vn -0.20485 0.432293 0.878157
vn 0.707787 0.272253 -0.651856
vn 0.707787 0.272253 -0.651856
vn 0.707787 0.272253 -0.651856
vn 0.707787 0.272253 -0.651856
vn 0.707787 0.272253 -0.651856
vn 0.707787 0.272253 -0.651856
vn -0.163649 -0.372579 -0.913457
vn -0.163649 -0.372579 -0.913457
vn -0.163649 -0.372579 -0.913457
vn -0.163649 -0.372579 -0.913457
vn -0.163649 -0.372579 -0.913457
vn -0.904486 -0.426359 0.0110779
vn -0.904486 -0.426359 0.0110779
vn -0.506194 0.439509 -0.742023
vn -0.506194 0.439509 -0.742023
vn -0.506194 0.439509 -0.742023
vn -0.163649 -0.372579 -0.913457
vn -0.163649 -0.372579 -0.913457
vn -0.163649 -0.372579 -0.913457
vn -0.163649 -0.372579 -0.913457
vn 0.707787 0.272253 -0.651856
vn 0.707787 0.272253 -0.651856
vn 0.707787 0.272253 -0.651856
vn 0.258062 -0.878534 -0.401972
vn 0.258062 -0.878534 -0.401972
vn 0.326927 0.456365 0.827556
vn 0.326927 0.456365 0.827556
vn 0.707787 0.272253 -0.651856
vn 0.258062 -0.878534 -0.401972
f 1/1/1 2/2/2 3/3/3 
f 4/4/4 5/5/5 6/6/6 
f 4/4/4 7/7/7 5/5/5 
f 4/4/4 8/8/8 7/7/7 
f 9/9/9 8/8/8 4/4/4 
f 10/10/10 11/11/11 12/12/12 
f 13/13/13 14/14/14 15/15/15 
f 16/16/16 13/13/13 15/15/15 
f 16/16/16 15/15/15 17/17/17 
f 17/17/17 15/15/15 18/18/18 
f 19/19/19 17/17/17 18/18/18 
f 20/20/20 19/19/19 18/18/18 
f 20/20/20 18/18/18 21/21/21 
f 20/20/20 21/21/21 22/22/22 
f 20/20/20 22/22/22 23/23/23 
f 1/1/1 3/3/3 24/24/24 
f 1/1/1 24/24/24 25/25/25 
f 26/26/26 27/27/27 28/28/28 
f 28/28/28 29/29/29 26/26/26 
f 30/30/30 29/29/29 28/28/28 
f 30/30/30 31/31/31 29/29/29 
f 32/32/32 31/31/31 30/30/30 
f 33/33/33 34/34/34 35/35/35 
f 36/36/36 34/34/34 33/33/33 
f 34/34/34 36/36/36 37/37/37 
f 34/34/34 37/37/37 38/38/38 
f 34/34/34 38/38/38 39/39/39 
f 34/34/34 39/39/39 40/40/40 
f 41/41/41 34/34/34 40/40/40 
f 42/42/42 34/34/34 41/41/41 
f 34/34/34 42/42/42 43/43/43 
f 34/34/34 43/43/43 44/44/44 
f 34/34/34 44/44/44 45/45/45 
f 34/34/34 45/45/45 46/46/46 
f 47/47/47 48/48/48 49/49/49 
f 50/50/50 51/51/51 52/52/52 
f 53/53/53 54/54/54 55/55/55 
f 53/53/53 56/56/56 54/54/54 
f 53/53/53 57/57/57 56/56/56 
f 58/58/58 57/57/57 53/53/53 
f 59/59/59 60/60/60 61/61/61 
f 62/62/62 63/63/63 64/64/64 
f 65/65/65 63/63/63 62/62/62 
f 66/66/66 63/63/63 65/65/65 
f 67/67/67 68/68/68 69/69/69 
f 67/67/67 70/70/70 68/68/68 
f 71/71/71 70/70/70 67/67/67 
f 71/71/71 72/72/72 70/70/70 
f 73/73/73 72/72/72 71/71/71 
f 73/73/73 74/74/74 72/72/72 
f 75/75/75 74/74/74 73/73/73 
f 76/76/76 77/77/77 78/78/78 
f 79/79/79 77/77/77 76/76/76 
f 77/77/77 79/79/79 80/80/80 
f 81/81/81 82/82/82 83/83/83 
f 84/84/84 85/85/85 86/86/86 
f 87/87/87 85/85/85 84/84/84 
f 88/88/88 89/89/89 11/11/11 
f 90/90/90 29/29/29 91/91/91 
f 26/26/26 29/29/29 90/90/90 
f 92/92/92 86/86/86 85/85/85 
f 93/93/93 94/94/94 95/95/95 
f 96/96/96 97/97/97 98/98/98 
f 99/99/99 97/97/97 96/96/96 
f 100/100/100 101/101/101 102/102/102 
f 103/103/103 104/104/104 105/105/105 
f 103/103/103 105/105/105 35/35/35 
f 103/103/103 35/35/35 34/34/34 
f 98/98/98 97/97/97 106/106/106 
f 49/49/49 48/48/48 107/107/107 
f 108/108/108 78/78/78 77/77/77 
f 55/55/55 109/109/109 110/110/110 
f 55/55/55 54/54/54 109/109/109 
f 111/111/111 112/112/112 31/31/31 
f 111/111/111 113/113/113 112/112/112 
f 111/111/111 114/114/114 113/113/113 
f 31/31/31 112/112/112 29/29/29 
f 11/11/11 89/89/89 115/115/115 
f 12/12/12 11/11/11 115/115/115 
f 116/116/116 117/117/117 118/118/118 
f 116/116/116 119/119/119 117/117/117 
f 119/119/119 116/116/116 120/120/120 
f 121/121/121 122/122/122 123/123/123 
f 121/121/121 123/123/123 124/124/124 
f 124/124/124 125/125/125 121/121/121 
f 125/125/125 124/124/124 126/126/126 
f 126/126/126 15/15/15 125/125/125 
f 127/127/127 128/128/128 129/129/129 
f 127/127/127 130/130/130 128/128/128 
f 131/131/131 130/130/130 127/127/127 
f 132/132/132 133/133/133 134/134/134 
f 135/135/135 132/132/132 134/134/134 
f 136/136/136 130/130/130 137/137/137 
f 128/128/128 130/130/130 136/136/136 
f 136/136/136 137/137/137 138/138/138 
f 138/138/138 137/137/137 139/139/139 
f 138/138/138 139/139/139 140/140/140 
f 138/138/138 140/140/140 141/141/141 
f 138/138/138 141/141/141 142/142/142 
f 142/142/142 141/141/141 143/143/143 
f 144/144/144 145/145/145 146/146/146 
f 147/147/147 145/145/145 144/144/144 
f 145/145/145 147/147/147 148/148/148 
f 149/149/149 150/150/150 151/151/151 
f 152/152/152 150/150/150 149/149/149 
f 153/153/153 150/150/150 152/152/152 
f 150/150/150 153/153/153 154/154/154 
f 150/150/150 154/154/154 155/155/155 
f 150/150/150 155/155/155 156/156/156 
f 157/157/157 150/150/150 156/156/156 
f 120/120/120 150/150/150 157/157/157 
f 120/120/120 116/116/116 150/150/150 
f 116/116/116 158/158/158 150/150/150 
f 122/122/122 159/159/159 123/123/123 
f 159/159/159 160/160/160 123/123/123 
f 157/157/157 156/156/156 161/161/161 
f 134/134/134 162/162/162 163/163/163 
f 134/134/134 133/133/133 162/162/162 
f 164/164/164 165/165/165 134/134/134 
f 164/164/164 166/166/166 165/165/165 
f 164/164/164 167/167/167 166/166/166 
f 167/167/167 168/168/168 166/166/166 
f 169/169/169 166/166/166 168/168/168 
f 169/169/169 170/170/170 166/166/166 
f 165/165/165 166/166/166 171/171/171 
f 172/172/172 171/171/171 166/166/166 
f 173/173/173 172/172/172 166/166/166 
f 165/165/165 135/135/135 134/134/134 
f 83/83/83 174/174/174 175/175/175 
f 83/83/83 82/82/82 174/174/174 
f 176/176/176 177/177/177 146/146/146 
f 145/145/145 176/176/176 146/146/146 
f 177/177/177 178/178/178 146/146/146 
f 179/179/179 146/146/146 178/178/178 
f 65/65/65 146/146/146 179/179/179 
f 66/66/66 65/65/65 179/179/179 
f 179/179/179 178/178/178 180/180/180 
f 181/181/181 180/180/180 178/178/178 
f 129/129/129 128/128/128 182/182/182 
f 182/182/182 183/183/183 129/129/129 
f 183/183/183 182/182/182 184/184/184 
f 184/184/184 182/182/182 185/185/185 
f 182/182/182 186/186/186 185/185/185 
f 28/28/28 187/187/187 188/188/188 
f 28/28/28 27/27/27 187/187/187 
f 189/189/189 23/23/23 190/190/190 
f 22/22/22 190/190/190 23/23/23 
f 190/190/190 22/22/22 191/191/191 
f 192/192/192 182/182/182 128/128/128 
f 193/193/193 192/192/192 128/128/128 
f 194/194/194 192/192/192 193/193/193 
f 195/195/195 192/192/192 194/194/194 
f 15/15/15 14/14/14 125/125/125 
f 62/62/62 64/64/64 196/196/196 
f 196/196/196 64/64/64 197/197/197 
f 196/196/196 197/197/197 198/198/198 
f 45/45/45 44/44/44 199/199/199 
f 45/45/45 199/199/199 200/200/200 
f 201/201/201 61/61/61 202/202/202 
f 59/59/59 61/61/61 201/201/201 
f 198/198/198 197/197/197 203/203/203 
f 46/46/46 45/45/45 204/204/204 
