v -0.982871 -0.414344 0.6052
v -0.784744 -0.268692 0.647865
v -0.78325 -0.258137 0.643305
v -0.982871 -0.414344 0.6052
v -0.801273 -0.29229 0.612809
v -0.784744 -0.268692 0.647865
v -0.831444 -0.335366 0.548818
v -0.89447 -0.393897 0.501682
v -0.854757 -0.368649 0.499375
v -0.854757 -0.368648 0.499375
v -0.89447 -0.393897 0.501682
v -0.854758 -0.368619 0.499344
v -0.854822 -0.366926 0.497571
v -0.896133 -0.392731 0.4995
v -0.855133 -0.358689 0.488944
v -0.855133 -0.358689 0.488944
v -0.831444 -0.335366 0.548818
v -0.854822 -0.366926 0.497571
v -0.856449 -0.323921 0.452528
v -0.856449 -0.323921 0.452528
v -0.85736 -0.299848 0.427314
v -0.858622 -0.266491 0.392376
v -0.859857 -0.233855 0.358192
v -0.912851 -0.381004 0.477558
v -0.860317 -0.221695 0.345456
v -0.920402 -0.375708 0.467647
v -0.863808 -0.185083 0.305859
v -0.865386 -0.185114 0.304954
v -0.955763 -0.350906 0.421239
v -0.896102 -0.18572 0.287344
v -0.856288 -0.165382 0.307608
v -0.865386 -0.185114 0.304954
v -0.896102 -0.18572 0.287344
v -0.863808 -0.185083 0.305859
v -0.861704 -0.185042 0.307065
v -0.861704 -0.185042 0.307065
v -0.861704 -0.185042 0.307065
v -0.798266 -0.027723 0.380361
v -0.860317 -0.221695 0.345456
v -0.856288 -0.165382 0.307608
v -0.826827 -0.0584449 0.310563
v -0.816996 -0.0227627 0.311549
v -0.823626 -0.0171512 0.306996
v -0.798266 -0.027723 0.380361
v -0.816996 -0.0227627 0.311549
v -0.798943 -0.00329756 0.50241
v -0.844939 0.00088904 0.292357
v -0.931014 0.116494 0.452809
v -0.882504 0.0326842 0.266557
v -0.894053 0.0444269 0.268731
v -1.00236 0.15824 0.308041
v -0.926516 0.0774352 0.274841
v -0.981906 0.133755 0.285265
v -0.984864 0.136762 0.285822
v -0.998284 0.150407 0.288348
v -1.00457 0.156794 0.28953
v -1.00236 0.15824 0.308041
v -1.00457 0.156794 0.28953
v -1.0231 0.152704 0.283102
v -1.11475 0.137455 0.343077
v -0.987678 0.167889 0.431529
v -1.11475 0.137455 0.343077
v -0.931014 0.116494 0.452809
v -0.987678 0.167889 0.431529
v -1.1263 0.0108 0.3004
v -0.798943 -0.00329751 0.50241
v -1.1263 0.0108 0.3004
v -0.759164 -0.0879321 0.569765
v -0.798943 -0.00329751 0.50241
v -0.772345 -0.181078 0.61001
v -0.77648 -0.210295 0.622634
v -1.01498 -0.397143 0.577221
v -0.777643 -0.218515 0.626185
v -0.779481 -0.231501 0.631796
v -0.780223 -0.236746 0.634062
v -0.780223 -0.236746 0.634062
v -0.78325 -0.258137 0.643305
v -0.801273 -0.29229 0.612809
v -0.779481 -0.231501 0.631796
v -0.777643 -0.218515 0.626185
v -0.77648 -0.210295 0.622634
v -0.772345 -0.181078 0.61001
v -0.85736 -0.299848 0.427314
v -0.858622 -0.266491 0.392376
v -0.759164 -0.0879321 0.569765
v -0.765649 -0.0363613 0.500195
v -0.859857 -0.233855 0.358192
v -0.76613 -0.0362339 0.498428
v -0.765649 -0.0363613 0.500195
v -0.76613 -0.0362339 0.498428
v -0.765087 -0.0365099 0.502258
v -0.752364 -0.0398796 0.549003
v -0.75788 -0.0788587 0.565844
v -0.752364 -0.0398796 0.549003
v -0.75788 -0.0788587 0.565844
v -0.765087 -0.0365099 0.502258
v -0.752364 -0.0398795 0.549003
v -0.780109 -0.0325318 0.447071
v -0.787848 -0.0304822 0.418638
v -0.787848 -0.0304822 0.418638
v -0.780109 -0.0325318 0.447071
v -0.784744 -0.268692 0.647865
v -0.912851 -0.381004 0.477558
v -0.982871 -0.414344 0.6052
v -1.01498 -0.397143 0.577221
v -0.896133 -0.392731 0.4995
v -0.89447 -0.393897 0.501682
v -0.920402 -0.375708 0.467647
v -0.955763 -0.350906 0.421239
v -1.03671 -0.294127 0.314998
v -1.03671 -0.294127 0.314998
v -1.00083 -0.250384 0.291463
v -0.948628 -0.186755 0.257229
v -0.908772 -0.18597 0.28008
v -0.908772 -0.18597 0.280079
v -0.826826 -0.0584449 0.310563
v -0.983172 -0.110768 0.227378
v -0.844939 0.000889026 0.292357
v -0.904981 0.0197335 0.255309
v -0.882504 0.0326841 0.266557
v -0.882504 0.0326842 0.266557
v -0.904981 0.0197335 0.255309
v -0.894053 0.0444269 0.268731
v -0.926516 0.0774352 0.274841
v -0.987043 -0.0275467 0.214244
v -0.987043 -0.0275467 0.214244
v -1.0126 -0.0460215 0.201943
v -1.01395 -0.0430522 0.200776
v -1.0126 -0.0460215 0.201943
v -1.02115 -0.0400541 0.200263
v -1.01395 -0.0430522 0.200776
v -1.18358 -0.106621 0.248356
v -1.04621 -0.0296197 0.198477
v -1.05643 -0.0253598 0.197748
v -1.18885 -0.0569827 0.226886
v -1.10836 -0.0037353 0.194046
v -1.127 0.129786 0.247081
v -1.05643 -0.0253597 0.197748
v -1.10836 -0.00373525 0.194046
v -1.0231 0.152704 0.283102
v -1.127 0.129786 0.247081
v -1.23289 0.106427 0.210367
v -1.23123 0.109958 0.269374
v -1.25748 0.101005 0.201844
v -1.27165 0.0978772 0.196928
v -1.27165 0.0978772 0.196928
v -1.1263 0.0108 0.3004
v -1.23123 0.109958 0.269374
v -1.26002 0.0800508 0.192145
v -1.24472 0.0566024 0.185854
v -1.1263 0.0108 0.3004
v -1.24472 0.0566024 0.185854
v -1.18885 -0.0569826 0.226886
v -1.18358 -0.106621 0.248356
v -1.1263 0.0108 0.3004
v -1.18885 -0.0569826 0.226886
v -1.01498 -0.397143 0.577221
v -1.16644 -0.26832 0.318297
v -1.16644 -0.26832 0.318297
v -1.03671 -0.294127 0.314998
v -1.16644 -0.26832 0.318297
v -1.00083 -0.250384 0.291463
v -0.983172 -0.110768 0.227378
v -0.948628 -0.186755 0.257229
v -0.948628 -0.186755 0.257229
v -1.24588 0.0535418 0.184241
v -1.24588 0.0535418 0.184241
v -1.16768 0.0209711 0.189816
v -1.14592 0.0119112 0.191367
v -1.14592 0.0119112 0.191367
v -1.16768 0.0209712 0.189816
v -1.23289 0.106427 0.210367
v -1.24472 0.0566024 0.185854
v -1.24588 0.0535419 0.184241
v -1.26002 0.0800508 0.192145
v -1.25748 0.101005 0.201844
v -1.27165 0.0978772 0.196928
v -1.23123 0.109958 0.269374
v -0.981906 0.133755 0.285265
v -0.984864 0.136762 0.285822
v -0.998284 0.150407 0.288348
v -1.00457 0.156794 0.28953
v -1.04621 -0.0296197 0.198477
v -1.02115 -0.040054 0.200263
v -1.01395 -0.0430522 0.200776
v -0.823626 -0.0171513 0.306996
v -0.816996 -0.0227627 0.311549
v -0.987678 0.167889 0.431529
v -0.854757 -0.368648 0.499375
vt 0.372327 0.286399
vt 0.401278 0.303775
vt 0.401333 0.305028
vt 0.635259 -1.04897
vt 0.643211 -0.830183
vt 0.679849 -0.803412
vt 0.576333 -0.87905
vt 0.527071 -0.963862
vt 0.52466 -0.916808
vt 0.757116 0.614878
vt 0.800106 0.634161
vt 0.757118 0.614835
vt 0.757187 0.612384
vt 0.801906 0.631784
vt 0.757524 0.600456
vt -0.585617 -0.230125
vt -0.561537 -0.294236
vt -0.594121 -0.238495
vt -0.549722 -0.194796
vt 0.758948 0.550111
vt 0.759934 0.515253
vt 0.761301 0.46695
vt 0.762637 0.419692
vt 0.820004 0.60789
vt 0.763135 0.402084
vt 0.828178 0.597098
vt 0.766914 0.348174
vt 0.768623 0.347548
vt 0.866455 0.54656
vt 0.801873 0.335366
vt -0.242614 0.588511
vt -0.262473 0.59772
vt -0.263083 0.633126
vt -0.262442 0.5959
vt -0.2624 0.593475
vt 0.764637 0.349008
vt -0.406337 -0.0536735
vt -0.243915 -0.141793
vt -0.444179 -0.0909188
vt -0.38604 -0.0557106
vt -0.275634 -0.0667915
vt -0.238794 -0.0704889
vt 0.222985 0.576198
vt 0.297056 0.550687
vt 0.227582 0.567535
vt 0.420279 0.568267
vt 0.208206 0.604047
vt 0.370201 0.746439
vt 0.182158 0.65313
vt 0.184352 0.669598
vt 0.22404 0.826616
vt 0.190521 0.715887
vt 0.201046 0.794867
vt 0.201608 0.799084
vt 0.204158 0.818219
vt 0.205351 0.827176
vt 0.326335 0.951248
vt 0.307798 0.953692
vt 0.301361 0.972673
vt 0.361421 1.06552
vt 0.449997 0.934943
vt 0.350739 0.349283
vt 0.379371 0.347138
vt 0.372907 0.35223
vt 0.3422 0.3368
vt 0.394437 0.33527
vt 0.3422 0.3368
vt 0.402218 0.325242
vt 0.394437 0.33527
vt 0.401734 0.31418
vt 0.401582 0.31071
vt 0.36693 0.288427
vt 0.401539 0.309734
vt 0.401472 0.308191
vt 0.401444 0.307568
vt -0.459719 -0.390408
vt -0.481803 -0.398434
vt -0.517064 -0.364113
vt -0.454304 -0.38844
vt -0.440897 -0.383568
vt -0.43241 -0.380483
vt -0.402245 -0.369521
vt -0.524868 -0.170334
vt -0.490429 -0.136439
vt -0.306078 -0.334572
vt -0.252834 -0.265966
vt -0.456733 -0.103275
vt -0.252702 -0.264136
vt 0.418043 0.521346
vt 0.416259 0.521779
vt 0.420126 0.520841
vt 0.46732 0.509396
vt 0.402265 0.326319
vt 0.402467 0.330948
vt -0.29671 -0.331167
vt -0.252987 -0.268104
vt -0.256466 -0.316542
vt 0.364408 0.534353
vt 0.335701 0.541315
vt -0.246764 -0.181456
vt -0.24888 -0.210919
vt -0.4927 -0.402394
vt 0.859784 0.581026
vt 0.931125 0.71224
vt 0.963837 0.68
vt 0.84275 0.60569
vt 0.841056 0.608143
vt 0.867477 0.569886
vt 0.903505 0.517721
vt 0.985981 0.3983
vt 0.954083 0.430866
vt 0.915237 0.383473
vt 0.858732 0.314534
vt 0.815588 0.330341
vt -0.263334 0.647731
vt -0.13499 0.561506
vt -0.187649 0.738505
vt -0.0752747 0.586288
vt -0.0563091 0.656808
vt -0.0432753 0.631716
vt 0.807826 -0.135773
vt 0.830894 -0.119422
vt 0.819678 -0.147414
vt 0.852995 -0.180137
vt 0.915111 -0.0597286
vt -0.103893 0.748414
vt -0.122487 0.776704
vt -0.119498 0.778456
vt 1.02433 0.124095
vt 1.03293 0.117959
vt 1.02569 0.120908
vt 1.19623 0.198324
vt 1.05811 0.107699
vt 1.0684 0.10351
vt 1.20152 0.144244
vt 1.1206 0.082247
vt 1.05874 -0.217175
vt 0.986326 -0.0551903
vt 1.03961 -0.0735705
vt 0.95212 -0.252505
vt 0.265289 1.07905
vt 0.228524 1.18747
vt 0.287614 1.18514
vt 0.219988 1.21264
vt 0.215066 1.22716
vt 0.323667 0.35012
vt 0.3422 0.3368
vt 0.334834 0.352504
vt 0.323351 0.347232
vt 0.322936 0.343435
vt 0.3422 0.3368
vt 0.322936 0.343435
vt 0.327069 0.332223
vt 0.328111 0.326691
vt 0.3422 0.3368
vt 0.327069 0.332223
vt 0.36693 0.288427
vt 0.331509 0.308669
vt 1.11815 0.392314
vt 1.04857 0.396733
vt 1.17899 0.374492
vt 1.01249 0.347201
vt 0.994738 0.19359
vt 0.960008 0.275152
vt -0.264125 0.693673
vt 0.322559 0.343191
vt 1.25886 0.0259263
vt 1.18024 0.0579531
vt 1.15837 0.0668618
vt 1.07816 -0.0868696
vt 1.10049 -0.0945703
vt 1.16742 -0.181165
vt 1.17956 -0.125704
vt 1.18075 -0.122254
vt 1.19526 -0.149724
vt 1.19265 -0.172806
vt 1.2072 -0.167985
vt 0.334834 0.352504
vt 0.90984 -0.23597
vt 0.912875 -0.238951
vt 0.926647 -0.252478
vt 0.933094 -0.258809
vt 0.975829 -0.0515694
vt 0.950118 -0.0427005
vt 0.94273 -0.0401522
vt -0.0934309 0.560513
vt -0.0990784 0.552495
vt 0.348716 0.822882
vt -0.5959 -0.240245
vn -0.467313 0.405556 0.785585
vn -0.467313 0.405556 0.785585
vn -0.467313 0.405556 0.785585
vn 0.525325 -0.799723 0.290649
vn 0.525325 -0.799723 0.290649
vn 0.525325 -0.799723 0.290649
vn 0.525325 -0.799723 0.290649
vn 0.525325 -0.799723 0.290649
vn 0.525325 -0.799723 0.290649
vn 0.382904 -0.661213 -0.645122
vn 0.382904 -0.661213 -0.645122
vn 0.382904 -0.661213 -0.645122
vn 0.382904 -0.661213 -0.645122
vn 0.382904 -0.661213 -0.645122
vn 0.382904 -0.661213 -0.645122
vn 0.929889 -0.248695 -0.271032
vn 0.929889 -0.248695 -0.271032
vn 0.929889 -0.248695 -0.271032
vn 0.929889 -0.248695 -0.271032
vn 0.382904 -0.661213 -0.645122
vn 0.382904 -0.661213 -0.645122
vn 0.382904 -0.661213 -0.645122
vn 0.382904 -0.661213 -0.645122
vn 0.382904 -0.661213 -0.645122
vn 0.382904 -0.661213 -0.645122
vn 0.382904 -0.661213 -0.645122
vn 0.382904 -0.661213 -0.645122
vn 0.382904 -0.661213 -0.645122
vn 0.382904 -0.661213 -0.645122
vn 0.382904 -0.661213 -0.645122
vn 0.49588 -0.112822 -0.861031
vn 0.49588 -0.112822 -0.861031
vn 0.49588 -0.112822 -0.861031
vn 0.49588 -0.112822 -0.861031
vn 0.49588 -0.112822 -0.861031
vn 0.382904 -0.661213 -0.645122
vn 0.929889 -0.248695 -0.271032
vn 0.929889 -0.248695 -0.271032
vn 0.929889 -0.248695 -0.271032
vn 0.929889 -0.248695 -0.271032
vn 0.929889 -0.248695 -0.271032
vn 0.929889 -0.248695 -0.271032
vn 0.693309 0.707358 -0.13772
vn 0.693309 0.707358 -0.13772
vn 0.693309 0.707358 -0.13772
vn 0.693309 0.707358 -0.13772
vn 0.693309 0.707358 -0.13772
vn 0.693309 0.707358 -0.13772
vn 0.693309 0.707358 -0.13772
vn 0.693309 0.707358 -0.13772
vn 0.693309 0.707358 -0.13772
vn 0.693309 0.707358 -0.13772
vn 0.693309 0.707358 -0.13772
vn 0.693309 0.707358 -0.13772
vn 0.693309 0.707358 -0.13772
vn 0.693309 0.707358 -0.13772
vn -0.197554 0.978859 -0.0529884
vn -0.197554 0.978859 -0.0529884
vn -0.197554 0.978859 -0.0529884
vn -0.197554 0.978859 -0.0529884
vn -0.197554 0.978859 -0.0529884
vn -0.477654 -0.241097 0.844819
vn -0.490285 -0.237813 0.83849
vn -0.486121 -0.238904 0.840602
vn -0.477654 -0.241097 0.844819
vn -0.499946 -0.235248 0.833494
vn -0.467313 0.405556 0.785585
vn -0.467313 0.405556 0.785585
vn -0.467313 0.405556 0.785585
vn -0.467313 0.405556 0.785585
vn -0.467313 0.405556 0.785585
vn -0.467313 0.405556 0.785585
vn -0.467313 0.405556 0.785585
vn -0.467313 0.405556 0.785585
vn -0.467313 0.405556 0.785585
vn 0.929889 -0.248695 -0.271032
vn 0.929889 -0.248695 -0.271032
vn 0.929889 -0.248695 -0.271032
vn 0.929889 -0.248695 -0.271032
vn 0.929889 -0.248695 -0.271032
vn 0.929889 -0.248695 -0.271032
vn 0.929889 -0.248695 -0.271032
vn 0.929889 -0.248695 -0.271032
vn 0.929889 -0.248695 -0.271032
vn 0.929889 -0.248695 -0.271032
vn 0.929889 -0.248695 -0.271032
vn 0.929889 -0.248695 -0.271032
vn 0.929889 -0.248695 -0.271032
vn 0.693309 0.707358 -0.13772
vn 0.693309 0.707358 -0.13772
vn 0.693309 0.707358 -0.13772
vn 0.693309 0.707358 -0.13772
vn -0.467313 0.405556 0.785585
vn -0.467313 0.405556 0.785585
vn 0.929889 -0.248695 -0.271032
vn 0.929889 -0.248695 -0.271032
vn 0.929889 -0.248695 -0.271032
vn 0.693309 0.707358 -0.13772
vn 0.693309 0.707358 -0.13772
vn 0.929889 -0.248695 -0.271032
vn 0.929889 -0.248695 -0.271032
vn 0.929889 -0.248695 -0.271032
vn -0.191563 -0.918815 -0.345083
vn -0.191563 -0.918815 -0.345083
vn -0.191563 -0.918815 -0.345083
vn -0.191563 -0.918815 -0.345083
vn -0.191563 -0.918815 -0.345083
vn -0.191563 -0.918815 -0.345083
vn -0.191563 -0.918815 -0.345083
vn -0.191563 -0.918815 -0.345083
vn 0.382904 -0.661213 -0.645122
vn 0.382904 -0.661213 -0.645122
vn 0.382904 -0.661213 -0.645122
vn 0.382904 -0.661213 -0.645122
vn 0.49588 -0.112822 -0.861031
vn 0.49588 -0.112822 -0.861031
vn 0.49588 -0.112822 -0.861031
vn 0.49588 -0.112822 -0.861031
vn 0.49588 -0.112822 -0.861031
vn 0.49588 -0.112822 -0.861031
vn 0.224807 0.386652 -0.894406
vn 0.224807 0.386652 -0.894406
vn 0.224807 0.386652 -0.894406
vn 0.224807 0.386652 -0.894406
vn 0.224807 0.386652 -0.894406
vn 0.49588 -0.112822 -0.861031
vn 0.49588 -0.112822 -0.861031
vn 0.49588 -0.112822 -0.861031
vn -0.103498 -0.404082 -0.908849
vn -0.103498 -0.404082 -0.908849
vn -0.103498 -0.404082 -0.908849
vn -0.103498 -0.404082 -0.908849
vn -0.103498 -0.404082 -0.908849
vn -0.103498 -0.404082 -0.908849
vn -0.103498 -0.404082 -0.908849
vn -0.103498 -0.404082 -0.908849
vn 0.224807 0.386652 -0.894406
vn 0.224807 0.386652 -0.894406
vn 0.224807 0.386652 -0.894406
vn 0.224807 0.386652 -0.894406
vn -0.197554 0.978859 -0.0529884
vn -0.197554 0.978859 -0.0529884
vn -0.197554 0.978859 -0.0529884
vn -0.197554 0.978859 -0.0529884
vn -0.197554 0.978859 -0.0529884
vn -0.675358 -0.567127 0.471443
vn -0.675358 -0.567127 0.471443
vn -0.675358 -0.567127 0.471443
vn -0.675358 -0.567127 0.471443
vn -0.675358 -0.567127 0.471443
vn -0.711281 -0.0984845 0.695974
vn -0.711281 -0.0984845 0.695974
vn -0.711281 -0.0984845 0.695974
vn -0.817877 0.153171 0.554631
vn -0.817877 0.153171 0.554631
vn -0.817877 0.153171 0.554631
vn -0.817877 0.153171 0.554631
vn -0.817877 0.153171 0.554631
vn -0.191563 -0.918815 -0.345083
vn -0.103498 -0.404082 -0.908849
vn -0.103498 -0.404082 -0.908849
vn -0.103498 -0.404082 -0.908849
vn -0.103498 -0.404082 -0.908849
vn -0.103498 -0.404082 -0.908849
vn 0.49588 -0.112822 -0.861031
vn -0.711281 -0.0984845 0.695974
vn -0.103498 -0.404082 -0.908849
vn -0.103498 -0.404082 -0.908849
vn -0.103498 -0.404082 -0.908849
vn 0.224807 0.386652 -0.894406
vn 0.224807 0.386652 -0.894406
vn 0.224807 0.386652 -0.894406
vn 0.224807 0.386652 -0.894406
vn 0.224807 0.386652 -0.894406
vn 0.224807 0.386652 -0.894406
vn 0.224807 0.386652 -0.894406
vn 0.224807 0.386652 -0.894406
vn -0.477654 -0.241097 0.844819
vn 0.224807 0.386652 -0.894406
vn 0.224807 0.386652 -0.894406
vn 0.224807 0.386652 -0.894406
vn 0.224807 0.386652 -0.894406
vn 0.224807 0.386652 -0.894406
vn 0.224807 0.386652 -0.894406
vn 0.224807 0.386652 -0.894406
vn 0.49588 -0.112822 -0.861031
vn 0.49588 -0.112822 -0.861031
vn 0.693309 0.707358 -0.13772
vn 0.929889 -0.248695 -0.271032
f 1/1/1 2/2/2 3/3/3 
f 4/4/4 5/5/5 6/6/6 
f 4/4/4 7/7/7 5/5/5 
f 8/8/8 7/7/7 4/4/4 
f 8/8/8 9/9/9 7/7/7 
f 10/10/10 11/11/11 12/12/12 
f 12/12/12 11/11/11 13/13/13 
f 13/13/13 11/11/11 14/14/14 
f 13/13/13 14/14/14 15/15/15 
f 16/16/16 17/17/17 18/18/18 
f 16/16/16 19/19/19 17/17/17 
f 15/15/15 14/14/14 20/20/20 
f 14/14/14 21/21/21 20/20/20 
f 14/14/14 22/22/22 21/21/21 
f 14/14/14 23/23/23 22/22/22 
f 24/24/24 23/23/23 14/14/14 
f 24/24/24 25/25/25 23/23/23 
f 26/26/26 25/25/25 24/24/24 
f 26/26/26 27/27/27 25/25/25 
f 26/26/26 28/28/28 27/27/27 
f 29/29/29 28/28/28 26/26/26 
f 28/28/28 29/29/29 30/30/30 
f 31/31/31 32/32/32 33/33/33 
f 31/31/31 34/34/34 32/32/32 
f 34/34/34 31/31/31 35/35/35 
f 25/25/25 27/27/27 36/36/36 
f 37/37/37 38/38/38 39/39/39 
f 40/40/40 38/38/38 37/37/37 
f 41/41/41 38/38/38 40/40/40 
f 42/42/42 38/38/38 41/41/41 
f 43/43/43 44/44/44 45/45/45 
f 43/43/43 46/46/46 44/44/44 
f 47/47/47 46/46/46 43/43/43 
f 47/47/47 48/48/48 46/46/46 
f 49/49/49 48/48/48 47/47/47 
f 50/50/50 48/48/48 49/49/49 
f 50/50/50 51/51/51 48/48/48 
f 52/52/52 51/51/51 50/50/50 
f 53/53/53 51/51/51 52/52/52 
f 51/51/51 53/53/53 54/54/54 
f 51/51/51 54/54/54 55/55/55 
f 56/56/56 51/51/51 55/55/55 
f 57/57/57 58/58/58 59/59/59 
f 57/57/57 59/59/59 60/60/60 
f 60/60/60 61/61/61 57/57/57 
f 62/62/62 63/63/63 64/64/64 
f 65/65/65 63/63/63 62/62/62 
f 65/65/65 66/66/66 63/63/63 
f 67/67/67 68/68/68 69/69/69 
f 67/67/67 70/70/70 68/68/68 
f 67/67/67 71/71/71 70/70/70 
f 72/72/72 71/71/71 67/67/67 
f 72/72/72 73/73/73 71/71/71 
f 72/72/72 74/74/74 73/73/73 
f 72/72/72 75/75/75 74/74/74 
f 1/1/1 75/75/75 72/72/72 
f 1/1/1 3/3/3 75/75/75 
f 76/76/76 77/77/77 78/78/78 
f 79/79/79 76/76/76 78/78/78 
f 80/80/80 79/79/79 78/78/78 
f 81/81/81 80/80/80 78/78/78 
f 81/81/81 78/78/78 17/17/17 
f 81/81/81 17/17/17 82/82/82 
f 17/17/17 83/83/83 82/82/82 
f 83/83/83 17/17/17 19/19/19 
f 84/84/84 82/82/82 83/83/83 
f 85/85/85 82/82/82 84/84/84 
f 84/84/84 86/86/86 85/85/85 
f 87/87/87 86/86/86 84/84/84 
f 88/88/88 86/86/86 87/87/87 
f 46/46/46 89/89/89 90/90/90 
f 46/46/46 91/91/91 89/89/89 
f 46/46/46 92/92/92 91/91/91 
f 69/69/69 93/93/93 94/94/94 
f 69/69/69 68/68/68 93/93/93 
f 95/95/95 85/85/85 96/96/96 
f 96/96/96 97/97/97 95/95/95 
f 85/85/85 86/86/86 96/96/96 
f 46/46/46 90/90/90 98/98/98 
f 46/46/46 98/98/98 99/99/99 
f 46/46/46 99/99/99 44/44/44 
f 39/39/39 38/38/38 100/100/100 
f 100/100/100 87/87/87 39/39/39 
f 100/100/100 101/101/101 87/87/87 
f 101/101/101 88/88/88 87/87/87 
f 77/77/77 102/102/102 78/78/78 
f 103/103/103 104/104/104 105/105/105 
f 106/106/106 104/104/104 103/103/103 
f 107/107/107 104/104/104 106/106/106 
f 103/103/103 105/105/105 108/108/108 
f 108/108/108 105/105/105 109/109/109 
f 109/109/109 105/105/105 110/110/110 
f 29/29/29 111/111/111 112/112/112 
f 113/113/113 29/29/29 112/112/112 
f 114/114/114 29/29/29 113/113/113 
f 30/30/30 29/29/29 114/114/114 
f 31/31/31 33/33/33 115/115/115 
f 116/116/116 31/31/31 115/115/115 
f 116/116/116 115/115/115 117/117/117 
f 117/117/117 118/118/118 116/116/116 
f 119/119/119 118/118/118 117/117/117 
f 120/120/120 118/118/118 119/119/119 
f 121/121/121 122/122/122 123/123/123 
f 122/122/122 124/124/124 123/123/123 
f 122/122/122 125/125/125 124/124/124 
f 119/119/119 117/117/117 126/126/126 
f 126/126/126 117/117/117 127/127/127 
f 127/127/127 128/128/128 126/126/126 
f 129/129/129 130/130/130 131/131/131 
f 132/132/132 130/130/130 129/129/129 
f 132/132/132 133/133/133 130/130/130 
f 132/132/132 134/134/134 133/133/133 
f 135/135/135 134/134/134 132/132/132 
f 134/134/134 135/135/135 136/136/136 
f 137/137/137 138/138/138 139/139/139 
f 137/137/137 140/140/140 138/138/138 
f 60/60/60 59/59/59 141/141/141 
f 142/142/142 60/60/60 141/141/141 
f 142/142/142 143/143/143 60/60/60 
f 144/144/144 143/143/143 142/142/142 
f 145/145/145 143/143/143 144/144/144 
f 146/146/146 147/147/147 148/148/148 
f 149/149/149 147/147/147 146/146/146 
f 150/150/150 147/147/147 149/149/149 
f 151/151/151 152/152/152 153/153/153 
f 154/154/154 155/155/155 156/156/156 
f 154/154/154 157/157/157 155/155/155 
f 158/158/158 157/157/157 154/154/154 
f 110/110/110 105/105/105 159/159/159 
f 160/160/160 161/161/161 162/162/162 
f 162/162/162 161/161/161 132/132/132 
f 132/132/132 163/163/163 162/162/162 
f 132/132/132 129/129/129 163/163/163 
f 162/162/162 163/163/163 164/164/164 
f 165/165/165 117/117/117 115/115/115 
f 153/153/153 152/152/152 166/166/166 
f 135/135/135 167/167/167 168/168/168 
f 169/169/169 135/135/135 168/168/168 
f 136/136/136 135/135/135 169/169/169 
f 139/139/139 170/170/170 137/137/137 
f 170/170/170 171/171/171 137/137/137 
f 171/171/171 172/172/172 137/137/137 
f 171/171/171 173/173/173 172/172/172 
f 171/171/171 174/174/174 173/173/173 
f 175/175/175 172/172/172 173/173/173 
f 175/175/175 176/176/176 172/172/172 
f 175/175/175 177/177/177 176/176/176 
f 65/65/65 62/62/62 178/178/178 
f 140/140/140 125/125/125 138/138/138 
f 125/125/125 140/140/140 179/179/179 
f 124/124/124 125/125/125 179/179/179 
f 180/180/180 179/179/179 140/140/140 
f 140/140/140 181/181/181 180/180/180 
f 181/181/181 140/140/140 182/182/182 
f 183/183/183 138/138/138 125/125/125 
f 184/184/184 183/183/183 125/125/125 
f 185/185/185 184/184/184 125/125/125 
f 118/118/118 186/186/186 116/116/116 
f 186/186/186 187/187/187 116/116/116 
f 188/188/188 48/48/48 51/51/51 
f 18/18/18 17/17/17 189/189/189 
