v 0.2306 -1.9275 0.8699
v 0.284447 -1.96124 0.844505
v 0.309643 -1.91423 0.8816
v 0.284447 -1.96124 0.844505
v 0.2306 -1.9275 0.8699
v 0.262307 -1.98591 0.809757
v 0.266006 -1.95547 0.812156
v 0.284446 -1.96124 0.844505
v 0.262307 -1.98591 0.809757
v 0.281035 -1.91133 0.832197
v 0.309643 -1.91423 0.8816
v 0.290803 -1.88264 0.845222
v 0.29542 -1.87126 0.851661
v 0.294634 -1.87139 0.850332
v 0.294634 -1.87139 0.850332
v 0.290803 -1.88264 0.845222
v 0.214073 -1.84211 0.86417
v 0.214073 -1.84211 0.86417
v 0.243667 -1.84397 0.890387
v 0.294634 -1.87139 0.850332
v 0.213536 -1.84192 0.864262
v 0.213274 -1.84258 0.86396
v 0.243667 -1.84397 0.890387
v 0.213536 -1.84192 0.864262
v 0.2306 -1.9275 0.8699
v 0.244391 -1.84402 0.891015
v 0.2306 -1.9275 0.8699
v 0.297934 -1.86029 0.893003
v 0.244391 -1.84402 0.891015
v 0.309643 -1.91423 0.8816
v 0.320342 -1.8671 0.893835
v 0.320342 -1.8671 0.893835
v 0.297934 -1.86029 0.893003
v 0.320342 -1.8671 0.893835
v 0.29542 -1.87126 0.851661
v 0.244391 -1.84402 0.891015
v 0.192354 -1.9186 0.837422
v 0.2306 -1.9275 0.8699
v 0.192354 -1.9186 0.837422
v 0.230745 -1.96992 0.820195
v 0.230745 -1.96992 0.820195
v 0.261955 -1.9863 0.809204
v 0.265644 -1.95653 0.811674
v 0.261955 -1.9863 0.809204
v 0.265645 -1.95653 0.811673
v 0.244189 -1.93848 0.820037
v 0.266006 -1.95547 0.812155
v 0.261955 -1.9863 0.809204
v 0.244189 -1.93848 0.820037
v 0.265645 -1.95653 0.811673
v 0.230745 -1.96992 0.820195
v 0.238463 -1.93366 0.822269
v 0.23354 -1.92952 0.824188
v 0.222508 -1.92024 0.828489
v 0.23354 -1.92952 0.824188
v 0.222508 -1.92024 0.828489
v 0.281035 -1.91133 0.832197
v 0.238463 -1.93366 0.822269
v 0.213274 -1.84258 0.86396
v 0.192564 -1.89504 0.840162
v 0.192564 -1.89504 0.840162
v 0.192564 -1.89504 0.840162
v 0.192354 -1.9186 0.837422
v 0.213536 -1.84192 0.864262
vt 0.6402 0.427
vt 0.647183 0.425869
vt 0.64582 0.433064
vt 0.647183 0.425869
vt 0.6402 0.427
vt 0.647458 0.420029
vt -1.96301 -0.835532
vt -1.96879 -0.872766
vt -1.99351 -0.831597
vt -1.91878 -0.860417
vt -1.92168 -0.917505
vt -1.89003 -0.87659
vt -1.87862 -0.884478
vt -1.87875 -0.882935
vt -0.286113 1.34981
vt -0.282281 1.36217
vt -0.20555 1.31743
vt 0.390897 -0.756931
vt 0.418061 -0.785717
vt 0.37656 -0.842563
vt 0.390993 -0.75636
vt 0.634696 0.433964
vt 0.638169 0.436372
vt 0.634698 0.434052
vt 0.6402 0.427
vt 0.638252 0.436428
vt 0.6402 0.427
vt 0.642971 0.43793
vt 0.638252 0.436428
vt 0.64582 0.433064
vt 0.644945 0.438559
vt -1.87446 -0.933465
vt 0.420771 -0.842382
vt 0.421634 -0.865802
vt 0.377937 -0.843273
vt 0.418711 -0.786422
vt 0.635531 0.424679
vt 0.6402 0.427
vt 0.635531 0.424679
vt 0.643675 0.420071
vt 0.643675 0.420071
vt 0.647463 0.419936
vt -1.96408 -0.834934
vt -1.99391 -0.830941
vt -0.257122 1.44332
vt -0.235666 1.42342
vt -0.257484 1.44216
vt -1.87703 -0.026372
vt -1.8289 -0.00629234
vt -1.84707 -0.0292284
vt -1.86055 0.00666426
vt -1.82405 -0.000171758
vt -1.81988 0.00509054
vt -1.81054 0.0168838
vt -0.225018 1.41355
vt -0.213985 1.40332
vt -0.272513 1.39368
vt -0.229941 1.41812
vt -0.204751 1.31795
vt -0.184041 1.37555
vt 0.634567 0.427032
vt -1.78518 0.0488933
vt -1.80889 0.048333
vt -0.205013 1.31722
vn -0.013452 -0.614951 0.788451
vn -0.013452 -0.614951 0.788451
vn -0.013452 -0.614951 0.788451
vn -0.168249 -0.750015 0.639663
vn -0.168252 -0.750016 0.639662
vn -0.168322 -0.750086 0.639561
vn 0.86188 -0.0651108 -0.502915
vn 0.861882 -0.0651116 -0.502912
vn 0.861883 -0.0651109 -0.50291
vn 0.861882 -0.0651113 -0.502911
vn 0.861882 -0.0651128 -0.502912
vn 0.861878 -0.0651103 -0.502918
vn 0.861878 -0.0651114 -0.502918
vn 0.861873 -0.0651049 -0.502928
vn -0.00548706 0.414966 -0.90982
vn -0.00548989 0.414958 -0.909824
vn -0.00551033 0.415007 -0.909801
vn 0.289399 0.920791 -0.261519
vn 0.289424 0.920748 -0.261643
vn 0.289528 0.920663 -0.261825
vn 0.289207 0.920916 -0.261293
vn -0.656078 -0.0814012 0.75029
vn -0.656089 -0.0814034 0.75028
vn -0.656077 -0.081454 0.750286
vn -0.656089 -0.08138 0.750283
vn -0.656112 -0.081372 0.750264
vn -0.105102 -0.227486 0.968093
vn -0.105104 -0.227486 0.968093
vn -0.105103 -0.227485 0.968093
vn -0.105104 -0.227487 0.968092
vn -0.105107 -0.227487 0.968092
vn 0.861882 -0.0651134 -0.502912
vn 0.289591 0.920664 -0.261755
vn 0.289597 0.920662 -0.261755
vn 0.289567 0.920663 -0.261782
vn 0.289526 0.920663 -0.261828
vn -0.656078 -0.0813833 0.750292
vn -0.588278 -0.615926 0.523989
vn -0.588278 -0.615926 0.523989
vn -0.588278 -0.615926 0.523989
vn -0.168359 -0.750122 0.63951
vn -0.168462 -0.750227 0.639359
vn 0.861883 -0.065111 -0.50291
vn 0.86189 -0.0651124 -0.502898
vn -0.00556582 0.414884 -0.909858
vn -0.00551932 0.414931 -0.909836
vn -0.00553158 0.41492 -0.909841
vn -0.276541 0.113446 -0.954282
vn -0.276538 0.113445 -0.954284
vn -0.276543 0.113446 -0.954282
vn -0.276539 0.113446 -0.954283
vn -0.276538 0.113445 -0.954284
vn -0.276543 0.113446 -0.954282
vn -0.276539 0.113447 -0.954283
vn -0.00548739 0.414947 -0.909829
vn -0.0054931 0.414953 -0.909826
vn -0.00549189 0.41495 -0.909828
vn -0.0054864 0.41494 -0.909832
vn -0.00550675 0.414989 -0.90981
vn -0.00548622 0.414952 -0.909827
vn -0.656079 -0.0813828 0.750291
vn -0.276538 0.113446 -0.954283
vn -0.276541 0.113444 -0.954283
vn -0.00556081 0.415082 -0.909767
f 1/1/1 2/2/2 3/3/3 
f 4/4/4 5/5/5 6/6/6 
f 7/7/7 8/8/8 9/9/9 
f 10/10/10 8/8/8 7/7/7 
f 8/8/8 10/10/10 11/11/11 
f 11/11/11 10/10/10 12/12/12 
f 12/12/12 13/13/13 11/11/11 
f 12/12/12 14/14/14 13/13/13 
f 15/15/15 16/16/16 17/17/17 
f 18/18/18 19/19/19 20/20/20 
f 21/21/21 19/19/19 18/18/18 
f 22/22/22 23/23/23 24/24/24 
f 25/25/25 23/23/23 22/22/22 
f 25/25/25 26/26/26 23/23/23 
f 27/27/27 28/28/28 29/29/29 
f 30/30/30 28/28/28 27/27/27 
f 30/30/30 31/31/31 28/28/28 
f 11/11/11 13/13/13 32/32/32 
f 33/33/33 34/34/34 35/35/35 
f 36/36/36 33/33/33 35/35/35 
f 36/36/36 35/35/35 20/20/20 
f 36/36/36 20/20/20 19/19/19 
f 25/25/25 22/22/22 37/37/37 
f 38/38/38 39/39/39 40/40/40 
f 6/6/6 5/5/5 41/41/41 
f 6/6/6 41/41/41 42/42/42 
f 43/43/43 9/9/9 44/44/44 
f 7/7/7 9/9/9 43/43/43 
f 45/45/45 46/46/46 47/47/47 
f 48/48/48 49/49/49 50/50/50 
f 51/51/51 49/49/49 48/48/48 
f 51/51/51 52/52/52 49/49/49 
f 51/51/51 53/53/53 52/52/52 
f 53/53/53 51/51/51 54/54/54 
f 55/55/55 56/56/56 57/57/57 
f 58/58/58 55/55/55 57/57/57 
f 46/46/46 58/58/58 57/57/57 
f 47/47/47 46/46/46 57/57/57 
f 56/56/56 16/16/16 57/57/57 
f 56/56/56 59/59/59 16/16/16 
f 59/59/59 56/56/56 60/60/60 
f 37/37/37 22/22/22 61/61/61 
f 62/62/62 51/51/51 63/63/63 
f 54/54/54 51/51/51 62/62/62 
f 17/17/17 16/16/16 59/59/59 
f 17/17/17 59/59/59 64/64/64 
