v 0.436974 1.53357 -0.701309
v 0.335691 1.61802 -0.796779
v 0.437483 1.54461 -0.701639
v 0.436974 1.53357 -0.701309
v 0.338475 1.64649 -0.773424
v 0.335691 1.61802 -0.796779
v 0.433094 1.54471 -0.699646
v 0.429155 1.55602 -0.697957
v 0.432859 1.55627 -0.699642
v 0.338475 1.64649 -0.773424
v 0.429155 1.55602 -0.697957
v 0.343368 1.66122 -0.793049
v 0.438038 1.55662 -0.701998
v 0.343368 1.66122 -0.793049
v 0.438038 1.55662 -0.701998
v 0.343368 1.66122 -0.793049
v 0.335691 1.61802 -0.796779
v 0.321184 1.66375 -0.787814
v 0.321184 1.66375 -0.787814
v 0.321184 1.66375 -0.787814
v 0.438038 1.55662 -0.701998
v 0.432859 1.55627 -0.699642
v 0.437483 1.54461 -0.701639
v 0.433094 1.54471 -0.699646
v 0.436974 1.53357 -0.701309
v 0.429155 1.55602 -0.697957
vt 0.956057 0.854928
vt 0.96789 0.873442
vt 0.955722 0.856515
vt 1.17432 -0.342001
vt 1.29483 -0.456593
vt 1.26443 -0.477582
vt 1.18621 -0.342764
vt 1.19827 -0.343539
vt -0.246567 1.53112
vt -0.149542 1.64548
vt -0.242759 1.52966
vt -0.154572 1.66999
vt -0.251891 1.53316
vt 0.9658 0.879309
vt 0.955357 0.858241
vt 0.135796 0.625603
vt 0.132439 0.619659
vt 0.13695 0.623722
vt -0.131767 1.66757
vt 1.31324 -0.47815
vt 1.56028 0.689193
vt 1.55993 0.683504
vt 1.54827 0.68854
vt 1.54837 0.683719
vt 1.53723 0.68794
vt 1.55968 0.679434
vn 0.661245 -0.0529001 -0.748303
vn 0.661245 -0.0529001 -0.748303
vn 0.661245 -0.0529001 -0.748303
vn -0.780259 -0.349232 0.518876
vn -0.780259 -0.349232 0.518876
vn -0.780259 -0.349232 0.518876
vn -0.780259 -0.349232 0.518876
vn -0.780259 -0.349232 0.518876
vn 0.231725 0.749514 0.620107
vn 0.231725 0.749514 0.620107
vn 0.231725 0.749514 0.620107
vn 0.231725 0.749514 0.620107
vn 0.231725 0.749514 0.620107
vn 0.661245 -0.0529001 -0.748303
vn 0.661245 -0.0529001 -0.748303
vn -0.214791 0.121825 -0.969032
vn -0.214791 0.121825 -0.969032
vn -0.214791 0.121825 -0.969032
vn 0.231725 0.749514 0.620107
vn -0.780259 -0.349232 0.518876
vn 0.413649 0.00809908 0.910401
vn 0.413649 0.00809908 0.910401
vn 0.413649 0.00809908 0.910401
vn 0.413649 0.00809908 0.910401
vn 0.413649 0.00809908 0.910401
vn 0.413649 0.00809908 0.910401
f 1/1/1 2/2/2 3/3/3 
f 4/4/4 5/5/5 6/6/6 
f 7/7/7 5/5/5 4/4/4 
f 8/8/8 5/5/5 7/7/7 
f 9/9/9 10/10/10 11/11/11 
f 9/9/9 12/12/12 10/10/10 
f 13/13/13 12/12/12 9/9/9 
f 3/3/3 14/14/14 15/15/15 
f 3/3/3 2/2/2 14/14/14 
f 16/16/16 17/17/17 18/18/18 
f 12/12/12 19/19/19 10/10/10 
f 5/5/5 20/20/20 6/6/6 
f 21/21/21 22/22/22 23/23/23 
f 23/23/23 22/22/22 24/24/24 
f 23/23/23 24/24/24 25/25/25 
f 24/24/24 22/22/22 26/26/26 
