v 0.689844 -0.7807 0.973326
v 0.8367 -0.1936 1.1872
v 0.667305 -0.764544 0.984905
v 0.8367 -0.1936 1.1872
v 0.689844 -0.7807 0.973326
v 0.949818 -0.810163 0.868841
v 1.18608 -0.348325 0.992983
v 1.05555 -0.17193 1.11902
v 0.866878 -0.182806 1.18132
v 0.8367 -0.1936 1.1872
v 0.866878 -0.182806 1.18132
v 0.839566 -0.183049 1.18602
v 0.8367 -0.1936 1.1872
v 0.839566 -0.183049 1.18602
v 0.83803 -0.182948 1.18591
v 0.826585 -0.182192 1.18509
v 0.8367 -0.1936 1.1872
v 0.826585 -0.182192 1.18509
v 0.632295 -0.295935 1.08388
v 0.632295 -0.295935 1.08388
v 0.619587 -0.326134 1.08028
v 0.8367 -0.1936 1.1872
v 0.61929 -0.325085 1.07999
v 0.61929 -0.325086 1.07999
v 0.632295 -0.295935 1.08388
v 0.582772 -0.599491 0.831454
v 0.619587 -0.326134 1.08028
v 0.61929 -0.325085 1.07999
v 0.582772 -0.599491 0.831454
v 0.656268 -0.455683 1.11633
v 0.656268 -0.455683 1.11633
v 0.6603 -0.568524 1.06832
v 0.656268 -0.455683 1.11633
v 0.667305 -0.764544 0.984905
v 0.6603 -0.568524 1.06832
v 0.646286 -0.786034 0.913787
v 0.689844 -0.7807 0.973326
v 0.667305 -0.764544 0.984905
v 0.646286 -0.786034 0.913787
v 0.680825 -0.8188 0.878096
v 0.765185 -0.841484 0.919431
v 0.765185 -0.841484 0.919431
v 0.78301 -0.855865 0.90668
v 0.949818 -0.810163 0.868841
v 0.78301 -0.855865 0.90668
v 0.718311 -0.552247 0.665689
v 1.03067 -0.787638 0.850203
v 1.2054 -0.374437 0.974325
v 1.03067 -0.787638 0.850203
v 1.2054 -0.374437 0.974325
v 1.286 -0.385332 0.666559
v 1.18608 -0.348325 0.992983
v 1.29083 -0.394873 0.668969
v 1.22114 -0.392928 0.602903
v 1.286 -0.385332 0.666559
v 1.29083 -0.394873 0.668968
v 1.28493 -0.383225 0.666027
v 1.24411 -0.302577 0.645659
v 1.16169 -0.35782 0.55426
v 1.19587 -0.207252 0.621586
v 1.06404 -0.300149 0.474357
v 1.12876 -0.0746674 0.588102
v 0.991882 -0.10934 0.449465
v 1.00096 -0.097375 0.46089
v 1.09326 -0.00451973 0.570387
v 1.02348 -0.0677117 0.489213
v 1.07524 0.000497818 0.554342
v 1.07565 0.0010415 0.554861
v 1.07565 0.0010415 0.554861
v 0.821588 -0.0865269 0.875379
v 1.09326 -0.00451976 0.570387
v 1.01031 0.0113737 0.530685
v 0.821588 -0.0865268 0.875379
v 1.01031 0.0113737 0.530685
v 1.00984 0.00918415 0.529148
v 0.715091 -0.455529 0.682724
v 0.804423 -0.0954317 0.906731
v 0.789157 -0.103351 0.934613
v 0.717699 -0.14042 1.06513
v 0.685968 -0.191385 1.08051
v 0.716077 -0.141261 1.06809
v 0.717699 -0.14042 1.06513
v 0.716077 -0.141261 1.06809
v 0.826585 -0.182192 1.18509
v 0.866878 -0.182806 1.18132
v 0.789157 -0.103351 0.934613
v 0.804423 -0.0954317 0.906731
v 1.06386 -0.135044 0.998142
v 1.05555 -0.17193 1.11902
v 1.05555 -0.17193 1.11902
v 1.06386 -0.135044 0.998142
v 1.08695 -0.0325469 0.662238
v 1.08695 -0.0325469 0.662238
v 1.12877 -0.0746674 0.588103
v 1.09326 -0.00451976 0.570387
v 1.19587 -0.207252 0.621586
v 1.24411 -0.302577 0.64566
v 1.28493 -0.383225 0.666027
v 0.83803 -0.182948 1.18591
v 0.839566 -0.183049 1.18602
v 0.727708 -0.166118 1.14708
v 0.727709 -0.166118 1.14708
v 0.646433 -0.257201 1.09681
v 0.646433 -0.257201 1.09681
v 0.646433 -0.257201 1.09681
v 0.727709 -0.166118 1.14708
v 0.685968 -0.191385 1.08051
v 0.716078 -0.141261 1.06809
v 0.578082 -0.63473 0.799538
v 0.684989 -0.538274 0.654866
v 0.572847 -0.674072 0.763904
v 0.572847 -0.674072 0.763904
v 0.684989 -0.538274 0.654867
v 0.580856 -0.691349 0.777579
v 0.580856 -0.691349 0.777579
v 0.578082 -0.63473 0.799537
v 0.572847 -0.674072 0.763904
v 0.637087 -0.795439 0.882662
v 0.631675 -0.800973 0.864347
v 0.674715 -0.816584 0.876387
v 0.637087 -0.795439 0.882662
v 0.631674 -0.800973 0.864348
v 0.680825 -0.8188 0.878096
v 0.674715 -0.816584 0.876387
v 0.78301 -0.855865 0.90668
v 0.715566 -0.501247 0.625136
v 0.788702 -0.412683 0.554025
v 0.715566 -0.501247 0.625136
v 0.788702 -0.412683 0.554025
v 1.20865 -0.626374 0.720321
v 1.21688 -0.642303 0.732922
v 1.22814 -0.6641 0.750164
v 1.22814 -0.6641 0.750164
v 1.27249 -0.444745 0.86177
v 1.03067 -0.787638 0.850203
v 1.28491 -0.457758 0.840938
v 1.25551 -0.631834 0.746893
v 1.31698 -0.491072 0.786454
v 1.31918 -0.49336 0.782712
v 1.26449 -0.621112 0.745747
v 1.33825 -0.513163 0.750325
v 1.32581 -0.547893 0.737922
v 1.33825 -0.513163 0.750325
v 1.32581 -0.547893 0.737922
v 1.34017 -0.504575 0.72222
v 1.34017 -0.504575 0.72222
v 1.31918 -0.49336 0.782712
v 1.33825 -0.513163 0.750325
v 1.31698 -0.491072 0.786454
v 1.28491 -0.457758 0.840938
v 1.31913 -0.450807 0.683094
v 1.29246 -0.3981 0.669783
v 1.27249 -0.444745 0.86177
v 1.2054 -0.374437 0.974325
v 1.29246 -0.3981 0.669783
v 1.305 -0.44246 0.671529
v 1.305 -0.44246 0.671529
v 1.32581 -0.547893 0.737922
v 1.22114 -0.392928 0.602903
v 1.34017 -0.504575 0.72222
v 1.31913 -0.450807 0.683094
v 1.31913 -0.450807 0.683094
v 1.09393 -0.404326 0.544672
v 1.16169 -0.35782 0.55426
v 1.06404 -0.300149 0.474357
v 1.0296 -0.279807 0.446172
v 1.09393 -0.404326 0.544672
v 0.971749 -0.225497 0.403475
v 1.0296 -0.279807 0.446172
v 0.850838 -0.33744 0.49361
v 0.955712 -0.210442 0.391639
v 0.955712 -0.210442 0.391639
v 0.960722 -0.193361 0.400358
v 0.971749 -0.225497 0.403475
v 0.955712 -0.210442 0.391639
v 0.850838 -0.33744 0.49361
v 0.960722 -0.193361 0.400359
v 0.965334 -0.177639 0.408384
v 0.965334 -0.177639 0.408384
v 1.0296 -0.279807 0.446172
v 0.980722 -0.125178 0.435163
v 0.981264 -0.123331 0.436106
v 0.991882 -0.10934 0.449465
v 0.981264 -0.123331 0.436106
v 0.985653 -0.102976 0.450398
v 1.00096 -0.097375 0.46089
v 1.00584 -0.00937343 0.516118
v 1.00584 -0.00937343 0.516118
v 0.985653 -0.102976 0.450398
v 1.00984 0.00918415 0.529148
v 1.07524 0.000497818 0.554342
v 1.02348 -0.0677117 0.489213
v 1.01031 0.0113737 0.530685
v 1.07565 0.0010415 0.554861
v 0.980722 -0.125178 0.435163
v 1.19857 -0.60686 0.704885
v 1.20865 -0.626374 0.720321
v 1.19857 -0.60686 0.704885
v 1.26449 -0.621112 0.745747
v 1.25551 -0.631834 0.746893
v 1.21688 -0.642303 0.732922
v 1.22814 -0.6641 0.750164
v 0.981264 -0.123331 0.436106
v 0.631675 -0.800973 0.864347
v 0.715091 -0.455529 0.682724
v 0.718311 -0.552247 0.665689
v 0.684989 -0.538274 0.654866
v 0.715091 -0.455529 0.682724
v 0.715566 -0.501247 0.625136
v 0.718311 -0.552247 0.665689
vt 0.65789 0.582861
vt 0.6553 0.6559
vt 0.654614 0.584397
vt 0.6553 0.6559
vt 0.65789 0.582861
vt 0.691494 0.585107
vt 0.700055 0.640524
vt 0.678791 0.660047
vt 0.65824 0.657379
vt 0.6553 0.6559
vt 0.65824 0.657379
vt 0.655534 0.657162
vt 0.6553 0.6559
vt 0.655534 0.657162
vt 0.655368 0.657155
vt 0.654132 0.657104
vt 0.6553 0.6559
vt 0.654132 0.657104
vt 0.633686 0.638813
vt 0.633686 0.638813
vt 0.633229 0.635035
vt 0.6553 0.6559
vt 0.633153 0.635146
vt 0.776951 0.0136559
vt 0.781093 -0.0182332
vt 0.512582 0.275403
vt -0.360226 1.22463
vt -0.359161 1.22425
vt -0.63773 0.977671
vt -0.49174 1.2708
vt 0.642604 0.621248
vt 0.646992 0.607785
vt 0.642604 0.621248
vt -0.805286 1.15047
vt -0.606293 1.22684
vt -0.827102 1.07641
vt 0.754659 0.962204
vt 0.767134 0.934865
vt 0.690507 0.925389
vt 0.652052 0.970794
vt 0.696589 1.05656
vt 0.669496 0.577301
vt 0.672241 0.575985
vt -0.948578 1.17493
vt -0.781767 1.23425
vt -0.717066 0.846614
vt -1.02943 1.1457
vt 0.703202 0.637634
vt 0.699616 0.588326
vt 0.775682 -0.920379
vt 0.461182 -0.969618
vt 0.794748 -0.888134
vt 0.463645 -0.9803
vt -0.454513 -1.29963
vt -0.446812 -1.3905
vt -0.456485 -1.39566
vt -0.444676 -1.38936
vt -0.362914 -1.34577
vt -0.41892 -1.22304
vt -0.266273 -1.29425
vt -0.360453 -1.09724
vt -0.131858 -1.22259
vt -0.16701 -1.02785
vt -0.154879 -1.04231
vt -0.0607422 -1.18468
vt -0.124807 -1.07815
vt -0.0556553 -1.16056
vt -0.0551042 -1.16122
vt -1.06778 -0.529947
vt -0.813486 -0.862039
vt -1.0854 -0.546422
vt -1.00238 -0.5038
vt 0.559305 -0.290205
vt 0.192654 -0.462196
vt 0.191019 -0.460027
vt 0.354378 0.0874521
vt 0.592654 -0.274561
vt 0.622312 -0.260649
vt 0.761141 -0.195526
vt 0.777499 -0.135749
vt 0.764292 -0.194047
vt -0.709504 -1.05924
vt -0.707881 -1.06232
vt -0.818487 -1.18619
vt -0.858816 -1.18277
vt -0.781026 -0.9236
vt -0.796305 -0.894623
vt -1.05597 -0.993645
vt -1.04766 -1.12003
vt 0.923548 -0.670306
vt 0.800019 -0.642321
vt 0.456767 -0.564556
vt -1.07908 -0.642453
vt 0.381009 -0.621823
vt 0.362906 -0.543291
vt 0.415225 -0.770254
vt 0.439826 -0.876972
vt 0.460638 -0.96726
vt -0.829941 -1.18719
vt -0.831479 -1.18733
vt -0.719522 -1.14513
vt 0.643285 0.657
vt 0.634992 0.643934
vt 0.794839 -0.0592
vt 1.24539 -0.155899
vt 1.29788 -0.277037
vt 1.22837 -0.232521
vt 1.2154 -0.290874
vt 0.478632 0.309016
vt 0.324745 0.174921
vt 0.440729 0.346543
vt -0.571598 1.0031
vt -0.683743 0.828941
vt -0.579608 1.02513
vt -0.730981 0.92621
vt -0.673502 0.946006
vt -0.713442 0.910653
vt -0.836649 1.04399
vt -0.842267 1.02492
vt 0.650211 0.964331
vt 0.656972 0.921242
vt 0.637239 0.918802
vt -0.679579 1.18745
vt -0.673469 1.18465
vt 0.68285 1.07889
vt 0.293121 0.128126
vt 0.217481 0.0161997
vt -0.714321 0.781456
vt -0.787458 0.667878
vt -1.20742 0.938635
vt -1.21565 0.958946
vt -1.22691 0.986737
vt 0.723722 0.603177
vt 0.717948 0.629316
vt 0.699616 0.588326
vt 0.720677 0.627777
vt 0.726179 0.607037
vt 0.725937 0.623219
vt 0.726299 0.622906
vt 0.72664 0.608203
vt 0.729425 0.620197
vt 0.729789 0.616162
vt 0.729425 0.620197
vt 0.729789 0.616162
vt 0.732894 0.620244
vt 0.518061 -1.10007
vt 0.579876 -1.07996
vt 0.546781 -1.10659
vt 0.583701 -1.07688
vt 0.639376 -1.03208
vt 0.478079 -1.04292
vt 0.464477 -0.983913
vt 0.660664 -1.01463
vt 0.703202 0.637634
vt -0.459757 -1.3974
vt -0.504729 -1.40768
vt -1.34906 0.705419
vt -1.37184 0.829668
vt -1.25721 0.629517
vt -1.38757 0.784041
vt -1.36453 0.71821
vt -0.513191 -1.42589
vt -1.11791 0.612318
vt -1.19211 0.575716
vt -1.08518 0.487343
vt -1.04746 0.456169
vt -1.0927 0.655514
vt -0.97051 0.427664
vt -1.02836 0.496747
vt -0.849596 0.571382
vt -0.954473 0.408515
vt -0.269508 -0.96176
vt -0.252191 -0.971405
vt -0.28477 -0.981533
vt 0.0447502 -0.239392
vt 0.153216 -0.0788931
vt 0.0540251 -0.25691
vt 0.0625616 -0.273034
vt -0.236252 -0.980282
vt -0.33983 -1.05286
vt -0.183067 -1.0099
vt -0.181194 -1.01095
vt -1.08485 -0.138081
vt -1.07342 -0.119205
vt -1.07814 -0.144015
vt -1.09462 -0.154224
vt -1.09987 -0.258103
vt 0.177159 -0.44164
vt 0.107252 -0.348898
vt -1.10418 -0.280721
vt -1.17458 -0.28627
vt -1.11886 -0.194245
vt -1.10469 -0.28339
vt -1.17503 -0.287004
vt 0.0910468 -0.326836
vt -1.19734 0.913755
vt -1.24354 0.890769
vt -1.2325 0.866299
vt -1.30469 0.898027
vt -1.29486 0.908037
vt -1.25255 0.910744
vt -1.26488 0.938078
vt 0.0920498 -0.328731
vt -0.630427 1.16494
vt 1 0.319723
vt 1 0.404383
vt 0.974357 0.404598
vt 0.319723 0
vt 0.429032 0.0333406
vt 0.404383 0
vn 0.19388 -0.378242 0.905176
vn 0.19388 -0.378242 0.905176
vn 0.19388 -0.378242 0.905176
vn 0.30439 -0.39234 0.867996
vn 0.30439 -0.39234 0.867996
vn 0.30439 -0.39234 0.867996
vn 0.306925 -0.391589 0.867442
vn 0.30615 -0.391819 0.867612
vn 0.304644 -0.392265 0.86794
vn 0.168584 0.0644932 0.983575
vn 0.168584 0.0644932 0.983575
vn 0.168584 0.0644932 0.983575
vn -0.0619716 0.127824 0.989859
vn -0.0619716 0.127824 0.989859
vn -0.0619716 0.127824 0.989859
vn -0.0619716 0.127824 0.989859
vn -0.37725 -0.166268 0.911064
vn -0.37725 -0.166268 0.911064
vn -0.37725 -0.166268 0.911064
vn -0.489127 0.102526 0.866166
vn -0.489127 0.102526 0.866166
vn -0.489127 0.102526 0.866166
vn -0.489127 0.102526 0.866166
vn -0.84077 0.420618 -0.340862
vn -0.84077 0.420618 -0.340862
vn -0.84077 0.420618 -0.340862
vn -0.929307 -0.172222 0.326692
vn -0.929307 -0.172222 0.326692
vn -0.929307 -0.172222 0.326692
vn -0.929307 -0.172222 0.326692
vn -0.489127 0.102526 0.866166
vn 0.19388 -0.378242 0.905176
vn 0.19388 -0.378242 0.905176
vn -0.929307 -0.172222 0.326692
vn -0.929307 -0.172222 0.326692
vn -0.929307 -0.172222 0.326692
vn -0.406735 -0.834247 0.37229
vn -0.406735 -0.834247 0.37229
vn -0.406735 -0.834247 0.37229
vn -0.406735 -0.834247 0.37229
vn -0.406735 -0.834247 0.37229
vn 0.30439 -0.39234 0.867996
vn 0.30439 -0.39234 0.867996
vn -0.00693295 -0.622588 -0.782519
vn -0.00693295 -0.622588 -0.782519
vn -0.00693295 -0.622588 -0.782519
vn -0.00693295 -0.622588 -0.782519
vn 0.30704 -0.391555 0.867417
vn 0.305061 -0.392141 0.86785
vn 0.851208 0.482786 0.205822
vn 0.851208 0.482786 0.205822
vn 0.851208 0.482786 0.205822
vn 0.851208 0.482786 0.205822
vn 0.681028 0.164475 -0.713547
vn 0.681028 0.164475 -0.713547
vn 0.681028 0.164475 -0.713547
vn 0.681028 0.164475 -0.713547
vn 0.681028 0.164475 -0.713547
vn 0.681028 0.164475 -0.713547
vn 0.681028 0.164475 -0.713547
vn 0.681028 0.164475 -0.713547
vn 0.681028 0.164475 -0.713547
vn 0.681028 0.164475 -0.713547
vn 0.681028 0.164475 -0.713547
vn 0.681028 0.164475 -0.713547
vn 0.681028 0.164475 -0.713547
vn 0.681028 0.164475 -0.713547
vn 0.681028 0.164475 -0.713547
vn 0.0421107 0.954803 0.294241
vn 0.0421107 0.954803 0.294241
vn 0.0421107 0.954803 0.294241
vn 0.0421107 0.954803 0.294241
vn -0.84077 0.420618 -0.340862
vn -0.84077 0.420618 -0.340862
vn -0.84077 0.420618 -0.340862
vn -0.84077 0.420618 -0.340862
vn -0.84077 0.420618 -0.340862
vn -0.84077 0.420618 -0.340862
vn -0.84077 0.420618 -0.340862
vn -0.84077 0.420618 -0.340862
vn -0.84077 0.420618 -0.340862
vn 0.0421107 0.954803 0.294241
vn 0.0421107 0.954803 0.294241
vn 0.0421107 0.954803 0.294241
vn 0.0421107 0.954803 0.294241
vn 0.0421107 0.954803 0.294241
vn 0.0421107 0.954803 0.294241
vn 0.0421107 0.954803 0.294241
vn 0.0421107 0.954803 0.294241
vn 0.851208 0.482786 0.205822
vn 0.851208 0.482786 0.205822
vn 0.851208 0.482786 0.205822
vn 0.0421107 0.954803 0.294241
vn 0.851208 0.482786 0.205822
vn 0.851208 0.482786 0.205822
vn 0.851208 0.482786 0.205822
vn 0.851208 0.482786 0.205822
vn 0.851208 0.482786 0.205822
vn 0.0421107 0.954803 0.294241
vn 0.0421107 0.954803 0.294241
vn 0.0421107 0.954803 0.294241
vn -0.37725 -0.166268 0.911064
vn -0.37725 -0.166268 0.911064
vn -0.84077 0.420618 -0.340862
vn -0.787987 0.544518 0.287362
vn -0.787987 0.544518 0.287362
vn -0.787987 0.544518 0.287362
vn -0.787987 0.544518 0.287362
vn -0.84077 0.420618 -0.340862
vn -0.84077 0.420618 -0.340862
vn -0.84077 0.420618 -0.340862
vn -0.00693295 -0.622588 -0.782519
vn -0.00693295 -0.622588 -0.782519
vn -0.00693295 -0.622588 -0.782519
vn -0.929307 -0.172222 0.326692
vn -0.929307 -0.172222 0.326692
vn -0.929307 -0.172222 0.326692
vn -0.929307 -0.172222 0.326692
vn -0.929307 -0.172222 0.326692
vn -0.406735 -0.834247 0.37229
vn -0.406735 -0.834247 0.37229
vn -0.406735 -0.834247 0.37229
vn -0.00693295 -0.622588 -0.782519
vn -0.00693295 -0.622588 -0.782519
vn -0.406735 -0.834247 0.37229
vn -0.84077 0.420618 -0.340862
vn -0.84077 0.420618 -0.340862
vn -0.00693295 -0.622588 -0.782519
vn -0.00693295 -0.622588 -0.782519
vn -0.00693295 -0.622588 -0.782519
vn -0.00693295 -0.622588 -0.782519
vn -0.00693295 -0.622588 -0.782519
vn 0.619846 -0.451443 0.641865
vn 0.620116 -0.451374 0.641652
vn 0.613278 -0.4531 0.646986
vn 0.620658 -0.451235 0.641226
vn 0.620658 -0.451235 0.641226
vn 0.620658 -0.451235 0.641226
vn 0.620658 -0.451235 0.641226
vn 0.620658 -0.451235 0.641226
vn 0.620658 -0.451235 0.641226
vn 0.620658 -0.451235 0.641226
vn 0.944776 -0.325858 -0.0348549
vn 0.944776 -0.325858 -0.0348549
vn 0.944776 -0.325858 -0.0348549
vn 0.851208 0.482786 0.205822
vn 0.851208 0.482786 0.205822
vn 0.851208 0.482786 0.205822
vn 0.851208 0.482786 0.205822
vn 0.851208 0.482786 0.205822
vn 0.851208 0.482786 0.205822
vn 0.851208 0.482786 0.205822
vn 0.851208 0.482786 0.205822
vn 0.617186 -0.452119 0.643948
vn 0.681028 0.164475 -0.713547
vn 0.681028 0.164475 -0.713547
vn 0.40766 -0.427615 -0.80682
vn 0.40766 -0.427615 -0.80682
vn 0.40766 -0.427615 -0.80682
vn 0.40766 -0.427615 -0.80682
vn 0.40766 -0.427615 -0.80682
vn 0.681028 0.164475 -0.713547
vn 0.40766 -0.427615 -0.80682
vn 0.40766 -0.427615 -0.80682
vn 0.40766 -0.427615 -0.80682
vn 0.40766 -0.427615 -0.80682
vn -0.00693295 -0.622588 -0.782519
vn -0.00693295 -0.622588 -0.782519
vn -0.00693295 -0.622588 -0.782519
vn -0.00693295 -0.622588 -0.782519
vn -0.00693295 -0.622588 -0.782519
vn 0.681028 0.164475 -0.713547
vn 0.681028 0.164475 -0.713547
vn 0.681028 0.164475 -0.713547
vn -0.84077 0.420618 -0.340862
vn -0.84077 0.420618 -0.340862
vn -0.84077 0.420618 -0.340862
vn -0.84077 0.420618 -0.340862
vn 0.681028 0.164475 -0.713547
vn 0.681028 0.164475 -0.713547
vn 0.681028 0.164475 -0.713547
vn 0.681028 0.164475 -0.713547
vn 0.370222 0.479005 -0.795921
vn 0.370222 0.479005 -0.795921
vn 0.370222 0.479005 -0.795921
vn 0.370222 0.479005 -0.795921
vn 0.370222 0.479005 -0.795921
vn -0.84077 0.420618 -0.340862
vn -0.84077 0.420618 -0.340862
vn 0.370222 0.479005 -0.795921
vn 0.370222 0.479005 -0.795921
vn 0.370222 0.479005 -0.795921
vn 0.370222 0.479005 -0.795921
vn 0.370222 0.479005 -0.795921
vn -0.84077 0.420618 -0.340862
vn -0.00693295 -0.622588 -0.782519
vn 0.40766 -0.427615 -0.80682
vn 0.40766 -0.427615 -0.80682
vn 0.40766 -0.427615 -0.80682
vn 0.40766 -0.427615 -0.80682
vn 0.40766 -0.427615 -0.80682
vn 0.40766 -0.427615 -0.80682
vn -0.84077 0.420618 -0.340862
vn -0.00693295 -0.622588 -0.782519
vn 0.369157 0.173119 -0.9131
vn 0.369157 0.173119 -0.9131
vn 0.369157 0.173119 -0.9131
vn -0.999093 -0.0369884 0.0211155
vn -0.999093 -0.0369884 0.0211155
vn -0.999093 -0.0369884 0.0211155
f 1/1/1 2/2/2 3/3/3 
f 4/4/4 5/5/5 6/6/6 
f 7/7/7 4/4/4 6/6/6 
f 8/8/8 4/4/4 7/7/7 
f 9/9/9 4/4/4 8/8/8 
f 10/10/10 11/11/11 12/12/12 
f 13/13/13 14/14/14 15/15/15 
f 13/13/13 15/15/15 16/16/16 
f 17/17/17 18/18/18 19/19/19 
f 20/20/20 21/21/21 22/22/22 
f 20/20/20 23/23/23 21/21/21 
f 24/24/24 25/25/25 26/26/26 
f 27/27/27 28/28/28 29/29/29 
f 27/27/27 29/29/29 30/30/30 
f 22/22/22 21/21/21 31/31/31 
f 32/32/32 2/2/2 33/33/33 
f 3/3/3 2/2/2 32/32/32 
f 34/34/34 35/35/35 36/36/36 
f 37/37/37 38/38/38 39/39/39 
f 37/37/37 39/39/39 40/40/40 
f 41/41/41 37/37/37 40/40/40 
f 6/6/6 5/5/5 42/42/42 
f 6/6/6 42/42/42 43/43/43 
f 44/44/44 45/45/45 46/46/46 
f 44/44/44 46/46/46 47/47/47 
f 48/48/48 6/6/6 49/49/49 
f 7/7/7 6/6/6 48/48/48 
f 50/50/50 51/51/51 52/52/52 
f 51/51/51 50/50/50 53/53/53 
f 54/54/54 55/55/55 56/56/56 
f 54/54/54 57/57/57 55/55/55 
f 54/54/54 58/58/58 57/57/57 
f 59/59/59 58/58/58 54/54/54 
f 59/59/59 60/60/60 58/58/58 
f 61/61/61 60/60/60 59/59/59 
f 61/61/61 62/62/62 60/60/60 
f 63/63/63 62/62/62 61/61/61 
f 64/64/64 62/62/62 63/63/63 
f 64/64/64 65/65/65 62/62/62 
f 66/66/66 65/65/65 64/64/64 
f 65/65/65 66/66/66 67/67/67 
f 65/65/65 67/67/67 68/68/68 
f 69/69/69 70/70/70 71/71/71 
f 72/72/72 70/70/70 69/69/69 
f 73/73/73 74/74/74 75/75/75 
f 73/73/73 75/75/75 76/76/76 
f 76/76/76 77/77/77 73/73/73 
f 76/76/76 78/78/78 77/77/77 
f 76/76/76 79/79/79 78/78/78 
f 80/80/80 79/79/79 76/76/76 
f 81/81/81 79/79/79 80/80/80 
f 82/82/82 83/83/83 84/84/84 
f 82/82/82 84/84/84 85/85/85 
f 82/82/82 85/85/85 86/86/86 
f 86/86/86 85/85/85 87/87/87 
f 85/85/85 88/88/88 87/87/87 
f 85/85/85 89/89/89 88/88/88 
f 90/90/90 52/52/52 91/91/91 
f 91/91/91 52/52/52 92/92/92 
f 93/93/93 70/70/70 88/88/88 
f 71/71/71 70/70/70 93/93/93 
f 92/92/92 94/94/94 95/95/95 
f 94/94/94 92/92/92 96/96/96 
f 96/96/96 92/92/92 52/52/52 
f 52/52/52 97/97/97 96/96/96 
f 52/52/52 98/98/98 97/97/97 
f 52/52/52 51/51/51 98/98/98 
f 70/70/70 87/87/87 88/88/88 
f 85/85/85 84/84/84 99/99/99 
f 85/85/85 99/99/99 100/100/100 
f 84/84/84 83/83/83 101/101/101 
f 102/102/102 19/19/19 18/18/18 
f 103/103/103 19/19/19 102/102/102 
f 104/104/104 76/76/76 25/25/25 
f 80/80/80 76/76/76 104/104/104 
f 105/105/105 106/106/106 107/107/107 
f 107/107/107 106/106/106 108/108/108 
f 26/26/26 25/25/25 76/76/76 
f 76/76/76 109/109/109 26/26/26 
f 110/110/110 109/109/109 76/76/76 
f 110/110/110 111/111/111 109/109/109 
f 112/112/112 113/113/113 114/114/114 
f 115/115/115 116/116/116 117/117/117 
f 115/115/115 29/29/29 116/116/116 
f 115/115/115 118/118/118 29/29/29 
f 118/118/118 115/115/115 119/119/119 
f 120/120/120 121/121/121 122/122/122 
f 39/39/39 121/121/121 120/120/120 
f 29/29/29 118/118/118 36/36/36 
f 36/36/36 35/35/35 29/29/29 
f 30/30/30 29/29/29 35/35/35 
f 39/39/39 120/120/120 40/40/40 
f 46/46/46 123/123/123 124/124/124 
f 46/46/46 45/45/45 123/123/123 
f 125/125/125 41/41/41 40/40/40 
f 46/46/46 124/124/124 114/114/114 
f 114/114/114 113/113/113 46/46/46 
f 126/126/126 76/76/76 127/127/127 
f 46/46/46 128/128/128 129/129/129 
f 130/130/130 46/46/46 129/129/129 
f 131/131/131 46/46/46 130/130/130 
f 131/131/131 47/47/47 46/46/46 
f 132/132/132 47/47/47 131/131/131 
f 133/133/133 134/134/134 135/135/135 
f 133/133/133 136/136/136 134/134/134 
f 137/137/137 136/136/136 133/133/133 
f 137/137/137 138/138/138 136/136/136 
f 137/137/137 139/139/139 138/138/138 
f 140/140/140 139/139/139 137/137/137 
f 140/140/140 141/141/141 139/139/139 
f 142/142/142 141/141/141 140/140/140 
f 143/143/143 144/144/144 145/145/145 
f 146/146/146 147/147/147 148/148/148 
f 146/146/146 149/149/149 147/147/147 
f 146/146/146 150/150/150 149/149/149 
f 151/151/151 150/150/150 146/146/146 
f 152/152/152 150/150/150 151/151/151 
f 150/150/150 152/152/152 153/153/153 
f 153/153/153 152/152/152 53/53/53 
f 53/53/53 50/50/50 153/153/153 
f 135/135/135 134/134/134 154/154/154 
f 155/155/155 54/54/54 56/56/56 
f 156/156/156 54/54/54 155/155/155 
f 157/157/157 158/158/158 159/159/159 
f 157/157/157 160/160/160 158/158/158 
f 161/161/161 160/160/160 157/157/157 
f 155/155/155 162/162/162 156/156/156 
f 159/159/159 158/158/158 163/163/163 
f 159/159/159 163/163/163 164/164/164 
f 164/164/164 163/163/163 165/165/165 
f 163/163/163 166/166/166 165/165/165 
f 167/167/167 168/168/168 169/169/169 
f 170/170/170 168/168/168 167/167/167 
f 168/168/168 170/170/170 171/171/171 
f 172/172/172 173/173/173 174/174/174 
f 175/175/175 176/176/176 177/177/177 
f 177/177/177 176/176/176 178/178/178 
f 173/173/173 179/179/179 174/174/174 
f 179/179/179 180/180/180 174/174/174 
f 181/181/181 180/180/180 179/179/179 
f 61/61/61 180/180/180 181/181/181 
f 182/182/182 61/61/61 181/181/181 
f 63/63/63 61/61/61 182/182/182 
f 183/183/183 184/184/184 185/185/185 
f 183/183/183 185/185/185 186/186/186 
f 185/185/185 187/187/187 186/186/186 
f 76/76/76 188/188/188 189/189/189 
f 76/76/76 75/75/75 188/188/188 
f 187/187/187 190/190/190 191/191/191 
f 191/191/191 192/192/192 187/187/187 
f 192/192/192 186/186/186 187/187/187 
f 190/190/190 193/193/193 191/191/191 
f 193/193/193 194/194/194 191/191/191 
f 76/76/76 189/189/189 195/195/195 
f 178/178/178 76/76/76 195/195/195 
f 178/178/178 176/176/176 76/76/76 
f 127/127/127 76/76/76 176/176/176 
f 196/196/196 129/129/129 170/170/170 
f 130/130/130 129/129/129 196/196/196 
f 197/197/197 198/198/198 199/199/199 
f 200/200/200 197/197/197 199/199/199 
f 201/201/201 197/197/197 200/200/200 
f 202/202/202 201/201/201 200/200/200 
f 198/198/198 158/158/158 199/199/199 
f 198/198/198 163/163/163 158/158/158 
f 170/170/170 167/167/167 196/196/196 
f 195/195/195 189/189/189 203/203/203 
f 114/114/114 124/124/124 204/204/204 
f 205/205/205 206/206/206 207/207/207 
f 208/208/208 209/209/209 210/210/210 
