mtllib ./Monolite_0_0.mtl
g Monolite
v 0.2869744 1.965399 0.5637906
v 0.5584612 1.888577 0.5637906
v 0.3522053 -0.9510052 0.8294719
v -0.3986897 -1.232696 0.8294719
v -0.6034725 -0.09026841 0.8294719
v -0.6034725 -0.09026841 0.8294719
v -0.3986897 -1.232696 0.8294719
v -0.1179304 -1.001117 -0.6922466
v -0.181452 -0.1571014 -0.7964209
v -0.431892 0.4642329 -0.5257638
v 0.0683793 -2.012885 -0.3867022
v 0.4192374 -2.112167 -0.06867087
v 0.4539656 -1.46531 -0.1307705
v 0.4539656 -1.46531 -0.1307705
v -0.1179304 -1.001117 -0.6922466
v 0.0683793 -2.012885 -0.3867022
v 0.3782643 -0.8239682 -0.1996633
v 0.5258688 0.3730329 -0.259345
v 0.563879 1.887044 0.3491624
v 0.257485 1.973744 0.2966985
v 0.257485 1.973744 0.2966985
v -0.181452 -0.1571014 -0.7964209
v 0.257485 1.973744 0.2966985
v -0.431892 0.4642329 -0.5257638
v -0.181452 -0.1571014 -0.7964209
v 0.4539656 -1.46531 -0.1307705
v 0.4192374 -2.112167 -0.06867087
v 0.4032725 -2.10765 0.5637906
v 0.4032725 -2.10765 0.5637906
v 0.3522053 -0.9510052 0.8294719
v 0.4539656 -1.46531 -0.1307705
v 0.3782643 -0.8239682 -0.1996633
v 0.5584612 1.888577 0.5637906
v 0.5584612 1.888577 0.5637906
v 0.5258688 0.3730329 -0.259345
v 0.3782643 -0.8239682 -0.1996633
v 0.563879 1.887044 0.3491624
v -0.3986897 -1.232696 0.8294719
v 0.4032725 -2.10765 0.5637906
v -0.2374263 -1.926352 0.5637906
v 0.3522053 -0.9510052 0.8294719
v 0.257485 1.973744 0.2966985
v 0.5584612 1.888577 0.5637906
v 0.2869744 1.965399 0.5637906
v 0.563879 1.887044 0.3491624
v 0.0683793 -2.012885 -0.3867022
v 0.4032725 -2.10765 0.5637906
v 0.4192374 -2.112167 -0.06867087
v -0.2374263 -1.926352 0.5637906
v -0.1179304 -1.001117 -0.6922466
v -0.2374263 -1.926352 0.5637906
v 0.0683793 -2.012885 -0.3867022
v -0.3986897 -1.232696 0.8294719
v -0.1179304 -1.001117 -0.6922466
v 0.5258688 0.3730329 -0.259345
v -0.181452 -0.1571014 -0.7964209
v 0.3782643 -0.8239682 -0.1996633
v 0.257485 1.973744 0.2966985
v -0.6034725 -0.09026841 0.8294719
v -0.431892 0.4642329 -0.5257638
v 0.2869744 1.965399 0.5637906

vn 0.0544789 0.09179695 0.9942864
vn 0.0544789 0.09179695 0.9942864
vn 0.02854148 -0.06341133 0.9975793
vn 0.0151716 -0.141214 0.9898628
vn 0.02727845 0.04596419 0.9985706
vn -0.9580853 -0.1813802 -0.2217519
vn -0.9578599 -0.1731304 -0.2291948
vn -0.9560081 -0.1787489 -0.232588
vn -0.9521726 -0.1899575 -0.2393398
vn -0.9521726 -0.1899575 -0.2393398
vn 0.6651188 -0.07875617 -0.7425729
vn 0.6509269 -0.107097 -0.751548
vn 0.6651188 -0.07875617 -0.7425729
vn 0.6651188 -0.07875617 -0.7425729
vn 0.6811685 -0.06306615 -0.7294053
vn 0.6651188 -0.07875617 -0.7425729
vn 0.6811685 -0.06306615 -0.7294053
vn 0.2734407 0.4166543 -0.8669656
vn 0.2681531 0.3559326 -0.8952128
vn 0.2681531 0.3559326 -0.8952128
vn 0.2681531 0.3559326 -0.8952128
vn 0.2774943 0.4754958 -0.8348057
vn 0.2681531 0.3559326 -0.8952128
vn 0.2734407 0.4166543 -0.8669656
vn 0.2774943 0.4754958 -0.8348057
vn 0.99731 0.0536393 0.04995507
vn 0.9981205 -0.01434902 0.05957856
vn 0.9981205 -0.01434902 0.05957856
vn 0.9981205 -0.01434902 0.05957856
vn 0.9990351 -0.01629923 0.0407825
vn 0.99731 0.0536393 0.04995507
vn 0.9996803 -0.0002562835 0.02528145
vn 0.9973542 -0.05007204 0.05270118
vn 0.9973542 -0.05007204 0.05270118
vn 0.995795 -0.08605298 0.03142096
vn 0.9996803 -0.0002562835 0.02528145
vn 0.9973542 -0.05007204 0.05270118
vn 0.0151716 -0.141214 0.9898628
vn -0.1525479 -0.7819945 0.6043292
vn -0.1525479 -0.7819945 0.6043292
vn 0.02854148 -0.06341133 0.9975793
vn 0.2722771 0.9622189 0
vn 0.2722771 0.9622189 0
vn 0.2722771 0.9622189 0
vn 0.2722771 0.9622189 0
vn -0.2722772 -0.9622188 0
vn -0.1525479 -0.7819945 0.6043292
vn -0.2722772 -0.9622188 0
vn -0.1525479 -0.7819945 0.6043292
vn -0.9560081 -0.1787489 -0.232588
vn -0.951486 -0.1734187 -0.2541661
vn -0.951486 -0.1734187 -0.2541661
vn -0.9578599 -0.1731304 -0.2291948
vn 0.6811685 -0.06306615 -0.7294053
vn 0.6836253 -0.07579102 -0.7258872
vn 0.6836253 -0.07579102 -0.7258872
vn 0.6811685 -0.06306615 -0.7294053
vn -0.9206258 0.3819021 0.08123356
vn -0.9206258 0.3819021 0.08123356
vn -0.9206258 0.3819021 0.08123356
vn -0.9206258 0.3819021 0.08123356

vt 0 0.8658099
vt 0 1
vt 1 1
vt 1 0
vt 0 0
vt 1 0
vt 1 1
vt 0.2186311 1
vt 0 1
vt 0 0
vt 1 0
vt 0.5735577 0
vt 0 0
vt 0 0
vt 1 1
vt 1 0
vt 0 1
vt 0 0
vt 0 1
vt 1 1
vt 1 1
vt 0.5887371 0
vt 1 1
vt 1 0
vt 0.5887371 0
vt 1 0.3360029
vt 1 0.6726782
vt 1 1
vt 1 1
vt 0 0.5544177
vt 1 0.3360029
vt 1 0
vt 0 0
vt 0 0
vt 0.6657014 0
vt 1 0
vt 0.1002614 0
vt 0 0.7904277
vt 1 1
vt 0 1
vt 0 0.5544177
vt 0.7994305 0
vt 0 1
vt 0 0
vt 0.7994305 1
vt 0.7032225 0
vt 0 1
vt 0 0
vt 0.7032225 1
vt 0.7729047 0
vt 0 1
vt 0 0
vt 0.7729047 1
vt 0 0
vt 0.6161935 1
vt 0.6161935 0
vt 0 1
vt 0 1
vt 0.4533662 0
vt 0 0
vt 0.4533662 1

usemtl Material #45
usemap Material #45
f 2/2/2 1/1/1 3/3/3
f 4/4/4 3/3/3 1/1/1
f 5/5/5 4/4/4 1/1/1
f 7/7/7 6/6/6 8/8/8
f 9/9/9 8/8/8 6/6/6
f 10/10/10 9/9/9 6/6/6
f 12/12/12 11/11/11 13/13/13
f 15/15/15 14/14/14 16/16/16
f 17/17/17 14/14/14 15/15/15
f 19/19/19 18/18/18 20/20/20
f 22/22/22 21/21/21 18/18/18
f 24/24/24 23/23/23 25/25/25
f 27/27/27 26/26/26 28/28/28
f 30/30/30 29/29/29 31/31/31
f 32/32/32 30/30/30 31/31/31
f 30/30/30 32/32/32 33/33/33
f 35/35/35 34/34/34 36/36/36
f 37/37/37 34/34/34 35/35/35
f 39/39/39 38/38/38 40/40/40
f 41/41/41 38/38/38 39/39/39
f 43/43/43 42/42/42 44/44/44
f 45/45/45 42/42/42 43/43/43
f 47/47/47 46/46/46 48/48/48
f 49/49/49 46/46/46 47/47/47
f 51/51/51 50/50/50 52/52/52
f 53/53/53 50/50/50 51/51/51
f 55/55/55 54/54/54 56/56/56
f 57/57/57 54/54/54 55/55/55
f 59/59/59 58/58/58 60/60/60
f 61/61/61 58/58/58 59/59/59
