v 1.09004 2.10453 0.0109167
v 1.10466 2.08466 -0.0305116
v 1.08813 2.11607 -0.0983494
v 1.09004 2.10453 0.0109166
v 1.08822 2.0742 -0.0377485
v 1.10466 2.08466 -0.0305117
v 1.04065 2.04397 -0.0586795
v 0.975712 2.12462 0.112875
v 1.01883 2.03009 -0.0682818
v 1.07253 2.12913 -0.138403
v 1.04065 2.04397 -0.0586795
v 1.01883 2.03009 -0.0682819
v 1.08813 2.11607 -0.0983493
v 1.08822 2.0742 -0.0377484
v 1.10466 2.08466 -0.0305116
v 1.07957 2.12895 -0.128588
v 1.08137 2.12891 -0.12608
v 1.04826 2.16132 0.129339
v 1.08137 2.12891 -0.12608
v 1.04826 2.16132 0.129338
v 0.990515 2.13643 0.123328
v 0.950011 2.17709 0.119974
v 0.975712 2.12462 0.112875
v 0.990515 2.13643 0.123328
v 0.969676 2.11981 0.108612
v 1.01661 2.02868 -0.0692581
v 0.969676 2.11981 0.108612
v 1.01661 2.02868 -0.0692581
v 1.01465 2.02744 -0.0701211
v 1.03549 2.13003 -0.190033
v 1.00447 2.02096 -0.0746021
v 0.964391 2.11559 0.10488
v 1.00447 2.02096 -0.0746021
v 1.01465 2.02744 -0.0701211
v 0.959821 1.99258 -0.0942485
v 0.936626 2.0255 -0.173319
v 0.959821 1.99258 -0.0942485
v 0.965902 2.09536 -0.234471
v 0.971228 2.10807 -0.245595
v 0.878381 2.15 -0.255233
v 1.03549 2.13003 -0.190034
v 0.971228 2.10807 -0.245595
v 1.03549 2.13003 -0.190034
v 0.878381 2.15 -0.255233
v 1.07253 2.12913 -0.138403
v 0.950011 2.17709 0.119974
v 1.07957 2.12895 -0.128588
v 1.02865 2.16685 0.150256
v 1.08137 2.12891 -0.12608
v 1.04826 2.16132 0.129339
v 1.02865 2.16685 0.150255
v 1.02865 2.16685 0.150256
v 0.789756 2.1661 -0.245936
v 0.719821 2.17879 -0.2386
v 0.682653 2.1871 -0.219828
v 0.699275 2.18252 -0.236445
v 0.682653 2.1871 -0.219828
v 0.699275 2.18252 -0.236445
v 0.680602 2.16054 -0.214881
v 0.669443 2.18529 -0.206041
v 0.673918 2.15267 -0.207162
v 0.689326 2.09186 -0.163953
v 0.669443 2.18529 -0.206041
v 0.673918 2.15267 -0.207162
v 0.705616 2.1709 0.012707
v 0.723605 1.95657 -0.0678301
v 0.725589 1.96055 -0.0514768
v 0.73484 1.95948 -0.0478666
v 0.705616 2.1709 0.012707
v 0.725589 1.96055 -0.0514767
v 0.816209 1.99736 0.000240393
v 0.764444 1.95607 -0.0363136
v 0.764444 1.95607 -0.0363137
v 0.909395 1.96053 -0.116438
v 0.816209 1.99736 0.000240274
v 0.784829 1.94205 -0.0716183
v 0.909395 1.96053 -0.116438
v 0.78483 1.94205 -0.0716184
v 0.910776 1.96382 -0.119321
v 0.910776 1.96382 -0.119321
v 0.947386 1.98468 -0.0997207
v 0.909395 1.96053 -0.116438
v 0.921936 1.99045 -0.142633
v 0.844927 2.02028 0.0205198
v 0.947385 1.98468 -0.0997207
v 0.844927 2.02028 0.0205199
v 0.964391 2.11559 0.10488
v 0.699832 2.23182 0.031294
v 0.950011 2.17709 0.119974
v 0.682653 2.1871 -0.219828
v 0.699832 2.23182 0.031294
v 0.668241 2.19405 -0.205739
v 0.668241 2.19405 -0.20574
v 0.699832 2.23182 0.031294
v 0.668241 2.19405 -0.205739
v 0.756094 1.94887 -0.0698404
v 0.936626 2.0255 -0.173319
v 0.921936 1.99045 -0.142633
v 0.749346 1.95047 -0.069423
v 0.965902 2.09536 -0.234471
v 0.743275 1.95191 -0.0690473
v 0.878381 2.15 -0.255233
v 0.971228 2.10807 -0.245595
v 0.736047 1.95362 -0.0686001
v 0.689326 2.09186 -0.163953
v 0.723604 1.95657 -0.0678302
v 0.725589 1.96055 -0.0514767
v 0.723605 1.95657 -0.0678301
v 0.736047 1.95362 -0.0686001
v 0.73484 1.95948 -0.0478666
v 0.743275 1.95191 -0.0690473
v 0.749347 1.95047 -0.069423
v 0.764445 1.95607 -0.0363136
v 0.756094 1.94887 -0.0698404
v 0.766514 1.94639 -0.0704851
v 0.782761 1.94254 -0.0714904
v 0.78483 1.94205 -0.0716184
v 0.782761 1.94254 -0.0714904
v 0.766514 1.94639 -0.0704852
v 0.789756 2.1661 -0.245936
v 0.719821 2.17879 -0.238601
v 0.680602 2.16054 -0.214881
v 0.673918 2.15267 -0.207162
v 0.699275 2.18252 -0.236445
vt 0.834508 0.899142
vt 0.838757 0.896777
vt 0.845696 0.900881
vt -1.57656 1.10434
vt -1.57464 1.047
vt -1.59188 1.05862
vt -1.52479 1.0134
vt -1.45672 1.20186
vt -1.50192 0.997978
vt -0.491185 2.23986
vt -0.401899 2.15829
vt -0.412653 2.13289
vt -0.446327 2.24227
vt -0.378457 2.21366
vt -0.370352 2.2328
vt -0.480193 2.24487
vt -0.477383 2.24615
vt 0.822361 0.905902
vt 0.848533 0.902558
vt -1.53276 1.23502
vt -1.47224 1.21694
vt 1.99452 0.920108
vt 1.93946 0.940912
vt 1.95185 0.958641
vt 1.9344 0.933683
vt -1.49959 0.996411
vt -1.4504 1.19572
vt -0.413746 2.13031
vt -0.414713 2.12803
vt -0.549009 2.21349
vt -0.419731 2.11618
vt -1.44486 1.19034
vt -1.48686 0.98783
vt -1.49754 0.995025
vt -1.44007 0.956286
vt -0.530289 2.06986
vt -0.441734 2.06421
vt -0.598777 2.13904
vt -0.611235 2.15163
vt 0.867406 0.920402
vt 0.856476 0.906537
vt 0.865845 0.907206
vt 0.856476 0.906537
vt 0.867406 0.920402
vt 0.850063 0.903325
vt 0.825873 0.914621
vt 0.848844 0.902714
vt 0.820651 0.907678
vt 0.848533 0.902558
vt 0.822361 0.905902
vt -1.51221 1.25576
vt 1.98377 1.00431
vt 0.868697 0.928296
vt 0.869715 0.934524
vt 0.868683 0.937858
vt 0.870014 0.936354
vt 2.1561 -0.633393
vt 2.15151 -0.656894
vt 2.12946 -0.628416
vt 2.15428 -0.614299
vt 2.12157 -0.618221
vt 1.9729 -0.0557514
vt 2.06725 -0.100401
vt 2.03432 -0.100819
vt 2.05273 0.121308
vt 1.83628 0.044506
vt 1.84029 0.0609699
vt 1.76618 0.656127
vt 1.98802 0.653216
vt 1.7673 0.646202
vt 1.80593 0.749883
vt 1.7626 0.687887
vt -1.23529 0.98676
vt -1.38722 0.920658
vt -1.28955 1.03946
vt -1.25666 0.949318
vt -0.681986 -1.62259
vt -0.555098 -1.58056
vt -0.683392 -1.62696
vt -0.469815 2.00877
vt -0.447863 2.04973
vt -0.466585 2.00551
vt -0.495923 2.03515
vt -1.31965 1.0687
vt -1.42703 0.947499
vt 1.82997 0.784277
vt 1.92998 0.927353
vt 2.05194 0.655247
vt 0.825873 0.914621
vt 0.868683 0.937858
vt 0.832822 0.941625
vt 0.866311 0.939854
vt 2.0761 -0.100289
vt 2.11424 0.138782
vt 2.16307 -0.613245
vt -0.525826 -1.58487
vt -0.709725 -1.70878
vt -0.694761 -1.66228
vt -0.518953 -1.58588
vt -0.739547 -1.80145
vt -0.512768 -1.58679
vt -0.650393 -1.85738
vt -0.744972 -1.81831
vt -0.505405 -1.58787
vt -0.457813 -1.75556
vt -0.492731 -1.58974
vt -0.312612 0.460807
vt -0.310583 0.443983
vt -0.323304 0.442471
vt -0.32207 0.464014
vt -0.330694 0.441593
vt -0.336902 0.440855
vt -0.352339 0.47428
vt -0.343801 0.440035
vt -0.354455 0.438769
vt -0.371066 0.436794
vt -0.373181 0.436543
vt -0.552991 -1.58087
vt -0.536441 -1.58331
vt -0.560116 -1.86443
vt -0.488877 -1.86999
vt -0.448926 -1.84105
vt -0.442117 -1.8301
vt -0.467947 -1.87163
vn 0.839404 0.541417 0.0476229
vn 0.838308 0.542995 0.0489529
vn 0.838066 0.543342 0.0492453
vn 0.299491 -0.814776 0.496433
vn 0.299491 -0.814776 0.496433
vn 0.299491 -0.814776 0.496433
vn 0.299491 -0.814776 0.496433
vn 0.299491 -0.814776 0.496433
vn 0.299491 -0.814776 0.496433
vn 0.611648 -0.650499 -0.450264
vn 0.611648 -0.650499 -0.450264
vn 0.611648 -0.650499 -0.450264
vn 0.611648 -0.650499 -0.450264
vn 0.611648 -0.650499 -0.450264
vn 0.611648 -0.650499 -0.450264
vn 0.611648 -0.650499 -0.450264
vn 0.611648 -0.650499 -0.450264
vn 0.842513 0.536891 0.0438197
vn 0.837967 0.543483 0.0493648
vn 0.299491 -0.814776 0.496433
vn 0.299491 -0.814776 0.496433
vn -0.376576 -0.302881 0.875474
vn -0.376576 -0.302881 0.875474
vn -0.376576 -0.302881 0.875474
vn -0.376576 -0.302881 0.875474
vn 0.299491 -0.814776 0.496433
vn 0.299491 -0.814776 0.496433
vn 0.611648 -0.650499 -0.450264
vn 0.611648 -0.650499 -0.450264
vn 0.611648 -0.650499 -0.450264
vn 0.611648 -0.650499 -0.450264
vn 0.299491 -0.814776 0.496433
vn 0.299491 -0.814776 0.496433
vn 0.299491 -0.814776 0.496433
vn 0.299491 -0.814776 0.496433
vn 0.611648 -0.650499 -0.450264
vn 0.611648 -0.650499 -0.450264
vn 0.611648 -0.650499 -0.450264
vn 0.611648 -0.650499 -0.450264
vn 0.361334 0.645308 -0.673064
vn 0.361334 0.645308 -0.673064
vn 0.361334 0.645308 -0.673064
vn 0.167264 0.980545 -0.102732
vn 0.167264 0.980545 -0.102732
vn 0.167264 0.980545 -0.102732
vn 0.167264 0.980545 -0.102732
vn 0.167264 0.980545 -0.102732
vn 0.167264 0.980545 -0.102732
vn 0.167264 0.980545 -0.102732
vn 0.167264 0.980545 -0.102732
vn 0.299491 -0.814776 0.496433
vn -0.376576 -0.302881 0.875474
vn 0.167264 0.980545 -0.102732
vn 0.167264 0.980545 -0.102732
vn 0.167264 0.980545 -0.102732
vn 0.167264 0.980545 -0.102732
vn -0.715193 -0.0742313 -0.694974
vn -0.715193 -0.0742313 -0.694974
vn -0.715193 -0.0742313 -0.694974
vn -0.715193 -0.0742313 -0.694974
vn -0.715193 -0.0742313 -0.694974
vn -0.978395 -0.139465 0.152619
vn -0.978395 -0.139465 0.152619
vn -0.978395 -0.139465 0.152619
vn -0.978395 -0.139465 0.152619
vn -0.978395 -0.139465 0.152619
vn -0.978395 -0.139465 0.152619
vn -0.376576 -0.302881 0.875474
vn -0.376576 -0.302881 0.875474
vn -0.376576 -0.302881 0.875474
vn -0.376576 -0.302881 0.875474
vn -0.376576 -0.302881 0.875474
vn 0.299491 -0.814776 0.496433
vn 0.299491 -0.814776 0.496433
vn 0.299491 -0.814776 0.496433
vn 0.299491 -0.814776 0.496433
vn -0.190468 -0.600216 -0.776829
vn -0.190468 -0.600216 -0.776829
vn -0.190468 -0.600216 -0.776829
vn 0.611648 -0.650499 -0.450264
vn 0.611648 -0.650499 -0.450264
vn 0.611648 -0.650499 -0.450264
vn 0.611648 -0.650499 -0.450264
vn 0.299491 -0.814776 0.496433
vn 0.299491 -0.814776 0.496433
vn -0.376576 -0.302881 0.875474
vn -0.376576 -0.302881 0.875474
vn -0.376576 -0.302881 0.875474
vn 0.272633 0.943826 -0.186719
vn 0.272633 0.943826 -0.186719
vn 0.272633 0.943826 -0.186719
vn 0.272633 0.943826 -0.186719
vn -0.978395 -0.139465 0.152619
vn -0.978395 -0.139465 0.152619
vn -0.715193 -0.0742313 -0.694974
vn -0.190468 -0.600216 -0.776829
vn -0.190468 -0.600216 -0.776829
vn -0.190468 -0.600216 -0.776829
vn -0.190468 -0.600216 -0.776829
vn -0.190468 -0.600216 -0.776829
vn -0.190468 -0.600216 -0.776829
vn -0.190468 -0.600216 -0.776829
vn -0.190468 -0.600216 -0.776829
vn -0.190468 -0.600216 -0.776829
vn -0.190468 -0.600216 -0.776829
vn -0.190468 -0.600216 -0.776829
vn -0.208288 -0.944328 0.254679
vn -0.208288 -0.944328 0.254679
vn -0.208288 -0.944328 0.254679
vn -0.208288 -0.944328 0.254679
vn -0.208288 -0.944328 0.254679
vn -0.208288 -0.944328 0.254679
vn -0.208288 -0.944328 0.254679
vn -0.208288 -0.944328 0.254679
vn -0.208288 -0.944328 0.254679
vn -0.208288 -0.944328 0.254679
vn -0.208288 -0.944328 0.254679
vn -0.190468 -0.600216 -0.776829
vn -0.190468 -0.600216 -0.776829
vn -0.190468 -0.600216 -0.776829
vn -0.190468 -0.600216 -0.776829
vn -0.190468 -0.600216 -0.776829
vn -0.190468 -0.600216 -0.776829
vn -0.190468 -0.600216 -0.776829
f 1/1/1 2/2/2 3/3/3 
f 4/4/4 5/5/5 6/6/6 
f 4/4/4 7/7/7 5/5/5 
f 8/8/8 7/7/7 4/4/4 
f 7/7/7 8/8/8 9/9/9 
f 10/10/10 11/11/11 12/12/12 
f 13/13/13 11/11/11 10/10/10 
f 14/14/14 11/11/11 13/13/13 
f 13/13/13 15/15/15 14/14/14 
f 16/16/16 13/13/13 10/10/10 
f 17/17/17 13/13/13 16/16/16 
f 18/18/18 3/3/3 19/19/19 
f 1/1/1 3/3/3 18/18/18 
f 20/20/20 8/8/8 4/4/4 
f 21/21/21 8/8/8 20/20/20 
f 22/22/22 23/23/23 24/24/24 
f 23/23/23 22/22/22 25/25/25 
f 26/26/26 8/8/8 27/27/27 
f 9/9/9 8/8/8 26/26/26 
f 10/10/10 12/12/12 28/28/28 
f 10/10/10 28/28/28 29/29/29 
f 29/29/29 30/30/30 10/10/10 
f 29/29/29 31/31/31 30/30/30 
f 32/32/32 33/33/33 34/34/34 
f 33/33/33 32/32/32 35/35/35 
f 36/36/36 31/31/31 37/37/37 
f 31/31/31 36/36/36 30/30/30 
f 30/30/30 36/36/36 38/38/38 
f 39/39/39 30/30/30 38/38/38 
f 40/40/40 41/41/41 42/42/42 
f 43/43/43 44/44/44 45/45/45 
f 45/45/45 44/44/44 46/46/46 
f 46/46/46 47/47/47 45/45/45 
f 48/48/48 47/47/47 46/46/46 
f 48/48/48 49/49/49 47/47/47 
f 50/50/50 49/49/49 48/48/48 
f 51/51/51 21/21/21 20/20/20 
f 22/22/22 24/24/24 52/52/52 
f 53/53/53 46/46/46 44/44/44 
f 54/54/54 46/46/46 53/53/53 
f 54/54/54 55/55/55 46/46/46 
f 56/56/56 55/55/55 54/54/54 
f 57/57/57 58/58/58 59/59/59 
f 59/59/59 60/60/60 57/57/57 
f 61/61/61 60/60/60 59/59/59 
f 62/62/62 63/63/63 64/64/64 
f 62/62/62 65/65/65 63/63/63 
f 66/66/66 65/65/65 62/62/62 
f 67/67/67 65/65/65 66/66/66 
f 68/68/68 69/69/69 70/70/70 
f 68/68/68 71/71/71 69/69/69 
f 72/72/72 71/71/71 68/68/68 
f 73/73/73 74/74/74 75/75/75 
f 76/76/76 74/74/74 73/73/73 
f 77/77/77 78/78/78 79/79/79 
f 80/80/80 81/81/81 82/82/82 
f 83/83/83 81/81/81 80/80/80 
f 37/37/37 81/81/81 83/83/83 
f 35/35/35 84/84/84 85/85/85 
f 35/35/35 32/32/32 84/84/84 
f 22/22/22 86/86/86 87/87/87 
f 69/69/69 86/86/86 22/22/22 
f 69/69/69 71/71/71 86/86/86 
f 85/85/85 84/84/84 75/75/75 
f 85/85/85 75/75/75 74/74/74 
f 22/22/22 88/88/88 69/69/69 
f 89/89/89 90/90/90 91/91/91 
f 91/91/91 90/90/90 92/92/92 
f 93/93/93 65/65/65 94/94/94 
f 63/63/63 65/65/65 93/93/93 
f 60/60/60 95/95/95 57/57/57 
f 25/25/25 22/22/22 87/87/87 
f 32/32/32 34/34/34 27/27/27 
f 27/27/27 34/34/34 26/26/26 
f 37/37/37 83/83/83 36/36/36 
f 96/96/96 97/97/97 98/98/98 
f 99/99/99 97/97/97 96/96/96 
f 97/97/97 99/99/99 100/100/100 
f 100/100/100 99/99/99 101/101/101 
f 100/100/100 101/101/101 102/102/102 
f 102/102/102 103/103/103 100/100/100 
f 102/102/102 101/101/101 104/104/104 
f 104/104/104 105/105/105 102/102/102 
f 106/106/106 105/105/105 104/104/104 
f 107/107/107 108/108/108 109/109/109 
f 110/110/110 107/107/107 109/109/109 
f 110/110/110 109/109/109 111/111/111 
f 111/111/111 112/112/112 110/110/110 
f 110/110/110 112/112/112 113/113/113 
f 113/113/113 112/112/112 114/114/114 
f 113/113/113 114/114/114 115/115/115 
f 116/116/116 113/113/113 115/115/115 
f 117/117/117 113/113/113 116/116/116 
f 79/79/79 78/78/78 118/118/118 
f 79/79/79 118/118/118 119/119/119 
f 79/79/79 119/119/119 98/98/98 
f 98/98/98 119/119/119 96/96/96 
f 120/120/120 102/102/102 105/105/105 
f 105/105/105 121/121/121 120/120/120 
f 105/105/105 122/122/122 121/121/121 
f 105/105/105 123/123/123 122/122/122 
f 122/122/122 124/124/124 121/121/121 
