v 1.211 0.9089 0.9998
v 1.29674 0.757173 0.971732
v 1.28203 0.927517 0.923508
v 1.211 0.9089 0.9998
v 1.20343 0.612512 0.987407
v 1.29674 0.757173 0.971732
v 1.19811 0.622318 0.98917
v 1.14436 0.824759 1.01192
v 1.14661 0.717088 1.0062
v 1.14436 0.824759 1.01192
v 1.1502 0.714113 0.968687
v 1.14661 0.717088 1.0062
v 1.15246 0.712249 0.945177
v 1.16642 0.68502 0.955962
v 1.1502 0.714113 0.968687
v 1.15246 0.712248 0.945177
v 1.14661 0.717088 1.0062
v 1.19811 0.622318 0.98917
v 1.20343 0.612512 0.987407
v 1.20601 0.607777 0.986556
v 1.20601 0.607777 0.986556
v 1.29674 0.757173 0.971732
v 1.20601 0.607777 0.986556
v 1.16642 0.68502 0.955962
v 1.15346 0.829244 0.914999
v 1.28203 0.927517 0.923508
v 1.15424 0.92031 0.891509
v 1.27008 0.970118 0.909256
v 1.15446 0.945684 0.884964
v 1.15446 0.945684 0.884964
v 1.211 0.9089 0.9998
v 1.27008 0.970118 0.909256
v 1.14819 0.909525 0.957242
v 1.211 0.9089 0.9998
v 1.14819 0.909525 0.957242
v 1.14436 0.824759 1.01192
v 1.14819 0.909524 0.957242
v 1.15346 0.829244 0.914999
v 1.15246 0.712248 0.945177
v 1.15424 0.92031 0.891509
v 1.15446 0.945684 0.884964
v 1.27008 0.970118 0.909256
v 1.211 0.9089 0.9998
v 1.28203 0.927517 0.923508
vt 0.7106 0.7761
vt 0.71639 0.75919
vt 0.722808 0.775563
vt 0.7106 0.7761
vt 0.70049 0.747664
vt 0.71639 0.75919
vt 0.700141 0.748752
vt 0.699837 0.769721
vt 0.696776 0.75926
vt 0.805168 0.899568
vt 0.694508 0.855979
vt 0.697483 0.893668
vt 0.692643 0.832362
vt 0.891068 -0.0550492
vt 0.903808 -0.0883484
vt 0.880272 -0.0856415
vt 0.941366 -0.0926671
vt 0.924313 0.0151882
vt 0.922549 0.0263489
vt 0.921697 0.0317375
vt 0.700658 0.747139
vt 0.586232 -1.50243
vt 0.432183 -1.41853
vt 0.511832 -1.37242
vt 0.660548 -1.34941
vt 0.761881 -1.47586
vt 0.75445 -1.34414
vt 0.80581 -1.46066
vt 0.780615 -1.34267
vt 0.706821 0.786205
vt 0.7106 0.7761
vt 0.720945 0.782427
vt 0.703819 0.780508
vt 0.7106 0.7761
vt 0.703819 0.780508
vt 0.699837 0.769721
vt 0.889944 0.844776
vt 0.809654 0.802223
vt 0.539908 -1.35617
vt 0.90073 0.778765
vt 0.926108 0.772228
vt 0.720945 0.782427
vt 0.7106 0.7761
vt 0.722808 0.775563
vn 0.676157 0.254154 0.691533
vn 0.676157 0.254154 0.691533
vn 0.676157 0.254154 0.691533
vn 0.235343 -0.0465996 0.970795
vn 0.235343 -0.0465996 0.970795
vn 0.235343 -0.0465996 0.970795
vn 0.235343 -0.0465996 0.970795
vn 0.235343 -0.0465996 0.970795
vn 0.235343 -0.0465996 0.970795
vn -0.995425 -0.0157846 -0.094229
vn -0.995425 -0.0157846 -0.094229
vn -0.995425 -0.0157846 -0.094229
vn -0.995425 -0.0157846 -0.094229
vn -0.881202 -0.470375 -0.0472238
vn -0.881202 -0.470375 -0.0472238
vn -0.881202 -0.470375 -0.0472238
vn -0.881202 -0.470375 -0.0472238
vn -0.881202 -0.470375 -0.0472238
vn -0.881202 -0.470375 -0.0472238
vn -0.881202 -0.470375 -0.0472238
vn 0.235343 -0.0465996 0.970795
vn 0.248492 -0.243926 -0.937418
vn 0.248492 -0.243926 -0.937418
vn 0.248492 -0.243926 -0.937418
vn 0.248492 -0.243926 -0.937418
vn 0.248492 -0.243926 -0.937418
vn 0.248492 -0.243926 -0.937418
vn 0.248492 -0.243926 -0.937418
vn 0.248492 -0.243926 -0.937418
vn -0.270425 0.870184 0.411887
vn -0.270425 0.870184 0.411887
vn -0.270425 0.870184 0.411887
vn -0.270425 0.870184 0.411887
vn -0.485899 0.489156 0.724312
vn -0.485899 0.489156 0.724312
vn -0.485899 0.489156 0.724312
vn -0.995425 -0.0157846 -0.094229
vn -0.995425 -0.0157846 -0.094229
vn 0.248492 -0.243926 -0.937418
vn -0.995425 -0.0157846 -0.094229
vn -0.995425 -0.0157846 -0.094229
vn 0.620187 0.399758 0.674953
vn 0.620187 0.399758 0.674953
vn 0.620187 0.399758 0.674953
f 1/1/1 2/2/2 3/3/3 
f 4/4/4 5/5/5 6/6/6 
f 4/4/4 7/7/7 5/5/5 
f 8/8/8 7/7/7 4/4/4 
f 8/8/8 9/9/9 7/7/7 
f 10/10/10 11/11/11 12/12/12 
f 11/11/11 10/10/10 13/13/13 
f 14/14/14 15/15/15 16/16/16 
f 17/17/17 15/15/15 14/14/14 
f 18/18/18 17/17/17 14/14/14 
f 19/19/19 18/18/18 14/14/14 
f 20/20/20 19/19/19 14/14/14 
f 6/6/6 5/5/5 21/21/21 
f 22/22/22 23/23/23 24/24/24 
f 22/22/22 24/24/24 25/25/25 
f 25/25/25 26/26/26 22/22/22 
f 27/27/27 26/26/26 25/25/25 
f 27/27/27 28/28/28 26/26/26 
f 29/29/29 28/28/28 27/27/27 
f 30/30/30 31/31/31 32/32/32 
f 33/33/33 31/31/31 30/30/30 
f 34/34/34 35/35/35 36/36/36 
f 10/10/10 37/37/37 38/38/38 
f 13/13/13 10/10/10 38/38/38 
f 25/25/25 24/24/24 39/39/39 
f 37/37/37 40/40/40 38/38/38 
f 37/37/37 41/41/41 40/40/40 
f 42/42/42 43/43/43 44/44/44 
