v -1.0725 -0.745616 0.633688
v -1.21699 -1.02664 0.563528
v -1.07232 -0.745417 0.633774
v -1.21699 -1.02664 0.563528
v -1.0725 -0.745616 0.633688
v -1.25047 -0.9806 0.48188
v -1.25047 -0.9806 0.48188
v -1.0362 -1.09529 0.420818
v -1.21699 -1.02664 0.563528
v -1.04335 -1.08962 0.416885
v -1.24472 -0.981478 0.47312
v -1.07782 -1.0623 0.397933
v -1.07889 -1.06145 0.397342
v -1.2434 -0.981679 0.471113
v -1.07889 -1.06145 0.397342
v -1.2434 -0.981679 0.471113
v -0.77989 -0.905363 0.441615
v -1.07889 -1.06145 0.397342
v -0.77989 -0.905363 0.441615
v -1.07782 -1.0623 0.397933
v -1.04335 -1.08962 0.416885
v -1.0362 -1.09529 0.420818
v -0.950862 -1.16294 0.467745
v -0.950862 -1.16294 0.467745
v -0.7615 -1.34258 0.667604
v -0.781332 -1.29734 0.560969
v -0.781332 -1.29734 0.560968
v -0.739644 -1.18406 0.539171
v -0.781332 -1.29734 0.560969
v -0.739644 -1.18406 0.539171
v -0.724436 -1.29326 0.635321
v -0.74733 -1.34235 0.638219
v -0.747329 -1.34235 0.638219
v -0.724436 -1.29326 0.635321
v -0.7615 -1.34258 0.667604
v -0.74733 -1.34235 0.638219
v -0.734678 -1.15815 0.78034
v -0.673155 -1.1833 0.628829
v -0.734618 -1.15803 0.780326
v -0.673139 -1.18326 0.628827
v -0.718256 -1.12464 0.776696
v -0.668702 -1.17375 0.628265
v -0.616338 -1.06147 0.621637
v -0.586047 -0.854921 0.747356
v -0.573227 -0.96902 0.616179
v -0.558751 -0.937978 0.614346
v -0.519742 -0.854333 0.609408
v -0.582685 -0.848062 0.746611
v -0.518476 -0.851619 0.609248
v -0.577167 -0.836804 0.745386
v -0.516391 -0.847146 0.608984
v -0.493607 -0.759368 0.641714
v -0.500492 -0.735829 0.677632
v -0.512082 -0.72378 0.712866
v -0.504945 -0.720602 0.700867
v -0.528358 -0.698767 0.634357
v -0.512082 -0.72378 0.712866
v -0.504945 -0.720602 0.700867
v -0.554207 -0.675702 0.564344
v -0.552674 -0.67609 0.565279
v -0.552674 -0.67609 0.565279
v -0.559421 -0.681871 0.53848
v -0.554207 -0.675702 0.564344
v -0.552454 -0.680765 0.551418
v -0.552187 -0.686435 0.53461
v -0.552187 -0.686435 0.53461
v -0.558973 -0.760907 0.491585
v -0.559421 -0.681871 0.53848
v -0.532963 -0.730165 0.505605
v -0.558973 -0.760907 0.491586
v -0.532963 -0.730165 0.505605
v -0.508763 -0.7579 0.557608
v -0.502358 -0.76524 0.571373
v -0.516391 -0.847146 0.608984
v -0.486611 -0.783288 0.605214
v -0.486611 -0.783288 0.605214
v -0.493607 -0.759368 0.641714
v -0.486611 -0.783288 0.605214
v -0.502358 -0.76524 0.571373
v -0.528358 -0.698767 0.634357
v -0.500491 -0.735829 0.677632
v -0.504945 -0.720602 0.700867
v -0.508763 -0.7579 0.557608
v -0.552674 -0.67609 0.565279
v -0.552454 -0.680765 0.551418
v -0.552187 -0.686435 0.53461
v -0.532963 -0.730165 0.505605
v -0.577066 -0.782291 0.481834
v -0.577066 -0.782291 0.481834
v -0.856033 -0.665174 0.596179
v -0.911022 -0.66434 0.605536
v -0.577815 -0.783177 0.48143
v -0.779557 -0.905189 0.441664
v -0.603124 -0.813088 0.467789
v -0.627563 -0.879498 0.480567
v -0.779557 -0.905189 0.441664
v -0.603124 -0.813089 0.467789
v -0.652803 -0.948082 0.493764
v -0.662357 -0.974042 0.49876
v -0.70092 -1.07883 0.518923
v -0.70092 -1.07883 0.518923
v -0.668702 -1.17375 0.628265
v -0.616339 -1.06147 0.621637
v -0.662357 -0.974042 0.49876
v -0.573227 -0.96902 0.616179
v -0.652803 -0.948082 0.493764
v -0.558751 -0.937978 0.614347
v -0.627563 -0.879498 0.480567
v -0.519742 -0.854333 0.609408
v -0.603124 -0.813089 0.467789
v -0.577816 -0.783177 0.48143
v -0.518477 -0.851619 0.609248
v -0.673139 -1.18326 0.628827
v -0.911708 -0.664329 0.605653
v -0.952602 -0.663709 0.612612
v -0.952602 -0.663709 0.612612
v -1.2434 -0.981679 0.471113
v -0.968558 -0.667159 0.627444
v -0.952602 -0.663709 0.612612
v -0.968558 -0.667159 0.627444
v -0.9168 -0.694321 0.705203
v -0.911662 -0.66433 0.605645
v -0.916532 -0.694345 0.705223
v -0.911022 -0.66434 0.605536
v -0.911662 -0.66433 0.605645
v -0.850796 -0.700205 0.709996
v -0.916532 -0.694345 0.705223
v -0.734618 -1.15803 0.780327
v -0.850796 -0.700205 0.709996
v -0.734678 -1.15815 0.78034
v -0.9168 -0.694321 0.705203
v -0.734678 -1.15815 0.78034
v -0.9168 -0.694321 0.705203
v -0.800095 -1.34321 0.747636
v -0.800095 -1.34321 0.747636
v -0.800095 -1.34321 0.747636
v -0.992412 -0.678871 0.67113
v -1.008 -0.675686 0.664106
v -1.07232 -0.745418 0.633774
v -1.008 -0.675686 0.664106
v -0.96859 -0.667166 0.627473
v -1.0725 -0.745616 0.633688
v -1.24472 -0.981478 0.47312
v -1.25047 -0.9806 0.48188
v -1.008 -0.675686 0.664106
v -0.992412 -0.678871 0.67113
v -0.718256 -1.12464 0.776696
v -0.582497 -0.724122 0.729478
v -0.856033 -0.665174 0.596179
v -0.582497 -0.724122 0.729478
v -0.561282 -0.673913 0.560027
v -0.579229 -0.669373 0.549077
v -0.579229 -0.669373 0.549077
v -0.579229 -0.669373 0.549077
v -0.561282 -0.673913 0.560027
v -0.561003 -0.673983 0.560197
v -0.561003 -0.673983 0.560197
v -0.578722 -0.724459 0.729752
v -0.555618 -0.675345 0.563483
v -0.520114 -0.727356 0.72637
v -0.520114 -0.727356 0.72637
v -0.578722 -0.724459 0.729752
v -0.577166 -0.836804 0.745386
v -0.520114 -0.727356 0.72637
v -0.578722 -0.724459 0.729752
v -0.582685 -0.848062 0.746611
v -0.577166 -0.836804 0.745386
v -0.586047 -0.854921 0.747357
v -0.555618 -0.675345 0.563483
vt 0.361371 0.252505
vt 0.339736 0.227007
vt 0.361394 0.25252
vt 0.339736 0.227007
vt 0.361371 0.252505
vt 0.330497 0.234221
vt 0.844371 -0.542654
vt 0.781253 -0.30015
vt 0.928771 -0.489899
vt 0.777187 -0.309219
vt 0.835316 -0.537315
vt 0.757597 -0.352919
vt 0.756985 -0.354283
vt 0.833242 -0.536092
vt 1.18993 0.710703
vt 1.35602 0.604475
vt 0.88807 0.55385
vt -1.2143 0.914381
vt -1.05169 0.615578
vt -1.21519 0.91318
vt -1.24365 0.874666
vt -1.24956 0.866674
vt -1.32004 0.771311
vt 0.82976 -0.191946
vt 1.03635 0.0637734
vt 0.926124 0.0230125
vt -1.46005 0.581865
vt -1.34203 0.548428
vt -1.56535 0.0121376
vt -1.4429 0.00494371
vt -1.56094 -0.0814715
vt -1.61401 -0.070219
vt 1.00598 0.0756773
vt -1.34206 -0.885866
vt -1.3951 -0.93099
vt -1.39485 -0.898367
vt -1.19679 -1.02109
vt -1.22383 -0.857866
vt -1.19666 -1.02105
vt -1.22379 -0.857858
vt -1.16077 -1.01071
vt -1.21356 -0.855435
vt -1.09283 -0.826844
vt -0.870748 -0.927156
vt -0.993432 -0.803304
vt -0.960055 -0.7954
vt -0.870116 -0.7741
vt -0.863374 -0.925031
vt -0.867198 -0.773409
vt -0.851269 -0.921544
vt -0.862388 -0.772271
vt -0.768007 -0.791952
vt -0.742696 -0.827322
vt -0.729741 -0.864106
vt -0.726324 -0.850202
vt 0.49634 -0.810482
vt 0.480031 -0.892873
vt 0.472879 -0.880469
vt 0.522242 -0.736786
vt 0.520706 -0.737794
vt 0.298397 0.223511
vt 0.270414 0.227262
vt 0.29742 0.225067
vt 0.283924 0.221377
vt 0.266373 0.218788
vt 0.658188 0.318095
vt 0.665039 0.404097
vt 0.665491 0.312196
vt 0.63878 0.370502
vt -0.985506 -0.0639686
vt -0.952276 -0.0906881
vt -0.982254 -0.146905
vt -0.990189 -0.161785
vt -1.07872 -0.183731
vt -1.0097 -0.198369
vt -0.793727 -0.75601
vt 0.516667 -0.425818
vt 0.479763 -0.450138
vt 0.445546 -0.426724
vt 0.509228 -0.355969
vt 0.552983 -0.401886
vt 0.576476 -0.386405
vt 0.43163 -0.417201
vt 0.439385 -0.324358
vt 0.425371 -0.328557
vt 0.408377 -0.333648
vt 0.37905 -0.381221
vt -1.00862 -0.045383
vt 0.683305 0.427465
vt 0.964942 0.268422
vt 1.02046 0.262935
vt 0.684062 0.428433
vt 0.887734 0.553675
vt 0.709612 0.461121
vt -1.02475 0.458532
vt -1.05151 0.615246
vt -0.955562 0.43893
vt -1.0962 0.478776
vt -1.12324 0.486438
vt -1.23241 0.517369
vt -1.32916 -0.00173862
vt -1.43176 -0.108866
vt -1.31039 -0.134604
vt -1.21589 -0.00839332
vt -1.21046 -0.155795
vt -1.18783 -0.010042
vt -1.17691 -0.16291
vt -1.1137 -0.0143974
vt -1.08649 -0.182084
vt -1.04191 -0.0186148
vt -1.00958 -0.0446129
vt -1.08356 -0.182706
vt -1.44204 -0.106685
vt 1.02115 0.262866
vt 1.06244 0.258786
vt 0.58215 1.15884
vt 0.42485 1.58422
vt 0.598638 1.17349
vt 0.921455 -0.779463
vt 0.937444 -0.794656
vt 0.885579 -0.876957
vt 0.880431 -0.77298
vt 0.88531 -0.876982
vt 0.87979 -0.772878
vt 1.0211 0.262871
vt 0.81944 -0.883256
vt 0.378276 0.251404
vt 0.384581 0.190643
vt 0.385819 0.249746
vt 0.38457 0.190628
vt 0.378245 0.25141
vt 0.38457 0.190628
vt 0.378245 0.25141
vt 0.373294 0.172515
vt -1.39578 -1.01984
vt 1.11908 0.0313524
vt 0.371084 0.256526
vt 0.369608 0.257581
vt 0.605676 1.30341
vt 0.639394 1.2097
vt 0.598671 1.17351
vt 0.60558 1.30368
vt 0.427081 1.58512
vt 0.436819 1.58908
vt 0.976967 -0.832212
vt 0.961347 -0.83986
vt 0.387593 0.194604
vt 0.41661 0.242983
vt 0.824687 -0.764171
vt 0.55059 -0.908863
vt 0.529331 -0.732136
vt 0.547316 -0.720337
vt 0.685489 0.296042
vt 0.281478 0.250466
vt 0.292913 0.232248
vt 0.29309 0.231966
vt 0.529052 -0.732319
vt 0.546807 -0.909224
vt 0.523656 -0.735859
vt 0.488079 -0.906833
vt -0.733586 -0.879754
vt 0.417043 0.242887
vt 0.413567 0.228762
vt 0.42332 0.240901
vt 0.417043 0.242887
vt 0.412551 0.227426
vt 0.413567 0.228762
vt 0.411933 0.226612
vt 0.296521 0.226499
vn -0.41331 -0.0147971 0.91047
vn -0.41331 -0.0147971 0.91047
vn -0.41331 -0.0147971 0.91047
vn -0.821842 0.2885 0.491267
vn -0.817622 0.291819 0.496323
vn -0.822729 0.287796 0.490194
vn -0.511639 -0.821041 -0.253215
vn -0.511639 -0.821041 -0.253215
vn -0.511639 -0.821041 -0.253215
vn -0.511639 -0.821041 -0.253215
vn -0.511639 -0.821041 -0.253215
vn -0.511639 -0.821041 -0.253215
vn -0.511639 -0.821041 -0.253215
vn -0.511639 -0.821041 -0.253215
vn -0.137357 0.504858 -0.852204
vn -0.137357 0.504858 -0.852204
vn -0.137357 0.504858 -0.852204
vn 0.28222 -0.280399 -0.917458
vn 0.28222 -0.280399 -0.917458
vn 0.28222 -0.280399 -0.917458
vn 0.28222 -0.280399 -0.917458
vn 0.28222 -0.280399 -0.917458
vn 0.28222 -0.280399 -0.917458
vn -0.511639 -0.821041 -0.253215
vn -0.511639 -0.821041 -0.253215
vn -0.511639 -0.821041 -0.253215
vn 0.28222 -0.280399 -0.917458
vn 0.28222 -0.280399 -0.917458
vn 0.744626 -0.379667 -0.548986
vn 0.744626 -0.379667 -0.548986
vn 0.744626 -0.379667 -0.548986
vn 0.744626 -0.379667 -0.548986
vn -0.511639 -0.821041 -0.253215
vn 0.838842 -0.367485 0.401621
vn 0.838842 -0.367485 0.401621
vn 0.838842 -0.367485 0.401621
vn 0.838842 -0.367485 0.401621
vn 0.838842 -0.367485 0.401621
vn 0.838842 -0.367485 0.401621
vn 0.838842 -0.367485 0.401621
vn 0.838842 -0.367485 0.401621
vn 0.838842 -0.367485 0.401621
vn 0.838842 -0.367485 0.401621
vn 0.838842 -0.367485 0.401621
vn 0.838842 -0.367485 0.401621
vn 0.838842 -0.367485 0.401621
vn 0.838842 -0.367485 0.401621
vn 0.838842 -0.367485 0.401621
vn 0.838842 -0.367485 0.401621
vn 0.838842 -0.367485 0.401621
vn 0.838842 -0.367485 0.401621
vn 0.838842 -0.367485 0.401621
vn 0.838842 -0.367485 0.401621
vn 0.838842 -0.367485 0.401621
vn 0.838842 -0.367485 0.401621
vn 0.0639782 0.954621 0.290872
vn 0.0639782 0.954621 0.290872
vn 0.0639782 0.954621 0.290872
vn 0.0639782 0.954621 0.290872
vn 0.0639782 0.954621 0.290872
vn 0.396145 0.871911 -0.287819
vn 0.396145 0.871911 -0.287819
vn 0.396145 0.871911 -0.287819
vn 0.396145 0.871911 -0.287819
vn 0.396145 0.871911 -0.287819
vn -0.137357 0.504858 -0.852204
vn -0.137357 0.504858 -0.852204
vn -0.137357 0.504858 -0.852204
vn -0.137357 0.504858 -0.852204
vn 0.744626 -0.379667 -0.548986
vn 0.744626 -0.379667 -0.548986
vn 0.744626 -0.379667 -0.548986
vn 0.744626 -0.379667 -0.548986
vn 0.744626 -0.379667 -0.548986
vn 0.744626 -0.379667 -0.548986
vn 0.838842 -0.367485 0.401621
vn 0.865613 0.478453 -0.147638
vn 0.865613 0.478453 -0.147638
vn 0.865613 0.478453 -0.147638
vn 0.865613 0.478453 -0.147638
vn 0.865613 0.478453 -0.147638
vn 0.865613 0.478453 -0.147638
vn 0.865613 0.478453 -0.147638
vn 0.865613 0.478453 -0.147638
vn 0.865613 0.478453 -0.147638
vn 0.865613 0.478453 -0.147638
vn 0.865613 0.478453 -0.147638
vn 0.744626 -0.379667 -0.548986
vn -0.137357 0.504858 -0.852204
vn -0.137357 0.504858 -0.852204
vn -0.137357 0.504858 -0.852204
vn -0.137357 0.504858 -0.852204
vn -0.137357 0.504858 -0.852204
vn -0.137357 0.504858 -0.852204
vn 0.28222 -0.280399 -0.917458
vn 0.28222 -0.280399 -0.917458
vn 0.28222 -0.280399 -0.917458
vn 0.28222 -0.280399 -0.917458
vn 0.28222 -0.280399 -0.917458
vn 0.28222 -0.280399 -0.917458
vn 0.744626 -0.379667 -0.548986
vn 0.744626 -0.379667 -0.548986
vn 0.744626 -0.379667 -0.548986
vn 0.744626 -0.379667 -0.548986
vn 0.744626 -0.379667 -0.548986
vn 0.744626 -0.379667 -0.548986
vn 0.744626 -0.379667 -0.548986
vn 0.744626 -0.379667 -0.548986
vn 0.744626 -0.379667 -0.548986
vn 0.744626 -0.379667 -0.548986
vn 0.744626 -0.379667 -0.548986
vn 0.744626 -0.379667 -0.548986
vn 0.744626 -0.379667 -0.548986
vn -0.137357 0.504858 -0.852204
vn -0.137357 0.504858 -0.852204
vn -0.558497 0.70517 -0.436826
vn -0.558497 0.70517 -0.436826
vn -0.558497 0.70517 -0.436826
vn 0.0639782 0.954621 0.290872
vn 0.0639782 0.954621 0.290872
vn 0.0639782 0.954621 0.290872
vn 0.0639782 0.954621 0.290872
vn 0.0639782 0.954621 0.290872
vn 0.0639782 0.954621 0.290872
vn -0.137357 0.504858 -0.852204
vn 0.0639782 0.954621 0.290872
vn -0.0596076 0.136774 0.988807
vn -0.0596076 0.136774 0.988807
vn -0.0596076 0.136774 0.988807
vn -0.0596076 0.136774 0.988807
vn -0.0596076 0.136774 0.988807
vn -0.41331 -0.0147971 0.91047
vn -0.41331 -0.0147971 0.91047
vn -0.41331 -0.0147971 0.91047
vn 0.838842 -0.367485 0.401621
vn -0.511639 -0.821041 -0.253215
vn -0.41331 -0.0147971 0.91047
vn -0.41331 -0.0147971 0.91047
vn -0.558497 0.70517 -0.436826
vn -0.558497 0.70517 -0.436826
vn -0.558497 0.70517 -0.436826
vn -0.558497 0.70517 -0.436826
vn -0.558497 0.70517 -0.436826
vn -0.558497 0.70517 -0.436826
vn 0.0639782 0.954621 0.290872
vn 0.0639782 0.954621 0.290872
vn -0.0596076 0.136774 0.988807
vn -0.0596076 0.136774 0.988807
vn 0.0639782 0.954621 0.290872
vn 0.0639782 0.954621 0.290872
vn 0.0639782 0.954621 0.290872
vn 0.0639782 0.954621 0.290872
vn -0.137357 0.504858 -0.852204
vn 0.396145 0.871911 -0.287819
vn 0.396145 0.871911 -0.287819
vn 0.396145 0.871911 -0.287819
vn 0.0639782 0.954621 0.290872
vn 0.0639782 0.954621 0.290872
vn 0.0639782 0.954621 0.290872
vn 0.0639782 0.954621 0.290872
vn 0.838842 -0.367485 0.401621
vn 0.0638848 0.138415 0.988312
vn 0.0638848 0.138415 0.988312
vn 0.0638848 0.138415 0.988312
vn -0.0596076 0.136774 0.988807
vn -0.0596076 0.136774 0.988807
vn -0.0596076 0.136774 0.988807
vn -0.0596076 0.136774 0.988807
vn 0.396145 0.871911 -0.287819
f 1/1/1 2/2/2 3/3/3 
f 4/4/4 5/5/5 6/6/6 
f 7/7/7 8/8/8 9/9/9 
f 7/7/7 10/10/10 8/8/8 
f 11/11/11 10/10/10 7/7/7 
f 11/11/11 12/12/12 10/10/10 
f 11/11/11 13/13/13 12/12/12 
f 14/14/14 13/13/13 11/11/11 
f 15/15/15 16/16/16 17/17/17 
f 18/18/18 19/19/19 20/20/20 
f 20/20/20 19/19/19 21/21/21 
f 21/21/21 19/19/19 22/22/22 
f 22/22/22 19/19/19 23/23/23 
f 9/9/9 8/8/8 24/24/24 
f 24/24/24 25/25/25 9/9/9 
f 24/24/24 26/26/26 25/25/25 
f 27/27/27 23/23/23 28/28/28 
f 29/29/29 30/30/30 31/31/31 
f 29/29/29 31/31/31 32/32/32 
f 25/25/25 26/26/26 33/33/33 
f 34/34/34 35/35/35 36/36/36 
f 34/34/34 37/37/37 35/35/35 
f 38/38/38 37/37/37 34/34/34 
f 38/38/38 39/39/39 37/37/37 
f 40/40/40 39/39/39 38/38/38 
f 40/40/40 41/41/41 39/39/39 
f 42/42/42 41/41/41 40/40/40 
f 41/41/41 42/42/42 43/43/43 
f 43/43/43 44/44/44 41/41/41 
f 45/45/45 44/44/44 43/43/43 
f 46/46/46 44/44/44 45/45/45 
f 44/44/44 46/46/46 47/47/47 
f 47/47/47 48/48/48 44/44/44 
f 49/49/49 48/48/48 47/47/47 
f 49/49/49 50/50/50 48/48/48 
f 51/51/51 50/50/50 49/49/49 
f 52/52/52 50/50/50 51/51/51 
f 53/53/53 50/50/50 52/52/52 
f 53/53/53 54/54/54 50/50/50 
f 55/55/55 54/54/54 53/53/53 
f 56/56/56 57/57/57 58/58/58 
f 56/56/56 59/59/59 57/57/57 
f 60/60/60 59/59/59 56/56/56 
f 61/61/61 62/62/62 63/63/63 
f 64/64/64 62/62/62 61/61/61 
f 62/62/62 64/64/64 65/65/65 
f 66/66/66 67/67/67 68/68/68 
f 69/69/69 67/67/67 66/66/66 
f 70/70/70 71/71/71 72/72/72 
f 70/70/70 72/72/72 73/73/73 
f 73/73/73 74/74/74 70/70/70 
f 75/75/75 74/74/74 73/73/73 
f 52/52/52 51/51/51 76/76/76 
f 77/77/77 78/78/78 79/79/79 
f 80/80/80 77/77/77 79/79/79 
f 80/80/80 81/81/81 77/77/77 
f 80/80/80 82/82/82 81/81/81 
f 83/83/83 80/80/80 79/79/79 
f 80/80/80 83/83/83 84/84/84 
f 84/84/84 83/83/83 85/85/85 
f 85/85/85 83/83/83 86/86/86 
f 86/86/86 83/83/83 87/87/87 
f 88/88/88 70/70/70 74/74/74 
f 89/89/89 90/90/90 67/67/67 
f 89/89/89 91/91/91 90/90/90 
f 92/92/92 91/91/91 89/89/89 
f 92/92/92 93/93/93 91/91/91 
f 94/94/94 93/93/93 92/92/92 
f 95/95/95 96/96/96 97/97/97 
f 98/98/98 96/96/96 95/95/95 
f 99/99/99 96/96/96 98/98/98 
f 96/96/96 99/99/99 100/100/100 
f 100/100/100 23/23/23 96/96/96 
f 28/28/28 23/23/23 100/100/100 
f 101/101/101 102/102/102 30/30/30 
f 101/101/101 103/103/103 102/102/102 
f 101/101/101 104/104/104 103/103/103 
f 104/104/104 105/105/105 103/103/103 
f 106/106/106 105/105/105 104/104/104 
f 106/106/106 107/107/107 105/105/105 
f 106/106/106 108/108/108 107/107/107 
f 108/108/108 109/109/109 107/107/107 
f 110/110/110 109/109/109 108/108/108 
f 111/111/111 109/109/109 110/110/110 
f 111/111/111 112/112/112 109/109/109 
f 111/111/111 74/74/74 112/112/112 
f 111/111/111 88/88/88 74/74/74 
f 30/30/30 102/102/102 113/113/113 
f 30/30/30 113/113/113 31/31/31 
f 19/19/19 96/96/96 23/23/23 
f 17/17/17 114/114/114 93/93/93 
f 114/114/114 17/17/17 115/115/115 
f 115/115/115 17/17/17 16/16/16 
f 116/116/116 117/117/117 118/118/118 
f 119/119/119 120/120/120 121/121/121 
f 122/122/122 119/119/119 121/121/121 
f 122/122/122 121/121/121 123/123/123 
f 122/122/122 123/123/123 124/124/124 
f 93/93/93 125/125/125 91/91/91 
f 93/93/93 114/114/114 125/125/125 
f 123/123/123 126/126/126 124/124/124 
f 127/127/127 128/128/128 129/129/129 
f 127/127/127 130/130/130 128/128/128 
f 131/131/131 130/130/130 127/127/127 
f 132/132/132 133/133/133 134/134/134 
f 35/35/35 37/37/37 135/135/135 
f 9/9/9 25/25/25 136/136/136 
f 134/134/134 133/133/133 2/2/2 
f 137/137/137 2/2/2 133/133/133 
f 137/137/137 3/3/3 2/2/2 
f 138/138/138 3/3/3 137/137/137 
f 139/139/139 140/140/140 141/141/141 
f 141/141/141 142/142/142 139/139/139 
f 118/118/118 142/142/142 141/141/141 
f 118/118/118 117/117/117 142/142/142 
f 143/143/143 142/142/142 117/117/117 
f 144/144/144 142/142/142 143/143/143 
f 120/120/120 145/145/145 146/146/146 
f 120/120/120 146/146/146 121/121/121 
f 129/129/129 128/128/128 147/147/147 
f 129/129/129 147/147/147 148/148/148 
f 149/149/149 126/126/126 150/150/150 
f 149/149/149 124/124/124 126/126/126 
f 151/151/151 149/149/149 150/150/150 
f 152/152/152 149/149/149 151/151/151 
f 153/153/153 67/67/67 90/90/90 
f 68/68/68 67/67/67 153/153/153 
f 154/154/154 155/155/155 62/62/62 
f 155/155/155 156/156/156 62/62/62 
f 151/151/151 150/150/150 157/157/157 
f 157/157/157 150/150/150 158/158/158 
f 158/158/158 159/159/159 157/157/157 
f 160/160/160 159/159/159 158/158/158 
f 160/160/160 59/59/59 159/159/159 
f 57/57/57 59/59/59 160/160/160 
f 54/54/54 161/161/161 50/50/50 
f 162/162/162 163/163/163 164/164/164 
f 165/165/165 166/166/166 167/167/167 
f 165/165/165 168/168/168 166/166/166 
f 148/148/148 168/168/168 165/165/165 
f 148/148/148 147/147/147 168/168/168 
f 169/169/169 63/63/63 62/62/62 
f 156/156/156 169/169/169 62/62/62 
