v 1.347 1.6522 0.6049
v 1.27972 1.77411 0.404802
v 1.27111 1.77927 0.513223
v 1.29712 1.76736 0.223257
v 1.4021 1.5895 0.419
v 1.29712 1.76736 0.223257
v 1.4021 1.5895 0.419
v 1.2075 1.68895 0.00711793
v 1.2075 1.68895 0.00711793
v 1.27972 1.77411 0.404802
v 1.29712 1.76736 0.223257
v 0.976649 1.57051 0.300097
v 1.13739 1.6348 -0.0888461
v 1.06267 1.58846 -0.0753811
v 0.976649 1.57051 0.300097
v 1.06267 1.58846 -0.0753811
v 1.06299 1.56389 -0.0580227
v 1.06301 1.56226 -0.0568705
v 1.06567 1.36129 0.085114
v 1.0109 1.18116 0.452762
v 1.00954 1.18354 0.456645
v 0.972266 1.25442 0.559409
v 0.905869 1.55573 0.60906
v 0.905869 1.55573 0.60906
v 1.18963 1.74288 0.671772
v 0.879023 1.55012 0.726247
v 1.02217 1.654 0.854172
v 0.869233 1.54808 0.768977
v 0.96992 1.6197 0.844274
v 1.02217 1.654 0.854172
v 0.96992 1.6197 0.844274
v 0.96764 1.6145 0.843917
v 0.957501 1.59136 0.842328
v 0.942434 1.55698 0.839968
v 1.08255 1.55265 0.868451
v 0.917392 1.49984 0.836046
v 0.910811 1.48483 0.835015
v 0.930643 1.47039 0.839324
v 0.908905 1.48048 0.834716
v 0.908905 1.48048 0.834716
v 0.945266 1.43872 0.818682
v 0.930643 1.47039 0.839324
v 0.907 1.47996 0.832976
v 0.888016 1.43412 0.77682
v 0.903542 1.47902 0.829817
v 0.874908 1.47125 0.803661
v 0.874907 1.47125 0.803661
v 0.879023 1.55012 0.726247
v 0.888016 1.43412 0.77682
v 0.873014 1.4969 0.792084
v 0.869582 1.54337 0.771105
v 0.869234 1.54808 0.768978
v 0.869582 1.54337 0.771105
v 0.942434 1.55698 0.839968
v 0.869233 1.54808 0.768977
v 0.917392 1.49984 0.836045
v 0.873014 1.4969 0.792084
v 0.903542 1.47902 0.829817
v 0.910811 1.48483 0.835015
v 0.907 1.47996 0.832976
v 0.908905 1.48048 0.834716
v 0.874907 1.47125 0.803661
v 0.957501 1.59136 0.842328
v 0.96764 1.6145 0.843917
v 0.96992 1.6197 0.844274
v 0.90897 1.37477 0.733917
v 0.935584 1.39512 0.770745
v 0.90897 1.37477 0.733917
v 0.936804 1.40061 0.776786
v 0.939892 1.41452 0.792075
v 1.21238 1.54586 0.772468
v 0.945266 1.43872 0.818682
v 0.939892 1.41452 0.792075
v 0.946148 1.4427 0.823048
v 0.950276 1.46129 0.843487
v 1.08255 1.55265 0.868451
v 0.950277 1.46129 0.843487
v 0.950277 1.46129 0.843487
v 0.946148 1.4427 0.823048
v 1.21238 1.54586 0.772468
v 1.18963 1.74288 0.671772
v 1.08255 1.55265 0.868451
v 1.347 1.6522 0.6049
v 1.31532 1.54047 0.696357
v 1.347 1.6522 0.6049
v 1.31532 1.54047 0.696357
v 1.35903 1.5189 0.639955
v 1.347 1.6522 0.6049
v 1.35903 1.5189 0.639955
v 1.4021 1.5895 0.419
v 1.40387 1.43742 0.507962
v 1.37529 1.24407 0.285734
v 1.4021 1.5895 0.419
v 1.40387 1.43742 0.507962
v 1.37529 1.24407 0.285734
v 1.36983 1.22879 0.270334
v 1.36297 1.23092 0.255534
v 1.29471 1.37474 0.13425
v 1.36137 1.23142 0.252066
v 1.3598 1.23136 0.25171
v 1.29471 1.37474 0.13425
v 1.36137 1.23142 0.252066
v 1.28493 1.22836 0.234665
v 1.28075 1.22819 0.233714
v 1.25939 1.22734 0.228851
v 1.10755 1.22126 0.194285
v 1.06567 1.36129 0.0851141
v 1.06754 1.21966 0.185176
v 1.06754 1.21966 0.185176
v 1.03111 1.18386 0.365691
v 1.01716 1.17016 0.434796
v 1.0224 1.17103 0.432351
v 1.0109 1.18116 0.452762
v 1.01716 1.17016 0.434796
v 1.02852 1.17205 0.429497
v 1.04813 1.17531 0.420355
v 0.982941 1.23869 0.543446
v 1.00954 1.18354 0.456643
v 0.982941 1.23869 0.543446
v 0.972266 1.25442 0.559409
v 1.00954 1.18354 0.456643
v 0.979307 1.24622 0.555304
v 0.978993 1.24687 0.55633
v 0.970201 1.25834 0.565103
v 0.972596 1.26013 0.577205
v 0.978993 1.24687 0.55633
v 1.14533 1.19147 0.375025
v 0.972596 1.26013 0.577205
v 1.12222 1.18763 0.385801
v 0.979307 1.24622 0.555304
v 1.04813 1.17531 0.420355
v 1.03111 1.18386 0.365691
v 1.12222 1.18763 0.385801
v 1.02852 1.17205 0.429497
v 1.0224 1.17103 0.432351
v 1.01716 1.17016 0.434796
v 1.14533 1.19147 0.375025
v 1.10755 1.22126 0.194285
v 1.06754 1.21966 0.185176
v 1.15275 1.1927 0.371565
v 1.15624 1.19328 0.369936
v 1.1939 1.19955 0.352373
v 0.972024 1.26132 0.579071
v 1.15624 1.19328 0.369936
v 1.1939 1.19955 0.352373
v 0.972434 1.26047 0.577732
v 1.15275 1.1927 0.371565
v 0.972483 1.26037 0.577572
v 0.972483 1.26037 0.577572
v 0.972434 1.26047 0.577732
v 0.972024 1.26132 0.579071
v 0.961867 1.27419 0.58808
v 0.956418 1.29367 0.629998
v 0.956418 1.29367 0.629998
v 0.956207 1.29411 0.630688
v 0.956207 1.29411 0.630688
v 0.942077 1.31182 0.642641
v 0.956104 1.29432 0.631023
v 0.954702 1.29723 0.635598
v 0.930283 1.34785 0.715284
v 0.954702 1.29723 0.635598
v 1.37529 1.24407 0.285734
v 0.930283 1.34785 0.715284
v 1.21492 1.20304 0.342571
v 0.956104 1.29432 0.631023
v 1.20755 1.20181 0.346011
v 1.20755 1.20181 0.346011
v 1.21492 1.20304 0.342571
v 1.25939 1.22734 0.228851
v 1.28075 1.22819 0.233714
v 1.28493 1.22836 0.234665
v 1.34783 1.22513 0.280589
v 1.34783 1.22513 0.280589
v 1.36905 1.22866 0.270695
v 1.36983 1.22879 0.270333
v 1.36905 1.22866 0.270695
v 1.36297 1.23092 0.255534
v 1.36983 1.22879 0.270334
v 1.3598 1.23136 0.25171
v 1.36137 1.23142 0.252066
v 0.92729 1.35406 0.725051
v 0.92729 1.35406 0.725051
v 0.913214 1.3667 0.722215
v 0.913214 1.3667 0.722215
v 0.942077 1.31182 0.642641
v 0.910145 1.37254 0.730677
v 0.910145 1.37254 0.730677
v 0.910069 1.37356 0.733481
v 0.90897 1.37477 0.733916
v 0.926726 1.35523 0.726891
v 0.926726 1.35523 0.726891
v 0.935584 1.39512 0.770745
v 0.910069 1.37356 0.733481
v 0.926726 1.35523 0.726891
v 1.40387 1.43742 0.507962
v 0.936804 1.40061 0.776786
v 1.35903 1.5189 0.639955
v 1.31532 1.54047 0.696357
v 0.961867 1.27419 0.58808
v 0.970201 1.25834 0.565103
v 1.06301 1.56226 -0.0568704
v 1.14464 1.62281 -0.078559
v 1.06299 1.56389 -0.0580227
v 1.06267 1.58846 -0.075381
v 1.13739 1.6348 -0.088846
v 1.13739 1.6348 -0.0888461
v 1.2075 1.68895 0.00711796
v 1.14464 1.62281 -0.0785591
v 1.29471 1.37474 0.13425
v 1.347 1.6522 0.6049
v 1.24027 1.76928 0.611746
v 1.18963 1.74288 0.671772
v 1.347 1.6522 0.6049
v 1.27111 1.77927 0.513223
v 1.24027 1.76928 0.611746
v 1.24027 1.76928 0.611746
v 1.27111 1.77927 0.513223
v 1.02217 1.654 0.854172
vt 0.7738 0.8411
vt 0.79426 0.856852
vt 0.783153 0.857199
vt 0.811683 0.858049
vt 0.7911 0.8361
vt 0.811683 0.858049
vt 0.7911 0.8361
vt 0.834812 0.852236
vt 0.0710649 -1.92629
vt 0.470112 -2.03297
vt 0.287945 -2.044
vt 0.365048 -1.66796
vt -0.025228 -1.83806
vt -0.0117169 -1.75014
vt 1.36967 0.0660531
vt 1.3879 -0.319138
vt 1.36295 -0.302326
vt 1.3613 -0.30121
vt 1.15723 -0.16369
vt 0.974323 0.206657
vt 0.976738 0.210748
vt 1.04871 0.319347
vt 1.35466 0.383009
vt 0.67507 -1.60034
vt 0.737998 -1.94023
vt 0.792659 -1.57469
vt 0.921022 -1.75124
vt 0.835536 -1.56534
vt 0.91109 -1.68874
vt 0.737826 0.860256
vt 0.73035 0.860874
vt 0.729753 0.860585
vt 0.727096 0.8593
vt 0.723149 0.857392
vt 0.736148 0.847531
vt 0.716588 0.854221
vt 0.714864 0.853387
vt 0.715693 0.850814
vt 0.714365 0.853146
vt -0.642544 1.64738
vt -0.682777 1.6061
vt -0.666597 1.64327
vt -0.640436 1.64581
vt -0.619431 1.57388
vt -0.636611 1.64295
vt -0.604927 1.61927
vt 1.26888 0.579495
vt 1.34897 0.503228
vt 1.23118 0.55035
vt 1.29492 0.56867
vt 1.34211 0.549053
vt 1.34689 0.547064
vt 1.51227 1.15957
vt 1.52636 1.25975
vt 1.51715 1.15781
vt 1.46726 1.23939
vt 1.46421 1.17692
vt 1.44572 1.22523
vt 1.45173 1.23403
vt 1.44669 1.22991
vt 1.44723 1.23248
vt 1.43768 1.1865
vt 1.56191 1.272
vt 1.58584 1.28025
vt 1.59122 1.2821
vt 1.17092 0.503763
vt -0.672064 1.54146
vt -0.642617 1.50132
vt -0.673414 1.54961
vt -0.676831 1.57023
vt -1.39833 1.56917
vt -1.10849 1.53829
vt -1.10266 1.50239
vt -1.10944 1.54418
vt -1.11392 1.57175
vt -1.25746 1.64834
vt 0.716892 0.848708
vt -0.688321 1.63955
vt -0.683753 1.61199
vt 0.750023 0.839324
vt 0.763809 0.858528
vt 0.736148 0.847531
vt 0.7738 0.8411
vt 0.761025 0.832816
vt 0.7738 0.8411
vt 0.761025 0.832816
vt 0.768189 0.828277
vt 0.7738 0.8411
vt 0.768189 0.828277
vt 0.7911 0.8361
vt 0.779874 0.821221
vt 0.805793 0.800029
vt 0.7911 0.8361
vt 0.779874 0.821221
vt 0.805793 0.800029
vt 0.807455 0.798555
vt 0.809028 0.798977
vt 0.821733 0.816252
vt 0.809396 0.799076
vt -1.51821 -0.862525
vt -1.45171 -1.04737
vt -1.51981 -0.862372
vt -1.44172 -0.869876
vt -1.43745 -0.870286
vt -1.41563 -0.872383
vt -1.2605 -0.887289
vt -1.21771 -1.06463
vt -1.21962 -0.891217
vt 1.01341 -0.0667744
vt 0.977063 0.117272
vt 0.96315 0.187729
vt -1.19219 1.0694
vt -1.1797 1.09167
vt -1.1865 1.07077
vt -1.19883 1.06781
vt -1.2201 1.06271
vt -1.14937 1.19841
vt -1.17823 1.09618
vt 0.90071 -0.154208
vt 0.91714 -0.172816
vt 0.811365 -0.0967559
vt 0.912915 -0.162056
vt 0.913971 -0.162735
vt 0.923001 -0.177031
vt 0.935458 -0.176552
vt -1.14508 1.21358
vt -1.32558 1.03742
vt -1.13814 1.23817
vt -1.3005 1.04343
vt -1.14543 1.21237
vt -1.14315 0.203301
vt -1.12608 0.147988
vt -1.21749 0.167101
vt -1.12348 0.212879
vt -1.11735 0.215869
vt -1.11209 0.21843
vt -1.24067 0.155811
vt -1.20277 -0.0273424
vt -1.16263 -0.0360171
vt -1.24811 0.152187
vt -1.25162 0.150479
vt -1.2894 0.13208
vt -1.13752 1.24036
vt -1.33742 1.03458
vt -1.37829 1.02479
vt -1.13797 1.23879
vt -1.33363 1.03549
vt -1.13802 1.2386
vt 0.935835 -0.176795
vt 0.936 -0.176901
vt 0.937378 -0.177787
vt 0.946651 -0.194037
vt 0.989797 -0.211494
vt -1.12059 1.30034
vt -1.12036 1.30115
vt 0.990506 -0.21195
vt 1.00281 -0.234419
vt 0.990851 -0.212172
vt 0.99556 -0.2152
vt 1.07758 -0.267942
vt -1.11873 1.30693
vt -1.5751 1.0006
vt -1.09223 1.40078
vt -1.40109 1.01932
vt -1.12025 1.30155
vt -1.39309 1.02124
vt -1.30308 0.125415
vt -1.31048 0.121812
vt -1.3551 0.00557855
vt -1.37653 0.0102099
vt -1.38072 0.0111155
vt -1.44382 0.0568759
vt -1.54532 0.984747
vt -1.56834 0.979228
vt -1.56918 0.979026
vt -1.46511 0.0465107
vt -1.45901 0.0311899
vt -1.46589 0.0461318
vt -1.45583 0.0273489
vt -1.4574 0.0276876
vt -1.08898 1.41228
vt 1.08763 -0.274406
vt 1.08471 -0.293315
vt 1.16272 0.491396
vt 1.10699 0.407305
vt 1.16865 0.500339
vt 1.09342 -0.299578
vt 1.09631 -0.300344
vt 1.09676 -0.301975
vt 1.08953 -0.275624
vt -1.08837 1.41445
vt -1.09798 1.47361
vt -0.643833 1.50014
vt -0.662263 1.48233
vt -1.60611 1.29491
vt -1.09931 1.48176
vt -1.55747 1.44888
vt -1.51003 1.50639
vt 1.06878 0.349646
vt 1.05269 0.325364
vt -1.21499 -1.3107
vt -1.2984 -1.3727
vt -1.21497 -1.3127
vt -1.21464 -1.34278
vt -1.29098 -1.38843
vt 0.849514 0.846434
vt 0.834812 0.852236
vt 0.848233 0.845043
vt 0.821733 0.816252
vt 0.7738 0.8411
vt 0.772297 0.857659
vt 0.763809 0.858528
vt 0.7738 0.8411
vt 0.783153 0.857199
vt 0.772297 0.857659
vt 0.677766 -1.99711
vt 0.578905 -2.02848
vt 0.737826 0.860256
vn 0.837201 0.544578 0.0502896
vn 0.837201 0.544578 0.0502896
vn 0.838937 0.542091 0.0481902
vn 0.832388 0.551353 0.0560348
vn 0.829953 0.554715 0.0589018
vn 0.908687 0.086987 -0.408316
vn 0.908687 0.086987 -0.408316
vn 0.908687 0.086987 -0.408316
vn -0.535917 0.840222 -0.0825842
vn -0.535917 0.840222 -0.0825842
vn -0.535917 0.840222 -0.0825842
vn -0.535917 0.840222 -0.0825842
vn -0.535917 0.840222 -0.0825842
vn -0.535917 0.840222 -0.0825842
vn -0.95811 -0.173595 -0.227795
vn -0.95811 -0.173595 -0.227795
vn -0.95811 -0.173595 -0.227795
vn -0.95811 -0.173595 -0.227795
vn -0.95811 -0.173595 -0.227795
vn -0.95811 -0.173595 -0.227795
vn -0.95811 -0.173595 -0.227795
vn -0.95811 -0.173595 -0.227795
vn -0.95811 -0.173595 -0.227795
vn -0.535917 0.840222 -0.0825842
vn -0.535917 0.840222 -0.0825842
vn -0.535917 0.840222 -0.0825842
vn -0.535917 0.840222 -0.0825842
vn -0.535917 0.840222 -0.0825842
vn -0.535917 0.840222 -0.0825842
vn -0.198573 0.0197549 0.979887
vn -0.198573 0.0197549 0.979887
vn -0.198573 0.0197549 0.979887
vn -0.198573 0.0197549 0.979887
vn -0.198573 0.0197549 0.979887
vn -0.198573 0.0197549 0.979887
vn -0.198573 0.0197549 0.979887
vn -0.198573 0.0197549 0.979887
vn -0.198573 0.0197549 0.979887
vn -0.198573 0.0197549 0.979887
vn -0.428019 -0.623844 0.653926
vn -0.428019 -0.623844 0.653926
vn -0.428019 -0.623844 0.653926
vn -0.428019 -0.623844 0.653926
vn -0.428019 -0.623844 0.653926
vn -0.428019 -0.623844 0.653926
vn -0.428019 -0.623844 0.653926
vn -0.95811 -0.173595 -0.227795
vn -0.95811 -0.173595 -0.227795
vn -0.95811 -0.173595 -0.227795
vn -0.95811 -0.173595 -0.227795
vn -0.95811 -0.173595 -0.227795
vn -0.95811 -0.173595 -0.227795
vn -0.688936 0.25536 0.678349
vn -0.688936 0.25536 0.678349
vn -0.688936 0.25536 0.678349
vn -0.688936 0.25536 0.678349
vn -0.688936 0.25536 0.678349
vn -0.688936 0.25536 0.678349
vn -0.688936 0.25536 0.678349
vn -0.688936 0.25536 0.678349
vn -0.688936 0.25536 0.678349
vn -0.688936 0.25536 0.678349
vn -0.688936 0.25536 0.678349
vn -0.688936 0.25536 0.678349
vn -0.688936 0.25536 0.678349
vn -0.95811 -0.173595 -0.227795
vn -0.428019 -0.623844 0.653926
vn -0.428019 -0.623844 0.653926
vn -0.428019 -0.623844 0.653926
vn -0.428019 -0.623844 0.653926
vn 0.388204 -0.719401 0.575986
vn 0.388204 -0.719401 0.575986
vn 0.388204 -0.719401 0.575986
vn 0.388204 -0.719401 0.575986
vn 0.388204 -0.719401 0.575986
vn 0.388204 -0.719401 0.575986
vn -0.198573 0.0197549 0.979887
vn -0.428019 -0.623844 0.653926
vn -0.428019 -0.623844 0.653926
vn 0.551357 0.42925 0.715367
vn 0.551357 0.42925 0.715367
vn 0.551357 0.42925 0.715367
vn 0.551357 0.42925 0.715367
vn 0.551357 0.42925 0.715367
vn 0.810025 0.216439 0.544989
vn 0.810025 0.216439 0.544989
vn 0.810025 0.216439 0.544989
vn 0.960674 0.148431 0.234678
vn 0.960674 0.148431 0.234678
vn 0.960674 0.148431 0.234678
vn 0.960674 0.148431 0.234678
vn 0.994925 -0.0419471 -0.0914627
vn 0.994925 -0.0419471 -0.0914627
vn 0.994925 -0.0419471 -0.0914627
vn 0.908687 0.086987 -0.408316
vn 0.908687 0.086987 -0.408316
vn 0.908687 0.086987 -0.408316
vn 0.908687 0.086987 -0.408316
vn 0.908687 0.086987 -0.408316
vn 0.204827 -0.56297 -0.800694
vn 0.204827 -0.56297 -0.800694
vn 0.204827 -0.56297 -0.800694
vn 0.204827 -0.56297 -0.800694
vn 0.204827 -0.56297 -0.800694
vn 0.204827 -0.56297 -0.800694
vn 0.204827 -0.56297 -0.800694
vn 0.204827 -0.56297 -0.800694
vn 0.204827 -0.56297 -0.800694
vn -0.95811 -0.173595 -0.227795
vn -0.95811 -0.173595 -0.227795
vn -0.95811 -0.173595 -0.227795
vn 0.388204 -0.719401 0.575986
vn 0.388204 -0.719401 0.575986
vn 0.388204 -0.719401 0.575986
vn 0.388204 -0.719401 0.575986
vn 0.388204 -0.719401 0.575986
vn 0.388204 -0.719401 0.575986
vn 0.388204 -0.719401 0.575986
vn -0.675256 -0.698525 0.236837
vn -0.675256 -0.698525 0.236837
vn -0.675256 -0.698525 0.236837
vn -0.675256 -0.698525 0.236837
vn -0.675256 -0.698525 0.236837
vn -0.675256 -0.698525 0.236837
vn -0.675256 -0.698525 0.236837
vn 0.388204 -0.719401 0.575986
vn 0.388204 -0.719401 0.575986
vn 0.388204 -0.719401 0.575986
vn 0.388204 -0.719401 0.575986
vn 0.388204 -0.719401 0.575986
vn 0.0798794 -0.980722 -0.178336
vn 0.0798794 -0.980722 -0.178336
vn 0.0798794 -0.980722 -0.178336
vn 0.0798794 -0.980722 -0.178336
vn 0.0798794 -0.980722 -0.178336
vn 0.0798794 -0.980722 -0.178336
vn 0.0798794 -0.980722 -0.178336
vn 0.0798794 -0.980722 -0.178336
vn 0.0798794 -0.980722 -0.178336
vn 0.0798794 -0.980722 -0.178336
vn 0.0798794 -0.980722 -0.178336
vn 0.0798794 -0.980722 -0.178336
vn 0.388204 -0.719401 0.575986
vn 0.388204 -0.719401 0.575986
vn 0.388204 -0.719401 0.575986
vn 0.388204 -0.719401 0.575986
vn 0.388204 -0.719401 0.575986
vn 0.388204 -0.719401 0.575986
vn -0.675256 -0.698525 0.236837
vn -0.675256 -0.698525 0.236837
vn -0.675256 -0.698525 0.236837
vn -0.675256 -0.698525 0.236837
vn -0.675256 -0.698525 0.236837
vn 0.388204 -0.719401 0.575986
vn 0.388204 -0.719401 0.575986
vn -0.675256 -0.698525 0.236837
vn -0.675256 -0.698525 0.236837
vn -0.675256 -0.698525 0.236837
vn -0.675256 -0.698525 0.236837
vn -0.675256 -0.698525 0.236837
vn 0.388204 -0.719401 0.575986
vn 0.388204 -0.719401 0.575986
vn 0.388204 -0.719401 0.575986
vn 0.388204 -0.719401 0.575986
vn 0.388204 -0.719401 0.575986
vn 0.388204 -0.719401 0.575986
vn 0.0798794 -0.980722 -0.178336
vn 0.0798794 -0.980722 -0.178336
vn 0.0798794 -0.980722 -0.178336
vn 0.0798794 -0.980722 -0.178336
vn 0.0798794 -0.980722 -0.178336
vn 0.0798794 -0.980722 -0.178336
vn 0.388204 -0.719401 0.575986
vn 0.388204 -0.719401 0.575986
vn 0.388204 -0.719401 0.575986
vn 0.0798794 -0.980722 -0.178336
vn 0.0798794 -0.980722 -0.178336
vn 0.0798794 -0.980722 -0.178336
vn 0.0798794 -0.980722 -0.178336
vn 0.0798794 -0.980722 -0.178336
vn 0.388204 -0.719401 0.575986
vn -0.675256 -0.698525 0.236837
vn -0.675256 -0.698525 0.236837
vn -0.95811 -0.173595 -0.227795
vn -0.95811 -0.173595 -0.227795
vn -0.95811 -0.173595 -0.227795
vn -0.675256 -0.698525 0.236837
vn -0.675256 -0.698525 0.236837
vn -0.675256 -0.698525 0.236837
vn -0.675256 -0.698525 0.236837
vn 0.388204 -0.719401 0.575986
vn 0.388204 -0.719401 0.575986
vn -0.428019 -0.623844 0.653926
vn -0.428019 -0.623844 0.653926
vn 0.388204 -0.719401 0.575986
vn 0.388204 -0.719401 0.575986
vn 0.388204 -0.719401 0.575986
vn 0.388204 -0.719401 0.575986
vn -0.95811 -0.173595 -0.227795
vn -0.95811 -0.173595 -0.227795
vn 0.204827 -0.56297 -0.800694
vn 0.204827 -0.56297 -0.800694
vn 0.204827 -0.56297 -0.800694
vn 0.204827 -0.56297 -0.800694
vn 0.204827 -0.56297 -0.800694
vn 0.810592 -0.0119227 -0.58549
vn 0.810592 -0.0119227 -0.58549
vn 0.810592 -0.0119227 -0.58549
vn 0.810592 -0.0119227 -0.58549
vn 0.560892 0.471504 0.680503
vn 0.560892 0.471504 0.680503
vn 0.560892 0.471504 0.680503
vn 0.715941 0.635765 0.2885
vn 0.715941 0.635765 0.2885
vn 0.715941 0.635765 0.2885
vn -0.535917 0.840222 -0.0825842
vn -0.535917 0.840222 -0.0825842
vn 0.551357 0.42925 0.715367
f 1/1/1 2/2/2 3/3/3 
f 1/1/1 4/4/4 2/2/2 
f 5/5/5 4/4/4 1/1/1 
f 6/6/6 7/7/7 8/8/8 
f 9/9/9 10/10/10 11/11/11 
f 9/9/9 12/12/12 10/10/10 
f 13/13/13 12/12/12 9/9/9 
f 14/14/14 12/12/12 13/13/13 
f 15/15/15 16/16/16 17/17/17 
f 18/18/18 15/15/15 17/17/17 
f 19/19/19 15/15/15 18/18/18 
f 15/15/15 19/19/19 20/20/20 
f 21/21/21 15/15/15 20/20/20 
f 22/22/22 15/15/15 21/21/21 
f 15/15/15 22/22/22 23/23/23 
f 10/10/10 12/12/12 24/24/24 
f 24/24/24 25/25/25 10/10/10 
f 26/26/26 25/25/25 24/24/24 
f 26/26/26 27/27/27 25/25/25 
f 28/28/28 27/27/27 26/26/26 
f 29/29/29 27/27/27 28/28/28 
f 30/30/30 31/31/31 32/32/32 
f 33/33/33 30/30/30 32/32/32 
f 34/34/34 30/30/30 33/33/33 
f 34/34/34 35/35/35 30/30/30 
f 36/36/36 35/35/35 34/34/34 
f 37/37/37 35/35/35 36/36/36 
f 37/37/37 38/38/38 35/35/35 
f 39/39/39 38/38/38 37/37/37 
f 40/40/40 41/41/41 42/42/42 
f 43/43/43 41/41/41 40/40/40 
f 43/43/43 44/44/44 41/41/41 
f 45/45/45 44/44/44 43/43/43 
f 46/46/46 44/44/44 45/45/45 
f 47/47/47 48/48/48 49/49/49 
f 50/50/50 48/48/48 47/47/47 
f 48/48/48 50/50/50 51/51/51 
f 52/52/52 48/48/48 51/51/51 
f 53/53/53 54/54/54 55/55/55 
f 56/56/56 54/54/54 53/53/53 
f 56/56/56 53/53/53 57/57/57 
f 56/56/56 57/57/57 58/58/58 
f 59/59/59 56/56/56 58/58/58 
f 59/59/59 58/58/58 60/60/60 
f 59/59/59 60/60/60 61/61/61 
f 58/58/58 57/57/57 62/62/62 
f 63/63/63 55/55/55 54/54/54 
f 63/63/63 64/64/64 55/55/55 
f 55/55/55 64/64/64 65/65/65 
f 49/49/49 48/48/48 66/66/66 
f 67/67/67 44/44/44 68/68/68 
f 69/69/69 44/44/44 67/67/67 
f 70/70/70 44/44/44 69/69/69 
f 44/44/44 70/70/70 41/41/41 
f 71/71/71 72/72/72 73/73/73 
f 71/71/71 74/74/74 72/72/72 
f 71/71/71 75/75/75 74/74/74 
f 76/76/76 75/75/75 71/71/71 
f 77/77/77 35/35/35 38/38/38 
f 78/78/78 42/42/42 79/79/79 
f 79/79/79 42/42/42 41/41/41 
f 80/80/80 81/81/81 82/82/82 
f 80/80/80 83/83/83 81/81/81 
f 84/84/84 83/83/83 80/80/80 
f 85/85/85 86/86/86 87/87/87 
f 88/88/88 89/89/89 90/90/90 
f 90/90/90 89/89/89 91/91/91 
f 92/92/92 93/93/93 94/94/94 
f 95/95/95 8/8/8 7/7/7 
f 96/96/96 8/8/8 95/95/95 
f 97/97/97 8/8/8 96/96/96 
f 97/97/97 98/98/98 8/8/8 
f 99/99/99 98/98/98 97/97/97 
f 100/100/100 101/101/101 102/102/102 
f 101/101/101 100/100/100 103/103/103 
f 101/101/101 103/103/103 104/104/104 
f 101/101/101 104/104/104 105/105/105 
f 106/106/106 101/101/101 105/105/105 
f 106/106/106 107/107/107 101/101/101 
f 108/108/108 107/107/107 106/106/106 
f 109/109/109 20/20/20 19/19/19 
f 110/110/110 20/20/20 109/109/109 
f 20/20/20 110/110/110 111/111/111 
f 112/112/112 113/113/113 114/114/114 
f 115/115/115 113/113/113 112/112/112 
f 116/116/116 113/113/113 115/115/115 
f 117/117/117 113/113/113 116/116/116 
f 118/118/118 113/113/113 117/117/117 
f 119/119/119 120/120/120 121/121/121 
f 122/122/122 120/120/120 119/119/119 
f 123/123/123 120/120/120 122/122/122 
f 123/123/123 124/124/124 120/120/120 
f 123/123/123 125/125/125 124/124/124 
f 126/126/126 127/127/127 128/128/128 
f 126/126/126 129/129/129 127/127/127 
f 130/130/130 129/129/129 126/126/126 
f 130/130/130 116/116/116 129/129/129 
f 117/117/117 116/116/116 130/130/130 
f 131/131/131 132/132/132 133/133/133 
f 131/131/131 134/134/134 132/132/132 
f 135/135/135 132/132/132 134/134/134 
f 132/132/132 135/135/135 136/136/136 
f 133/133/133 132/132/132 137/137/137 
f 132/132/132 138/138/138 137/137/137 
f 138/138/138 132/132/132 139/139/139 
f 138/138/138 140/140/140 137/137/137 
f 138/138/138 141/141/141 140/140/140 
f 141/141/141 138/138/138 142/142/142 
f 143/143/143 144/144/144 145/145/145 
f 146/146/146 144/144/144 143/143/143 
f 146/146/146 147/147/147 144/144/144 
f 148/148/148 147/147/147 146/146/146 
f 148/148/148 127/127/127 147/147/147 
f 128/128/128 127/127/127 148/148/148 
f 125/125/125 149/149/149 124/124/124 
f 149/149/149 150/150/150 124/124/124 
f 150/150/150 151/151/151 124/124/124 
f 151/151/151 152/152/152 124/124/124 
f 151/151/151 153/153/153 152/152/152 
f 143/143/143 145/145/145 154/154/154 
f 154/154/154 145/145/145 155/155/155 
f 156/156/156 157/157/157 153/153/153 
f 158/158/158 157/157/157 156/156/156 
f 159/159/159 157/157/157 158/158/158 
f 159/159/159 160/160/160 157/157/157 
f 161/161/161 162/162/162 163/163/163 
f 161/161/161 164/164/164 162/162/162 
f 165/165/165 164/164/164 161/161/161 
f 165/165/165 166/166/166 164/164/164 
f 155/155/155 166/166/166 165/165/165 
f 155/155/155 145/145/145 166/166/166 
f 142/142/142 138/138/138 167/167/167 
f 167/167/167 138/138/138 168/168/168 
f 168/168/168 138/138/138 169/169/169 
f 170/170/170 168/168/168 169/169/169 
f 171/171/171 168/168/168 170/170/170 
f 172/172/172 168/168/168 171/171/171 
f 162/162/162 164/164/164 173/173/173 
f 162/162/162 173/173/173 174/174/174 
f 162/162/162 174/174/174 175/175/175 
f 176/176/176 177/177/177 178/178/178 
f 176/176/176 172/172/172 177/177/177 
f 172/172/172 179/179/179 177/177/177 
f 172/172/172 171/171/171 179/179/179 
f 177/177/177 179/179/179 180/180/180 
f 163/163/163 162/162/162 181/181/181 
f 160/160/160 182/182/182 183/183/183 
f 160/160/160 183/183/183 157/157/157 
f 184/184/184 23/23/23 185/185/185 
f 184/184/184 48/48/48 23/23/23 
f 186/186/186 48/48/48 184/184/184 
f 66/66/66 48/48/48 186/186/186 
f 187/187/187 188/188/188 189/189/189 
f 187/187/187 190/190/190 188/188/188 
f 182/182/182 190/190/190 187/187/187 
f 191/191/191 181/181/181 192/192/192 
f 67/67/67 193/193/193 194/194/194 
f 67/67/67 68/68/68 193/193/193 
f 192/192/192 181/181/181 195/195/195 
f 192/192/192 195/195/195 196/196/196 
f 196/196/196 195/195/195 73/73/73 
f 73/73/73 195/195/195 71/71/71 
f 197/197/197 71/71/71 195/195/195 
f 197/197/197 198/198/198 71/71/71 
f 181/181/181 162/162/162 195/195/195 
f 182/182/182 187/187/187 183/183/183 
f 185/185/185 23/23/23 199/199/199 
f 153/153/153 157/157/157 152/152/152 
f 23/23/23 200/200/200 199/199/199 
f 23/23/23 22/22/22 200/200/200 
f 107/107/107 201/201/201 101/101/101 
f 201/201/201 202/202/202 101/101/101 
f 201/201/201 203/203/203 202/202/202 
f 203/203/203 204/204/204 202/202/202 
f 202/202/202 204/204/204 205/205/205 
f 206/206/206 207/207/207 208/208/208 
f 208/208/208 207/207/207 209/209/209 
f 210/210/210 211/211/211 212/212/212 
f 213/213/213 214/214/214 215/215/215 
f 216/216/216 217/217/217 25/25/25 
f 217/217/217 10/10/10 25/25/25 
f 82/82/82 81/81/81 218/218/218 
