v -0.1416 -2.2641 -0.838
v 0.0876897 -2.26141 -0.848487
v -0.0111128 -2.2997 -0.746952
v 0.0876897 -2.26141 -0.848487
v -0.1416 -2.2641 -0.838
v 0.120693 -2.24442 -0.884547
v 0.120693 -2.24442 -0.884547
v -0.0448988 -2.06754 -0.837244
v 0.0876896 -2.26141 -0.848487
v 0.0871843 -2.21023 -0.954944
v -0.0448988 -2.06754 -0.837244
v 0.120693 -2.24442 -0.884547
v -0.0453734 -2.06703 -0.837108
v 0.015237 -2.13397 -0.963428
v -0.0455916 -2.0668 -0.837046
v -0.0381104 -2.07767 -0.982503
v -0.0458768 -2.06649 -0.836964
v -0.103659 -2.00669 -0.91578
v -0.0459473 -2.06642 -0.836944
v -0.115294 -1.99416 -0.907314
v -0.0459472 -2.06642 -0.836944
v -0.115294 -1.99416 -0.907314
v -0.0459865 -2.06678 -0.836726
v -0.0458768 -2.06649 -0.836964
v -0.0459473 -2.06642 -0.836944
v -0.0459865 -2.06678 -0.836726
v -0.0455916 -2.0668 -0.837046
v -0.0453734 -2.06703 -0.837108
v -0.0111129 -2.2997 -0.746952
v -0.0719887 -2.30901 -0.691674
v -0.179105 -2.07325 -0.879393
v -0.0719887 -2.30901 -0.691674
v -0.115294 -1.99416 -0.907314
v -0.1821 -2.1338 -0.8852
v -0.179105 -2.07325 -0.879393
v -0.103659 -2.00669 -0.91578
v -0.1821 -2.1338 -0.8852
v -0.103659 -2.00669 -0.91578
v -0.0381103 -2.07767 -0.982503
v -0.1821 -2.1338 -0.8852
v -0.0381103 -2.07767 -0.982503
v 0.0152371 -2.13397 -0.963428
v -0.1821 -2.1338 -0.8852
v 0.0152371 -2.13397 -0.963428
v -0.1416 -2.2641 -0.838
v -0.192518 -2.27847 -0.753478
v -0.1821 -2.1338 -0.8852
v -0.1416 -2.2641 -0.838
v -0.202518 -2.17405 -0.823458
v -0.1821 -2.1338 -0.8852
v -0.202518 -2.17405 -0.823458
v -0.201798 -2.1202 -0.857485
v -0.1821 -2.1338 -0.8852
v -0.201798 -2.1202 -0.857485
v -0.179105 -2.07325 -0.879393
v -0.201798 -2.1202 -0.857485
v -0.202518 -2.17405 -0.823458
v -0.0727879 -2.31645 -0.687215
v -0.0735418 -2.32348 -0.68301
v -0.147798 -2.30605 -0.720205
v -0.147798 -2.30605 -0.720205
v -0.0688677 -2.32209 -0.687599
v -0.0735418 -2.32348 -0.68301
v -0.1416 -2.2641 -0.838
v -0.0688677 -2.32209 -0.687599
v -0.0688677 -2.32209 -0.687599
v -0.072788 -2.31645 -0.687215
v -0.0735419 -2.32348 -0.68301
v -0.1416 -2.2641 -0.838
v -0.147798 -2.30605 -0.720205
v -0.192518 -2.27847 -0.753478
v -0.192518 -2.27847 -0.753478
v 0.0871845 -2.21023 -0.954944
v 0.0871845 -2.21023 -0.954944
vt 0.8432 0.2917
vt 0.848078 0.315538
vt 0.833474 0.303756
vt 0.848078 0.315538
vt 0.8432 0.2917
vt 0.853328 0.320084
vt -1.86912 0.657849
vt -1.67912 0.500223
vt -1.88737 0.609422
vt -0.974877 -1.66919
vt -0.857165 -1.47475
vt -0.904473 -1.71705
vt -0.85703 -1.47406
vt -0.983361 -1.56434
vt -0.856967 -1.47374
vt -1.00244 -1.48679
vt -0.856886 -1.47332
vt -0.93571 -1.39017
vt -0.856866 -1.47322
vt -0.927243 -1.37307
vt 0.560183 -1.29377
vt 0.632513 -1.19503
vt 0.560224 -1.2942
vt -1.678 0.499292
vt -1.67791 0.499225
vt -1.67831 0.499055
vt -1.67832 0.499563
vt -1.67857 0.499771
vt -1.9285 0.468547
vt -1.9385 0.386399
vt 0.69907 -1.27675
vt 0.587345 -1.57643
vt 0.059665 0.12004
vt 0.0682 0.104
vt 0.0683216 0.111585
vt 0.0578363 0.118173
vt 0.0682 0.104
vt 0.0578363 0.118173
vt 0.0480305 0.109187
vt 0.8628 0.2897
vt 0.880456 0.311384
vt 0.871436 0.312241
vt 0.8628 0.2897
vt 0.871436 0.312241
vt 0.8432 0.2917
vt 0.835423 0.284701
vt 0.8628 0.2897
vt 0.8432 0.2917
vt 0.853406 0.286025
vt 0.8628 0.2897
vt 0.853406 0.286025
vt 0.861571 0.285545
vt 0.0682 0.104
vt 0.0732678 0.103169
vt 0.0683216 0.111585
vt 0.722739 -1.32811
vt 0.723491 -1.39182
vt 0.588178 -1.58511
vt 0.588965 -1.59329
vt 0.666416 -1.55861
vt 0.826181 0.289082
vt 0.824938 0.296869
vt 0.824084 0.2963
vt 0.8432 0.2917
vt 0.824938 0.296869
vt -1.95255 0.386198
vt -1.9465 0.382937
vt -1.95404 0.379671
vt 0.8432 0.2917
vt 0.826181 0.289082
vt 0.835423 0.284701
vt 0.71306 -1.51748
vt 0.862082 0.318923
vt 0.862082 0.318923
vn -0.00540278 -0.933915 -0.357455
vn -0.00789801 -0.932916 -0.360008
vn -0.00818963 -0.93298 -0.359835
vn -0.00925107 -0.901241 -0.43322
vn -0.00925107 -0.901241 -0.43322
vn -0.00925107 -0.901241 -0.43322
vn 0.594629 0.365116 0.716314
vn 0.594629 0.365116 0.716314
vn 0.594629 0.365116 0.716314
vn 0.728105 0.685327 -0.0137962
vn 0.728105 0.685327 -0.0137962
vn 0.728105 0.685327 -0.0137962
vn 0.728105 0.685327 -0.0137962
vn 0.728105 0.685327 -0.0137962
vn 0.728105 0.685327 -0.0137962
vn 0.728105 0.685327 -0.0137962
vn 0.728105 0.685327 -0.0137962
vn 0.728105 0.685327 -0.0137962
vn 0.728105 0.685327 -0.0137962
vn 0.728105 0.685327 -0.0137962
vn -0.284263 0.514837 0.808788
vn -0.284263 0.514837 0.808788
vn -0.284263 0.514837 0.808788
vn 0.594629 0.365116 0.716314
vn 0.594629 0.365116 0.716314
vn 0.594629 0.365116 0.716314
vn 0.594629 0.365116 0.716314
vn 0.594629 0.365116 0.716314
vn 0.594629 0.365116 0.716314
vn 0.594629 0.365116 0.716314
vn -0.284263 0.514837 0.808788
vn -0.284263 0.514837 0.808788
vn -0.506987 0.107103 -0.855274
vn -0.506987 0.107103 -0.855274
vn -0.506987 0.107103 -0.855274
vn -0.506987 0.107103 -0.855274
vn -0.598176 0.181347 -0.780576
vn -0.598176 0.181347 -0.780576
vn -0.598176 0.181347 -0.780576
vn -0.307317 -0.55353 -0.774055
vn -0.307317 -0.55353 -0.774055
vn -0.307317 -0.55353 -0.774055
vn -0.336191 -0.411384 -0.847195
vn -0.336191 -0.411384 -0.847195
vn -0.336191 -0.411384 -0.847195
vn -0.744248 -0.419573 -0.519668
vn -0.744248 -0.419573 -0.519668
vn -0.744248 -0.419573 -0.519668
vn -0.744248 -0.419573 -0.519668
vn -0.842034 -0.28004 -0.461038
vn -0.842034 -0.28004 -0.461038
vn -0.842034 -0.28004 -0.461038
vn -0.788078 0.0972751 -0.607841
vn -0.788078 0.0972751 -0.607841
vn -0.788078 0.0972751 -0.607841
vn -0.284263 0.514837 0.808788
vn -0.284263 0.514837 0.808788
vn -0.284263 0.514837 0.808788
vn -0.284263 0.514837 0.808788
vn -0.284263 0.514837 0.808788
vn -0.051637 -0.939937 -0.337419
vn -0.0448066 -0.937902 -0.343993
vn -0.0451822 -0.938017 -0.343633
vn -0.051637 -0.939937 -0.337419
vn -0.0083601 -0.933017 -0.359734
vn 0.594629 0.365116 0.716314
vn 0.594629 0.365116 0.716314
vn 0.594629 0.365116 0.716314
vn -0.302243 -0.89286 -0.333842
vn -0.302243 -0.89286 -0.333842
vn -0.302243 -0.89286 -0.333842
vn -0.284263 0.514837 0.808788
vn -0.336191 -0.411384 -0.847195
vn -0.00925107 -0.901241 -0.43322
f 1/1/1 2/2/2 3/3/3 
f 4/4/4 5/5/5 6/6/6 
f 7/7/7 8/8/8 9/9/9 
f 10/10/10 11/11/11 12/12/12 
f 10/10/10 13/13/13 11/11/11 
f 14/14/14 13/13/13 10/10/10 
f 14/14/14 15/15/15 13/13/13 
f 16/16/16 15/15/15 14/14/14 
f 16/16/16 17/17/17 15/15/15 
f 18/18/18 17/17/17 16/16/16 
f 18/18/18 19/19/19 17/17/17 
f 20/20/20 19/19/19 18/18/18 
f 21/21/21 22/22/22 23/23/23 
f 24/24/24 25/25/25 26/26/26 
f 27/27/27 24/24/24 26/26/26 
f 27/27/27 26/26/26 28/28/28 
f 28/28/28 26/26/26 8/8/8 
f 29/29/29 8/8/8 26/26/26 
f 9/9/9 8/8/8 29/29/29 
f 26/26/26 30/30/30 29/29/29 
f 23/23/23 31/31/31 32/32/32 
f 23/23/23 22/22/22 31/31/31 
f 33/33/33 34/34/34 35/35/35 
f 36/36/36 34/34/34 33/33/33 
f 37/37/37 38/38/38 39/39/39 
f 40/40/40 41/41/41 42/42/42 
f 43/43/43 44/44/44 45/45/45 
f 46/46/46 47/47/47 48/48/48 
f 49/49/49 47/47/47 46/46/46 
f 50/50/50 51/51/51 52/52/52 
f 53/53/53 54/54/54 55/55/55 
f 56/56/56 57/57/57 31/31/31 
f 57/57/57 58/58/58 31/31/31 
f 57/57/57 59/59/59 58/58/58 
f 60/60/60 59/59/59 57/57/57 
f 61/61/61 62/62/62 63/63/63 
f 64/64/64 62/62/62 61/61/61 
f 1/1/1 3/3/3 65/65/65 
f 29/29/29 30/30/30 66/66/66 
f 66/66/66 30/30/30 67/67/67 
f 66/66/66 67/67/67 68/68/68 
f 31/31/31 58/58/58 32/32/32 
f 69/69/69 70/70/70 71/71/71 
f 72/72/72 60/60/60 57/57/57 
f 45/45/45 44/44/44 73/73/73 
f 6/6/6 5/5/5 74/74/74 
