v 0.365944 1.42751 0.818763
v 0.3712 1.4242 0.8206
v 0.365969 1.42772 0.818776
v 0.365944 1.42751 0.818763
v -0.092421 1.38638 0.764295
v 0.3712 1.4242 0.8206
v -0.0643261 1.44188 0.750673
v -0.0829479 1.38782 0.745515
v -0.092421 1.38638 0.764295
v -0.064326 1.44188 0.750673
v -0.0854887 1.38044 0.744811
v -0.121323 1.32929 0.778309
v -0.121323 1.32929 0.778309
v -0.121053 1.3286 0.77857
v -0.121053 1.3286 0.77857
v 0.334495 1.0378 0.915972
v 0.3712 1.4242 0.8206
v 0.334446 1.03773 0.915985
v 0.334418 1.03768 0.915992
v -0.120705 1.3278 0.778823
v 0.319136 1.0139 0.920094
v 0.309923 0.99956 0.922567
v -0.035179 1.13287 0.841068
v 0.308607 0.997511 0.92292
v 0.308516 0.99737 0.922945
v 0.308445 0.99726 0.922964
v -0.0347114 1.13181 0.841408
v 0.308369 0.997142 0.922984
v 0.30831 0.99705 0.923
v -0.0343232 1.13092 0.84169
v 0.30831 0.99705 0.923
v -0.0343231 1.13092 0.84169
v 0.259645 1.05935 0.830247
v 0.30831 0.99705 0.923
v 0.259645 1.05935 0.830247
v 0.308369 0.997142 0.922984
v 0.308445 0.99726 0.922964
v 0.308516 0.99737 0.922945
v 0.308607 0.997511 0.92292
v 0.309923 0.99956 0.922567
v 0.319136 1.0139 0.920094
v 0.334418 1.03768 0.915992
v 0.334495 1.0378 0.915972
v 0.383898 1.11469 0.902712
v 0.263793 1.11698 0.789904
v 0.251956 1.06919 0.815593
v 0.262421 1.11568 0.789633
v 0.365944 1.42751 0.818763
v 0.263793 1.11698 0.789904
v 0.262421 1.11568 0.789633
v 0.374233 1.42295 0.819902
v 0.374045 1.2215 0.811727
v 0.374045 1.2215 0.811727
v 0.438692 1.19998 0.888004
v 0.383898 1.11469 0.902712
v 0.438692 1.19998 0.888004
v 0.466837 1.30877 0.830633
v 0.3712 1.4242 0.8206
v 0.438692 1.19998 0.888004
v 0.374233 1.42295 0.819902
v 0.466993 1.30937 0.830316
v 0.467078 1.3097 0.830141
v 0.467078 1.3097 0.830141
v 0.467078 1.3097 0.830141
v 0.466993 1.30937 0.830316
v 0.466837 1.30877 0.830633
v 0.373728 1.42407 0.819866
v 0.3712 1.4242 0.8206
v 0.374233 1.42295 0.819902
v 0.367447 1.43801 0.819428
v 0.367303 1.43833 0.819418
v 0.367303 1.43833 0.819418
v 0.365969 1.42772 0.818776
v 0.367303 1.43833 0.819418
v 0.367447 1.43801 0.819428
v 0.373728 1.42407 0.819866
v 0.0505651 1.15345 0.757348
v -0.064326 1.44188 0.750673
v 0.00781864 1.17806 0.75152
v 0.0134647 1.1694 0.752072
v 0.0135033 1.16336 0.757128
v 0.00781862 1.17806 0.751521
v 0.0134646 1.1694 0.752072
v -0.0983422 1.34075 0.741155
v -0.120705 1.3278 0.778823
v -0.098879 1.34157 0.741103
v -0.121323 1.32929 0.778309
v -0.0988791 1.34157 0.741103
v -0.0988791 1.34157 0.741102
v -0.0854887 1.38044 0.744811
v -0.0983422 1.34075 0.741155
v -0.0829478 1.38782 0.745515
v -0.121053 1.3286 0.77857
v -0.0094528 1.14779 0.797717
v -0.0351788 1.13287 0.841068
v -0.0347113 1.13181 0.841408
v -0.034323 1.13092 0.84169
v -0.00945297 1.14779 0.797717
v 0.237139 1.08816 0.787353
v 0.235545 1.0902 0.784313
v 0.235545 1.0902 0.784313
v 0.237139 1.08816 0.787353
v 0.235544 1.0902 0.784313
v 0.0505651 1.15345 0.757348
v 0.0135032 1.16336 0.757128
v 0.0175436 1.16474 0.752534
v 0.016211 1.16519 0.75234
v 0.0162111 1.16519 0.75234
v 0.0175436 1.16474 0.752534
v 0.016211 1.16519 0.75234
v 0.238207 1.08679 0.789388
v 0.238207 1.08679 0.789388
v 0.251956 1.06919 0.815593
vt 0.509527 0.537864
vt 0.5103 0.5374
vt 0.50953 0.537886
vt 0.509527 0.537864
vt 0.467577 0.520279
vt 0.5103 0.5374
vt 0.466057 0.530676
vt 1.3903 0.709089
vt 1.38878 0.730117
vt 1.44762 0.705765
vt 1.38248 0.709542
vt 1.32825 0.755168
vt 0.469141 0.509582
vt 0.469221 0.509466
vt 0.469221 0.509466
vt 0.521192 0.482085
vt 0.5103 0.5374
vt 0.52119 0.482073
vt 0.521189 0.482066
vt 0.469282 0.509365
vt 0.52068 0.478277
vt 0.520373 0.475993
vt 0.484203 0.484528
vt 0.520329 0.475666
vt 0.520326 0.475644
vt 0.520324 0.475626
vt 0.484284 0.484392
vt 0.520321 0.475607
vt 0.520319 0.475593
vt 0.484352 0.48428
vt -0.00185598 0.345552
vt 0.349969 0.210829
vt 0.048115 0.234397
vt 0.639157 -0.853
vt 0.710643 -0.754298
vt 0.639263 -0.853033
vt 0.639398 -0.853075
vt 0.639525 -0.853114
vt 0.639687 -0.853164
vt 0.642038 -0.853891
vt 0.658491 -0.858976
vt 0.685785 -0.867412
vt 0.685922 -0.867454
vt 0.774155 -0.894724
vt 0.776775 -0.729955
vt 0.721937 -0.738705
vt 0.775283 -0.728764
vt 1.45633 -0.490412
vt 1.14555 -0.38499
vt 1.14425 -0.383592
vt 1.45176 -0.498777
vt 1.25015 -0.497303
vt 0.896717 -0.82572
vt 0.872017 -0.924971
vt 0.522838 0.494334
vt 0.524665 0.507919
vt 0.524758 0.522897
vt 0.5103 0.5374
vt 0.524665 0.507919
vt 0.510688 0.537264
vt 0.524759 0.522979
vt 0.524759 0.523025
vt 1.33843 -0.592076
vt 0.997926 -0.906529
vt 0.997546 -0.906585
vt 0.996857 -0.906686
vt 0.510619 0.537393
vt 0.5103 0.5374
vt 0.510688 0.537264
vt 0.509755 0.538996
vt 0.509735 0.539033
vt 0.509735 0.539033
vt 1.45653 -0.490439
vt 1.46716 -0.491857
vt 1.46684 -0.492002
vt 1.45288 -0.498273
vt 1.18205 -0.169296
vt 1.47071 -0.0547886
vt 1.20668 -0.126165
vt 1.19802 -0.131828
vt 0.786843 0.572134
vt 0.803557 0.571479
vt 0.793718 0.56828
vt 0.988565 0.631633
vt 0.973841 0.674874
vt 0.989501 0.631937
vt 0.97553 0.674876
vt 1.34127 0.711932
vt 1.37032 -0.0191591
vt 1.40922 -0.0329667
vt 1.3695 -0.0196976
vt 1.41661 -0.0355867
vt 0.974744 0.674903
vt 0.76914 0.617997
vt 0.752178 0.667755
vt 0.750966 0.667717
vt 0.74996 0.667684
vt 0.324432 0.16409
vt 0.0712243 0.182994
vt 0.0728617 0.179351
vt 0.746044 -0.705419
vt 0.743702 -0.708653
vt 1.11875 -0.356213
vt 0.262804 0.125804
vt 0.30086 0.120948
vt 0.296711 0.116245
vt 0.298079 0.11586
vt 0.788931 0.566724
vt 1.19335 -0.135928
vt 1.1938 -0.134582
vt 0.742133 -0.710819
vt 0.0701278 0.185433
vt 0.0560096 0.216837
vn -0.337923 -0.014472 0.941062
vn -0.337923 -0.014472 0.941062
vn -0.337923 -0.014472 0.941062
vn -0.139168 0.301937 0.943115
vn -0.139168 0.301937 0.943115
vn -0.139168 0.301937 0.943115
vn -0.139168 0.301937 0.943115
vn -0.852156 0.332125 -0.40438
vn -0.852156 0.332125 -0.40438
vn -0.852156 0.332125 -0.40438
vn -0.852156 0.332125 -0.40438
vn -0.852156 0.332125 -0.40438
vn -0.139168 0.301937 0.943115
vn -0.139168 0.301937 0.943115
vn -0.126482 0.253366 0.959066
vn -0.12921 0.250453 0.959468
vn -0.130344 0.249241 0.95963
vn -0.12921 0.250454 0.959467
vn -0.129209 0.250454 0.959467
vn -0.126483 0.253365 0.959066
vn -0.129043 0.250632 0.959443
vn -0.128943 0.250739 0.959429
vn -0.126682 0.253153 0.959096
vn -0.128928 0.250755 0.959427
vn -0.128927 0.250755 0.959427
vn -0.128927 0.250756 0.959427
vn -0.126683 0.253152 0.959096
vn -0.128926 0.250757 0.959426
vn -0.128925 0.250758 0.959426
vn -0.126684 0.253151 0.959097
vn -0.22709 -0.859419 -0.458071
vn -0.22709 -0.859419 -0.458071
vn -0.22709 -0.859419 -0.458071
vn 0.591637 -0.490477 -0.639842
vn 0.591637 -0.490477 -0.639842
vn 0.591637 -0.490477 -0.639842
vn 0.591637 -0.490477 -0.639842
vn 0.591637 -0.490477 -0.639842
vn 0.591637 -0.490477 -0.639842
vn 0.591637 -0.490477 -0.639842
vn 0.591637 -0.490477 -0.639842
vn 0.591637 -0.490477 -0.639842
vn 0.591637 -0.490477 -0.639842
vn 0.591637 -0.490477 -0.639842
vn 0.591637 -0.490477 -0.639842
vn 0.591637 -0.490477 -0.639842
vn 0.591637 -0.490477 -0.639842
vn 0.157481 0.0398943 -0.986716
vn 0.157481 0.0398943 -0.986716
vn 0.157481 0.0398943 -0.986716
vn 0.157481 0.0398943 -0.986716
vn 0.157481 0.0398943 -0.986716
vn 0.591637 -0.490477 -0.639842
vn 0.591637 -0.490477 -0.639842
vn -0.129748 0.249879 0.959545
vn -0.130344 0.249241 0.95963
vn 0.340047 0.367316 0.865706
vn 0.349602 0.364665 0.863017
vn 0.341128 0.367019 0.865407
vn 0.349329 0.364741 0.863095
vn 0.340041 0.367318 0.865708
vn 0.340038 0.367319 0.865709
vn 0.157481 0.0398943 -0.986716
vn 0.591637 -0.490477 -0.639842
vn 0.591637 -0.490477 -0.639842
vn 0.591637 -0.490477 -0.639842
vn 0.28287 0.157138 0.946199
vn 0.28287 0.157138 0.946199
vn 0.28287 0.157138 0.946199
vn 0.28287 0.157138 0.946199
vn 0.28287 0.157138 0.946199
vn -0.337923 -0.014472 0.941062
vn 0.157481 0.0398943 -0.986716
vn 0.157481 0.0398943 -0.986716
vn 0.157481 0.0398943 -0.986716
vn 0.157481 0.0398943 -0.986716
vn 0.157481 0.0398943 -0.986716
vn 0.157481 0.0398943 -0.986716
vn 0.157481 0.0398943 -0.986716
vn 0.157481 0.0398943 -0.986716
vn -0.674577 -0.476121 -0.564141
vn -0.674577 -0.476121 -0.564141
vn -0.674577 -0.476121 -0.564141
vn -0.674577 -0.476121 -0.564141
vn -0.674577 -0.476121 -0.564141
vn -0.674577 -0.476121 -0.564141
vn -0.674577 -0.476121 -0.564141
vn -0.852156 0.332125 -0.40438
vn 0.157481 0.0398943 -0.986716
vn 0.157481 0.0398943 -0.986716
vn 0.157481 0.0398943 -0.986716
vn 0.157481 0.0398943 -0.986716
vn -0.674577 -0.476121 -0.564141
vn -0.674577 -0.476121 -0.564141
vn -0.674577 -0.476121 -0.564141
vn -0.674577 -0.476121 -0.564141
vn -0.674577 -0.476121 -0.564141
vn -0.22709 -0.859419 -0.458071
vn -0.22709 -0.859419 -0.458071
vn -0.22709 -0.859419 -0.458071
vn 0.591637 -0.490477 -0.639842
vn 0.591637 -0.490477 -0.639842
vn 0.157481 0.0398943 -0.986716
vn -0.22709 -0.859419 -0.458071
vn -0.22709 -0.859419 -0.458071
vn -0.22709 -0.859419 -0.458071
vn -0.22709 -0.859419 -0.458071
vn -0.674577 -0.476121 -0.564141
vn 0.157481 0.0398943 -0.986716
vn 0.157481 0.0398943 -0.986716
vn 0.591637 -0.490477 -0.639842
vn -0.22709 -0.859419 -0.458071
vn -0.22709 -0.859419 -0.458071
f 1/1/1 2/2/2 3/3/3 
f 4/4/4 5/5/5 6/6/6 
f 7/7/7 5/5/5 4/4/4 
f 8/8/8 9/9/9 10/10/10 
f 11/11/11 9/9/9 8/8/8 
f 9/9/9 11/11/11 12/12/12 
f 13/13/13 6/6/6 5/5/5 
f 14/14/14 6/6/6 13/13/13 
f 15/15/15 16/16/16 17/17/17 
f 15/15/15 18/18/18 16/16/16 
f 15/15/15 19/19/19 18/18/18 
f 20/20/20 19/19/19 15/15/15 
f 20/20/20 21/21/21 19/19/19 
f 20/20/20 22/22/22 21/21/21 
f 23/23/23 22/22/22 20/20/20 
f 23/23/23 24/24/24 22/22/22 
f 23/23/23 25/25/25 24/24/24 
f 23/23/23 26/26/26 25/25/25 
f 27/27/27 26/26/26 23/23/23 
f 27/27/27 28/28/28 26/26/26 
f 27/27/27 29/29/29 28/28/28 
f 30/30/30 29/29/29 27/27/27 
f 31/31/31 32/32/32 33/33/33 
f 34/34/34 35/35/35 36/36/36 
f 36/36/36 35/35/35 37/37/37 
f 37/37/37 35/35/35 38/38/38 
f 38/38/38 35/35/35 39/39/39 
f 39/39/39 35/35/35 40/40/40 
f 40/40/40 35/35/35 41/41/41 
f 41/41/41 35/35/35 42/42/42 
f 42/42/42 35/35/35 43/43/43 
f 35/35/35 44/44/44 43/43/43 
f 35/35/35 45/45/45 44/44/44 
f 45/45/45 35/35/35 46/46/46 
f 47/47/47 45/45/45 46/46/46 
f 48/48/48 49/49/49 50/50/50 
f 51/51/51 49/49/49 48/48/48 
f 49/49/49 51/51/51 52/52/52 
f 53/53/53 44/44/44 45/45/45 
f 44/44/44 53/53/53 54/54/54 
f 17/17/17 55/55/55 56/56/56 
f 17/17/17 16/16/16 55/55/55 
f 57/57/57 58/58/58 59/59/59 
f 57/57/57 60/60/60 58/58/58 
f 61/61/61 60/60/60 57/57/57 
f 62/62/62 60/60/60 61/61/61 
f 51/51/51 63/63/63 52/52/52 
f 53/53/53 64/64/64 65/65/65 
f 53/53/53 65/65/65 66/66/66 
f 53/53/53 66/66/66 54/54/54 
f 67/67/67 68/68/68 69/69/69 
f 70/70/70 68/68/68 67/67/67 
f 71/71/71 68/68/68 70/70/70 
f 3/3/3 2/2/2 72/72/72 
f 73/73/73 74/74/74 75/75/75 
f 73/73/73 75/75/75 76/76/76 
f 48/48/48 73/73/73 76/76/76 
f 48/48/48 76/76/76 51/51/51 
f 48/48/48 50/50/50 77/77/77 
f 78/78/78 48/48/48 77/77/77 
f 77/77/77 79/79/79 78/78/78 
f 80/80/80 79/79/79 77/77/77 
f 81/81/81 82/82/82 83/83/83 
f 81/81/81 84/84/84 82/82/82 
f 85/85/85 84/84/84 81/81/81 
f 85/85/85 86/86/86 84/84/84 
f 87/87/87 86/86/86 85/85/85 
f 12/12/12 11/11/11 88/88/88 
f 89/89/89 90/90/90 91/91/91 
f 91/91/91 90/90/90 79/79/79 
f 90/90/90 92/92/92 79/79/79 
f 92/92/92 78/78/78 79/79/79 
f 93/93/93 87/87/87 85/85/85 
f 94/94/94 85/85/85 81/81/81 
f 95/95/95 85/85/85 94/94/94 
f 95/95/95 94/94/94 96/96/96 
f 96/96/96 94/94/94 97/97/97 
f 98/98/98 99/99/99 32/32/32 
f 99/99/99 98/98/98 100/100/100 
f 101/101/101 47/47/47 102/102/102 
f 77/77/77 50/50/50 103/103/103 
f 100/100/100 98/98/98 104/104/104 
f 105/105/105 104/104/104 98/98/98 
f 105/105/105 106/106/106 104/104/104 
f 105/105/105 107/107/107 106/106/106 
f 81/81/81 83/83/83 108/108/108 
f 80/80/80 109/109/109 110/110/110 
f 80/80/80 77/77/77 109/109/109 
f 102/102/102 47/47/47 111/111/111 
f 32/32/32 99/99/99 112/112/112 
f 32/32/32 112/112/112 113/113/113 
f 33/33/33 32/32/32 113/113/113 
f 111/111/111 47/47/47 46/46/46 
