v -0.0263271 2.15746 -0.492021
v -0.0608 2.2098 -0.4454
v -0.0151233 2.15491 -0.480025
v -0.0608 2.2098 -0.4454
v -0.0263271 2.15746 -0.492021
v -0.130129 2.1589 -0.464908
v -0.205372 2.15574 -0.41908
v -0.0608 2.2098 -0.4454
v -0.130129 2.1589 -0.464908
v -0.218436 2.1561 -0.416784
v -0.0608 2.2098 -0.4454
v -0.205372 2.15574 -0.41908
v -0.223655 2.15876 -0.415906
v -0.236894 2.16551 -0.41368
v -0.224164 2.23606 -0.417028
v -0.0608 2.2098 -0.4454
v -0.224164 2.23606 -0.417028
v -0.10722 2.25577 -0.414251
v -0.0608 2.2098 -0.4454
v -0.10722 2.25577 -0.414251
v -0.0340425 2.22632 -0.410954
v 0.0478251 2.15008 -0.39744
v -0.0608 2.2098 -0.4454
v -0.0340425 2.22632 -0.410954
v 0.0483138 2.14752 -0.398884
v 0.0512311 2.13982 -0.408978
v 0.0483138 2.14752 -0.398884
v -0.0151232 2.15491 -0.480025
v 0.0512311 2.13982 -0.408978
v 0.0290955 2.13864 -0.393978
v -0.130129 2.1589 -0.464908
v -0.0263271 2.15746 -0.492021
v -0.205372 2.15574 -0.41908
v -0.213872 2.15528 -0.413212
v -0.17998 2.14913 -0.386685
v -0.17998 2.14913 -0.386685
v 0.0290955 2.13864 -0.393978
v -0.184573 2.15112 -0.386924
v -0.17998 2.14913 -0.386685
v -0.184573 2.15112 -0.386924
v -0.213872 2.15528 -0.413212
v -0.185875 2.15169 -0.386992
v -0.213482 2.16365 -0.38843
v -0.223655 2.15876 -0.415906
v -0.236894 2.16551 -0.41368
v -0.237513 2.16589 -0.41339
v -0.237667 2.1659 -0.41355
v -0.237667 2.1659 -0.413549
v -0.224164 2.23606 -0.417028
v -0.237667 2.1659 -0.41355
v -0.212498 2.22125 -0.401546
v -0.212478 2.2224 -0.401808
v -0.211975 2.25184 -0.408512
v -0.212478 2.2224 -0.401808
v 0.0466715 2.14638 -0.396547
v -0.211975 2.25184 -0.408512
v 0.0453817 2.14225 -0.395549
v -0.212498 2.22125 -0.401546
v -0.213482 2.16365 -0.38843
v -0.185876 2.15169 -0.386992
v 0.0440239 2.1379 -0.394499
v 0.0481131 2.13868 -0.400846
v 0.0453816 2.14225 -0.395549
v 0.0440238 2.1379 -0.394499
v 0.0483137 2.14752 -0.398884
v 0.0524865 2.13953 -0.407634
v 0.0513821 2.13978 -0.408816
v 0.0524866 2.13953 -0.407634
v 0.0513821 2.13978 -0.408816
v 0.0481131 2.13868 -0.400846
v 0.0524866 2.13953 -0.407634
v 0.0440239 2.1379 -0.394499
v 0.0466714 2.14638 -0.396547
v 0.0474356 2.14883 -0.397139
v 0.047825 2.15008 -0.39744
v 0.047825 2.15008 -0.39744
v -0.0340425 2.22632 -0.410954
v 0.0474357 2.14883 -0.397139
v -0.10722 2.25577 -0.414251
v -0.211975 2.25184 -0.408512
v -0.213482 2.16365 -0.38843
v -0.237513 2.16589 -0.41339
v -0.218436 2.1561 -0.416784
v -0.218436 2.1561 -0.416784
vt 0.214737 0.645324
vt 0.225 0.6475
vt 0.215531 0.647275
vt 0.225 0.6475
vt 0.214737 0.645324
vt 0.223878 0.63659
vt 0.229348 0.628435
vt 0.225 0.6475
vt 0.223878 0.63659
vt 0.23004 0.627034
vt 0.225 0.6475
vt 0.229348 0.628435
vt 0.230461 0.62663
vt 0.231527 0.625603
vt 0.234904 0.63133
vt 0.225 0.6475
vt 0.234904 0.63133
vt 0.231828 0.644993
vt 0.225 0.6475
vt 0.231828 0.644993
vt 0.22931 0.651029
vt 0.222413 0.659604
vt 0.225 0.6475
vt 0.22931 0.651029
vt 0.222039 0.659619
vt 0.220235 0.658832
vt 0.222039 0.659619
vt 0.127881 -0.815175
vt 0.0614258 -0.742635
vt 0.0835949 -0.727639
vt 0.24306 -0.800881
vt 0.139101 -0.827424
vt 0.318417 -0.755132
vt 0.32693 -0.749264
vt 0.292987 -0.722098
vt 0.184238 2.18142
vt -0.0250503 2.1728
vt 0.188835 2.18341
vt 0.196765 -1.04833
vt 0.196515 -1.05333
vt 0.168956 -1.08175
vt 0.196443 -1.05475
vt 0.194936 -1.08484
vt 0.166131 -1.0921
vt 0.168466 -1.10694
vt 0.16877 -1.10766
vt 0.168602 -1.10781
vt 0.23159 0.625544
vt 2.22623 -0.454449
vt 2.15504 -0.461443
vt 2.2112 -0.435232
vt 2.21237 -0.435405
vt 2.24224 -0.43983
vt 0.216769 2.25622
vt -0.0426441 2.18092
vt 0.216266 2.28641
vt -0.041353 2.17667
vt 0.216789 2.25503
vt 0.217774 2.19597
vt 0.19014 2.18398
vt -0.0399938 2.17219
vt 2.09571 0.365513
vt 2.0993 0.359573
vt 2.09491 0.357963
vt 2.10462 0.363955
vt 2.09656 0.373587
vt 0.220246 0.658859
vt 0.220324 0.659051
vt 0.0612745 -0.74247
vt 0.0645485 -0.734427
vt 0.0601683 -0.741263
vt 0.0686439 -0.728035
vt 2.10347 0.361103
vt 2.10595 0.362009
vt 2.10721 0.362471
vt -0.0437988 2.18472
vt 0.038152 2.26207
vt -0.0434091 2.18344
vt 0.111404 2.29151
vt 0.236014 0.633498
vt 2.15276 -0.426575
vt 2.15503 -0.461221
vt 0.165211 -1.08625
vt 0.331501 -0.752922
vn 0.575759 0.721601 -0.384441
vn 0.575759 0.721601 -0.384441
vn 0.575759 0.721601 -0.384441
vn -0.199219 0.575345 -0.793278
vn -0.199219 0.575345 -0.793278
vn -0.199219 0.575345 -0.793278
vn -0.376921 0.731236 -0.568528
vn -0.376921 0.731236 -0.568528
vn -0.376921 0.731236 -0.568528
vn -0.173499 -0.0154317 -0.984713
vn -0.173499 -0.0154317 -0.984713
vn -0.173499 -0.0154317 -0.984713
vn -0.173499 -0.0154317 -0.984713
vn -0.173499 -0.0154317 -0.984713
vn -0.173499 -0.0154317 -0.984713
vn -0.066128 0.51311 -0.855772
vn -0.066128 0.51311 -0.855772
vn -0.066128 0.51311 -0.855772
vn 0.321549 0.731845 -0.600841
vn 0.321549 0.731845 -0.600841
vn 0.321549 0.731845 -0.600841
vn 0.562371 0.485174 -0.669586
vn 0.562371 0.485174 -0.669586
vn 0.562371 0.485174 -0.669586
vn 0.562371 0.485174 -0.669586
vn 0.575759 0.721601 -0.384441
vn 0.575759 0.721601 -0.384441
vn -0.0549687 -0.985892 -0.1581
vn -0.0549687 -0.985892 -0.1581
vn -0.0549687 -0.985892 -0.1581
vn -0.0549687 -0.985892 -0.1581
vn -0.0549687 -0.985892 -0.1581
vn -0.0549687 -0.985892 -0.1581
vn -0.0549687 -0.985892 -0.1581
vn -0.0549687 -0.985892 -0.1581
vn 0.0450747 0.221083 0.974213
vn 0.0450747 0.221083 0.974213
vn 0.0450747 0.221083 0.974213
vn -0.392498 -0.869413 0.300111
vn -0.392498 -0.869413 0.300111
vn -0.392498 -0.869413 0.300111
vn -0.392498 -0.869413 0.300111
vn -0.392498 -0.869413 0.300111
vn -0.392498 -0.869413 0.300111
vn -0.392498 -0.869413 0.300111
vn -0.392498 -0.869413 0.300111
vn -0.392498 -0.869413 0.300111
vn -0.173499 -0.0154317 -0.984713
vn -0.702339 0.169445 0.691381
vn -0.702339 0.169445 0.691381
vn -0.702339 0.169445 0.691381
vn -0.702339 0.169445 0.691381
vn -0.702339 0.169445 0.691381
vn 0.0450747 0.221083 0.974213
vn 0.0450747 0.221083 0.974213
vn 0.0450747 0.221083 0.974213
vn 0.0450747 0.221083 0.974213
vn 0.0450747 0.221083 0.974213
vn 0.0450747 0.221083 0.974213
vn 0.0450747 0.221083 0.974213
vn 0.0450747 0.221083 0.974213
vn 0.840465 -0.135553 0.524636
vn 0.840465 -0.135553 0.524636
vn 0.840465 -0.135553 0.524636
vn 0.840465 -0.135553 0.524636
vn 0.840465 -0.135553 0.524636
vn 0.575759 0.721601 -0.384441
vn 0.575759 0.721601 -0.384441
vn -0.0549687 -0.985892 -0.1581
vn -0.0549687 -0.985892 -0.1581
vn -0.0549687 -0.985892 -0.1581
vn -0.0549687 -0.985892 -0.1581
vn 0.840465 -0.135553 0.524636
vn 0.840465 -0.135553 0.524636
vn 0.840465 -0.135553 0.524636
vn 0.0450747 0.221083 0.974213
vn 0.0450747 0.221083 0.974213
vn 0.0450747 0.221083 0.974213
vn 0.0450747 0.221083 0.974213
vn -0.066128 0.51311 -0.855772
vn -0.702339 0.169445 0.691381
vn -0.702339 0.169445 0.691381
vn -0.392498 -0.869413 0.300111
vn -0.0549687 -0.985892 -0.1581
f 1/1/1 2/2/2 3/3/3 
f 4/4/4 5/5/5 6/6/6 
f 7/7/7 8/8/8 9/9/9 
f 10/10/10 11/11/11 12/12/12 
f 13/13/13 11/11/11 10/10/10 
f 11/11/11 13/13/13 14/14/14 
f 11/11/11 14/14/14 15/15/15 
f 16/16/16 17/17/17 18/18/18 
f 19/19/19 20/20/20 21/21/21 
f 22/22/22 23/23/23 24/24/24 
f 25/25/25 23/23/23 22/22/22 
f 26/26/26 2/2/2 27/27/27 
f 3/3/3 2/2/2 26/26/26 
f 28/28/28 29/29/29 30/30/30 
f 31/31/31 28/28/28 30/30/30 
f 28/28/28 31/31/31 32/32/32 
f 33/33/33 31/31/31 30/30/30 
f 30/30/30 34/34/34 33/33/33 
f 30/30/30 35/35/35 34/34/34 
f 36/36/36 37/37/37 38/38/38 
f 39/39/39 40/40/40 41/41/41 
f 41/41/41 40/40/40 42/42/42 
f 41/41/41 42/42/42 43/43/43 
f 43/43/43 44/44/44 41/41/41 
f 44/44/44 43/43/43 45/45/45 
f 45/45/45 43/43/43 46/46/46 
f 45/45/45 46/46/46 47/47/47 
f 15/15/15 14/14/14 48/48/48 
f 49/49/49 50/50/50 51/51/51 
f 52/52/52 49/49/49 51/51/51 
f 52/52/52 53/53/53 49/49/49 
f 54/54/54 55/55/55 56/56/56 
f 54/54/54 57/57/57 55/55/55 
f 58/58/58 57/57/57 54/54/54 
f 59/59/59 57/57/57 58/58/58 
f 60/60/60 57/57/57 59/59/59 
f 60/60/60 37/37/37 57/57/57 
f 38/38/38 37/37/37 60/60/60 
f 57/57/57 37/37/37 61/61/61 
f 62/62/62 63/63/63 64/64/64 
f 62/62/62 65/65/65 63/63/63 
f 66/66/66 65/65/65 62/62/62 
f 67/67/67 27/27/27 68/68/68 
f 26/26/26 27/27/27 67/67/67 
f 69/69/69 70/70/70 29/29/29 
f 71/71/71 70/70/70 69/69/69 
f 70/70/70 30/30/30 29/29/29 
f 30/30/30 70/70/70 72/72/72 
f 65/65/65 73/73/73 63/63/63 
f 65/65/65 74/74/74 73/73/73 
f 65/65/65 75/75/75 74/74/74 
f 76/76/76 77/77/77 78/78/78 
f 78/78/78 77/77/77 79/79/79 
f 79/79/79 55/55/55 78/78/78 
f 56/56/56 55/55/55 79/79/79 
f 18/18/18 17/17/17 80/80/80 
f 81/81/81 51/51/51 82/82/82 
f 51/51/51 50/50/50 82/82/82 
f 41/41/41 44/44/44 83/83/83 
f 33/33/33 34/34/34 84/84/84 
