v -0.598777 -1.50426 0.836407
v -0.734678 -1.15815 0.78034
v -0.623259 -1.49631 0.825423
v -0.734678 -1.15815 0.78034
v -0.598777 -1.50426 0.836407
v -0.577166 -0.836804 0.745386
v -0.577166 -0.836804 0.745386
v -0.599653 -1.02568 0.619524
v -0.734678 -1.15815 0.78034
v -0.570334 -0.962816 0.615813
v -0.519127 -0.853012 0.609331
v -0.302916 -0.885821 0.60208
v -0.570333 -0.962816 0.615813
v -0.519127 -0.853012 0.60933
v -0.290188 -0.892925 0.601863
v -0.328465 -1.05491 0.609947
v -0.280046 -0.898587 0.60169
v -0.280046 -0.898587 0.60169
v -0.207357 -0.894895 0.71922
v -0.328465 -1.05491 0.609947
v -0.253829 -0.891449 0.640814
v -0.224774 -0.883539 0.684174
v -0.213789 -0.880548 0.700567
v -0.20409 -0.886746 0.720013
v -0.207357 -0.894895 0.71922
v -0.20409 -0.886746 0.720013
v -0.206011 -0.884986 0.720031
v -0.21731 -0.874633 0.720137
v -0.276411 -0.835731 0.719563
v -0.236032 -0.857479 0.720312
v -0.236032 -0.857479 0.720312
v -0.21731 -0.874632 0.720137
v -0.228774 -0.863165 0.717216
v -0.224774 -0.883539 0.684174
v -0.236032 -0.857479 0.720312
v -0.228774 -0.863165 0.717216
v -0.276411 -0.835731 0.719563
v -0.253829 -0.891449 0.640814
v -0.302916 -0.885822 0.60208
v -0.290188 -0.892926 0.601863
v -0.280046 -0.898587 0.60169
v -0.336453 -0.803394 0.71845
v -0.373338 -0.846514 0.603281
v -0.373338 -0.846514 0.603281
v -0.491345 -0.79344 0.605814
v -0.445502 -0.806234 0.604513
v -0.486611 -0.783288 0.605214
v -0.486611 -0.783288 0.605214
v -0.491345 -0.79344 0.605814
v -0.491038 -0.768149 0.628314
v -0.486611 -0.783288 0.605214
v -0.491038 -0.768149 0.628314
v -0.445502 -0.806234 0.604513
v -0.494774 -0.755376 0.647806
v -0.459941 -0.734293 0.720873
v -0.497721 -0.745302 0.663177
v -0.501158 -0.733549 0.681111
v -0.475466 -0.725598 0.721191
v -0.496898 -0.713595 0.72163
v -0.496898 -0.713595 0.72163
v -0.512345 -0.722707 0.725216
v -0.475466 -0.725598 0.721191
v -0.496898 -0.713594 0.72163
v -0.510631 -0.723134 0.710426
v -0.512345 -0.722707 0.725217
v -0.49963 -0.715974 0.714579
v -0.504945 -0.720602 0.700867
v -0.501714 -0.731649 0.68401
v -0.510631 -0.723134 0.710426
v -0.504945 -0.720602 0.700867
v -0.512009 -0.723747 0.712743
v -0.512009 -0.723747 0.712743
v -0.513911 -0.723645 0.725449
v -0.520114 -0.727356 0.72637
v -0.535337 -0.756559 0.731444
v -0.513911 -0.723645 0.725449
v -0.520114 -0.727356 0.72637
v -0.317235 -1.36433 0.802465
v -0.512345 -0.722708 0.725216
v -0.246643 -1.07855 0.757878
v -0.246643 -1.07855 0.757878
v -0.459941 -0.734292 0.720873
v -0.339218 -0.801904 0.718399
v -0.339218 -0.801904 0.718399
v -0.336453 -0.803393 0.71845
v -0.339218 -0.801904 0.718399
v -0.207357 -0.894895 0.71922
v -0.246643 -1.07855 0.757878
v -0.359167 -1.15404 0.615183
v -0.359167 -1.15404 0.615183
v -0.599652 -1.02568 0.619524
v -0.603858 -1.0347 0.620057
v -0.36366 -1.16855 0.615949
v -0.604361 -1.03578 0.620121
v -0.364199 -1.17028 0.616041
v -0.604915 -1.03697 0.620191
v -0.364792 -1.1722 0.616142
v -0.731492 -1.30839 0.636214
v -0.73049 -1.44884 0.641867
v -0.720904 -1.50946 0.643943
v -0.743863 -1.48595 0.682923
v -0.730491 -1.44884 0.641867
v -0.720904 -1.50946 0.643943
v -0.774567 -1.4545 0.735052
v -0.744564 -1.35984 0.638818
v -0.744564 -1.35984 0.638818
v -0.74733 -1.34235 0.638219
v -0.755017 -1.34248 0.654159
v -0.731492 -1.30839 0.636214
v -0.74733 -1.34235 0.638219
v -0.771338 -1.26186 0.762012
v -0.794797 -1.34313 0.736651
v -0.800095 -1.34321 0.747636
v -0.800095 -1.34321 0.747636
v -0.771338 -1.26186 0.762012
v -0.785042 -1.44378 0.752835
v -0.774567 -1.4545 0.735052
v -0.623259 -1.49631 0.825423
v -0.785042 -1.44378 0.752835
v -0.743863 -1.48595 0.682923
v -0.526621 -1.60095 0.64396
v -0.509203 -1.60686 0.650993
v -0.486471 -1.61332 0.664039
v -0.489665 -1.61349 0.658883
v -0.489665 -1.61349 0.658883
v -0.364792 -1.1722 0.616142
v -0.486471 -1.61332 0.664039
v -0.499204 -1.60617 0.639064
v -0.499204 -1.60617 0.639064
v -0.535971 -1.59778 0.640184
v -0.535972 -1.59778 0.640183
v -0.720904 -1.50946 0.643943
v -0.526621 -1.60095 0.64396
v -0.535971 -1.59778 0.640184
v -0.499204 -1.60617 0.639064
v -0.509203 -1.60686 0.650993
v -0.489665 -1.61349 0.658883
v -0.42541 -1.60995 0.762619
v -0.417586 -1.60952 0.77525
v -0.417586 -1.60952 0.77525
v -0.517008 -1.54153 0.840196
v -0.42541 -1.60995 0.762619
v -0.406675 -1.60892 0.792865
v -0.317235 -1.36433 0.802465
v -0.517008 -1.54153 0.840196
v -0.406675 -1.60892 0.792865
v -0.517008 -1.54153 0.840196
v -0.56428 -1.51929 0.840136
v -0.56428 -1.51929 0.840136
v -0.567742 -1.51766 0.840132
v -0.598777 -1.50426 0.836407
v -0.567742 -1.51766 0.840132
v -0.567742 -1.51766 0.840132
v -0.577166 -0.836804 0.745386
v -0.535337 -0.756559 0.731444
v -0.494774 -0.755376 0.647805
v -0.520114 -0.727356 0.72637
v -0.497721 -0.745302 0.663177
v -0.501158 -0.733549 0.681111
v -0.501714 -0.731649 0.68401
v -0.49963 -0.715974 0.714579
v -0.504945 -0.720602 0.700867
v -0.317235 -1.36433 0.802465
v -0.406675 -1.60892 0.792865
v -0.364199 -1.17028 0.616041
v -0.36366 -1.16855 0.615949
v -0.785042 -1.44378 0.752835
v -0.794798 -1.34313 0.736651
v -0.755017 -1.34248 0.654159
v -0.74733 -1.34235 0.638219
v -0.800095 -1.34321 0.747636
v -0.604915 -1.03697 0.620191
v -0.604362 -1.03578 0.620121
v -0.603859 -1.0347 0.620057
v -0.222871 -0.867789 0.714699
v -0.213789 -0.880549 0.700567
v -0.218918 -0.870887 0.713013
v -0.209893 -0.877957 0.709164
v -0.208443 -0.879093 0.708545
v -0.208443 -0.879093 0.708545
v -0.208443 -0.879093 0.708545
v -0.206011 -0.884986 0.720031
v -0.204089 -0.886746 0.720013
v -0.209892 -0.877957 0.709163
v -0.218918 -0.870887 0.713013
v -0.222871 -0.867789 0.714699
vt 0.389289 0.145272
vt 0.38457 0.190628
vt 0.387046 0.147263
vt 0.38457 0.190628
vt 0.389289 0.145272
vt 0.413567 0.228762
vt -0.851268 0.921544
vt -1.05436 0.817733
vt -1.19679 1.02109
vt -0.98676 0.801725
vt -0.868696 0.773765
vt 0.325092 0.909476
vt 0.59272 0.986964
vt 0.541473 0.876988
vt 0.312355 0.916566
vt 0.350662 1.07875
vt 0.302204 0.922215
vt -1.01726 -0.368743
vt -1.01342 -0.506931
vt -1.18012 -0.350653
vt -1.00983 -0.415793
vt -1.00159 -0.467936
vt -0.998471 -0.48765
vt -1.00493 -0.509305
vt 0.456843 0.21952
vt 0.457347 0.220593
vt 0.457163 0.220827
vt 0.456084 0.222202
vt 0.450177 0.227383
vt 0.454296 0.224481
vt 0.881828 -0.406525
vt 0.881648 -0.431917
vt 0.878648 -0.415717
vt -0.275784 -0.173549
vt -0.263292 -0.217774
vt -0.271346 -0.212321
vt -0.218489 -0.227601
vt -0.243546 -0.131746
vt -0.189079 -0.100522
vt -0.203201 -0.0969074
vt -0.214456 -0.0940267
vt -0.151867 -0.242213
vt -0.11094 -0.120522
vt 0.39557 0.87025
vt 0.51367 0.817321
vt 0.467791 0.830052
vt 0.508932 0.807154
vt -0.793726 0.75601
vt -0.804641 0.758595
vt -0.777448 0.778758
vt 0.0147465 -0.152692
vt 0.0196595 -0.180229
vt -0.0308669 -0.141017
vt 0.023805 -0.203463
vt -0.0148458 -0.277645
vt 0.0270743 -0.221787
vt 0.0308884 -0.243165
vt 0.00238057 -0.282115
vt 0.0261609 -0.288285
vt 0.426916 0.243028
vt 0.424316 0.241269
vt 0.429207 0.241515
vt 0.689461 0.796608
vt 0.678216 0.813303
vt 0.69306 0.814541
vt 0.682384 0.800182
vt 0.668622 0.807132
vt -0.738202 0.833602
vt -0.729046 0.86128
vt -0.726324 0.850201
vt -0.729706 0.863964
vt 0.680541 0.814798
vt 0.693293 0.816366
vt 0.694217 0.823594
vt 0.420718 0.237662
vt 0.424115 0.241195
vt 0.42332 0.240901
vt 0.424712 0.155437
vt 0.424316 0.241269
vt 0.441657 0.189305
vt 0.441657 0.189305
vt 0.430866 0.240419
vt 0.443771 0.231898
vt -0.148798 -0.242886
vt 0.444053 0.231699
vt 0.443771 0.231898
vt 0.456843 0.21952
vt -1.20475 -0.519564
vt -1.28339 -0.339183
vt 0.381388 1.178
vt 0.622062 1.04993
vt 0.626272 1.05896
vt 0.385884 1.19253
vt 0.626775 1.06005
vt 0.386423 1.19427
vt 0.627329 1.06123
vt 0.387017 1.19619
vt 0.754005 1.33308
vt 0.753003 1.47364
vt 0.743409 1.5343
vt -1.41006 0.938661
vt -1.3725 0.895878
vt -1.43386 0.893574
vt -1.37823 0.998958
vt -1.2824 0.899261
vt 0.767088 1.38459
vt 0.769856 1.36709
vt -1.39498 0.916063
vt -1.35833 0.889719
vt -1.39485 0.898367
vt -1.3083 1.02039
vt -1.39568 1.00765
vt -1.39578 1.01984
vt 0.373294 0.172515
vt 0.378251 0.180477
vt 0.372224 0.160423
vt 0.239639 -0.0810508
vt 0.333856 0.0736501
vt 0.258179 -0.0950978
vt 0.185292 -0.0398751
vt 0.144671 0.205662
vt 0.152003 0.223937
vt 0.165605 0.247253
vt 0.160229 0.244438
vt -1.76205 -0.308755
vt -1.30231 -0.337081
vt -1.76186 -0.314819
vt -1.75441 -0.286864
vt 0.521536 1.63073
vt 0.558331 1.62239
vt 0.140734 0.195849
vt 0.144654 -0.00908584
vt 0.203486 1.02111
vt 0.213077 1.01666
vt 0.175363 1.01766
vt 0.185619 1.02939
vt 0.165577 1.03868
vt -1.75836 -0.430774
vt -1.75791 -0.445631
vt 0.281548 0.307954
vt 0.349257 0.189042
vt 0.268379 0.30106
vt 0.299913 0.317569
vt 0.424712 0.155437
vt 0.397246 0.138757
vt 0.403732 0.126492
vt 0.397246 0.138757
vt 0.392828 0.142855
vt 0.349195 0.136799
vt 0.34919 0.132973
vt 0.345307 0.0991854
vt 0.392505 0.143155
vt 0.392505 0.143155
vt 0.413567 0.228762
vt -0.764987 0.890905
vt -0.763714 0.797951
vt -0.733586 0.879755
vt -0.752882 0.813088
vt -0.740245 0.830747
vt 0.0315052 -0.246622
vt 0.0291932 -0.28096
vt 0.0350902 -0.266715
vt -1.50247 -0.521005
vt -1.75728 -0.466351
vt -1.30032 -0.337303
vt -1.2985 -0.337504
vt -1.36737 1.01953
vt -1.26548 1.0092
vt -1.26482 0.917622
vt -1.2647 0.899926
vt -1.26557 1.0214
vt -1.06649 0.820607
vt -1.06522 0.820304
vt -1.06406 0.82003
vt -0.277896 -0.207886
vt -0.287973 -0.189353
vt -0.282283 -0.204915
vt -0.292297 -0.198135
vt -0.293905 -0.197046
vt -0.996954 -0.497245
vt 0.869742 -0.441464
vt 0.881539 -0.447243
vt 0.88152 -0.449848
vt 0.870377 -0.439628
vt 0.874331 -0.428199
vt 0.876063 -0.423192
vn -0.41331 -0.0147971 0.91047
vn -0.41331 -0.0147971 0.91047
vn -0.41331 -0.0147971 0.91047
vn -0.0596076 0.136774 0.988807
vn -0.0596076 0.136774 0.988807
vn -0.0596076 0.136774 0.988807
vn -0.838842 0.367485 -0.401621
vn -0.838842 0.367485 -0.401621
vn -0.838842 0.367485 -0.401621
vn -0.838842 0.367485 -0.401621
vn -0.838842 0.367485 -0.401621
vn -0.0396219 -0.0404636 -0.998395
vn -0.0396219 -0.0404636 -0.998395
vn -0.0396219 -0.0404636 -0.998395
vn -0.0396219 -0.0404636 -0.998395
vn -0.0396219 -0.0404636 -0.998395
vn -0.0396219 -0.0404636 -0.998395
vn 0.820284 -0.280398 -0.49851
vn 0.820284 -0.280398 -0.49851
vn 0.820284 -0.280398 -0.49851
vn 0.820284 -0.280398 -0.49851
vn 0.820284 -0.280398 -0.49851
vn 0.820284 -0.280398 -0.49851
vn 0.820284 -0.280398 -0.49851
vn -0.0580747 -0.0735602 0.995598
vn -0.0580747 -0.0735602 0.995598
vn -0.0580747 -0.0735602 0.995598
vn -0.0580747 -0.0735602 0.995598
vn -0.0580747 -0.0735602 0.995598
vn -0.0580747 -0.0735602 0.995598
vn 0.658888 0.716788 0.228216
vn 0.658888 0.716788 0.228216
vn 0.658888 0.716788 0.228216
vn 0.433331 0.789621 -0.434422
vn 0.433331 0.789621 -0.434422
vn 0.433331 0.789621 -0.434422
vn 0.433331 0.789621 -0.434422
vn 0.433331 0.789621 -0.434422
vn 0.433331 0.789621 -0.434422
vn 0.433331 0.789621 -0.434422
vn 0.433331 0.789621 -0.434422
vn 0.433331 0.789621 -0.434422
vn 0.433331 0.789621 -0.434422
vn -0.0396219 -0.0404636 -0.998395
vn -0.0396219 -0.0404636 -0.998395
vn -0.0396219 -0.0404636 -0.998395
vn -0.0396219 -0.0404636 -0.998395
vn -0.838842 0.367485 -0.401621
vn -0.838842 0.367485 -0.401621
vn -0.838842 0.367485 -0.401621
vn 0.433331 0.789621 -0.434422
vn 0.433331 0.789621 -0.434422
vn 0.433331 0.789621 -0.434422
vn 0.433331 0.789621 -0.434422
vn 0.433331 0.789621 -0.434422
vn 0.433331 0.789621 -0.434422
vn 0.433331 0.789621 -0.434422
vn 0.433331 0.789621 -0.434422
vn 0.433331 0.789621 -0.434422
vn 0.120646 0.179695 0.976296
vn 0.120646 0.179695 0.976296
vn 0.120646 0.179695 0.976296
vn -0.520814 0.849446 -0.0848171
vn -0.520814 0.849446 -0.0848171
vn -0.520814 0.849446 -0.0848171
vn -0.520814 0.849446 -0.0848171
vn -0.520814 0.849446 -0.0848171
vn -0.838842 0.367485 -0.401621
vn -0.838842 0.367485 -0.401621
vn -0.838842 0.367485 -0.401621
vn -0.838842 0.367485 -0.401621
vn -0.520814 0.849446 -0.0848171
vn -0.520814 0.849446 -0.0848171
vn -0.520814 0.849446 -0.0848171
vn 0.0638848 0.138415 0.988312
vn 0.0638848 0.138415 0.988312
vn 0.0638848 0.138415 0.988312
vn 0.0638848 0.138415 0.988312
vn 0.0638848 0.138415 0.988312
vn 0.0638848 0.138415 0.988312
vn 0.120646 0.179695 0.976296
vn 0.120646 0.179695 0.976296
vn 0.120646 0.179695 0.976296
vn 0.433331 0.789621 -0.434422
vn -0.0580747 -0.0735602 0.995598
vn -0.0580747 -0.0735602 0.995598
vn 0.120646 0.179695 0.976296
vn 0.820284 -0.280398 -0.49851
vn 0.820284 -0.280398 -0.49851
vn -0.0396219 -0.0404636 -0.998395
vn -0.0396219 -0.0404636 -0.998395
vn -0.0396219 -0.0404636 -0.998395
vn -0.0396219 -0.0404636 -0.998395
vn -0.0396219 -0.0404636 -0.998395
vn -0.0396219 -0.0404636 -0.998395
vn -0.0396219 -0.0404636 -0.998395
vn -0.0396219 -0.0404636 -0.998395
vn -0.0396219 -0.0404636 -0.998395
vn -0.0396219 -0.0404636 -0.998395
vn -0.0396219 -0.0404636 -0.998395
vn -0.889318 -0.15536 -0.43009
vn -0.889318 -0.15536 -0.43009
vn -0.889318 -0.15536 -0.43009
vn -0.889318 -0.15536 -0.43009
vn -0.889318 -0.15536 -0.43009
vn -0.0396219 -0.0404636 -0.998395
vn -0.0396219 -0.0404636 -0.998395
vn -0.838842 0.367485 -0.401621
vn -0.838842 0.367485 -0.401621
vn -0.838842 0.367485 -0.401621
vn -0.838842 0.367485 -0.401621
vn -0.838842 0.367485 -0.401621
vn -0.838842 0.367485 -0.401621
vn -0.41331 -0.0147971 0.91047
vn -0.41331 -0.0147971 0.91047
vn -0.41331 -0.0147971 0.91047
vn -0.408666 -0.867774 0.282773
vn -0.408666 -0.867774 0.282773
vn -0.408666 -0.867774 0.282773
vn -0.408666 -0.867774 0.282773
vn -0.408666 -0.867774 0.282773
vn -0.408666 -0.867774 0.282773
vn -0.408666 -0.867774 0.282773
vn -0.408666 -0.867774 0.282773
vn 0.820284 -0.280398 -0.49851
vn 0.820284 -0.280398 -0.49851
vn 0.820284 -0.280398 -0.49851
vn 0.820284 -0.280398 -0.49851
vn -0.0396219 -0.0404636 -0.998395
vn -0.0396219 -0.0404636 -0.998395
vn -0.408666 -0.867774 0.282773
vn -0.408666 -0.867774 0.282773
vn -0.222779 -0.944374 -0.241923
vn -0.222779 -0.944374 -0.241923
vn -0.222779 -0.944374 -0.241923
vn -0.222779 -0.944374 -0.241923
vn -0.222779 -0.944374 -0.241923
vn 0.820284 -0.280398 -0.49851
vn 0.820284 -0.280398 -0.49851
vn -0.408666 -0.867774 0.282773
vn -0.408666 -0.867774 0.282773
vn -0.408666 -0.867774 0.282773
vn -0.408666 -0.867774 0.282773
vn 0.310716 -0.15046 0.938519
vn 0.310716 -0.15046 0.938519
vn 0.310716 -0.15046 0.938519
vn 0.0638848 0.138415 0.988312
vn 0.0638848 0.138415 0.988312
vn -0.408666 -0.867774 0.282773
vn -0.408666 -0.867774 0.282773
vn -0.408666 -0.867774 0.282773
vn -0.0596076 0.136774 0.988807
vn 0.0638848 0.138415 0.988312
vn 0.0638848 0.138415 0.988312
vn -0.838842 0.367485 -0.401621
vn -0.838842 0.367485 -0.401621
vn -0.838842 0.367485 -0.401621
vn -0.838842 0.367485 -0.401621
vn -0.838842 0.367485 -0.401621
vn 0.433331 0.789621 -0.434422
vn 0.433331 0.789621 -0.434422
vn 0.433331 0.789621 -0.434422
vn 0.820284 -0.280398 -0.49851
vn 0.820284 -0.280398 -0.49851
vn 0.820284 -0.280398 -0.49851
vn 0.820284 -0.280398 -0.49851
vn -0.889318 -0.15536 -0.43009
vn -0.889318 -0.15536 -0.43009
vn -0.889318 -0.15536 -0.43009
vn -0.889318 -0.15536 -0.43009
vn -0.889318 -0.15536 -0.43009
vn -0.838842 0.367485 -0.401621
vn -0.838842 0.367485 -0.401621
vn -0.838842 0.367485 -0.401621
vn 0.433331 0.789621 -0.434422
vn 0.433331 0.789621 -0.434422
vn 0.433331 0.789621 -0.434422
vn 0.433331 0.789621 -0.434422
vn 0.433331 0.789621 -0.434422
vn 0.820284 -0.280398 -0.49851
vn 0.658888 0.716788 0.228216
vn 0.658888 0.716788 0.228216
vn 0.658888 0.716788 0.228216
vn 0.658888 0.716788 0.228216
vn 0.658888 0.716788 0.228216
vn 0.658888 0.716788 0.228216
f 1/1/1 2/2/2 3/3/3 
f 4/4/4 5/5/5 6/6/6 
f 7/7/7 8/8/8 9/9/9 
f 7/7/7 10/10/10 8/8/8 
f 10/10/10 7/7/7 11/11/11 
f 12/12/12 13/13/13 14/14/14 
f 15/15/15 13/13/13 12/12/12 
f 15/15/15 16/16/16 13/13/13 
f 17/17/17 16/16/16 15/15/15 
f 18/18/18 19/19/19 20/20/20 
f 21/21/21 19/19/19 18/18/18 
f 22/22/22 19/19/19 21/21/21 
f 19/19/19 22/22/22 23/23/23 
f 19/19/19 23/23/23 24/24/24 
f 25/25/25 26/26/26 27/27/27 
f 28/28/28 25/25/25 27/27/27 
f 28/28/28 29/29/29 25/25/25 
f 28/28/28 30/30/30 29/29/29 
f 31/31/31 32/32/32 33/33/33 
f 34/34/34 35/35/35 36/36/36 
f 37/37/37 35/35/35 34/34/34 
f 37/37/37 34/34/34 38/38/38 
f 38/38/38 39/39/39 37/37/37 
f 40/40/40 39/39/39 38/38/38 
f 41/41/41 40/40/40 38/38/38 
f 39/39/39 42/42/42 37/37/37 
f 39/39/39 43/43/43 42/42/42 
f 12/12/12 14/14/14 44/44/44 
f 44/44/44 14/14/14 45/45/45 
f 45/45/45 46/46/46 44/44/44 
f 45/45/45 47/47/47 46/46/46 
f 48/48/48 49/49/49 50/50/50 
f 51/51/51 52/52/52 53/53/53 
f 53/53/53 52/52/52 54/54/54 
f 54/54/54 55/55/55 53/53/53 
f 56/56/56 55/55/55 54/54/54 
f 57/57/57 55/55/55 56/56/56 
f 57/57/57 58/58/58 55/55/55 
f 59/59/59 58/58/58 57/57/57 
f 60/60/60 61/61/61 62/62/62 
f 63/63/63 64/64/64 65/65/65 
f 66/66/66 64/64/64 63/63/63 
f 64/64/64 66/66/66 67/67/67 
f 68/68/68 69/69/69 70/70/70 
f 69/69/69 68/68/68 71/71/71 
f 72/72/72 65/65/65 64/64/64 
f 72/72/72 73/73/73 65/65/65 
f 74/74/74 73/73/73 72/72/72 
f 75/75/75 76/76/76 77/77/77 
f 78/78/78 76/76/76 75/75/75 
f 78/78/78 79/79/79 76/76/76 
f 80/80/80 79/79/79 78/78/78 
f 62/62/62 61/61/61 81/81/81 
f 62/62/62 81/81/81 82/82/82 
f 82/82/82 81/81/81 83/83/83 
f 55/55/55 84/84/84 53/53/53 
f 43/43/43 53/53/53 84/84/84 
f 42/42/42 43/43/43 84/84/84 
f 25/25/25 85/85/85 86/86/86 
f 25/25/25 29/29/29 85/85/85 
f 83/83/83 81/81/81 87/87/87 
f 20/20/20 19/19/19 88/88/88 
f 20/20/20 88/88/88 89/89/89 
f 90/90/90 91/91/91 16/16/16 
f 90/90/90 92/92/92 91/91/91 
f 93/93/93 92/92/92 90/90/90 
f 93/93/93 94/94/94 92/92/92 
f 95/95/95 94/94/94 93/93/93 
f 95/95/95 96/96/96 94/94/94 
f 97/97/97 96/96/96 95/95/95 
f 97/97/97 98/98/98 96/96/96 
f 97/97/97 99/99/99 98/98/98 
f 99/99/99 97/97/97 100/100/100 
f 101/101/101 102/102/102 103/103/103 
f 104/104/104 102/102/102 101/101/101 
f 105/105/105 102/102/102 104/104/104 
f 98/98/98 99/99/99 106/106/106 
f 98/98/98 106/106/106 107/107/107 
f 108/108/108 109/109/109 110/110/110 
f 108/108/108 111/111/111 109/109/109 
f 112/112/112 111/111/111 108/108/108 
f 113/113/113 111/111/111 112/112/112 
f 114/114/114 3/3/3 115/115/115 
f 116/116/116 3/3/3 114/114/114 
f 117/117/117 118/118/118 119/119/119 
f 118/118/118 117/117/117 120/120/120 
f 121/121/121 118/118/118 120/120/120 
f 122/122/122 118/118/118 121/121/121 
f 122/122/122 123/123/123 118/118/118 
f 124/124/124 123/123/123 122/122/122 
f 125/125/125 126/126/126 127/127/127 
f 128/128/128 126/126/126 125/125/125 
f 129/129/129 100/100/100 97/97/97 
f 130/130/130 100/100/100 129/129/129 
f 131/131/131 120/120/120 132/132/132 
f 121/121/121 120/120/120 131/131/131 
f 133/133/133 134/134/134 135/135/135 
f 136/136/136 133/133/133 135/135/135 
f 137/137/137 136/136/136 135/135/135 
f 88/88/88 127/127/127 126/126/126 
f 88/88/88 138/138/138 127/127/127 
f 138/138/138 88/88/88 139/139/139 
f 140/140/140 141/141/141 142/142/142 
f 143/143/143 141/141/141 140/140/140 
f 144/144/144 145/145/145 146/146/146 
f 147/147/147 78/78/78 148/148/148 
f 123/123/123 141/141/141 149/149/149 
f 142/142/142 141/141/141 123/123/123 
f 123/123/123 149/149/149 150/150/150 
f 150/150/150 118/118/118 123/123/123 
f 150/150/150 151/151/151 118/118/118 
f 6/6/6 5/5/5 152/152/152 
f 153/153/153 75/75/75 154/154/154 
f 148/148/148 75/75/75 153/153/153 
f 148/148/148 78/78/78 75/75/75 
f 155/155/155 11/11/11 7/7/7 
f 155/155/155 49/49/49 11/11/11 
f 50/50/50 49/49/49 155/155/155 
f 50/50/50 155/155/155 156/156/156 
f 156/156/156 155/155/155 157/157/157 
f 156/156/156 157/157/157 158/158/158 
f 158/158/158 157/157/157 71/71/71 
f 71/71/71 159/159/159 158/158/158 
f 71/71/71 68/68/68 159/159/159 
f 160/160/160 59/59/59 57/57/57 
f 160/160/160 161/161/161 59/59/59 
f 160/160/160 162/162/162 161/161/161 
f 139/139/139 163/163/163 164/164/164 
f 139/139/139 88/88/88 163/163/163 
f 88/88/88 126/126/126 165/165/165 
f 88/88/88 165/165/165 166/166/166 
f 88/88/88 166/166/166 89/89/89 
f 104/104/104 167/167/167 168/168/168 
f 169/169/169 104/104/104 168/168/168 
f 105/105/105 104/104/104 169/169/169 
f 169/169/169 170/170/170 105/105/105 
f 171/171/171 168/168/168 167/167/167 
f 3/3/3 2/2/2 115/115/115 
f 9/9/9 109/109/109 111/111/111 
f 172/172/172 109/109/109 9/9/9 
f 9/9/9 173/173/173 172/172/172 
f 9/9/9 174/174/174 173/173/173 
f 9/9/9 8/8/8 174/174/174 
f 16/16/16 91/91/91 13/13/13 
f 34/34/34 36/36/36 175/175/175 
f 34/34/34 175/175/175 176/176/176 
f 176/176/176 175/175/175 177/177/177 
f 176/176/176 177/177/177 178/178/178 
f 179/179/179 176/176/176 178/178/178 
f 24/24/24 23/23/23 180/180/180 
f 181/181/181 182/182/182 183/183/183 
f 184/184/184 182/182/182 181/181/181 
f 184/184/184 32/32/32 182/182/182 
f 185/185/185 32/32/32 184/184/184 
f 186/186/186 32/32/32 185/185/185 
f 33/33/33 32/32/32 186/186/186 
