v 0.270439 -2.49376 -0.244191
v 0.2017 -2.5378 -0.1281
v 0.157895 -2.50288 -0.218683
v 0.5521 -2.6481 0.1161
v 0.498606 -2.47867 -0.302231
v 0.547373 -2.48866 -0.281609
v 0.586035 -2.50179 -0.252272
v 0.574948 -2.49432 -0.269949
v 0.574948 -2.49432 -0.269949
v 0.499359 -2.26826 0.0918749
v 0.586035 -2.50179 -0.252272
v 0.539983 -2.44501 -0.254811
v 0.539984 -2.44501 -0.254811
v 0.270439 -2.49376 -0.244191
v 0.499359 -2.26826 0.0918749
v 0.498606 -2.47867 -0.302231
v 0.547373 -2.48866 -0.281609
v 0.498606 -2.47867 -0.302231
v 0.539984 -2.44501 -0.254811
v 0.574948 -2.49432 -0.269949
v 0.486197 -2.21099 0.204198
v 0.563137 -2.28023 0.279042
v 0.486197 -2.21099 0.204198
v 0.577061 -2.2975 0.279516
v 0.563138 -2.28023 0.279042
v 0.293278 -2.34592 0.376904
v 0.577061 -2.2975 0.279516
v 0.513782 -2.219 0.277362
v 0.491533 -2.1914 0.276604
v 0.222525 -2.19293 0.357066
v 0.228367 -2.18373 0.352868
v 0.477767 -2.17432 0.276136
v 0.477767 -2.17432 0.276136
v 0.204054 -2.21386 0.305598
v 0.228367 -2.18373 0.352868
v 0.202113 -2.21626 0.301825
v 0.478608 -2.17798 0.268957
v 0.0259056 -2.4346 -0.0407651
v 0.0259052 -2.4346 -0.040765
v 0.0821395 -2.39602 0.315029
v 0.202113 -2.21626 0.301825
v -0.0378022 -2.54569 0.090132
v -0.0378018 -2.54569 0.090132
v -0.0392 -2.5904 0.0143
v 0.0821399 -2.39602 0.315028
v -0.0392 -2.5904 0.0143
v -0.0378018 -2.54569 0.090132
v -0.0642082 -2.57604 0.0199575
v -0.0620273 -2.57144 0.00918825
v -0.0392 -2.5904 0.0143
v -0.0642082 -2.57604 0.0199575
v -0.0597317 -2.5666 -0.00214773
v -0.0392 -2.5904 0.0143
v -0.0597317 -2.5666 -0.00214773
v -0.0607792 -2.56131 -0.0563821
v -0.0392 -2.5904 0.0143
v -0.0607792 -2.56131 -0.0563821
v 0.1571 -2.4388 0.2233
v -0.0392 -2.5904 0.0143
v 0.2017 -2.5378 -0.1281
v 0.1571 -2.4388 0.2233
v 0.1571 -2.4388 0.2233
v 0.129389 -2.33858 0.415654
v 0.0821399 -2.39602 0.315028
v 0.293278 -2.34592 0.376904
v 0.132317 -2.33502 0.42189
v 0.161477 -2.28909 0.400936
v 0.132317 -2.33502 0.421891
v 0.204053 -2.21386 0.305598
v 0.161477 -2.28909 0.400936
v 0.222524 -2.19293 0.357066
v 0.129388 -2.33858 0.415654
v 0.132317 -2.33502 0.42189
v 0.228366 -2.18373 0.352868
v 0.293278 -2.34592 0.376904
v 0.1571 -2.4388 0.2233
v 0.453541 -2.43601 0.353295
v 0.636068 -2.37071 0.281524
v 0.453541 -2.43601 0.353295
v 0.636068 -2.37071 0.281524
v 0.645975 -2.383 0.281862
v 0.730349 -2.51604 0.206607
v 0.731482 -2.50628 0.237386
v 0.730349 -2.51604 0.206607
v 0.731481 -2.50628 0.237386
v 0.729981 -2.55672 0.210777
v 0.728891 -2.5286 0.166956
v 0.728891 -2.5286 0.166956
v 0.691199 -2.57084 -0.0795006
v 0.724211 -2.56893 0.03972
v 0.723013 -2.57924 0.00717122
v 0.723013 -2.57924 0.00717094
v 0.5521 -2.6481 0.1161
v 0.691199 -2.57084 -0.0795007
v 0.726671 -2.60203 0.1271
v 0.728285 -2.57994 0.167892
v 0.5521 -2.6481 0.1161
v 0.726671 -2.60203 0.1271
v 0.613558 -2.52094 0.32838
v 0.729982 -2.55672 0.210777
v 0.733147 -2.5134 0.290778
v 0.613558 -2.52094 0.32838
v 0.733147 -2.5134 0.290778
v 0.707197 -2.45895 0.283946
v 0.480377 -2.44827 0.348588
v 0.645975 -2.383 0.281862
v 0.453541 -2.43601 0.353295
v 0.1571 -2.4388 0.2233
v 0.480377 -2.44827 0.348588
v 0.5521 -2.6481 0.1161
v 0.5521 -2.6481 0.1161
v 0.613558 -2.52094 0.32838
v 0.480377 -2.44827 0.348588
v 0.5521 -2.6481 0.1161
v 0.1571 -2.4388 0.2233
v 0.2017 -2.5378 -0.1281
v 0.707197 -2.45895 0.283946
v 0.733227 -2.49125 0.284832
v 0.733227 -2.49125 0.284832
v 0.733227 -2.49125 0.284832
v 0.733147 -2.5134 0.290778
v 0.728284 -2.57994 0.167892
v 0.72667 -2.60203 0.1271
v 0.72421 -2.56893 0.03972
v 0.723013 -2.57924 0.00717095
v 0.691199 -2.57084 -0.0795006
v -0.043085 -2.52299 -0.151898
v 0.100707 -2.50564 -0.202226
v 0.157895 -2.50288 -0.218683
v 0.100706 -2.50564 -0.202226
v 0.483332 -2.19853 0.228645
v 0.157895 -2.50288 -0.218683
v 0.100707 -2.50564 -0.202226
v 0.484063 -2.20171 0.222409
v 0.484063 -2.20171 0.222409
v 0.513781 -2.219 0.277362
v 0.483332 -2.19853 0.228645
v 0.491533 -2.1914 0.276604
v 0.478608 -2.17798 0.268957
v 0.477767 -2.17432 0.276136
v -0.0399524 -2.51621 -0.168809
v -0.0399522 -2.51621 -0.168809
v -0.0430855 -2.52299 -0.151898
v -0.0399527 -2.51621 -0.168809
v -0.0607796 -2.56131 -0.0563821
v -0.0597322 -2.5666 -0.00214769
v -0.0620277 -2.57144 0.00918829
v -0.0642087 -2.57604 0.0199576
vt 0.773017 0.325004
vt 0.757 0.3161
vt 0.767999 0.312987
vt 0.7416 0.3517
vt 0.788187 0.350726
vt 0.787596 0.355837
vt 0.785618 0.359737
vt 0.787261 0.358727
vt -0.507667 -2.30819
vt -0.136683 -2.08435
vt -0.489542 -2.32095
vt -0.492146 -2.24784
vt -0.174362 1.37568
vt 0.0994248 1.38925
vt -0.133098 0.986601
vt -0.132333 1.43335
vt -1.00602 2.19212
vt -0.952269 2.1959
vt -0.997875 2.14101
vt -1.03641 2.18997
vt -0.119728 0.860544
vt 0.0552227 -2.13349
vt -0.0215156 -2.03138
vt 0.0557087 -2.15568
vt -2.31513 0.460158
vt -2.38293 0.173596
vt -2.33296 0.473368
vt -2.25192 0.413331
vt -2.22343 0.392223
vt -2.22501 0.111439
vt -2.21551 0.118236
vt -2.2058 0.379162
vt -0.111166 0.77981
vt 0.166855 0.772426
vt 0.14216 0.71654
vt 0.168826 0.776887
vt -0.112021 0.787866
vt 0.347807 1.18193
vt 0.0565026 2.0047
vt 0.413179 1.94129
vt 0.399943 1.72517
vt 0.187725 2.13243
vt 0.714255 0.314394
vt 0.7257 0.3078
vt 0.685093 0.341969
vt 0.7257 0.3078
vt 0.714255 0.314394
vt 0.722651 0.307301
vt 0.724333 0.30604
vt 0.7257 0.3078
vt 0.722651 0.307301
vt 0.726103 0.304712
vt 0.7257 0.3078
vt 0.726103 0.304712
vt 0.734943 0.30335
vt 0.7257 0.3078
vt 0.734943 0.30335
vt 0.7021 0.3393
vt 0.7257 0.3078
vt 0.757 0.3161
vt 0.7021 0.3393
vt 0.7021 0.3393
vt 0.677963 0.355388
vt 0.685093 0.341969
vt 0.69692 0.364975
vt 0.677522 0.35622
vt -2.32428 0.0404152
vt -2.37169 0.00648964
vt 0.403726 1.72209
vt 0.4993 1.80828
vt 0.455321 1.69442
vt 0.514054 1.86725
vt 0.520306 1.86266
vt 0.451113 1.68352
vt 0.69692 0.364975
vt 0.7021 0.3393
vt 0.709818 0.371008
vt -2.40853 0.52935
vt -2.47594 0.333936
vt 0.0577682 -2.2497
vt 0.058114 -2.26549
vt -0.0190462 -2.4221
vt 0.0125122 -2.41518
vt -2.50688 -0.230476
vt -2.49712 -0.261276
vt -2.54756 -0.234632
vt -2.51944 -0.190799
vt -0.0597003 -2.43101
vt -0.312397 -2.44051
vt -0.190158 -2.45961
vt -0.223531 -2.46692
vt 0.758805 0.369732
vt 0.7416 0.3517
vt 0.766196 0.366271
vt 0.747061 0.370238
vt 0.743512 0.373876
vt 0.7416 0.3517
vt 0.747061 0.370238
vt 0.725084 0.375983
vt 0.73978 0.377701
vt 0.732818 0.384836
vt -2.56361 0.494411
vt -2.55583 0.619759
vt -2.49962 0.596835
vt -2.4886 0.360999
vt -2.42122 0.53875
vt 0.709818 0.371008
vt 0.7021 0.3393
vt 0.712233 0.372125
vt 0.7416 0.3517
vt 0.7416 0.3517
vt 0.725084 0.375983
vt 0.712233 0.372125
vt 0.7416 0.3517
vt 0.7021 0.3393
vt 0.757 0.3161
vt 0.0602507 -2.36304
vt 0.0611592 -2.40452
vt -2.53296 0.621531
vt -2.48208 -0.308753
vt -2.50424 -0.314693
vt -2.57078 -0.191714
vt -2.59287 -0.150891
vt -2.55977 -0.0634777
vt -2.57009 -0.0309068
vt 0.766196 0.366271
vt 0.749523 0.300182
vt 0.7632 0.306676
vt 0.767999 0.312987
vt 0.7632 0.306676
vt -0.116819 0.833108
vt 0.21374 1.37104
vt 0.271829 1.35782
vt -0.117561 0.840106
vt -0.00284364 -2.02279
vt 0.0535001 -2.05484
vt 0.00355009 -2.01985
vt 0.0527235 -2.01939
vt 0.0448828 -2.00084
vt 0.0522431 -1.99746
vt 0.414702 1.33331
vt 0.752105 0.299621
vt -0.0549063 2.11656
vt -0.0718593 2.10918
vt 0.0408468 2.15822
vt 0.0952158 2.16202
vt 0.10658 2.16732
vt 0.117376 2.17235
vn -0.0185173 -0.929699 -0.367855
vn -0.0193604 -0.929559 -0.368164
vn -0.0175797 -0.930132 -0.366805
vn -0.0182142 -0.928649 -0.370511
vn -0.0169527 -0.929527 -0.368365
vn -0.0167428 -0.929426 -0.368629
vn -0.0166253 -0.929321 -0.368899
vn -0.0166241 -0.929369 -0.368778
vn 0.762293 0.608387 -0.22085
vn 0.762293 0.608387 -0.22085
vn 0.762293 0.608387 -0.22085
vn 0.762293 0.608387 -0.22085
vn -0.175358 0.868624 -0.463402
vn -0.175358 0.868624 -0.463402
vn -0.175358 0.868624 -0.463402
vn -0.175358 0.868624 -0.463402
vn 0.420518 0.525325 -0.739728
vn 0.420518 0.525325 -0.739728
vn 0.420518 0.525325 -0.739728
vn 0.420518 0.525325 -0.739728
vn -0.175358 0.868624 -0.463402
vn 0.762293 0.608387 -0.22085
vn 0.762293 0.608387 -0.22085
vn 0.762293 0.608387 -0.22085
vn 0.276295 0.248184 0.928475
vn 0.276295 0.248184 0.928475
vn 0.276295 0.248184 0.928475
vn 0.276295 0.248184 0.928475
vn 0.276295 0.248184 0.928475
vn 0.276295 0.248184 0.928475
vn 0.276295 0.248184 0.928475
vn 0.276295 0.248184 0.928475
vn -0.175358 0.868624 -0.463402
vn -0.175358 0.868624 -0.463402
vn -0.175358 0.868624 -0.463402
vn -0.175358 0.868624 -0.463402
vn -0.175358 0.868624 -0.463402
vn -0.175358 0.868624 -0.463402
vn -0.827313 0.557323 0.0703233
vn -0.827313 0.557323 0.0703233
vn -0.827313 0.557323 0.0703233
vn -0.827313 0.557323 0.0703233
vn 0.126165 -0.855562 0.502091
vn 0.126165 -0.855562 0.502091
vn 0.126165 -0.855562 0.502091
vn -0.352746 -0.803196 0.480048
vn -0.352746 -0.803196 0.480048
vn -0.352746 -0.803196 0.480048
vn -0.521441 -0.741574 -0.422099
vn -0.521441 -0.741574 -0.422099
vn -0.521441 -0.741574 -0.422099
vn -0.521441 -0.741574 -0.422099
vn -0.738357 -0.672455 -0.0513101
vn -0.738357 -0.672455 -0.0513101
vn -0.738357 -0.672455 -0.0513101
vn -0.0195537 -0.926667 -0.375374
vn -0.0195537 -0.926667 -0.375374
vn 0.367061 -0.882142 0.295114
vn 0.367061 -0.882142 0.295114
vn 0.367061 -0.882142 0.295114
vn 0.126165 -0.855562 0.502091
vn 0.0714883 -0.880323 0.468957
vn 0.0714883 -0.880323 0.468957
vn 0.0714883 -0.880323 0.468957
vn 0.0714883 -0.880323 0.468957
vn 0.0714883 -0.880323 0.468957
vn 0.276295 0.248184 0.928475
vn 0.276295 0.248184 0.928475
vn -0.827313 0.557323 0.0703233
vn -0.827313 0.557323 0.0703233
vn -0.827313 0.557323 0.0703233
vn -0.827313 0.557323 0.0703233
vn -0.827313 0.557323 0.0703233
vn -0.827313 0.557323 0.0703233
vn -0.286912 -0.685666 0.668988
vn -0.286912 -0.685666 0.668988
vn -0.286912 -0.685666 0.668988
vn 0.276295 0.248184 0.928475
vn 0.276295 0.248184 0.928475
vn 0.762293 0.608387 -0.22085
vn 0.762293 0.608387 -0.22085
vn 0.762293 0.608387 -0.22085
vn 0.762293 0.608387 -0.22085
vn 0.999384 -0.0124009 -0.032832
vn 0.999384 -0.0124009 -0.032832
vn 0.999384 -0.0124009 -0.032832
vn 0.999384 -0.0124009 -0.032832
vn 0.762293 0.608387 -0.22085
vn 0.762293 0.608387 -0.22085
vn 0.762293 0.608387 -0.22085
vn 0.762293 0.608387 -0.22085
vn 0.261701 -0.946699 -0.187812
vn 0.261701 -0.946699 -0.187812
vn 0.261701 -0.946699 -0.187812
vn 0.261701 -0.946699 -0.187812
vn 0.199294 -0.865016 0.460467
vn 0.199294 -0.865016 0.460467
vn 0.199294 -0.865016 0.460467
vn 0.199294 -0.865016 0.460467
vn 0.199294 -0.865016 0.460467
vn 0.199294 -0.865016 0.460467
vn 0.276295 0.248184 0.928475
vn 0.276295 0.248184 0.928475
vn 0.276295 0.248184 0.928475
vn 0.276295 0.248184 0.928475
vn 0.276295 0.248184 0.928475
vn -0.24961 -0.771091 0.585758
vn -0.24961 -0.771091 0.585758
vn -0.24961 -0.771091 0.585758
vn -0.24961 -0.771091 0.585758
vn -0.332565 -0.763479 0.553624
vn -0.332565 -0.763479 0.553624
vn -0.332565 -0.763479 0.553624
vn -0.416717 -0.887407 0.197119
vn -0.416717 -0.887407 0.197119
vn -0.416717 -0.887407 0.197119
vn 0.762293 0.608387 -0.22085
vn 0.762293 0.608387 -0.22085
vn 0.276295 0.248184 0.928475
vn 0.999384 -0.0124009 -0.032832
vn 0.999384 -0.0124009 -0.032832
vn 0.999384 -0.0124009 -0.032832
vn 0.999384 -0.0124009 -0.032832
vn 0.999384 -0.0124009 -0.032832
vn 0.999384 -0.0124009 -0.032832
vn -0.0112296 -0.928967 -0.369994
vn -0.0195219 -0.927148 -0.374188
vn -0.0194138 -0.928768 -0.370153
vn -0.0234816 -0.930992 -0.364284
vn -0.0282605 -0.932614 -0.359767
vn -0.175358 0.868624 -0.463402
vn -0.175358 0.868624 -0.463402
vn -0.175358 0.868624 -0.463402
vn -0.175358 0.868624 -0.463402
vn 0.762293 0.608387 -0.22085
vn 0.762293 0.608387 -0.22085
vn 0.762293 0.608387 -0.22085
vn 0.762293 0.608387 -0.22085
vn 0.762293 0.608387 -0.22085
vn 0.762293 0.608387 -0.22085
vn -0.175358 0.868624 -0.463402
vn -0.0195163 -0.927232 -0.373978
vn -0.827313 0.557323 0.0703233
vn -0.827313 0.557323 0.0703233
vn -0.827313 0.557323 0.0703233
vn -0.827313 0.557323 0.0703233
vn -0.827313 0.557323 0.0703233
vn -0.827313 0.557323 0.0703233
f 1/1/1 2/2/2 3/3/3 
f 1/1/1 4/4/4 2/2/2 
f 5/5/5 4/4/4 1/1/1 
f 6/6/6 4/4/4 5/5/5 
f 6/6/6 7/7/7 4/4/4 
f 8/8/8 7/7/7 6/6/6 
f 9/9/9 10/10/10 11/11/11 
f 12/12/12 10/10/10 9/9/9 
f 13/13/13 14/14/14 15/15/15 
f 16/16/16 14/14/14 13/13/13 
f 17/17/17 18/18/18 19/19/19 
f 17/17/17 19/19/19 20/20/20 
f 15/15/15 14/14/14 21/21/21 
f 22/22/22 10/10/10 23/23/23 
f 22/22/22 24/24/24 10/10/10 
f 25/25/25 26/26/26 27/27/27 
f 28/28/28 26/26/26 25/25/25 
f 26/26/26 28/28/28 29/29/29 
f 29/29/29 30/30/30 26/26/26 
f 29/29/29 31/31/31 30/30/30 
f 32/32/32 31/31/31 29/29/29 
f 33/33/33 34/34/34 35/35/35 
f 33/33/33 36/36/36 34/34/34 
f 37/37/37 36/36/36 33/33/33 
f 36/36/36 37/37/37 38/38/38 
f 39/39/39 40/40/40 41/41/41 
f 42/42/42 40/40/40 39/39/39 
f 43/43/43 44/44/44 45/45/45 
f 46/46/46 47/47/47 48/48/48 
f 49/49/49 50/50/50 51/51/51 
f 52/52/52 50/50/50 49/49/49 
f 53/53/53 54/54/54 55/55/55 
f 56/56/56 57/57/57 2/2/2 
f 58/58/58 59/59/59 60/60/60 
f 45/45/45 44/44/44 61/61/61 
f 62/62/62 63/63/63 64/64/64 
f 65/65/65 63/63/63 62/62/62 
f 65/65/65 66/66/66 63/63/63 
f 26/26/26 67/67/67 68/68/68 
f 26/26/26 30/30/30 67/67/67 
f 69/69/69 70/70/70 71/71/71 
f 70/70/70 69/69/69 41/41/41 
f 40/40/40 70/70/70 41/41/41 
f 40/40/40 72/72/72 70/70/70 
f 72/72/72 73/73/73 70/70/70 
f 69/69/69 71/71/71 74/74/74 
f 75/75/75 76/76/76 77/77/77 
f 78/78/78 26/26/26 79/79/79 
f 27/27/27 26/26/26 78/78/78 
f 80/80/80 10/10/10 24/24/24 
f 81/81/81 10/10/10 80/80/80 
f 81/81/81 82/82/82 10/10/10 
f 82/82/82 81/81/81 83/83/83 
f 84/84/84 85/85/85 86/86/86 
f 87/87/87 84/84/84 86/86/86 
f 10/10/10 82/82/82 88/88/88 
f 88/88/88 89/89/89 10/10/10 
f 90/90/90 89/89/89 88/88/88 
f 89/89/89 90/90/90 91/91/91 
f 92/92/92 93/93/93 94/94/94 
f 95/95/95 93/93/93 92/92/92 
f 96/96/96 97/97/97 98/98/98 
f 96/96/96 99/99/99 97/97/97 
f 100/100/100 99/99/99 96/96/96 
f 101/101/101 99/99/99 100/100/100 
f 102/102/102 103/103/103 104/104/104 
f 104/104/104 105/105/105 102/102/102 
f 106/106/106 105/105/105 104/104/104 
f 106/106/106 79/79/79 105/105/105 
f 78/78/78 79/79/79 106/106/106 
f 107/107/107 108/108/108 109/109/109 
f 109/109/109 108/108/108 110/110/110 
f 111/111/111 112/112/112 113/113/113 
f 114/114/114 115/115/115 116/116/116 
f 83/83/83 81/81/81 117/117/117 
f 117/117/117 118/118/118 83/83/83 
f 104/104/104 103/103/103 119/119/119 
f 85/85/85 120/120/120 121/121/121 
f 86/86/86 85/85/85 121/121/121 
f 122/122/122 87/87/87 86/86/86 
f 87/87/87 122/122/122 123/123/123 
f 124/124/124 87/87/87 123/123/123 
f 125/125/125 124/124/124 123/123/123 
f 4/4/4 7/7/7 126/126/126 
f 11/11/11 10/10/10 89/89/89 
f 2/2/2 57/57/57 127/127/127 
f 2/2/2 127/127/127 128/128/128 
f 129/129/129 2/2/2 130/130/130 
f 131/131/131 132/132/132 133/133/133 
f 134/134/134 132/132/132 131/131/131 
f 134/134/134 14/14/14 132/132/132 
f 21/21/21 14/14/14 134/134/134 
f 135/135/135 136/136/136 23/23/23 
f 137/137/137 136/136/136 135/135/135 
f 138/138/138 136/136/136 137/137/137 
f 139/139/139 138/138/138 137/137/137 
f 140/140/140 138/138/138 139/139/139 
f 133/133/133 37/37/37 131/131/131 
f 38/38/38 37/37/37 133/133/133 
f 133/133/133 141/141/141 38/38/38 
f 128/128/128 127/127/127 142/142/142 
f 143/143/143 39/39/39 144/144/144 
f 145/145/145 39/39/39 143/143/143 
f 146/146/146 39/39/39 145/145/145 
f 42/42/42 39/39/39 146/146/146 
f 147/147/147 42/42/42 146/146/146 
f 148/148/148 42/42/42 147/147/147 
f 136/136/136 22/22/22 23/23/23 
