v -0.765986 2.1807 -0.264295
v -0.746368 2.34953 -0.156729
v -0.727393 2.37478 -0.167582
v -0.746368 2.34953 -0.15673
v -0.765986 2.1807 -0.264296
v -0.740112 2.34705 -0.157741
v -0.740112 2.34705 -0.157741
v -0.727393 2.37478 -0.167583
v -0.746369 2.34953 -0.15673
v -0.731515 2.34363 -0.159131
v -0.687272 2.3659 -0.175746
v -0.693896 2.37741 -0.176781
v -0.638445 2.3489 -0.317359
v -0.693896 2.37741 -0.176781
v -0.687272 2.3659 -0.175746
v -0.686066 2.38707 -0.226764
v -0.707573 2.40116 -0.178919
v -0.686066 2.38707 -0.226764
v -0.709741 2.39827 -0.177679
v -0.707573 2.40116 -0.178919
v -0.6579 2.3058 -0.3417
v -0.717587 2.38783 -0.173192
v -0.717587 2.38783 -0.173192
v -0.709741 2.39827 -0.177679
v -0.707573 2.40116 -0.17892
v -0.6579 2.3058 -0.3417
v -0.67666 2.05629 -0.334484
v -0.765986 2.1807 -0.264295
v -0.6579 2.3058 -0.3417
v -0.591572 2.06308 -0.349583
v -0.67666 2.05629 -0.334484
v -0.58234 2.07068 -0.351328
v -0.597193 2.29604 -0.352243
v -0.499036 2.13929 -0.367081
v -0.597193 2.29604 -0.352243
v -0.511594 2.12648 -0.292835
v -0.499036 2.13929 -0.367081
v -0.513846 2.12419 -0.279524
v -0.682661 2.35789 -0.175025
v -0.514121 2.1239 -0.277894
v -0.657521 2.31424 -0.171095
v -0.657521 2.31424 -0.171095
v -0.516033 2.12238 -0.279016
v -0.514121 2.1239 -0.277894
v -0.731515 2.34363 -0.159131
v -0.597878 2.05715 -0.327064
v -0.598503 2.05665 -0.327431
v -0.612319 2.04564 -0.335541
v -0.591573 2.06308 -0.349583
v -0.598503 2.05665 -0.327431
v -0.612319 2.04564 -0.335541
v -0.597878 2.05715 -0.327064
v -0.58234 2.07068 -0.351328
v -0.516033 2.12238 -0.279016
v -0.511594 2.12648 -0.292835
v -0.513846 2.12419 -0.279524
v -0.514121 2.1239 -0.277894
v -0.499036 2.13929 -0.367081
v -0.625356 2.03525 -0.343194
v -0.625356 2.03525 -0.343194
v -0.625355 2.03525 -0.343194
v -0.67666 2.05629 -0.334484
v -0.657521 2.31424 -0.171095
v -0.682661 2.35789 -0.175025
v -0.597193 2.29604 -0.352243
v -0.6579 2.3058 -0.3417
v -0.638445 2.3489 -0.317359
v -0.6579 2.3058 -0.3417
v -0.686066 2.38707 -0.226764
v -0.638445 2.3489 -0.317359
vt 0.267523 0.571722
vt 0.285058 0.585238
vt 0.284368 0.588402
vt 0.846277 1.90741
vt 0.865949 1.70722
vt 0.840004 1.90476
vt 2.36272 -0.677866
vt 2.39118 -0.663104
vt 2.36527 -0.684178
vt 2.35922 -0.669192
vt 2.38207 -0.622211
vt 2.39387 -0.628371
vt -0.459675 2.34246
vt -0.315305 2.39544
vt -0.314242 2.38216
vt -0.366636 2.39969
vt -0.317501 2.42284
vt 0.277406 0.592227
vt 0.283727 0.591345
vt 0.283648 0.591707
vt 0.2612 0.5884
vt 0.284012 0.590037
vt 2.40457 -0.652212
vt 2.41528 -0.643499
vt 2.41824 -0.641091
vt 0.2612 0.5884
vt 0.247908 0.571007
vt 0.267523 0.571722
vt 0.2612 0.5884
vt 0.243919 0.580688
vt 0.247908 0.571007
vt 0.243878 0.58216
vt 0.25752 0.594409
vt 0.243514 0.595451
vt -0.495499 2.2759
vt -0.434489 2.08647
vt -0.510738 2.09099
vt -0.420819 2.08566
vt -0.313502 2.37293
vt -0.419145 2.08556
vt -0.309465 2.32256
vt 0.757187 1.86987
vt 0.615312 1.64999
vt 0.613394 1.65188
vt 0.831383 1.90113
vt 0.69738 1.5692
vt 0.698008 1.56859
vt 0.711861 1.55495
vt -0.401802 0.847323
vt -0.379642 0.837892
vt -0.387756 0.820227
vt -0.379275 0.838691
vt -0.403548 0.859284
vt -0.331211 0.943343
vt -0.345034 0.949376
vt -0.331718 0.946179
vt -0.330088 0.945788
vt -0.419307 0.967204
vt -0.395411 0.803557
vt 0.244067 0.575298
vt 0.724933 1.54208
vt 0.776379 1.56454
vt 2.32905 -0.594544
vt 2.37385 -0.617922
vt 0.25752 0.594409
vt 0.2612 0.5884
vt 0.264839 0.592832
vt 0.2612 0.5884
vt 0.277406 0.592227
vt 0.264839 0.592832
vn -0.792649 0.392674 -0.466385
vn -0.795352 0.393849 -0.460759
vn -0.795056 0.39372 -0.461379
vn -0.0738296 -0.529734 0.844945
vn -0.0738296 -0.529734 0.844945
vn -0.0738296 -0.529734 0.844945
vn 0.241702 0.224172 0.944101
vn 0.241702 0.224172 0.944101
vn 0.241702 0.224172 0.944101
vn 0.241702 0.224172 0.944101
vn 0.241702 0.224172 0.944101
vn 0.241702 0.224172 0.944101
vn 0.834831 0.501223 0.227668
vn 0.834831 0.501223 0.227668
vn 0.834831 0.501223 0.227668
vn 0.834831 0.501223 0.227668
vn 0.834831 0.501223 0.227668
vn -0.793508 0.393047 -0.464606
vn -0.79478 0.3936 -0.461957
vn -0.794746 0.393585 -0.462028
vn -0.790535 0.391754 -0.470726
vn -0.794903 0.393653 -0.4617
vn 0.241702 0.224172 0.944101
vn 0.241702 0.224172 0.944101
vn 0.241702 0.224172 0.944101
vn -0.598697 0.0218612 -0.800677
vn -0.598697 0.0218612 -0.800677
vn -0.598697 0.0218612 -0.800677
vn -0.173499 -0.0154317 -0.984713
vn -0.173499 -0.0154317 -0.984713
vn -0.173499 -0.0154317 -0.984713
vn -0.173499 -0.0154317 -0.984713
vn -0.173499 -0.0154317 -0.984713
vn -0.173499 -0.0154317 -0.984713
vn 0.834831 0.501223 0.227668
vn 0.834831 0.501223 0.227668
vn 0.834831 0.501223 0.227668
vn 0.834831 0.501223 0.227668
vn 0.834831 0.501223 0.227668
vn 0.834831 0.501223 0.227668
vn 0.834831 0.501223 0.227668
vn -0.0738296 -0.529734 0.844945
vn -0.0738296 -0.529734 0.844945
vn -0.0738296 -0.529734 0.844945
vn -0.0738296 -0.529734 0.844945
vn -0.0738296 -0.529734 0.844945
vn -0.0738296 -0.529734 0.844945
vn -0.0738296 -0.529734 0.844945
vn 0.632527 -0.774083 -0.0265447
vn 0.632527 -0.774083 -0.0265447
vn 0.632527 -0.774083 -0.0265447
vn 0.632527 -0.774083 -0.0265447
vn 0.632527 -0.774083 -0.0265447
vn 0.632527 -0.774083 -0.0265447
vn 0.632527 -0.774083 -0.0265447
vn 0.632527 -0.774083 -0.0265447
vn 0.632527 -0.774083 -0.0265447
vn 0.632527 -0.774083 -0.0265447
vn 0.632527 -0.774083 -0.0265447
vn -0.173499 -0.0154317 -0.984713
vn -0.0738296 -0.529734 0.844945
vn -0.0738296 -0.529734 0.844945
vn 0.241702 0.224172 0.944101
vn 0.241702 0.224172 0.944101
vn -0.066128 0.51311 -0.855772
vn -0.066128 0.51311 -0.855772
vn -0.066128 0.51311 -0.855772
vn -0.592767 0.581949 -0.556744
vn -0.592767 0.581949 -0.556744
vn -0.592767 0.581949 -0.556744
f 1/1/1 2/2/2 3/3/3 
f 4/4/4 5/5/5 6/6/6 
f 7/7/7 8/8/8 9/9/9 
f 10/10/10 8/8/8 7/7/7 
f 11/11/11 8/8/8 10/10/10 
f 11/11/11 12/12/12 8/8/8 
f 13/13/13 14/14/14 15/15/15 
f 16/16/16 14/14/14 13/13/13 
f 16/16/16 17/17/17 14/14/14 
f 18/18/18 19/19/19 20/20/20 
f 21/21/21 19/19/19 18/18/18 
f 21/21/21 22/22/22 19/19/19 
f 1/1/1 22/22/22 21/21/21 
f 1/1/1 3/3/3 22/22/22 
f 12/12/12 23/23/23 8/8/8 
f 12/12/12 24/24/24 23/23/23 
f 12/12/12 25/25/25 24/24/24 
f 26/26/26 27/27/27 28/28/28 
f 29/29/29 30/30/30 31/31/31 
f 29/29/29 32/32/32 30/30/30 
f 33/33/33 32/32/32 29/29/29 
f 33/33/33 34/34/34 32/32/32 
f 35/35/35 36/36/36 37/37/37 
f 35/35/35 38/38/38 36/36/36 
f 39/39/39 38/38/38 35/35/35 
f 39/39/39 40/40/40 38/38/38 
f 41/41/41 40/40/40 39/39/39 
f 42/42/42 43/43/43 44/44/44 
f 45/45/45 43/43/43 42/42/42 
f 45/45/45 46/46/46 43/43/43 
f 45/45/45 47/47/47 46/46/46 
f 6/6/6 47/47/47 45/45/45 
f 47/47/47 6/6/6 48/48/48 
f 49/49/49 50/50/50 51/51/51 
f 49/49/49 52/52/52 50/50/50 
f 53/53/53 52/52/52 49/49/49 
f 52/52/52 53/53/53 54/54/54 
f 54/54/54 53/53/53 55/55/55 
f 56/56/56 54/54/54 55/55/55 
f 56/56/56 57/57/57 54/54/54 
f 58/58/58 55/55/55 53/53/53 
f 49/49/49 51/51/51 59/59/59 
f 31/31/31 30/30/30 60/60/60 
f 61/61/61 5/5/5 62/62/62 
f 48/48/48 5/5/5 61/61/61 
f 48/48/48 6/6/6 5/5/5 
f 63/63/63 64/64/64 10/10/10 
f 64/64/64 11/11/11 10/10/10 
f 39/39/39 35/35/35 15/15/15 
f 15/15/15 35/35/35 13/13/13 
f 65/65/65 66/66/66 67/67/67 
f 68/68/68 69/69/69 70/70/70 
