v 0.397723 2.13428 0.377981
v 0.689695 2.1793 0.384686
v 0.396743 2.16613 0.337592
v 0.397723 2.13428 0.377981
v 0.605817 1.94551 0.191473
v 0.689695 2.1793 0.384686
v 0.586345 1.94669 0.194642
v 0.571304 1.94759 0.197091
v 0.384229 2.10075 0.350429
v 0.517561 1.95083 0.205839
v 0.571304 1.94759 0.197091
v 0.517561 1.95083 0.205839
v 0.517749 1.95473 0.166603
v 0.566015 1.95608 0.115959
v 0.613138 2.27678 0.13197
v 0.566015 1.95608 0.115959
v 0.517749 1.95473 0.166603
v 0.7153 2.06891 -0.0184141
v 0.618929 1.95756 0.060438
v 0.725589 1.96055 -0.0514769
v 0.725589 1.96055 -0.0514767
v 0.7153 2.06891 -0.0184139
v 0.754812 1.95718 -0.0400724
v 0.725589 1.96055 -0.0514769
v 0.754812 1.95718 -0.0400724
v 0.757522 1.95316 -0.00180577
v 0.618929 1.95756 0.060438
v 0.746168 1.94839 0.0547996
v 0.722565 1.93848 0.172469
v 0.668637 1.94173 0.181247
v 0.605817 1.94551 0.191473
v 0.586345 1.94669 0.194642
v 0.668637 1.94173 0.181247
v 0.774183 1.9792 0.202034
v 0.80254 2.00158 0.218276
v 0.941558 2.15061 0.331984
v 0.943827 2.11305 0.299201
v 0.949138 2.11724 0.302243
v 0.991011 2.15027 0.326227
v 0.941558 2.15061 0.331984
v 0.991011 2.15027 0.326227
v 1.0279 2.17204 0.236767
v 0.941558 2.15061 0.331984
v 1.0279 2.17204 0.236767
v 0.689695 2.1793 0.384686
v 1.03103 2.17397 0.230475
v 0.587646 2.29 0.161575
v 1.03224 2.17472 0.228028
v 1.03224 2.17472 0.228028
v 0.613138 2.27678 0.131971
v 0.587646 2.29 0.161575
v 1.03221 2.17468 0.227771
v 0.950011 2.17709 0.119974
v 1.03171 2.17404 0.223811
v 0.950011 2.17709 0.119974
v 1.03171 2.17404 0.223811
v 1.02865 2.16685 0.150256
v 0.950011 2.17709 0.119974
v 1.02865 2.16685 0.150255
v 1.00559 2.14846 0.133972
v 0.966841 2.11754 0.106611
v 0.961979 2.11366 0.103177
v 0.806112 1.98931 -0.00688995
v 0.764444 1.95607 -0.0363136
v 0.764444 1.95607 -0.0363136
v 0.806112 1.98931 -0.00688998
v 0.757522 1.95316 -0.00180577
v 0.764444 1.95607 -0.0363138
v 0.746168 1.94839 0.0547996
v 0.722565 1.93848 0.172469
v 0.774183 1.9792 0.202034
v 0.722565 1.93848 0.172469
v 0.80254 2.00158 0.218276
v 0.961979 2.11366 0.103177
v 0.943826 2.11305 0.299201
v 0.966841 2.11754 0.106611
v 1.00559 2.14846 0.133972
v 1.0279 2.17204 0.236767
v 0.949138 2.11724 0.302243
v 0.99101 2.15027 0.326227
v 1.03171 2.17404 0.223811
v 1.02865 2.16685 0.150256
v 1.03103 2.17397 0.230475
v 1.03221 2.17468 0.227771
v 1.03224 2.17472 0.228028
v 0.699832 2.23182 0.031294
v 0.699832 2.23182 0.0312941
v 0.699831 2.23182 0.0312939
v 0.524004 2.27655 0.225961
v 0.587646 2.29 0.161574
v 0.524005 2.27655 0.225962
v 0.524004 2.27655 0.225962
v 0.396743 2.16613 0.337592
v 0.393319 2.15093 0.33809
v 0.397723 2.13428 0.377981
v 0.396743 2.16613 0.337592
v 0.393319 2.15093 0.33809
v 0.384229 2.10075 0.350429
v 0.379191 2.08823 0.340145
v 0.379192 2.08823 0.340145
v 0.473525 1.95349 0.213006
v 0.473525 1.95349 0.213006
v 0.379191 2.08823 0.340145
v 0.476826 1.95329 0.212469
v 0.473525 1.95349 0.213006
v 0.476826 1.95329 0.212469
vt 0.769686 0.963737
vt 0.787166 0.93748
vt 0.776231 0.96626
vt -0.488937 1.86074
vt -0.697756 1.59595
vt -0.781927 1.89916
vt -0.678216 1.59891
vt -0.663123 1.6012
vt -0.475395 1.81735
vt -0.609192 1.60937
vt -0.421141 0.00315093
vt -0.367242 0.011535
vt -0.367431 -0.0278928
vt -0.415837 -0.0784217
vt 2.32928 -0.326016
vt 2.00541 -0.305219
vt 2.00404 -0.235259
vt 2.11935 -0.505442
vt 2.00691 -0.381916
vt 2.00992 -0.536516
vt 1.7673 -0.646202
vt 1.881 -0.649815
vt 1.76376 -0.677553
vt -0.575872 -0.245477
vt -0.60518 -0.233794
vt -0.607897 -0.195318
vt -0.468904 -0.133817
vt -0.59651 -0.138519
vt -0.57284 -0.0204466
vt -0.518756 -0.0120336
vt -0.455754 -0.00223325
vt -0.436225 0.000804457
vt -0.760796 1.58639
vt -0.866709 1.62833
vt -0.895165 1.65587
vt -1.03467 1.84297
vt -1.03694 1.79311
vt -1.04227 1.79827
vt -1.08429 1.83895
vt 0.798233 0.912874
vt 0.800575 0.908224
vt 0.811084 0.907653
vt 0.798233 0.912874
vt 0.811084 0.907653
vt 0.787166 0.93748
vt 0.811883 0.907583
vt 0.811383 0.957635
vt 0.812194 0.907556
vt 0.812194 0.907556
vt 0.816255 0.953997
vt 0.811383 0.957635
vt 0.812231 0.907553
vt 0.825873 0.914621
vt 0.812791 0.907521
vt 0.825873 0.914621
vt 0.812791 0.907521
vt 0.820651 0.907678
vt 1.99452 -0.920108
vt 1.98377 -1.00431
vt 1.96447 -0.976693
vt 1.93203 -0.930288
vt 1.92796 -0.924464
vt 1.79748 -0.73779
vt 1.7626 -0.687887
vt -0.61484 -0.229944
vt 0.0517933 1.83914
vt 0.0568847 1.77858
vt 0.0223281 1.78586
vt 0.11357 1.76664
vt 0.231404 1.74181
vt 0.261011 1.80754
vt -0.814912 1.57819
vt 0.277276 1.84365
vt 0.162015 2.03845
vt 0.358315 2.02357
vt 0.165454 2.04467
vt 0.192854 2.09422
vt 0.295794 2.12622
vt 0.361362 2.03033
vt 0.385379 2.08365
vt 0.282819 2.13047
vt 0.20916 2.1237
vt 0.289493 2.12988
vt 0.286785 2.13125
vt 0.287042 2.1313
vt 2.05194 -0.655246
vt 0.832822 0.941625
vt 2.28388 -0.458724
vt 2.32905 -0.196482
vt 2.34263 -0.286994
vt 0.802591 0.961725
vt 0.802591 0.961725
vt 2.21754 -0.0279161
vt 2.20219 -0.0251988
vt 0.351671 -2.16893
vt 0.310467 -2.19973
vt 0.310975 -2.18415
vt 0.323563 -2.13322
vt 0.313071 -2.11989
vt -0.470341 1.80116
vt -0.565003 1.61607
vt 2.00279 -0.171158
vt 2.13887 -0.013989
vt -0.32639 0.0178898
vt -0.32308 0.0184047
vt -0.568316 1.61557
vn -0.133882 0.776608 0.615593
vn -0.133882 0.776608 0.615593
vn -0.133882 0.776608 0.615593
vn 0.0832992 -0.652426 0.75326
vn 0.0832992 -0.652426 0.75326
vn 0.0832992 -0.652426 0.75326
vn 0.0832992 -0.652426 0.75326
vn 0.0832992 -0.652426 0.75326
vn 0.0832992 -0.652426 0.75326
vn 0.0832992 -0.652426 0.75326
vn -0.075869 -0.992211 -0.0987956
vn -0.075869 -0.992211 -0.0987956
vn -0.075869 -0.992211 -0.0987956
vn -0.075869 -0.992211 -0.0987956
vn -0.718668 0.139609 -0.681194
vn -0.718668 0.139609 -0.681194
vn -0.718668 0.139609 -0.681194
vn -0.718668 0.139609 -0.681194
vn -0.718668 0.139609 -0.681194
vn -0.718668 0.139609 -0.681194
vn 0.376576 0.302881 -0.875473
vn 0.376576 0.302881 -0.875473
vn 0.376576 0.302881 -0.875473
vn -0.075869 -0.992211 -0.0987956
vn -0.075869 -0.992211 -0.0987956
vn -0.075869 -0.992211 -0.0987956
vn -0.075869 -0.992211 -0.0987956
vn -0.075869 -0.992211 -0.0987956
vn -0.075869 -0.992211 -0.0987956
vn -0.075869 -0.992211 -0.0987956
vn -0.075869 -0.992211 -0.0987956
vn -0.075869 -0.992211 -0.0987956
vn 0.0832992 -0.652426 0.75326
vn 0.0832992 -0.652426 0.75326
vn 0.0832992 -0.652426 0.75326
vn 0.0832992 -0.652426 0.75326
vn 0.0832992 -0.652426 0.75326
vn 0.0832992 -0.652426 0.75326
vn 0.0832992 -0.652426 0.75326
vn 0.0356346 0.967566 0.250091
vn 0.0356346 0.967566 0.250091
vn 0.0356346 0.967566 0.250091
vn 0.181119 0.911453 0.36939
vn 0.181119 0.911453 0.36939
vn 0.181119 0.911453 0.36939
vn 0.181119 0.911453 0.36939
vn 0.181119 0.911453 0.36939
vn 0.181119 0.911453 0.36939
vn 0.272633 0.943826 -0.186719
vn 0.272633 0.943826 -0.186719
vn 0.272633 0.943826 -0.186719
vn 0.272633 0.943826 -0.186719
vn 0.272633 0.943826 -0.186719
vn 0.272633 0.943826 -0.186719
vn 0.167264 0.980545 -0.102732
vn 0.167264 0.980545 -0.102732
vn 0.167264 0.980545 -0.102732
vn 0.376576 0.302881 -0.875473
vn 0.376576 0.302881 -0.875473
vn 0.376576 0.302881 -0.875473
vn 0.376576 0.302881 -0.875473
vn 0.376576 0.302881 -0.875473
vn 0.376576 0.302881 -0.875473
vn 0.376576 0.302881 -0.875473
vn -0.075869 -0.992211 -0.0987956
vn 0.599637 -0.798514 0.0530175
vn 0.599637 -0.798514 0.0530175
vn 0.599637 -0.798514 0.0530175
vn 0.599637 -0.798514 0.0530175
vn 0.599637 -0.798514 0.0530175
vn 0.599637 -0.798514 0.0530175
vn 0.0832992 -0.652426 0.75326
vn 0.599637 -0.798514 0.0530175
vn 0.599637 -0.798514 0.0530175
vn 0.599637 -0.798514 0.0530175
vn 0.599637 -0.798514 0.0530175
vn 0.599637 -0.798514 0.0530175
vn 0.599637 -0.798514 0.0530175
vn 0.599637 -0.798514 0.0530175
vn 0.599637 -0.798514 0.0530175
vn 0.599637 -0.798514 0.0530175
vn 0.599637 -0.798514 0.0530175
vn 0.599637 -0.798514 0.0530175
vn 0.599637 -0.798514 0.0530175
vn 0.599637 -0.798514 0.0530175
vn 0.376576 0.302881 -0.875473
vn 0.272633 0.943826 -0.186719
vn -0.718668 0.139609 -0.681194
vn -0.718668 0.139609 -0.681194
vn -0.718668 0.139609 -0.681194
vn 0.181119 0.911453 0.36939
vn -0.133882 0.776608 0.615593
vn -0.718668 0.139609 -0.681194
vn -0.718668 0.139609 -0.681194
vn -0.954832 0.221633 0.197924
vn -0.954832 0.221633 0.197924
vn -0.954832 0.221633 0.197924
vn -0.954832 0.221633 0.197924
vn -0.954832 0.221633 0.197924
vn 0.0832992 -0.652426 0.75326
vn 0.0832992 -0.652426 0.75326
vn -0.718668 0.139609 -0.681194
vn -0.718668 0.139609 -0.681194
vn -0.075869 -0.992211 -0.0987956
vn -0.075869 -0.992211 -0.0987956
vn 0.0832992 -0.652426 0.75326
f 1/1/1 2/2/2 3/3/3 
f 4/4/4 5/5/5 6/6/6 
f 4/4/4 7/7/7 5/5/5 
f 4/4/4 8/8/8 7/7/7 
f 9/9/9 8/8/8 4/4/4 
f 8/8/8 9/9/9 10/10/10 
f 11/11/11 12/12/12 13/13/13 
f 13/13/13 14/14/14 11/11/11 
f 15/15/15 16/16/16 17/17/17 
f 18/18/18 16/16/16 15/15/15 
f 18/18/18 19/19/19 16/16/16 
f 18/18/18 20/20/20 19/19/19 
f 21/21/21 22/22/22 23/23/23 
f 24/24/24 25/25/25 26/26/26 
f 27/27/27 24/24/24 26/26/26 
f 27/27/27 26/26/26 28/28/28 
f 29/29/29 27/27/27 28/28/28 
f 30/30/30 27/27/27 29/29/29 
f 14/14/14 27/27/27 30/30/30 
f 31/31/31 14/14/14 30/30/30 
f 32/32/32 14/14/14 31/31/31 
f 14/14/14 32/32/32 11/11/11 
f 6/6/6 5/5/5 33/33/33 
f 6/6/6 33/33/33 34/34/34 
f 6/6/6 34/34/34 35/35/35 
f 35/35/35 36/36/36 6/6/6 
f 37/37/37 36/36/36 35/35/35 
f 38/38/38 36/36/36 37/37/37 
f 36/36/36 38/38/38 39/39/39 
f 40/40/40 41/41/41 42/42/42 
f 43/43/43 44/44/44 45/45/45 
f 45/45/45 44/44/44 46/46/46 
f 46/46/46 47/47/47 45/45/45 
f 48/48/48 47/47/47 46/46/46 
f 49/49/49 50/50/50 51/51/51 
f 52/52/52 50/50/50 49/49/49 
f 52/52/52 53/53/53 50/50/50 
f 54/54/54 53/53/53 52/52/52 
f 55/55/55 56/56/56 57/57/57 
f 58/58/58 59/59/59 60/60/60 
f 58/58/58 60/60/60 61/61/61 
f 58/58/58 61/61/61 62/62/62 
f 62/62/62 22/22/22 58/58/58 
f 63/63/63 22/22/22 62/62/62 
f 23/23/23 22/22/22 63/63/63 
f 23/23/23 63/63/63 64/64/64 
f 26/26/26 25/25/25 65/65/65 
f 66/66/66 67/67/67 68/68/68 
f 66/66/66 69/69/69 67/67/67 
f 66/66/66 70/70/70 69/69/69 
f 71/71/71 70/70/70 66/66/66 
f 34/34/34 33/33/33 72/72/72 
f 73/73/73 71/71/71 66/66/66 
f 73/73/73 66/66/66 74/74/74 
f 74/74/74 75/75/75 73/73/73 
f 76/76/76 75/75/75 74/74/74 
f 77/77/77 75/75/75 76/76/76 
f 75/75/75 77/77/77 78/78/78 
f 75/75/75 78/78/78 79/79/79 
f 80/80/80 79/79/79 78/78/78 
f 77/77/77 81/81/81 78/78/78 
f 81/81/81 77/77/77 82/82/82 
f 78/78/78 81/81/81 83/83/83 
f 84/84/84 83/83/83 81/81/81 
f 85/85/85 83/83/83 84/84/84 
f 58/58/58 22/22/22 86/86/86 
f 53/53/53 87/87/87 50/50/50 
f 88/88/88 18/18/18 15/15/15 
f 89/89/89 90/90/90 15/15/15 
f 91/91/91 45/45/45 47/47/47 
f 3/3/3 2/2/2 92/92/92 
f 93/93/93 89/89/89 94/94/94 
f 95/95/95 96/96/96 97/97/97 
f 98/98/98 95/95/95 97/97/97 
f 99/99/99 98/98/98 97/97/97 
f 100/100/100 101/101/101 9/9/9 
f 102/102/102 103/103/103 17/17/17 
f 13/13/13 104/104/104 105/105/105 
f 104/104/104 13/13/13 12/12/12 
f 10/10/10 9/9/9 106/106/106 
f 9/9/9 101/101/101 106/106/106 
f 17/17/17 103/103/103 15/15/15 
f 94/94/94 15/15/15 103/103/103 
f 94/94/94 89/89/89 15/15/15 
