v 1.5546 0.4326 0.73
v 1.52835 0.240532 0.78591
v 1.41765 -0.106804 0.444092
v 1.52835 0.240532 0.78591
v 1.5546 0.4326 0.73
v 1.44528 0.361324 0.91801
v 1.27333 0.413872 0.990256
v 1.52835 0.240532 0.78591
v 1.44528 0.361324 0.91801
v 1.27005 0.411476 0.988172
v 1.25416 0.39988 0.978087
v 1.24654 0.39432 0.973251
v 1.17227 0.288441 0.873465
v 1.41765 -0.106804 0.444092
v 1.15798 0.0659671 0.648365
v 1.15592 0.0338886 0.615909
v 1.32865 -0.122104 0.43819
v 1.39827 -0.145801 0.406472
v 1.39827 -0.145801 0.406472
v 1.3222 0.174 0.2949
v 1.41765 -0.106804 0.444092
v 1.37081 -0.0951914 0.361251
v 1.3222 0.174 0.2949
v 1.37081 -0.0951914 0.361251
v 1.30498 0.0196105 0.26197
v 1.30498 0.0196105 0.26197
v 1.12448 0.441143 0.303972
v 1.3222 0.174 0.2949
v 1.11703 0.439189 0.302031
v 1.17686 0.111729 0.252476
v 1.11729 0.356847 0.201546
v 1.11703 0.439189 0.302031
v 1.17686 0.111728 0.252476
v 1.11154 0.404249 0.22608
v 1.1115 0.404797 0.226507
v 1.11703 0.439189 0.302031
v 1.1115 0.404796 0.226507
v 1.10752 0.407959 0.23493
v 1.11305 0.446818 0.320497
v 1.12448 0.441143 0.303972
v 1.13197 0.443105 0.30592
v 1.13197 0.443105 0.30592
v 1.16162 0.450879 0.313639
v 1.3222 0.174 0.2949
v 1.16162 0.450879 0.313639
v 1.5546 0.4326 0.73
v 1.5546 0.4326 0.73
v 1.22784 0.51169 0.428591
v 1.24201 0.524708 0.4532
v 1.3808 0.595552 0.566823
v 1.5546 0.4326 0.73
v 1.24201 0.524708 0.4532
v 1.53442 0.515528 0.705747
v 1.5546 0.4326 0.73
v 1.53442 0.515528 0.705747
v 1.53574 0.501235 0.737366
v 1.5546 0.4326 0.73
v 1.53574 0.501235 0.737366
v 1.50046 0.468968 0.818708
v 1.50046 0.468968 0.818708
v 1.44046 0.429815 0.921884
v 1.41868 0.400626 0.960945
v 1.42098 0.416827 0.956002
v 1.41868 0.400626 0.960945
v 1.42098 0.416827 0.956002
v 1.36968 0.414254 0.975117
v 1.35366 0.413451 0.981085
v 1.35366 0.413451 0.981085
v 1.41868 0.400626 0.960945
v 1.27761 0.416994 0.992972
v 1.27678 0.416392 0.992448
v 1.27678 0.416392 0.992448
v 1.25715 0.43558 0.956741
v 1.27333 0.413872 0.990256
v 1.27761 0.416994 0.992972
v 1.35366 0.41345 0.981085
v 1.25715 0.43558 0.956741
v 1.27761 0.416994 0.992971
v 1.25441 0.438065 0.951896
v 1.36968 0.414254 0.975117
v 1.2431 0.448347 0.931854
v 1.2431 0.448347 0.931854
v 1.24654 0.39432 0.973252
v 1.25441 0.438065 0.951896
v 1.17244 0.371652 0.904421
v 1.1841 0.348744 0.933614
v 1.17575 0.342652 0.928315
v 1.1841 0.348744 0.933613
v 1.17575 0.342652 0.928315
v 1.17227 0.288441 0.873465
v 1.17575 0.342652 0.928315
v 1.17244 0.371652 0.904421
v 1.13794 0.585985 0.62527
v 1.15552 0.519531 0.782578
v 1.14001 0.587694 0.647112
v 1.15445 0.528872 0.774882
v 1.15445 0.528871 0.774882
v 1.17053 0.592327 0.628802
v 1.14001 0.587694 0.647112
v 1.17173 0.513182 0.805466
v 1.50045 0.468967 0.818708
v 1.38079 0.595551 0.566823
v 1.3808 0.595552 0.566823
v 1.24201 0.524708 0.4532
v 1.17053 0.592327 0.628802
v 1.13794 0.585985 0.62527
v 1.13899 0.591843 0.6381
v 1.13899 0.591843 0.6381
v 1.13899 0.591843 0.6381
v 1.12358 0.505714 0.449479
v 1.22784 0.51169 0.428591
v 1.11532 0.459538 0.348356
v 1.16162 0.450879 0.313639
v 1.11355 0.449647 0.326694
v 1.11336 0.448558 0.324308
v 1.15592 0.0338886 0.615909
v 1.11355 0.449647 0.326694
v 1.11336 0.448558 0.324308
v 1.15798 0.0659671 0.648365
v 1.11532 0.459539 0.348356
v 1.12358 0.505714 0.449479
v 1.15235 -0.0216308 0.559734
v 1.11305 0.446818 0.320497
v 1.10627 0.408946 0.237559
v 1.10602 0.39911 0.231516
v 1.10562 0.38329 0.221797
v 1.1347 0.0354907 0.398429
v 1.10559 0.382285 0.22118
v 1.10552 0.379583 0.219519
v 1.10535 0.372914 0.215422
v 1.10513 0.364295 0.210127
v 1.10856 0.202871 0.188605
v 1.10506 0.361307 0.208291
v 1.10506 0.361307 0.208291
v 1.12341 0.318013 0.189867
v 1.10856 0.202871 0.188605
v 1.10621 0.363084 0.207619
v 1.11103 0.357955 0.203453
v 1.10674 0.363905 0.207309
v 1.11103 0.357955 0.203453
v 1.10674 0.363905 0.207309
v 1.10736 0.369142 0.209746
v 1.11798 0.348304 0.197198
v 1.10756 0.370776 0.210506
v 1.11839 0.347736 0.19683
v 1.11851 0.347055 0.19667
v 1.11798 0.348304 0.197198
v 1.11839 0.347736 0.19683
v 1.11851 0.347055 0.19667
v 1.12341 0.318013 0.189867
v 1.11839 0.347736 0.19683
v 1.10756 0.370823 0.210528
v 1.11729 0.356847 0.201546
v 1.1077 0.371983 0.211067
v 1.10828 0.376824 0.21332
v 1.11154 0.404249 0.22608
v 1.10828 0.376824 0.21332
v 1.10562 0.38329 0.221797
v 1.11154 0.404249 0.22608
v 1.10559 0.382285 0.22118
v 1.10552 0.379583 0.219519
v 1.10535 0.372914 0.215422
v 1.1077 0.371983 0.211067
v 1.10756 0.370823 0.210528
v 1.10736 0.369142 0.209746
v 1.10513 0.364295 0.210127
v 1.10674 0.363905 0.207309
v 1.10621 0.363084 0.207619
v 1.10506 0.361307 0.208291
v 1.10602 0.39911 0.231516
v 1.1115 0.404797 0.226507
v 1.10752 0.407959 0.23493
v 1.10705 0.408333 0.235927
v 1.10627 0.408946 0.237559
v 1.10705 0.408333 0.235927
v 1.10627 0.408946 0.237559
v 1.12579 0.303898 0.186561
v 1.12579 0.303898 0.186561
v 1.13853 0.228459 0.168889
v 1.11723 0.201825 0.181993
v 1.1347 0.0354908 0.398429
v 1.10856 0.202871 0.188605
v 1.11723 0.201825 0.181993
v 1.15225 0.175959 0.185545
v 1.17686 0.111729 0.252476
v 1.30498 0.0196106 0.26197
v 1.28286 -0.106518 0.45905
v 1.1498 -0.0612263 0.519671
v 1.1498 -0.0612262 0.519671
v 1.28286 -0.106518 0.45905
v 1.15235 -0.0216308 0.559734
v 1.1498 -0.0612263 0.519671
v 1.37081 -0.0951913 0.361251
v 1.32865 -0.122104 0.43819
v 1.39827 -0.145801 0.406472
v 1.15225 0.175959 0.185545
v 1.13853 0.228459 0.168889
v 1.14356 0.198645 0.161905
v 1.13644 0.199504 0.167336
v 1.14356 0.198645 0.161905
v 1.13644 0.199504 0.167336
v 1.14356 0.198645 0.161905
v 1.53442 0.515528 0.705747
v 1.53574 0.501234 0.737366
v 1.23297 0.457544 0.913925
v 1.44046 0.429815 0.921884
v 1.42098 0.416827 0.956002
v 1.23297 0.457544 0.913926
v 1.17173 0.513182 0.805466
v 1.15552 0.519531 0.782578
v 1.15445 0.528872 0.774882
v 1.25416 0.39988 0.978087
v 1.27005 0.411476 0.988173
vt 0.749 0.7186
vt 0.74076 0.700276
vt 0.772511 0.654869
vt 0.74076 0.700276
vt 0.749 0.7186
vt 0.725604 0.716141
vt -1.23938 0.996619
vt -1.49513 0.729362
vt -1.41182 0.908251
vt -1.23608 0.993454
vt -1.22015 0.978133
vt -1.21251 0.970787
vt -1.13802 0.825406
vt -1.38411 0.242114
vt -1.12369 0.50892
vt -1.12162 0.463286
vt -1.29485 0.227184
vt -1.36467 0.187948
vt 0.776254 0.649867
vt 0.7962 0.6811
vt 0.772511 0.654869
vt 0.782733 0.654167
vt 0.7962 0.6811
vt 0.782733 0.654167
vt 0.797099 0.663562
vt 0.797099 0.663562
vt 0.815242 0.711018
vt 0.7962 0.6811
vt 0.815908 0.710783
vt 0.809091 0.673766
vt 0.824208 0.698899
vt 0.815908 0.710783
vt 0.809091 0.673766
vt 0.823219 0.704765
vt 0.823192 0.704838
vt -1.1441 -0.454423
vt -1.13853 -0.371439
vt -1.13451 -0.38042
vt -1.14009 -0.474395
vt -1.15163 -0.45699
vt -1.15918 -0.459567
vt 0.814573 0.711255
vt 0.811921 0.712192
vt 0.7962 0.6811
vt 0.811921 0.712192
vt 0.749 0.7186
vt 0.749 0.7186
vt 0.798949 0.721266
vt 0.796172 0.723209
vt 0.776347 0.733006
vt 0.749 0.7186
vt 0.796172 0.723209
vt 0.752815 0.727057
vt 0.749 0.7186
vt 0.752815 0.727057
vt 0.748441 0.725875
vt 0.749 0.7186
vt 0.748441 0.725875
vt 0.738487 0.724646
vt 0.738487 0.724646
vt 0.725647 0.723293
vt 0.721515 0.721072
vt 0.722118 0.722645
vt 0.721515 0.721072
vt 0.722118 0.722645
vt 0.715998 0.723654
vt 0.714087 0.723969
vt -1.31994 0.989779
vt -1.38515 0.966422
vt -1.24367 1.00074
vt -1.24284 0.999948
vt 0.505919 1.58792
vt 0.527017 1.54813
vt 0.503148 1.58399
vt 0.506581 1.58886
vt -1.26381 -0.726817
vt -1.16675 -0.69556
vt -1.18733 -0.736221
vt -1.164 -0.690122
vt -1.27992 -0.72104
vt -1.15262 -0.667629
vt 0.541053 1.52015
vt 0.481651 1.55355
vt 0.529749 1.54268
vt 0.456727 1.45294
vt 0.43154 1.48258
vt 0.424841 1.4731
vt -1.14989 0.910574
vt -1.14152 0.902525
vt 0.251459 0.982886
vt 0.305701 1.03781
vt 0.334717 1.01371
vt 0.549175 0.732534
vt 0.482682 0.890805
vt 0.550885 0.754473
vt 0.492028 0.883041
vt -1.06348 -0.49146
vt -1.07965 -0.332202
vt -1.04895 -0.350808
vt -1.08085 -0.525784
vt -1.41143 -0.555923
vt -1.2911 -0.274307
vt -1.41022 -0.759904
vt -1.2702 -0.627299
vt -1.19809 -0.815227
vt -1.16521 -0.809422
vt -1.16627 -0.823525
vt -1.04793 -0.340887
vt 0.555036 0.745404
vt -1.15072 -0.61618
vt -1.2559 -0.599523
vt -1.14239 -0.505019
vt -1.18909 -0.469779
vt -1.1406 -0.481207
vt -1.1404 -0.478584
vt -0.00324137 0.724956
vt 0.412758 0.432999
vt 0.411668 0.430605
vt 0.0288557 0.75746
vt 0.422655 0.45473
vt 0.468857 0.556178
vt -0.0587929 0.6687
vt 0.409927 0.426782
vt 0.372033 0.343578
vt 0.362192 0.337539
vt 0.346362 0.327826
vt -0.00163834 0.506445
vt 0.345357 0.327209
vt 0.342653 0.32555
vt 0.33598 0.321456
vt 0.327357 0.316164
vt 0.165839 0.295075
vt 0.324367 0.31433
vt 0.431176 -0.759132
vt 0.387722 -0.784868
vt 0.272154 -0.773745
vt 0.43296 -0.760456
vt 0.427812 -0.766811
vt 0.433784 -0.761068
vt -1.08565 -0.410987
vt -1.08128 -0.418027
vt -1.08191 -0.423802
vt -1.09273 -0.399566
vt -1.08211 -0.425604
vt -1.09315 -0.398894
vt 0.416871 -0.776865
vt 0.418125 -0.776129
vt 0.417555 -0.776677
vt 0.82439 0.697693
vt 0.824059 0.69434
vt 0.824398 0.697772
vt -1.08212 -0.425656
vt -1.09203 -0.409152
vt -1.08226 -0.426934
vt -1.08285 -0.432273
vt -1.08617 -0.462514
vt 0.701771 -0.408016
vt 0.708616 -0.399422
vt 0.730808 -0.39894
vt 0.707553 -0.399931
vt 0.704691 -0.401301
vt 0.69763 -0.404681
vt 0.696644 -0.409618
vt 0.695416 -0.410002
vt 0.693636 -0.410558
vt 0.688504 -0.40905
vt 0.688091 -0.412292
vt 0.687222 -0.411746
vt 0.68534 -0.410565
vt 0.725368 -0.391402
vt 0.731388 -0.398556
vt 0.734737 -0.389304
vt 0.735133 -0.388209
vt 0.735782 -0.386416
vt -1.13403 -0.381484
vt -1.13326 -0.383225
vt 0.823898 0.69271
vt 0.373554 -0.788758
vt 0.297836 -0.809547
vt 0.271103 -0.784645
vt -0.873521 0.303508
vt -0.84379 0.0354747
vt -0.853647 0.0307045
vt -0.893482 0.0486344
vt -0.921474 0.140435
vt -1.06719 0.201724
vt -1.04203 0.435403
vt -0.890701 0.458385
vt -0.0984113 0.628579
vt -1.24893 0.252989
vt -1.11804 0.384306
vt -1.11549 0.327979
vt -1.14206 0.349251
vt -1.09411 0.427494
vt -1.17329 0.415469
vt 0.819148 0.678784
vt 0.82304 0.683999
vt 0.8227 0.680557
vt 0.268774 -0.808811
vt 0.267911 -0.817763
vt -0.8755 0.0201287
vt -0.883596 0.0162108
vt -1.44559 -0.433795
vt -1.44691 -0.468495
vt -1.14244 -0.647508
vt -1.3511 -0.666093
vt -1.3315 -0.702541
vt 0.551166 1.49999
vt 0.612341 1.37806
vt 0.619321 1.35017
vt 0.629592 1.34367
vt 0.487764 1.56221
vt 0.500514 1.58026
vn 0.974906 -0.173757 -0.139166
vn 0.974906 -0.173757 -0.139166
vn 0.974906 -0.173757 -0.139166
vn 0.859481 0.0315671 0.510193
vn 0.858822 0.0314577 0.511308
vn 0.860713 0.0317721 0.508099
vn 0.0760018 -0.711594 0.698469
vn 0.0760018 -0.711594 0.698469
vn 0.0760018 -0.711594 0.698469
vn 0.0760018 -0.711594 0.698469
vn 0.0760018 -0.711594 0.698469
vn 0.0760018 -0.711594 0.698469
vn 0.0760018 -0.711594 0.698469
vn 0.0760018 -0.711594 0.698469
vn 0.0760018 -0.711594 0.698469
vn 0.0760018 -0.711594 0.698469
vn 0.0760018 -0.711594 0.698469
vn 0.0760018 -0.711594 0.698469
vn 0.872094 0.037203 -0.487923
vn 0.872094 0.037203 -0.487923
vn 0.872094 0.037203 -0.487923
vn 0.872094 0.037203 -0.487923
vn 0.843899 0.0202322 -0.53612
vn 0.843899 0.0202322 -0.53612
vn 0.843899 0.0202322 -0.53612
vn 0.20259 0.182612 -0.962086
vn 0.20259 0.182612 -0.962086
vn 0.20259 0.182612 -0.962086
vn 0.20259 0.182612 -0.962086
vn 0.20259 0.182612 -0.962086
vn 0.966043 0.201072 -0.162268
vn 0.966043 0.201072 -0.162268
vn 0.966043 0.201072 -0.162268
vn 0.966043 0.201072 -0.162268
vn 0.966043 0.201072 -0.162268
vn -0.1326 0.905668 -0.40272
vn -0.1326 0.905668 -0.40272
vn -0.1326 0.905668 -0.40272
vn -0.1326 0.905668 -0.40272
vn -0.1326 0.905668 -0.40272
vn -0.1326 0.905668 -0.40272
vn 0.20259 0.182612 -0.962086
vn 0.20259 0.182612 -0.962086
vn 0.666586 0.427913 -0.610372
vn 0.666586 0.427913 -0.610372
vn 0.666586 0.427913 -0.610372
vn 0.872094 0.037203 -0.487923
vn 0.666586 0.427913 -0.610372
vn 0.666586 0.427913 -0.610372
vn 0.651221 -0.0627374 -0.756291
vn 0.651221 -0.0627374 -0.756291
vn 0.651221 -0.0627374 -0.756291
vn 0.651221 -0.0627374 -0.756291
vn 0.96351 0.256658 0.0759999
vn 0.96351 0.256658 0.0759999
vn 0.96351 0.256658 0.0759999
vn 0.870726 0.190663 0.453304
vn 0.870726 0.190663 0.453304
vn 0.870726 0.190663 0.453304
vn 0.859676 0.0315996 0.509861
vn 0.860713 0.0317721 0.508099
vn 0.861121 0.0318402 0.507402
vn 0.861062 0.0318304 0.507502
vn 0.327987 0.232003 0.915751
vn 0.328182 0.232093 0.915658
vn 0.327192 0.231637 0.916128
vn 0.326883 0.231494 0.916274
vn 0.0760018 -0.711594 0.698469
vn 0.0760018 -0.711594 0.698469
vn 0.0760018 -0.711594 0.698469
vn 0.0760018 -0.711594 0.698469
vn -0.683963 0.41571 0.599483
vn -0.683963 0.41571 0.599483
vn -0.683963 0.41571 0.599483
vn -0.683963 0.41571 0.599483
vn 0.105742 0.907755 0.405956
vn 0.105742 0.907755 0.405956
vn 0.105742 0.907755 0.405956
vn 0.105742 0.907755 0.405956
vn 0.105742 0.907755 0.405956
vn 0.105742 0.907755 0.405956
vn -0.683963 0.41571 0.599483
vn -0.683963 0.41571 0.599483
vn -0.683963 0.41571 0.599483
vn -0.683963 0.41571 0.599483
vn -0.683963 0.41571 0.599483
vn -0.683963 0.41571 0.599483
vn 0.0760018 -0.711594 0.698469
vn 0.0760018 -0.711594 0.698469
vn -0.994723 -0.0340201 0.0967874
vn -0.994723 -0.0340201 0.0967874
vn -0.994723 -0.0340201 0.0967874
vn -0.994723 -0.0340201 0.0967874
vn -0.994723 -0.0340201 0.0967874
vn -0.994723 -0.0340201 0.0967874
vn -0.994723 -0.0340201 0.0967874
vn 0.105742 0.907755 0.405956
vn 0.105742 0.907755 0.405956
vn 0.105742 0.907755 0.405956
vn 0.105742 0.907755 0.405956
vn 0.105742 0.907755 0.405956
vn 0.105742 0.907755 0.405956
vn -0.1326 0.905668 -0.40272
vn -0.1326 0.905668 -0.40272
vn -0.1326 0.905668 -0.40272
vn -0.1326 0.905668 -0.40272
vn -0.1326 0.905668 -0.40272
vn 0.105742 0.907755 0.405956
vn -0.994723 -0.0340201 0.0967874
vn -0.1326 0.905668 -0.40272
vn -0.1326 0.905668 -0.40272
vn -0.1326 0.905668 -0.40272
vn -0.1326 0.905668 -0.40272
vn -0.1326 0.905668 -0.40272
vn -0.1326 0.905668 -0.40272
vn -0.994723 -0.0340201 0.0967874
vn -0.994723 -0.0340201 0.0967874
vn -0.994723 -0.0340201 0.0967874
vn -0.994723 -0.0340201 0.0967874
vn -0.994723 -0.0340201 0.0967874
vn -0.994723 -0.0340201 0.0967874
vn -0.994723 -0.0340201 0.0967874
vn -0.994723 -0.0340201 0.0967874
vn -0.994723 -0.0340201 0.0967874
vn -0.994723 -0.0340201 0.0967874
vn -0.994723 -0.0340201 0.0967874
vn -0.994723 -0.0340201 0.0967874
vn -0.994723 -0.0340201 0.0967874
vn -0.994723 -0.0340201 0.0967874
vn -0.994723 -0.0340201 0.0967874
vn -0.994723 -0.0340201 0.0967874
vn -0.994723 -0.0340201 0.0967874
vn -0.994723 -0.0340201 0.0967874
vn -0.597727 0.0858265 -0.797092
vn -0.597727 0.0858265 -0.797092
vn -0.597727 0.0858265 -0.797092
vn -0.597727 0.0858265 -0.797092
vn -0.597727 0.0858265 -0.797092
vn -0.597727 0.0858265 -0.797092
vn -0.191786 0.432698 -0.880903
vn -0.191786 0.432698 -0.880903
vn -0.191786 0.432698 -0.880903
vn -0.191786 0.432698 -0.880903
vn -0.191786 0.432698 -0.880903
vn -0.191786 0.432698 -0.880903
vn -0.597727 0.0858265 -0.797092
vn -0.597727 0.0858265 -0.797092
vn -0.597727 0.0858265 -0.797092
vn 0.966043 0.201072 -0.162268
vn 0.966043 0.201072 -0.162268
vn 0.966043 0.201072 -0.162268
vn -0.191786 0.432698 -0.880903
vn -0.191786 0.432698 -0.880903
vn -0.191786 0.432698 -0.880903
vn -0.191786 0.432698 -0.880903
vn -0.191786 0.432698 -0.880903
vn -0.800153 0.328698 -0.50171
vn -0.800153 0.328698 -0.50171
vn -0.800153 0.328698 -0.50171
vn -0.800153 0.328698 -0.50171
vn -0.800153 0.328698 -0.50171
vn -0.800153 0.328698 -0.50171
vn -0.800153 0.328698 -0.50171
vn -0.800153 0.328698 -0.50171
vn -0.800153 0.328698 -0.50171
vn -0.800153 0.328698 -0.50171
vn -0.800153 0.328698 -0.50171
vn -0.800153 0.328698 -0.50171
vn -0.800153 0.328698 -0.50171
vn -0.800153 0.328698 -0.50171
vn -0.800153 0.328698 -0.50171
vn -0.800153 0.328698 -0.50171
vn -0.800153 0.328698 -0.50171
vn -0.800153 0.328698 -0.50171
vn -0.1326 0.905668 -0.40272
vn -0.1326 0.905668 -0.40272
vn 0.966043 0.201072 -0.162268
vn -0.597727 0.0858265 -0.797092
vn -0.597727 0.0858265 -0.797092
vn -0.597727 0.0858265 -0.797092
vn -0.476413 -0.715298 -0.511253
vn -0.476413 -0.715298 -0.511253
vn -0.476413 -0.715298 -0.511253
vn -0.476413 -0.715298 -0.511253
vn -0.476413 -0.715298 -0.511253
vn -0.476413 -0.715298 -0.511253
vn -0.476413 -0.715298 -0.511253
vn -0.476413 -0.715298 -0.511253
vn -0.994723 -0.0340201 0.0967874
vn 0.0760018 -0.711594 0.698469
vn 0.0760018 -0.711594 0.698469
vn 0.0760018 -0.711594 0.698469
vn -0.476413 -0.715298 -0.511253
vn -0.476413 -0.715298 -0.511253
vn -0.476413 -0.715298 -0.511253
vn 0.966043 0.201072 -0.162268
vn 0.966043 0.201072 -0.162268
vn 0.966043 0.201072 -0.162268
vn -0.597727 0.0858265 -0.797092
vn -0.597727 0.0858265 -0.797092
vn -0.476413 -0.715298 -0.511253
vn -0.476413 -0.715298 -0.511253
vn 0.105742 0.907755 0.405956
vn 0.105742 0.907755 0.405956
vn 0.105742 0.907755 0.405956
vn 0.105742 0.907755 0.405956
vn 0.105742 0.907755 0.405956
vn -0.683963 0.41571 0.599483
vn -0.683963 0.41571 0.599483
vn -0.683963 0.41571 0.599483
vn -0.683963 0.41571 0.599483
vn -0.683963 0.41571 0.599483
vn -0.683963 0.41571 0.599483
f 1/1/1 2/2/2 3/3/3 
f 4/4/4 5/5/5 6/6/6 
f 7/7/7 8/8/8 9/9/9 
f 10/10/10 8/8/8 7/7/7 
f 11/11/11 8/8/8 10/10/10 
f 12/12/12 8/8/8 11/11/11 
f 8/8/8 12/12/12 13/13/13 
f 13/13/13 14/14/14 8/8/8 
f 15/15/15 14/14/14 13/13/13 
f 14/14/14 15/15/15 16/16/16 
f 17/17/17 14/14/14 16/16/16 
f 18/18/18 14/14/14 17/17/17 
f 19/19/19 20/20/20 21/21/21 
f 22/22/22 20/20/20 19/19/19 
f 23/23/23 24/24/24 25/25/25 
f 26/26/26 27/27/27 28/28/28 
f 26/26/26 29/29/29 27/27/27 
f 30/30/30 29/29/29 26/26/26 
f 31/31/31 32/32/32 33/33/33 
f 34/34/34 32/32/32 31/31/31 
f 35/35/35 32/32/32 34/34/34 
f 36/36/36 37/37/37 38/38/38 
f 36/36/36 38/38/38 39/39/39 
f 36/36/36 39/39/39 40/40/40 
f 40/40/40 39/39/39 41/41/41 
f 28/28/28 27/27/27 42/42/42 
f 28/28/28 42/42/42 43/43/43 
f 44/44/44 45/45/45 46/46/46 
f 47/47/47 21/21/21 20/20/20 
f 46/46/46 45/45/45 48/48/48 
f 46/46/46 48/48/48 49/49/49 
f 50/50/50 51/51/51 52/52/52 
f 53/53/53 51/51/51 50/50/50 
f 54/54/54 55/55/55 56/56/56 
f 57/57/57 58/58/58 59/59/59 
f 60/60/60 6/6/6 5/5/5 
f 61/61/61 6/6/6 60/60/60 
f 61/61/61 62/62/62 6/6/6 
f 63/63/63 62/62/62 61/61/61 
f 64/64/64 65/65/65 66/66/66 
f 64/64/64 66/66/66 67/67/67 
f 68/68/68 9/9/9 69/69/69 
f 70/70/70 9/9/9 68/68/68 
f 71/71/71 9/9/9 70/70/70 
f 7/7/7 9/9/9 71/71/71 
f 72/72/72 73/73/73 74/74/74 
f 75/75/75 73/73/73 72/72/72 
f 76/76/76 77/77/77 78/78/78 
f 76/76/76 79/79/79 77/77/77 
f 80/80/80 79/79/79 76/76/76 
f 79/79/79 80/80/80 81/81/81 
f 82/82/82 83/83/83 84/84/84 
f 85/85/85 83/83/83 82/82/82 
f 85/85/85 86/86/86 83/83/83 
f 86/86/86 85/85/85 87/87/87 
f 13/13/13 88/88/88 89/89/89 
f 13/13/13 12/12/12 88/88/88 
f 90/90/90 91/91/91 92/92/92 
f 92/92/92 93/93/93 90/90/90 
f 94/94/94 93/93/93 92/92/92 
f 94/94/94 95/95/95 93/93/93 
f 96/96/96 95/95/95 94/94/94 
f 97/97/97 98/98/98 99/99/99 
f 100/100/100 98/98/98 97/97/97 
f 98/98/98 100/100/100 101/101/101 
f 98/98/98 101/101/101 102/102/102 
f 103/103/103 104/104/104 105/105/105 
f 105/105/105 104/104/104 106/106/106 
f 105/105/105 106/106/106 107/107/107 
f 98/98/98 108/108/108 99/99/99 
f 93/93/93 95/95/95 109/109/109 
f 104/104/104 110/110/110 106/106/106 
f 111/111/111 110/110/110 104/104/104 
f 111/111/111 112/112/112 110/110/110 
f 113/113/113 112/112/112 111/111/111 
f 113/113/113 114/114/114 112/112/112 
f 41/41/41 114/114/114 113/113/113 
f 115/115/115 114/114/114 41/41/41 
f 116/116/116 117/117/117 118/118/118 
f 119/119/119 117/117/117 116/116/116 
f 119/119/119 120/120/120 117/117/117 
f 90/90/90 120/120/120 119/119/119 
f 90/90/90 121/121/121 120/120/120 
f 121/121/121 90/90/90 93/93/93 
f 118/118/118 122/122/122 116/116/116 
f 123/123/123 122/122/122 118/118/118 
f 124/124/124 122/122/122 123/123/123 
f 125/125/125 122/122/122 124/124/124 
f 126/126/126 122/122/122 125/125/125 
f 126/126/126 127/127/127 122/122/122 
f 128/128/128 127/127/127 126/126/126 
f 129/129/129 127/127/127 128/128/128 
f 130/130/130 127/127/127 129/129/129 
f 131/131/131 127/127/127 130/130/130 
f 131/131/131 132/132/132 127/127/127 
f 133/133/133 132/132/132 131/131/131 
f 134/134/134 135/135/135 136/136/136 
f 137/137/137 135/135/135 134/134/134 
f 137/137/137 138/138/138 135/135/135 
f 139/139/139 138/138/138 137/137/137 
f 140/140/140 141/141/141 142/142/142 
f 142/142/142 143/143/143 140/140/140 
f 144/144/144 143/143/143 142/142/142 
f 143/143/143 144/144/144 145/145/145 
f 146/146/146 147/147/147 148/148/148 
f 147/147/147 146/146/146 138/138/138 
f 138/138/138 146/146/146 135/135/135 
f 149/149/149 33/33/33 150/150/150 
f 149/149/149 31/31/31 33/33/33 
f 151/151/151 31/31/31 149/149/149 
f 145/145/145 152/152/152 153/153/153 
f 145/145/145 144/144/144 152/152/152 
f 153/153/153 152/152/152 154/154/154 
f 153/153/153 154/154/154 155/155/155 
f 153/153/153 155/155/155 156/156/156 
f 157/157/157 158/158/158 159/159/159 
f 157/157/157 160/160/160 158/158/158 
f 160/160/160 157/157/157 161/161/161 
f 162/162/162 161/161/161 157/157/157 
f 162/162/162 157/157/157 163/163/163 
f 164/164/164 162/162/162 163/163/163 
f 165/165/165 162/162/162 164/164/164 
f 166/166/166 162/162/162 165/165/165 
f 166/166/166 165/165/165 167/167/167 
f 168/168/168 166/166/166 167/167/167 
f 169/169/169 166/166/166 168/168/168 
f 170/170/170 159/159/159 158/158/158 
f 170/170/170 171/171/171 159/159/159 
f 170/170/170 172/172/172 171/171/171 
f 170/170/170 173/173/173 172/172/172 
f 170/170/170 174/174/174 173/173/173 
f 39/39/39 175/175/175 176/176/176 
f 39/39/39 38/38/38 175/175/175 
f 150/150/150 33/33/33 177/177/177 
f 136/136/136 135/135/135 178/178/178 
f 136/136/136 178/178/178 179/179/179 
f 136/136/136 179/179/179 180/180/180 
f 181/181/181 182/182/182 183/183/183 
f 181/181/181 183/183/183 184/184/184 
f 185/185/185 181/181/181 184/184/184 
f 186/186/186 181/181/181 185/185/185 
f 181/181/181 186/186/186 187/187/187 
f 188/188/188 181/181/181 187/187/187 
f 189/189/189 122/122/122 127/127/127 
f 190/190/190 191/191/191 192/192/192 
f 190/190/190 16/16/16 191/191/191 
f 17/17/17 16/16/16 190/190/190 
f 187/187/187 193/193/193 194/194/194 
f 193/193/193 187/187/187 186/186/186 
f 195/195/195 194/194/194 193/193/193 
f 177/177/177 33/33/33 196/196/196 
f 177/177/177 196/196/196 197/197/197 
f 197/197/197 196/196/196 198/198/198 
f 199/199/199 179/179/179 200/200/200 
f 180/180/180 179/179/179 199/199/199 
f 184/184/184 183/183/183 201/201/201 
f 184/184/184 201/201/201 202/202/202 
f 39/39/39 115/115/115 41/41/41 
f 203/203/203 102/102/102 101/101/101 
f 203/203/203 101/101/101 204/204/204 
f 101/101/101 100/100/100 205/205/205 
f 205/205/205 206/206/206 101/101/101 
f 81/81/81 206/206/206 205/205/205 
f 81/81/81 80/80/80 206/206/206 
f 80/80/80 207/207/207 206/206/206 
f 82/82/82 208/208/208 85/85/85 
f 208/208/208 209/209/209 85/85/85 
f 209/209/209 210/210/210 85/85/85 
f 209/209/209 211/211/211 210/210/210 
f 73/73/73 84/84/84 83/83/83 
f 212/212/212 73/73/73 83/83/83 
f 213/213/213 73/73/73 212/212/212 
f 74/74/74 73/73/73 213/213/213 
