v -1.1081 -2.4491 -0.0879244
v -1.03332 -2.49799 -0.187287
v -1.03295 -2.48404 -0.0939017
v -1.1081 -2.4491 -0.0879244
v -1.11823 -2.30494 -0.133829
v -1.03332 -2.49799 -0.187287
v -1.11823 -2.30494 -0.133828
v -1.1081 -2.4491 -0.0879242
v -1.03295 -2.48404 -0.0939014
v -1.11823 -2.30494 -0.133829
v -1.03295 -2.48404 -0.0939017
v -1.03332 -2.49799 -0.187287
vt 0.237827 0.0884412
vt 0.225491 0.0809676
vt 0.237699 0.0802441
vt 0.237827 0.0884412
vt 0.235978 0.101593
vt 0.225491 0.0809676
vt 0.904389 -2.14308
vt 0.89401 -2.29435
vt 0.817005 -2.32558
vt -0.264087 -1.62671
vt -0.224073 -1.82506
vt -0.317662 -1.83758
vn -0.408559 -0.90132 0.143878
vn -0.408617 -0.901873 0.140207
vn -0.408565 -0.901374 0.143529
vn -0.828406 -0.221959 -0.514273
vn -0.828356 -0.221921 -0.514372
vn -0.828344 -0.221912 -0.514393
vn 0.217719 0.310002 0.925472
vn 0.217719 0.310002 0.925472
vn 0.217719 0.310002 0.925472
vn 0.906515 0.41699 -0.0659627
vn 0.906515 0.41699 -0.0659627
vn 0.906515 0.41699 -0.0659627
f 1/1/1 2/2/2 3/3/3 
f 4/4/4 5/5/5 6/6/6 
f 7/7/7 8/8/8 9/9/9 
f 10/10/10 11/11/11 12/12/12 
