v -0.647003 -1.70777 -1.04013
v -0.555537 -1.44259 -1.10148
v -0.462054 -1.5929 -1.01179
v -0.555537 -1.44259 -1.10148
v -0.647003 -1.70777 -1.04013
v -0.556317 -1.44137 -1.10177
v -0.556317 -1.44137 -1.10177
v -0.628843 -1.34112 -0.956767
v -0.555537 -1.44259 -1.10148
v -0.560193 -1.43531 -1.10322
v -0.647341 -1.29907 -1.1358
v -0.673214 -1.27196 -0.970712
v -0.673057 -1.27258 -0.965709
v -0.829603 -1.35024 -0.816945
v -0.628843 -1.34112 -0.956767
v -0.673057 -1.27258 -0.965709
v -0.743167 -1.47041 -0.807248
v -0.512842 -1.52094 -0.933306
v -0.512842 -1.52094 -0.933306
v -0.743167 -1.47041 -0.807248
v -0.475533 -1.57381 -0.990964
v -0.512842 -1.52094 -0.933306
v -0.475533 -1.57381 -0.990964
v -0.462054 -1.5929 -1.01179
v -0.647003 -1.70777 -1.04013
v -0.462054 -1.5929 -1.01179
v -1.13197 -1.48061 -0.67405
v -0.971056 -1.42041 -0.682523
v -1.13197 -1.48061 -0.67405
v -0.971056 -1.42041 -0.682523
v -1.06709 -1.40938 -1.02284
v -1.21533 -1.47036 -0.97446
v -1.2995 -1.51178 -0.896901
v -1.26919 -1.51871 -0.764149
v -1.18109 -1.49898 -0.671463
v -1.18109 -1.49898 -0.671463
v -0.964038 -1.81835 -1.01676
v -1.19202 -1.58116 -0.735975
v -1.20933 -1.71135 -0.838182
v -1.01886 -1.8145 -0.993568
v -1.21051 -1.72028 -0.845195
v -1.29914 -1.66793 -0.890437
v -1.01886 -1.8145 -0.993568
v -1.21051 -1.72028 -0.845195
v -1.2129 -1.70737 -0.995585
v -1.14232 -1.74286 -1.03985
v -0.999434 -1.82334 -1.01784
v -0.993596 -1.82692 -1.01313
v -0.993596 -1.82692 -1.01313
v -0.989492 -1.82893 -1.01631
v -0.999434 -1.82334 -1.01784
v -0.964038 -1.81835 -1.01676
v -0.989492 -1.82893 -1.01631
v -1.1496 -1.6685 -1.0533
v -1.14232 -1.74286 -1.03985
v -1.1496 -1.6685 -1.0533
v -1.14232 -1.74286 -1.03985
v -1.2129 -1.70737 -0.995585
v -1.21533 -1.47036 -0.97446
v -1.1496 -1.6685 -1.0533
v -1.2129 -1.70737 -0.995585
v -1.17761 -1.45179 -1.00922
v -1.06709 -1.40938 -1.02284
v -1.1496 -1.6685 -1.0533
v -1.17761 -1.45179 -1.00922
v -0.677765 -1.2539 -1.11582
v -1.1496 -1.6685 -1.0533
v -1.06709 -1.40938 -1.02284
v -0.647341 -1.29907 -1.1358
v -0.647341 -1.29907 -1.1358
v -1.1496 -1.6685 -1.0533
v -0.560193 -1.43531 -1.10322
v -0.964038 -1.81835 -1.01676
v -0.677765 -1.2539 -1.11582
v -0.673214 -1.27196 -0.970712
v -0.677765 -1.2539 -1.11582
v -0.829603 -1.35024 -0.816945
v -0.673057 -1.27258 -0.965709
v -0.866117 -1.36835 -0.782245
v -0.866117 -1.36835 -0.782245
v -0.971056 -1.42041 -0.682522
v -1.17761 -1.45179 -1.00922
v -1.2995 -1.51178 -0.896901
v -1.31178 -1.66046 -0.89689
v -1.32335 -1.62367 -0.882867
v -1.2995 -1.51178 -0.896901
v -1.32335 -1.62367 -0.882867
v -1.34252 -1.53512 -0.841308
v -1.34252 -1.53512 -0.841308
v -1.26919 -1.51871 -0.764149
v -1.34252 -1.53512 -0.841308
v -1.32335 -1.62367 -0.882867
v -1.19202 -1.58116 -0.735975
v -1.18109 -1.49898 -0.671463
v -1.20933 -1.71135 -0.838181
v -1.29914 -1.66793 -0.890436
v -1.31178 -1.66046 -0.89689
v -1.31178 -1.66046 -0.89689
v -1.21051 -1.72028 -0.845195
v -0.989492 -1.82893 -1.01631
vt 0.122366 0.17463
vt 0.109848 0.205733
vt 0.100864 0.182962
vt 0.109848 0.205733
vt 0.122366 0.17463
vt 0.109889 0.205894
vt -1.04868 -0.903946
vt -0.903548 -0.78036
vt -1.04839 -0.905393
vt -1.05013 -0.896752
vt -1.08273 -0.735031
vt -0.917505 -0.69819
vt -0.912498 -0.698797
vt -0.739824 -0.233797
vt -0.729754 0.0108177
vt -0.654087 -0.0209169
vt -0.872492 -0.16742
vt -0.928278 0.0940783
vt 0.563104 -1.76588
vt 0.802284 -1.64636
vt 0.524361 -1.84341
vt -0.880066 -0.994352
vt -0.937774 -1.05901
vt -0.958622 -1.08237
vt 0.702423 -1.97779
vt 0.510364 -1.87141
vt 1.20603 -1.56891
vt 1.03893 -1.5281
vt -0.542018 1.5727
vt -0.550559 1.4009
vt -0.893632 1.48725
vt -0.844864 1.64743
vt -0.766676 1.74072
vt -0.632847 1.71464
vt -0.53941 1.62515
vt 1.25705 -1.58137
vt 1.03165 -2.04777
vt 1.26839 -1.68579
vt 1.28637 -1.85124
vt 1.08858 -2.02996
vt 1.2876 -1.86259
vt -0.747686 -0.332422
vt -0.851052 -0.016211
vt -0.702341 -0.229533
vt -0.853074 -0.237855
vt -0.89744 -0.158909
vt -0.875377 0.0050703
vt -0.870657 0.011912
vt 1.06234 -2.05203
vt 1.05808 -2.05561
vt 0.153201 0.167001
vt 0.150543 0.165964
vt 0.152513 0.166081
vt 0.163 0.1872
vt 0.163086 0.180218
vt 0.163 0.1872
vt 0.163086 0.180218
vt 0.169633 0.183839
vt 0.170651 0.208545
vt 0.163 0.1872
vt 0.169633 0.183839
vt 0.166683 0.210069
vt 0.158066 0.216333
vt 0.163 0.1872
vt 0.166683 0.210069
vt 0.118653 0.23029
vt 0.163 0.1872
vt 0.158066 0.216333
vt 0.114706 0.224746
vt 0.114706 0.224746
vt 0.163 0.1872
vt 0.110095 0.206697
vt 0.150543 0.165964
vt -1.06274 -0.680577
vt -0.841086 1.07015
vt -0.987368 1.0682
vt -0.686072 1.24393
vt -0.836043 1.07022
vt -0.651091 1.28445
vt -0.759823 -0.283452
vt -0.817296 -0.426153
vt -0.879908 1.60562
vt 0.179504 0.205143
vt 0.180339 0.189794
vt 0.181691 0.193751
vt 0.179504 0.205143
vt 0.181691 0.193751
vt 0.186162 0.202128
vt -0.710633 1.78915
vt -1.23638 -1.45406
vt -1.25469 -1.5602
vt -1.35343 -1.57383
vt -1.30602 -1.37791
vt -1.21439 -1.32656
vt -1.4512 -1.45926
vt -1.40279 -1.56094
vt -1.39446 -1.57465
vt -0.754154 -0.347098
vt -1.46117 -1.46484
vt -0.873842 0.0164806
vn 0.334811 -0.320475 -0.886114
vn 0.334811 -0.320475 -0.886114
vn 0.334811 -0.320475 -0.886114
vn 0.0077022 -0.227902 -0.973654
vn 0.0077022 -0.227902 -0.973654
vn 0.0077022 -0.227902 -0.973654
vn 0.83712 0.545434 0.0416127
vn 0.83712 0.545434 0.0416127
vn 0.83712 0.545434 0.0416127
vn 0.83712 0.545434 0.0416127
vn 0.83712 0.545434 0.0416127
vn 0.83712 0.545434 0.0416127
vn 0.83712 0.545434 0.0416127
vn 0.504645 0.423673 0.75222
vn 0.504645 0.423673 0.75222
vn 0.504645 0.423673 0.75222
vn 0.504645 0.423673 0.75222
vn 0.504645 0.423673 0.75222
vn 0.269584 -0.616556 0.739718
vn 0.269584 -0.616556 0.739718
vn 0.269584 -0.616556 0.739718
vn 0.83712 0.545434 0.0416127
vn 0.83712 0.545434 0.0416127
vn 0.83712 0.545434 0.0416127
vn 0.269584 -0.616556 0.739718
vn 0.269584 -0.616556 0.739718
vn 0.269584 -0.616556 0.739718
vn 0.269584 -0.616556 0.739718
vn -0.341686 0.931248 0.126598
vn -0.341686 0.931248 0.126598
vn -0.341686 0.931248 0.126598
vn -0.341686 0.931248 0.126598
vn -0.341686 0.931248 0.126598
vn -0.341686 0.931248 0.126598
vn -0.341686 0.931248 0.126598
vn 0.269584 -0.616556 0.739718
vn 0.269584 -0.616556 0.739718
vn 0.269584 -0.616556 0.739718
vn 0.269584 -0.616556 0.739718
vn 0.269584 -0.616556 0.739718
vn 0.269584 -0.616556 0.739718
vn -0.481702 -0.873739 -0.067401
vn -0.481702 -0.873739 -0.067401
vn -0.481702 -0.873739 -0.067401
vn -0.481702 -0.873739 -0.067401
vn -0.481702 -0.873739 -0.067401
vn -0.481702 -0.873739 -0.067401
vn -0.481702 -0.873739 -0.067401
vn 0.269584 -0.616556 0.739718
vn 0.269584 -0.616556 0.739718
vn 0.0543224 -0.172571 -0.983498
vn 0.0543224 -0.172571 -0.983498
vn 0.0543224 -0.172571 -0.983498
vn 0.0543224 -0.172571 -0.983498
vn 0.0543224 -0.172571 -0.983498
vn -0.590628 -0.199274 -0.781952
vn -0.590628 -0.199274 -0.781952
vn -0.590628 -0.199274 -0.781952
vn -0.691581 0.0570696 -0.720041
vn -0.691581 0.0570696 -0.720041
vn -0.691581 0.0570696 -0.720041
vn -0.691581 0.0570696 -0.720041
vn -0.185442 0.172789 -0.967344
vn -0.185442 0.172789 -0.967344
vn -0.185442 0.172789 -0.967344
vn -0.304483 0.206296 -0.92991
vn -0.304483 0.206296 -0.92991
vn -0.304483 0.206296 -0.92991
vn -0.304483 0.206296 -0.92991
vn 0.0077022 -0.227902 -0.973654
vn 0.0077022 -0.227902 -0.973654
vn 0.0077022 -0.227902 -0.973654
vn 0.0077022 -0.227902 -0.973654
vn 0.83712 0.545434 0.0416127
vn -0.341686 0.931248 0.126598
vn -0.341686 0.931248 0.126598
vn -0.341686 0.931248 0.126598
vn -0.341686 0.931248 0.126598
vn -0.341686 0.931248 0.126598
vn 0.504645 0.423673 0.75222
vn 0.504645 0.423673 0.75222
vn -0.341686 0.931248 0.126598
vn -0.691581 0.0570696 -0.720041
vn -0.691581 0.0570696 -0.720041
vn -0.691581 0.0570696 -0.720041
vn -0.80664 0.0988143 -0.582725
vn -0.80664 0.0988143 -0.582725
vn -0.80664 0.0988143 -0.582725
vn -0.341686 0.931248 0.126598
vn -0.601098 -0.44252 0.665475
vn -0.601098 -0.44252 0.665475
vn -0.601098 -0.44252 0.665475
vn -0.601098 -0.44252 0.665475
vn -0.601098 -0.44252 0.665475
vn -0.601098 -0.44252 0.665475
vn -0.601098 -0.44252 0.665475
vn -0.601098 -0.44252 0.665475
vn -0.481702 -0.873739 -0.067401
vn -0.601098 -0.44252 0.665475
vn -0.481702 -0.873739 -0.067401
f 1/1/1 2/2/2 3/3/3 
f 4/4/4 5/5/5 6/6/6 
f 7/7/7 8/8/8 9/9/9 
f 10/10/10 8/8/8 7/7/7 
f 11/11/11 8/8/8 10/10/10 
f 8/8/8 11/11/11 12/12/12 
f 13/13/13 8/8/8 12/12/12 
f 14/14/14 15/15/15 16/16/16 
f 17/17/17 15/15/15 14/14/14 
f 17/17/17 18/18/18 15/15/15 
f 19/19/19 20/20/20 21/21/21 
f 9/9/9 22/22/22 23/23/23 
f 8/8/8 22/22/22 9/9/9 
f 9/9/9 23/23/23 24/24/24 
f 25/25/25 26/26/26 21/21/21 
f 21/21/21 20/20/20 25/25/25 
f 20/20/20 27/27/27 25/25/25 
f 28/28/28 27/27/27 20/20/20 
f 29/29/29 30/30/30 31/31/31 
f 29/29/29 31/31/31 32/32/32 
f 33/33/33 29/29/29 32/32/32 
f 34/34/34 29/29/29 33/33/33 
f 35/35/35 29/29/29 34/34/34 
f 36/36/36 37/37/37 27/27/27 
f 38/38/38 37/37/37 36/36/36 
f 37/37/37 38/38/38 39/39/39 
f 39/39/39 40/40/40 37/37/37 
f 41/41/41 40/40/40 39/39/39 
f 42/42/42 43/43/43 44/44/44 
f 43/43/43 42/42/42 45/45/45 
f 46/46/46 43/43/43 45/45/45 
f 47/47/47 43/43/43 46/46/46 
f 48/48/48 43/43/43 47/47/47 
f 37/37/37 40/40/40 49/49/49 
f 37/37/37 49/49/49 50/50/50 
f 51/51/51 52/52/52 53/53/53 
f 51/51/51 54/54/54 52/52/52 
f 55/55/55 54/54/54 51/51/51 
f 56/56/56 57/57/57 58/58/58 
f 59/59/59 60/60/60 61/61/61 
f 62/62/62 60/60/60 59/59/59 
f 63/63/63 64/64/64 65/65/65 
f 66/66/66 67/67/67 68/68/68 
f 69/69/69 67/67/67 66/66/66 
f 70/70/70 5/5/5 71/71/71 
f 72/72/72 5/5/5 70/70/70 
f 6/6/6 5/5/5 72/72/72 
f 73/73/73 71/71/71 5/5/5 
f 27/27/27 37/37/37 25/25/25 
f 74/74/74 12/12/12 11/11/11 
f 31/31/31 75/75/75 76/76/76 
f 77/77/77 75/75/75 31/31/31 
f 77/77/77 78/78/78 75/75/75 
f 31/31/31 79/79/79 77/77/77 
f 31/31/31 30/30/30 79/79/79 
f 17/17/17 80/80/80 81/81/81 
f 17/17/17 14/14/14 80/80/80 
f 32/32/32 31/31/31 82/82/82 
f 59/59/59 61/61/61 83/83/83 
f 84/84/84 83/83/83 61/61/61 
f 85/85/85 83/83/83 84/84/84 
f 86/86/86 87/87/87 88/88/88 
f 33/33/33 89/89/89 34/34/34 
f 90/90/90 91/91/91 92/92/92 
f 90/90/90 92/92/92 93/93/93 
f 93/93/93 94/94/94 90/90/90 
f 93/93/93 92/92/92 95/95/95 
f 92/92/92 96/96/96 95/95/95 
f 96/96/96 92/92/92 97/97/97 
f 45/45/45 42/42/42 98/98/98 
f 95/95/95 96/96/96 99/99/99 
f 100/100/100 48/48/48 47/47/47 
