v 0.320593 -2.25868 -0.85914
v 0.372915 -2.25807 -0.861533
v 0.368828 -2.26142 -0.852718
v 0.372915 -2.25807 -0.861533
v 0.320593 -2.25868 -0.85914
v 0.469038 -2.16493 -1.05734
v 0.469038 -2.16493 -1.05734
v 0.465203 -1.86241 -0.802876
v 0.372915 -2.25807 -0.861533
v 0.51732 -2.05967 -1.10858
v 0.499153 -2.11539 -1.10228
v 0.4097 -2.1343 -1.1198
v 0.51732 -2.05967 -1.10858
v 0.499154 -2.11539 -1.10228
v 0.2648 -1.9596 -1.1872
v 0.2648 -1.9596 -1.1872
v 0.55894 -1.91693 -1.11088
v 0.51732 -2.05967 -1.10858
v 0.55894 -1.91693 -1.11088
v 0.2648 -1.9596 -1.1872
v 0.561284 -1.89899 -1.10304
v 0.561284 -1.89899 -1.10304
v 0.558185 -1.89781 -1.09335
v 0.55894 -1.91693 -1.11088
v 0.561284 -1.89899 -1.10304
v 0.230429 -1.77387 -1.11771
v 0.558185 -1.89781 -1.09335
v 0.230429 -1.77387 -1.11771
v 0.230429 -1.77387 -1.11771
v 0.2648 -1.9596 -1.1872
v 0.0760989 -1.7154 -0.98586
v 0.0760988 -1.7154 -0.98586
v 0.465203 -1.86241 -0.802876
v 0.445344 -1.85485 -0.740834
v -0.0460522 -1.66914 -0.907658
v 0.430656 -1.84925 -0.694947
v -0.143512 -1.63222 -0.837759
v -0.123544 -1.63964 -0.672379
v -0.126603 -1.63848 -0.672379
v -0.136506 -1.63474 -0.67238
v -0.18131 -1.61782 -0.705584
v -0.194838 -1.61277 -0.783617
v -0.197515 -1.61178 -0.809244
v -0.19889 -1.61127 -0.822409
v -0.199556 -1.61102 -0.828791
v -0.199709 -1.61096 -0.830252
v -0.201019 -1.61048 -0.842802
v -0.201668 -1.61024 -0.849016
v -0.202107 -1.61008 -0.853216
v -0.234268 -1.63282 -0.82064
v -0.201669 -1.61024 -0.849016
v -0.202107 -1.61008 -0.853216
v -0.201019 -1.61048 -0.842802
v -0.199709 -1.61096 -0.830252
v -0.199556 -1.61102 -0.828791
v -0.19889 -1.61127 -0.822409
v -0.226637 -1.62996 -0.803449
v -0.197515 -1.61178 -0.809244
v -0.194838 -1.61277 -0.783617
v -0.213638 -1.62508 -0.774168
v -0.198187 -1.75138 -0.854777
v -0.213638 -1.62508 -0.774168
v -0.226636 -1.62996 -0.803449
v -0.211852 -1.62442 -0.770145
v -0.182357 -1.76031 -0.832102
v -0.2116 -1.62432 -0.769578
v -0.211852 -1.62442 -0.770145
v -0.2116 -1.62432 -0.769578
v -0.201594 -1.62057 -0.747036
v -0.179872 -1.76172 -0.828543
v -0.201594 -1.62057 -0.747036
v -0.182357 -1.76031 -0.832103
v -0.1624 -1.7355 -0.847
v -0.179871 -1.76172 -0.828543
v -0.198187 -1.75138 -0.854777
v -0.1624 -1.7355 -0.847
v -0.198187 -1.75138 -0.854777
v -0.263382 -1.66973 -0.908942
v -0.246426 -1.63038 -0.916767
v -0.279361 -1.64971 -0.922218
v -0.279361 -1.64971 -0.922218
v -0.263382 -1.66973 -0.908942
v -0.278173 -1.64927 -0.919543
v -0.278173 -1.64927 -0.919543
v -0.246426 -1.63038 -0.916767
v -0.279361 -1.64971 -0.922218
v -0.275629 -1.64832 -0.913812
v -0.275629 -1.64832 -0.913812
v -0.269702 -1.6461 -0.90046
v -0.268099 -1.6455 -0.896849
v -0.265659 -1.64458 -0.891352
v -0.260467 -1.64263 -0.879656
v -0.259838 -1.6424 -0.87824
v -0.257029 -1.64135 -0.871913
v -0.234268 -1.63282 -0.82064
v -0.25703 -1.64135 -0.871913
v -0.203819 -1.60944 -0.869606
v -0.223337 -1.61682 -0.912947
v -0.259838 -1.6424 -0.87824
v -0.260467 -1.64263 -0.879656
v -0.265659 -1.64458 -0.891352
v -0.268099 -1.6455 -0.896849
v -0.269702 -1.6461 -0.90046
v -0.223337 -1.61682 -0.912947
v -0.1624 -1.7355 -0.847
v -0.223337 -1.61682 -0.912947
v -0.143512 -1.63222 -0.837759
v -0.0460522 -1.66914 -0.907658
v -0.1624 -1.7355 -0.847
v -0.143512 -1.63222 -0.837759
v -0.0460522 -1.66914 -0.907658
v -0.128352 -1.95023 -0.894072
v -0.1624 -1.7355 -0.847
v -0.128224 -1.95066 -0.894203
v -0.115293 -1.99416 -0.907315
v -0.11155 -1.99806 -0.903516
v -0.128224 -1.95066 -0.894203
v -0.115293 -1.99416 -0.907315
v -0.0850711 -1.91589 -0.780742
v -0.128352 -1.95023 -0.894072
v -0.143501 -1.89927 -0.878712
v -0.103093 -1.84655 -0.754852
v 0.42041 -1.86941 -0.682312
v -0.103093 -1.84655 -0.754852
v -0.085071 -1.91589 -0.780742
v -0.146071 -1.6812 -0.693115
v -0.146071 -1.6812 -0.693115
v -0.166649 -1.8214 -0.855239
v -0.166562 -1.8217 -0.855327
v -0.143501 -1.89927 -0.878712
v -0.166562 -1.8217 -0.855327
v -0.166649 -1.8214 -0.855239
v -0.1624 -1.7355 -0.847
v -0.166649 -1.8214 -0.855239
v -0.179871 -1.76172 -0.828543
v -0.187764 -1.61539 -0.715883
v -0.18131 -1.61782 -0.705583
v -0.187764 -1.61539 -0.715883
v -0.187764 -1.61539 -0.715883
v -0.147035 -1.67749 -0.69173
v -0.150401 -1.66454 -0.686895
v -0.160505 -1.62566 -0.672381
v -0.160505 -1.62566 -0.672381
v -0.136506 -1.63474 -0.67238
v -0.160505 -1.62566 -0.672381
v -0.150401 -1.66454 -0.686895
v -0.126603 -1.63848 -0.672379
v -0.147035 -1.67749 -0.69173
v -0.123544 -1.63964 -0.672379
v 0.423424 -1.8465 -0.672355
v 0.423424 -1.8465 -0.672355
v 0.430656 -1.84925 -0.694947
v 0.423424 -1.8465 -0.672355
v 0.42041 -1.86941 -0.682312
v 0.445344 -1.85485 -0.740834
v 0.368828 -2.26142 -0.852718
v 0.320593 -2.25868 -0.85914
v 0.368828 -2.26142 -0.852717
v 0.0716871 -2.19207 -0.870548
v -0.0459461 -2.06642 -0.836945
v 0.071687 -2.19207 -0.870548
v -0.0459463 -2.06642 -0.836945
v -0.103659 -2.00669 -0.91578
v -0.103348 -2.00703 -0.916098
v 0.0152371 -2.13397 -0.963428
v 0.0871845 -2.21023 -0.954945
v 0.0949565 -2.21816 -0.938617
v 0.101317 -2.22465 -0.925254
v 0.120693 -2.24442 -0.884547
v 0.120693 -2.24442 -0.884547
v 0.120693 -2.24442 -0.884547
v 0.101317 -2.22465 -0.925254
v 0.4097 -2.1343 -1.1198
v 0.469038 -2.16493 -1.05734
v 0.4097 -2.1343 -1.1198
v 0.499154 -2.11539 -1.10228
v 0.0949565 -2.21816 -0.938616
v 0.0871845 -2.21023 -0.954944
v 0.0152371 -2.13397 -0.963428
v 0.4097 -2.1343 -1.1198
v 0.0871845 -2.21023 -0.954944
v 0.0152371 -2.13397 -0.963428
v 0.2648 -1.9596 -1.1872
v 0.4097 -2.1343 -1.1198
v -0.0377863 -2.07802 -0.982387
v -0.0381102 -2.07767 -0.982503
v -0.0381103 -2.07767 -0.982503
v -0.103348 -2.00703 -0.916098
v -0.103659 -2.00669 -0.91578
v 0.0760989 -1.7154 -0.98586
v -0.103659 -2.00669 -0.91578
v -0.11155 -1.99806 -0.903516
v -0.115293 -1.99416 -0.907315
v -0.0459462 -2.06642 -0.836945
v -0.0377863 -2.07802 -0.982388
v -0.0381102 -2.07767 -0.982503
v -0.206818 -1.60833 -0.89832
v -0.203819 -1.60944 -0.869606
v -0.206818 -1.60833 -0.898321
v -0.206818 -1.60833 -0.89832
vt 0.853034 0.339751
vt 0.854147 0.34519
vt 0.852948 0.344631
vt 0.854147 0.34519
vt 0.853034 0.339751
vt 0.881384 0.361364
vt -2.06742 1.15332
vt -1.75411 0.912236
vt -2.16388 0.936645
vt -1.9584 1.21776
vt -2.01611 1.20575
vt 0.8887 0.3573
vt 0.895031 0.374039
vt 0.888098 0.367729
vt 0.9176 0.357
vt 0.9176 0.357
vt 0.901599 0.392297
vt 0.895031 0.374039
vt 0.901599 0.392297
vt 0.9176 0.357
vt 0.90298 0.39543
vt -1.792 1.22724
vt -1.79077 1.21708
vt -1.81058 1.23385
vt -1.10424 -1.19675
vt -1.11892 -0.843024
vt -1.09456 -1.19343
vt 0.935817 0.383777
vt 0.0117016 0.142268
vt 0.0056 0.1201
vt 0.0340864 0.150652
vt -0.987064 -0.677987
vt -0.80408 -1.09394
vt -0.742038 -1.07269
vt -0.908862 -0.54737
vt -0.696151 -1.05697
vt -0.838963 -0.443153
vt -0.673583 -0.464453
vt -0.673584 -0.461183
vt -0.673584 -0.450595
vt -0.706788 -0.402704
vt -0.784821 -0.388263
vt -0.810448 -0.385409
vt -0.823614 -0.383943
vt -0.829995 -0.383232
vt -0.831456 -0.383069
vt -0.844006 -0.381671
vt -0.85022 -0.38098
vt -0.85442 -0.380512
vt -0.706767 1.04471
vt -0.73525 1.00514
vt -0.739466 1.00543
vt -0.729013 1.0047
vt -0.716415 1.00383
vt -0.714949 1.00373
vt -0.708543 1.00329
vt -0.689511 1.0367
vt -0.695328 1.00238
vt -0.669604 1.0006
vt -0.660119 1.02306
vt -1.70607 -0.849905
vt -1.56991 -0.785493
vt -1.57516 -0.817469
vt -1.56918 -0.7811
vt -1.71569 -0.822486
vt -1.56908 -0.78048
vt -0.656081 1.02118
vt -0.655511 1.02092
vt -0.632885 1.01041
vt -1.7172 -0.818182
vt -1.56504 -0.755864
vt 0.0729705 0.149214
vt 0.069 0.1539
vt 0.0729497 0.148603
vt 0.0731031 0.153109
vt 0.069 0.1539
vt 0.0731031 0.153109
vt 0.079578 0.165988
vt 0.0773462 0.170484
vt 0.0811649 0.169145
vt -1.59646 -0.947171
vt -1.61803 -0.928024
vt -1.59598 -0.94425
vt -0.806044 1.0908
vt -0.803259 1.05386
vt -0.80873 1.09205
vt -0.800292 1.08813
vt -1.59495 -0.937991
vt -1.59256 -0.92341
vt -1.59191 -0.919466
vt -1.59092 -0.913464
vt -1.58882 -0.900691
vt -1.58857 -0.899145
vt -1.58744 -0.892236
vt -1.57824 -0.836243
vt -0.758235 1.06861
vt -0.755919 1.00657
vt -0.799423 1.02709
vt -0.764585 1.07156
vt -0.766007 1.07222
vt -0.777747 1.07767
vt -0.783264 1.08023
vt -0.78689 1.08191
vt 0.0746691 0.171423
vt 0.069 0.1539
vt 0.0746691 0.171423
vt 0.06223 0.171705
vt 0.0524932 0.159469
vt 0.069 0.1539
vt 0.06223 0.171705
vt 0.0524932 0.159469
vt 0.0619948 0.125914
vt 0.069 0.1539
vt 0.0619718 0.125856
vt 0.0596649 0.12004
vt -1.97199 -0.853222
vt -1.9209 -0.852643
vt -1.96779 -0.858318
vt -1.88341 -0.732063
vt -1.92043 -0.852586
vt -1.8655 -0.845937
vt -1.80866 -0.717396
vt -0.42822 -1.98822
vt 0.100737 -1.99486
vt 0.0825273 -2.06883
vt 0.144163 -1.81847
vt -1.6304 -0.682419
vt -1.78155 -0.835777
vt -1.78187 -0.835815
vt 0.0646975 0.132727
vt 0.0688119 0.143099
vt 0.0688275 0.143138
vt 0.069 0.1539
vt 0.0688275 0.143138
vt 0.0729497 0.148603
vt -1.55945 -0.721843
vt -1.56208 -0.709727
vt -0.717088 -0.395807
vt -0.601614 0.995897
vt -1.6264 -0.681635
vt -1.61244 -0.678895
vt -1.57053 -0.670672
vt -0.673585 -0.424937
vt 0.134498 -1.76761
vt 0.158747 -1.75923
vt 0.148538 -1.80069
vt 0.124492 -1.77107
vt 0.145137 -1.81451
vt 0.121402 -1.77214
vt -0.431266 -1.96325
vt -0.673559 -1.04923
vt -1.74049 0.798968
vt -1.73764 0.775259
vt -1.76136 0.783634
vt -1.74628 0.847125
vt -2.16735 0.92697
vt -0.327364 -2.41554
vt -0.376101 -2.41561
vt -0.0758642 -2.35836
vt 0.0429947 -2.22941
vt -0.890473 1.64534
vt -0.856866 1.47322
vt -0.93571 1.39017
vt -0.936027 1.39063
vt -0.983362 1.56434
vt -0.974878 1.66919
vt -0.958548 1.68029
vt -0.945185 1.68938
vt -0.904474 1.71705
vt -0.125381 -2.41208
vt 0.853328 0.320084
vt 0.85839 0.319413
vt 0.8887 0.3573
vt 0.881384 0.361364
vt 0.8887 0.3573
vt 0.888098 0.367729
vt 0.860052 0.319193
vt 0.862082 0.318923
vt 0.871436 0.312241
vt 0.8887 0.3573
vt 0.862082 0.318923
vt 0.871436 0.312241
vt 0.9176 0.357
vt 0.8887 0.3573
vt 0.880402 0.311389
vt 0.880456 0.311384
vt 0.0480305 0.109187
vt 0.0577897 0.11813
vt 0.0578363 0.118173
vt 0.0340864 0.150652
vt 0.0578363 0.118173
vt -0.923444 1.37848
vt -0.927243 1.37307
vt -2.04569 -0.763904
vt -1.00232 1.48726
vt -1.00244 1.48679
vt 0.0716769 0.173418
vt -0.870811 -0.378686
vt -0.899525 -0.375488
vt -0.784742 1.00856
vn -0.0104325 -0.931888 -0.362596
vn -0.0110019 -0.931655 -0.363177
vn -0.0110789 -0.93164 -0.363214
vn -0.00925107 -0.901241 -0.43322
vn -0.00925107 -0.901241 -0.43322
vn -0.00925107 -0.901241 -0.43322
vn 0.909954 -0.26013 0.322979
vn 0.909954 -0.26013 0.322979
vn 0.909954 -0.26013 0.322979
vn 0.909954 -0.26013 0.322979
vn 0.909954 -0.26013 0.322979
vn 0.225886 -0.18187 -0.957026
vn 0.225886 -0.18187 -0.957026
vn 0.225886 -0.18187 -0.957026
vn 0.225886 -0.18187 -0.957026
vn 0.262572 -0.0920313 -0.960514
vn 0.262572 -0.0920313 -0.960514
vn 0.262572 -0.0920313 -0.960514
vn 0.181739 0.37391 -0.909484
vn 0.181739 0.37391 -0.909484
vn 0.181739 0.37391 -0.909484
vn 0.909954 -0.26013 0.322979
vn 0.909954 -0.26013 0.322979
vn 0.909954 -0.26013 0.322979
vn 0.353742 0.935343 -0.000763476
vn 0.353742 0.935343 -0.000763476
vn 0.353742 0.935343 -0.000763476
vn 0.181739 0.37391 -0.909484
vn -0.598176 0.181347 -0.780576
vn -0.598176 0.181347 -0.780576
vn -0.598176 0.181347 -0.780576
vn 0.353742 0.935343 -0.000763476
vn 0.353742 0.935343 -0.000763476
vn 0.353742 0.935343 -0.000763476
vn 0.353742 0.935343 -0.000763476
vn 0.353742 0.935343 -0.000763476
vn 0.353742 0.935343 -0.000763476
vn 0.353742 0.935343 -0.000763476
vn 0.353742 0.935343 -0.000763476
vn 0.353742 0.935343 -0.000763476
vn 0.353742 0.935343 -0.000763476
vn 0.353742 0.935343 -0.000763476
vn 0.353742 0.935343 -0.000763476
vn 0.353742 0.935343 -0.000763476
vn 0.353742 0.935343 -0.000763476
vn 0.353742 0.935343 -0.000763476
vn 0.353742 0.935343 -0.000763476
vn 0.353742 0.935343 -0.000763476
vn 0.353742 0.935343 -0.000763476
vn -0.515062 0.852749 0.0867795
vn -0.515062 0.852749 0.0867795
vn -0.515062 0.852749 0.0867795
vn -0.515062 0.852749 0.0867795
vn -0.515062 0.852749 0.0867795
vn -0.515062 0.852749 0.0867795
vn -0.515062 0.852749 0.0867795
vn -0.515062 0.852749 0.0867795
vn -0.515062 0.852749 0.0867795
vn -0.515062 0.852749 0.0867795
vn -0.515062 0.852749 0.0867795
vn -0.823168 -0.373596 0.427577
vn -0.823168 -0.373596 0.427577
vn -0.823168 -0.373596 0.427577
vn -0.823168 -0.373596 0.427577
vn -0.823168 -0.373596 0.427577
vn -0.823168 -0.373596 0.427577
vn -0.515062 0.852749 0.0867795
vn -0.515062 0.852749 0.0867795
vn -0.515062 0.852749 0.0867795
vn -0.823168 -0.373596 0.427577
vn -0.823168 -0.373596 0.427577
vn 0.433001 -0.693741 -0.575529
vn 0.433001 -0.693741 -0.575529
vn 0.433001 -0.693741 -0.575529
vn 0.433001 -0.693741 -0.575529
vn 0.334811 -0.320475 -0.886114
vn 0.334811 -0.320475 -0.886114
vn 0.334811 -0.320475 -0.886114
vn 0.334811 -0.320475 -0.886114
vn 0.334811 -0.320475 -0.886114
vn -0.823168 -0.373596 0.427577
vn -0.823168 -0.373596 0.427577
vn -0.823168 -0.373596 0.427577
vn -0.515062 0.852749 0.0867795
vn -0.515062 0.852749 0.0867795
vn -0.515062 0.852749 0.0867795
vn -0.515062 0.852749 0.0867795
vn -0.823168 -0.373596 0.427577
vn -0.823168 -0.373596 0.427577
vn -0.823168 -0.373596 0.427577
vn -0.823168 -0.373596 0.427577
vn -0.823168 -0.373596 0.427577
vn -0.823168 -0.373596 0.427577
vn -0.823168 -0.373596 0.427577
vn -0.823168 -0.373596 0.427577
vn -0.515062 0.852749 0.0867795
vn -0.515062 0.852749 0.0867795
vn -0.515062 0.852749 0.0867795
vn -0.515062 0.852749 0.0867795
vn -0.515062 0.852749 0.0867795
vn -0.515062 0.852749 0.0867795
vn -0.515062 0.852749 0.0867795
vn -0.515062 0.852749 0.0867795
vn 0.334811 -0.320475 -0.886114
vn 0.678457 -0.058558 -0.732303
vn 0.678387 -0.0587164 -0.732355
vn 0.678342 -0.0588181 -0.732389
vn -0.530526 0.171311 -0.830178
vn -0.530526 0.171311 -0.830178
vn -0.530526 0.171311 -0.830178
vn -0.506987 0.107103 -0.855274
vn -0.506987 0.107103 -0.855274
vn -0.506987 0.107103 -0.855274
vn -0.506987 0.107103 -0.855274
vn -0.506987 0.107103 -0.855274
vn -0.823168 -0.373596 0.427577
vn -0.823168 -0.373596 0.427577
vn -0.823168 -0.373596 0.427577
vn -0.823168 -0.373596 0.427577
vn -0.823168 -0.373596 0.427577
vn -0.823168 -0.373596 0.427577
vn -0.823168 -0.373596 0.427577
vn -0.143238 -0.378634 0.914395
vn -0.143238 -0.378634 0.914395
vn -0.143238 -0.378634 0.914395
vn -0.143238 -0.378634 0.914395
vn -0.823168 -0.373596 0.427577
vn -0.823168 -0.373596 0.427577
vn -0.823168 -0.373596 0.427577
vn -0.506987 0.107103 -0.855274
vn -0.506987 0.107103 -0.855274
vn -0.506987 0.107103 -0.855274
vn -0.788078 0.0972751 -0.607841
vn -0.788078 0.0972751 -0.607841
vn -0.788078 0.0972751 -0.607841
vn -0.823168 -0.373596 0.427577
vn -0.823168 -0.373596 0.427577
vn 0.353742 0.935343 -0.000763476
vn -0.515062 0.852749 0.0867795
vn -0.823168 -0.373596 0.427577
vn -0.823168 -0.373596 0.427577
vn -0.823168 -0.373596 0.427577
vn 0.353742 0.935343 -0.000763476
vn -0.143238 -0.378634 0.914395
vn -0.143238 -0.378634 0.914395
vn -0.143238 -0.378634 0.914395
vn -0.143238 -0.378634 0.914395
vn -0.143238 -0.378634 0.914395
vn -0.143238 -0.378634 0.914395
vn -0.143238 -0.378634 0.914395
vn 0.353742 0.935343 -0.000763476
vn 0.909954 -0.26013 0.322979
vn 0.909954 -0.26013 0.322979
vn 0.909954 -0.26013 0.322979
vn 0.909954 -0.26013 0.322979
vn 0.909954 -0.26013 0.322979
vn -0.143238 -0.378634 0.914395
vn -0.143238 -0.378634 0.914395
vn -0.143238 -0.378634 0.914395
vn -0.143238 -0.378634 0.914395
vn -0.728105 -0.685327 0.0137961
vn -0.728105 -0.685327 0.0137961
vn -0.728105 -0.685327 0.0137961
vn -0.728105 -0.685327 0.0137961
vn -0.728105 -0.685327 0.0137961
vn -0.728105 -0.685327 0.0137961
vn -0.728105 -0.685327 0.0137961
vn -0.728105 -0.685327 0.0137961
vn -0.728105 -0.685327 0.0137961
vn -0.143238 -0.378634 0.914395
vn -0.00925107 -0.901241 -0.43322
vn -0.00925107 -0.901241 -0.43322
vn -0.00925107 -0.901241 -0.43322
vn 0.276674 -0.732455 -0.622062
vn 0.276674 -0.732455 -0.622062
vn 0.276674 -0.732455 -0.622062
vn -0.00925107 -0.901241 -0.43322
vn -0.00925107 -0.901241 -0.43322
vn -0.336191 -0.411384 -0.847195
vn -0.336191 -0.411384 -0.847195
vn -0.336191 -0.411384 -0.847195
vn -0.307317 -0.55353 -0.774055
vn -0.307317 -0.55353 -0.774055
vn -0.307317 -0.55353 -0.774055
vn -0.307317 -0.55353 -0.774055
vn -0.307317 -0.55353 -0.774055
vn -0.598176 0.181347 -0.780576
vn -0.598176 0.181347 -0.780576
vn -0.598176 0.181347 -0.780576
vn -0.506987 0.107103 -0.855274
vn -0.506987 0.107103 -0.855274
vn -0.728105 -0.685327 0.0137961
vn -0.728105 -0.685327 0.0137961
vn -0.823168 -0.373596 0.427577
vn -0.728105 -0.685327 0.0137961
vn -0.728105 -0.685327 0.0137961
vn 0.678366 -0.0587632 -0.732371
vn 0.353742 0.935343 -0.000763476
vn 0.353742 0.935343 -0.000763476
vn -0.515062 0.852749 0.0867795
f 1/1/1 2/2/2 3/3/3 
f 4/4/4 5/5/5 6/6/6 
f 7/7/7 8/8/8 9/9/9 
f 7/7/7 10/10/10 8/8/8 
f 10/10/10 7/7/7 11/11/11 
f 12/12/12 13/13/13 14/14/14 
f 15/15/15 13/13/13 12/12/12 
f 16/16/16 17/17/17 18/18/18 
f 19/19/19 20/20/20 21/21/21 
f 22/22/22 23/23/23 24/24/24 
f 25/25/25 26/26/26 27/27/27 
f 21/21/21 20/20/20 28/28/28 
f 29/29/29 30/30/30 31/31/31 
f 27/27/27 26/26/26 32/32/32 
f 32/32/32 33/33/33 27/27/27 
f 32/32/32 34/34/34 33/33/33 
f 35/35/35 34/34/34 32/32/32 
f 35/35/35 36/36/36 34/34/34 
f 37/37/37 36/36/36 35/35/35 
f 37/37/37 38/38/38 36/36/36 
f 37/37/37 39/39/39 38/38/38 
f 37/37/37 40/40/40 39/39/39 
f 37/37/37 41/41/41 40/40/40 
f 37/37/37 42/42/42 41/41/41 
f 37/37/37 43/43/43 42/42/42 
f 37/37/37 44/44/44 43/43/43 
f 37/37/37 45/45/45 44/44/44 
f 37/37/37 46/46/46 45/45/45 
f 37/37/37 47/47/47 46/46/46 
f 37/37/37 48/48/48 47/47/47 
f 48/48/48 37/37/37 49/49/49 
f 50/50/50 51/51/51 52/52/52 
f 51/51/51 50/50/50 53/53/53 
f 53/53/53 50/50/50 54/54/54 
f 54/54/54 50/50/50 55/55/55 
f 55/55/55 50/50/50 56/56/56 
f 57/57/57 56/56/56 50/50/50 
f 57/57/57 58/58/58 56/56/56 
f 57/57/57 59/59/59 58/58/58 
f 57/57/57 60/60/60 59/59/59 
f 61/61/61 62/62/62 63/63/63 
f 61/61/61 64/64/64 62/62/62 
f 65/65/65 64/64/64 61/61/61 
f 64/64/64 65/65/65 66/66/66 
f 67/67/67 68/68/68 59/59/59 
f 60/60/60 67/67/67 59/59/59 
f 68/68/68 69/69/69 59/59/59 
f 66/66/66 70/70/70 71/71/71 
f 66/66/66 65/65/65 70/70/70 
f 72/72/72 73/73/73 74/74/74 
f 75/75/75 73/73/73 72/72/72 
f 76/76/76 77/77/77 78/78/78 
f 78/78/78 79/79/79 76/76/76 
f 78/78/78 80/80/80 79/79/79 
f 81/81/81 82/82/82 83/83/83 
f 84/84/84 85/85/85 86/86/86 
f 84/84/84 87/87/87 85/85/85 
f 82/82/82 88/88/88 83/83/83 
f 82/82/82 89/89/89 88/88/88 
f 82/82/82 90/90/90 89/89/89 
f 82/82/82 91/91/91 90/90/90 
f 82/82/82 92/92/92 91/91/91 
f 82/82/82 93/93/93 92/92/92 
f 82/82/82 94/94/94 93/93/93 
f 82/82/82 95/95/95 94/94/94 
f 61/61/61 95/95/95 82/82/82 
f 61/61/61 63/63/63 95/95/95 
f 50/50/50 52/52/52 96/96/96 
f 96/96/96 52/52/52 97/97/97 
f 96/96/96 97/97/97 98/98/98 
f 96/96/96 98/98/98 99/99/99 
f 99/99/99 98/98/98 85/85/85 
f 100/100/100 99/99/99 85/85/85 
f 101/101/101 100/100/100 85/85/85 
f 102/102/102 101/101/101 85/85/85 
f 103/103/103 102/102/102 85/85/85 
f 87/87/87 103/103/103 85/85/85 
f 76/76/76 79/79/79 104/104/104 
f 105/105/105 106/106/106 107/107/107 
f 108/108/108 109/109/109 110/110/110 
f 111/111/111 112/112/112 113/113/113 
f 111/111/111 114/114/114 112/112/112 
f 114/114/114 111/111/111 115/115/115 
f 116/116/116 117/117/117 118/118/118 
f 119/119/119 117/117/117 116/116/116 
f 117/117/117 119/119/119 120/120/120 
f 119/119/119 121/121/121 120/120/120 
f 119/119/119 122/122/122 121/121/121 
f 123/123/123 124/124/124 125/125/125 
f 124/124/124 123/123/123 126/126/126 
f 122/122/122 127/127/127 70/70/70 
f 122/122/122 70/70/70 128/128/128 
f 122/122/122 128/128/128 129/129/129 
f 122/122/122 129/129/129 121/121/121 
f 113/113/113 130/130/130 131/131/131 
f 113/113/113 112/112/112 130/130/130 
f 113/113/113 131/131/131 132/132/132 
f 133/133/133 134/134/134 135/135/135 
f 71/71/71 70/70/70 127/127/127 
f 127/127/127 136/136/136 71/71/71 
f 137/137/137 136/136/136 127/127/127 
f 41/41/41 42/42/42 138/138/138 
f 69/69/69 139/139/139 59/59/59 
f 140/140/140 137/137/137 127/127/127 
f 141/141/141 137/137/137 140/140/140 
f 142/142/142 137/137/137 141/141/141 
f 40/40/40 41/41/41 143/143/143 
f 144/144/144 145/145/145 146/146/146 
f 144/144/144 146/146/146 147/147/147 
f 147/147/147 146/146/146 148/148/148 
f 147/147/147 148/148/148 149/149/149 
f 149/149/149 148/148/148 126/126/126 
f 126/126/126 123/123/123 149/149/149 
f 150/150/150 149/149/149 123/123/123 
f 36/36/36 38/38/38 151/151/151 
f 152/152/152 153/153/153 154/154/154 
f 152/152/152 154/154/154 9/9/9 
f 152/152/152 9/9/9 155/155/155 
f 8/8/8 155/155/155 9/9/9 
f 9/9/9 154/154/154 156/156/156 
f 123/123/123 157/157/157 158/158/158 
f 123/123/123 159/159/159 157/157/157 
f 123/123/123 125/125/125 159/159/159 
f 159/159/159 125/125/125 160/160/160 
f 161/161/161 162/162/162 163/163/163 
f 164/164/164 161/161/161 163/163/163 
f 165/165/165 161/161/161 164/164/164 
f 166/166/166 161/161/161 165/165/165 
f 167/167/167 161/161/161 166/166/166 
f 168/168/168 161/161/161 167/167/167 
f 169/169/169 161/161/161 168/168/168 
f 157/157/157 159/159/159 170/170/170 
f 171/171/171 6/6/6 5/5/5 
f 172/172/172 6/6/6 171/171/171 
f 6/6/6 172/172/172 173/173/173 
f 174/174/174 175/175/175 176/176/176 
f 173/173/173 172/172/172 177/177/177 
f 173/173/173 177/177/177 178/178/178 
f 179/179/179 180/180/180 181/181/181 
f 182/182/182 183/183/183 184/184/184 
f 185/185/185 183/183/183 182/182/182 
f 186/186/186 183/183/183 185/185/185 
f 187/187/187 31/31/31 30/30/30 
f 188/188/188 31/31/31 187/187/187 
f 189/189/189 31/31/31 188/188/188 
f 190/190/190 191/191/191 111/111/111 
f 115/115/115 111/111/111 191/191/191 
f 163/163/163 192/192/192 193/193/193 
f 163/163/163 162/162/162 192/192/192 
f 194/194/194 119/119/119 116/116/116 
f 195/195/195 164/164/164 196/196/196 
f 165/165/165 164/164/164 195/195/195 
f 107/107/107 106/106/106 197/197/197 
f 198/198/198 37/37/37 199/199/199 
f 49/49/49 37/37/37 198/198/198 
f 97/97/97 200/200/200 98/98/98 
f 23/23/23 8/8/8 10/10/10 
f 23/23/23 10/10/10 24/24/24 
