v -0.701721 2.43224 -0.162881
v -0.686066 2.38707 -0.226763
v -0.707573 2.40116 -0.178919
v -0.686066 2.38707 -0.226763
v -0.701721 2.43224 -0.162881
v -0.638445 2.3489 -0.317359
v -0.638445 2.3489 -0.317359
v -0.607229 2.24749 -0.20855
v -0.686066 2.38707 -0.226763
v -0.598483 2.23588 -0.215064
v -0.609886 2.3123 -0.34151
v -0.594679 2.23083 -0.217897
v -0.597193 2.29604 -0.352243
v -0.533478 2.1496 -0.263477
v -0.499036 2.13929 -0.367081
v -0.509719 2.1284 -0.303921
v -0.514121 2.1239 -0.277893
v -0.514121 2.1239 -0.277893
v -0.422129 2.10326 -0.0967055
v -0.533478 2.1496 -0.263477
v -0.431405 2.1043 -0.117539
v -0.4212 2.10188 -0.0977557
v -0.413353 2.10303 -0.101338
v -0.422129 2.10326 -0.0967055
v -0.4212 2.10188 -0.0977557
v -0.42696 2.11043 -0.0912401
v -0.42696 2.11043 -0.0912401
v -0.521653 2.20209 -0.104456
v -0.594679 2.23083 -0.217897
v -0.598483 2.23588 -0.215064
v -0.607229 2.24749 -0.20855
v -0.633194 2.28195 -0.189212
v -0.633194 2.28195 -0.189212
v -0.707573 2.40116 -0.178919
v -0.657521 2.31424 -0.171094
v -0.657521 2.31424 -0.171094
v -0.445291 2.20085 -0.044345
v -0.707573 2.40116 -0.178919
v -0.521653 2.20209 -0.104456
v -0.447448 2.14084 -0.0680605
v -0.447448 2.14084 -0.0680605
v -0.233415 2.20728 -0.15125
v -0.445291 2.20085 -0.044345
v -0.442728 2.13384 -0.0734007
v -0.232178 2.17494 -0.165271
v -0.442273 2.13316 -0.0739152
v -0.231925 2.16833 -0.168137
v -0.44217 2.13301 -0.0740312
v -0.381838 2.10765 -0.115726
v -0.413353 2.10303 -0.101338
v -0.431405 2.1043 -0.117539
v -0.381838 2.10765 -0.115726
v -0.4212 2.10188 -0.0977557
v -0.514121 2.1239 -0.277893
v -0.367447 2.15269 -0.390476
v -0.230452 2.12981 -0.184837
v -0.230452 2.12981 -0.184837
v -0.219269 2.15211 -0.318984
v -0.231925 2.16833 -0.168137
v -0.230452 2.12981 -0.184837
v -0.232178 2.17494 -0.165271
v -0.218752 2.15314 -0.32519
v -0.215981 2.15867 -0.358433
v -0.233415 2.20728 -0.15125
v -0.215165 2.1603 -0.368221
v -0.233505 2.20961 -0.150238
v -0.233505 2.20961 -0.150238
v -0.237593 2.31649 -0.103898
v -0.442374 2.282 -0.0122749
v -0.441875 2.29588 -0.00678843
v -0.441875 2.29588 -0.00678846
v -0.701721 2.43224 -0.162881
v -0.442374 2.282 -0.0122749
v -0.563548 2.55348 -0.00883223
v -0.437824 2.40858 0.037753
v -0.436855 2.43552 0.0483975
v -0.432387 2.55984 0.0975306
v -0.432386 2.55984 0.0975307
v -0.3666 2.6158 0.0425
v -0.563548 2.55348 -0.00883226
v -0.414806 2.57001 0.0926486
v -0.3666 2.6158 0.0425
v -0.414806 2.57001 0.0926486
v -0.354496 2.59196 0.0705457
v -0.354195 2.59205 0.0704237
v -0.3666 2.6158 0.0425
v -0.354496 2.59196 0.0705457
v -0.344255 2.59474 0.0663996
v -0.338451 2.59488 0.0634558
v -0.3666 2.6158 0.0425
v -0.344255 2.59474 0.0663996
v -0.319364 2.59534 0.0537756
v -0.319364 2.59534 0.0537756
v -0.5034 2.6481 -0.1484
v -0.3666 2.6158 0.0425
v -0.293634 2.57979 0.0340345
v -0.246233 2.55048 -0.00617161
v -0.246578 2.55135 -0.00206852
v -0.246233 2.55048 -0.00617158
v -0.246578 2.55135 -0.00206882
v -0.246528 2.55005 -0.00263196
v -0.246517 2.54974 -0.00276323
v -0.243729 2.54422 -0.0359461
v -0.243729 2.54422 -0.0359461
v -0.233456 2.52148 -0.158169
v -0.5034 2.6481 -0.1484
v -0.233456 2.52148 -0.158169
v -0.217935 2.36541 -0.339957
v -0.217935 2.36541 -0.339957
v -0.609886 2.3123 -0.34151
v -0.5034 2.6481 -0.1484
v -0.597193 2.29604 -0.352243
v -0.211974 2.25184 -0.408512
v -0.224164 2.23606 -0.417028
v -0.224164 2.23606 -0.417028
v -0.367447 2.15269 -0.390476
v -0.597193 2.29604 -0.352243
v -0.358718 2.15358 -0.392028
v -0.226153 2.22573 -0.416516
v -0.321233 2.15739 -0.398692
v -0.318874 2.15763 -0.399112
v -0.226704 2.22287 -0.416374
v -0.237667 2.1659 -0.41355
v -0.237667 2.1659 -0.413549
v -0.226704 2.22287 -0.416374
v -0.231674 2.16534 -0.407325
v -0.231674 2.16534 -0.407325
v -0.318874 2.15763 -0.399112
v -0.237667 2.1659 -0.41355
v -0.215981 2.15867 -0.358433
v -0.218752 2.15314 -0.32519
v -0.219269 2.15211 -0.318984
v -0.321233 2.15739 -0.398692
v -0.358719 2.15358 -0.392028
v -0.215165 2.1603 -0.368221
v -0.21513 2.16037 -0.368644
v -0.21513 2.16037 -0.368644
v -0.214329 2.16196 -0.378256
v -0.237593 2.31649 -0.103898
v -0.213957 2.1627 -0.382716
v -0.217935 2.36541 -0.339957
v -0.239731 2.37237 -0.0796693
v -0.245598 2.52574 -0.0131723
v -0.245914 2.53399 -0.00959373
v -0.246014 2.53661 -0.00845738
v -0.246014 2.53661 -0.00845736
v -0.293634 2.57979 0.0340345
v -0.245914 2.53399 -0.00959367
v -0.246139 2.53986 -0.00704686
v -0.246517 2.54974 -0.00276321
v -0.246528 2.55005 -0.00263195
v -0.246578 2.55135 -0.00206853
v -0.246139 2.53986 -0.00704685
v -0.245598 2.52574 -0.0131724
v -0.436855 2.43552 0.0483975
v -0.437824 2.40858 0.0377531
v -0.239731 2.37237 -0.0796693
v -0.354496 2.59196 0.0705457
v -0.414806 2.57001 0.0926485
v -0.432386 2.55984 0.0975308
v -0.354195 2.59205 0.0704237
v -0.338451 2.59488 0.0634559
v -0.344255 2.59474 0.0663996
v -0.319364 2.59534 0.0537756
v -0.233456 2.52148 -0.158169
v -0.213615 2.16338 -0.386817
v -0.212738 2.20713 -0.398331
v -0.211974 2.25184 -0.408511
v -0.224164 2.23606 -0.417028
v -0.211974 2.25184 -0.408512
v -0.212738 2.20713 -0.398331
v -0.226153 2.22573 -0.416515
v -0.213481 2.16365 -0.388429
v -0.213615 2.16338 -0.386817
v -0.213481 2.16365 -0.388429
v -0.213957 2.1627 -0.382716
v -0.214329 2.16196 -0.378256
v -0.213481 2.16365 -0.388429
v -0.499036 2.13929 -0.367081
v -0.509719 2.1284 -0.303921
v -0.499036 2.13929 -0.367081
v -0.638445 2.3489 -0.317359
v -0.5034 2.6481 -0.1484
v -0.694243 2.45271 -0.149441
v -0.622751 2.53885 -0.0611505
v -0.5034 2.6481 -0.1484
v -0.694243 2.45271 -0.149441
v -0.5034 2.6481 -0.1484
v -0.622751 2.53885 -0.0611505
v -0.563548 2.55348 -0.00883225
v -0.5034 2.6481 -0.1484
v -0.622751 2.53885 -0.0611505
v -0.694243 2.45271 -0.149441
v -0.44217 2.13301 -0.0740312
v -0.442273 2.13316 -0.0739152
v -0.442728 2.13384 -0.0734007
v -0.447448 2.14084 -0.0680606
v -0.657521 2.31424 -0.171094
vt 0.286413 0.594355
vt 0.277406 0.592227
vt 0.283648 0.591707
vt 0.277406 0.592227
vt 0.286413 0.594355
vt 0.264839 0.592832
vt -0.459675 -2.34246
vt -0.347931 -2.23944
vt -0.366635 -2.39969
vt -0.35462 -2.22498
vt -0.484477 -2.29638
vt -0.35753 -2.2187
vt -0.495499 -2.2759
vt -0.40434 -2.11755
vt -0.510738 -2.09099
vt -0.445875 -2.08714
vt -0.419144 -2.08556
vt 0.0371837 -1.87911
vt 0.225526 -1.80008
vt 0.0521687 -1.91101
vt 0.203869 -1.80731
vt 0.224434 -1.79845
vt 1.87736 -0.320618
vt 1.8776 -0.33054
vt 1.87613 -0.329233
vt 1.88524 -0.337342
vt 0.231207 -1.80859
vt 0.217469 -1.94033
vt 0.0995493 -2.01189
vt 0.102494 -2.01817
vt 0.109265 -2.03258
vt 0.129366 -2.07538
vt -0.328072 -2.28235
vt -0.317501 -2.42284
vt -0.309465 -2.32256
vt 2.30007 -0.621476
vt 2.1821 -0.376434
vt 2.39051 -0.665554
vt 2.18339 -0.473616
vt 2.11966 -0.392861
vt 1.91764 -0.366188
vt 1.98842 -0.137859
vt 1.98157 -0.375165
vt 1.91018 -0.359542
vt 1.95397 -0.13032
vt 1.90946 -0.358902
vt 1.94693 -0.128778
vt 1.90929 -0.358758
vt 1.88227 -0.286015
vt 0.26342 -0.432519
vt 0.28152 -0.448717
vt 0.231822 -0.447455
vt 0.271288 -0.4288
vt 0.364453 -0.610153
vt 0.217394 -0.725871
vt 0.0800396 -0.519201
vt 1.90589 -0.119799
vt 2.15259 0.299587
vt 2.16881 0.14821
vt 2.13029 0.164974
vt 2.17542 0.145333
vt 2.15362 0.305815
vt 2.15915 0.339173
vt 2.20775 0.131258
vt 2.16077 0.348995
vt 2.21009 0.130241
vt 1.99091 -0.138403
vt 2.10478 -0.163321
vt 2.06803 -0.387305
vt 2.08282 -0.389382
vt 2.28097 -0.35042
vt 2.42284 -0.651002
vt 2.26652 -0.35422
vt 2.54899 -0.447018
vt 2.39823 -0.319567
vt 2.42625 -0.312194
vt 2.5556 -0.27816
vt 0.312656 0.622171
vt 0.3065 0.631
vt 0.304265 0.612324
vt 0.311951 0.624178
vt 0.3065 0.631
vt 0.311951 0.624178
vt 0.310428 0.631397
vt 0.310402 0.631437
vt 0.3065 0.631
vt 0.310428 0.631397
vt 0.309547 0.63276
vt 0.308807 0.633298
vt 0.3065 0.631
vt 0.309547 0.63276
vt 0.306374 0.635065
vt 0.306374 0.635065
vt 0.2901 0.6236
vt 0.3065 0.631
vt 0.303564 0.637995
vt 0.29798 0.643499
vt 0.298425 0.643353
vt 2.55096 -0.0143844
vt 2.55182 -0.0185016
vt 2.55052 -0.0179363
vt 2.55022 -0.0178045
vt 2.5447 0.0154953
vt 0.294756 0.644553
vt 0.277363 0.644993
vt 0.2901 0.6236
vt 0.277363 0.644993
vt 0.248112 0.639015
vt 0.248112 0.639015
vt 0.259772 0.593924
vt 0.2901 0.6236
vt 0.25752 0.594409
vt 0.236014 0.633499
vt 0.234904 0.631331
vt 0.234904 0.631331
vt 0.23751 0.610601
vt 0.25752 0.594409
vt 0.237112 0.611606
vt 0.234416 0.630478
vt 0.235402 0.615922
vt 0.235294 0.616194
vt 0.234281 0.630242
vt 0.231589 0.625544
vt 2.15504 0.461443
vt 2.21284 0.455765
vt 2.15447 0.452803
vt 0.0812652 -0.744509
vt 0.168693 -0.73518
vt 0.0872735 -0.750743
vt 0.0655311 -0.695176
vt 0.0683094 -0.661478
vt 0.0688281 -0.655186
vt 0.171059 -0.734728
vt 0.208642 -0.727544
vt 0.064713 -0.705098
vt 0.0646776 -0.705527
vt 2.16084 0.34942
vt 2.16244 0.359065
vt 2.31697 0.0837218
vt 2.16318 0.36354
vt 2.36589 0.320598
vt 2.37285 0.0593995
vt 2.52621 -0.00735509
vt 2.53447 -0.0109476
vt 2.53709 -0.0120883
vt 2.3393 -0.21464
vt 2.3853 -0.276457
vt 2.3365 -0.214029
vt 2.34276 -0.215399
vt 2.35329 -0.217702
vt 2.35361 -0.217772
vt 2.355 -0.218076
vt 2.54034 -0.0135043
vt 2.32771 -0.212105
vt 2.23159 -0.410273
vt 2.20289 -0.406243
vt 2.16431 -0.176349
vt 2.39827 -0.34729
vt 2.37488 -0.411013
vt 2.36404 -0.428872
vt 2.39836 -0.346966
vt 2.40138 -0.32978
vt 2.40123 -0.336289
vt 2.40187 -0.30838
vt 2.52195 0.138149
vt 2.16386 0.367655
vt 2.20761 0.379202
vt 2.25232 0.389411
vt 2.22623 0.454449
vt 2.24224 0.439829
vt 2.19688 0.433109
vt 2.21574 0.45548
vt 2.15276 0.426574
vt 0.0631588 -0.723948
vt 0.0630241 -0.725583
vt 0.0635016 -0.719791
vt 0.0638743 -0.715271
vt 2.16413 0.369273
vt 0.243514 0.595451
vt 0.360039 -0.636564
vt 0.349327 -0.700652
vt 0.264839 0.592832
vt 0.2901 0.6236
vt 0.288396 0.596337
vt 0.29829 0.607615
vt 0.2901 0.6236
vt 0.288396 0.596337
vt 0.2901 0.6236
vt 0.29829 0.607615
vt 0.304265 0.612324
vt 0.2901 0.6236
vt 2.53377 -0.525914
vt 2.44415 -0.636792
vt 0.249095 -1.83537
vt 0.249216 -1.83555
vt 0.249751 -1.83635
vt 0.255302 -1.84466
vt 0.1482 -2.11548
vn -0.795144 0.393758 -0.461195
vn -0.793508 0.393047 -0.464606
vn -0.794746 0.393585 -0.462028
vn -0.592767 0.581949 -0.556744
vn -0.592767 0.581949 -0.556744
vn -0.592767 0.581949 -0.556744
vn -0.834831 -0.501223 -0.227668
vn -0.834831 -0.501223 -0.227668
vn -0.834831 -0.501223 -0.227668
vn -0.834831 -0.501223 -0.227668
vn -0.834831 -0.501223 -0.227668
vn -0.834831 -0.501223 -0.227668
vn -0.834831 -0.501223 -0.227668
vn -0.834831 -0.501223 -0.227668
vn -0.834831 -0.501223 -0.227668
vn -0.834831 -0.501223 -0.227668
vn -0.834831 -0.501223 -0.227668
vn -0.688491 -0.671901 0.273001
vn -0.688491 -0.671901 0.273001
vn -0.688491 -0.671901 0.273001
vn -0.688491 -0.671901 0.273001
vn -0.688491 -0.671901 0.273001
vn 0.431136 -0.344995 0.833727
vn 0.431136 -0.344995 0.833727
vn 0.431136 -0.344995 0.833727
vn 0.431136 -0.344995 0.833727
vn -0.688491 -0.671901 0.273001
vn -0.688491 -0.671901 0.273001
vn -0.688491 -0.671901 0.273001
vn -0.688491 -0.671901 0.273001
vn -0.688491 -0.671901 0.273001
vn -0.688491 -0.671901 0.273001
vn -0.834831 -0.501223 -0.227668
vn -0.834831 -0.501223 -0.227668
vn -0.834831 -0.501223 -0.227668
vn -0.597253 -0.276132 0.75302
vn -0.597253 -0.276132 0.75302
vn -0.597253 -0.276132 0.75302
vn -0.597253 -0.276132 0.75302
vn -0.597253 -0.276132 0.75302
vn 0.431136 -0.344995 0.833727
vn 0.431136 -0.344995 0.833727
vn 0.431136 -0.344995 0.833727
vn 0.431136 -0.344995 0.833727
vn 0.431136 -0.344995 0.833727
vn 0.431136 -0.344995 0.833727
vn 0.431136 -0.344995 0.833727
vn 0.431136 -0.344995 0.833727
vn 0.431136 -0.344995 0.833727
vn 0.0722389 -0.984846 -0.157671
vn 0.0722389 -0.984846 -0.157671
vn 0.0722389 -0.984846 -0.157671
vn 0.0722389 -0.984846 -0.157671
vn 0.0722389 -0.984846 -0.157671
vn 0.0722389 -0.984846 -0.157671
vn 0.0722389 -0.984846 -0.157671
vn 0.431136 -0.344995 0.833727
vn 0.996515 0.00196505 0.0833942
vn 0.996515 0.00196505 0.0833942
vn 0.996515 0.00196505 0.0833942
vn 0.996515 0.00196505 0.0833942
vn 0.996515 0.00196505 0.0833942
vn 0.996515 0.00196505 0.0833942
vn 0.996515 0.00196505 0.0833942
vn 0.996515 0.00196505 0.0833942
vn 0.996515 0.00196505 0.0833942
vn 0.431136 -0.344995 0.833727
vn 0.431136 -0.344995 0.833727
vn 0.431136 -0.344995 0.833727
vn 0.431136 -0.344995 0.833727
vn -0.597253 -0.276132 0.75302
vn -0.597253 -0.276132 0.75302
vn -0.597253 -0.276132 0.75302
vn -0.597253 -0.276132 0.75302
vn -0.597253 -0.276132 0.75302
vn -0.597253 -0.276132 0.75302
vn -0.597253 -0.276132 0.75302
vn -0.370281 0.835178 0.406657
vn -0.370281 0.835178 0.406657
vn -0.370281 0.835178 0.406657
vn -0.370281 0.835178 0.406657
vn -0.0342147 0.754193 0.655761
vn -0.0342147 0.754193 0.655761
vn -0.0342147 0.754193 0.655761
vn 0.0478016 0.771188 0.63481
vn 0.0478016 0.771188 0.63481
vn 0.0478016 0.771188 0.63481
vn 0.0478016 0.771188 0.63481
vn 0.237529 0.828179 0.507641
vn 0.237529 0.828179 0.507641
vn 0.237529 0.828179 0.507641
vn 0.237529 0.828179 0.507641
vn 0.422964 0.893403 -0.151434
vn 0.420119 0.896253 -0.142234
vn 0.423175 0.893186 -0.152123
vn 0.422251 0.89413 -0.149116
vn 0.42084 0.895543 -0.144554
vn 0.420939 0.895445 -0.144873
vn 0.996515 0.00196505 0.0833942
vn 0.996515 0.00196505 0.0833942
vn 0.996515 0.00196505 0.0833942
vn 0.996515 0.00196505 0.0833942
vn 0.996515 0.00196505 0.0833942
vn 0.420119 0.896253 -0.142234
vn 0.418846 0.897487 -0.138153
vn 0.321549 0.731845 -0.600841
vn 0.321549 0.731845 -0.600841
vn 0.321549 0.731845 -0.600841
vn -0.066128 0.51311 -0.855772
vn -0.066128 0.51311 -0.855772
vn -0.066128 0.51311 -0.855772
vn -0.066128 0.51311 -0.855772
vn -0.066128 0.51311 -0.855772
vn -0.066128 0.51311 -0.855772
vn -0.173499 -0.0154317 -0.984713
vn -0.173499 -0.0154317 -0.984713
vn -0.173499 -0.0154317 -0.984713
vn -0.173499 -0.0154317 -0.984713
vn -0.173499 -0.0154317 -0.984713
vn -0.173499 -0.0154317 -0.984713
vn -0.173499 -0.0154317 -0.984713
vn -0.173499 -0.0154317 -0.984713
vn -0.173499 -0.0154317 -0.984713
vn 0.702339 -0.169445 -0.691381
vn 0.702339 -0.169445 -0.691381
vn 0.702339 -0.169445 -0.691381
vn 0.0722389 -0.984846 -0.157671
vn 0.0722389 -0.984846 -0.157671
vn 0.0722389 -0.984846 -0.157671
vn 0.0722389 -0.984846 -0.157671
vn 0.0722389 -0.984846 -0.157671
vn 0.0722389 -0.984846 -0.157671
vn 0.0722389 -0.984846 -0.157671
vn 0.0722389 -0.984846 -0.157671
vn 0.0722389 -0.984846 -0.157671
vn 0.0722389 -0.984846 -0.157671
vn 0.996515 0.00196505 0.0833942
vn 0.996515 0.00196505 0.0833942
vn 0.996515 0.00196505 0.0833942
vn 0.996515 0.00196505 0.0833942
vn 0.996515 0.00196505 0.0833942
vn 0.996515 0.00196505 0.0833942
vn 0.996515 0.00196505 0.0833942
vn 0.996515 0.00196505 0.0833942
vn 0.996515 0.00196505 0.0833942
vn 0.431136 -0.344995 0.833727
vn 0.431136 -0.344995 0.833727
vn 0.431136 -0.344995 0.833727
vn 0.431136 -0.344995 0.833727
vn 0.431136 -0.344995 0.833727
vn 0.431136 -0.344995 0.833727
vn 0.431136 -0.344995 0.833727
vn 0.996515 0.00196505 0.0833942
vn 0.431136 -0.344995 0.833727
vn 0.431136 -0.344995 0.833727
vn 0.431136 -0.344995 0.833727
vn 0.431136 -0.344995 0.833727
vn 0.431136 -0.344995 0.833727
vn 0.431136 -0.344995 0.833727
vn 0.431136 -0.344995 0.833727
vn 0.431136 -0.344995 0.833727
vn 0.431136 -0.344995 0.833727
vn 0.431136 -0.344995 0.833727
vn 0.431136 -0.344995 0.833727
vn 0.996515 0.00196505 0.0833942
vn 0.996515 0.00196505 0.0833942
vn 0.996515 0.00196505 0.0833942
vn 0.996515 0.00196505 0.0833942
vn 0.702339 -0.169445 -0.691381
vn 0.702339 -0.169445 -0.691381
vn 0.702339 -0.169445 -0.691381
vn 0.702339 -0.169445 -0.691381
vn 0.702339 -0.169445 -0.691381
vn 0.0722389 -0.984846 -0.157671
vn 0.0722389 -0.984846 -0.157671
vn 0.0722389 -0.984846 -0.157671
vn 0.0722389 -0.984846 -0.157671
vn 0.996515 0.00196505 0.0833942
vn -0.173499 -0.0154317 -0.984713
vn 0.0722389 -0.984846 -0.157671
vn 0.0722389 -0.984846 -0.157671
vn -0.066128 0.51311 -0.855772
vn -0.592767 0.581949 -0.556744
vn -0.592767 0.581949 -0.556744
vn -0.711341 0.695344 -0.102421
vn -0.711341 0.695344 -0.102421
vn -0.711341 0.695344 -0.102421
vn -0.492682 0.804055 0.332807
vn -0.492682 0.804055 0.332807
vn -0.492682 0.804055 0.332807
vn -0.370281 0.835178 0.406657
vn -0.597253 -0.276132 0.75302
vn -0.597253 -0.276132 0.75302
vn -0.688491 -0.671901 0.273001
vn -0.688491 -0.671901 0.273001
vn -0.688491 -0.671901 0.273001
vn -0.688491 -0.671901 0.273001
vn -0.688491 -0.671901 0.273001
f 1/1/1 2/2/2 3/3/3 
f 4/4/4 5/5/5 6/6/6 
f 7/7/7 8/8/8 9/9/9 
f 7/7/7 10/10/10 8/8/8 
f 11/11/11 10/10/10 7/7/7 
f 11/11/11 12/12/12 10/10/10 
f 13/13/13 12/12/12 11/11/11 
f 13/13/13 14/14/14 12/12/12 
f 15/15/15 14/14/14 13/13/13 
f 16/16/16 14/14/14 15/15/15 
f 14/14/14 16/16/16 17/17/17 
f 18/18/18 19/19/19 20/20/20 
f 21/21/21 19/19/19 18/18/18 
f 22/22/22 19/19/19 21/21/21 
f 23/23/23 24/24/24 25/25/25 
f 24/24/24 23/23/23 26/26/26 
f 27/27/27 20/20/20 19/19/19 
f 20/20/20 27/27/27 28/28/28 
f 20/20/20 28/28/28 29/29/29 
f 29/29/29 28/28/28 30/30/30 
f 30/30/30 28/28/28 31/31/31 
f 31/31/31 28/28/28 32/32/32 
f 9/9/9 8/8/8 33/33/33 
f 9/9/9 33/33/33 34/34/34 
f 34/34/34 33/33/33 35/35/35 
f 36/36/36 37/37/37 38/38/38 
f 39/39/39 37/37/37 36/36/36 
f 37/37/37 39/39/39 40/40/40 
f 41/41/41 42/42/42 43/43/43 
f 44/44/44 42/42/42 41/41/41 
f 44/44/44 45/45/45 42/42/42 
f 46/46/46 45/45/45 44/44/44 
f 46/46/46 47/47/47 45/45/45 
f 48/48/48 47/47/47 46/46/46 
f 26/26/26 47/47/47 48/48/48 
f 26/26/26 49/49/49 47/47/47 
f 26/26/26 23/23/23 49/49/49 
f 50/50/50 51/51/51 52/52/52 
f 53/53/53 51/51/51 50/50/50 
f 51/51/51 54/54/54 52/52/52 
f 52/52/52 54/54/54 55/55/55 
f 52/52/52 55/55/55 56/56/56 
f 47/47/47 49/49/49 57/57/57 
f 58/58/58 59/59/59 60/60/60 
f 58/58/58 61/61/61 59/59/59 
f 62/62/62 61/61/61 58/58/58 
f 63/63/63 61/61/61 62/62/62 
f 61/61/61 63/63/63 64/64/64 
f 64/64/64 63/63/63 65/65/65 
f 64/64/64 65/65/65 66/66/66 
f 67/67/67 43/43/43 42/42/42 
f 68/68/68 43/43/43 67/67/67 
f 68/68/68 69/69/69 43/43/43 
f 69/69/69 68/68/68 70/70/70 
f 71/71/71 72/72/72 73/73/73 
f 71/71/71 74/74/74 72/72/72 
f 75/75/75 74/74/74 71/71/71 
f 74/74/74 75/75/75 76/76/76 
f 74/74/74 76/76/76 77/77/77 
f 78/78/78 79/79/79 80/80/80 
f 81/81/81 79/79/79 78/78/78 
f 82/82/82 83/83/83 84/84/84 
f 85/85/85 86/86/86 87/87/87 
f 86/86/86 85/85/85 88/88/88 
f 89/89/89 90/90/90 91/91/91 
f 92/92/92 90/90/90 89/89/89 
f 93/93/93 94/94/94 95/95/95 
f 96/96/96 94/94/94 93/93/93 
f 96/96/96 97/97/97 94/94/94 
f 98/98/98 97/97/97 96/96/96 
f 99/99/99 100/100/100 101/101/101 
f 99/99/99 101/101/101 102/102/102 
f 99/99/99 102/102/102 103/103/103 
f 104/104/104 94/94/94 97/97/97 
f 94/94/94 104/104/104 105/105/105 
f 106/106/106 107/107/107 108/108/108 
f 109/109/109 110/110/110 111/111/111 
f 109/109/109 112/112/112 110/110/110 
f 113/113/113 112/112/112 109/109/109 
f 114/114/114 112/112/112 113/113/113 
f 115/115/115 116/116/116 117/117/117 
f 115/115/115 118/118/118 116/116/116 
f 119/119/119 118/118/118 115/115/115 
f 119/119/119 120/120/120 118/118/118 
f 119/119/119 121/121/121 120/120/120 
f 122/122/122 121/121/121 119/119/119 
f 122/122/122 123/123/123 121/121/121 
f 124/124/124 125/125/125 126/126/126 
f 127/127/127 128/128/128 129/129/129 
f 128/128/128 127/127/127 130/130/130 
f 128/128/128 130/130/130 131/131/131 
f 128/128/128 131/131/131 132/132/132 
f 128/128/128 132/132/132 56/56/56 
f 56/56/56 133/133/133 128/128/128 
f 56/56/56 134/134/134 133/133/133 
f 56/56/56 55/55/55 134/134/134 
f 130/130/130 127/127/127 135/135/135 
f 135/135/135 127/127/127 136/136/136 
f 66/66/66 65/65/65 137/137/137 
f 66/66/66 137/137/137 138/138/138 
f 66/66/66 138/138/138 139/139/139 
f 139/139/139 138/138/138 140/140/140 
f 139/139/139 140/140/140 141/141/141 
f 141/141/141 142/142/142 139/139/139 
f 141/141/141 143/143/143 142/142/142 
f 103/103/103 143/143/143 141/141/141 
f 103/103/103 144/144/144 143/143/143 
f 144/144/144 103/103/103 145/145/145 
f 146/146/146 147/147/147 148/148/148 
f 149/149/149 147/147/147 146/146/146 
f 150/150/150 147/147/147 149/149/149 
f 151/151/151 147/147/147 150/150/150 
f 152/152/152 147/147/147 151/151/151 
f 103/103/103 102/102/102 153/153/153 
f 145/145/145 103/103/103 153/153/153 
f 148/148/148 147/147/147 154/154/154 
f 155/155/155 154/154/154 147/147/147 
f 156/156/156 154/154/154 155/155/155 
f 157/157/157 154/154/154 156/156/156 
f 157/157/157 156/156/156 70/70/70 
f 68/68/68 157/157/157 70/70/70 
f 158/158/158 155/155/155 147/147/147 
f 158/158/158 159/159/159 155/155/155 
f 159/159/159 160/160/160 155/155/155 
f 147/147/147 161/161/161 158/158/158 
f 162/162/162 161/161/161 147/147/147 
f 162/162/162 163/163/163 161/161/161 
f 147/147/147 164/164/164 162/162/162 
f 165/165/165 103/103/103 141/141/141 
f 141/141/141 140/140/140 166/166/166 
f 141/141/141 166/166/166 167/167/167 
f 168/168/168 141/141/141 167/167/167 
f 169/169/169 170/170/170 171/171/171 
f 172/172/172 169/169/169 171/171/171 
f 125/125/125 172/172/172 171/171/171 
f 126/126/126 125/125/125 171/171/171 
f 126/126/126 171/171/171 173/173/173 
f 174/174/174 127/127/127 175/175/175 
f 176/176/176 127/127/127 174/174/174 
f 177/177/177 127/127/127 176/176/176 
f 136/136/136 127/127/127 177/177/177 
f 167/167/167 166/166/166 178/178/178 
f 117/117/117 116/116/116 179/179/179 
f 180/180/180 181/181/181 55/55/55 
f 54/54/54 180/180/180 55/55/55 
f 111/111/111 110/110/110 182/182/182 
f 6/6/6 5/5/5 183/183/183 
f 183/183/183 5/5/5 184/184/184 
f 185/185/185 186/186/186 187/187/187 
f 188/188/188 189/189/189 190/190/190 
f 80/80/80 79/79/79 191/191/191 
f 74/74/74 192/192/192 193/193/193 
f 72/72/72 74/74/74 193/193/193 
f 73/73/73 72/72/72 38/38/38 
f 73/73/73 38/38/38 37/37/37 
f 27/27/27 194/194/194 28/28/28 
f 194/194/194 195/195/195 28/28/28 
f 195/195/195 196/196/196 28/28/28 
f 196/196/196 197/197/197 28/28/28 
f 32/32/32 28/28/28 198/198/198 
