v -0.387593 -0.773004 -0.738421
v -0.697552 -0.818196 -0.680461
v -0.3866 -0.772952 -0.738327
v -0.672665 -0.787789 -0.765504
v -0.718699 -0.803557 -0.729709
v -0.386571 -0.772951 -0.738324
v -0.386557 -0.77295 -0.738323
v -0.697527 -0.818214 -0.680403
v -0.334819 -0.770267 -0.733408
v -0.200703 -0.771479 -0.696147
v -0.193924 -0.77154 -0.694264
v -0.076529 -0.782531 -0.695951
v -0.200703 -0.771478 -0.696147
v -0.193924 -0.77154 -0.694264
v -0.25474 -0.778454 -0.736941
v -0.277453 -0.776132 -0.735939
v -0.334818 -0.770266 -0.733408
v -0.076529 -0.782531 -0.695951
v -0.292323 -0.785004 -0.744665
v -0.254741 -0.778454 -0.736941
v 0.00324434 -1.11795 -0.636173
v -0.30865 -0.787849 -0.74802
v -0.324762 -0.790657 -0.751332
v -0.486764 -1.16941 -0.741094
v -0.325602 -0.790804 -0.751504
v -0.348643 -0.794819 -0.75624
v -0.394362 -0.802787 -0.765636
v -0.67627 -0.944185 -0.812114
v -0.633445 -0.844454 -0.814772
v -0.633532 -0.844469 -0.81479
v -0.635816 -0.844867 -0.815259
v -0.684489 -0.90491 -0.818859
v -0.694486 -0.922535 -0.818941
v -0.67627 -0.944185 -0.812114
v -0.702564 -0.91397 -0.806391
v -0.694486 -0.922535 -0.818941
v -0.73175 -0.883026 -0.761049
v -0.734079 -0.882265 -0.731729
v -0.737755 -0.876659 -0.75172
v -0.740309 -0.873951 -0.747751
v -0.740309 -0.873951 -0.747751
v -0.734079 -0.882265 -0.731729
v -0.733162 -0.85067 -0.741784
v -0.740309 -0.873951 -0.747751
v -0.733162 -0.85067 -0.741784
v -0.737755 -0.87666 -0.75172
v -0.73175 -0.883026 -0.761049
v -0.652035 -0.847694 -0.818592
v -0.684489 -0.90491 -0.818859
v -0.702564 -0.91397 -0.806391
v -0.694486 -0.922535 -0.818941
v -0.652035 -0.847694 -0.818593
v -0.718699 -0.803557 -0.729709
v -0.697527 -0.818214 -0.680403
v -0.718699 -0.803557 -0.729709
v -0.714778 -0.908024 -0.68209
v -0.692684 -0.821567 -0.669124
v -0.692684 -0.821567 -0.669124
v -0.11436 -0.772259 -0.672159
v -0.11436 -0.772259 -0.672159
v -0.0211239 -0.773101 -0.646256
v 0.0229919 -0.784809 -0.673061
v -0.0191895 -0.773119 -0.645718
v 0.0154854 -0.77461 -0.640153
v 0.0154854 -0.77461 -0.640153
v -0.0921375 -0.924615 -0.209226
v 0.0229919 -0.784809 -0.673061
v 0.0146127 -0.773425 -0.636327
v 0.0146128 -0.773424 -0.636327
v -0.530955 -0.933527 -0.292483
v -0.0921373 -0.924615 -0.209226
v -0.0191896 -0.773119 -0.645718
v -0.538611 -0.928227 -0.310312
v -0.0211239 -0.773102 -0.646256
v -0.694132 -0.935578 -0.628992
v -0.538611 -0.928227 -0.310312
v -0.714778 -0.908024 -0.682091
v -0.486764 -1.16941 -0.741094
v -0.694132 -0.935578 -0.628992
v -0.154023 -1.57826 -0.415007
v -0.155218 -1.57711 -0.411446
v -0.544784 -1.13489 -0.2449
v -0.15782 -1.57459 -0.403694
v -0.531257 -1.15295 -0.21011
v -0.15828 -1.57415 -0.402322
v -0.15828 -1.57415 -0.402322
v -0.511753 -1.09215 -0.192793
v -0.531257 -1.15295 -0.21011
v -0.156492 -1.57401 -0.402531
v -0.0746145 -1.35688 -0.342421
v -0.142629 -1.57297 -0.404157
v -0.0688546 -1.47824 -0.383342
v -0.0688548 -1.47824 -0.383342
v -0.0115197 -1.36702 -0.608594
v -0.0746147 -1.35688 -0.342421
v -0.0167755 -1.45569 -0.598776
v -0.0585518 -1.53644 -0.434611
v -0.0329033 -1.52295 -0.540381
v -0.028673 -1.52073 -0.557826
v -0.0200076 -1.51021 -0.592739
v -0.0217924 -1.51711 -0.586201
v -0.0200075 -1.51021 -0.592739
v -0.0217922 -1.51711 -0.586201
v -0.0444764 -1.52719 -0.596189
v -0.0444771 -1.52719 -0.596189
v -0.0167755 -1.45569 -0.598776
v -0.0200076 -1.51021 -0.592739
v -0.0721351 -1.53961 -0.600929
v -0.12105 -1.56158 -0.609312
v -0.0115197 -1.36702 -0.608594
v -0.131324 -1.5662 -0.611072
v -0.146984 -1.57323 -0.613756
v -0.146984 -1.57323 -0.613756
v -0.152084 -1.57857 -0.444337
v -0.152863 -1.57938 -0.418465
v -0.154023 -1.57826 -0.415007
v -0.152863 -1.57938 -0.418465
v -0.138643 -1.57317 -0.406005
v -0.142629 -1.57297 -0.404157
v -0.137254 -1.57256 -0.404788
v -0.137253 -1.57256 -0.404788
v -0.136448 -1.5722 -0.404782
v -0.0857203 -1.54927 -0.404415
v -0.0665706 -1.54061 -0.404277
v -0.0659085 -1.54031 -0.404272
v -0.0659087 -1.54031 -0.404272
v -0.0600986 -1.53725 -0.428232
v -0.0857204 -1.54927 -0.404415
v -0.0585519 -1.53644 -0.434611
v -0.0600987 -1.53725 -0.428232
v -0.152084 -1.57857 -0.444337
v -0.0329034 -1.52295 -0.540381
v -0.12105 -1.56158 -0.609312
v -0.0721352 -1.53961 -0.600929
v -0.0286731 -1.52073 -0.557826
v -0.0444773 -1.52719 -0.596189
v -0.0217924 -1.51711 -0.586201
v -0.131324 -1.5662 -0.611072
v -0.146984 -1.57323 -0.613756
v -0.136448 -1.5722 -0.404782
v -0.138643 -1.57317 -0.406005
v -0.152863 -1.57938 -0.418465
v -0.137254 -1.57256 -0.404788
v -0.0665707 -1.54061 -0.404277
v -0.0659086 -1.54031 -0.404272
v -0.155218 -1.57711 -0.411446
v -0.156492 -1.57401 -0.402531
v -0.15782 -1.57459 -0.403694
v -0.15828 -1.57415 -0.402322
v -0.00824097 -1.31171 -0.614718
v -0.00824097 -1.31171 -0.614719
v -0.00408283 -1.24156 -0.622486
v 0.00324434 -1.11795 -0.636173
v 0.0229919 -0.784809 -0.673061
v -0.00408286 -1.24156 -0.622486
v -0.0949426 -0.928588 -0.198003
v -0.48938 -0.962308 -0.195661
v -0.0949425 -0.928588 -0.198003
v -0.48938 -0.962308 -0.195661
v -0.530955 -0.933527 -0.292483
v -0.511753 -1.09215 -0.192793
v -0.48783 -0.963381 -0.19205
v -0.48783 -0.963381 -0.19205
v -0.473604 -0.97323 -0.15892
v -0.0949426 -0.928588 -0.198003
v -0.473604 -0.97323 -0.15892
v -0.473604 -0.973229 -0.15892
v -0.544784 -1.13489 -0.2449
v -0.531257 -1.15295 -0.21011
v 0.0146128 -0.773424 -0.636327
vt 0.46274 0.456269
vt 0.77367 0.386997
vt 0.461744 0.456196
vt 0.748705 0.477291
vt 0.794884 0.438348
vt 0.461715 0.456194
vt 0.461701 0.456193
vt 0.773646 0.386937
vt 0.4098 0.452378
vt 0.275264 0.416644
vt 0.268464 0.414838
vt 0.0284587 0.886109
vt 0.15309 0.883223
vt 0.146287 0.881432
vt 0.207327 0.924348
vt 0.230123 0.92274
vt 0.2877 0.918677
vt -0.697299 0.228795
vt -0.699789 0.450018
vt -0.693191 0.411659
vt -1.03517 0.137761
vt -0.702655 0.466682
vt -0.705483 0.483128
vt -1.087 0.638838
vt -0.705631 0.483985
vt -0.709676 0.507503
vt -0.717702 0.554168
vt -0.860133 0.839368
vt -0.759674 0.798196
vt -0.759689 0.798284
vt -0.76009 0.800615
vt -0.820571 0.848876
vt -0.838325 0.858643
vt -0.762497 0.275284
vt -0.756768 0.235231
vt -0.769331 0.246992
vt -0.711384 0.19274
vt -0.682036 0.190645
vt -0.702046 0.183998
vt -0.698074 0.180278
vt -0.917717 -0.995524
vt -0.926143 -0.978387
vt -0.894122 -0.98704
vt -1.20088 0.0123568
vt -1.17583 0.0113672
vt -1.20379 0.00776149
vt -1.21065 -0.00304037
vt -1.17262 -0.100345
vt -1.2342 -0.0772014
vt -1.24395 -0.0555405
vt -1.25317 -0.0700721
vt -0.762937 0.81717
vt -1.12513 0.00936446
vt -0.861229 -0.916266
vt -0.846375 -0.969871
vt -0.952249 -0.925298
vt -0.864627 -0.904003
vt 0.768787 0.375176
vt 0.188651 0.393638
vt 0.066429 0.860398
vt -0.0271506 0.835751
vt -0.071429 0.864755
vt -0.0290921 0.83524
vt -0.0638948 0.830309
vt -0.778477 0.626306
vt -0.928559 0.182169
vt -0.788681 0.660058
vt -0.777291 0.622382
vt 0.0592739 0.359275
vt 0.606552 -0.0175447
vt 0.166359 -0.0937172
vt 0.0931821 0.368281
vt 0.614232 0.00104595
vt 0.0951226 0.368797
vt -0.980174 -0.868508
vt -0.972724 -0.513906
vt -0.632352 0.22276
vt -0.691411 0.569612
vt -0.579203 0.257114
vt -0.365017 1.09656
vt -0.361452 1.09491
vt -0.194751 0.505618
vt -0.353694 1.09131
vt -0.159928 0.528127
vt -0.35232 1.09067
vt 0.171827 -1.62089
vt 0.528506 -1.09749
vt 0.548187 -1.16065
vt 0.170023 -1.62083
vt 0.0874027 -1.3958
vt 0.156034 -1.62035
vt 0.0815905 -1.52387
vt -1.48247 0.356939
vt -1.37119 0.589346
vt -1.36105 0.315798
vt -1.4599 0.578578
vt -1.5407 0.4092
vt -1.5272 0.518035
vt -1.52498 0.535985
vt -1.51446 0.571956
vt -1.52136 0.565182
vt 0.831287 0.51173
vt 0.83339 0.521169
vt 0.860119 0.519952
vt -1.4474 0.17544
vt -1.37537 0.148999
vt -1.4303 0.150814
vt -1.45991 0.20346
vt -1.48204 0.253017
vt -1.28606 0.146049
vt -1.48669 0.263426
vt -1.49378 0.279291
vt -0.563953 1.09734
vt -0.394375 1.09806
vt -0.368478 1.09817
vt 0.30094 -0.929307
vt 0.299773 -0.93294
vt 0.285466 -0.919108
vt 0.289476 -0.917303
vt 0.284068 -0.917757
vt 0.15061 -1.62016
vt 0.149797 -1.61981
vt 0.0986092 -1.59792
vt 0.0792858 -1.58966
vt 0.0786177 -1.58937
vt -1.54457 0.377982
vt -1.54151 0.402637
vt -0.381972 -0.716482
vt -0.412172 -0.686442
vt -0.405793 -0.688187
vt -0.421899 -0.789022
vt -0.517956 -0.657515
vt -0.586896 -0.753748
vt -0.578512 -0.700126
vt -0.535404 -0.652743
vt -0.573771 -0.669806
vt -0.563782 -0.644983
vt -0.588657 -0.765011
vt -0.591341 -0.782178
vt -0.382339 -0.772152
vt -0.383562 -0.774553
vt -0.396024 -0.790067
vt -0.382345 -0.773037
vt -0.381834 -0.695466
vt -0.381829 -0.694739
vt 0.302143 -0.925566
vt 0.303424 -0.916132
vt 0.30476 -0.917423
vt 0.305223 -0.915981
vt -1.23034 0.144208
vt -1.31585 0.596064
vt -1.24567 0.604584
vt -1.12199 0.619596
vt -0.699592 0.126676
vt -1.15968 0.141874
vt -0.932534 0.170601
vt 0.564847 -0.1185
vt 0.169172 -0.105621
vt -1.00726 -0.389259
vt -0.978096 -0.494523
vt -1.13886 -0.39642
vt -1.00835 -0.385333
vt 0.563291 -0.122265
vt 0.54902 -0.15681
vt 0.107915 -0.943821
vt 0.490011 -0.973946
vt -1.01833 -0.349314
vt -1.18218 -0.457712
vt -1.20047 -0.420503
vt -0.063019 0.826304
vn -0.0789836 0.94578 0.315057
vn -0.0789836 0.94578 0.315057
vn -0.0789836 0.94578 0.315057
vn -0.0789836 0.94578 0.315057
vn -0.0789836 0.94578 0.315057
vn -0.0789836 0.94578 0.315057
vn -0.0789836 0.94578 0.315057
vn -0.0789836 0.94578 0.315057
vn -0.0789836 0.94578 0.315057
vn -0.0789836 0.94578 0.315057
vn -0.0789836 0.94578 0.315057
vn 0.0856232 0.95703 -0.277061
vn 0.0856232 0.95703 -0.277061
vn 0.0856232 0.95703 -0.277061
vn 0.0856232 0.95703 -0.277061
vn 0.0856232 0.95703 -0.277061
vn 0.0856232 0.95703 -0.277061
vn 0.219913 -0.120229 -0.968082
vn 0.219913 -0.120229 -0.968082
vn 0.219913 -0.120229 -0.968082
vn 0.219913 -0.120229 -0.968082
vn 0.219913 -0.120229 -0.968082
vn 0.219913 -0.120229 -0.968082
vn 0.219913 -0.120229 -0.968082
vn 0.219913 -0.120229 -0.968082
vn 0.219913 -0.120229 -0.968082
vn 0.219913 -0.120229 -0.968082
vn 0.219913 -0.120229 -0.968082
vn 0.219913 -0.120229 -0.968082
vn 0.219913 -0.120229 -0.968082
vn 0.219913 -0.120229 -0.968082
vn 0.219913 -0.120229 -0.968082
vn 0.219913 -0.120229 -0.968082
vn -0.757689 -0.651178 -0.0433
vn -0.757689 -0.651178 -0.0433
vn -0.757689 -0.651178 -0.0433
vn -0.757689 -0.651178 -0.0433
vn -0.757689 -0.651178 -0.0433
vn -0.757689 -0.651178 -0.0433
vn -0.757689 -0.651178 -0.0433
vn -0.888216 0.16254 0.429713
vn -0.888216 0.16254 0.429713
vn -0.888216 0.16254 0.429713
vn -0.645969 0.369508 -0.667973
vn -0.645969 0.369508 -0.667973
vn -0.645969 0.369508 -0.667973
vn -0.645969 0.369508 -0.667973
vn -0.645969 0.369508 -0.667973
vn -0.645969 0.369508 -0.667973
vn -0.645969 0.369508 -0.667973
vn -0.645969 0.369508 -0.667973
vn 0.219913 -0.120229 -0.968082
vn -0.645969 0.369508 -0.667973
vn -0.888216 0.16254 0.429713
vn -0.888216 0.16254 0.429713
vn -0.888216 0.16254 0.429713
vn -0.888216 0.16254 0.429713
vn -0.0789836 0.94578 0.315057
vn -0.0789836 0.94578 0.315057
vn 0.0856232 0.95703 -0.277061
vn 0.0856232 0.95703 -0.277061
vn 0.0856232 0.95703 -0.277061
vn 0.0856232 0.95703 -0.277061
vn 0.0856232 0.95703 -0.277061
vn 0.972264 -0.031978 0.231689
vn 0.972264 -0.031978 0.231689
vn 0.972264 -0.031978 0.231689
vn 0.972264 -0.031978 0.231689
vn -0.0789836 0.94578 0.315057
vn -0.0789836 0.94578 0.315057
vn -0.0789836 0.94578 0.315057
vn -0.0789836 0.94578 0.315057
vn -0.0789836 0.94578 0.315057
vn -0.0789836 0.94578 0.315057
vn -0.888216 0.16254 0.429713
vn -0.888216 0.16254 0.429713
vn -0.757689 -0.651178 -0.0433
vn -0.757689 -0.651178 -0.0433
vn -0.757689 -0.651178 -0.0433
vn -0.757689 -0.651178 -0.0433
vn -0.757689 -0.651178 -0.0433
vn -0.757689 -0.651178 -0.0433
vn -0.757689 -0.651178 -0.0433
vn -0.757689 -0.651178 -0.0433
vn -0.757689 -0.651178 -0.0433
vn 0.133779 -0.310939 0.940968
vn 0.133779 -0.310939 0.940968
vn 0.133779 -0.310939 0.940968
vn 0.133779 -0.310939 0.940968
vn 0.133779 -0.310939 0.940968
vn 0.133779 -0.310939 0.940968
vn 0.133779 -0.310939 0.940968
vn 0.972264 -0.031978 0.231689
vn 0.972264 -0.031978 0.231689
vn 0.972264 -0.031978 0.231689
vn 0.972264 -0.031978 0.231689
vn 0.972264 -0.031978 0.231689
vn 0.972264 -0.031978 0.231689
vn 0.972264 -0.031978 0.231689
vn 0.972264 -0.031978 0.231689
vn 0.972264 -0.031978 0.231689
vn 0.528926 -0.651869 -0.543419
vn 0.528926 -0.651869 -0.543419
vn 0.528926 -0.651869 -0.543419
vn 0.219913 -0.120229 -0.968082
vn 0.219913 -0.120229 -0.968082
vn 0.219913 -0.120229 -0.968082
vn 0.219913 -0.120229 -0.968082
vn 0.219913 -0.120229 -0.968082
vn 0.219913 -0.120229 -0.968082
vn 0.219913 -0.120229 -0.968082
vn 0.219913 -0.120229 -0.968082
vn -0.757689 -0.651178 -0.0433
vn -0.757689 -0.651178 -0.0433
vn -0.757689 -0.651178 -0.0433
vn 0.11022 -0.934086 0.33961
vn 0.11022 -0.934086 0.33961
vn 0.11022 -0.934086 0.33961
vn 0.11022 -0.934086 0.33961
vn 0.11022 -0.934086 0.33961
vn 0.133779 -0.310939 0.940968
vn 0.133779 -0.310939 0.940968
vn 0.133779 -0.310939 0.940968
vn 0.133779 -0.310939 0.940968
vn 0.133779 -0.310939 0.940968
vn 0.972264 -0.031978 0.231689
vn 0.972264 -0.031978 0.231689
vn 0.411996 -0.91104 -0.0162675
vn 0.411996 -0.91104 -0.0162675
vn 0.411996 -0.91104 -0.0162675
vn 0.411996 -0.91104 -0.0162675
vn 0.411996 -0.91104 -0.0162675
vn 0.411996 -0.91104 -0.0162675
vn 0.411996 -0.91104 -0.0162675
vn 0.411996 -0.91104 -0.0162675
vn 0.411996 -0.91104 -0.0162675
vn 0.411996 -0.91104 -0.0162675
vn 0.411996 -0.91104 -0.0162675
vn 0.411996 -0.91104 -0.0162675
vn 0.411996 -0.91104 -0.0162675
vn 0.411996 -0.91104 -0.0162675
vn 0.411996 -0.91104 -0.0162675
vn 0.411996 -0.91104 -0.0162675
vn 0.411996 -0.91104 -0.0162675
vn 0.411996 -0.91104 -0.0162675
vn 0.11022 -0.934086 0.33961
vn 0.11022 -0.934086 0.33961
vn 0.11022 -0.934086 0.33961
vn 0.11022 -0.934086 0.33961
vn 0.219913 -0.120229 -0.968082
vn 0.972264 -0.031978 0.231689
vn 0.972264 -0.031978 0.231689
vn 0.972264 -0.031978 0.231689
vn 0.219913 -0.120229 -0.968082
vn 0.219913 -0.120229 -0.968082
vn 0.972264 -0.031978 0.231689
vn -0.0789836 0.94578 0.315057
vn -0.0789836 0.94578 0.315057
vn -0.888216 0.16254 0.429713
vn -0.888216 0.16254 0.429713
vn -0.888216 0.16254 0.429713
vn -0.888216 0.16254 0.429713
vn -0.0789836 0.94578 0.315057
vn -0.0789836 0.94578 0.315057
vn 0.133779 -0.310939 0.940968
vn 0.133779 -0.310939 0.940968
vn -0.888216 0.16254 0.429713
vn -0.888216 0.16254 0.429713
vn -0.888216 0.16254 0.429713
vn 0.0856232 0.95703 -0.277061
f 1/1/1 2/2/2 3/3/3 
f 4/4/4 2/2/2 1/1/1 
f 5/5/5 2/2/2 4/4/4 
f 3/3/3 2/2/2 6/6/6 
f 6/6/6 2/2/2 7/7/7 
f 7/7/7 2/2/2 8/8/8 
f 7/7/7 8/8/8 9/9/9 
f 9/9/9 8/8/8 10/10/10 
f 10/10/10 8/8/8 11/11/11 
f 12/12/12 13/13/13 14/14/14 
f 15/15/15 13/13/13 12/12/12 
f 16/16/16 13/13/13 15/15/15 
f 13/13/13 16/16/16 17/17/17 
f 18/18/18 19/19/19 20/20/20 
f 21/21/21 19/19/19 18/18/18 
f 19/19/19 21/21/21 22/22/22 
f 22/22/22 21/21/21 23/23/23 
f 23/23/23 21/21/21 24/24/24 
f 24/24/24 25/25/25 23/23/23 
f 25/25/25 24/24/24 26/26/26 
f 26/26/26 24/24/24 27/27/27 
f 27/27/27 24/24/24 28/28/28 
f 27/27/27 28/28/28 29/29/29 
f 28/28/28 30/30/30 29/29/29 
f 28/28/28 31/31/31 30/30/30 
f 28/28/28 32/32/32 31/31/31 
f 28/28/28 33/33/33 32/32/32 
f 34/34/34 35/35/35 36/36/36 
f 34/34/34 37/37/37 35/35/35 
f 38/38/38 37/37/37 34/34/34 
f 38/38/38 39/39/39 37/37/37 
f 38/38/38 40/40/40 39/39/39 
f 41/41/41 42/42/42 43/43/43 
f 44/44/44 45/45/45 46/46/46 
f 47/47/47 46/46/46 45/45/45 
f 48/48/48 47/47/47 45/45/45 
f 47/47/47 48/48/48 49/49/49 
f 50/50/50 47/47/47 49/49/49 
f 50/50/50 49/49/49 51/51/51 
f 31/31/31 32/32/32 52/52/52 
f 48/48/48 45/45/45 53/53/53 
f 54/54/54 55/55/55 43/43/43 
f 43/43/43 42/42/42 54/54/54 
f 56/56/56 54/54/54 42/42/42 
f 57/57/57 54/54/54 56/56/56 
f 11/11/11 8/8/8 58/58/58 
f 11/11/11 58/58/58 59/59/59 
f 12/12/12 14/14/14 60/60/60 
f 12/12/12 60/60/60 61/61/61 
f 61/61/61 62/62/62 12/12/12 
f 62/62/62 61/61/61 63/63/63 
f 62/62/62 63/63/63 64/64/64 
f 65/65/65 66/66/66 67/67/67 
f 68/68/68 66/66/66 65/65/65 
f 69/69/69 70/70/70 71/71/71 
f 72/72/72 70/70/70 69/69/69 
f 72/72/72 73/73/73 70/70/70 
f 74/74/74 73/73/73 72/72/72 
f 59/59/59 73/73/73 74/74/74 
f 59/59/59 58/58/58 73/73/73 
f 57/57/57 75/75/75 76/76/76 
f 57/57/57 56/56/56 75/75/75 
f 77/77/77 78/78/78 79/79/79 
f 78/78/78 77/77/77 34/34/34 
f 34/34/34 77/77/77 38/38/38 
f 80/80/80 79/79/79 78/78/78 
f 81/81/81 79/79/79 80/80/80 
f 81/81/81 82/82/82 79/79/79 
f 83/83/83 82/82/82 81/81/81 
f 83/83/83 84/84/84 82/82/82 
f 85/85/85 84/84/84 83/83/83 
f 86/86/86 87/87/87 88/88/88 
f 89/89/89 87/87/87 86/86/86 
f 89/89/89 90/90/90 87/87/87 
f 91/91/91 90/90/90 89/89/89 
f 90/90/90 91/91/91 92/92/92 
f 93/93/93 94/94/94 95/95/95 
f 93/93/93 96/96/96 94/94/94 
f 97/97/97 96/96/96 93/93/93 
f 98/98/98 96/96/96 97/97/97 
f 99/99/99 96/96/96 98/98/98 
f 99/99/99 100/100/100 96/96/96 
f 101/101/101 100/100/100 99/99/99 
f 102/102/102 103/103/103 104/104/104 
f 105/105/105 106/106/106 107/107/107 
f 108/108/108 106/106/106 105/105/105 
f 106/106/106 108/108/108 109/109/109 
f 109/109/109 110/110/110 106/106/106 
f 111/111/111 110/110/110 109/109/109 
f 111/111/111 24/24/24 110/110/110 
f 112/112/112 24/24/24 111/111/111 
f 78/78/78 113/113/113 114/114/114 
f 78/78/78 114/114/114 80/80/80 
f 80/80/80 114/114/114 115/115/115 
f 116/116/116 117/117/117 118/118/118 
f 118/118/118 119/119/119 116/116/116 
f 120/120/120 119/119/119 118/118/118 
f 121/121/121 92/92/92 91/91/91 
f 122/122/122 92/92/92 121/121/121 
f 92/92/92 122/122/122 123/123/123 
f 124/124/124 92/92/92 123/123/123 
f 125/125/125 92/92/92 124/124/124 
f 93/93/93 126/126/126 127/127/127 
f 97/97/97 93/93/93 127/127/127 
f 128/128/128 129/129/129 130/130/130 
f 131/131/131 129/129/129 128/128/128 
f 131/131/131 132/132/132 129/129/129 
f 133/133/133 132/132/132 131/131/131 
f 132/132/132 133/133/133 134/134/134 
f 132/132/132 134/134/134 135/135/135 
f 134/134/134 136/136/136 135/135/135 
f 137/137/137 135/135/135 136/136/136 
f 133/133/133 131/131/131 138/138/138 
f 138/138/138 131/131/131 139/139/139 
f 128/128/128 140/140/140 131/131/131 
f 141/141/141 131/131/131 140/140/140 
f 141/141/141 142/142/142 131/131/131 
f 143/143/143 141/141/141 140/140/140 
f 130/130/130 144/144/144 128/128/128 
f 130/130/130 145/145/145 144/144/144 
f 146/146/146 116/116/116 119/119/119 
f 146/146/146 119/119/119 147/147/147 
f 148/148/148 146/146/146 147/147/147 
f 147/147/147 149/149/149 148/148/148 
f 110/110/110 24/24/24 150/150/150 
f 95/95/95 94/94/94 151/151/151 
f 95/95/95 151/151/151 152/152/152 
f 152/152/152 66/66/66 95/95/95 
f 153/153/153 66/66/66 152/152/152 
f 67/67/67 66/66/66 153/153/153 
f 21/21/21 18/18/18 154/154/154 
f 24/24/24 21/21/21 155/155/155 
f 150/150/150 24/24/24 155/155/155 
f 66/66/66 156/156/156 95/95/95 
f 71/71/71 157/157/157 158/158/158 
f 71/71/71 70/70/70 157/157/157 
f 159/159/159 160/160/160 161/161/161 
f 162/162/162 159/159/159 161/161/161 
f 158/158/158 157/157/157 163/163/163 
f 158/158/158 163/163/163 164/164/164 
f 165/165/165 166/166/166 90/90/90 
f 90/90/90 166/166/166 87/87/87 
f 167/167/167 162/162/162 161/161/161 
f 161/161/161 160/160/160 168/168/168 
f 169/169/169 161/161/161 168/168/168 
f 160/160/160 76/76/76 168/168/168 
f 76/76/76 75/75/75 168/168/168 
f 64/64/64 63/63/63 170/170/170 
