v 0.754597 -1.03125 0.837367
v 0.9714 -0.9278 0.8081
v 0.752859 -1.02257 0.841903
v 0.9714 -0.9278 0.8081
v 0.754597 -1.03125 0.837367
v 0.894881 -1.00267 0.77708
v 0.9714 -0.9278 0.8081
v 0.894881 -1.00267 0.77708
v 0.962482 -0.960562 0.737709
v 1.13547 -0.882475 0.666587
v 0.9714 -0.9278 0.8081
v 0.962482 -0.960562 0.737709
v 1.16754 -0.86197 0.668933
v 1.16754 -0.86197 0.668933
v 1.24324 -0.704518 0.707625
v 0.9714 -0.9278 0.8081
v 1.22842 -0.792297 0.660203
v 1.26514 -0.717331 0.677414
v 1.24532 -0.772658 0.657656
v 1.25192 -0.752887 0.65147
v 1.26514 -0.717331 0.677414
v 1.24532 -0.772658 0.657656
v 1.26344 -0.718325 0.640658
v 1.26344 -0.718325 0.640658
v 1.24324 -0.704518 0.707625
v 1.26514 -0.717331 0.677414
v 1.2502 -0.71188 0.633299
v 1.24562 -0.709652 0.630755
v 1.0296 -0.600077 0.597859
v 1.07371 -0.623457 0.584754
v 1.13179 -0.654246 0.567496
v 1.24562 -0.709652 0.630755
v 1.10964 -0.659226 0.561942
v 1.13179 -0.654246 0.567496
v 1.10737 -0.701094 0.579097
v 1.10673 -0.659879 0.561214
v 1.10737 -0.701094 0.579097
v 1.06585 -0.645948 0.567743
v 1.10673 -0.659879 0.561214
v 0.81406 -0.670941 0.656543
v 1.06445 -0.645472 0.567967
v 0.827132 -0.665549 0.650137
v 0.961142 -0.610276 0.584463
v 0.961142 -0.610277 0.584463
v 0.827132 -0.665549 0.650137
v 0.961244 -0.609437 0.58508
v 0.961142 -0.610276 0.584463
v 0.961244 -0.609437 0.585081
v 1.0296 -0.600077 0.597859
v 1.06445 -0.645472 0.567967
v 1.07371 -0.623457 0.584754
v 1.06585 -0.645948 0.567743
v 1.10673 -0.659879 0.561214
v 1.10964 -0.659226 0.561942
v 1.13179 -0.654246 0.567496
v 0.961492 -0.607389 0.586589
v 0.961492 -0.607389 0.586589
v 0.963601 -0.590016 0.599381
v 0.963601 -0.590016 0.599381
v 1.01202 -0.590759 0.603082
v 0.984957 -0.57641 0.611125
v 1.01202 -0.590759 0.603082
v 0.984956 -0.57641 0.611125
v 0.95988 -0.562774 0.625312
v 0.966444 -0.566596 0.616625
v 0.966444 -0.566596 0.616625
v 0.95988 -0.562774 0.625312
v 0.96526 -0.576347 0.609446
v 0.96526 -0.576347 0.609446
v 0.966444 -0.566596 0.616625
v 0.903158 -0.529746 0.700379
v 0.903158 -0.529746 0.700379
v 0.91678 -0.528447 0.8639
v 0.903058 -0.523393 0.824306
v 0.898868 -0.527248 0.706057
v 0.80379 -0.65224 0.680792
v 0.903058 -0.523393 0.824306
v 0.898868 -0.527248 0.706057
v 0.788309 -0.672591 0.676678
v 0.788309 -0.672591 0.676678
v 0.776977 -0.712531 0.686252
v 0.903058 -0.523393 0.824306
v 0.782761 -0.682995 0.672598
v 0.782177 -0.684091 0.672168
v 0.776977 -0.712531 0.686252
v 0.782177 -0.684091 0.672168
v 0.786794 -0.682187 0.669905
v 0.81406 -0.670941 0.656543
v 0.786794 -0.682187 0.669905
v 0.788309 -0.672591 0.676678
v 0.80379 -0.65224 0.680792
v 0.898868 -0.527248 0.706057
v 0.782761 -0.682995 0.672598
v 0.782177 -0.684091 0.672168
v 1.10758 -0.714676 0.584991
v 1.10886 -0.797848 0.62108
v 1.10933 -0.82834 0.634311
v 0.962482 -0.960562 0.737708
v 1.11041 -0.898499 0.664754
v 1.11041 -0.898499 0.664754
v 1.11041 -0.898499 0.664754
v 1.10933 -0.82834 0.634311
v 1.13547 -0.882475 0.666587
v 1.16754 -0.86197 0.668933
v 1.10886 -0.797848 0.62108
v 1.22842 -0.792297 0.660203
v 1.10758 -0.714676 0.584991
v 1.25192 -0.752887 0.65147
v 1.24532 -0.772658 0.657656
v 1.2502 -0.71188 0.633299
v 1.26344 -0.718325 0.640658
v 0.894881 -1.00267 0.77708
v 0.755344 -1.03398 0.833947
v 0.749343 -0.977511 0.811033
v 0.741691 -0.90552 0.781818
v 0.741691 -0.90552 0.781819
v 0.91678 -0.528447 0.8639
v 0.744147 -0.966727 0.84669
v 0.91683 -0.630359 0.961682
v 0.919446 -0.529428 0.871592
v 0.928831 -0.532885 0.89867
v 0.929885 -0.533273 0.901712
v 0.936434 -0.535685 0.92061
v 0.946781 -0.539496 0.950464
v 0.958969 -0.543984 0.985629
v 0.958969 -0.543984 0.985629
v 0.91683 -0.630359 0.961682
v 1.05609 -0.596977 0.927137
v 0.946781 -0.539496 0.950464
v 0.958969 -0.543984 0.985629
v 1.05609 -0.596977 0.927137
v 0.936435 -0.535685 0.92061
v 0.929885 -0.533273 0.901712
v 0.928831 -0.532885 0.89867
v 0.919446 -0.529428 0.871592
v 1.10095 -0.62145 0.900125
v 1.10095 -0.62145 0.900125
v 1.10095 -0.62145 0.900125
v 0.744766 -0.982132 0.863018
v 0.752859 -1.02257 0.841903
v 0.744766 -0.982132 0.863018
v 0.744634 -0.978858 0.859548
v 0.749343 -0.977511 0.811033
v 0.744147 -0.966727 0.84669
v 0.744634 -0.978858 0.859548
v 0.744766 -0.982132 0.863018
v 0.741691 -0.90552 0.781819
v 0.755344 -1.03398 0.833948
v 0.754597 -1.03125 0.837367
v 0.755344 -1.03398 0.833948
vt 0.674951 0.554508
vt 0.6984 0.5716
vt 0.674422 0.555502
vt 0.6984 0.5716
vt 0.674951 0.554508
vt 0.695798 0.56131
vt 0.6984 0.5716
vt 0.695798 0.56131
vt 0.705131 0.565534
vt 0.723814 0.576411
vt 0.6984 0.5716
vt 0.705131 0.565534
vt 0.725664 0.579582
vt 0.725664 0.579582
vt 0.728476 0.598378
vt 0.6984 0.5716
vt 0.73125 0.58792
vt 0.731566 0.596475
vt 0.732147 0.590047
vt 0.733452 0.59194
vt 0.731566 0.596475
vt 0.732147 0.590047
vt 0.735733 0.59525
vt 0.637288 -1.45212
vt 0.704324 -1.42784
vt 0.674081 -1.45317
vt 0.629921 -1.43739
vt 0.627375 -1.4323
vt 0.594445 -1.19009
vt 0.581327 -1.24001
vt 0.564051 -1.30574
vt -1.27793 0.90074
vt -1.1352 0.827284
vt -1.15845 0.824894
vt -1.13282 0.872524
vt -1.13215 0.827597
vt -0.997758 0.87467
vt -0.954602 0.819609
vt -0.997099 0.829743
vt -0.692923 0.878169
vt -0.953147 0.819262
vt -0.706508 0.870658
vt -0.845784 0.793658
vt -0.356309 0.0924767
vt -0.197165 0.0926715
vt -0.35643 0.0914368
vt -1.01751 0.150646
vt -1.01761 0.149604
vt -1.08614 0.134523
vt -1.12107 0.18882
vt -1.13036 0.161142
vt -1.12248 0.189337
vt -1.16347 0.204447
vt -1.16638 0.20349
vt -1.18859 0.196197
vt -1.01786 0.147061
vt -0.356725 0.0888984
vt -0.35923 0.0673659
vt -1.01998 0.125486
vt -1.06852 0.123914
vt -1.04139 0.107577
vt 0.599674 -1.1702
vt 0.607724 -1.13956
vt 0.621926 -1.11103
vt 0.613231 -1.11861
vt -0.362606 0.0383393
vt -0.354811 0.0298314
vt -0.3612 0.0504241
vt -1.02164 0.108512
vt -1.02283 0.0964035
vt -0.28745 -0.0436938
vt 0.69707 -1.04548
vt 0.860758 -1.05699
vt 0.821123 -1.04248
vt 0.702754 -1.04052
vt 0.689591 0.0339078
vt 0.83311 -0.12874
vt 0.714856 -0.123136
vt 0.685477 0.0594773
vt -0.473542 0.918915
vt -0.515884 0.923657
vt -0.315374 1.09837
vt -0.484572 0.913082
vt -0.485734 0.912468
vt -0.654382 0.92819
vt -0.659786 0.896488
vt -0.664585 0.893835
vt -0.181642 0.0926904
vt -0.149262 0.09273
vt -0.151061 0.0810245
vt -0.169445 0.0627831
vt -0.282355 -0.0492548
vt -0.144472 0.0916203
vt -0.143779 0.0927365
vt -0.997975 0.889475
vt -0.999306 0.98014
vt -0.999794 1.01338
vt -0.847177 1.176
vt -1.00092 1.08986
vt 0.722368 0.573933
vt -1.13601 1.08771
vt -1.13487 1.01123
vt -1.16232 1.0737
vt -1.19598 1.05578
vt -1.13438 0.977994
vt -1.25988 0.988302
vt -1.13304 0.887329
vt -1.28454 0.948639
vt -1.27763 0.969248
vt -1.28274 0.903789
vt -1.29664 0.912612
vt -0.77692 1.23038
vt -0.631899 1.28189
vt -0.625662 1.22098
vt -0.617709 1.14331
vt -0.720476 0.999586
vt -0.320731 1.14024
vt -0.785362 1.06083
vt -0.428771 1.2312
vt -0.321772 1.14837
vt -0.325436 1.177
vt -0.325848 1.18022
vt -0.328405 1.2002
vt -0.332445 1.23177
vt -0.337203 1.26895
vt 0.682313 0.616101
vt 0.680939 0.605752
vt 0.695137 0.610667
vt 0.94741 -1.08872
vt 0.982611 -1.10161
vt 0.924059 -1.21222
vt 0.917525 -1.07778
vt 0.898608 -1.07085
vt 0.895563 -1.06974
vt 0.868458 -1.05981
vt 0.89702 -1.2633
vt 0.701059 0.608157
vt 0.701059 0.608157
vt 0.671964 0.56013
vt 0.778406 1.12138
vt 0.799626 1.0802
vt 0.796139 1.07694
vt 0.747381 1.0763
vt 0.783217 1.06487
vt -0.798222 1.07296
vt -0.801693 1.07624
vt 0.718021 1.00396
vt 0.77041 1.13303
vt 0.773846 1.13023
vt 0.675487 0.554225
vn 0.305274 -0.392078 0.867803
vn 0.306597 -0.391686 0.867514
vn 0.305273 -0.392079 0.867804
vn 0.403991 -0.670622 0.622139
vn 0.403991 -0.670622 0.622139
vn 0.403991 -0.670622 0.622139
vn 0.616683 -0.74069 0.266609
vn 0.616683 -0.74069 0.266609
vn 0.616683 -0.74069 0.266609
vn 0.494908 -0.810097 0.314339
vn 0.494908 -0.810097 0.314339
vn 0.494908 -0.810097 0.314339
vn 0.494908 -0.810097 0.314339
vn 0.615399 -0.45257 0.645341
vn 0.616313 -0.45234 0.644629
vn 0.611949 -0.45343 0.648012
vn 0.616313 -0.45234 0.644629
vn 0.617077 -0.452147 0.644034
vn 0.616745 -0.452231 0.644293
vn 0.944776 -0.325858 -0.0348549
vn 0.944776 -0.325858 -0.0348549
vn 0.944776 -0.325858 -0.0348549
vn 0.944776 -0.325858 -0.0348549
vn 0.457381 0.888124 -0.0451579
vn 0.457381 0.888124 -0.0451579
vn 0.457381 0.888124 -0.0451579
vn 0.457381 0.888124 -0.0451579
vn 0.457381 0.888124 -0.0451579
vn 0.457381 0.888124 -0.0451579
vn 0.457381 0.888124 -0.0451579
vn 0.457381 0.888124 -0.0451579
vn 0.303963 -0.37528 -0.875655
vn 0.303963 -0.37528 -0.875655
vn 0.303963 -0.37528 -0.875655
vn 0.303963 -0.37528 -0.875655
vn 0.303963 -0.37528 -0.875655
vn -0.272393 -0.386528 -0.881135
vn -0.272393 -0.386528 -0.881135
vn -0.272393 -0.386528 -0.881135
vn -0.272393 -0.386528 -0.881135
vn -0.272393 -0.386528 -0.881135
vn -0.272393 -0.386528 -0.881135
vn -0.272393 -0.386528 -0.881135
vn -0.539374 0.54076 -0.645487
vn -0.539374 0.54076 -0.645487
vn -0.539374 0.54076 -0.645487
vn 0.0706873 0.585868 -0.807318
vn 0.0706873 0.585868 -0.807318
vn 0.0706873 0.585868 -0.807318
vn 0.0706873 0.585868 -0.807318
vn 0.0706873 0.585868 -0.807318
vn 0.0706873 0.585868 -0.807318
vn 0.0706873 0.585868 -0.807318
vn 0.0706873 0.585868 -0.807318
vn 0.0706873 0.585868 -0.807318
vn 0.0706873 0.585868 -0.807318
vn -0.539374 0.54076 -0.645487
vn -0.539374 0.54076 -0.645487
vn 0.0706873 0.585868 -0.807318
vn 0.0706873 0.585868 -0.807318
vn 0.0706873 0.585868 -0.807318
vn 0.457381 0.888124 -0.0451579
vn 0.457381 0.888124 -0.0451579
vn 0.457381 0.888124 -0.0451579
vn 0.457381 0.888124 -0.0451579
vn -0.539374 0.54076 -0.645487
vn -0.539374 0.54076 -0.645487
vn -0.539374 0.54076 -0.645487
vn 0.0706873 0.585868 -0.807318
vn 0.0706873 0.585868 -0.807318
vn -0.539374 0.54076 -0.645487
vn 0.457381 0.888124 -0.0451579
vn 0.457381 0.888124 -0.0451579
vn 0.457381 0.888124 -0.0451579
vn 0.457381 0.888124 -0.0451579
vn -0.796705 0.604308 0.00852862
vn -0.796705 0.604308 0.00852862
vn -0.796705 0.604308 0.00852862
vn -0.796705 0.604308 0.00852862
vn -0.877362 0.331977 0.346449
vn -0.877362 0.331977 0.346449
vn -0.877362 0.331977 0.346449
vn -0.877362 0.331977 0.346449
vn -0.877362 0.331977 0.346449
vn -0.272393 -0.386528 -0.881135
vn -0.272393 -0.386528 -0.881135
vn -0.272393 -0.386528 -0.881135
vn -0.539374 0.54076 -0.645487
vn -0.539374 0.54076 -0.645487
vn -0.539374 0.54076 -0.645487
vn -0.539374 0.54076 -0.645487
vn -0.539374 0.54076 -0.645487
vn -0.539374 0.54076 -0.645487
vn -0.539374 0.54076 -0.645487
vn -0.272393 -0.386528 -0.881135
vn -0.272393 -0.386528 -0.881135
vn -0.272393 -0.386528 -0.881135
vn -0.272393 -0.386528 -0.881135
vn -0.272393 -0.386528 -0.881135
vn 0.494908 -0.810097 0.314339
vn 0.303963 -0.37528 -0.875655
vn 0.303963 -0.37528 -0.875655
vn 0.303963 -0.37528 -0.875655
vn 0.303963 -0.37528 -0.875655
vn 0.303963 -0.37528 -0.875655
vn 0.303963 -0.37528 -0.875655
vn 0.303963 -0.37528 -0.875655
vn 0.303963 -0.37528 -0.875655
vn 0.303963 -0.37528 -0.875655
vn 0.303963 -0.37528 -0.875655
vn 0.303963 -0.37528 -0.875655
vn -0.272393 -0.386528 -0.881135
vn -0.272393 -0.386528 -0.881135
vn -0.272393 -0.386528 -0.881135
vn -0.272393 -0.386528 -0.881135
vn -0.877362 0.331977 0.346449
vn -0.877362 0.331977 0.346449
vn -0.877362 0.331977 0.346449
vn -0.877362 0.331977 0.346449
vn -0.877362 0.331977 0.346449
vn -0.877362 0.331977 0.346449
vn -0.877362 0.331977 0.346449
vn -0.877362 0.331977 0.346449
vn -0.877362 0.331977 0.346449
vn -0.877362 0.331977 0.346449
vn 0.306826 -0.391618 0.867463
vn 0.306597 -0.391686 0.867514
vn 0.307171 -0.391516 0.867388
vn 0.457381 0.888124 -0.0451579
vn 0.457381 0.888124 -0.0451579
vn 0.457381 0.888124 -0.0451579
vn 0.457381 0.888124 -0.0451579
vn 0.457381 0.888124 -0.0451579
vn 0.457381 0.888124 -0.0451579
vn 0.457381 0.888124 -0.0451579
vn 0.457381 0.888124 -0.0451579
vn 0.613401 -0.45307 0.64689
vn 0.307331 -0.391468 0.867353
vn 0.305269 -0.39208 0.867804
vn -0.984404 -0.145037 -0.0995602
vn -0.984404 -0.145037 -0.0995602
vn -0.984404 -0.145037 -0.0995602
vn -0.984404 -0.145037 -0.0995602
vn -0.984404 -0.145037 -0.0995602
vn -0.877362 0.331977 0.346449
vn -0.877362 0.331977 0.346449
vn -0.984404 -0.145037 -0.0995602
vn -0.984404 -0.145037 -0.0995602
vn -0.984404 -0.145037 -0.0995602
vn 0.403991 -0.670622 0.622139
f 1/1/1 2/2/2 3/3/3 
f 4/4/4 5/5/5 6/6/6 
f 7/7/7 8/8/8 9/9/9 
f 10/10/10 11/11/11 12/12/12 
f 13/13/13 11/11/11 10/10/10 
f 14/14/14 15/15/15 16/16/16 
f 17/17/17 15/15/15 14/14/14 
f 17/17/17 18/18/18 15/15/15 
f 19/19/19 18/18/18 17/17/17 
f 20/20/20 21/21/21 22/22/22 
f 23/23/23 21/21/21 20/20/20 
f 24/24/24 25/25/25 26/26/26 
f 27/27/27 25/25/25 24/24/24 
f 28/28/28 25/25/25 27/27/27 
f 28/28/28 29/29/29 25/25/25 
f 28/28/28 30/30/30 29/29/29 
f 28/28/28 31/31/31 30/30/30 
f 32/32/32 33/33/33 34/34/34 
f 35/35/35 33/33/33 32/32/32 
f 35/35/35 36/36/36 33/33/33 
f 37/37/37 38/38/38 39/39/39 
f 40/40/40 38/38/38 37/37/37 
f 40/40/40 41/41/41 38/38/38 
f 42/42/42 41/41/41 40/40/40 
f 42/42/42 43/43/43 41/41/41 
f 44/44/44 45/45/45 46/46/46 
f 47/47/47 48/48/48 49/49/49 
f 47/47/47 49/49/49 50/50/50 
f 50/50/50 49/49/49 51/51/51 
f 52/52/52 50/50/50 51/51/51 
f 52/52/52 51/51/51 53/53/53 
f 51/51/51 54/54/54 53/53/53 
f 54/54/54 51/51/51 55/55/55 
f 48/48/48 56/56/56 49/49/49 
f 46/46/46 45/45/45 57/57/57 
f 57/57/57 45/45/45 58/58/58 
f 59/59/59 60/60/60 56/56/56 
f 61/61/61 60/60/60 59/59/59 
f 25/25/25 62/62/62 63/63/63 
f 25/25/25 29/29/29 62/62/62 
f 56/56/56 60/60/60 49/49/49 
f 63/63/63 64/64/64 25/25/25 
f 65/65/65 64/64/64 63/63/63 
f 66/66/66 45/45/45 67/67/67 
f 68/68/68 45/45/45 66/66/66 
f 58/58/58 45/45/45 68/68/68 
f 69/69/69 61/61/61 59/59/59 
f 61/61/61 69/69/69 70/70/70 
f 67/67/67 45/45/45 71/71/71 
f 72/72/72 73/73/73 64/64/64 
f 72/72/72 74/74/74 73/73/73 
f 75/75/75 74/74/74 72/72/72 
f 76/76/76 77/77/77 78/78/78 
f 79/79/79 77/77/77 76/76/76 
f 80/80/80 81/81/81 82/82/82 
f 83/83/83 81/81/81 80/80/80 
f 81/81/81 83/83/83 84/84/84 
f 85/85/85 86/86/86 87/87/87 
f 87/87/87 37/37/37 85/85/85 
f 40/40/40 37/37/37 87/87/87 
f 88/88/88 89/89/89 90/90/90 
f 90/90/90 91/91/91 88/88/88 
f 88/88/88 91/91/91 45/45/45 
f 45/45/45 91/91/91 71/71/71 
f 71/71/71 91/91/91 92/92/92 
f 89/89/89 93/93/93 90/90/90 
f 89/89/89 94/94/94 93/93/93 
f 85/85/85 37/37/37 95/95/95 
f 96/96/96 85/85/85 95/95/95 
f 85/85/85 96/96/96 97/97/97 
f 97/97/97 98/98/98 85/85/85 
f 99/99/99 98/98/98 97/97/97 
f 10/10/10 12/12/12 100/100/100 
f 101/101/101 102/102/102 103/103/103 
f 103/103/103 102/102/102 104/104/104 
f 102/102/102 105/105/105 104/104/104 
f 105/105/105 106/106/106 104/104/104 
f 107/107/107 106/106/106 105/105/105 
f 32/32/32 106/106/106 107/107/107 
f 108/108/108 106/106/106 32/32/32 
f 106/106/106 108/108/108 109/109/109 
f 108/108/108 32/32/32 110/110/110 
f 108/108/108 110/110/110 111/111/111 
f 107/107/107 35/35/35 32/32/32 
f 112/112/112 85/85/85 98/98/98 
f 113/113/113 85/85/85 112/112/112 
f 114/114/114 85/85/85 113/113/113 
f 115/115/115 85/85/85 114/114/114 
f 116/116/116 117/117/117 81/81/81 
f 118/118/118 117/117/117 116/116/116 
f 117/117/117 118/118/118 119/119/119 
f 119/119/119 120/120/120 117/117/117 
f 119/119/119 121/121/121 120/120/120 
f 119/119/119 122/122/122 121/121/121 
f 119/119/119 123/123/123 122/122/122 
f 119/119/119 124/124/124 123/123/123 
f 119/119/119 125/125/125 124/124/124 
f 126/126/126 127/127/127 128/128/128 
f 129/129/129 130/130/130 131/131/131 
f 132/132/132 129/129/129 131/131/131 
f 132/132/132 131/131/131 133/133/133 
f 133/133/133 131/131/131 134/134/134 
f 131/131/131 135/135/135 134/134/134 
f 135/135/135 131/131/131 136/136/136 
f 135/135/135 136/136/136 73/73/73 
f 25/25/25 73/73/73 136/136/136 
f 64/64/64 73/73/73 25/25/25 
f 137/137/137 16/16/16 15/15/15 
f 128/128/128 2/2/2 138/138/138 
f 128/128/128 127/127/127 2/2/2 
f 139/139/139 2/2/2 127/127/127 
f 3/3/3 2/2/2 139/139/139 
f 140/140/140 141/141/141 142/142/142 
f 142/142/142 143/143/143 140/140/140 
f 142/142/142 144/144/144 143/143/143 
f 119/119/119 118/118/118 145/145/145 
f 119/119/119 145/145/145 146/146/146 
f 143/143/143 144/144/144 147/147/147 
f 140/140/140 143/143/143 148/148/148 
f 149/149/149 140/140/140 148/148/148 
f 6/6/6 5/5/5 150/150/150 
f 82/82/82 81/81/81 117/117/117 
