v 1.15542 -1.18333 -0.352562
v 1.11296 -1.10184 -0.401554
v 1.10971 -0.982838 -0.328511
v 1.15542 -1.18333 -0.352562
v 1.06511 -1.10761 -0.326067
v 1.11296 -1.10184 -0.401554
v 1.05919 -1.12672 -0.292106
v 1.06042 -1.13766 -0.279186
v 1.17758 -1.2507 -0.29374
v 1.06685 -1.19505 -0.211445
v 1.06981 -1.22143 -0.1803
v 1.06981 -1.22143 -0.1803
v 1.14195 -1.12091 -0.0433806
v 1.06685 -1.19505 -0.211445
v 1.07387 -1.25768 -0.137518
v 1.07926 -1.26412 -0.115603
v 1.10588 -1.23116 -0.0616371
v 1.10588 -1.23116 -0.0616373
v 1.21596 -1.32213 -0.0250341
v 1.14195 -1.12091 -0.0433807
v 1.13942 -1.29501 -0.0521002
v 1.1865 -1.33607 -0.0365417
v 1.149 -1.31325 -0.0493762
v 1.15137 -1.31776 -0.0487016
v 1.18556 -1.33651 -0.036907
v 1.15181 -1.3186 -0.0485768
v 1.15189 -1.31874 -0.0485548
v 1.1843 -1.33711 -0.037398
v 1.1843 -1.33711 -0.0373979
v 1.22855 -1.35519 -0.0394314
v 1.18556 -1.33651 -0.0369069
v 1.21365 -1.44414 -0.0857856
v 1.16606 -1.34574 -0.0445224
v 1.16911 -1.40594 -0.0738458
v 1.16911 -1.40594 -0.0738458
v 1.21365 -1.44414 -0.0857856
v 1.13056 -1.34983 -0.0943908
v 1.09663 -1.30045 -0.112471
v 1.07387 -1.25768 -0.137518
v 1.07516 -1.2692 -0.123915
v 1.07798 -1.26571 -0.118206
v 1.07516 -1.2692 -0.123915
v 1.07803 -1.26565 -0.118098
v 1.07807 -1.2656 -0.118019
v 1.07926 -1.26412 -0.115603
v 1.07807 -1.2656 -0.118019
v 1.09663 -1.30045 -0.112471
v 1.10588 -1.23116 -0.0616372
v 1.13942 -1.29501 -0.0521001
v 1.13056 -1.34983 -0.0943908
v 1.149 -1.31325 -0.0493761
v 1.15137 -1.31776 -0.0487015
v 1.15181 -1.3186 -0.0485767
v 1.15189 -1.31874 -0.0485547
v 1.1525 -1.31991 -0.0483808
v 1.1525 -1.31991 -0.0483809
v 1.1526 -1.3201 -0.0483521
v 1.16606 -1.34574 -0.0445226
v 1.1526 -1.3201 -0.0483521
v 1.16606 -1.34574 -0.0445224
v 1.16911 -1.40594 -0.0738458
v 1.07803 -1.26565 -0.118098
v 1.07798 -1.26571 -0.118206
v 1.07516 -1.2692 -0.123915
v 1.17758 -1.2507 -0.29374
v 1.22855 -1.35519 -0.0394315
v 1.21365 -1.44414 -0.0857856
v 1.22855 -1.35519 -0.0394315
v 1.17758 -1.2507 -0.29374
v 1.22853 -1.35381 -0.0387531
v 1.22853 -1.35381 -0.0387531
v 1.1865 -1.33607 -0.0365416
v 1.22851 -1.3528 -0.0382546
v 1.21596 -1.32213 -0.025034
v 1.21596 -1.32213 -0.025034
v 1.22851 -1.3528 -0.0382546
v 1.18576 -1.06092 -0.0245106
v 1.18576 -1.06092 -0.0245108
v 1.14743 -1.10415 -0.0406054
v 1.17857 -1.05883 -0.0270761
v 1.16368 -1.05451 -0.0323847
v 1.17857 -1.05883 -0.027076
v 1.16349 -1.05285 -0.034342
v 1.16368 -1.05451 -0.0323845
v 1.1625 -1.04417 -0.044631
v 1.19724 -1.04427 -0.0440644
v 1.1575 -1.00007 -0.0968693
v 1.1575 -1.00007 -0.0968693
v 1.15278 -0.998774 -0.112429
v 1.1625 -1.04417 -0.0446309
v 1.17259 -0.958741 -0.145564
v 1.15278 -0.998774 -0.112429
v 1.1575 -1.00006 -0.0968699
v 1.15113 -0.998325 -0.117848
v 1.08407 -1.01841 -0.306535
v 1.15113 -0.998324 -0.117848
v 1.07954 -1.0336 -0.307712
v 1.10941 -0.972001 -0.32186
v 1.07954 -1.0336 -0.307712
v 1.08407 -1.01841 -0.306535
v 1.10971 -0.982838 -0.328511
v 1.05716 -1.10857 -0.313522
v 1.05716 -1.10857 -0.313521
v 1.05919 -1.12672 -0.292106
v 1.06042 -1.13766 -0.279186
v 1.14743 -1.10415 -0.0406054
v 1.16349 -1.05285 -0.0343419
v 1.16368 -1.05451 -0.0323845
v 1.05716 -1.10857 -0.313522
v 1.06511 -1.10761 -0.326067
v 1.11296 -1.10184 -0.401554
v 1.16519 -1.2021 -0.341278
v 1.10941 -0.972001 -0.32186
v 1.16519 -1.2021 -0.341278
v 1.16519 -1.2021 -0.341278
v 1.16954 -0.954851 -0.16222
v 1.16954 -0.954851 -0.16222
v 1.14901 -0.956589 -0.213939
v 1.14901 -0.956589 -0.213939
v 1.16983 -0.955216 -0.160659
v 1.16954 -0.954851 -0.16222
v 1.1708 -0.956463 -0.15532
v 1.13818 -0.994785 -0.160506
v 1.17259 -0.958742 -0.145564
v 1.19724 -1.04427 -0.0440644
v 1.1708 -0.956463 -0.15532
v 1.17259 -0.958742 -0.145564
v 1.22851 -1.3528 -0.0382546
v 1.1708 -0.956459 -0.155337
v 1.16983 -0.955216 -0.160659
v 1.19724 -1.04427 -0.0440644
v 1.18576 -1.06092 -0.0245105
v 1.13818 -0.994785 -0.160506
v 1.1178 -0.989215 -0.22762
v 1.08954 -1.00008 -0.305114
v 1.09467 -0.982896 -0.303782
v 1.1178 -0.989215 -0.227621
v 1.09467 -0.982896 -0.303782
v 1.1051 -0.966309 -0.311516
v 1.09467 -0.982896 -0.303782
v 1.1051 -0.966309 -0.311516
v 1.08954 -1.00008 -0.305114
v 1.10908 -0.959967 -0.314473
v 1.10908 -0.959966 -0.314473
v 1.10908 -0.959966 -0.314473
vt 0.836475 0.519489
vt 0.844949 0.525154
vt 0.839764 0.538917
vt -0.325798 1.65365
vt -0.29602 1.53659
vt -0.380862 1.56527
vt -0.257851 1.5464
vt -0.24333 1.5552
vt -0.259687 1.71783
vt -0.167193 1.60132
vt -0.132188 1.62252
vt -0.912551 0.160494
vt -0.808694 0.313038
vt -0.885292 0.129968
vt -0.949996 0.202425
vt -0.956656 0.224931
vt -0.922598 0.284492
vt -1.24856 1.01598
vt -1.33961 1.13192
vt -1.13821 1.05614
vt -1.31246 1.05074
vt -1.35356 1.1003
vt -1.33072 1.06067
vt -1.33524 1.06313
vt -1.354 1.09929
vt -1.33607 1.06359
vt -1.33622 1.06367
vt -1.3546 1.09794
vt -1.25051 -1.21493
vt -1.29519 -1.23205
vt -1.25178 -1.21418
vt -1.28015 -1.33232
vt -1.23209 -1.22583
vt -1.23516 -1.29279
vt -0.0125412 1.82481
vt -0.0259607 1.88316
vt -0.0356323 1.75755
vt -0.0559532 1.69837
vt -0.0841038 1.65164
vt -0.0688157 1.6609
vt -0.958298 0.222059
vt -0.961902 0.215757
vt -0.958231 0.222177
vt -0.95818 0.222265
vt -1.49396 0.552677
vt -1.49552 0.550028
vt -1.53224 0.565575
vt -1.45923 0.611847
vt -1.5265 0.639546
vt -1.58426 0.600351
vt -1.54572 0.647457
vt -1.55048 0.649417
vt -1.55136 0.649779
vt -1.55151 0.649843
vt -1.55274 0.650348
vt -1.33739 1.0643
vt -1.33758 1.06441
vt -1.36324 1.07837
vt -1.55294 0.650432
vt -1.57995 0.661554
vt -1.64338 0.639868
vt -1.49557 0.549941
vt -1.49564 0.549823
vt -1.49931 0.543563
vt 0.828052 0.514282
vt 0.79715 0.509424
vt 0.801068 0.50096
vt 0.79715 0.509424
vt 0.828052 0.514282
vt 0.797107 0.509581
vt -1.29516 -1.23051
vt -1.25273 -1.21362
vt -1.29515 -1.22938
vt -1.28247 -1.19603
vt 0.79593 0.513077
vt 0.797075 0.509697
vt 0.801956 0.539963
vt -1.07817 1.10378
vt -1.12144 1.06225
vt -1.07608 1.09614
vt -1.07175 1.08033
vt -1.1717 -0.662857
vt -1.15662 -0.653448
vt -1.15681 -0.65601
vt -1.15563 -0.639983
vt -1.19038 -0.640482
vt -1.15063 -0.571617
vt -0.683843 0.267014
vt -0.682508 0.250756
vt -0.729407 0.318226
vt 0.280481 0.0149295
vt 0.314971 0.0585591
vt 0.331166 0.0566121
vt 0.30933 0.0592373
vt -0.7028 0.0449116
vt -0.682043 0.245094
vt -0.718491 0.0423864
vt -0.710976 -0.85102
vt -0.775207 -0.823417
vt -0.759371 -0.824764
vt -0.722276 -0.856858
vt -0.853379 -0.816768
vt -0.795949 0.0299219
vt -0.814693 0.0509111
vt -0.826001 0.063574
vt -0.791379 0.317378
vt -0.738382 0.328313
vt -0.740089 0.330232
vt -0.28192 1.53182
vt -0.852379 -0.831618
vt -0.846362 -0.920974
vt 0.834523 0.518184
vt 0.839292 0.54017
vt -0.313117 1.67401
vt 0.834523 0.518184
vt 0.820433 0.547815
vt 0.820433 0.547815
vt 0.826661 0.545691
vt 0.20931 0.0279978
vt 0.264769 0.0139055
vt 0.263144 0.0137996
vt 0.270325 0.0142676
vt 0.264928 0.0645754
vt 0.81848 0.547801
vt 0.805098 0.541347
vt 0.819624 0.547809
vt -1.16572 -0.507751
vt 0.797075 0.509697
vt 0.819626 0.547809
vt 0.82025 0.547813
vt 0.805098 0.541347
vt -1.1789 -0.666166
vt -0.678386 0.200522
vt -0.672632 0.130396
vt -0.683858 0.0479599
vt -0.666104 0.0508169
vt 0.195069 0.0729741
vt 0.115794 0.0825051
vt 0.107744 0.0630405
vt -0.722337 -0.827915
vt -0.705042 -0.839939
vt -0.740254 -0.826391
vt -0.698428 -0.844536
vt 0.838767 0.541562
vt 0.104666 0.0555969
vn 0.897404 0.248327 -0.364693
vn 0.897404 0.248327 -0.364693
vn 0.897404 0.248327 -0.364693
vn -0.646492 -0.61129 -0.456478
vn -0.646492 -0.61129 -0.456478
vn -0.646492 -0.61129 -0.456478
vn -0.646492 -0.61129 -0.456478
vn -0.646492 -0.61129 -0.456478
vn -0.646492 -0.61129 -0.456478
vn -0.646492 -0.61129 -0.456478
vn -0.646492 -0.61129 -0.456478
vn -0.920142 0.251337 0.300281
vn -0.920142 0.251337 0.300281
vn -0.920142 0.251337 0.300281
vn -0.920142 0.251337 0.300281
vn -0.920142 0.251337 0.300281
vn -0.920142 0.251337 0.300281
vn -0.346267 -0.041901 0.9372
vn -0.346267 -0.041901 0.9372
vn -0.346267 -0.041901 0.9372
vn -0.346267 -0.041901 0.9372
vn -0.346267 -0.041901 0.9372
vn -0.346267 -0.041901 0.9372
vn -0.346267 -0.041901 0.9372
vn -0.346267 -0.041901 0.9372
vn -0.346267 -0.041901 0.9372
vn -0.346267 -0.041901 0.9372
vn -0.346267 -0.041901 0.9372
vn -0.138784 -0.439312 0.887549
vn -0.138784 -0.439312 0.887549
vn -0.138784 -0.439312 0.887549
vn -0.138784 -0.439312 0.887549
vn -0.138784 -0.439312 0.887549
vn -0.138784 -0.439312 0.887549
vn -0.646492 -0.61129 -0.456478
vn -0.646492 -0.61129 -0.456478
vn -0.646492 -0.61129 -0.456478
vn -0.646492 -0.61129 -0.456478
vn -0.646492 -0.61129 -0.456478
vn -0.646492 -0.61129 -0.456478
vn -0.920142 0.251337 0.300281
vn -0.920142 0.251337 0.300281
vn -0.920142 0.251337 0.300281
vn -0.920142 0.251337 0.300281
vn -0.760773 -0.314851 0.567532
vn -0.760773 -0.314851 0.567532
vn -0.760773 -0.314851 0.567532
vn -0.760773 -0.314851 0.567532
vn -0.760773 -0.314851 0.567532
vn -0.760773 -0.314851 0.567532
vn -0.760773 -0.314851 0.567532
vn -0.760773 -0.314851 0.567532
vn -0.760773 -0.314851 0.567532
vn -0.760773 -0.314851 0.567532
vn -0.760773 -0.314851 0.567532
vn -0.346267 -0.041901 0.9372
vn -0.346267 -0.041901 0.9372
vn -0.346267 -0.041901 0.9372
vn -0.760773 -0.314851 0.567532
vn -0.760773 -0.314851 0.567532
vn -0.760773 -0.314851 0.567532
vn -0.760773 -0.314851 0.567532
vn -0.760773 -0.314851 0.567532
vn -0.760773 -0.314851 0.567532
vn 0.975024 -0.0506578 -0.216247
vn 0.975024 -0.0506578 -0.216247
vn 0.975024 -0.0506578 -0.216247
vn 0.982814 0.0966237 -0.157291
vn 0.982814 0.0966237 -0.157291
vn 0.982814 0.0966237 -0.157291
vn -0.138784 -0.439312 0.887549
vn -0.138784 -0.439312 0.887549
vn -0.138784 -0.439312 0.887549
vn -0.138784 -0.439312 0.887549
vn 0.821614 0.0938396 0.562267
vn 0.821614 0.0938396 0.562267
vn 0.821614 0.0938396 0.562267
vn -0.346267 -0.041901 0.9372
vn -0.346267 -0.041901 0.9372
vn -0.346267 -0.041901 0.9372
vn -0.346267 -0.041901 0.9372
vn -0.00826511 0.763687 0.645533
vn -0.00826511 0.763687 0.645533
vn -0.00826511 0.763687 0.645533
vn -0.00826511 0.763687 0.645533
vn -0.00826511 0.763687 0.645533
vn -0.00826511 0.763687 0.645533
vn -0.920142 0.251337 0.300281
vn -0.920142 0.251337 0.300281
vn -0.920142 0.251337 0.300281
vn -0.749716 0.600756 0.277522
vn -0.749716 0.600756 0.277522
vn -0.749716 0.600756 0.277522
vn -0.749716 0.600756 0.277522
vn -0.920142 0.251337 0.300281
vn -0.920142 0.251337 0.300281
vn -0.920142 0.251337 0.300281
vn -0.819701 0.283217 -0.497873
vn -0.819701 0.283217 -0.497873
vn -0.819701 0.283217 -0.497873
vn -0.819701 0.283217 -0.497873
vn -0.819701 0.283217 -0.497873
vn -0.920142 0.251337 0.300281
vn -0.920142 0.251337 0.300281
vn -0.920142 0.251337 0.300281
vn -0.920142 0.251337 0.300281
vn -0.920142 0.251337 0.300281
vn -0.920142 0.251337 0.300281
vn -0.646492 -0.61129 -0.456478
vn -0.819701 0.283217 -0.497873
vn -0.819701 0.283217 -0.497873
vn 0.897404 0.248327 -0.364693
vn 0.897404 0.248327 -0.364693
vn -0.646492 -0.61129 -0.456478
vn 0.982814 0.0966237 -0.157291
vn 0.982814 0.0966237 -0.157291
vn 0.897404 0.248327 -0.364693
vn 0.897404 0.248327 -0.364693
vn -0.749716 0.600756 0.277522
vn -0.749716 0.600756 0.277522
vn -0.749716 0.600756 0.277522
vn -0.749716 0.600756 0.277522
vn -0.749716 0.600756 0.277522
vn 0.982814 0.0966237 -0.157291
vn 0.982814 0.0966237 -0.157291
vn 0.982814 0.0966237 -0.157291
vn -0.00826511 0.763687 0.645533
vn 0.982814 0.0966237 -0.157291
vn 0.982814 0.0966237 -0.157291
vn 0.982814 0.0966237 -0.157291
vn 0.821614 0.0938396 0.562267
vn -0.00826511 0.763687 0.645533
vn -0.920142 0.251337 0.300281
vn -0.920142 0.251337 0.300281
vn -0.920142 0.251337 0.300281
vn -0.920142 0.251337 0.300281
vn -0.749716 0.600756 0.277522
vn -0.749716 0.600756 0.277522
vn -0.749716 0.600756 0.277522
vn -0.819701 0.283217 -0.497873
vn -0.819701 0.283217 -0.497873
vn -0.819701 0.283217 -0.497873
vn -0.819701 0.283217 -0.497873
vn 0.897404 0.248327 -0.364693
vn -0.749716 0.600756 0.277522
f 1/1/1 2/2/2 3/3/3 
f 4/4/4 5/5/5 6/6/6 
f 4/4/4 7/7/7 5/5/5 
f 4/4/4 8/8/8 7/7/7 
f 9/9/9 8/8/8 4/4/4 
f 9/9/9 10/10/10 8/8/8 
f 10/10/10 9/9/9 11/11/11 
f 12/12/12 13/13/13 14/14/14 
f 15/15/15 13/13/13 12/12/12 
f 16/16/16 13/13/13 15/15/15 
f 17/17/17 13/13/13 16/16/16 
f 18/18/18 19/19/19 20/20/20 
f 21/21/21 19/19/19 18/18/18 
f 21/21/21 22/22/22 19/19/19 
f 23/23/23 22/22/22 21/21/21 
f 24/24/24 22/22/22 23/23/23 
f 24/24/24 25/25/25 22/22/22 
f 26/26/26 25/25/25 24/24/24 
f 27/27/27 25/25/25 26/26/26 
f 25/25/25 27/27/27 28/28/28 
f 29/29/29 30/30/30 31/31/31 
f 29/29/29 32/32/32 30/30/30 
f 33/33/33 32/32/32 29/29/29 
f 34/34/34 32/32/32 33/33/33 
f 35/35/35 9/9/9 36/36/36 
f 37/37/37 9/9/9 35/35/35 
f 38/38/38 9/9/9 37/37/37 
f 38/38/38 39/39/39 9/9/9 
f 40/40/40 39/39/39 38/38/38 
f 41/41/41 15/15/15 42/42/42 
f 43/43/43 15/15/15 41/41/41 
f 44/44/44 15/15/15 43/43/43 
f 16/16/16 15/15/15 44/44/44 
f 45/45/45 46/46/46 47/47/47 
f 48/48/48 45/45/45 47/47/47 
f 48/48/48 47/47/47 49/49/49 
f 50/50/50 49/49/49 47/47/47 
f 51/51/51 49/49/49 50/50/50 
f 52/52/52 51/51/51 50/50/50 
f 53/53/53 52/52/52 50/50/50 
f 53/53/53 50/50/50 54/54/54 
f 54/54/54 50/50/50 55/55/55 
f 28/28/28 27/27/27 56/56/56 
f 28/28/28 56/56/56 57/57/57 
f 28/28/28 57/57/57 58/58/58 
f 59/59/59 50/50/50 60/60/60 
f 55/55/55 50/50/50 59/59/59 
f 60/60/60 50/50/50 61/61/61 
f 46/46/46 62/62/62 47/47/47 
f 62/62/62 63/63/63 47/47/47 
f 47/47/47 63/63/63 64/64/64 
f 11/11/11 9/9/9 39/39/39 
f 65/65/65 66/66/66 67/67/67 
f 68/68/68 69/69/69 70/70/70 
f 31/31/31 30/30/30 71/71/71 
f 31/31/31 71/71/71 72/72/72 
f 72/72/72 71/71/71 73/73/73 
f 73/73/73 74/74/74 72/72/72 
f 75/75/75 76/76/76 77/77/77 
f 78/78/78 20/20/20 19/19/19 
f 78/78/78 79/79/79 20/20/20 
f 80/80/80 79/79/79 78/78/78 
f 80/80/80 81/81/81 79/79/79 
f 82/82/82 83/83/83 84/84/84 
f 82/82/82 85/85/85 83/83/83 
f 86/86/86 85/85/85 82/82/82 
f 85/85/85 86/86/86 87/87/87 
f 88/88/88 89/89/89 90/90/90 
f 91/91/91 92/92/92 93/93/93 
f 92/92/92 91/91/91 94/94/94 
f 95/95/95 89/89/89 96/96/96 
f 95/95/95 97/97/97 89/89/89 
f 98/98/98 99/99/99 100/100/100 
f 101/101/101 99/99/99 98/98/98 
f 99/99/99 101/101/101 102/102/102 
f 97/97/97 103/103/103 104/104/104 
f 104/104/104 105/105/105 97/97/97 
f 97/97/97 105/105/105 106/106/106 
f 97/97/97 106/106/106 89/89/89 
f 89/89/89 106/106/106 90/90/90 
f 107/107/107 90/90/90 106/106/106 
f 108/108/108 107/107/107 106/106/106 
f 105/105/105 14/14/14 106/106/106 
f 13/13/13 106/106/106 14/14/14 
f 5/5/5 7/7/7 109/109/109 
f 102/102/102 101/101/101 110/110/110 
f 110/110/110 101/101/101 111/111/111 
f 112/112/112 3/3/3 113/113/113 
f 1/1/1 3/3/3 112/112/112 
f 9/9/9 4/4/4 114/114/114 
f 115/115/115 116/116/116 69/69/69 
f 117/117/117 112/112/112 118/118/118 
f 119/119/119 120/120/120 121/121/121 
f 119/119/119 122/122/122 120/120/120 
f 123/123/123 122/122/122 119/119/119 
f 94/94/94 122/122/122 123/123/123 
f 94/94/94 91/91/91 122/122/122 
f 124/124/124 125/125/125 126/126/126 
f 87/87/87 86/86/86 127/127/127 
f 126/126/126 125/125/125 128/128/128 
f 126/126/126 128/128/128 129/129/129 
f 129/129/129 128/128/128 70/70/70 
f 129/129/129 70/70/70 130/130/130 
f 130/130/130 70/70/70 69/69/69 
f 69/69/69 116/116/116 130/130/130 
f 77/77/77 76/76/76 131/131/131 
f 86/86/86 82/82/82 132/132/132 
f 133/133/133 95/95/95 96/96/96 
f 134/134/134 95/95/95 133/133/133 
f 134/134/134 135/135/135 95/95/95 
f 134/134/134 136/136/136 135/135/135 
f 137/137/137 119/119/119 138/138/138 
f 123/123/123 119/119/119 137/137/137 
f 138/138/138 119/119/119 139/139/139 
f 140/140/140 141/141/141 142/142/142 
f 142/142/142 141/141/141 98/98/98 
f 142/142/142 98/98/98 100/100/100 
f 98/98/98 141/141/141 143/143/143 
f 118/118/118 113/113/113 144/144/144 
f 118/118/118 112/112/112 113/113/113 
f 139/139/139 119/119/119 145/145/145 
