v 1.00218 -0.0861992 -0.309731
v 0.8868 -0.3388 -0.5676
v 0.798654 0.136796 -0.519387
v 1.03436 -0.15398 -0.253012
v 0.8868 -0.3388 -0.5676
v 1.00218 -0.0861992 -0.309731
v 1.03268 -0.186337 -0.259911
v 1.01499 -0.244961 -0.301648
v 1.03175 -0.204305 -0.263742
v 1.01499 -0.244961 -0.301648
v 1.03175 -0.204305 -0.263742
v 1.00699 -0.19317 -0.25777
v 0.970842 -0.178374 -0.250324
v 0.973745 -0.178218 -0.249751
v 0.973745 -0.178218 -0.249751
v 1.00218 -0.0861991 -0.309731
v 0.970842 -0.178374 -0.250324
v 1.00417 -0.166052 -0.251388
v 1.03436 -0.153979 -0.253012
v 1.03436 -0.15398 -0.253012
v 1.00417 -0.166052 -0.251388
v 1.03268 -0.186337 -0.259911
v 1.00699 -0.19317 -0.25777
v 1.03175 -0.204305 -0.263742
v 0.973745 -0.178218 -0.249751
v 0.937132 -0.180186 -0.256966
v 0.937132 -0.180186 -0.256966
v 1.01325 -0.249163 -0.305566
v 1.01325 -0.249163 -0.305566
v 0.891228 -0.345924 -0.559551
v 1.01191 -0.252421 -0.308603
v 0.891228 -0.345924 -0.559551
v 1.01191 -0.252421 -0.308603
v 0.763905 -0.429955 -0.500389
v 0.737068 -0.449167 -0.521143
v 0.727649 -0.455909 -0.528427
v 0.787811 -0.417823 -0.592277
v 0.723663 -0.458762 -0.531509
v 0.724242 -0.458755 -0.540078
v 0.72465 -0.45875 -0.546131
v 0.72465 -0.45875 -0.546131
v 0.741668 -0.389866 -0.623009
v 0.787811 -0.417823 -0.592277
v 0.71717 -0.457758 -0.54717
v 0.713768 -0.457306 -0.547643
v 0.718299 -0.431605 -0.57631
v 0.712394 -0.457124 -0.547833
v 0.711931 -0.457063 -0.547898
v 0.709694 -0.456815 -0.54314
v 0.718299 -0.431605 -0.57631
v 0.71193 -0.457063 -0.547898
v 0.697075 -0.297069 -0.606274
v 0.729349 -0.387435 -0.625607
v 0.729349 -0.387435 -0.625607
v 0.697075 -0.297069 -0.606274
v 0.741668 -0.389866 -0.623009
v 0.729349 -0.387435 -0.625607
v 0.8868 -0.3388 -0.5676
v 0.650182 -0.165769 -0.578183
v 0.8868 -0.3388 -0.5676
v 0.650182 -0.165769 -0.578183
v 0.7194 0.131 -0.635
v 0.7194 0.131 -0.635
v 0.7194 0.131 -0.635
v 0.765322 0.185018 -0.562204
v 0.798654 0.136796 -0.519387
v 0.7194 0.131 -0.635
v 0.674362 0.203694 -0.615049
v 0.765322 0.185018 -0.562204
v 0.7194 0.131 -0.635
v 0.610931 0.183793 -0.621297
v 0.674362 0.203694 -0.615049
v 0.59328 0.173069 -0.624492
v 0.587333 0.168898 -0.625725
v 0.595414 0.142095 -0.633169
v 0.585553 0.167649 -0.626094
v 0.585553 0.167649 -0.626094
v 0.595414 0.142095 -0.633169
v 0.579561 0.160596 -0.608964
v 0.585553 0.167649 -0.626094
v 0.579561 0.160596 -0.608964
v 0.587332 0.168898 -0.625725
v 0.59328 0.173069 -0.624492
v 0.612497 0.182856 -0.596707
v 0.607316 0.182497 -0.61889
v 0.612497 0.182856 -0.596707
v 0.631981 0.189076 -0.596616
v 0.607316 0.182497 -0.61889
v 0.612497 0.182856 -0.596707
v 0.569161 0.131126 -0.569442
v 0.631981 0.189076 -0.596616
v 0.571698 0.150818 -0.583116
v 0.570364 0.14977 -0.582671
v 0.570364 0.14977 -0.582672
v 0.569161 0.131126 -0.569442
v 0.570364 0.14977 -0.582672
v 0.571698 0.150818 -0.583116
v 0.639062 -0.106518 -0.587497
v 0.621851 -0.156243 -0.521549
v 0.624336 -0.166178 -0.521347
v 0.636688 -0.21555 -0.520343
v 0.645336 -0.250118 -0.519641
v 0.716932 -0.0319914 -0.416344
v 0.636688 -0.21555 -0.520343
v 0.645336 -0.250118 -0.519641
v 0.624336 -0.166178 -0.521347
v 0.621851 -0.156243 -0.521549
v 0.565223 0.070108 -0.526148
v 0.798654 0.136796 -0.519387
v 0.565223 0.0701082 -0.526148
v 0.716932 -0.0319914 -0.416344
v 0.565223 0.070108 -0.526148
v 0.765322 0.185018 -0.562204
v 0.694643 0.20908 -0.596325
v 0.694642 0.20908 -0.596325
v 0.694642 0.20908 -0.596325
v 0.674362 0.203694 -0.615049
v 0.610931 0.183793 -0.621297
v 0.606655 0.182451 -0.621718
v 0.606655 0.182451 -0.621718
v 0.606655 0.182451 -0.621718
v 0.901134 -0.15596 -0.283021
v 0.937132 -0.180186 -0.256966
v 0.901134 -0.15596 -0.283021
v 0.813143 -0.309034 -0.387742
v 0.813143 -0.309034 -0.387742
v 1.01191 -0.252421 -0.308603
v 0.763905 -0.429955 -0.500389
v 0.708412 -0.417869 -0.498208
v 0.737068 -0.449167 -0.521143
v 0.69948 -0.448004 -0.525779
v 0.727649 -0.455909 -0.528427
v 0.700632 -0.449878 -0.527237
v 0.71098 -0.457092 -0.531961
v 0.706196 -0.456463 -0.532132
v 0.707634 -0.456587 -0.538758
v 0.71098 -0.457092 -0.531961
v 0.706196 -0.456463 -0.532132
v 0.709694 -0.456815 -0.54314
v 0.724242 -0.458755 -0.540078
v 0.723663 -0.458762 -0.531509
v 0.723663 -0.458762 -0.531509
v 0.71717 -0.457758 -0.54717
v 0.72465 -0.45875 -0.546131
v 0.713768 -0.457306 -0.547643
v 0.712394 -0.457124 -0.547833
v 0.71193 -0.457063 -0.547898
v 0.707634 -0.456587 -0.538758
v 0.704047 -0.455434 -0.531559
v 0.700632 -0.449878 -0.527237
v 0.69948 -0.448004 -0.525779
v 0.67498 -0.368613 -0.517233
v 0.650182 -0.165769 -0.578183
v 0.639062 -0.106518 -0.587497
v 0.595414 0.142095 -0.633169
v 0.7194 0.131 -0.635
v 0.639062 -0.106518 -0.587497
v 0.67498 -0.368613 -0.517233
v 0.708412 -0.417869 -0.498208
v 0.691658 -0.435279 -0.515878
v 0.691658 -0.43528 -0.515878
v 0.691658 -0.43528 -0.515878
v 0.704047 -0.455434 -0.531559
v 0.704547 -0.456246 -0.532191
v 0.704546 -0.456246 -0.532191
v 0.704546 -0.456246 -0.532191
v 0.741668 -0.389866 -0.623009
v 0.8868 -0.3388 -0.5676
v 0.748857 -0.391537 -0.621212
v 0.748857 -0.391537 -0.621212
v 0.803472 -0.407676 -0.603719
v 0.803472 -0.407676 -0.603719
v 0.887744 -0.348748 -0.569556
v 0.8868 -0.3388 -0.5676
v 0.891228 -0.345924 -0.559551
v 0.887744 -0.348748 -0.569556
v 0.887744 -0.348748 -0.569556
v 0.80738 -0.405143 -0.606575
v 0.80738 -0.405143 -0.606575
v 0.807381 -0.405143 -0.606575
vt 0.870086 0.634123
vt 0.8945 0.5974
vt 0.90586 0.653671
vt 0.860398 0.628854
vt 0.8945 0.5974
vt 0.870086 0.634123
vt 0.860155 0.625102
vt 0.863486 0.617239
vt 0.86002 0.623018
vt -1.00102 -0.382815
vt -1.01789 -0.327262
vt -0.992974 -0.314942
vt -0.956592 -0.298893
vt -0.959513 -0.298399
vt -0.898847 0.00226219
vt -0.927801 0.111969
vt -0.895891 0.0024715
vt -0.929821 0.0130733
vt -0.960559 0.0238016
vt -1.05394 -0.204861
vt -1.02346 -0.2163
vt -1.05225 -0.237945
vt -1.02631 -0.244156
vt -1.05131 -0.256316
vt -0.992742 -0.227828
vt -0.861571 0.00490187
vt -0.922666 -0.304621
vt -0.999274 -0.388557
vt 0.863844 0.616641
vt 0.893213 0.596922
vt 0.864121 0.616178
vt -0.58852 0.541951
vt -0.337397 0.69433
vt -0.529317 0.389414
vt -0.550085 0.356418
vt -0.557374 0.344838
vt -0.621269 0.416002
vt -0.560458 0.339938
vt -0.569033 0.34042
vt -0.57509 0.340761
vt -0.728818 -0.0999182
vt -0.745836 -0.203143
vt -0.791979 -0.161598
vt -0.721337 -0.101354
vt -0.717935 -0.102008
vt -0.722466 -0.140509
vt -0.716561 -0.102271
vt -0.716097 -0.10236
vt -0.54107 -0.78885
vt -0.515168 -0.822598
vt -0.541324 -0.794107
vt -0.376936 -0.841039
vt -0.469784 -0.872031
vt -0.733516 -0.2067
vt 0.918776 0.597438
vt 0.912866 0.58679
vt 0.914442 0.586756
vt 0.8945 0.5974
vt 0.925072 0.612957
vt 0.8945 0.5974
vt 0.925072 0.612957
vt 0.9208 0.6496
vt 0.9208 0.6496
vt 0.9208 0.6496
vt 0.913112 0.65849
vt 0.90586 0.653671
vt 0.9208 0.6496
vt 0.925246 0.658876
vt 0.913112 0.65849
vt 0.9208 0.6496
vt 0.932121 0.655976
vt 0.925246 0.658876
vt 0.93406 0.654493
vt 0.934716 0.65392
vt 0.933987 0.650459
vt 0.934912 0.653749
vt 0.100551 -0.812746
vt 0.074294 -0.823278
vt 0.0933034 -0.794675
vt -0.59504 -0.571299
vt -0.577776 -0.562296
vt -0.594668 -0.573473
vt -0.593425 -0.580735
vt -0.565424 -0.60202
vt -0.58778 -0.597629
vt -0.595105 -0.639093
vt -0.595015 -0.659546
vt -0.617323 -0.634048
vt -0.531062 0.498233
vt -0.486941 0.440346
vt -0.550898 0.503216
vt -0.489524 0.464315
vt -0.488166 0.463206
vt 0.0821804 -0.766938
vt 0.0630234 -0.754404
vt -0.551279 -0.548477
vt -0.551727 -0.550172
vt -0.181149 -0.799861
vt -0.23224 -0.732723
vt -0.242448 -0.733571
vt -0.293177 -0.737789
vt -0.328695 -0.740742
vt -0.145407 0.274859
vt -0.330938 0.146302
vt -0.365878 0.153335
vt -0.281035 0.136257
vt -0.270993 0.134236
vt -0.04221 0.088185
vt -0.720587 0.415563
vt -0.482932 0.365533
vt -0.637386 0.218425
vt 0.000329323 -0.713386
vt -0.686652 0.479736
vt -0.614694 0.519242
vt 0.922306 0.660157
vt -0.594723 -0.725322
vt -0.613476 -0.704364
vt -0.619733 -0.637886
vt -0.620155 -0.633405
vt 0.932584 0.655781
vt -0.59063 -0.597069
vt -0.824921 0.0398088
vt -0.295194 0.545811
vt -0.270707 0.501515
vt -0.425426 0.366599
vt -0.797884 -0.487669
vt -0.997922 -0.393009
vt -0.74833 -0.652836
vt -0.692482 -0.642287
vt -0.721321 -0.680953
vt -0.683493 -0.68312
vt -0.711842 -0.690821
vt -0.684653 -0.68549
vt -0.695066 -0.694034
vt -0.690252 -0.693671
vt -0.53526 0.761058
vt -0.528464 0.764441
vt -0.528634 0.759617
vt -0.539643 0.76313
vt -0.536581 0.777807
vt -0.528012 0.777234
vt -0.707831 -0.694997
vt -0.543673 0.770666
vt -0.542634 0.778212
vt -0.544146 0.767234
vt -0.544336 0.765848
vt -0.544401 0.76538
vt -0.540836 -0.784008
vt -0.539651 -0.77597
vt -0.533943 -0.77062
vt -0.532017 -0.768815
vt -0.450445 -0.750865
vt -0.242028 -0.796008
vt 0.927196 0.61975
vt 0.933987 0.650459
vt 0.9208 0.6496
vt 0.927196 0.61975
vt -0.485646 0.177442
vt -0.535431 0.215221
vt -0.553029 0.191005
vt -0.675621 -0.667022
vt -0.518943 -0.75656
vt -0.688089 -0.692519
vt -0.688592 -0.693546
vt -0.540485 -0.776752
vt -0.528693 0.757953
vt 0.912866 0.58679
vt 0.8945 0.5974
vt 0.911931 0.586818
vt -0.753024 -0.200689
vt -0.80764 -0.176891
vt -0.632719 0.434658
vt -0.598532 0.537482
vt 0.8945 0.5974
vt 0.893213 0.596922
vt 0.894319 0.596251
vt 0.894319 0.596251
vt 0.904319 0.587044
vt -0.811549 -0.180708
vt -0.635577 0.439315
vn 0.802365 0.205511 -0.560336
vn 0.802365 0.205511 -0.560336
vn 0.802365 0.205511 -0.560336
vn 0.893119 0.0492184 -0.447119
vn 0.892833 0.0491953 -0.447694
vn 0.893069 0.0492143 -0.447221
vn 0.893113 0.0492179 -0.447132
vn 0.893075 0.0492148 -0.447209
vn 0.893109 0.0492176 -0.447139
vn -0.112608 -0.652358 0.749498
vn -0.112608 -0.652358 0.749498
vn -0.112608 -0.652358 0.749498
vn -0.112608 -0.652358 0.749498
vn -0.112608 -0.652358 0.749498
vn -0.187707 0.576413 0.795308
vn -0.187707 0.576413 0.795308
vn -0.187707 0.576413 0.795308
vn -0.187707 0.576413 0.795308
vn -0.187707 0.576413 0.795308
vn 0.137346 -0.213345 0.967274
vn 0.137346 -0.213345 0.967274
vn 0.137346 -0.213345 0.967274
vn 0.137346 -0.213345 0.967274
vn 0.137346 -0.213345 0.967274
vn 0.137346 -0.213345 0.967274
vn -0.187707 0.576413 0.795308
vn -0.112608 -0.652358 0.749498
vn -0.112608 -0.652358 0.749498
vn 0.893071 0.0492145 -0.447216
vn 0.89284 0.0491959 -0.447679
vn 0.893068 0.0492143 -0.447222
vn 0.562457 -0.825986 0.037277
vn 0.562457 -0.825986 0.037277
vn 0.562457 -0.825986 0.037277
vn 0.562457 -0.825986 0.037277
vn 0.562457 -0.825986 0.037277
vn 0.562457 -0.825986 0.037277
vn 0.562457 -0.825986 0.037277
vn 0.562457 -0.825986 0.037277
vn 0.562457 -0.825986 0.037277
vn -0.00591858 -0.744105 -0.668037
vn -0.00591858 -0.744105 -0.668037
vn -0.00591858 -0.744105 -0.668037
vn -0.00591858 -0.744105 -0.668037
vn -0.00591858 -0.744105 -0.668037
vn -0.00591858 -0.744105 -0.668037
vn -0.00591858 -0.744105 -0.668037
vn -0.00591858 -0.744105 -0.668037
vn -0.885333 -0.229702 -0.404255
vn -0.885333 -0.229702 -0.404255
vn -0.885333 -0.229702 -0.404255
vn -0.885333 -0.229702 -0.404255
vn -0.885333 -0.229702 -0.404255
vn -0.00591858 -0.744105 -0.668037
vn 0.251627 0.287578 -0.924112
vn 0.251627 0.287578 -0.924112
vn 0.251627 0.287578 -0.924112
vn 0.251627 0.287578 -0.924112
vn 0.251627 0.287578 -0.924112
vn -0.079955 -0.169415 -0.982296
vn -0.079955 -0.169415 -0.982296
vn -0.079955 -0.169415 -0.982296
vn 0.802365 0.205511 -0.560336
vn 0.821545 0.0649171 -0.566436
vn 0.821545 0.0649171 -0.566436
vn 0.821545 0.0649171 -0.566436
vn 0.508564 0.506238 -0.696481
vn 0.508564 0.506238 -0.696481
vn 0.508564 0.506238 -0.696481
vn 0.00998393 0.270401 -0.962696
vn 0.00998393 0.270401 -0.962696
vn 0.00998393 0.270401 -0.962696
vn 0.00998393 0.270401 -0.962696
vn 0.00998393 0.270401 -0.962696
vn 0.00998393 0.270401 -0.962696
vn 0.00998393 0.270401 -0.962696
vn -0.885333 -0.229702 -0.404255
vn -0.885333 -0.229702 -0.404255
vn -0.885333 -0.229702 -0.404255
vn -0.586923 0.800071 0.124125
vn -0.586923 0.800071 0.124125
vn -0.586923 0.800071 0.124125
vn -0.586923 0.800071 0.124125
vn -0.586923 0.800071 0.124125
vn -0.586923 0.800071 0.124125
vn -0.303878 0.951089 0.0555653
vn -0.303878 0.951089 0.0555653
vn -0.303878 0.951089 0.0555653
vn -0.187707 0.576413 0.795308
vn -0.187707 0.576413 0.795308
vn -0.187707 0.576413 0.795308
vn -0.187707 0.576413 0.795308
vn -0.187707 0.576413 0.795308
vn -0.885333 -0.229702 -0.404255
vn -0.885333 -0.229702 -0.404255
vn -0.586923 0.800071 0.124125
vn -0.586923 0.800071 0.124125
vn -0.885333 -0.229702 -0.404255
vn -0.885333 -0.229702 -0.404255
vn -0.885333 -0.229702 -0.404255
vn -0.885333 -0.229702 -0.404255
vn -0.885333 -0.229702 -0.404255
vn -0.642453 -0.145436 0.752398
vn -0.642453 -0.145436 0.752398
vn -0.642453 -0.145436 0.752398
vn -0.642453 -0.145436 0.752398
vn -0.642453 -0.145436 0.752398
vn -0.642453 -0.145436 0.752398
vn -0.187707 0.576413 0.795308
vn -0.187707 0.576413 0.795308
vn -0.187707 0.576413 0.795308
vn -0.885333 -0.229702 -0.404255
vn -0.187707 0.576413 0.795308
vn -0.187707 0.576413 0.795308
vn 0.508564 0.506238 -0.696481
vn -0.303878 0.951089 0.0555653
vn -0.303878 0.951089 0.0555653
vn -0.303878 0.951089 0.0555653
vn -0.303878 0.951089 0.0555653
vn 0.00998393 0.270401 -0.962696
vn -0.586923 0.800071 0.124125
vn -0.187707 0.576413 0.795308
vn -0.642453 -0.145436 0.752398
vn -0.642453 -0.145436 0.752398
vn -0.642453 -0.145436 0.752398
vn -0.112608 -0.652358 0.749498
vn -0.112608 -0.652358 0.749498
vn -0.112608 -0.652358 0.749498
vn -0.112608 -0.652358 0.749498
vn -0.112608 -0.652358 0.749498
vn -0.112608 -0.652358 0.749498
vn -0.112608 -0.652358 0.749498
vn -0.112608 -0.652358 0.749498
vn -0.112608 -0.652358 0.749498
vn -0.112608 -0.652358 0.749498
vn -0.130195 -0.991442 -0.00963063
vn -0.130195 -0.991442 -0.00963063
vn -0.130195 -0.991442 -0.00963063
vn -0.130195 -0.991442 -0.00963063
vn -0.130195 -0.991442 -0.00963063
vn -0.130195 -0.991442 -0.00963063
vn -0.112608 -0.652358 0.749498
vn -0.130195 -0.991442 -0.00963063
vn -0.130195 -0.991442 -0.00963063
vn -0.130195 -0.991442 -0.00963063
vn -0.130195 -0.991442 -0.00963063
vn -0.130195 -0.991442 -0.00963063
vn -0.885333 -0.229702 -0.404255
vn -0.885333 -0.229702 -0.404255
vn -0.885333 -0.229702 -0.404255
vn -0.885333 -0.229702 -0.404255
vn -0.885333 -0.229702 -0.404255
vn -0.885333 -0.229702 -0.404255
vn -0.079955 -0.169415 -0.982296
vn -0.0311328 -0.185885 -0.982078
vn -0.0311328 -0.185885 -0.982078
vn -0.0311328 -0.185885 -0.982078
vn -0.642453 -0.145436 0.752398
vn -0.642453 -0.145436 0.752398
vn -0.642453 -0.145436 0.752398
vn -0.112608 -0.652358 0.749498
vn -0.885333 -0.229702 -0.404255
vn -0.112608 -0.652358 0.749498
vn -0.112608 -0.652358 0.749498
vn -0.885333 -0.229702 -0.404255
vn -0.130195 -0.991442 -0.00963063
vn 0.28302 0.210873 -0.935646
vn 0.28302 0.210873 -0.935646
vn 0.28302 0.210873 -0.935646
vn -0.00591858 -0.744105 -0.668037
vn -0.00591858 -0.744105 -0.668037
vn 0.562457 -0.825986 0.037277
vn 0.562457 -0.825986 0.037277
vn 0.917628 0.158767 -0.36435
vn 0.917628 0.158767 -0.36435
vn 0.917628 0.158767 -0.36435
vn 0.28302 0.210873 -0.935646
vn 0.28302 0.210873 -0.935646
vn -0.00591858 -0.744105 -0.668037
vn 0.562457 -0.825986 0.037277
f 1/1/1 2/2/2 3/3/3 
f 4/4/4 5/5/5 6/6/6 
f 7/7/7 5/5/5 4/4/4 
f 7/7/7 8/8/8 5/5/5 
f 9/9/9 8/8/8 7/7/7 
f 10/10/10 11/11/11 12/12/12 
f 12/12/12 13/13/13 10/10/10 
f 14/14/14 13/13/13 12/12/12 
f 15/15/15 16/16/16 17/17/17 
f 18/18/18 16/16/16 15/15/15 
f 16/16/16 18/18/18 19/19/19 
f 20/20/20 21/21/21 22/22/22 
f 22/22/22 21/21/21 23/23/23 
f 22/22/22 23/23/23 24/24/24 
f 21/21/21 25/25/25 23/23/23 
f 17/17/17 16/16/16 26/26/26 
f 13/13/13 27/27/27 10/10/10 
f 10/10/10 27/27/27 28/28/28 
f 29/29/29 30/30/30 8/8/8 
f 31/31/31 30/30/30 29/29/29 
f 32/32/32 33/33/33 34/34/34 
f 32/32/32 34/34/34 35/35/35 
f 32/32/32 35/35/35 36/36/36 
f 36/36/36 37/37/37 32/32/32 
f 38/38/38 37/37/37 36/36/36 
f 39/39/39 37/37/37 38/38/38 
f 40/40/40 37/37/37 39/39/39 
f 41/41/41 42/42/42 43/43/43 
f 44/44/44 42/42/42 41/41/41 
f 45/45/45 42/42/42 44/44/44 
f 45/45/45 46/46/46 42/42/42 
f 47/47/47 46/46/46 45/45/45 
f 48/48/48 46/46/46 47/47/47 
f 49/49/49 50/50/50 51/51/51 
f 50/50/50 49/49/49 52/52/52 
f 50/50/50 52/52/52 53/53/53 
f 42/42/42 46/46/46 54/54/54 
f 55/55/55 56/56/56 57/57/57 
f 55/55/55 58/58/58 56/56/56 
f 59/59/59 58/58/58 55/55/55 
f 60/60/60 61/61/61 62/62/62 
f 3/3/3 2/2/2 63/63/63 
f 64/64/64 65/65/65 66/66/66 
f 67/67/67 68/68/68 69/69/69 
f 70/70/70 71/71/71 72/72/72 
f 70/70/70 73/73/73 71/71/71 
f 70/70/70 74/74/74 73/73/73 
f 75/75/75 74/74/74 70/70/70 
f 75/75/75 76/76/76 74/74/74 
f 77/77/77 78/78/78 79/79/79 
f 80/80/80 81/81/81 82/82/82 
f 82/82/82 81/81/81 83/83/83 
f 84/84/84 83/83/83 81/81/81 
f 84/84/84 85/85/85 83/83/83 
f 86/86/86 87/87/87 88/88/88 
f 89/89/89 90/90/90 91/91/91 
f 92/92/92 90/90/90 89/89/89 
f 93/93/93 90/90/90 92/92/92 
f 94/94/94 78/78/78 95/95/95 
f 79/79/79 78/78/78 94/94/94 
f 81/81/81 96/96/96 97/97/97 
f 81/81/81 97/97/97 84/84/84 
f 95/95/95 78/78/78 98/98/98 
f 98/98/98 99/99/99 95/95/95 
f 98/98/98 100/100/100 99/99/99 
f 98/98/98 101/101/101 100/100/100 
f 101/101/101 98/98/98 102/102/102 
f 103/103/103 104/104/104 105/105/105 
f 103/103/103 106/106/106 104/104/104 
f 103/103/103 107/107/107 106/106/106 
f 103/103/103 108/108/108 107/107/107 
f 109/109/109 110/110/110 111/111/111 
f 90/90/90 110/110/110 109/109/109 
f 95/95/95 99/99/99 112/112/112 
f 113/113/113 90/90/90 109/109/109 
f 113/113/113 114/114/114 90/90/90 
f 69/69/69 68/68/68 115/115/115 
f 87/87/87 116/116/116 117/117/117 
f 90/90/90 114/114/114 91/91/91 
f 118/118/118 87/87/87 117/117/117 
f 88/88/88 87/87/87 118/118/118 
f 118/118/118 119/119/119 88/88/88 
f 71/71/71 73/73/73 120/120/120 
f 83/83/83 85/85/85 121/121/121 
f 109/109/109 111/111/111 16/16/16 
f 16/16/16 111/111/111 122/122/122 
f 26/26/26 16/16/16 122/122/122 
f 123/123/123 124/124/124 125/125/125 
f 27/27/27 126/126/126 127/127/127 
f 28/28/28 27/27/27 127/127/127 
f 126/126/126 128/128/128 127/127/127 
f 129/129/129 128/128/128 126/126/126 
f 130/130/130 128/128/128 129/129/129 
f 131/131/131 130/130/130 129/129/129 
f 131/131/131 132/132/132 130/130/130 
f 133/133/133 132/132/132 131/131/131 
f 133/133/133 134/134/134 132/132/132 
f 134/134/134 133/133/133 135/135/135 
f 136/136/136 137/137/137 138/138/138 
f 137/137/137 136/136/136 139/139/139 
f 137/137/137 139/139/139 140/140/140 
f 140/140/140 141/141/141 137/137/137 
f 132/132/132 134/134/134 142/142/142 
f 143/143/143 140/140/140 139/139/139 
f 144/144/144 140/140/140 143/143/143 
f 143/143/143 139/139/139 145/145/145 
f 145/145/145 139/139/139 146/146/146 
f 146/146/146 139/139/139 147/147/147 
f 52/52/52 49/49/49 148/148/148 
f 52/52/52 148/148/148 149/149/149 
f 150/150/150 52/52/52 149/149/149 
f 151/151/151 52/52/52 150/150/150 
f 52/52/52 151/151/151 152/152/152 
f 152/152/152 153/153/153 52/52/52 
f 102/102/102 153/153/153 152/152/152 
f 102/102/102 98/98/98 153/153/153 
f 62/62/62 61/61/61 154/154/154 
f 155/155/155 156/156/156 157/157/157 
f 124/124/124 105/105/105 158/158/158 
f 124/124/124 103/103/103 105/105/105 
f 159/159/159 124/124/124 158/158/158 
f 125/125/125 124/124/124 159/159/159 
f 159/159/159 158/158/158 160/160/160 
f 129/129/129 161/161/161 131/131/131 
f 152/152/152 151/151/151 162/162/162 
f 135/135/135 133/133/133 163/163/163 
f 163/163/163 164/164/164 135/135/135 
f 149/149/149 148/148/148 165/165/165 
f 136/136/136 138/138/138 166/166/166 
f 167/167/167 168/168/168 169/169/169 
f 43/43/43 42/42/42 170/170/170 
f 43/43/43 170/170/170 171/171/171 
f 32/32/32 37/37/37 172/172/172 
f 32/32/32 172/172/172 173/173/173 
f 174/174/174 175/175/175 176/176/176 
f 8/8/8 30/30/30 5/5/5 
f 169/169/169 168/168/168 177/177/177 
f 169/169/169 177/177/177 178/178/178 
f 171/171/171 170/170/170 179/179/179 
f 173/173/173 172/172/172 180/180/180 
