v 1.0615 1.2118 -0.1853
v 1.01208 1.21935 -0.225775
v 1.07053 1.53604 -0.179396
v 1.01208 1.21935 -0.225775
v 1.0615 1.2118 -0.1853
v 1.00225 1.19518 -0.224301
v 1.00225 1.19518 -0.224301
v 0.96417 1.21832 -0.181333
v 1.01208 1.21935 -0.225775
v 0.960474 1.20267 -0.182872
v 0.914805 1.00922 -0.201889
v 0.934423 0.986963 -0.227319
v 0.914146 1.00643 -0.202164
v 0.930647 0.987429 -0.223642
v 0.913041 1.00175 -0.202624
v 0.913041 1.00175 -0.202624
v 0.904797 0.990025 -0.174555
v 0.914146 1.00643 -0.202164
v 0.904809 0.989979 -0.174681
v 0.912864 1.001 -0.202697
v 0.905129 0.988735 -0.178081
v 0.91012 0.989913 -0.203115
v 0.91012 0.989913 -0.203115
v 0.906144 0.988308 -0.17567
v 0.905129 0.988735 -0.178081
v 0.92927 0.987599 -0.222302
v 0.909211 0.987016 -0.168381
v 0.913789 0.985088 -0.157502
v 0.950674 0.981826 -0.207896
v 0.918337 0.983173 -0.146693
v 0.942668 0.972926 -0.0888697
v 1.04392 0.951891 -0.0913135
v 0.942668 0.972926 -0.0888697
v 1.04392 0.951891 -0.0913135
v 0.940414 0.97603 -0.0861377
v 0.942668 0.972926 -0.0888697
v 0.940414 0.97603 -0.0861377
v 0.918337 0.983173 -0.146693
v 0.901294 1.00361 -0.137413
v 0.90342 0.995366 -0.159951
v 0.901294 1.00361 -0.137413
v 0.960474 1.20267 -0.182872
v 0.90342 0.995366 -0.159951
v 0.897514 1.01827 -0.097333
v 0.892028 1.03954 -0.0391636
v 0.929047 1.17403 -0.0540613
v 0.891739 1.04067 -0.0360973
v 0.891739 1.04067 -0.0360972
v 0.950563 1.09799 0.0396876
v 0.929047 1.17403 -0.0540612
v 0.89432 1.0395 -0.0302648
v 0.950564 1.09799 0.0396875
v 0.89432 1.0395 -0.0302649
v 0.906848 1.02225 -0.0454506
v 1.08718 0.978528 -0.0561601
v 0.963103 1.11103 0.055283
v 0.963103 1.11103 0.0552831
v 0.973508 1.12186 0.0682249
v 0.931409 1.18247 -0.055199
v 0.93141 1.18247 -0.0551991
v 0.96417 1.21832 -0.181333
v 0.969266 1.2399 -0.179211
v 0.934784 1.19453 -0.0568237
v 0.969911 1.24264 -0.178943
v 0.935221 1.1961 -0.0570343
v 0.950049 1.2491 -0.064174
v 0.967614 1.31189 -0.0726318
v 0.97064 1.32271 -0.0740891
v 1.03325 1.51093 -0.152567
v 1.01386 1.47721 -0.0949004
v 1.02255 1.50826 -0.0990835
v 1.03298 1.54557 -0.104109
v 1.03728 1.528 -0.15089
v 1.03473 1.55182 -0.104951
v 1.03898 1.53518 -0.150184
v 1.03898 1.53518 -0.150184
v 1.07053 1.53604 -0.179396
v 1.03728 1.528 -0.15089
v 1.05028 1.58308 -0.145474
v 1.08214 1.61535 -0.164947
v 1.05783 1.61504 -0.142333
v 1.05934 1.62144 -0.141704
v 1.08214 1.61535 -0.164947
v 1.05934 1.62144 -0.141704
v 1.12754 1.63826 -0.102551
v 1.12754 1.63826 -0.102551
v 1.34559 1.19139 0.208434
v 1.08214 1.61535 -0.164948
v 1.29471 1.37474 0.13425
v 1.13021 1.63961 -0.0988832
v 1.13739 1.6348 -0.0888463
v 1.06267 1.58846 -0.0753815
v 1.29471 1.37474 0.13425
v 1.13739 1.6348 -0.0888464
v 1.06321 1.54727 -0.0462819
v 1.0641 1.47966 0.00148984
v 1.06703 1.25811 0.158008
v 1.23096 1.2262 0.222379
v 1.06754 1.21966 0.185176
v 1.06754 1.21966 0.185176
v 1.23096 1.2262 0.222379
v 1.0098 1.15961 0.113367
v 0.973508 1.12186 0.0682248
v 1.0098 1.15961 0.113367
v 0.934784 1.19453 -0.0568236
v 0.935221 1.1961 -0.0570342
v 0.950049 1.2491 -0.0641739
v 1.06703 1.25811 0.158008
v 0.967614 1.31189 -0.0726317
v 0.97064 1.32271 -0.074089
v 1.0641 1.47966 0.00148998
v 1.01386 1.47721 -0.0949003
v 1.02255 1.50826 -0.0990833
v 1.06321 1.54727 -0.0462818
v 1.03298 1.54557 -0.104109
v 1.03473 1.55182 -0.104951
v 1.03552 1.55463 -0.105329
v 1.06267 1.58846 -0.0753814
v 1.04167 1.57661 -0.10829
v 1.05231 1.61464 -0.113413
v 1.06267 1.58846 -0.0753813
v 1.13739 1.6348 -0.0888462
v 1.05231 1.61464 -0.113413
v 1.05386 1.61819 -0.116857
v 1.05386 1.61819 -0.116857
v 1.04167 1.57661 -0.10829
v 1.05231 1.61464 -0.113413
v 1.05028 1.58308 -0.145474
v 1.03552 1.55463 -0.105329
v 1.05783 1.61504 -0.142333
v 1.05455 1.61977 -0.118396
v 1.0576 1.62657 -0.125457
v 1.05757 1.62668 -0.125111
v 1.11719 1.63729 -0.103584
v 1.0576 1.62657 -0.125457
v 1.05757 1.62668 -0.125111
v 1.05934 1.62144 -0.141704
v 1.13021 1.63961 -0.0988831
v 1.11719 1.63729 -0.103583
v 1.13021 1.63961 -0.0988831
v 1.05455 1.61977 -0.118396
v 1.05757 1.62668 -0.125111
v 1.06754 1.21966 0.185176
v 1.30037 1.13914 0.146894
v 1.24446 1.22674 0.225451
v 1.24446 1.22674 0.225451
v 1.35362 1.23111 0.250302
v 1.36137 1.23142 0.252066
v 1.34559 1.19139 0.208434
v 1.29471 1.37474 0.13425
v 1.36137 1.23142 0.252066
v 1.36137 1.23142 0.252066
v 1.34559 1.19139 0.208434
v 1.35362 1.23111 0.250302
v 1.0615 1.2118 -0.1853
v 1.30037 1.13914 0.146894
v 1.07053 1.53604 -0.179396
v 1.0615 1.2118 -0.1853
v 1.30037 1.13914 0.146894
v 1.21453 1.02748 0.0173837
v 1.0615 1.2118 -0.1853
v 1.21453 1.02748 0.0173837
v 1.08718 0.978528 -0.0561601
v 1.04472 0.951726 -0.0913327
v 1.0615 1.2118 -0.1853
v 1.08718 0.978528 -0.0561601
v 0.950674 0.981826 -0.207896
v 0.935992 0.986525 -0.226093
v 0.935 0.986802 -0.226869
v 1.0615 1.2118 -0.1853
v 0.935992 0.986525 -0.226093
v 1.00225 1.19518 -0.224301
v 0.934423 0.986963 -0.227319
v 0.935 0.986802 -0.226869
v 0.930647 0.987429 -0.223642
v 0.934423 0.986963 -0.227319
v 0.935992 0.986525 -0.226093
v 0.912864 1.001 -0.202697
v 0.92927 0.987599 -0.222302
v 0.910254 0.989944 -0.203784
v 0.910223 0.989937 -0.20363
v 0.910254 0.989944 -0.203784
v 0.910223 0.989937 -0.20363
v 0.910254 0.989944 -0.203784
v 1.04472 0.951726 -0.0913327
v 1.04472 0.951726 -0.0913327
v 0.933065 0.986149 -0.0772291
v 0.933065 0.986149 -0.0772291
v 0.897514 1.01827 -0.097333
v 0.906848 1.02225 -0.0454506
v 0.892028 1.03954 -0.0391636
v 0.89432 1.0395 -0.030265
v 0.891739 1.04067 -0.0360973
v 1.21453 1.02748 0.0173837
v 1.03325 1.51093 -0.152567
v 0.969911 1.24264 -0.178943
v 0.969266 1.2399 -0.179211
v 0.914805 1.00922 -0.201889
v 0.904708 0.990371 -0.173608
v 0.904736 0.990261 -0.173908
v 0.906144 0.988308 -0.17567
v 0.904736 0.990261 -0.173908
v 0.904797 0.990025 -0.174555
v 0.904708 0.990371 -0.173608
v 0.909211 0.987016 -0.168381
v 0.913789 0.985088 -0.157502
v 0.904809 0.989979 -0.174681
v 0.90513 0.988735 -0.178081
vt 0.8704 0.7989
vt 0.877486 0.801158
vt 0.864176 0.835567
vt 0.877486 0.801158
vt 0.8704 0.7989
vt 0.878406 0.79755
vt 1.28209 -0.885444
vt 1.30586 -0.828281
vt 1.30691 -0.89363
vt 1.28978 -0.826631
vt 1.09115 -0.806247
vt 1.0683 -0.837943
vt 1.08829 -0.805952
vt 1.06878 -0.832674
vt 1.08348 -0.805459
vt -0.313319 -1.196
vt -0.284791 -1.1826
vt -0.312852 -1.2008
vt -0.284919 -1.18256
vt -0.313394 -1.19523
vt -0.288375 -1.18143
vt -0.313819 -1.18381
vt -0.302516 0.687371
vt -0.274967 0.68381
vt -0.277388 0.682729
vt -0.321775 0.706588
vt -0.267651 0.687077
vt -0.25673 0.691953
vt -0.307315 0.728721
vt -0.245881 0.696797
vt -0.187839 0.722714
vt -0.190292 0.826129
vt -0.836399 0.619108
vt -0.938519 0.602612
vt -0.834126 0.623232
vt 0.156622 -0.0570519
vt 0.1594 -0.0608546
vt 0.0978352 -0.0812312
vt 0.107271 -0.107787
vt 0.0843563 -0.100344
vt -0.247041 -1.1949
vt -0.293245 -1.40241
vt -0.269949 -1.18744
vt -0.206306 -1.20818
vt -0.147185 -1.22744
vt -0.162327 -1.3669
vt -0.144069 -1.22846
vt 1.23403 0.37451
vt 1.29406 0.46878
vt 1.37367 0.375534
vt 1.23281 0.380877
vt -0.844363 0.798462
vt -0.787638 0.707573
vt -0.800273 0.68465
vt -0.982153 0.646351
vt -0.857009 0.818725
vt 1.30772 0.488378
vt 1.31905 0.504641
vt 1.38251 0.375599
vt -0.163483 -1.37567
vt -0.29168 -1.41849
vt -0.289524 -1.44066
vt -0.165134 -1.38819
vt -0.289251 -1.44347
vt -0.165349 -1.38981
vt -0.172605 -1.44483
vt -0.181201 -1.51002
vt -0.182682 -1.52125
vt -0.262444 -1.7191
vt -0.203834 -1.68163
vt -0.208085 -1.71387
vt -0.213193 -1.7526
vt -0.260739 -1.73663
vt -0.214049 -1.75909
vt -0.260022 -1.74401
vt 1.6312 -0.861671
vt 1.63209 -0.904674
vt 1.62383 -0.860914
vt 1.68039 -0.866719
vt 1.71352 -0.903286
vt 1.7132 -0.870086
vt 1.71978 -0.870761
vt -1.17304 -0.338809
vt -1.15021 -0.362802
vt -1.21853 -0.405227
vt 0.851428 0.846872
vt 0.814101 0.795255
vt 0.860783 0.844491
vt 0.821733 0.816252
vt 0.850878 0.847012
vt 0.849514 0.846434
vt -1.21464 1.34278
vt -1.45171 1.04737
vt -1.29098 1.38843
vt -1.2152 1.29235
vt -1.21611 1.20956
vt -1.2191 0.938302
vt -1.38658 0.875174
vt -1.21962 0.891217
vt -0.96234 0.987494
vt -1.12716 1.0186
vt -0.90411 0.894193
vt -0.867504 0.83554
vt 1.35857 0.561367
vt 1.39514 0.375692
vt 1.39678 0.375704
vt 1.45228 0.376111
vt 1.46171 0.627193
vt 1.51802 0.376594
vt 1.52935 0.376677
vt 1.69369 0.48656
vt 1.69112 0.377864
vt 1.72363 0.378103
vt 1.76449 0.443637
vt 1.7627 0.378389
vt 1.76925 0.378437
vt 1.77218 0.378459
vt 1.80762 0.417491
vt 1.7952 0.378628
vt 1.83502 0.37892
vt -1.40445 1.06341
vt -1.48403 1.10316
vt -1.39342 1.10942
vt -1.39507 1.11434
vt -0.22615 -1.82812
vt -0.217443 -1.78482
vt -0.22265 -1.8243
vt -0.255235 -1.79322
vt -0.214433 -1.762
vt -0.252043 -1.82605
vt -0.227713 -1.82983
vt -0.234891 -1.83718
vt -0.234538 -1.83727
vt -1.20816 -0.403946
vt -1.14847 -0.379839
vt -1.14843 -0.380203
vt -0.251403 -1.83263
vt -1.2212 -0.409131
vt -1.46252 1.11615
vt -1.47638 1.11397
vt -1.39581 1.11653
vt -1.39902 1.1261
vt 1.42145 0.651604
vt -1.19717 0.903732
vt -1.14077 1.02117
vt -1.40037 0.873849
vt -1.5119 0.863132
vt -1.51981 0.862372
vt 0.814101 0.795255
vt 0.821733 0.816252
vt 0.809396 0.799076
vt -1.25868 1.04342
vt -1.24277 0.984241
vt -1.25087 1.04195
vt 0.8704 0.7989
vt 0.823819 0.789552
vt 0.864176 0.835567
vt 0.8704 0.7989
vt 0.823819 0.789552
vt 0.841458 0.778731
vt 0.8704 0.7989
vt 0.841458 0.778731
vt 0.856792 0.77227
vt 0.863571 0.767845
vt 0.8704 0.7989
vt 0.856792 0.77227
vt 0.881991 0.768553
vt 0.884867 0.768664
vt 0.885008 0.768721
vt 0.8704 0.7989
vt 0.884867 0.768664
vt 0.878406 0.79755
vt 0.88509 0.768754
vt -0.326359 0.71236
vt -0.323121 0.707971
vt -0.326812 0.711762
vt -0.325581 0.713388
vt 1.08272 -0.80538
vt 1.06895 -0.830752
vt 1.07136 -0.804215
vt -0.314342 -1.18386
vt -0.314499 -1.18387
vt -0.303033 0.687467
vt -0.303188 0.687496
vt -0.190311 0.826941
vt -0.939321 0.602482
vt -0.826714 0.63668
vt 0.168457 -0.0732543
vt 0.148018 -0.121024
vt 0.200765 -0.117486
vt 0.207157 -0.140234
vt 0.216203 -0.138623
vt 0.210274 -0.141247
vt -1.11059 0.733102
vt 1.60631 -0.859116
vt 1.33082 -0.830844
vt 1.32802 -0.830556
vt -0.312573 -1.20367
vt -0.283829 -1.18292
vt -0.284134 -1.18282
vt 0.0683756 -0.0933481
vt 0.0701668 -0.0957346
vt 0.0695093 -0.095521
vt 0.0704716 -0.0958336
vt 0.0757861 -0.0903001
vt 0.0868469 -0.0857508
vt 0.0693817 -0.0954796
vt 0.0659243 -0.0943564
vn 0.633299 -0.0035528 -0.773899
vn 0.633299 -0.0035528 -0.773899
vn 0.633299 -0.0035528 -0.773899
vn 0.581502 -0.282908 -0.76277
vn 0.581502 -0.282908 -0.76277
vn 0.581502 -0.282908 -0.76277
vn -0.664933 0.226936 -0.711593
vn -0.664933 0.226936 -0.711593
vn -0.664933 0.226936 -0.711593
vn -0.664933 0.226936 -0.711593
vn -0.664933 0.226936 -0.711593
vn -0.664933 0.226936 -0.711593
vn -0.664933 0.226936 -0.711593
vn -0.664933 0.226936 -0.711593
vn -0.664933 0.226936 -0.711593
vn -0.95351 0.242676 -0.178683
vn -0.95351 0.242676 -0.178683
vn -0.95351 0.242676 -0.178683
vn -0.95351 0.242676 -0.178683
vn -0.95351 0.242676 -0.178683
vn -0.95351 0.242676 -0.178683
vn -0.95351 0.242676 -0.178683
vn -0.20464 -0.974993 -0.0866665
vn -0.20464 -0.974993 -0.0866665
vn -0.20464 -0.974993 -0.0866665
vn -0.20464 -0.974993 -0.0866665
vn -0.20464 -0.974993 -0.0866665
vn -0.20464 -0.974993 -0.0866665
vn -0.20464 -0.974993 -0.0866665
vn -0.20464 -0.974993 -0.0866665
vn -0.20464 -0.974993 -0.0866665
vn -0.20464 -0.974993 -0.0866665
vn -0.130022 -0.706679 0.695484
vn -0.130022 -0.706679 0.695484
vn -0.130022 -0.706679 0.695484
vn -0.71359 -0.676965 0.1803
vn -0.71359 -0.676965 0.1803
vn -0.71359 -0.676965 0.1803
vn -0.71359 -0.676965 0.1803
vn -0.71359 -0.676965 0.1803
vn -0.95351 0.242676 -0.178683
vn -0.95351 0.242676 -0.178683
vn -0.95351 0.242676 -0.178683
vn -0.95351 0.242676 -0.178683
vn -0.95351 0.242676 -0.178683
vn -0.95351 0.242676 -0.178683
vn -0.95351 0.242676 -0.178683
vn -0.849974 0.296444 0.435505
vn -0.849974 0.296444 0.435505
vn -0.849974 0.296444 0.435505
vn -0.849974 0.296444 0.435505
vn -0.130022 -0.706679 0.695484
vn -0.130022 -0.706679 0.695484
vn -0.130022 -0.706679 0.695484
vn -0.130022 -0.706679 0.695484
vn -0.130022 -0.706679 0.695484
vn -0.849974 0.296444 0.435505
vn -0.849974 0.296444 0.435505
vn -0.849974 0.296444 0.435505
vn -0.95351 0.242676 -0.178683
vn -0.95351 0.242676 -0.178683
vn -0.95351 0.242676 -0.178683
vn -0.95351 0.242676 -0.178683
vn -0.95351 0.242676 -0.178683
vn -0.95351 0.242676 -0.178683
vn -0.95351 0.242676 -0.178683
vn -0.95351 0.242676 -0.178683
vn -0.95351 0.242676 -0.178683
vn -0.95351 0.242676 -0.178683
vn -0.95351 0.242676 -0.178683
vn -0.95351 0.242676 -0.178683
vn -0.95351 0.242676 -0.178683
vn -0.95351 0.242676 -0.178683
vn -0.95351 0.242676 -0.178683
vn -0.95351 0.242676 -0.178683
vn -0.664933 0.226936 -0.711593
vn -0.664933 0.226936 -0.711593
vn -0.664933 0.226936 -0.711593
vn -0.664933 0.226936 -0.711593
vn -0.664933 0.226936 -0.711593
vn -0.664933 0.226936 -0.711593
vn -0.664933 0.226936 -0.711593
vn -0.058409 0.950108 -0.306404
vn -0.058409 0.950108 -0.306404
vn -0.058409 0.950108 -0.306404
vn 0.810592 -0.0119227 -0.58549
vn 0.810592 -0.0119227 -0.58549
vn 0.810592 -0.0119227 -0.58549
vn 0.810592 -0.0119227 -0.58549
vn 0.810592 -0.0119227 -0.58549
vn 0.810592 -0.0119227 -0.58549
vn -0.204827 0.56297 0.800694
vn -0.204827 0.56297 0.800694
vn -0.204827 0.56297 0.800694
vn -0.204827 0.56297 0.800694
vn -0.204827 0.56297 0.800694
vn -0.204827 0.56297 0.800694
vn -0.204827 0.56297 0.800694
vn -0.204827 0.56297 0.800694
vn -0.130022 -0.706679 0.695484
vn -0.130022 -0.706679 0.695484
vn -0.130022 -0.706679 0.695484
vn -0.130022 -0.706679 0.695484
vn -0.849974 0.296444 0.435505
vn -0.849974 0.296444 0.435505
vn -0.849974 0.296444 0.435505
vn -0.849974 0.296444 0.435505
vn -0.849974 0.296444 0.435505
vn -0.849974 0.296444 0.435505
vn -0.849974 0.296444 0.435505
vn -0.849974 0.296444 0.435505
vn -0.849974 0.296444 0.435505
vn -0.849974 0.296444 0.435505
vn -0.849974 0.296444 0.435505
vn -0.849974 0.296444 0.435505
vn -0.849974 0.296444 0.435505
vn -0.849974 0.296444 0.435505
vn -0.849974 0.296444 0.435505
vn -0.849974 0.296444 0.435505
vn -0.849974 0.296444 0.435505
vn -0.343869 0.727165 0.594126
vn -0.343869 0.727165 0.594126
vn -0.343869 0.727165 0.594126
vn -0.343869 0.727165 0.594126
vn -0.95351 0.242676 -0.178683
vn -0.95351 0.242676 -0.178683
vn -0.95351 0.242676 -0.178683
vn -0.95351 0.242676 -0.178683
vn -0.95351 0.242676 -0.178683
vn -0.95351 0.242676 -0.178683
vn -0.95351 0.242676 -0.178683
vn -0.95351 0.242676 -0.178683
vn -0.95351 0.242676 -0.178683
vn -0.058409 0.950108 -0.306404
vn -0.058409 0.950108 -0.306404
vn -0.058409 0.950108 -0.306404
vn -0.95351 0.242676 -0.178683
vn -0.058409 0.950108 -0.306404
vn -0.343869 0.727165 0.594126
vn -0.343869 0.727165 0.594126
vn -0.343869 0.727165 0.594126
vn -0.343869 0.727165 0.594126
vn -0.849974 0.296444 0.435505
vn -0.130022 -0.706679 0.695484
vn -0.130022 -0.706679 0.695484
vn -0.204827 0.56297 0.800694
vn -0.204827 0.56297 0.800694
vn -0.204827 0.56297 0.800694
vn 0.908687 0.086987 -0.408316
vn 0.908687 0.086987 -0.408316
vn 0.908687 0.086987 -0.408316
vn -0.130022 -0.706679 0.695484
vn -0.130022 -0.706679 0.695484
vn -0.130022 -0.706679 0.695484
vn 0.810592 -0.0119227 -0.58549
vn 0.810592 -0.0119227 -0.58549
vn 0.810592 -0.0119227 -0.58549
vn 0.815532 0.0424335 -0.577154
vn 0.815532 0.0424335 -0.577154
vn 0.815532 0.0424335 -0.577154
vn 0.565782 -0.350808 -0.746207
vn 0.565782 -0.350808 -0.746207
vn 0.565782 -0.350808 -0.746207
vn 0.710848 -0.279132 -0.645585
vn 0.710848 -0.279132 -0.645585
vn 0.710848 -0.279132 -0.645585
vn 0.710848 -0.279132 -0.645585
vn 0.710848 -0.279132 -0.645585
vn 0.575225 -0.175813 -0.798878
vn 0.575225 -0.175813 -0.798878
vn 0.575225 -0.175813 -0.798878
vn 0.575225 -0.175813 -0.798878
vn 0.575225 -0.175813 -0.798878
vn -0.20464 -0.974993 -0.0866665
vn -0.20464 -0.974993 -0.0866665
vn -0.20464 -0.974993 -0.0866665
vn -0.20464 -0.974993 -0.0866665
vn -0.664933 0.226936 -0.711593
vn -0.664933 0.226936 -0.711593
vn -0.664933 0.226936 -0.711593
vn -0.95351 0.242676 -0.178683
vn -0.95351 0.242676 -0.178683
vn -0.20464 -0.974993 -0.0866665
vn -0.20464 -0.974993 -0.0866665
vn -0.20464 -0.974993 -0.0866665
vn -0.130022 -0.706679 0.695484
vn -0.130022 -0.706679 0.695484
vn -0.71359 -0.676965 0.1803
vn -0.71359 -0.676965 0.1803
vn -0.71359 -0.676965 0.1803
vn -0.71359 -0.676965 0.1803
vn -0.71359 -0.676965 0.1803
vn -0.71359 -0.676965 0.1803
vn -0.130022 -0.706679 0.695484
vn -0.664933 0.226936 -0.711593
vn -0.664933 0.226936 -0.711593
vn -0.664933 0.226936 -0.711593
vn -0.95351 0.242676 -0.178683
vn -0.95351 0.242676 -0.178683
vn -0.95351 0.242676 -0.178683
vn -0.71359 -0.676965 0.1803
vn -0.71359 -0.676965 0.1803
vn -0.71359 -0.676965 0.1803
vn -0.71359 -0.676965 0.1803
vn -0.71359 -0.676965 0.1803
vn -0.71359 -0.676965 0.1803
vn -0.71359 -0.676965 0.1803
vn -0.71359 -0.676965 0.1803
f 1/1/1 2/2/2 3/3/3 
f 4/4/4 5/5/5 6/6/6 
f 7/7/7 8/8/8 9/9/9 
f 7/7/7 10/10/10 8/8/8 
f 7/7/7 11/11/11 10/10/10 
f 12/12/12 11/11/11 7/7/7 
f 12/12/12 13/13/13 11/11/11 
f 14/14/14 13/13/13 12/12/12 
f 13/13/13 14/14/14 15/15/15 
f 16/16/16 17/17/17 18/18/18 
f 16/16/16 19/19/19 17/17/17 
f 20/20/20 19/19/19 16/16/16 
f 20/20/20 21/21/21 19/19/19 
f 22/22/22 21/21/21 20/20/20 
f 23/23/23 24/24/24 25/25/25 
f 26/26/26 24/24/24 23/23/23 
f 26/26/26 27/27/27 24/24/24 
f 26/26/26 28/28/28 27/27/27 
f 29/29/29 28/28/28 26/26/26 
f 29/29/29 30/30/30 28/28/28 
f 29/29/29 31/31/31 30/30/30 
f 32/32/32 31/31/31 29/29/29 
f 33/33/33 34/34/34 35/35/35 
f 36/36/36 37/37/37 38/38/38 
f 38/38/38 37/37/37 39/39/39 
f 39/39/39 40/40/40 38/38/38 
f 41/41/41 42/42/42 43/43/43 
f 42/42/42 41/41/41 44/44/44 
f 45/45/45 42/42/42 44/44/44 
f 45/45/45 46/46/46 42/42/42 
f 47/47/47 46/46/46 45/45/45 
f 48/48/48 49/49/49 50/50/50 
f 51/51/51 49/49/49 48/48/48 
f 52/52/52 53/53/53 54/54/54 
f 52/52/52 54/54/54 55/55/55 
f 52/52/52 55/55/55 56/56/56 
f 57/57/57 50/50/50 49/49/49 
f 58/58/58 50/50/50 57/57/57 
f 50/50/50 58/58/58 59/59/59 
f 60/60/60 61/61/61 46/46/46 
f 60/60/60 62/62/62 61/61/61 
f 63/63/63 62/62/62 60/60/60 
f 63/63/63 64/64/64 62/62/62 
f 65/65/65 64/64/64 63/63/63 
f 64/64/64 65/65/65 66/66/66 
f 67/67/67 64/64/64 66/66/66 
f 64/64/64 67/67/67 68/68/68 
f 68/68/68 69/69/69 64/64/64 
f 70/70/70 69/69/69 68/68/68 
f 69/69/69 70/70/70 71/71/71 
f 69/69/69 71/71/71 72/72/72 
f 72/72/72 73/73/73 69/69/69 
f 74/74/74 73/73/73 72/72/72 
f 73/73/73 74/74/74 75/75/75 
f 76/76/76 77/77/77 78/78/78 
f 79/79/79 77/77/77 76/76/76 
f 79/79/79 80/80/80 77/77/77 
f 81/81/81 80/80/80 79/79/79 
f 82/82/82 80/80/80 81/81/81 
f 83/83/83 84/84/84 85/85/85 
f 86/86/86 87/87/87 88/88/88 
f 86/86/86 89/89/89 87/87/87 
f 90/90/90 89/89/89 86/86/86 
f 91/91/91 89/89/89 90/90/90 
f 92/92/92 93/93/93 94/94/94 
f 95/95/95 93/93/93 92/92/92 
f 96/96/96 93/93/93 95/95/95 
f 93/93/93 96/96/96 97/97/97 
f 97/97/97 98/98/98 93/93/93 
f 99/99/99 98/98/98 97/97/97 
f 100/100/100 55/55/55 101/101/101 
f 102/102/102 55/55/55 100/100/100 
f 103/103/103 55/55/55 102/102/102 
f 56/56/56 55/55/55 103/103/103 
f 59/59/59 58/58/58 104/104/104 
f 105/105/105 59/59/59 104/104/104 
f 105/105/105 104/104/104 106/106/106 
f 107/107/107 106/106/106 104/104/104 
f 107/107/107 104/104/104 108/108/108 
f 108/108/108 109/109/109 107/107/107 
f 108/108/108 110/110/110 109/109/109 
f 111/111/111 110/110/110 108/108/108 
f 111/111/111 112/112/112 110/110/110 
f 111/111/111 113/113/113 112/112/112 
f 114/114/114 113/113/113 111/111/111 
f 114/114/114 115/115/115 113/113/113 
f 114/114/114 116/116/116 115/115/115 
f 114/114/114 117/117/117 116/116/116 
f 118/118/118 117/117/117 114/114/114 
f 118/118/118 119/119/119 117/117/117 
f 118/118/118 120/120/120 119/119/119 
f 121/121/121 122/122/122 123/123/123 
f 123/123/123 122/122/122 124/124/124 
f 125/125/125 126/126/126 127/127/127 
f 128/128/128 126/126/126 125/125/125 
f 128/128/128 129/129/129 126/126/126 
f 75/75/75 129/129/129 128/128/128 
f 75/75/75 74/74/74 129/129/129 
f 128/128/128 125/125/125 130/130/130 
f 130/130/130 125/125/125 131/131/131 
f 131/131/131 132/132/132 130/130/130 
f 132/132/132 131/131/131 133/133/133 
f 134/134/134 135/135/135 136/136/136 
f 85/85/85 135/135/135 134/134/134 
f 85/85/85 84/84/84 135/135/135 
f 130/130/130 132/132/132 137/137/137 
f 85/85/85 134/134/134 138/138/138 
f 139/139/139 122/122/122 140/140/140 
f 141/141/141 122/122/122 139/139/139 
f 124/124/124 122/122/122 141/141/141 
f 139/139/139 142/142/142 141/141/141 
f 143/143/143 108/108/108 104/104/104 
f 101/101/101 55/55/55 144/144/144 
f 101/101/101 144/144/144 145/145/145 
f 93/93/93 98/98/98 146/146/146 
f 93/93/93 146/146/146 147/147/147 
f 148/148/148 93/93/93 147/147/147 
f 149/149/149 150/150/150 151/151/151 
f 152/152/152 144/144/144 153/153/153 
f 154/154/154 144/144/144 152/152/152 
f 145/145/145 144/144/144 154/154/154 
f 155/155/155 87/87/87 156/156/156 
f 157/157/157 87/87/87 155/155/155 
f 88/88/88 87/87/87 157/157/157 
f 158/158/158 159/159/159 160/160/160 
f 161/161/161 162/162/162 163/163/163 
f 164/164/164 165/165/165 166/166/166 
f 167/167/167 165/165/165 164/164/164 
f 165/165/165 167/167/167 168/168/168 
f 169/169/169 170/170/170 171/171/171 
f 169/169/169 172/172/172 170/170/170 
f 173/173/173 172/172/172 169/169/169 
f 174/174/174 175/175/175 176/176/176 
f 177/177/177 175/175/175 174/174/174 
f 177/177/177 26/26/26 175/175/175 
f 29/29/29 26/26/26 177/177/177 
f 178/178/178 14/14/14 179/179/179 
f 15/15/15 14/14/14 178/178/178 
f 178/178/178 179/179/179 180/180/180 
f 181/181/181 20/20/20 182/182/182 
f 22/22/22 20/20/20 181/181/181 
f 183/183/183 26/26/26 23/23/23 
f 184/184/184 26/26/26 183/183/183 
f 185/185/185 32/32/32 29/29/29 
f 55/55/55 34/34/34 186/186/186 
f 187/187/187 34/34/34 55/55/55 
f 35/35/35 34/34/34 187/187/187 
f 37/37/37 188/188/188 39/39/39 
f 188/188/188 189/189/189 39/39/39 
f 188/188/188 190/190/190 189/189/189 
f 55/55/55 54/54/54 187/187/187 
f 190/190/190 191/191/191 189/189/189 
f 190/190/190 192/192/192 191/191/191 
f 191/191/191 192/192/192 193/193/193 
f 144/144/144 55/55/55 194/194/194 
f 78/78/78 77/77/77 195/195/195 
f 195/195/195 77/77/77 196/196/196 
f 196/196/196 77/77/77 9/9/9 
f 9/9/9 197/197/197 196/196/196 
f 9/9/9 8/8/8 197/197/197 
f 46/46/46 61/61/61 42/42/42 
f 43/43/43 42/42/42 198/198/198 
f 198/198/198 199/199/199 43/43/43 
f 198/198/198 200/200/200 199/199/199 
f 18/18/18 200/200/200 198/198/198 
f 18/18/18 17/17/17 200/200/200 
f 201/201/201 202/202/202 203/203/203 
f 201/201/201 204/204/204 202/202/202 
f 201/201/201 205/205/205 204/204/204 
f 205/205/205 40/40/40 204/204/204 
f 205/205/205 206/206/206 40/40/40 
f 38/38/38 40/40/40 206/206/206 
f 201/201/201 203/203/203 207/207/207 
f 201/201/201 207/207/207 208/208/208 
