v 0.450866 1.91516 -0.709908
v 0.433593 1.90341 -0.730442
v 0.446759 1.92702 -0.700737
v 0.450866 1.91516 -0.709908
v 0.349113 1.82632 -0.728252
v 0.433593 1.90341 -0.730442
v 0.359513 1.82414 -0.66757
v 0.359513 1.82414 -0.66757
v 0.450866 1.91516 -0.709908
v 0.358332 1.82701 -0.665182
v 0.359513 1.82414 -0.66757
v 0.358332 1.82701 -0.665182
v 0.349113 1.82632 -0.728252
v 0.353711 1.83823 -0.655833
v 0.446759 1.92702 -0.700737
v 0.353711 1.83823 -0.655833
v 0.430323 1.9745 -0.664037
v 0.285854 2.003 -0.518554
v 0.285854 2.003 -0.518554
v 0.286873 1.99609 -0.536298
v 0.294601 1.96745 -0.586936
v 0.297321 1.95365 -0.617921
v 0.302654 1.92659 -0.678676
v 0.309489 1.89191 -0.756536
v 0.318904 1.87318 -0.760979
v 0.347144 1.82673 -0.739741
v 0.341664 1.82788 -0.771719
v 0.341663 1.82788 -0.771718
v 0.379165 1.86267 -0.775657
v 0.347144 1.82673 -0.739741
v 0.318904 1.87318 -0.760979
v 0.379165 1.86267 -0.775657
v 0.341664 1.82788 -0.771719
v 0.3834 1.8865 -0.7736
v 0.309489 1.89191 -0.756536
v 0.302654 1.92659 -0.678676
v 0.3834 1.8865 -0.7736
v 0.309489 1.89191 -0.756536
v 0.297321 1.95365 -0.617921
v 0.294601 1.96745 -0.586936
v 0.294601 1.96745 -0.586936
v 0.430323 1.9745 -0.664037
v 0.3834 1.8865 -0.7736
v 0.286873 1.99609 -0.536298
v 0.284716 2.00862 -0.514948
v 0.283589 2.00827 -0.514779
v 0.284716 2.00862 -0.514948
v 0.283589 2.00827 -0.514779
v 0.283858 2.00784 -0.514515
v 0.284716 2.00862 -0.514948
v 0.283858 2.00784 -0.514515
v 0.283858 2.00784 -0.514515
v 0.28359 2.00827 -0.514779
v 0.3834 1.8865 -0.7736
v 0.430323 1.9745 -0.664037
v 0.3834 1.8865 -0.7736
v 0.433593 1.90341 -0.730442
v 0.379165 1.86267 -0.775657
vt 0.944155 0.910126
vt 0.947623 0.909336
vt 0.942597 0.912372
vt -0.859409 1.62095
vt -0.877937 1.4859
vt -0.880149 1.60027
vt -0.816648 1.49214
vt 1.65011 0.716181
vt 1.74612 0.812122
vt 1.65314 0.713696
vt -0.504905 -1.43561
vt -0.502495 -1.43869
vt -0.566128 -1.44246
vt -0.493062 -1.45077
vt 1.75863 0.802896
vt 1.66497 0.703971
vt 1.80872 0.765976
vt 1.83878 0.561171
vt -0.354559 -1.62801
vt -0.372461 -1.62145
vt -0.42355 -1.59256
vt -0.454812 -1.57912
vt -0.51611 -1.55277
vt -0.594664 -1.519
vt -0.599146 -1.49804
vt -0.577719 -1.44376
vt -0.609982 -1.44737
vt -0.921838 1.48143
vt -0.925816 1.53259
vt -0.889541 1.48472
vt 0.154894 0.648647
vt 0.151448 0.653321
vt 0.150071 0.645449
vt 0.1533 0.6566
vt 0.156889 0.649969
vt 0.168226 0.656498
vt 0.1533 0.6566
vt 0.156889 0.649969
vt 0.177072 0.661593
vt 0.181584 0.664191
vt 0.181584 0.664191
vt 0.168931 0.67275
vt 0.1533 0.6566
vt 0.189096 0.668183
vt 0.192253 0.669995
vt 0.192289 0.669879
vt -0.304008 1.98823
vt -0.302881 1.98784
vt -0.303149 1.98734
vt 1.84471 0.557895
vt 1.84389 0.55697
vt -0.350484 -1.63322
vt -0.35075 -1.63372
vt 0.9549 0.9099
vt 0.936361 0.921357
vt 0.9549 0.9099
vt 0.947623 0.909336
vt 0.956053 0.906664
vn 0.361334 0.645308 -0.673064
vn 0.361334 0.645308 -0.673064
vn 0.361334 0.645308 -0.673064
vn 0.665399 -0.733173 -0.140364
vn 0.665399 -0.733173 -0.140364
vn 0.665399 -0.733173 -0.140364
vn 0.665399 -0.733173 -0.140364
vn 0.640803 -0.318193 0.698659
vn 0.640803 -0.318193 0.698659
vn 0.640803 -0.318193 0.698659
vn -0.872666 -0.469943 0.13269
vn -0.872666 -0.469943 0.13269
vn -0.872666 -0.469943 0.13269
vn -0.872666 -0.469943 0.13269
vn 0.640803 -0.318193 0.698659
vn 0.640803 -0.318193 0.698659
vn 0.640803 -0.318193 0.698659
vn 0.640803 -0.318193 0.698659
vn -0.872666 -0.469943 0.13269
vn -0.872666 -0.469943 0.13269
vn -0.872666 -0.469943 0.13269
vn -0.872666 -0.469943 0.13269
vn -0.872666 -0.469943 0.13269
vn -0.872666 -0.469943 0.13269
vn -0.872666 -0.469943 0.13269
vn -0.872666 -0.469943 0.13269
vn -0.872666 -0.469943 0.13269
vn 0.665399 -0.733173 -0.140364
vn 0.665399 -0.733173 -0.140364
vn 0.665399 -0.733173 -0.140364
vn -0.214791 0.121825 -0.969032
vn -0.214791 0.121825 -0.969032
vn -0.214791 0.121825 -0.969032
vn -0.214791 0.121825 -0.969032
vn -0.214791 0.121825 -0.969032
vn -0.0275299 0.912255 -0.408697
vn -0.0275299 0.912255 -0.408697
vn -0.0275299 0.912255 -0.408697
vn -0.0275299 0.912255 -0.408697
vn -0.0275299 0.912255 -0.408697
vn -0.327132 0.800214 -0.502635
vn -0.327132 0.800214 -0.502635
vn -0.327132 0.800214 -0.502635
vn -0.327132 0.800214 -0.502635
vn -0.327132 0.800214 -0.502635
vn -0.327132 0.800214 -0.502635
vn -0.0330282 0.512897 0.857814
vn -0.0330282 0.512897 0.857814
vn -0.0330282 0.512897 0.857814
vn 0.640803 -0.318193 0.698659
vn 0.640803 -0.318193 0.698659
vn -0.872666 -0.469943 0.13269
vn -0.872666 -0.469943 0.13269
vn 0.361334 0.645308 -0.673064
vn 0.361334 0.645308 -0.673064
vn 0.661245 -0.0529 -0.748303
vn 0.661245 -0.0529 -0.748303
vn 0.661245 -0.0529 -0.748303
f 1/1/1 2/2/2 3/3/3 
f 4/4/4 5/5/5 6/6/6 
f 4/4/4 7/7/7 5/5/5 
f 8/8/8 9/9/9 10/10/10 
f 11/11/11 12/12/12 13/13/13 
f 12/12/12 14/14/14 13/13/13 
f 10/10/10 15/15/15 16/16/16 
f 10/10/10 9/9/9 15/15/15 
f 16/16/16 15/15/15 17/17/17 
f 16/16/16 17/17/17 18/18/18 
f 14/14/14 19/19/19 20/20/20 
f 14/14/14 20/20/20 21/21/21 
f 14/14/14 21/21/21 22/22/22 
f 14/14/14 22/22/22 23/23/23 
f 23/23/23 13/13/13 14/14/14 
f 24/24/24 13/13/13 23/23/23 
f 13/13/13 24/24/24 25/25/25 
f 25/25/25 26/26/26 13/13/13 
f 26/26/26 25/25/25 27/27/27 
f 28/28/28 29/29/29 30/30/30 
f 31/31/31 32/32/32 33/33/33 
f 31/31/31 34/34/34 32/32/32 
f 35/35/35 34/34/34 31/31/31 
f 36/36/36 37/37/37 38/38/38 
f 39/39/39 37/37/37 36/36/36 
f 40/40/40 37/37/37 39/39/39 
f 41/41/41 42/42/42 43/43/43 
f 44/44/44 42/42/42 41/41/41 
f 44/44/44 45/45/45 42/42/42 
f 46/46/46 45/45/45 44/44/44 
f 47/47/47 48/48/48 49/49/49 
f 18/18/18 50/50/50 51/51/51 
f 18/18/18 17/17/17 50/50/50 
f 19/19/19 52/52/52 53/53/53 
f 19/19/19 53/53/53 20/20/20 
f 3/3/3 54/54/54 55/55/55 
f 3/3/3 2/2/2 54/54/54 
f 56/56/56 57/57/57 58/58/58 
f 30/30/30 29/29/29 6/6/6 
f 6/6/6 5/5/5 30/30/30 
