v -1.2129 -1.70737 -0.995585
v -1.32717 -1.77753 -0.891393
v -1.31178 -1.66046 -0.89689
v -1.32717 -1.77753 -0.891393
v -1.2129 -1.70737 -0.995585
v -1.32375 -1.80511 -0.886944
v -1.20426 -1.73702 -0.840623
v -1.32717 -1.77753 -0.891392
v -1.32375 -1.80511 -0.886944
v -1.25688 -1.6929 -0.868861
v -1.31178 -1.66046 -0.89689
v -1.2129 -1.70737 -0.995586
v -1.31178 -1.66046 -0.89689
v -1.25688 -1.6929 -0.868861
v -1.19344 -1.72868 -0.858414
v -1.14232 -1.74286 -1.03985
v -1.14232 -1.74286 -1.03985
v -1.1326 -1.8421 -1.0219
v -1.14232 -1.74286 -1.03985
v -0.982828 -1.8441 -1.01328
v -1.1326 -1.8421 -1.0219
v -0.989493 -1.82893 -1.01631
v -0.989492 -1.82893 -1.01631
v -1.14196 -1.75398 -0.89827
v -0.989493 -1.82893 -1.01631
v -1.14196 -1.75398 -0.898271
v -0.982828 -1.8441 -1.01328
v -1.03172 -1.96181 -0.877829
v -1.06555 -1.94992 -0.848373
v -1.15617 -1.86583 -0.805448
v -1.13371 -1.92597 -0.789023
v -1.13371 -1.92597 -0.789022
v -1.15617 -1.86583 -0.805448
v -1.134 -1.92681 -0.789064
v -1.10379 -1.97566 -0.827392
v -1.13371 -1.92597 -0.789023
v -1.134 -1.92681 -0.789064
v -1.06555 -1.94992 -0.848373
v -1.08526 -1.99748 -0.848338
v -1.07101 -1.99571 -0.858612
v -1.03172 -1.96181 -0.87783
v -1.00598 -1.97085 -0.900245
v -1.00598 -1.97085 -0.900245
v -0.952532 -1.91307 -0.999502
v -0.994293 -1.97496 -0.910419
v -0.952531 -1.91307 -0.999502
v -0.994292 -1.97496 -0.910419
v -1.07101 -1.99571 -0.858612
v -1.1326 -1.8421 -1.0219
v -0.952531 -1.91307 -0.999502
v -1.08072 -1.99834 -0.852058
v -1.08072 -1.99834 -0.852058
v -1.27056 -1.86322 -0.856965
v -1.1326 -1.8421 -1.0219
v -1.08499 -1.99779 -0.848642
v -1.27056 -1.86322 -0.856965
v -1.08499 -1.99779 -0.848642
v -1.24992 -1.87453 -0.846523
v -1.24992 -1.87453 -0.846523
v -1.18121 -1.79877 -0.82376
v -1.27056 -1.86322 -0.856965
v -1.18121 -1.79877 -0.823761
v -1.19344 -1.72868 -0.858414
v -1.20426 -1.73702 -0.840623
v -1.32375 -1.80511 -0.886944
v -1.21051 -1.72028 -0.845195
v -1.21051 -1.72028 -0.845195
v -1.21051 -1.72028 -0.845195
v -1.13728 -1.93624 -0.789535
v -1.13728 -1.93624 -0.789535
v -1.10379 -1.97566 -0.827392
v -1.13728 -1.93624 -0.789535
v -1.08526 -1.99748 -0.848338
v -1.08072 -1.99834 -0.852058
v -1.08499 -1.99779 -0.848642
v -0.994293 -1.97496 -0.910419
vt 0.169633 0.183839
vt 0.181607 0.17777
vt 0.180339 0.189794
vt 0.181607 0.17777
vt 0.169633 0.183839
vt 0.181569 0.175178
vt -1.70256 -1.44269
vt -1.74325 -1.57561
vt -1.77096 -1.57068
vt -1.65823 -1.50225
vt -1.62564 -1.56382
vt -0.853075 0.237855
vt -0.754154 0.347097
vt -0.726062 0.283354
vt -0.71559 0.210527
vt -0.89744 0.158909
vt 0.163086 0.180218
vt 0.1632 0.1709
vt 0.163086 0.180218
vt 0.152148 0.164439
vt 0.1632 0.1709
vt 0.152513 0.166081
vt -0.873842 -0.0164802
vt -0.755538 0.153224
vt -1.06967 0.0944635
vt -0.987161 -0.095241
vt -1.08637 0.0966647
vt -1.21594 -0.0367568
vt -1.20286 -0.0812783
vt -1.11028 -0.173779
vt -1.17649 -0.170983
vt -1.89239 -1.35721
vt -1.83196 -1.38442
vt -1.89323 -1.35749
vt -2.2386 -0.377906
vt -2.18738 -0.424949
vt -2.18825 -0.425155
vt -2.21207 -0.334768
vt -2.26109 -0.350477
vt -2.25927 -0.33292
vt -2.22432 -0.29001
vt -2.23365 -0.255951
vt -1.2259 -0.00287703
vt -1.16228 0.106672
vt -1.23042 0.0125005
vt 0.150488 0.156977
vt 0.159164 0.148738
vt 0.168308 0.147208
vt 0.1632 0.1709
vt 0.150488 0.156977
vt 0.169465 0.147014
vt 0.169465 0.147014
vt 0.180137 0.166554
vt 0.1632 0.1709
vt 0.169897 0.147066
vt 0.180137 0.166554
vt 0.169897 0.147066
vt 0.179672 0.163881
vt -1.8407 -1.48677
vt -1.76459 -1.41476
vt -1.82934 -1.50988
vt -1.03646 -0.176895
vt -0.959301 -0.159298
vt -0.96849 -0.179765
vt 0.181569 0.175178
vt -0.950061 -0.180543
vt -0.702341 0.229532
vt -1.68574 -1.45027
vt -1.9027 -1.36068
vt -2.19796 -0.42748
vt 0.1725 0.147866
vt 0.177137 0.14929
vt 0.169934 0.147077
vt -2.26198 -0.344612
vt -2.26142 -0.350079
vt -2.23788 -0.240491
vn -0.691581 0.0570696 -0.720041
vn -0.691581 0.0570696 -0.720041
vn -0.691581 0.0570696 -0.720041
vn -0.590628 -0.199274 -0.781952
vn -0.590628 -0.199274 -0.781952
vn -0.590628 -0.199274 -0.781952
vn -0.406923 0.0961335 0.90839
vn -0.406923 0.0961335 0.90839
vn -0.406923 0.0961335 0.90839
vn -0.406923 0.0961335 0.90839
vn -0.406923 0.0961335 0.90839
vn 0.481702 0.873739 0.067401
vn 0.481702 0.873739 0.067401
vn 0.481702 0.873739 0.067401
vn 0.481702 0.873739 0.067401
vn 0.481702 0.873739 0.067401
vn -0.590628 -0.199274 -0.781952
vn -0.590628 -0.199274 -0.781952
vn 0.0543224 -0.172571 -0.983498
vn 0.0543224 -0.172571 -0.983498
vn 0.0543224 -0.172571 -0.983498
vn 0.0543224 -0.172571 -0.983498
vn 0.481702 0.873739 0.067401
vn 0.481702 0.873739 0.067401
vn 0.675631 0.418102 0.607218
vn 0.675631 0.418102 0.607218
vn 0.675631 0.418102 0.607218
vn 0.675631 0.418102 0.607218
vn 0.675631 0.418102 0.607218
vn 0.675631 0.418102 0.607218
vn 0.675631 0.418102 0.607218
vn -0.406923 0.0961335 0.90839
vn -0.406923 0.0961335 0.90839
vn -0.406923 0.0961335 0.90839
vn 0.587132 -0.242728 0.772243
vn 0.587132 -0.242728 0.772243
vn 0.587132 -0.242728 0.772243
vn 0.587132 -0.242728 0.772243
vn 0.587132 -0.242728 0.772243
vn 0.587132 -0.242728 0.772243
vn 0.587132 -0.242728 0.772243
vn 0.587132 -0.242728 0.772243
vn 0.675631 0.418102 0.607218
vn 0.675631 0.418102 0.607218
vn 0.675631 0.418102 0.607218
vn -0.218205 -0.750543 -0.623756
vn -0.218205 -0.750543 -0.623756
vn -0.218205 -0.750543 -0.623756
vn -0.218205 -0.750543 -0.623756
vn 0.0543224 -0.172571 -0.983498
vn -0.218205 -0.750543 -0.623756
vn -0.492514 -0.71028 -0.502924
vn -0.492514 -0.71028 -0.502924
vn -0.492514 -0.71028 -0.502924
vn -0.492514 -0.71028 -0.502924
vn -0.569558 -0.767163 0.295066
vn -0.569558 -0.767163 0.295066
vn -0.569558 -0.767163 0.295066
vn -0.406923 0.0961335 0.90839
vn -0.406923 0.0961335 0.90839
vn -0.406923 0.0961335 0.90839
vn 0.675631 0.418102 0.607218
vn 0.675631 0.418102 0.607218
vn 0.675631 0.418102 0.607218
vn -0.492514 -0.71028 -0.502924
vn 0.675631 0.418102 0.607218
vn 0.481702 0.873739 0.067401
vn -0.406923 0.0961335 0.90839
vn -0.406923 0.0961335 0.90839
vn 0.587132 -0.242728 0.772243
vn -0.569558 -0.767163 0.295066
vn -0.569558 -0.767163 0.295066
vn -0.569558 -0.767163 0.295066
vn 0.587132 -0.242728 0.772243
vn 0.587132 -0.242728 0.772243
vn 0.587132 -0.242728 0.772243
f 1/1/1 2/2/2 3/3/3 
f 4/4/4 5/5/5 6/6/6 
f 7/7/7 8/8/8 9/9/9 
f 10/10/10 8/8/8 7/7/7 
f 10/10/10 11/11/11 8/8/8 
f 12/12/12 13/13/13 14/14/14 
f 12/12/12 14/14/14 15/15/15 
f 12/12/12 15/15/15 16/16/16 
f 17/17/17 18/18/18 5/5/5 
f 19/19/19 20/20/20 21/21/21 
f 19/19/19 22/22/22 20/20/20 
f 23/23/23 16/16/16 24/24/24 
f 25/25/25 26/26/26 27/27/27 
f 26/26/26 28/28/28 27/27/27 
f 26/26/26 29/29/29 28/28/28 
f 30/30/30 29/29/29 26/26/26 
f 30/30/30 31/31/31 29/29/29 
f 32/32/32 33/33/33 34/34/34 
f 35/35/35 36/36/36 37/37/37 
f 38/38/38 36/36/36 35/35/35 
f 39/39/39 38/38/38 35/35/35 
f 40/40/40 38/38/38 39/39/39 
f 41/41/41 38/38/38 40/40/40 
f 42/42/42 41/41/41 40/40/40 
f 27/27/27 28/28/28 43/43/43 
f 43/43/43 44/44/44 27/27/27 
f 45/45/45 44/44/44 43/43/43 
f 46/46/46 47/47/47 48/48/48 
f 46/46/46 48/48/48 49/49/49 
f 21/21/21 20/20/20 50/50/50 
f 49/49/49 48/48/48 51/51/51 
f 52/52/52 53/53/53 54/54/54 
f 55/55/55 53/53/53 52/52/52 
f 56/56/56 57/57/57 58/58/58 
f 59/59/59 60/60/60 61/61/61 
f 33/33/33 60/60/60 59/59/59 
f 30/30/30 26/26/26 62/62/62 
f 62/62/62 26/26/26 63/63/63 
f 62/62/62 63/63/63 64/64/64 
f 60/60/60 7/7/7 61/61/61 
f 9/9/9 61/61/61 7/7/7 
f 65/65/65 54/54/54 53/53/53 
f 6/6/6 5/5/5 18/18/18 
f 63/63/63 66/66/66 64/64/64 
f 15/15/15 14/14/14 67/67/67 
f 68/68/68 10/10/10 7/7/7 
f 16/16/16 15/15/15 24/24/24 
f 34/34/34 33/33/33 59/59/59 
f 34/34/34 59/59/59 69/69/69 
f 35/35/35 37/37/37 70/70/70 
f 58/58/58 71/71/71 72/72/72 
f 58/58/58 73/73/73 71/71/71 
f 58/58/58 57/57/57 73/73/73 
f 74/74/74 39/39/39 75/75/75 
f 40/40/40 39/39/39 74/74/74 
f 76/76/76 42/42/42 40/40/40 
