v 0.939516 1.79275 0.834624
v 0.972721 1.73702 0.842476
v 0.960067 1.77148 0.831547
v 0.939516 1.79275 0.834624
v 0.950725 1.5759 0.841267
v 0.972721 1.73702 0.842476
v 0.908905 1.48048 0.834716
v 0.907887 1.57557 0.797884
v 0.950725 1.5759 0.841267
v 0.908905 1.48048 0.834716
v 0.923798 1.58689 0.809782
v 0.962987 1.60388 0.843188
v 0.968061 1.61546 0.843983
v 0.96992 1.6197 0.844274
v 0.923798 1.58689 0.809782
v 0.865212 1.70799 0.760477
v 0.96992 1.6197 0.844274
v 0.907887 1.57557 0.797884
v 0.901281 1.57088 0.792944
v 0.846115 1.5841 0.749918
v 0.872605 1.55048 0.771499
v 0.869233 1.54808 0.768977
v 0.846115 1.5841 0.749918
v 0.869234 1.54808 0.768978
v 0.78984 1.44567 0.803308
v 0.784693 1.44413 0.803286
v 0.761525 1.43716 0.80319
v 0.842936 1.58905 0.747297
v 0.85819 1.70329 0.755215
v 0.842936 1.58905 0.747297
v 0.85819 1.70329 0.755215
v 0.833869 1.83009 0.812462
v 0.865212 1.70799 0.760477
v 0.83119 1.68521 0.734986
v 0.809944 1.83854 0.807443
v 0.818901 1.67699 0.725779
v 0.8146 1.67411 0.722556
v 0.79623 1.66181 0.708792
v 0.781379 1.66579 0.705005
v 0.444171 1.92022 0.705615
v 0.748499 1.67459 0.696621
v 0.631741 1.70584 0.66685
v 0.532617 1.73237 0.641575
v 0.365909 1.92243 0.675778
v 0.517028 1.73654 0.6376
v 0.469789 1.74927 0.625596
v 0.469989 1.74914 0.625605
v 0.469989 1.74914 0.625605
v 0.425741 1.56994 0.780092
v 0.469789 1.74927 0.625596
v 0.515966 1.66244 0.670161
v 0.57381 1.48217 0.779717
v 0.5635 1.57281 0.716224
v 0.599248 1.5054 0.750866
v 0.605124 1.49432 0.756561
v 0.628876 1.44953 0.779578
v 0.628876 1.44953 0.779578
v 0.809944 1.83854 0.807443
v 0.57381 1.48217 0.779717
v 0.635235 1.45088 0.779854
v 0.635235 1.45088 0.779854
v 0.833869 1.83009 0.812462
v 0.809944 1.83854 0.807443
v 0.635505 1.45083 0.779909
v 0.640016 1.45013 0.780838
v 0.641199 1.44994 0.781081
v 0.739745 1.43455 0.801362
v 0.748584 1.43424 0.803159
v 0.759252 1.43641 0.805277
v 0.751538 1.43414 0.80376
v 0.751538 1.43414 0.80376
v 0.760606 1.43688 0.803186
v 0.759252 1.43641 0.805277
v 0.752777 1.43453 0.803153
v 0.752777 1.43453 0.803153
v 0.641199 1.44994 0.781081
v 0.760606 1.43688 0.803186
v 0.739746 1.43455 0.801362
v 0.748584 1.43424 0.803159
v 0.739745 1.43455 0.801362
v 0.752777 1.43453 0.803153
v 0.751538 1.43414 0.80376
v 0.832883 1.60471 0.73901
v 0.761227 1.43707 0.803189
v 0.842318 1.59001 0.746788
v 0.761273 1.43709 0.803189
v 0.842318 1.59001 0.746788
v 0.832883 1.60471 0.73901
v 0.83119 1.68521 0.734986
v 0.820985 1.62324 0.729201
v 0.818901 1.67699 0.725779
v 0.813865 1.63434 0.723331
v 0.813171 1.63542 0.722759
v 0.8146 1.67411 0.722556
v 0.810448 1.63966 0.720514
v 0.806221 1.64625 0.717029
v 0.79623 1.66181 0.708792
v 0.806221 1.64625 0.71703
v 0.781379 1.66579 0.705005
v 0.79623 1.66181 0.708792
v 0.748499 1.67459 0.696621
v 0.810448 1.63966 0.720514
v 0.599248 1.5054 0.750866
v 0.5635 1.57281 0.716224
v 0.631741 1.70584 0.66685
v 0.515966 1.66244 0.670161
v 0.532617 1.73237 0.641575
v 0.517028 1.73654 0.6376
v 0.469989 1.74914 0.625606
v 0.605124 1.49432 0.756561
v 0.813171 1.63542 0.722759
v 0.813865 1.63434 0.723331
v 0.820985 1.62324 0.729201
v 0.640016 1.45013 0.780838
v 0.635506 1.45083 0.77991
v 0.635235 1.45088 0.779854
v 0.628876 1.44953 0.779578
v 0.761227 1.43707 0.803189
v 0.760998 1.43692 0.805621
v 0.761525 1.43716 0.80319
v 0.784668 1.44389 0.810277
v 0.784693 1.44413 0.803286
v 0.78984 1.44567 0.803307
v 0.790192 1.44552 0.811364
v 0.874907 1.47125 0.803662
v 0.877397 1.47193 0.805936
v 0.884709 1.47391 0.812615
v 0.908904 1.48048 0.834716
v 0.790192 1.44552 0.811364
v 0.784668 1.44389 0.810277
v 0.760998 1.43692 0.805621
v 0.938866 1.75729 0.815662
v 0.939516 1.79275 0.834624
v 0.938866 1.75729 0.815662
v 0.972721 1.73702 0.842476
v 0.968061 1.61546 0.843983
v 0.96992 1.6197 0.844274
v 0.962987 1.60388 0.843188
v 0.943328 1.76028 0.819005
v 0.943328 1.76028 0.819005
v 0.947942 1.76337 0.822462
v 0.947942 1.76337 0.822462
v 0.960067 1.77148 0.831547
v 0.960067 1.77148 0.831547
v 0.901281 1.57088 0.792944
v 0.884709 1.47391 0.812615
v 0.872605 1.55048 0.771499
v 0.877397 1.47193 0.805936
v 0.869234 1.54808 0.768977
v 0.874908 1.47125 0.803662
v 0.874907 1.47125 0.803662
v 0.425741 1.56994 0.780092
v 0.2657 1.8068 0.7886
v 0.2657 1.8068 0.7886
v 0.323864 1.59587 0.806242
v 0.425741 1.56994 0.780092
v 0.2657 1.8068 0.7886
v 0.164107 1.78047 0.751714
v 0.323864 1.59587 0.806242
v 0.164107 1.78047 0.751714
v 0.2657 1.8068 0.7886
v 0.17929 1.81017 0.742409
v 0.164107 1.78047 0.751714
v 0.17929 1.81017 0.742409
v 0.192167 1.78795 0.720891
v 0.161647 1.76659 0.750617
v 0.161647 1.76659 0.750617
v 0.161647 1.76659 0.750617
v 0.348539 1.8293 0.619771
v 0.323864 1.59587 0.806242
v 0.192167 1.78795 0.720891
v 0.298458 1.86235 0.617366
v 0.298458 1.86235 0.617366
v 0.348539 1.8293 0.619771
v 0.297479 1.86875 0.620356
v 0.296703 1.87383 0.622727
v 0.28964 1.92005 0.644306
v 0.289637 1.92007 0.644314
v 0.288943 1.92461 0.646435
v 0.365909 1.92243 0.675778
v 0.288943 1.92461 0.646435
v 0.282921 1.92007 0.652209
v 0.444171 1.92022 0.705615
v 0.280739 1.91843 0.6543
v 0.28071 1.91841 0.654328
v 0.28001 1.91788 0.654999
v 0.279073 1.91718 0.655897
v 0.274258 1.91355 0.660513
v 0.444171 1.92022 0.705615
v 0.274258 1.91355 0.660513
v 0.721515 1.90714 0.80859
v 0.721514 1.90714 0.80859
v 0.721515 1.90714 0.80859
v 0.264947 1.90438 0.668822
v 0.2657 1.8068 0.7886
v 0.268384 1.90777 0.665755
v 0.270004 1.90936 0.664309
v 0.270004 1.90936 0.664309
v 0.274259 1.91355 0.660513
v 0.296703 1.87383 0.622727
v 0.268384 1.90777 0.665756
v 0.264947 1.90438 0.668822
v 0.297479 1.86875 0.620356
v 0.21791 1.85809 0.710792
v 0.21791 1.85809 0.710792
v 0.208107 1.84844 0.719539
v 0.192627 1.8332 0.733352
v 0.189466 1.83009 0.736172
v 0.189466 1.83009 0.736172
v 0.189466 1.83009 0.736172
v 0.192627 1.8332 0.733352
v 0.208108 1.84844 0.719539
v 0.298458 1.86235 0.617366
v 0.279074 1.91718 0.655897
v 0.289637 1.92007 0.644314
v 0.28001 1.91788 0.654999
v 0.28071 1.91841 0.654329
v 0.282921 1.92007 0.652209
v 0.288943 1.92461 0.646435
v 0.425163 1.77872 0.623452
v 0.425163 1.77872 0.623452
vt 0.740123 0.877677
vt 0.7392 0.870679
vt 0.740647 0.874546
vt 0.740123 0.877677
vt 0.725321 0.858442
vt 0.7392 0.870679
vt 0.714364 0.853145
vt 1.54559 -1.20552
vt 1.54592 -1.26649
vt 1.44723 -1.23248
vt 1.55729 -1.22517
vt 1.57486 -1.27646
vt 1.58684 -1.28059
vt 1.59122 -1.2821
vt 1.58428 -1.22608
vt 1.70542 -1.14958
vt 1.6171 -1.28367
vt 1.57296 -1.20622
vt 1.56826 -1.19797
vt 1.58148 -1.12801
vt 1.54785 -1.16217
vt 1.54545 -1.15796
vt -1.00425 -1.14644
vt -1.02755 -1.10579
vt -0.947536 -0.998244
vt -0.942349 -0.996837
vt -0.919 -0.990504
vt -1.00105 -1.15203
vt 1.70072 -1.14081
vt 1.58644 -1.12389
vt -0.768023 -1.8589
vt -0.742252 -1.99776
vt -0.775464 -1.86551
vt -0.739413 -1.83347
vt -0.716901 -2.0029
vt -0.726392 -1.8219
vt -0.721834 -1.81785
vt -0.702369 -1.80055
vt -0.686632 -1.8023
vt -0.329322 -2.02763
vt -0.651793 -1.80617
vt -0.528073 -1.81993
vt -0.423041 -1.8316
vt -0.246394 -2.01567
vt -0.406521 -1.83344
vt -0.356467 -1.83909
vt -0.356678 -1.83898
vt 0.0804241 -1.02248
vt 0.127424 -0.78641
vt 0.0806358 -1.02259
vt 0.031587 -0.926401
vt -0.0298539 -0.716472
vt -0.0189025 -0.827074
vt -0.0568732 -0.752375
vt -0.0631152 -0.740095
vt -0.0883447 -0.690462
vt 0.685704 0.869668
vt 0.73116 0.890356
vt 0.685477 0.878468
vt 0.686191 0.869164
vt 0.686191 0.869164
vt 0.732815 0.888015
vt 0.73116 0.890356
vt 0.686213 0.869142
vt 0.68659 0.868776
vt 0.686689 0.86868
vt 0.694928 0.860692
vt 0.695746 0.860067
vt 0.696918 0.859529
vt 0.696019 0.859859
vt 0.767743 1.13278
vt 0.767168 1.14225
vt 0.769261 1.14082
vt 0.767136 1.13408
vt -0.910184 -0.988112
vt -0.797734 -1.01112
vt -0.918073 -0.990252
vt -0.897051 -0.988852
vt -0.84709 0.0678152
vt -0.838235 0.0660732
vt -0.851291 0.0676792
vt -0.85005 0.0683975
vt -0.990915 -1.1697
vt -0.918699 -0.990422
vt -1.00042 -1.15311
vt -0.918746 -0.990435
vt 1.5874 -1.12309
vt 1.6021 -1.11087
vt 1.68264 -1.10707
vt 1.62065 -1.09546
vt 1.67441 -1.09172
vt 1.63174 -1.08624
vt 1.63282 -1.08534
vt 1.67153 -1.08634
vt 1.63707 -1.08181
vt 1.64365 -1.07633
vt 1.65923 -1.06339
vt -0.964045 -1.21658
vt -0.939009 -1.23931
vt -0.953976 -1.23414
vt -0.905873 -1.25074
vt -0.968305 -1.20914
vt -0.755455 -1.07406
vt -0.719429 -1.14971
vt -0.788202 -1.29136
vt -0.671524 -1.25031
vt -0.688305 -1.32583
vt -0.672594 -1.33126
vt -0.625188 -1.34762
vt -0.761378 -1.06162
vt -0.971049 -1.20436
vt -0.971749 -1.20314
vt -0.978925 -1.19062
vt -0.796542 -1.01139
vt -0.791996 -1.01241
vt -0.791724 -1.01247
vt -0.785316 -1.01135
vt 0.767171 1.1429
vt 0.769604 1.14264
vt 0.767172 1.14321
vt 0.774263 1.16731
vt 0.767268 1.1674
vt 0.76729 1.17278
vt 0.77535 1.17307
vt 0.767644 1.26161
vt 0.769919 1.26418
vt 0.776601 1.27176
vt 0.798713 1.29682
vt 0.700525 0.85821
vt 0.699881 0.858445
vt 0.697122 0.859455
vt -0.853509 -1.93486
vt -0.854197 -1.97508
vt 1.75474 -1.24161
vt 1.73446 -1.28479
vt 0.729863 0.860638
vt 0.73035 0.860874
vt 0.728534 0.859995
vt 1.75773 -1.24718
vt -0.858237 -1.93907
vt -0.863125 -1.94341
vt 1.76082 -1.25294
vt 1.76894 -1.26809
vt -0.875974 -1.95483
vt 1.54072 -1.19737
vt 1.44044 -1.19976
vt 1.51963 -1.16197
vt 1.43838 -1.18987
vt 1.51715 -1.15781
vt 1.43768 -1.1865
vt -1.03327 -1.0215
vt 0.684867 0.902129
vt 0.697 0.9419
vt 0.495 0.5816
vt 0.503435 0.557232
vt 0.516396 0.554566
vt 0.495 0.5816
vt 0.479988 0.580599
vt 0.503435 0.557232
vt 0.693426 0.954767
vt 0.697 0.9419
vt 0.69737 0.954293
vt 1.86244 0.466126
vt 1.89266 0.449199
vt 1.87005 0.424466
vt 1.84832 0.466885
vt 0.479616 0.579114
vt 0.407942 -0.961326
vt 0.209427 -1.09006
vt 0.235637 -0.791431
vt 0.375524 -0.996263
vt 0.262623 -1.11793
vt -0.174921 -1.93528
vt -0.227987 -1.90716
vt -0.173884 -1.94234
vt -0.173062 -1.94793
vt -0.165577 -1.99888
vt -0.165575 -1.9989
vt -0.164839 -2.00391
vt 0.725447 0.94803
vt 0.723639 0.956763
vt 0.722548 0.956927
vt 0.727286 0.93915
vt 0.722152 0.956987
vt 0.722147 0.956988
vt 0.72202 0.957007
vt 0.72185 0.957033
vt 0.720978 0.957164
vt 0.727286 0.93915
vt 0.720978 0.957164
vt 0.732253 0.906104
vt -0.623199 -2.0641
vt 0.732253 0.906104
vt 0.718676 0.956814
vt 0.697 0.9419
vt 0.719525 0.956943
vt 0.719926 0.957004
vt 1.99355 0.330931
vt 1.99781 0.325282
vt 1.95741 0.28196
vt 1.99193 0.333082
vt 1.98849 0.337644
vt 1.95225 0.279651
vt 1.94139 0.400092
vt 0.707046 0.955046
vt 0.704622 0.954677
vt 0.700794 0.954095
vt 0.700013 0.953976
vt 0.700013 0.953976
vt 1.91291 0.437854
vt 1.91608 0.433658
vt 1.93158 0.413106
vt 1.94573 0.27674
vt 2.0015 0.318646
vt 2.00444 0.302979
vt 2.00222 0.317355
vt 2.00275 0.316391
vt 2.00445 0.313344
vt 2.00906 0.305044
vt -0.30918 -1.86415
vt 0.128037 -1.04742
vn 0.551357 0.42925 0.715367
vn 0.551357 0.42925 0.715367
vn 0.551357 0.42925 0.715367
vn -0.198573 0.0197549 0.979887
vn -0.198573 0.0197549 0.979887
vn -0.198573 0.0197549 0.979887
vn -0.198573 0.0197549 0.979887
vn 0.688937 -0.25536 -0.678349
vn 0.688937 -0.25536 -0.678349
vn 0.688937 -0.25536 -0.678349
vn 0.688937 -0.25536 -0.678349
vn 0.688937 -0.25536 -0.678349
vn 0.688937 -0.25536 -0.678349
vn 0.688937 -0.25536 -0.678349
vn 0.610789 -0.026707 -0.791343
vn 0.610789 -0.026707 -0.791343
vn 0.610789 -0.026707 -0.791343
vn 0.610789 -0.026707 -0.791343
vn 0.610789 -0.026707 -0.791343
vn 0.610789 -0.026707 -0.791343
vn 0.610789 -0.026707 -0.791343
vn 0.610789 -0.026707 -0.791343
vn 0.124231 -0.400638 -0.907775
vn 0.124231 -0.400638 -0.907775
vn 0.124231 -0.400638 -0.907775
vn 0.124231 -0.400638 -0.907775
vn 0.124231 -0.400638 -0.907775
vn 0.124231 -0.400638 -0.907775
vn 0.610789 -0.026707 -0.791343
vn 0.610789 -0.026707 -0.791343
vn 0.330697 0.440285 -0.834739
vn 0.330697 0.440285 -0.834739
vn 0.330697 0.440285 -0.834739
vn 0.330697 0.440285 -0.834739
vn 0.330697 0.440285 -0.834739
vn 0.330697 0.440285 -0.834739
vn 0.330697 0.440285 -0.834739
vn 0.330697 0.440285 -0.834739
vn 0.330697 0.440285 -0.834739
vn 0.330697 0.440285 -0.834739
vn 0.330697 0.440285 -0.834739
vn 0.330697 0.440285 -0.834739
vn 0.330697 0.440285 -0.834739
vn 0.330697 0.440285 -0.834739
vn 0.330697 0.440285 -0.834739
vn 0.330697 0.440285 -0.834739
vn 0.330697 0.440285 -0.834739
vn -0.337149 -0.565584 -0.752626
vn -0.337149 -0.565584 -0.752626
vn -0.337149 -0.565584 -0.752626
vn -0.337149 -0.565584 -0.752626
vn -0.337149 -0.565584 -0.752626
vn -0.337149 -0.565584 -0.752626
vn -0.337149 -0.565584 -0.752626
vn -0.337149 -0.565584 -0.752626
vn -0.337149 -0.565584 -0.752626
vn -0.031228 -0.0569431 0.997889
vn -0.031228 -0.0569431 0.997889
vn -0.031228 -0.0569431 0.997889
vn -0.031228 -0.0569431 0.997889
vn -0.198573 0.0197549 0.979887
vn -0.198573 0.0197549 0.979887
vn -0.198573 0.0197549 0.979887
vn -0.198573 0.0197549 0.979887
vn -0.198573 0.0197549 0.979887
vn -0.198573 0.0197549 0.979887
vn -0.198573 0.0197549 0.979887
vn -0.198573 0.0197549 0.979887
vn -0.198573 0.0197549 0.979887
vn -0.198573 0.0197549 0.979887
vn 0.287903 -0.957164 -0.0308032
vn 0.287903 -0.957164 -0.0308032
vn 0.287903 -0.957164 -0.0308032
vn 0.287903 -0.957164 -0.0308032
vn 0.124231 -0.400638 -0.907775
vn 0.124231 -0.400638 -0.907775
vn 0.124231 -0.400638 -0.907775
vn 0.124231 -0.400638 -0.907775
vn 0.0608202 -0.890273 -0.451348
vn 0.0608202 -0.890273 -0.451348
vn 0.0608202 -0.890273 -0.451348
vn 0.0608202 -0.890273 -0.451348
vn 0.124231 -0.400638 -0.907775
vn 0.124231 -0.400638 -0.907775
vn 0.124231 -0.400638 -0.907775
vn 0.124231 -0.400638 -0.907775
vn 0.610789 -0.026707 -0.791343
vn 0.610789 -0.026707 -0.791343
vn 0.610789 -0.026707 -0.791343
vn 0.610789 -0.026707 -0.791343
vn 0.610789 -0.026707 -0.791343
vn 0.610789 -0.026707 -0.791343
vn 0.610789 -0.026707 -0.791343
vn 0.610789 -0.026707 -0.791343
vn 0.610789 -0.026707 -0.791343
vn 0.610789 -0.026707 -0.791343
vn 0.610789 -0.026707 -0.791343
vn 0.124231 -0.400638 -0.907775
vn 0.124231 -0.400638 -0.907775
vn 0.124231 -0.400638 -0.907775
vn 0.124231 -0.400638 -0.907775
vn 0.124231 -0.400638 -0.907775
vn 0.124231 -0.400638 -0.907775
vn 0.124231 -0.400638 -0.907775
vn 0.124231 -0.400638 -0.907775
vn 0.124231 -0.400638 -0.907775
vn 0.124231 -0.400638 -0.907775
vn 0.124231 -0.400638 -0.907775
vn 0.124231 -0.400638 -0.907775
vn 0.124231 -0.400638 -0.907775
vn 0.124231 -0.400638 -0.907775
vn 0.124231 -0.400638 -0.907775
vn 0.124231 -0.400638 -0.907775
vn 0.124231 -0.400638 -0.907775
vn 0.124231 -0.400638 -0.907775
vn 0.124231 -0.400638 -0.907775
vn 0.124231 -0.400638 -0.907775
vn 0.287903 -0.957164 -0.0308032
vn 0.287903 -0.957164 -0.0308032
vn 0.287903 -0.957164 -0.0308032
vn 0.287903 -0.957164 -0.0308032
vn 0.287903 -0.957164 -0.0308032
vn 0.287903 -0.957164 -0.0308032
vn 0.287903 -0.957164 -0.0308032
vn 0.287903 -0.957164 -0.0308032
vn 0.287903 -0.957164 -0.0308032
vn 0.287903 -0.957164 -0.0308032
vn 0.287903 -0.957164 -0.0308032
vn -0.198573 0.0197549 0.979887
vn -0.198573 0.0197549 0.979887
vn -0.198573 0.0197549 0.979887
vn 0.330697 0.440285 -0.834739
vn 0.330697 0.440285 -0.834739
vn 0.610789 -0.026707 -0.791343
vn 0.610789 -0.026707 -0.791343
vn -0.198573 0.0197549 0.979887
vn -0.198573 0.0197549 0.979887
vn -0.198573 0.0197549 0.979887
vn 0.610789 -0.026707 -0.791343
vn 0.330697 0.440285 -0.834739
vn 0.330697 0.440285 -0.834739
vn 0.610789 -0.026707 -0.791343
vn 0.610789 -0.026707 -0.791343
vn 0.330697 0.440285 -0.834739
vn 0.688937 -0.25536 -0.678349
vn 0.688937 -0.25536 -0.678349
vn 0.688937 -0.25536 -0.678349
vn 0.688937 -0.25536 -0.678349
vn 0.688937 -0.25536 -0.678349
vn 0.688937 -0.25536 -0.678349
vn 0.124231 -0.400638 -0.907775
vn -0.031228 -0.0569431 0.997889
vn -0.031228 -0.0569431 0.997889
vn 0.28287 0.157138 0.946199
vn 0.28287 0.157138 0.946199
vn 0.28287 0.157138 0.946199
vn -0.337923 -0.014472 0.941062
vn -0.337923 -0.014472 0.941062
vn -0.337923 -0.014472 0.941062
vn -0.405769 0.455539 0.792361
vn -0.405769 0.455539 0.792361
vn -0.405769 0.455539 0.792361
vn -0.748697 0.183064 -0.637134
vn -0.748697 0.183064 -0.637134
vn -0.748697 0.183064 -0.637134
vn -0.748697 0.183064 -0.637134
vn -0.337923 -0.014472 0.941062
vn -0.337149 -0.565584 -0.752626
vn -0.337149 -0.565584 -0.752626
vn -0.337149 -0.565584 -0.752626
vn -0.337149 -0.565584 -0.752626
vn -0.337149 -0.565584 -0.752626
vn 0.330697 0.440285 -0.834739
vn 0.330697 0.440285 -0.834739
vn 0.330697 0.440285 -0.834739
vn 0.330697 0.440285 -0.834739
vn 0.330697 0.440285 -0.834739
vn 0.330697 0.440285 -0.834739
vn 0.330697 0.440285 -0.834739
vn -0.17517 0.84972 0.497283
vn -0.173361 0.850137 0.497206
vn -0.173185 0.850177 0.497198
vn -0.177008 0.849294 0.49736
vn -0.173122 0.850192 0.497196
vn -0.173121 0.850192 0.497196
vn -0.1731 0.850196 0.497195
vn -0.173073 0.850203 0.497193
vn -0.172932 0.850235 0.497187
vn -0.194471 0.759875 0.6203
vn -0.194471 0.759875 0.6203
vn -0.194471 0.759875 0.6203
vn 0.330697 0.440285 -0.834739
vn -0.031228 -0.0569431 0.997889
vn -0.194471 0.759875 0.6203
vn -0.194471 0.759875 0.6203
vn -0.194471 0.759875 0.6203
vn -0.194471 0.759875 0.6203
vn -0.748697 0.183064 -0.637134
vn -0.748697 0.183064 -0.637134
vn -0.748697 0.183064 -0.637134
vn -0.748697 0.183064 -0.637134
vn -0.748697 0.183064 -0.637134
vn -0.748697 0.183064 -0.637134
vn -0.748697 0.183064 -0.637134
vn -0.194471 0.759875 0.6203
vn -0.194471 0.759875 0.6203
vn -0.194471 0.759875 0.6203
vn -0.194471 0.759875 0.6203
vn -0.405769 0.455539 0.792361
vn -0.748697 0.183064 -0.637134
vn -0.748697 0.183064 -0.637134
vn -0.748697 0.183064 -0.637134
vn -0.748697 0.183064 -0.637134
vn -0.748697 0.183064 -0.637134
vn -0.748697 0.183064 -0.637134
vn -0.748697 0.183064 -0.637134
vn -0.748697 0.183064 -0.637134
vn -0.748697 0.183064 -0.637134
vn -0.748697 0.183064 -0.637134
vn 0.330697 0.440285 -0.834739
vn -0.337149 -0.565584 -0.752626
f 1/1/1 2/2/2 3/3/3 
f 4/4/4 5/5/5 6/6/6 
f 5/5/5 4/4/4 7/7/7 
f 8/8/8 9/9/9 10/10/10 
f 11/11/11 9/9/9 8/8/8 
f 11/11/11 12/12/12 9/9/9 
f 11/11/11 13/13/13 12/12/12 
f 11/11/11 14/14/14 13/13/13 
f 15/15/15 16/16/16 17/17/17 
f 18/18/18 16/16/16 15/15/15 
f 19/19/19 16/16/16 18/18/18 
f 19/19/19 20/20/20 16/16/16 
f 21/21/21 20/20/20 19/19/19 
f 22/22/22 20/20/20 21/21/21 
f 23/23/23 24/24/24 25/25/25 
f 26/26/26 23/23/23 25/25/25 
f 27/27/27 23/23/23 26/26/26 
f 23/23/23 27/27/27 28/28/28 
f 29/29/29 20/20/20 30/30/30 
f 16/16/16 20/20/20 29/29/29 
f 31/31/31 32/32/32 33/33/33 
f 32/32/32 31/31/31 34/34/34 
f 34/34/34 35/35/35 32/32/32 
f 36/36/36 35/35/35 34/34/34 
f 37/37/37 35/35/35 36/36/36 
f 38/38/38 35/35/35 37/37/37 
f 39/39/39 35/35/35 38/38/38 
f 39/39/39 40/40/40 35/35/35 
f 41/41/41 40/40/40 39/39/39 
f 42/42/42 40/40/40 41/41/41 
f 40/40/40 42/42/42 43/43/43 
f 43/43/43 44/44/44 40/40/40 
f 45/45/45 44/44/44 43/43/43 
f 45/45/45 46/46/46 44/44/44 
f 47/47/47 46/46/46 45/45/45 
f 48/48/48 49/49/49 50/50/50 
f 51/51/51 49/49/49 48/48/48 
f 51/51/51 52/52/52 49/49/49 
f 53/53/53 52/52/52 51/51/51 
f 54/54/54 52/52/52 53/53/53 
f 55/55/55 52/52/52 54/54/54 
f 52/52/52 55/55/55 56/56/56 
f 57/57/57 58/58/58 59/59/59 
f 60/60/60 58/58/58 57/57/57 
f 61/61/61 62/62/62 63/63/63 
f 64/64/64 62/62/62 61/61/61 
f 65/65/65 62/62/62 64/64/64 
f 66/66/66 62/62/62 65/65/65 
f 67/67/67 62/62/62 66/66/66 
f 68/68/68 62/62/62 67/67/67 
f 68/68/68 69/69/69 62/62/62 
f 70/70/70 69/69/69 68/68/68 
f 71/71/71 72/72/72 73/73/73 
f 74/74/74 72/72/72 71/71/71 
f 75/75/75 76/76/76 77/77/77 
f 78/78/78 76/76/76 75/75/75 
f 79/79/79 80/80/80 81/81/81 
f 82/82/82 79/79/79 81/81/81 
f 77/77/77 76/76/76 83/83/83 
f 83/83/83 84/84/84 77/77/77 
f 85/85/85 84/84/84 83/83/83 
f 85/85/85 86/86/86 84/84/84 
f 28/28/28 86/86/86 85/85/85 
f 28/28/28 27/27/27 86/86/86 
f 29/29/29 30/30/30 87/87/87 
f 29/29/29 87/87/87 88/88/88 
f 29/29/29 88/88/88 89/89/89 
f 89/89/89 88/88/88 90/90/90 
f 89/89/89 90/90/90 91/91/91 
f 91/91/91 90/90/90 92/92/92 
f 91/91/91 92/92/92 93/93/93 
f 93/93/93 94/94/94 91/91/91 
f 95/95/95 94/94/94 93/93/93 
f 94/94/94 95/95/95 96/96/96 
f 97/97/97 94/94/94 96/96/96 
f 98/98/98 99/99/99 100/100/100 
f 101/101/101 99/99/99 98/98/98 
f 101/101/101 98/98/98 102/102/102 
f 101/101/101 102/102/102 103/103/103 
f 103/103/103 104/104/104 101/101/101 
f 104/104/104 105/105/105 101/101/101 
f 104/104/104 106/106/106 105/105/105 
f 105/105/105 106/106/106 107/107/107 
f 107/107/107 106/106/106 108/108/108 
f 106/106/106 109/109/109 108/108/108 
f 102/102/102 110/110/110 103/103/103 
f 110/110/110 102/102/102 111/111/111 
f 111/111/111 112/112/112 110/110/110 
f 112/112/112 76/76/76 110/110/110 
f 76/76/76 112/112/112 113/113/113 
f 76/76/76 113/113/113 83/83/83 
f 114/114/114 110/110/110 76/76/76 
f 115/115/115 110/110/110 114/114/114 
f 116/116/116 110/110/110 115/115/115 
f 117/117/117 110/110/110 116/116/116 
f 118/118/118 119/119/119 72/72/72 
f 120/120/120 119/119/119 118/118/118 
f 120/120/120 121/121/121 119/119/119 
f 122/122/122 121/121/121 120/120/120 
f 123/123/123 121/121/121 122/122/122 
f 123/123/123 124/124/124 121/121/121 
f 125/125/125 124/124/124 123/123/123 
f 126/126/126 124/124/124 125/125/125 
f 124/124/124 126/126/126 127/127/127 
f 124/124/124 127/127/127 128/128/128 
f 7/7/7 4/4/4 129/129/129 
f 129/129/129 4/4/4 130/130/130 
f 130/130/130 4/4/4 131/131/131 
f 131/131/131 4/4/4 69/69/69 
f 72/72/72 119/119/119 73/73/73 
f 69/69/69 4/4/4 62/62/62 
f 132/132/132 32/32/32 133/133/133 
f 33/33/33 32/32/32 132/132/132 
f 16/16/16 134/134/134 135/135/135 
f 17/17/17 16/16/16 135/135/135 
f 6/6/6 136/136/136 137/137/137 
f 6/6/6 138/138/138 136/136/136 
f 6/6/6 5/5/5 138/138/138 
f 134/134/134 139/139/139 135/135/135 
f 133/133/133 140/140/140 132/132/132 
f 140/140/140 133/133/133 141/141/141 
f 139/139/139 142/142/142 135/135/135 
f 142/142/142 143/143/143 135/135/135 
f 141/141/141 133/133/133 144/144/144 
f 145/145/145 10/10/10 146/146/146 
f 8/8/8 10/10/10 145/145/145 
f 147/147/147 145/145/145 146/146/146 
f 148/148/148 147/147/147 146/146/146 
f 147/147/147 148/148/148 149/149/149 
f 149/149/149 148/148/148 150/150/150 
f 25/25/25 24/24/24 151/151/151 
f 59/59/59 58/58/58 152/152/152 
f 152/152/152 58/58/58 153/153/153 
f 154/154/154 155/155/155 156/156/156 
f 157/157/157 158/158/158 159/159/159 
f 160/160/160 161/161/161 162/162/162 
f 163/163/163 164/164/164 165/165/165 
f 163/163/163 165/165/165 166/166/166 
f 159/159/159 158/158/158 167/167/167 
f 168/168/168 169/169/169 170/170/170 
f 171/171/171 169/169/169 168/168/168 
f 172/172/172 169/169/169 171/171/171 
f 173/173/173 44/44/44 174/174/174 
f 175/175/175 44/44/44 173/173/173 
f 176/176/176 44/44/44 175/175/175 
f 177/177/177 44/44/44 176/176/176 
f 178/178/178 44/44/44 177/177/177 
f 179/179/179 44/44/44 178/178/178 
f 180/180/180 181/181/181 182/182/182 
f 182/182/182 183/183/183 180/180/180 
f 184/184/184 183/183/183 182/182/182 
f 185/185/185 183/183/183 184/184/184 
f 186/186/186 183/183/183 185/185/185 
f 183/183/183 186/186/186 187/187/187 
f 188/188/188 183/183/183 187/187/187 
f 189/189/189 190/190/190 191/191/191 
f 40/40/40 192/192/192 35/35/35 
f 193/193/193 153/153/153 58/58/58 
f 191/191/191 194/194/194 195/195/195 
f 191/191/191 196/196/196 194/194/194 
f 191/191/191 197/197/197 196/196/196 
f 191/191/191 190/190/190 197/197/197 
f 198/198/198 199/199/199 200/200/200 
f 201/201/201 198/198/198 200/200/200 
f 202/202/202 201/201/201 200/200/200 
f 202/202/202 200/200/200 203/203/203 
f 202/202/202 203/203/203 204/204/204 
f 195/195/195 194/194/194 205/205/205 
f 195/195/195 205/205/205 206/206/206 
f 195/195/195 206/206/206 207/207/207 
f 208/208/208 195/195/195 207/207/207 
f 162/162/162 161/161/161 209/209/209 
f 164/164/164 210/210/210 165/165/165 
f 210/210/210 211/211/211 165/165/165 
f 211/211/211 212/212/212 165/165/165 
f 204/204/204 165/165/165 212/212/212 
f 213/213/213 165/165/165 204/204/204 
f 204/204/204 203/203/203 213/213/213 
f 199/199/199 214/214/214 200/200/200 
f 200/200/200 214/214/214 215/215/215 
f 216/216/216 215/215/215 214/214/214 
f 217/217/217 215/215/215 216/216/216 
f 217/217/217 218/218/218 215/215/215 
f 218/218/218 219/219/219 215/215/215 
f 174/174/174 44/44/44 220/220/220 
f 221/221/221 170/170/170 169/169/169 
f 170/170/170 221/221/221 49/49/49 
f 49/49/49 221/221/221 50/50/50 
f 220/220/220 44/44/44 46/46/46 
