v 0.813335 -1.42496 -0.844673
v 0.750525 -1.51181 -0.932363
v 0.81513 -1.4192 -0.842127
v 0.764346 -1.49891 -0.856363
v 0.750525 -1.51181 -0.932363
v 0.813335 -1.42496 -0.844673
v 0.762568 -1.50101 -0.862186
v 0.74486 -1.52184 -0.920205
v 0.744349 -1.52244 -0.921882
v 0.74243 -1.5247 -0.928169
v 0.739192 -1.52851 -0.938776
v 0.736687 -1.53145 -0.946985
v 0.736687 -1.53145 -0.946985
v 0.64 -1.4313 -1.0084
v 0.750525 -1.51181 -0.932363
v 0.694028 -1.54668 -0.984279
v 0.639957 -1.53264 -1.02583
v 0.674164 -1.55377 -1.00164
v 0.672227 -1.55101 -0.993234
v 0.639957 -1.53264 -1.02583
v 0.674164 -1.55377 -1.00164
v 0.57583 -1.48052 -0.992688
v 0.64 -1.4313 -1.0084
v 0.639957 -1.53264 -1.02583
v 0.57583 -1.48052 -0.992688
v 0.514687 -1.43082 -0.96109
v 0.514687 -1.43082 -0.96109
v 0.543006 -1.32554 -0.925517
v 0.64 -1.4313 -1.0084
v 0.500897 -1.4191 -0.950762
v 0.500897 -1.4191 -0.950762
v 0.746476 -1.49 -0.835734
v 0.543006 -1.32554 -0.925517
v 0.531393 -1.43919 -0.937067
v 0.64731 -1.51555 -0.885013
v 0.744811 -1.49336 -0.836715
v 0.746476 -1.49 -0.835734
v 0.744811 -1.49336 -0.836715
v 0.74514 -1.49345 -0.837046
v 0.758836 -1.49735 -0.850822
v 0.750676 -1.48154 -0.833262
v 0.762282 -1.49833 -0.854288
v 0.813335 -1.42496 -0.844673
v 0.764345 -1.49891 -0.856363
v 0.764346 -1.49891 -0.856363
v 0.762282 -1.49833 -0.854288
v 0.762568 -1.50101 -0.862186
v 0.758836 -1.49735 -0.850822
v 0.74514 -1.49345 -0.837046
v 0.74486 -1.52184 -0.920205
v 0.64731 -1.51555 -0.885013
v 0.744811 -1.49336 -0.836715
v 0.654053 -1.52515 -0.914298
v 0.744349 -1.52244 -0.921882
v 0.74243 -1.5247 -0.928169
v 0.739192 -1.52851 -0.938776
v 0.660938 -1.53495 -0.944201
v 0.736687 -1.53145 -0.946985
v 0.694028 -1.54668 -0.984279
v 0.666317 -1.5426 -0.967565
v 0.666317 -1.5426 -0.967565
v 0.660938 -1.53495 -0.944201
v 0.672227 -1.55101 -0.993234
v 0.674164 -1.55377 -1.00164
v 0.654053 -1.52515 -0.914298
v 0.531393 -1.43919 -0.937067
v 0.514687 -1.43082 -0.96109
v 0.500897 -1.4191 -0.950762
v 0.64731 -1.51555 -0.885013
v 0.794442 -1.39339 -0.807499
v 0.794442 -1.39339 -0.807499
v 0.823159 -1.27871 -0.787625
v 0.750676 -1.48154 -0.833262
v 0.838546 -1.30456 -0.781536
v 0.83922 -1.30321 -0.781139
v 0.83922 -1.30321 -0.781139
v 0.830719 -1.22689 -0.818265
v 0.823159 -1.27871 -0.787625
v 0.852627 -1.29882 -0.788935
v 0.852627 -1.29882 -0.788935
v 0.830719 -1.22689 -0.818265
v 0.852627 -1.29882 -0.788935
v 0.81513 -1.4192 -0.842127
v 0.838546 -1.30456 -0.781536
v 0.83922 -1.30321 -0.781139
v 0.830719 -1.22689 -0.818265
v 0.785159 -1.14785 -0.841739
v 0.785159 -1.14786 -0.84174
v 0.787473 -1.22428 -0.802035
v 0.728954 -1.13503 -0.825666
v 0.644296 -1.00591 -0.859852
v 0.645433 -1.00583 -0.860357
v 0.645433 -1.00583 -0.860357
v 0.543217 -1.32507 -0.92539
v 0.644296 -1.00591 -0.859852
v 0.64 -1.4313 -1.0084
v 0.543217 -1.32507 -0.92539
v 0.750658 -1.48158 -0.833273
v 0.543217 -1.32507 -0.92539
v 0.787473 -1.22428 -0.802035
v 0.728954 -1.13503 -0.825666
v 0.644297 -1.00591 -0.859852
v 0.64 -1.4313 -1.0084
v 0.645433 -1.00583 -0.860357
v 0.785159 -1.14785 -0.841739
vt 0.885509 0.467015
vt 0.892672 0.452853
vt 0.885414 0.467773
vt -0.767745 -0.838981
vt -0.843881 -0.857327
vt -0.756035 -0.750279
vt -0.773579 -0.841703
vt -0.831702 -0.868824
vt -0.833381 -0.869608
vt -0.83968 -0.872547
vt -0.850306 -0.877505
vt -0.85853 -0.881342
vt 0.893956 0.449923
vt 0.9087 0.457
vt 0.892672 0.452853
vt 0.899016 0.446151
vt 0.906241 0.445238
vt 0.901372 0.444395
vt -1.09445 1.45766
vt -1.12731 1.42077
vt -1.10293 1.46085
vt -1.0939 1.33824
vt 0.9087 0.457
vt 0.906241 0.445238
vt 0.915252 0.449769
vt 0.923844 0.454089
vt 0.923844 0.454089
vt 0.922227 0.469384
vt 0.9087 0.457
vt 0.92571 0.455389
vt -1.46798 0.0371205
vt -1.53896 0.308284
vt -1.37432 0.08602
vt -1.48809 0.0705369
vt -1.56454 0.197555
vt -1.54232 0.306358
vt -1.39711 1.10592
vt -1.40092 1.10524
vt -1.40103 1.10571
vt -1.40545 1.12502
vt -1.3875 1.10764
vt -1.40657 1.12988
vt -1.32321 1.16354
vt -1.40724 1.13279
vt -0.69987 -1.29448
vt -0.697803 -1.29233
vt -0.69809 -1.30067
vt -0.694352 -1.28873
vt -0.680635 -1.27444
vt -0.680355 -1.36231
vt -0.582654 -1.32697
vt -0.680305 -1.27409
vt -0.589407 -1.35779
vt -0.679842 -1.36409
vt -0.677921 -1.37077
vt -0.674678 -1.38204
vt -0.596303 -1.38925
vt -0.672169 -1.39076
vt -0.629444 -1.43097
vt -0.601691 -1.41384
vt -1.06857 1.44793
vt -1.04501 1.43907
vt -0.60761 -1.44085
vt -0.60955 -1.4497
vt -1.01486 1.42773
vt -1.03782 1.27798
vt -1.06204 1.25955
vt -1.05162 1.2415
vt -0.985331 1.41663
vt -1.28734 1.12547
vt -1.44224 0.363757
vt -1.32743 0.398262
vt -1.53049 0.313141
vt -1.35331 0.414765
vt -1.35196 0.415545
vt -1.2302 -0.783805
vt -1.22116 -0.698992
vt -1.21313 -0.759133
vt -1.24444 -0.77627
vt 0.883448 0.483611
vt 0.889393 0.489684
vt -1.17988 1.15905
vt -1.31667 1.16333
vt -1.18641 1.14345
vt -1.18487 1.14372
vt 0.889393 0.489684
vt 0.897115 0.496714
vt -1.17274 -0.618191
vt -1.1752 -0.704312
vt -1.11302 -0.614415
vt -1.02305 -0.484363
vt -1.02426 -0.484055
vt 0.915186 0.508931
vt 0.92221 0.469454
vt 0.915322 0.508915
vt 0.9087 0.457
vt 0.92221 0.469454
vt -1.53053 0.31312
vt -1.37384 0.0862649
vt -1.27295 0.359861
vt -1.18359 0.296891
vt -1.05433 0.205794
vt 0.9087 0.457
vt 0.915186 0.508931
vt 0.897115 0.496714
vn 0.809549 0.00721439 -0.587008
vn 0.809549 0.00721439 -0.587008
vn 0.809549 0.00721439 -0.587008
vn 0.836494 -0.544712 -0.0597137
vn 0.836494 -0.544712 -0.0597137
vn 0.836494 -0.544712 -0.0597137
vn 0.836494 -0.544712 -0.0597137
vn 0.836494 -0.544712 -0.0597137
vn 0.836494 -0.544712 -0.0597137
vn 0.836494 -0.544712 -0.0597137
vn 0.836494 -0.544712 -0.0597137
vn 0.836494 -0.544712 -0.0597137
vn 0.625297 0.132011 -0.769141
vn 0.625297 0.132011 -0.769141
vn 0.625297 0.132011 -0.769141
vn 0.625297 0.132011 -0.769141
vn 0.625297 0.132011 -0.769141
vn 0.625297 0.132011 -0.769141
vn -0.584985 -0.800921 0.127743
vn -0.584985 -0.800921 0.127743
vn -0.584985 -0.800921 0.127743
vn -0.584985 -0.800921 0.127743
vn -0.348176 0.159027 -0.923842
vn -0.348176 0.159027 -0.923842
vn -0.348176 0.159027 -0.923842
vn -0.348176 0.159027 -0.923842
vn -0.325424 0.38008 -0.865816
vn -0.325424 0.38008 -0.865816
vn -0.325424 0.38008 -0.865816
vn -0.325424 0.38008 -0.865816
vn -0.434789 -0.0469694 0.899307
vn -0.434789 -0.0469694 0.899307
vn -0.434789 -0.0469694 0.899307
vn -0.434789 -0.0469694 0.899307
vn -0.434789 -0.0469694 0.899307
vn -0.434789 -0.0469694 0.899307
vn 0.553335 -0.474758 0.684416
vn 0.553335 -0.474758 0.684416
vn 0.553335 -0.474758 0.684416
vn 0.553335 -0.474758 0.684416
vn 0.553335 -0.474758 0.684416
vn 0.553335 -0.474758 0.684416
vn 0.553335 -0.474758 0.684416
vn 0.553335 -0.474758 0.684416
vn 0.0554243 -0.94498 0.322399
vn 0.0554243 -0.94498 0.322399
vn 0.0554243 -0.94498 0.322399
vn 0.0554243 -0.94498 0.322399
vn 0.0554243 -0.94498 0.322399
vn 0.0554243 -0.94498 0.322399
vn 0.0554243 -0.94498 0.322399
vn 0.0554243 -0.94498 0.322399
vn 0.0554243 -0.94498 0.322399
vn 0.0554243 -0.94498 0.322399
vn 0.0554243 -0.94498 0.322399
vn 0.0554243 -0.94498 0.322399
vn 0.0554243 -0.94498 0.322399
vn 0.0554243 -0.94498 0.322399
vn 0.0554243 -0.94498 0.322399
vn 0.0554243 -0.94498 0.322399
vn -0.584985 -0.800921 0.127743
vn -0.584985 -0.800921 0.127743
vn 0.0554243 -0.94498 0.322399
vn 0.0554243 -0.94498 0.322399
vn -0.584985 -0.800921 0.127743
vn -0.584985 -0.800921 0.127743
vn -0.584985 -0.800921 0.127743
vn -0.584985 -0.800921 0.127743
vn -0.584985 -0.800921 0.127743
vn 0.553335 -0.474758 0.684416
vn -0.434789 -0.0469694 0.899307
vn -0.434789 -0.0469694 0.899307
vn -0.434789 -0.0469694 0.899307
vn -0.434789 -0.0469694 0.899307
vn -0.434789 -0.0469694 0.899307
vn 0.338426 0.441855 0.830802
vn 0.338426 0.441855 0.830802
vn 0.338426 0.441855 0.830802
vn 0.338426 0.441855 0.830802
vn 0.809549 0.00721439 -0.587008
vn 0.809549 0.00721439 -0.587008
vn 0.553335 -0.474758 0.684416
vn 0.553335 -0.474758 0.684416
vn 0.553335 -0.474758 0.684416
vn 0.553335 -0.474758 0.684416
vn 0.625297 0.132011 -0.769141
vn 0.625297 0.132011 -0.769141
vn 0.338426 0.441855 0.830802
vn 0.338426 0.441855 0.830802
vn 0.338426 0.441855 0.830802
vn 0.338426 0.441855 0.830802
vn 0.338426 0.441855 0.830802
vn -0.40451 0.305143 -0.862125
vn -0.40451 0.305143 -0.862125
vn -0.40451 0.305143 -0.862125
vn -0.40451 0.305143 -0.862125
vn -0.325424 0.38008 -0.865816
vn -0.434789 -0.0469694 0.899307
vn -0.434789 -0.0469694 0.899307
vn -0.434789 -0.0469694 0.899307
vn -0.434789 -0.0469694 0.899307
vn -0.434789 -0.0469694 0.899307
vn 0.414028 0.294416 -0.861336
vn 0.414028 0.294416 -0.861336
vn 0.414028 0.294416 -0.861336
f 1/1/1 2/2/2 3/3/3 
f 4/4/4 5/5/5 6/6/6 
f 7/7/7 5/5/5 4/4/4 
f 8/8/8 5/5/5 7/7/7 
f 9/9/9 5/5/5 8/8/8 
f 5/5/5 9/9/9 10/10/10 
f 5/5/5 10/10/10 11/11/11 
f 12/12/12 5/5/5 11/11/11 
f 13/13/13 14/14/14 15/15/15 
f 16/16/16 14/14/14 13/13/13 
f 16/16/16 17/17/17 14/14/14 
f 18/18/18 17/17/17 16/16/16 
f 19/19/19 20/20/20 21/21/21 
f 20/20/20 19/19/19 22/22/22 
f 23/23/23 24/24/24 25/25/25 
f 23/23/23 25/25/25 26/26/26 
f 27/27/27 28/28/28 29/29/29 
f 30/30/30 28/28/28 27/27/27 
f 31/31/31 32/32/32 33/33/33 
f 34/34/34 32/32/32 31/31/31 
f 35/35/35 32/32/32 34/34/34 
f 36/36/36 32/32/32 35/35/35 
f 37/37/37 38/38/38 39/39/39 
f 37/37/37 39/39/39 40/40/40 
f 40/40/40 41/41/41 37/37/37 
f 42/42/42 41/41/41 40/40/40 
f 42/42/42 43/43/43 41/41/41 
f 44/44/44 43/43/43 42/42/42 
f 45/45/45 46/46/46 47/47/47 
f 48/48/48 47/47/47 46/46/46 
f 47/47/47 48/48/48 49/49/49 
f 50/50/50 47/47/47 49/49/49 
f 49/49/49 51/51/51 50/50/50 
f 51/51/51 49/49/49 52/52/52 
f 53/53/53 50/50/50 51/51/51 
f 54/54/54 50/50/50 53/53/53 
f 53/53/53 55/55/55 54/54/54 
f 55/55/55 53/53/53 56/56/56 
f 56/56/56 53/53/53 57/57/57 
f 56/56/56 57/57/57 58/58/58 
f 57/57/57 59/59/59 58/58/58 
f 57/57/57 60/60/60 59/59/59 
f 22/22/22 61/61/61 62/62/62 
f 22/22/22 19/19/19 61/61/61 
f 59/59/59 60/60/60 63/63/63 
f 59/59/59 63/63/63 64/64/64 
f 22/22/22 62/62/62 65/65/65 
f 22/22/22 65/65/65 66/66/66 
f 22/22/22 66/66/66 67/67/67 
f 67/67/67 66/66/66 68/68/68 
f 66/66/66 65/65/65 69/69/69 
f 70/70/70 41/41/41 43/43/43 
f 71/71/71 72/72/72 73/73/73 
f 72/72/72 71/71/71 74/74/74 
f 75/75/75 72/72/72 74/74/74 
f 76/76/76 77/77/77 78/78/78 
f 79/79/79 77/77/77 76/76/76 
f 80/80/80 2/2/2 81/81/81 
f 3/3/3 2/2/2 80/80/80 
f 82/82/82 70/70/70 83/83/83 
f 84/84/84 70/70/70 82/82/82 
f 82/82/82 85/85/85 84/84/84 
f 83/83/83 70/70/70 43/43/43 
f 86/86/86 15/15/15 87/87/87 
f 88/88/88 89/89/89 77/77/77 
f 88/88/88 90/90/90 89/89/89 
f 88/88/88 91/91/91 90/90/90 
f 92/92/92 91/91/91 88/88/88 
f 93/93/93 94/94/94 95/95/95 
f 96/96/96 94/94/94 93/93/93 
f 97/97/97 29/29/29 28/28/28 
f 98/98/98 99/99/99 33/33/33 
f 73/73/73 99/99/99 98/98/98 
f 73/73/73 72/72/72 99/99/99 
f 72/72/72 100/100/100 99/99/99 
f 77/77/77 89/89/89 78/78/78 
f 100/100/100 101/101/101 99/99/99 
f 101/101/101 102/102/102 99/99/99 
f 98/98/98 33/33/33 32/32/32 
f 103/103/103 104/104/104 105/105/105 
f 87/87/87 15/15/15 14/14/14 
