v 0.925142 0.980912 -0.232671
v 0.889462 0.908076 -0.242332
v 0.900573 0.964895 -0.246836
v 0.888223 0.90174 -0.24183
v 0.886172 0.902427 -0.239506
v 0.889462 0.908076 -0.242332
v 0.888223 0.90174 -0.24183
v 0.885437 0.967299 -0.230043
v 0.885466 0.967318 -0.230071
v 0.886075 0.967701 -0.230684
v 0.886358 0.967646 -0.230999
v 0.900573 0.964895 -0.246836
v 0.886607 0.968233 -0.230007
v 0.900573 0.964895 -0.246836
v 0.886358 0.967646 -0.230999
v 0.891436 0.972667 -0.224652
v 0.925142 0.980912 -0.232671
v 0.894448 0.975432 -0.221312
v 0.926728 0.987912 -0.219827
v 0.896104 0.976952 -0.219476
v 0.910254 0.989944 -0.203784
v 0.910254 0.989944 -0.203784
v 0.914966 0.984593 -0.154706
v 0.926728 0.987912 -0.219827
v 0.907636 0.989326 -0.190653
v 0.905129 0.988735 -0.178082
v 0.903371 0.98682 -0.182723
v 0.914966 0.984593 -0.154706
v 0.905129 0.988735 -0.178082
v 0.886172 0.902487 -0.239497
v 0.895854 0.978638 -0.202558
v 0.889135 0.971325 -0.220286
v 0.885437 0.967299 -0.230043
v 0.889135 0.971325 -0.220286
v 0.886607 0.968233 -0.230007
v 0.885437 0.967299 -0.230043
v 0.891436 0.972667 -0.224652
v 0.894448 0.975432 -0.221312
v 0.896104 0.976952 -0.219476
v 0.895854 0.978638 -0.202558
v 0.910254 0.989944 -0.203784
v 0.907636 0.989326 -0.190653
v 0.903371 0.98682 -0.182723
v 0.905129 0.988735 -0.178082
v 0.886111 0.967777 -0.230557
v 0.886036 0.967709 -0.23064
v 0.886075 0.967701 -0.230684
v 0.886036 0.967709 -0.23064
v 0.886111 0.967777 -0.230557
v 0.915382 0.984417 -0.153716
v 0.886172 0.902427 -0.239506
v 0.886221 0.898133 -0.240133
v 0.924517 0.98057 -0.132006
v 0.886228 0.897508 -0.240224
v 0.912107 0.836326 -0.187453
v 0.88627 0.893823 -0.240761
v 0.88627 0.893823 -0.240761
v 0.935992 0.986525 -0.226093
v 0.912106 0.836326 -0.187453
v 0.887935 0.900266 -0.241713
v 0.887935 0.900266 -0.241713
v 0.927135 0.982212 -0.231522
v 0.935992 0.986525 -0.226093
v 0.927113 0.982198 -0.231534
v 0.927101 0.98219 -0.231541
v 0.888166 0.90145 -0.241807
v 0.925386 0.981072 -0.23253
v 0.92538 0.981068 -0.232533
v 0.925377 0.981066 -0.232535
v 0.925225 0.980967 -0.232623
v 0.925225 0.980967 -0.232623
v 0.925386 0.981072 -0.23253
v 0.927135 0.982212 -0.231522
v 0.928099 0.987743 -0.221161
v 0.931936 0.985342 -0.228754
v 0.931936 0.985342 -0.228753
v 0.934423 0.986963 -0.22732
v 0.934423 0.986963 -0.22732
v 0.935992 0.986525 -0.226093
v 0.934213 0.986989 -0.227115
v 0.928099 0.987743 -0.221161
v 0.934213 0.986989 -0.227115
v 0.934423 0.986963 -0.22732
v 0.962864 0.977924 -0.192786
v 0.915382 0.984417 -0.153716
v 0.924517 0.98057 -0.132006
v 0.95338 0.970701 -0.0891282
v 0.942668 0.972926 -0.0888696
v 0.942668 0.972926 -0.0888697
v 1.00888 0.750209 0.0346651
v 0.942668 0.972926 -0.0888696
v 1.00888 0.750209 0.0346652
v 0.95338 0.970701 -0.0891282
v 1.07504 0.724045 0.0405053
v 1.04472 0.951726 -0.0913327
v 1.04472 0.951726 -0.0913327
v 1.07504 0.724045 0.0405053
v 0.962864 0.977924 -0.192786
v 1.04472 0.951726 -0.0913327
v 0.912106 0.836326 -0.187453
v 1.07504 0.724045 0.0405053
v 0.993641 0.70492 -0.010536
v 0.993641 0.70492 -0.0105361
v 0.99706 0.699409 -0.00311661
v 1.01293 0.736583 0.0422231
v 1.01293 0.736583 0.0422232
v 1.03083 0.676403 0.075603
v 1.06829 0.696295 0.0581263
v 1.03244 0.670988 0.0786065
v 0.99706 0.699409 -0.00311653
v 1.06829 0.696295 0.0581263
v 1.03244 0.670988 0.0786065
v 0.99706 0.699409 -0.00311653
v 1.06829 0.696295 0.0581263
v 1.03083 0.676403 0.0756029
v 1.03244 0.670988 0.0786064
v 0.888166 0.90145 -0.241807
v 0.887935 0.900266 -0.241713
v 0.886221 0.898133 -0.240133
v 0.886228 0.897508 -0.240224
v 0.88627 0.893823 -0.240761
v 0.886036 0.967709 -0.23064
vt 0.886299 0.768046
vt 0.890296 0.758184
vt 0.8895 0.766172
vt 0.890385 0.757293
vt 0.942904 -0.775944
vt 0.948576 -0.780251
vt 0.942214 -0.779043
vt 1.00804 -0.768479
vt 1.00806 -0.768519
vt 1.00844 -0.769382
vt 1.00839 -0.769805
vt 1.00563 -0.791085
vt -1.14278 -0.227335
vt -1.15747 -0.210791
vt -1.14252 -0.226187
vt -1.14786 -0.234109
vt -1.18331 -0.230624
vt -1.15103 -0.238332
vt -1.18497 -0.245243
vt -1.15277 -0.240655
vt -1.16765 -0.2605
vt -0.303188 -0.687496
vt -0.253924 -0.693206
vt -0.319291 -0.704036
vt -0.290007 -0.68506
vt -0.277388 -0.682729
vt 0.925415 0.172249
vt 0.923183 0.20257
vt 0.927334 0.177211
vt 0.8409 0.113186
vt 0.917215 0.151044
vt 0.909886 0.132093
vt 0.905852 0.121661
vt -0.201444 -1.30041
vt -0.211203 -1.2965
vt -0.211239 -1.29501
vt -0.205827 -1.30304
vt -0.202475 -1.30712
vt -0.200631 -1.30937
vt -0.18365 -1.31022
vt -0.18488 -1.32853
vt -0.171699 -1.32609
vt -0.163739 -1.32119
vt -0.15908 -1.32376
vt -0.211755 -1.29583
vt -0.211838 -1.29573
vt -1.14223 -0.226493
vt -1.14218 -0.226535
vt -1.14226 -0.22664
vt 0.923007 0.203645
vt 0.84084 0.113178
vt 0.836537 0.112616
vt 0.919151 0.227196
vt 0.835911 0.112535
vt 0.774598 0.171172
vt 0.832218 0.112053
vt 0.890466 0.756279
vt 0.884867 0.768664
vt 0.883529 0.750302
vt 0.890406 0.757086
vt 0.890406 0.757086
vt 0.88604 0.768198
vt 0.884867 0.768664
vt 0.886042 0.768197
vt 0.886044 0.768196
vt 0.890389 0.757252
vt 0.886267 0.768065
vt 0.886268 0.768064
vt 0.886269 0.768064
vt 0.886288 0.768053
vt -1.18339 -0.230691
vt -1.18356 -0.230822
vt -1.1854 -0.232233
vt -1.18641 -0.243974
vt -1.19045 -0.236109
vt 0.885414 0.768565
vt 0.88509 0.768754
vt -0.326812 -0.711762
vt -0.325581 -0.713388
vt -0.326606 -0.71155
vt -0.32063 -0.705412
vt -1.19284 -0.238312
vt -1.19307 -0.238117
vt -0.292148 -0.741453
vt -0.25293 -0.69365
vt -0.231139 -0.70338
vt -0.188099 -0.733655
vt -0.187839 -0.722714
vt 0.911491 0.273993
vt 0.688295 0.413391
vt -0.881555 0.880364
vt -0.948305 0.62582
vt -0.892354 0.878588
vt -1.015 0.600373
vt -0.984429 0.863442
vt -0.190312 -0.826941
vt 0.849323 0.742011
vt 0.879603 0.768461
vt 0.863571 0.767845
vt 0.883529 0.750302
vt 0.849323 0.742011
vt 0.859172 0.735127
vt 0.642909 0.365782
vt 0.637386 0.373943
vt 0.674639 0.421919
vt -0.952389 0.610247
vt -0.970426 0.541468
vt -1.00819 0.567513
vt -0.972049 0.535279
vt 0.85815 0.734491
vt 0.847622 0.737605
vt 0.847553 0.733216
vt 0.85815 0.734491
vt 0.847622 0.737605
vt 0.61433 0.459585
vt 0.608904 0.462974
vt 0.941923 -0.778988
vt 0.940734 -0.778762
vt 0.938592 -0.776439
vt 0.937965 -0.77651
vt 0.934265 -0.776934
vt 1.00845 -0.769324
vn 0.575225 -0.175813 -0.798878
vn 0.575225 -0.175813 -0.798878
vn 0.575225 -0.175813 -0.798878
vn 0.575225 -0.175813 -0.798878
vn -0.733364 0.0899893 -0.673854
vn -0.733364 0.0899893 -0.673854
vn -0.733364 0.0899893 -0.673854
vn -0.733364 0.0899893 -0.673854
vn -0.733364 0.0899893 -0.673854
vn -0.733364 0.0899893 -0.673854
vn -0.733364 0.0899893 -0.673854
vn -0.733364 0.0899893 -0.673854
vn -0.309274 0.850552 -0.425335
vn -0.309274 0.850552 -0.425335
vn -0.309274 0.850552 -0.425335
vn -0.309274 0.850552 -0.425335
vn -0.309274 0.850552 -0.425335
vn -0.309274 0.850552 -0.425335
vn -0.309274 0.850552 -0.425335
vn -0.309274 0.850552 -0.425335
vn -0.309274 0.850552 -0.425335
vn 0.20464 0.974993 0.0866665
vn 0.20464 0.974993 0.0866665
vn 0.20464 0.974993 0.0866665
vn 0.20464 0.974993 0.0866665
vn 0.20464 0.974993 0.0866665
vn -0.923843 -0.0654797 0.377129
vn -0.923843 -0.0654797 0.377129
vn -0.923843 -0.0654797 0.377129
vn -0.923843 -0.0654797 0.377129
vn -0.923843 -0.0654797 0.377129
vn -0.923843 -0.0654797 0.377129
vn -0.923843 -0.0654797 0.377129
vn -0.619783 0.77995 -0.0868729
vn -0.619783 0.77995 -0.0868729
vn -0.619783 0.77995 -0.0868729
vn -0.619783 0.77995 -0.0868729
vn -0.619783 0.77995 -0.0868729
vn -0.619783 0.77995 -0.0868729
vn -0.619783 0.77995 -0.0868729
vn -0.619783 0.77995 -0.0868729
vn -0.619783 0.77995 -0.0868729
vn -0.619783 0.77995 -0.0868729
vn -0.619783 0.77995 -0.0868729
vn -0.619783 0.77995 -0.0868729
vn -0.619783 0.77995 -0.0868729
vn -0.309274 0.850552 -0.425335
vn -0.309274 0.850552 -0.425335
vn -0.309274 0.850552 -0.425335
vn -0.923843 -0.0654797 0.377129
vn -0.923843 -0.0654797 0.377129
vn -0.923843 -0.0654797 0.377129
vn -0.923843 -0.0654797 0.377129
vn -0.923843 -0.0654797 0.377129
vn -0.923843 -0.0654797 0.377129
vn -0.923843 -0.0654797 0.377129
vn 0.710848 -0.279132 -0.645585
vn 0.710848 -0.279132 -0.645585
vn 0.710848 -0.279132 -0.645585
vn 0.710848 -0.279132 -0.645585
vn 0.575225 -0.175813 -0.798878
vn 0.575225 -0.175813 -0.798878
vn 0.575225 -0.175813 -0.798878
vn 0.575225 -0.175813 -0.798878
vn 0.575225 -0.175813 -0.798878
vn 0.575225 -0.175813 -0.798878
vn 0.575225 -0.175813 -0.798878
vn 0.575225 -0.175813 -0.798878
vn 0.575225 -0.175813 -0.798878
vn 0.575225 -0.175813 -0.798878
vn -0.309274 0.850552 -0.425335
vn -0.309274 0.850552 -0.425335
vn -0.309274 0.850552 -0.425335
vn -0.309274 0.850552 -0.425335
vn -0.309274 0.850552 -0.425335
vn 0.575225 -0.175813 -0.798878
vn 0.575225 -0.175813 -0.798878
vn 0.20464 0.974993 0.0866665
vn 0.20464 0.974993 0.0866665
vn 0.20464 0.974993 0.0866665
vn 0.20464 0.974993 0.0866665
vn -0.309274 0.850552 -0.425335
vn -0.309274 0.850552 -0.425335
vn 0.20464 0.974993 0.0866665
vn 0.20464 0.974993 0.0866665
vn 0.20464 0.974993 0.0866665
vn 0.20464 0.974993 0.0866665
vn 0.20464 0.974993 0.0866665
vn -0.923843 -0.0654797 0.377129
vn -0.923843 -0.0654797 0.377129
vn 0.126415 0.509637 0.851052
vn 0.126415 0.509637 0.851052
vn 0.126415 0.509637 0.851052
vn 0.126415 0.509637 0.851052
vn 0.126415 0.509637 0.851052
vn 0.20464 0.974993 0.0866665
vn 0.710848 -0.279132 -0.645585
vn 0.710848 -0.279132 -0.645585
vn 0.710848 -0.279132 -0.645585
vn 0.534124 -0.542046 -0.648766
vn 0.534124 -0.542046 -0.648766
vn 0.534124 -0.542046 -0.648766
vn -0.923843 -0.0654797 0.377129
vn -0.923843 -0.0654797 0.377129
vn -0.923843 -0.0654797 0.377129
vn 0.126415 0.509637 0.851052
vn 0.126415 0.509637 0.851052
vn 0.126415 0.509637 0.851052
vn 0.126415 0.509637 0.851052
vn 0.33891 -0.833411 -0.43654
vn 0.33891 -0.833411 -0.43654
vn 0.33891 -0.833411 -0.43654
vn 0.534124 -0.542046 -0.648766
vn 0.534124 -0.542046 -0.648766
vn -0.923843 -0.0654797 0.377129
vn -0.923843 -0.0654797 0.377129
vn -0.733364 0.0899893 -0.673854
vn -0.733364 0.0899893 -0.673854
vn -0.733364 0.0899893 -0.673854
vn -0.733364 0.0899893 -0.673854
vn -0.733364 0.0899893 -0.673854
vn -0.733364 0.0899893 -0.673854
f 1/1/1 2/2/2 3/3/3 
f 2/2/2 1/1/1 4/4/4 
f 5/5/5 6/6/6 7/7/7 
f 5/5/5 8/8/8 6/6/6 
f 6/6/6 8/8/8 9/9/9 
f 6/6/6 9/9/9 10/10/10 
f 6/6/6 10/10/10 11/11/11 
f 6/6/6 11/11/11 12/12/12 
f 13/13/13 14/14/14 15/15/15 
f 16/16/16 14/14/14 13/13/13 
f 14/14/14 16/16/16 17/17/17 
f 17/17/17 16/16/16 18/18/18 
f 18/18/18 19/19/19 17/17/17 
f 20/20/20 19/19/19 18/18/18 
f 19/19/19 20/20/20 21/21/21 
f 22/22/22 23/23/23 24/24/24 
f 25/25/25 23/23/23 22/22/22 
f 26/26/26 23/23/23 25/25/25 
f 27/27/27 28/28/28 29/29/29 
f 27/27/27 30/30/30 28/28/28 
f 31/31/31 30/30/30 27/27/27 
f 32/32/32 30/30/30 31/31/31 
f 33/33/33 30/30/30 32/32/32 
f 34/34/34 35/35/35 36/36/36 
f 34/34/34 37/37/37 35/35/35 
f 37/37/37 34/34/34 38/38/38 
f 34/34/34 39/39/39 38/38/38 
f 34/34/34 40/40/40 39/39/39 
f 39/39/39 40/40/40 41/41/41 
f 40/40/40 42/42/42 41/41/41 
f 40/40/40 43/43/43 42/42/42 
f 43/43/43 44/44/44 42/42/42 
f 36/36/36 35/35/35 45/45/45 
f 46/46/46 36/36/36 45/45/45 
f 47/47/47 48/48/48 49/49/49 
f 49/49/49 15/15/15 47/47/47 
f 13/13/13 15/15/15 49/49/49 
f 30/30/30 50/50/50 28/28/28 
f 51/51/51 50/50/50 30/30/30 
f 52/52/52 50/50/50 51/51/51 
f 52/52/52 53/53/53 50/50/50 
f 54/54/54 53/53/53 52/52/52 
f 54/54/54 55/55/55 53/53/53 
f 56/56/56 55/55/55 54/54/54 
f 57/57/57 58/58/58 59/59/59 
f 60/60/60 58/58/58 57/57/57 
f 61/61/61 62/62/62 63/63/63 
f 61/61/61 64/64/64 62/62/62 
f 61/61/61 65/65/65 64/64/64 
f 66/66/66 65/65/65 61/61/61 
f 66/66/66 67/67/67 65/65/65 
f 66/66/66 68/68/68 67/67/67 
f 66/66/66 69/69/69 68/68/68 
f 4/4/4 69/69/69 66/66/66 
f 4/4/4 70/70/70 69/69/69 
f 4/4/4 1/1/1 70/70/70 
f 19/19/19 71/71/71 17/17/17 
f 71/71/71 19/19/19 72/72/72 
f 73/73/73 72/72/72 19/19/19 
f 73/73/73 19/19/19 74/74/74 
f 75/75/75 73/73/73 74/74/74 
f 63/63/63 62/62/62 76/76/76 
f 63/63/63 76/76/76 77/77/77 
f 78/78/78 23/23/23 79/79/79 
f 80/80/80 23/23/23 78/78/78 
f 81/81/81 23/23/23 80/80/80 
f 23/23/23 81/81/81 24/24/24 
f 75/75/75 74/74/74 82/82/82 
f 83/83/83 75/75/75 82/82/82 
f 23/23/23 84/84/84 79/79/79 
f 85/85/85 84/84/84 23/23/23 
f 85/85/85 86/86/86 84/84/84 
f 86/86/86 87/87/87 84/84/84 
f 86/86/86 88/88/88 87/87/87 
f 55/55/55 89/89/89 53/53/53 
f 90/90/90 89/89/89 55/55/55 
f 91/91/91 92/92/92 93/93/93 
f 93/93/93 92/92/92 94/94/94 
f 93/93/93 94/94/94 95/95/95 
f 84/84/84 87/87/87 96/96/96 
f 97/97/97 98/98/98 99/99/99 
f 59/59/59 98/98/98 97/97/97 
f 59/59/59 58/58/58 98/98/98 
f 100/100/100 101/101/101 102/102/102 
f 90/90/90 55/55/55 103/103/103 
f 104/104/104 90/90/90 103/103/103 
f 105/105/105 90/90/90 104/104/104 
f 94/94/94 92/92/92 106/106/106 
f 94/94/94 106/106/106 107/107/107 
f 107/107/107 108/108/108 94/94/94 
f 109/109/109 108/108/108 107/107/107 
f 110/110/110 111/111/111 112/112/112 
f 113/113/113 101/101/101 114/114/114 
f 102/102/102 101/101/101 113/113/113 
f 115/115/115 104/104/104 116/116/116 
f 115/115/115 105/105/105 104/104/104 
f 117/117/117 5/5/5 7/7/7 
f 118/118/118 5/5/5 117/117/117 
f 119/119/119 5/5/5 118/118/118 
f 119/119/119 118/118/118 120/120/120 
f 120/120/120 118/118/118 121/121/121 
f 10/10/10 9/9/9 122/122/122 
