v 1.02777 -2.04015 0.396399
v 1.02248 -1.81821 0.525829
v 1.01832 -2.07139 0.393144
v 1.02248 -1.81821 0.525829
v 1.02777 -2.04015 0.3964
v 1.04309 -1.88092 0.415359
v 1.04309 -1.88092 0.415359
v 1.02225 -1.88213 0.416712
v 1.02248 -1.81821 0.525829
v 1.02777 -2.04015 0.3964
v 1.02225 -1.88213 0.416712
v 1.04309 -1.88092 0.415359
v 0.809699 -1.89446 0.43051
v 0.620847 -2.02182 0.428101
v 0.776467 -1.89639 0.432667
v 0.809699 -1.89446 0.43051
v 0.776467 -1.89639 0.432667
v 0.801087 -1.86492 0.482369
v 0.825301 -1.83672 0.526569
v 0.82549 -1.8365 0.526914
v 0.636903 -1.97866 0.43238
v 0.82549 -1.8365 0.526914
v 0.825301 -1.83672 0.526569
v 0.831141 -1.82992 0.53723
v 0.852304 -1.80526 0.575862
v 0.684994 -1.8912 0.621471
v 0.861346 -1.79473 0.592367
v 0.852304 -1.80526 0.575862
v 0.861346 -1.79473 0.592367
v 0.998071 -1.80327 0.555355
v 0.831141 -1.82992 0.53723
v 1.02179 -1.81744 0.527267
v 1.02179 -1.81744 0.527267
v 1.0189 -1.81418 0.5333
v 0.994667 -2.14965 0.384991
v 0.994667 -2.14965 0.384991
v 0.64659 -2.0749 0.419552
v 1.01832 -2.07139 0.393144
v 0.984845 -2.18214 0.381605
v 0.966116 -2.24411 0.375149
v 0.84979 -2.36534 0.368274
v 0.955394 -2.27159 0.37246
v 0.84979 -2.36534 0.368274
v 0.955394 -2.27159 0.37246
v 0.928042 -2.31686 0.381066
v 0.926165 -2.31996 0.381657
v 0.928042 -2.31686 0.381066
v 0.7949 -1.95573 0.784752
v 0.926165 -2.31996 0.381657
v 0.966116 -2.24411 0.375149
v 0.955394 -2.27159 0.37246
v 0.966116 -2.24411 0.375149
v 0.925074 -1.83514 0.659638
v 0.7949 -1.95573 0.784752
v 0.930201 -1.83326 0.653139
v 0.984845 -2.18214 0.381605
v 0.933403 -1.83208 0.64908
v 1.01258 -1.80707 0.546487
v 1.01806 -1.81324 0.535059
v 1.01806 -1.81323 0.535058
v 1.0189 -1.81418 0.5333
v 1.01258 -1.80707 0.546487
v 1.00986 -1.80401 0.552165
v 0.998071 -1.80327 0.555355
v 0.814337 -1.80755 0.641657
v 1.00986 -1.80401 0.552165
v 0.861346 -1.79473 0.592367
v 0.814337 -1.80755 0.641657
v 0.772688 -1.82771 0.656995
v 0.802445 -1.8108 0.654125
v 0.933403 -1.83208 0.64908
v 0.802445 -1.8108 0.654125
v 1.00986 -1.80401 0.552165
v 0.801317 -1.81111 0.655308
v 0.930201 -1.83326 0.653139
v 0.800942 -1.81121 0.655702
v 0.925074 -1.83514 0.659638
v 0.800348 -1.81137 0.656325
v 0.822292 -1.84213 0.71857
v 0.822568 -1.84239 0.719062
v 0.826234 -1.84587 0.725597
v 0.845687 -1.8643 0.760273
v 0.845687 -1.8643 0.760273
v 0.845687 -1.8643 0.760273
v 0.594588 -2.12406 0.722806
v 0.7949 -1.95573 0.784751
v 0.826234 -1.84587 0.725597
v 0.557045 -2.13874 0.6973
v 0.822568 -1.84239 0.719062
v 0.556938 -2.13667 0.695483
v 0.557044 -2.13874 0.6973
v 0.556938 -2.13667 0.695483
v 0.559959 -2.14727 0.698846
v 0.557264 -2.14303 0.701052
v 0.557264 -2.14303 0.701052
v 0.56919 -2.13965 0.710213
v 0.557316 -2.14404 0.701939
v 0.557316 -2.14404 0.701939
v 0.583 -2.1483 0.7037
v 0.56919 -2.13965 0.710213
v 0.559959 -2.14727 0.698846
v 0.583 -2.1483 0.7037
v 0.559959 -2.14727 0.698846
v 0.56397 -2.15397 0.69595
v 0.583 -2.1483 0.7037
v 0.56397 -2.15397 0.69595
v 0.568973 -2.15787 0.687878
v 0.583 -2.1483 0.7037
v 0.568973 -2.15787 0.687878
v 0.575861 -2.16746 0.680995
v 0.606351 -2.21591 0.656466
v 0.583 -2.1483 0.7037
v 0.575861 -2.16746 0.680995
v 0.606351 -2.21591 0.656466
v 0.706158 -2.06019 0.781941
v 0.583 -2.1483 0.7037
v 0.679228 -2.32091 0.587081
v 0.706158 -2.06019 0.781941
v 0.679228 -2.32091 0.587081
v 0.782198 -1.97634 0.789007
v 0.706158 -2.06019 0.781941
v 0.782198 -1.97634 0.789007
v 0.594588 -2.12406 0.722807
v 0.583 -2.1483 0.7037
v 0.594588 -2.12406 0.722807
v 0.56919 -2.13965 0.710213
v 0.923389 -2.32456 0.382531
v 0.782198 -1.97634 0.789007
v 0.923885 -2.32373 0.382374
v 0.894943 -2.35257 0.38268
v 0.923885 -2.32373 0.382374
v 0.842422 -2.4043 0.382956
v 0.894943 -2.35257 0.38268
v 0.842422 -2.4043 0.382956
v 0.923389 -2.32456 0.382531
v 0.923389 -2.32456 0.382531
v 0.829158 -2.41736 0.383026
v 0.806601 -2.40614 0.367701
v 0.829158 -2.41736 0.383026
v 0.806202 -2.40403 0.366547
v 0.806202 -2.40403 0.366547
v 0.806202 -2.40403 0.366547
v 0.553445 -2.06857 0.635865
v 0.64659 -2.0749 0.419552
v 0.806601 -2.40614 0.367702
v 0.689771 -2.32992 0.570874
v 0.606351 -2.21591 0.656465
v 0.679228 -2.32091 0.587081
v 0.689772 -2.32992 0.570874
v 0.822224 -2.42419 0.383063
v 0.822224 -2.42419 0.383063
v 0.806858 -2.4075 0.368444
v 0.811925 -2.43433 0.383117
v 0.806858 -2.4075 0.368444
v 0.811925 -2.43433 0.383117
v 0.811925 -2.43433 0.383117
v 0.57586 -2.16746 0.680995
v 0.55666 -2.13125 0.690738
v 0.651673 -1.91532 0.607973
v 0.553445 -2.06857 0.635865
v 0.55666 -2.13125 0.690738
v 0.625508 -1.93427 0.597373
v 0.617978 -1.93972 0.594323
v 0.613275 -1.94312 0.592418
v 0.549383 -1.98938 0.566535
v 0.549383 -1.98938 0.566535
v 0.620847 -2.02182 0.428101
v 0.608246 -1.99584 0.432285
v 0.627837 -1.9841 0.43235
v 0.608246 -1.99584 0.432286
v 0.636903 -1.97866 0.43238
v 0.77395 -1.89654 0.432831
v 0.77395 -1.89654 0.432831
v 0.801087 -1.86493 0.482369
v 0.773949 -1.89654 0.432831
v 0.627837 -1.9841 0.43235
v 0.613275 -1.94312 0.592418
v 0.549383 -1.98938 0.566535
v 0.608246 -1.99584 0.432286
v 0.617978 -1.93972 0.594323
v 0.625507 -1.93427 0.597373
v 0.651672 -1.91532 0.607973
v 0.656899 -1.91154 0.61009
v 0.657015 -1.91146 0.610137
v 0.65717 -1.91134 0.6102
v 0.674065 -1.89911 0.617044
v 0.674434 -1.89884 0.617193
v 0.674846 -1.89855 0.61736
v 0.674846 -1.89855 0.61736
v 0.556752 -2.13303 0.692301
v 0.684994 -1.8912 0.621471
v 0.556685 -2.13174 0.691166
v 0.674434 -1.89884 0.617193
v 0.674108 -1.89908 0.617061
v 0.674065 -1.89911 0.617044
v 0.65717 -1.91134 0.610199
v 0.657015 -1.91146 0.610137
v 0.656937 -1.91151 0.610105
v 0.656899 -1.91154 0.61009
v 0.556685 -2.13174 0.691166
v 0.568973 -2.15787 0.687878
v 0.556751 -2.13303 0.692301
v 0.775229 -1.82587 0.658025
v 0.774933 -1.82608 0.657905
v 0.772688 -1.82771 0.656995
v 0.774933 -1.82608 0.657905
v 0.800942 -1.81121 0.655702
v 0.775229 -1.82587 0.658025
v 0.800347 -1.81137 0.656325
v 0.792178 -1.8136 0.664891
v 0.792178 -1.8136 0.664891
v 0.822292 -1.84213 0.71857
v 0.792178 -1.8136 0.664891
v 0.801317 -1.81111 0.655308
v 0.56397 -2.15397 0.69595
v 0.557316 -2.14404 0.701939
vt 0.737294 0.447144
vt 0.726008 0.468215
vt 0.737095 0.444158
vt 0.726008 0.468215
vt 0.737294 0.447144
vt 0.737552 0.462291
vt -0.888114 0.59195
vt -0.867203 0.591394
vt -0.867437 0.464937
vt -0.978791 1.97458
vt -0.973259 1.81525
vt -0.994152 1.81422
vt -0.760165 1.82577
vt -0.570828 1.95243
vt -0.726848 1.82741
vt -0.653924 0.58572
vt -0.620578 0.584832
vt -0.645283 0.526043
vt -0.66958 0.473649
vt -0.669769 0.47324
vt -0.10342 0.469267
vt -0.00558943 0.234444
vt -0.00594635 0.234719
vt 0.00508636 0.226215
vt 0.0450657 0.195397
vt 0.0922651 0.383093
vt 0.0621465 0.18223
vt -0.696676 0.415217
vt -0.705749 0.395652
vt -0.842942 0.431906
vt -0.67544 0.461011
vt -0.866745 0.463304
vt 0.725851 0.468288
vt 0.725191 0.468591
vt 0.736595 0.436677
vt -0.945607 2.08465
vt -0.596638 2.00617
vt -0.969322 2.00598
vt -0.93576 2.11731
vt -0.916983 2.17959
vt -0.800359 2.30073
vt -0.906233 2.2072
vt -0.538315 2.30179
vt -0.652378 2.21844
vt -0.622835 2.26314
vt -0.620808 2.26621
vt 0.732415 0.42014
vt 0.692476 0.454707
vt 0.732217 0.419817
vt 0.735991 0.427649
vt 0.735296 0.424843
vt 0.735991 0.427649
vt 0.709699 0.466417
vt 0.692476 0.454707
vt 0.710511 0.466606
vt 0.736387 0.433572
vt 0.711018 0.466724
vt 0.72375 0.469255
vt 0.724999 0.46868
vt -0.862996 0.454457
vt -0.863842 0.456453
vt -0.857499 0.441479
vt -0.854767 0.435031
vt -1.21796 -1.22376
vt -1.03175 -1.30471
vt -1.2299 -1.22112
vt -1.07939 -1.25437
vt 0.113155 0.229155
vt 0.129028 0.275244
vt 0.126058 0.241025
vt -1.15242 -1.32123
vt -1.0197 -1.31744
vt 0.723129 0.46954
vt -1.01856 -1.31865
vt -1.14917 -1.32543
vt -1.01818 -1.31905
vt -1.14398 -1.33214
vt -1.01758 -1.31969
vt -1.03981 -1.38902
vt -1.04009 -1.38958
vt -1.04381 -1.39696
vt -1.06352 -1.43609
vt 0.697124 0.463492
vt -1.58023 1.13553
vt -1.88081 0.931617
vt -1.68604 1.11697
vt -1.5589 1.09725
vt -1.8978 0.887042
vt -1.55488 1.09003
vt -1.8954 0.885681
vt -2.27725 0.428274
vt -2.27503 0.42664
vt -2.28639 0.428575
vt -2.28184 0.431651
vt -1.90276 0.889853
vt -1.89885 0.904761
vt -1.90393 0.890516
vt 0.683535 0.418203
vt 0.6859 0.4196
vt 0.684109 0.41989
vt 0.684007 0.41789
vt 0.6859 0.4196
vt 0.684007 0.41789
vt 0.685079 0.417319
vt 0.6859 0.4196
vt 0.685079 0.417319
vt 0.686433 0.416955
vt 0.6859 0.4196
vt 0.686433 0.416955
vt 0.687533 0.41652
vt 0.69223 0.414015
vt 0.6859 0.4196
vt 0.687533 0.41652
vt 0.69223 0.414015
vt 0.688804 0.439412
vt 0.6859 0.4196
vt 0.704719 0.408328
vt 0.688804 0.439412
vt 0.704719 0.408328
vt 0.691119 0.452564
vt -1.80691 1.05229
vt -1.70988 1.11101
vt 0.68508 0.423232
vt 0.6859 0.4196
vt 0.68508 0.423232
vt 0.684109 0.41989
vt 0.731925 0.41934
vt 0.691119 0.452564
vt 0.731977 0.419425
vt -0.587085 2.29624
vt -0.618345 2.26993
vt -0.530357 2.34331
vt 0.730815 0.414803
vt 0.728768 0.406428
vt 0.731925 0.41934
vt -0.617809 2.27074
vt 0.72825 0.404312
vt -0.491667 2.33859
vt -0.516031 2.3552
vt -0.491237 2.33619
vt -0.75666 2.33933
vt -2.56154 0.0269846
vt -2.20205 0.372989
vt -2.20884 0.137487
vt -2.5638 0.027896
vt -2.48213 0.260417
vt -2.35994 0.371574
vt -2.47247 0.279438
vt 0.706536 0.40779
vt 0.72798 0.403207
vt -0.508541 2.36142
vt -0.491944 2.34014
vt -0.497418 2.37065
vt -2.56526 0.0284817
vt -2.59402 0.0400621
vt 0.727578 0.401564
vt -2.30803 0.405971
vt -2.26922 0.42237
vt -1.63928 0.890676
vt -1.8166 0.84102
vt -1.88913 0.882126
vt -1.6612 0.86469
vt -1.6675 0.857211
vt -1.67144 0.85254
vt -1.72497 0.789083
vt -2.11719 0.310599
vt -2.15195 0.155309
vt -2.12411 0.164033
vt -0.577837 1.91447
vt -0.558195 1.92613
vt -0.586926 1.90908
vt -0.724324 1.82754
vt -0.618052 0.584765
vt -0.051687 0.269978
vt -0.102953 0.309497
vt -0.10345 0.479836
vt 0.0621988 0.471297
vt 0.0354138 0.549875
vt -0.103517 0.502676
vt 0.0641705 0.465513
vt 0.067327 0.456253
vt 0.078296 0.424074
vt 0.080487 0.417646
vt 0.0805357 0.417503
vt 0.0806005 0.417313
vt 0.0876833 0.396535
vt 0.087838 0.396081
vt 0.0880105 0.395575
vt -1.61986 0.913691
vt -1.8912 0.883297
vt -1.61136 0.923771
vt -1.8897 0.882447
vt -1.62021 0.913283
vt -1.62048 0.912959
vt -1.62052 0.912916
vt -1.63467 0.896136
vt -1.6348 0.895983
vt -1.63487 0.895905
vt -1.6349 0.895867
vt -2.26974 0.422754
vt -2.29775 0.414979
vt -2.27113 0.423776
vt -1.53577 1.01339
vt -1.53601 1.0131
vt -1.53789 1.01087
vt 0.129969 0.272483
vt 0.127689 0.242526
vt 0.130093 0.272119
vt 0.128334 0.243119
vt 0.137199 0.251274
vt -1.52157 1.03022
vt -1.55458 1.08949
vt -1.0093 -1.32844
vt 0.127282 0.242151
vt -2.29357 0.424356
vt -2.28293 0.432449
vn 0.789907 -0.294786 0.537725
vn 0.789907 -0.294786 0.537725
vn 0.789907 -0.294786 0.537725
vn 0.960668 -0.123324 0.248814
vn 0.960765 -0.122806 0.248695
vn 0.960685 -0.123233 0.248793
vn -0.0826012 0.860007 -0.503552
vn -0.0826012 0.860007 -0.503552
vn -0.0826012 0.860007 -0.503552
vn -0.0714802 0.124712 -0.989615
vn -0.0714802 0.124712 -0.989615
vn -0.0714802 0.124712 -0.989615
vn -0.0714802 0.124712 -0.989615
vn -0.0714802 0.124712 -0.989615
vn -0.0714802 0.124712 -0.989615
vn -0.0826012 0.860007 -0.503552
vn -0.0826012 0.860007 -0.503552
vn -0.0826012 0.860007 -0.503552
vn -0.0826012 0.860007 -0.503552
vn -0.0826012 0.860007 -0.503552
vn -0.496092 0.829239 -0.2574
vn -0.496092 0.829239 -0.2574
vn -0.496092 0.829239 -0.2574
vn -0.496092 0.829239 -0.2574
vn -0.496092 0.829239 -0.2574
vn -0.496092 0.829239 -0.2574
vn -0.496092 0.829239 -0.2574
vn -0.0826012 0.860007 -0.503552
vn -0.0826012 0.860007 -0.503552
vn -0.0826012 0.860007 -0.503552
vn -0.0826012 0.860007 -0.503552
vn -0.0826012 0.860007 -0.503552
vn 0.789907 -0.294786 0.537725
vn 0.789907 -0.294786 0.537725
vn 0.789907 -0.294786 0.537725
vn -0.0714802 0.124712 -0.989615
vn -0.0714802 0.124712 -0.989615
vn -0.0714802 0.124712 -0.989615
vn -0.0714802 0.124712 -0.989615
vn -0.0714802 0.124712 -0.989615
vn -0.0714802 0.124712 -0.989615
vn -0.0714802 0.124712 -0.989615
vn 0.377915 -0.3882 -0.840524
vn 0.377915 -0.3882 -0.840524
vn 0.377915 -0.3882 -0.840524
vn 0.377915 -0.3882 -0.840524
vn 0.75216 -0.348143 0.559511
vn 0.75216 -0.348143 0.559511
vn 0.75216 -0.348143 0.559511
vn 0.75216 -0.348143 0.559511
vn 0.75216 -0.348143 0.559511
vn 0.789907 -0.294786 0.537725
vn 0.789907 -0.294786 0.537725
vn 0.789907 -0.294786 0.537725
vn 0.789907 -0.294786 0.537725
vn 0.789907 -0.294786 0.537725
vn 0.789907 -0.294786 0.537725
vn 0.789907 -0.294786 0.537725
vn 0.789907 -0.294786 0.537725
vn -0.0826012 0.860007 -0.503552
vn -0.0826012 0.860007 -0.503552
vn -0.0826012 0.860007 -0.503552
vn -0.0826012 0.860007 -0.503552
vn 0.16232 0.906152 0.390564
vn 0.16232 0.906152 0.390564
vn 0.16232 0.906152 0.390564
vn 0.16232 0.906152 0.390564
vn -0.496092 0.829239 -0.2574
vn -0.496092 0.829239 -0.2574
vn -0.496092 0.829239 -0.2574
vn 0.16232 0.906152 0.390564
vn 0.16232 0.906152 0.390564
vn 0.789907 -0.294786 0.537725
vn 0.16232 0.906152 0.390564
vn 0.16232 0.906152 0.390564
vn 0.16232 0.906152 0.390564
vn 0.16232 0.906152 0.390564
vn 0.16232 0.906152 0.390564
vn 0.16232 0.906152 0.390564
vn 0.16232 0.906152 0.390564
vn 0.16232 0.906152 0.390564
vn 0.16232 0.906152 0.390564
vn 0.789907 -0.294786 0.537725
vn -0.611611 0.503156 0.610546
vn -0.611611 0.503156 0.610546
vn -0.611611 0.503156 0.610546
vn -0.611611 0.503156 0.610546
vn -0.611611 0.503156 0.610546
vn -0.611611 0.503156 0.610546
vn -0.611611 0.503156 0.610546
vn -0.86085 -0.359476 -0.360159
vn -0.86085 -0.359476 -0.360159
vn -0.86085 -0.359476 -0.360159
vn -0.86085 -0.359476 -0.360159
vn -0.611611 0.503156 0.610546
vn -0.611611 0.503156 0.610546
vn -0.611611 0.503156 0.610546
vn -0.168252 -0.750017 0.639661
vn -0.168252 -0.750017 0.639661
vn -0.168252 -0.750017 0.639661
vn -0.168252 -0.750017 0.639661
vn -0.200804 -0.487314 0.849825
vn -0.200804 -0.487314 0.849825
vn -0.200804 -0.487314 0.849825
vn 0.0714883 -0.880323 0.468957
vn 0.0714883 -0.880323 0.468957
vn 0.0714883 -0.880323 0.468957
vn -0.286912 -0.685666 0.668988
vn -0.286912 -0.685666 0.668988
vn -0.286912 -0.685666 0.668988
vn -0.443721 -0.611177 0.655419
vn -0.443721 -0.611177 0.655419
vn -0.443721 -0.611177 0.655419
vn -0.0871484 -0.5906 0.802245
vn -0.0871484 -0.5906 0.802245
vn -0.0871484 -0.5906 0.802245
vn -0.0871484 -0.5906 0.802245
vn 0.535605 -0.540356 0.648955
vn 0.535605 -0.540356 0.648955
vn 0.535605 -0.540356 0.648955
vn -0.611611 0.503156 0.610546
vn -0.611611 0.503156 0.610546
vn -0.0871484 -0.5906 0.802245
vn -0.013454 -0.614952 0.78845
vn -0.013454 -0.614952 0.78845
vn -0.013454 -0.614952 0.78845
vn 0.75216 -0.348143 0.559511
vn 0.75216 -0.348143 0.559511
vn 0.75216 -0.348143 0.559511
vn 0.377915 -0.3882 -0.840524
vn 0.377915 -0.3882 -0.840524
vn 0.377915 -0.3882 -0.840524
vn 0.535605 -0.540356 0.648955
vn 0.535605 -0.540356 0.648955
vn 0.535605 -0.540356 0.648955
vn 0.377915 -0.3882 -0.840524
vn 0.535605 -0.540356 0.648955
vn 0.377915 -0.3882 -0.840524
vn 0.377915 -0.3882 -0.840524
vn 0.377915 -0.3882 -0.840524
vn -0.0714802 0.124712 -0.989615
vn -0.86085 -0.359476 -0.360159
vn -0.86085 -0.359476 -0.360159
vn -0.86085 -0.359476 -0.360159
vn -0.86085 -0.359476 -0.360159
vn -0.86085 -0.359476 -0.360159
vn -0.86085 -0.359476 -0.360159
vn -0.86085 -0.359476 -0.360159
vn 0.535605 -0.540356 0.648955
vn 0.535605 -0.540356 0.648955
vn 0.377915 -0.3882 -0.840524
vn 0.377915 -0.3882 -0.840524
vn 0.377915 -0.3882 -0.840524
vn -0.86085 -0.359476 -0.360159
vn -0.86085 -0.359476 -0.360159
vn 0.535605 -0.540356 0.648955
vn -0.86085 -0.359476 -0.360159
vn -0.86085 -0.359476 -0.360159
vn -0.611611 0.503156 0.610546
vn -0.611611 0.503156 0.610546
vn -0.611611 0.503156 0.610546
vn -0.611611 0.503156 0.610546
vn -0.611611 0.503156 0.610546
vn -0.611611 0.503156 0.610546
vn -0.611611 0.503156 0.610546
vn -0.86085 -0.359476 -0.360159
vn -0.86085 -0.359476 -0.360159
vn -0.86085 -0.359476 -0.360159
vn -0.0714802 0.124712 -0.989615
vn -0.0714802 0.124712 -0.989615
vn -0.0714802 0.124712 -0.989615
vn -0.0714802 0.124712 -0.989615
vn -0.0826012 0.860007 -0.503552
vn -0.496092 0.829239 -0.2574
vn -0.496092 0.829239 -0.2574
vn -0.496092 0.829239 -0.2574
vn -0.496092 0.829239 -0.2574
vn -0.496092 0.829239 -0.2574
vn -0.496092 0.829239 -0.2574
vn -0.496092 0.829239 -0.2574
vn -0.496092 0.829239 -0.2574
vn -0.496092 0.829239 -0.2574
vn -0.496092 0.829239 -0.2574
vn -0.496092 0.829239 -0.2574
vn -0.496092 0.829239 -0.2574
vn -0.496092 0.829239 -0.2574
vn -0.496092 0.829239 -0.2574
vn -0.496092 0.829239 -0.2574
vn -0.611611 0.503156 0.610546
vn -0.611611 0.503156 0.610546
vn -0.611611 0.503156 0.610546
vn -0.611611 0.503156 0.610546
vn -0.611611 0.503156 0.610546
vn -0.611611 0.503156 0.610546
vn -0.611611 0.503156 0.610546
vn -0.611611 0.503156 0.610546
vn -0.611611 0.503156 0.610546
vn -0.611611 0.503156 0.610546
vn -0.611611 0.503156 0.610546
vn -0.86085 -0.359476 -0.360159
vn -0.86085 -0.359476 -0.360159
vn -0.86085 -0.359476 -0.360159
vn -0.611611 0.503156 0.610546
vn -0.611611 0.503156 0.610546
vn -0.611611 0.503156 0.610546
vn -0.496092 0.829239 -0.2574
vn -0.496092 0.829239 -0.2574
vn -0.496092 0.829239 -0.2574
vn -0.496092 0.829239 -0.2574
vn -0.496092 0.829239 -0.2574
vn -0.611611 0.503156 0.610546
vn -0.611611 0.503156 0.610546
vn 0.16232 0.906152 0.390564
vn -0.496092 0.829239 -0.2574
vn -0.86085 -0.359476 -0.360159
vn -0.86085 -0.359476 -0.360159
f 1/1/1 2/2/2 3/3/3 
f 4/4/4 5/5/5 6/6/6 
f 7/7/7 8/8/8 9/9/9 
f 10/10/10 11/11/11 12/12/12 
f 10/10/10 13/13/13 11/11/11 
f 14/14/14 13/13/13 10/10/10 
f 13/13/13 14/14/14 15/15/15 
f 16/16/16 17/17/17 18/18/18 
f 16/16/16 18/18/18 19/19/19 
f 8/8/8 16/16/16 19/19/19 
f 9/9/9 8/8/8 19/19/19 
f 19/19/19 20/20/20 9/9/9 
f 21/21/21 22/22/22 23/23/23 
f 21/21/21 24/24/24 22/22/22 
f 21/21/21 25/25/25 24/24/24 
f 26/26/26 25/25/25 21/21/21 
f 25/25/25 26/26/26 27/27/27 
f 28/28/28 29/29/29 30/30/30 
f 28/28/28 30/30/30 31/31/31 
f 9/9/9 31/31/31 30/30/30 
f 20/20/20 31/31/31 9/9/9 
f 32/32/32 9/9/9 30/30/30 
f 3/3/3 2/2/2 33/33/33 
f 3/3/3 33/33/33 34/34/34 
f 3/3/3 34/34/34 35/35/35 
f 36/36/36 37/37/37 38/38/38 
f 39/39/39 37/37/37 36/36/36 
f 40/40/40 37/37/37 39/39/39 
f 40/40/40 41/41/41 37/37/37 
f 41/41/41 40/40/40 42/42/42 
f 43/43/43 44/44/44 45/45/45 
f 45/45/45 46/46/46 43/43/43 
f 47/47/47 48/48/48 49/49/49 
f 47/47/47 50/50/50 48/48/48 
f 51/51/51 50/50/50 47/47/47 
f 52/52/52 53/53/53 54/54/54 
f 52/52/52 55/55/55 53/53/53 
f 56/56/56 55/55/55 52/52/52 
f 56/56/56 57/57/57 55/55/55 
f 35/35/35 57/57/57 56/56/56 
f 35/35/35 58/58/58 57/57/57 
f 35/35/35 59/59/59 58/58/58 
f 35/35/35 34/34/34 59/59/59 
f 60/60/60 61/61/61 30/30/30 
f 62/62/62 60/60/60 30/30/30 
f 30/30/30 63/63/63 62/62/62 
f 64/64/64 65/65/65 66/66/66 
f 65/65/65 64/64/64 67/67/67 
f 27/27/27 26/26/26 68/68/68 
f 69/69/69 68/68/68 26/26/26 
f 70/70/70 68/68/68 69/69/69 
f 71/71/71 65/65/65 72/72/72 
f 66/66/66 65/65/65 71/71/71 
f 57/57/57 58/58/58 73/73/73 
f 74/74/74 71/71/71 72/72/72 
f 74/74/74 75/75/75 71/71/71 
f 76/76/76 75/75/75 74/74/74 
f 76/76/76 77/77/77 75/75/75 
f 78/78/78 77/77/77 76/76/76 
f 77/77/77 78/78/78 79/79/79 
f 77/77/77 79/79/79 80/80/80 
f 77/77/77 80/80/80 81/81/81 
f 77/77/77 81/81/81 82/82/82 
f 54/54/54 53/53/53 83/83/83 
f 84/84/84 85/85/85 86/86/86 
f 87/87/87 85/85/85 84/84/84 
f 87/87/87 88/88/88 85/85/85 
f 89/89/89 88/88/88 87/87/87 
f 88/88/88 89/89/89 90/90/90 
f 91/91/91 92/92/92 93/93/93 
f 94/94/94 91/91/91 93/93/93 
f 95/95/95 85/85/85 88/88/88 
f 95/95/95 96/96/96 85/85/85 
f 97/97/97 96/96/96 95/95/95 
f 98/98/98 99/99/99 100/100/100 
f 101/101/101 99/99/99 98/98/98 
f 102/102/102 103/103/103 104/104/104 
f 105/105/105 106/106/106 107/107/107 
f 108/108/108 109/109/109 110/110/110 
f 111/111/111 112/112/112 113/113/113 
f 114/114/114 115/115/115 116/116/116 
f 117/117/117 115/115/115 114/114/114 
f 118/118/118 119/119/119 120/120/120 
f 86/86/86 121/121/121 122/122/122 
f 121/121/121 86/86/86 85/85/85 
f 123/123/123 116/116/116 115/115/115 
f 124/124/124 125/125/125 126/126/126 
f 127/127/127 48/48/48 128/128/128 
f 129/129/129 48/48/48 127/127/127 
f 49/49/49 48/48/48 129/129/129 
f 130/130/130 46/46/46 131/131/131 
f 43/43/43 46/46/46 130/130/130 
f 130/130/130 132/132/132 43/43/43 
f 133/133/133 120/120/120 134/134/134 
f 135/135/135 120/120/120 133/133/133 
f 130/130/130 131/131/131 136/136/136 
f 134/134/134 120/120/120 137/137/137 
f 138/138/138 132/132/132 139/139/139 
f 140/140/140 132/132/132 138/138/138 
f 140/140/140 43/43/43 132/132/132 
f 37/37/37 41/41/41 141/141/141 
f 142/142/142 143/143/143 144/144/144 
f 145/145/145 143/143/143 142/142/142 
f 143/143/143 145/145/145 146/146/146 
f 146/146/146 147/147/147 143/143/143 
f 147/147/147 146/146/146 148/148/148 
f 120/120/120 119/119/119 149/149/149 
f 137/137/137 120/120/120 149/149/149 
f 137/137/137 149/149/149 150/150/150 
f 151/151/151 152/152/152 139/139/139 
f 153/153/153 152/152/152 151/151/151 
f 146/146/146 154/154/154 155/155/155 
f 146/146/146 145/145/145 154/154/154 
f 152/152/152 138/138/138 139/139/139 
f 150/150/150 149/149/149 156/156/156 
f 157/157/157 143/143/143 147/147/147 
f 143/143/143 157/157/157 158/158/158 
f 159/159/159 160/160/160 161/161/161 
f 162/162/162 160/160/160 159/159/159 
f 163/163/163 160/160/160 162/162/162 
f 164/164/164 160/160/160 163/163/163 
f 160/160/160 164/164/164 165/165/165 
f 143/143/143 166/166/166 167/167/167 
f 143/143/143 167/167/167 144/144/144 
f 14/14/14 10/10/10 37/37/37 
f 37/37/37 10/10/10 38/38/38 
f 167/167/167 166/166/166 168/168/168 
f 169/169/169 14/14/14 170/170/170 
f 171/171/171 14/14/14 169/169/169 
f 15/15/15 14/14/14 171/171/171 
f 15/15/15 171/171/171 172/172/172 
f 17/17/17 173/173/173 18/18/18 
f 21/21/21 174/174/174 175/175/175 
f 21/21/21 23/23/23 174/174/174 
f 176/176/176 177/177/177 21/21/21 
f 178/178/178 177/177/177 176/176/176 
f 179/179/179 178/178/178 176/176/176 
f 177/177/177 180/180/180 21/21/21 
f 180/180/180 181/181/181 21/21/21 
f 182/182/182 21/21/21 181/181/181 
f 183/183/183 21/21/21 182/182/182 
f 184/184/184 21/21/21 183/183/183 
f 185/185/185 21/21/21 184/184/184 
f 186/186/186 21/21/21 185/185/185 
f 187/187/187 21/21/21 186/186/186 
f 188/188/188 21/21/21 187/187/187 
f 26/26/26 21/21/21 188/188/188 
f 189/189/189 190/190/190 191/191/191 
f 189/189/189 192/192/192 190/190/190 
f 193/193/193 192/192/192 189/189/189 
f 194/194/194 192/192/192 193/193/193 
f 195/195/195 192/192/192 194/194/194 
f 196/196/196 192/192/192 195/195/195 
f 196/196/196 161/161/161 192/192/192 
f 197/197/197 161/161/161 196/196/196 
f 198/198/198 161/161/161 197/197/197 
f 199/199/199 161/161/161 198/198/198 
f 159/159/159 161/161/161 199/199/199 
f 200/200/200 158/158/158 201/201/201 
f 202/202/202 200/200/200 201/201/201 
f 202/202/202 201/201/201 92/92/92 
f 203/203/203 190/190/190 90/90/90 
f 204/204/204 190/190/190 203/203/203 
f 205/205/205 190/190/190 204/204/204 
f 191/191/191 190/190/190 205/205/205 
f 206/206/206 207/207/207 69/69/69 
f 208/208/208 207/207/207 206/206/206 
f 208/208/208 209/209/209 207/207/207 
f 208/208/208 210/210/210 209/209/209 
f 203/203/203 90/90/90 211/211/211 
f 211/211/211 90/90/90 212/212/212 
f 79/79/79 78/78/78 213/213/213 
f 90/90/90 89/89/89 212/212/212 
f 207/207/207 214/214/214 69/69/69 
f 214/214/214 70/70/70 69/69/69 
f 92/92/92 201/201/201 215/215/215 
f 92/92/92 215/215/215 93/93/93 
f 158/158/158 157/157/157 201/201/201 
f 216/216/216 94/94/94 93/93/93 
f 61/61/61 32/32/32 30/30/30 
