v 1.10766 -2.12401 0.0462929
v 1.14147 -2.01323 -0.0300142
v 1.11634 -2.02963 0.0590918
v 1.14147 -2.01323 -0.0300142
v 1.10766 -2.12401 0.0462929
v 1.14475 -2.01779 -0.0656274
v 1.08879 -2.10004 -0.0308225
v 1.14147 -2.01323 -0.0300142
v 1.14475 -2.01779 -0.0656274
v 1.09402 -2.08667 -0.0137554
v 1.11634 -2.02963 0.0590915
v 1.10766 -2.12401 0.046293
v 1.11634 -2.02963 0.0590919
v 1.09402 -2.08667 -0.0137553
v 1.10579 -2.13504 0.0415178
v 1.10579 -2.13504 0.0415177
v 1.09396 -2.20469 0.0113746
v 1.09396 -2.20469 0.0113745
v 1.07004 -2.16922 -0.168157
v 1.14475 -2.01779 -0.0656273
v 1.07957 -2.21504 -0.0412488
v 1.06548 -2.17847 -0.174415
v 1.07747 -2.21655 -0.0489318
v 1.0299 -2.25059 -0.223245
v 1.03028 -2.25051 -0.221519
v 1.02988 -2.2508 -0.222971
v 1.0299 -2.25059 -0.223245
v 1.02988 -2.2508 -0.222971
v 1.02981 -2.25073 -0.223238
v 1.02985 -2.25063 -0.223118
v 1.0299 -2.25059 -0.223245
v 1.02981 -2.25073 -0.223238
v 1.06548 -2.17847 -0.174415
v 1.04836 -2.20332 -0.162708
v 1.055 -2.18636 -0.141053
v 1.07004 -2.16922 -0.168157
v 1.05748 -2.18003 -0.132969
v 1.05831 -2.17791 -0.130251
v 1.08705 -2.10446 -0.0364698
v 1.08879 -2.10004 -0.0308224
v 1.08705 -2.10446 -0.0364697
v 1.09396 -2.20469 0.0113748
v 1.07957 -2.21504 -0.0412487
v 1.07747 -2.21655 -0.0489317
v 1.05831 -2.17791 -0.130251
v 1.05748 -2.18003 -0.132969
v 1.055 -2.18636 -0.141052
v 1.04836 -2.20332 -0.162708
v 1.03028 -2.25051 -0.221519
v 1.02985 -2.25063 -0.223118
v 1.02988 -2.2508 -0.222971
v 1.02981 -2.25073 -0.223238
vt 0.775612 0.439301
vt 0.78591 0.449874
vt 0.775589 0.448278
vt 0.78591 0.449874
vt 0.775612 0.439301
vt 0.789311 0.449264
vt -0.321126 1.22807
vt -0.320309 1.12652
vt -0.356296 1.12871
vt -0.303879 1.21393
vt -0.230268 1.15359
vt -2.06316 0.325839
vt -1.96864 0.340421
vt -2.02577 0.264293
vt -2.07421 0.320745
vt 0.775808 0.438192
vt 0.777043 0.431192
vt 0.777043 0.431192
vt 0.794315 0.427529
vt 0.789311 0.449264
vt 0.781518 0.427744
vt 0.79462 0.426203
vt 0.782171 0.427241
vt 0.797003 0.415852
vt 0.796849 0.415935
vt 0.796973 0.41584
vt 0.797003 0.415852
vt 0.796973 0.41584
vt 0.796997 0.415835
vt -0.51544 1.38735
vt -0.515567 1.38729
vt -0.51556 1.38745
vt -0.466225 1.30718
vt -0.454395 1.33731
vt -0.432512 1.31938
vt -0.459902 1.29692
vt -0.424343 1.31268
vt -0.421598 1.31043
vt -0.326832 1.23275
vt -2.03916 0.246457
vt -2.04359 0.240556
vt -2.14396 0.288585
vt -2.15433 0.234033
vt -2.15584 0.226069
vt -2.11714 0.142551
vt -2.11927 0.139711
vt -2.12561 0.131263
vt -2.14259 0.108632
vt -2.18985 0.0471563
vt -2.18997 0.0455008
vt -2.19014 0.0456507
vt -2.19007 0.0453759
vn 0.960759 -0.122836 0.248702
vn 0.960691 -0.123201 0.248785
vn 0.960712 -0.123088 0.24876
vn 0.969516 -0.215335 0.116922
vn 0.969516 -0.215335 0.116922
vn 0.969516 -0.215335 0.116922
vn -0.84541 0.51441 -0.143748
vn -0.84541 0.51441 -0.143748
vn -0.84541 0.51441 -0.143748
vn -0.84541 0.51441 -0.143748
vn -0.84541 0.51441 -0.143748
vn -0.965837 0.0544493 0.253366
vn -0.965837 0.0544493 0.253366
vn -0.965837 0.0544493 0.253366
vn -0.965837 0.0544493 0.253366
vn 0.969516 -0.215335 0.116922
vn 0.969516 -0.215335 0.116922
vn 0.92535 -0.329065 -0.188263
vn 0.92535 -0.329065 -0.188263
vn 0.92535 -0.329065 -0.188263
vn 0.92535 -0.329065 -0.188263
vn 0.92535 -0.329065 -0.188263
vn 0.92535 -0.329065 -0.188263
vn 0.92535 -0.329065 -0.188263
vn 0.92535 -0.329065 -0.188263
vn 0.92535 -0.329065 -0.188263
vn 0.795517 -0.507361 -0.331267
vn 0.795517 -0.507361 -0.331267
vn 0.795517 -0.507361 -0.331267
vn -0.84541 0.51441 -0.143748
vn -0.84541 0.51441 -0.143748
vn -0.84541 0.51441 -0.143748
vn -0.84541 0.51441 -0.143748
vn -0.84541 0.51441 -0.143748
vn -0.84541 0.51441 -0.143748
vn -0.84541 0.51441 -0.143748
vn -0.84541 0.51441 -0.143748
vn -0.84541 0.51441 -0.143748
vn -0.84541 0.51441 -0.143748
vn -0.965837 0.0544493 0.253366
vn -0.965837 0.0544493 0.253366
vn -0.965837 0.0544493 0.253366
vn -0.965837 0.0544493 0.253366
vn -0.965837 0.0544493 0.253366
vn -0.965837 0.0544493 0.253366
vn -0.965837 0.0544493 0.253366
vn -0.965837 0.0544493 0.253366
vn -0.965837 0.0544493 0.253366
vn -0.965837 0.0544493 0.253366
vn -0.965837 0.0544493 0.253366
vn -0.965837 0.0544493 0.253366
vn -0.965837 0.0544493 0.253366
f 1/1/1 2/2/2 3/3/3 
f 4/4/4 5/5/5 6/6/6 
f 7/7/7 8/8/8 9/9/9 
f 10/10/10 8/8/8 7/7/7 
f 8/8/8 10/10/10 11/11/11 
f 12/12/12 13/13/13 14/14/14 
f 12/12/12 14/14/14 15/15/15 
f 6/6/6 5/5/5 16/16/16 
f 6/6/6 16/16/16 17/17/17 
f 18/18/18 19/19/19 20/20/20 
f 21/21/21 19/19/19 18/18/18 
f 21/21/21 22/22/22 19/19/19 
f 23/23/23 22/22/22 21/21/21 
f 23/23/23 24/24/24 22/22/22 
f 25/25/25 24/24/24 23/23/23 
f 26/26/26 24/24/24 25/25/25 
f 27/27/27 28/28/28 29/29/29 
f 30/30/30 31/31/31 32/32/32 
f 30/30/30 33/33/33 31/31/31 
f 34/34/34 33/33/33 30/30/30 
f 33/33/33 34/34/34 35/35/35 
f 35/35/35 36/36/36 33/33/33 
f 37/37/37 36/36/36 35/35/35 
f 36/36/36 37/37/37 38/38/38 
f 38/38/38 9/9/9 36/36/36 
f 39/39/39 9/9/9 38/38/38 
f 7/7/7 9/9/9 39/39/39 
f 15/15/15 40/40/40 41/41/41 
f 15/15/15 14/14/14 40/40/40 
f 15/15/15 41/41/41 42/42/42 
f 42/42/42 41/41/41 43/43/43 
f 41/41/41 44/44/44 43/43/43 
f 41/41/41 45/45/45 44/44/44 
f 44/44/44 45/45/45 46/46/46 
f 44/44/44 46/46/46 47/47/47 
f 44/44/44 47/47/47 48/48/48 
f 44/44/44 48/48/48 49/49/49 
f 48/48/48 50/50/50 49/49/49 
f 51/51/51 49/49/49 50/50/50 
f 51/51/51 50/50/50 52/52/52 
