v -0.809649 2.32303 -0.0678399
v -0.705 2.4417 -0.1495
v -0.750126 2.34808 -0.15163
v -0.705 2.4417 -0.1495
v -0.809649 2.32303 -0.0678399
v -0.894772 2.28439 0.100555
v -0.894772 2.28439 0.100555
v -0.628806 2.53156 -0.0686281
v -0.705 2.4417 -0.1495
v -0.622751 2.53885 -0.0611505
v -0.896002 2.28874 0.138604
v -0.622751 2.53885 -0.0611505
v -0.896002 2.28874 0.138604
v -0.563548 2.55348 -0.00883225
v -0.622751 2.53885 -0.0611505
v -0.563548 2.55348 -0.00883233
v -0.628806 2.53156 -0.0686282
v -0.630879 2.29225 -0.158027
v -0.694243 2.45271 -0.149441
v -0.694243 2.45271 -0.149441
v -0.699705 2.43776 -0.159257
v -0.705 2.4417 -0.1495
v -0.694243 2.45271 -0.149441
v -0.701721 2.43224 -0.162881
v -0.701721 2.43224 -0.162881
v -0.719515 2.38527 -0.172089
v -0.707573 2.40116 -0.178919
v -0.707573 2.40116 -0.178919
v -0.701721 2.43224 -0.162881
v -0.706721 2.39968 -0.178786
v -0.719514 2.38527 -0.172089
v -0.707573 2.40116 -0.178919
v -0.706721 2.39968 -0.178786
v -0.707781 2.33421 -0.162968
v -0.723445 2.38004 -0.169841
v -0.723445 2.38004 -0.169841
v -0.746368 2.34953 -0.156729
v -0.746368 2.34953 -0.15673
v -0.770614 2.16025 0.150174
v -0.750126 2.34808 -0.15163
v -0.733072 2.34425 -0.158879
v -0.663461 2.09027 0.174603
v -0.703754 2.09512 0.198119
v -0.770614 2.16025 0.150174
v -0.703754 2.09512 0.198119
v -0.713757 2.10736 0.221818
v -0.716762 2.11104 0.22894
v -0.744655 2.14517 0.295029
v -0.832558 2.2206 0.105756
v -0.760108 2.16409 0.331643
v -0.860262 2.24759 0.08589
v -0.764492 2.16945 0.342031
v -0.827435 2.2364 0.366555
v -0.790768 2.20161 0.40429
v -0.798256 2.21077 0.422031
v -0.764844 2.23856 0.454001
v -0.827435 2.2364 0.366555
v -0.798256 2.21077 0.422031
v -0.827435 2.2364 0.366555
v -0.764844 2.23856 0.454001
v -0.894772 2.28439 0.100555
v -0.896002 2.28874 0.138604
v -0.888287 2.27489 0.0657939
v -0.860262 2.24759 0.08589
v -0.888286 2.27489 0.0657939
v -0.809649 2.32303 -0.0678399
v -0.832558 2.2206 0.105756
v -0.888287 2.27489 0.0657939
v -0.764283 2.23882 0.454204
v -0.763258 2.2393 0.454574
v -0.763258 2.2393 0.454574
v -0.439514 2.54654 0.118352
v -0.563548 2.55348 -0.00883226
v -0.762795 2.23946 0.454659
v -0.439514 2.54654 0.118352
v -0.762795 2.23946 0.454659
v -0.506399 2.38892 0.296145
v -0.439514 2.54654 0.118352
v -0.506399 2.38892 0.296145
v -0.445683 2.18993 -0.0486605
v -0.432387 2.55984 0.0975305
v -0.432387 2.55984 0.0975303
v -0.445684 2.18993 -0.0486605
v -0.432387 2.55984 0.0975304
v -0.447448 2.14084 -0.0680607
v -0.447448 2.14084 -0.0680607
v -0.57497 2.07963 0.122957
v -0.630879 2.29225 -0.158027
v -0.552256 2.0769 0.109701
v -0.471103 2.1046 0.0052778
v -0.481654 2.08844 0.0379893
v -0.520141 2.07304 0.0909579
v -0.526774 2.10342 0.142699
v -0.552256 2.0769 0.109701
v -0.520141 2.07304 0.0909579
v -0.57497 2.07963 0.122957
v -0.528104 2.10951 0.15308
v -0.647033 2.0883 0.165015
v -0.529634 2.11652 0.165011
v -0.659736 2.08983 0.172429
v -0.529762 2.11711 0.166009
v -0.716762 2.11104 0.22894
v -0.66262 2.09017 0.174112
v -0.66262 2.09017 0.174112
v -0.727259 2.34194 -0.159819
v -0.659736 2.08983 0.172429
v -0.663461 2.09027 0.174603
v -0.713757 2.10736 0.221818
v -0.703754 2.09512 0.198119
v -0.733072 2.34425 -0.158879
v -0.727259 2.34194 -0.159819
v -0.746368 2.34953 -0.156729
v -0.707781 2.33421 -0.162968
v -0.647033 2.0883 0.165015
v -0.657521 2.31424 -0.171095
v -0.657521 2.31424 -0.171095
v -0.657521 2.31424 -0.171094
v -0.699705 2.43776 -0.159257
v -0.530461 2.12031 0.171464
v -0.556675 2.24037 0.375947
v -0.744655 2.14517 0.295029
v -0.557159 2.24259 0.379722
v -0.760108 2.16409 0.331643
v -0.55739 2.24365 0.381525
v -0.764492 2.16945 0.342031
v -0.557452 2.24393 0.382005
v -0.760575 2.23981 0.454367
v -0.558108 2.24693 0.387126
v -0.558109 2.24693 0.387126
v -0.532015 2.32855 0.364236
v -0.760575 2.23981 0.454368
v -0.545521 2.26038 0.380653
v -0.54552 2.26038 0.380653
v -0.471103 2.1046 0.00527786
v -0.532014 2.32855 0.364236
v -0.524191 2.20296 0.266216
v -0.490853 2.11321 0.0873474
v -0.481654 2.08844 0.0379888
v -0.490853 2.11321 0.0873474
v -0.520141 2.07304 0.090958
v -0.481654 2.08844 0.0379888
v -0.526774 2.10342 0.142699
v -0.528104 2.10951 0.15308
v -0.529634 2.11652 0.165011
v -0.529762 2.11711 0.166009
v -0.530461 2.12031 0.171464
v -0.524191 2.20296 0.266217
v -0.556675 2.24037 0.375947
v -0.545521 2.26038 0.380653
v -0.557159 2.24259 0.379722
v -0.55739 2.24365 0.381525
v -0.557452 2.24393 0.382005
v -0.558109 2.24693 0.387126
v -0.447448 2.14084 -0.0680606
v -0.762016 2.23958 0.454557
v -0.532015 2.32855 0.364236
v -0.762795 2.23946 0.454659
v -0.763258 2.2393 0.454574
v -0.762016 2.23958 0.454556
v -0.764283 2.23882 0.454204
v -0.760575 2.23981 0.454368
v -0.790768 2.20161 0.40429
v -0.764844 2.23856 0.454001
v -0.798256 2.21077 0.422031
vt 0.295971 0.580737
vt 0.2883 0.5948
vt 0.285648 0.584866
vt 0.2883 0.5948
vt 0.295971 0.580737
vt 0.313043 0.570732
vt 0.313043 0.570732
vt 0.297452 0.60666
vt 0.2883 0.5948
vt 0.29829 0.607615
vt 0.317039 0.571017
vt 0.29829 0.607615
vt 0.317039 0.571017
vt 0.304265 0.612324
vt 2.53377 0.525914
vt 2.54899 0.447019
vt 2.52618 0.535305
vt 2.27719 0.592483
vt 2.44415 0.636792
vt 0.288396 0.596337
vt 0.286948 0.594889
vt 0.2883 0.5948
vt 0.288396 0.596337
vt 0.286413 0.594355
vt 0.286413 0.594355
vt 0.284082 0.589716
vt 0.283648 0.591707
vt 2.39051 0.665554
vt 2.42284 0.651003
vt 2.38897 0.664804
vt 2.40194 0.654354
vt 2.41824 0.641092
vt 2.41672 0.640299
vt 2.34954 0.64525
vt 2.39657 0.658719
vt 0.284225 0.58906
vt 0.285058 0.585238
vt 1.4164 -1.42047
vt 1.44271 -1.06003
vt 1.42048 -1.41541
vt 1.40197 -1.41937
vt 1.32645 -1.0012
vt 1.37017 -0.984207
vt 0.203297 -2.08774
vt 0.251318 -1.99443
vt 0.275055 -2.01018
vt 0.282188 -2.01492
vt 0.348381 -2.05884
vt 0.158808 -2.17418
vt 0.385053 -2.08318
vt 0.138911 -2.21284
vt 0.395457 -2.09008
vt 0.42002 -2.18197
vt 0.457815 -2.13146
vt 0.475584 -2.14325
vt 0.351223 0.574729
vt 0.341531 0.570833
vt 0.348291 0.570818
vt 0.341531 0.570833
vt 0.351223 0.574729
vt 0.1536 -2.26329
vt 0.191709 -2.26726
vt 0.118783 -2.25195
vt 1.53997 -1.1617
vt 1.57037 -1.19348
vt 1.48505 -1.33162
vt 1.50991 -1.13028
vt 0.309412 0.571186
vt 0.351249 0.574783
vt 0.351296 0.574883
vt 0.351296 0.574883
vt 0.314744 0.620681
vt 0.304265 0.612324
vt 0.351298 0.574928
vt 0.314744 0.620681
vt 0.351298 0.574928
vt 0.336411 0.60771
vt 2.47239 -0.223278
vt 2.31339 -0.412085
vt 2.11266 -0.0629681
vt 2.4858 -0.201341
vt 2.5556 0.278161
vt 2.17073 0.379424
vt 0.312656 0.622171
vt 2.11966 0.392862
vt 1.09209 -1.23181
vt 1.23044 -1.03854
vt 1.2911 -1.39011
vt 1.2058 -1.04812
vt 1.11775 -1.15062
vt 1.1292 -1.1144
vt 1.17096 -1.06167
vt 0.172613 1.22714
vt 0.198623 1.18513
vt 0.165843 1.16715
vt 0.221807 1.19784
vt 0.173972 1.23917
vt 0.295362 1.23817
vt 0.175533 1.25301
vt 0.308327 1.24528
vt 0.175663 1.25416
vt 0.366534 1.30451
vt 0.311272 1.2469
vt 1.32554 -1.00156
vt 1.39567 -1.41888
vt 1.32241 -1.00278
vt 0.312129 1.24737
vt 0.363466 1.29652
vt 0.353257 1.26992
vt 2.35985 0.670764
vt 2.35748 0.664899
vt 2.36527 0.684178
vt 1.37453 -1.41727
vt 1.30863 -1.00814
vt 1.32001 -1.4131
vt 2.30007 0.621477
vt 2.32905 0.594545
vt 2.42859 0.647171
vt 0.176377 1.26049
vt 0.203134 1.49755
vt 0.395004 1.37867
vt 0.203628 1.50193
vt 0.410777 1.41976
vt 0.203864 1.50402
vt 0.415252 1.43142
vt 0.203927 1.50457
vt 0.411254 1.56397
vt 0.204597 1.51051
vt 0.353752 0.596876
vt 0.344709 0.602742
vt 0.35131 0.575177
vt 0.352396 0.59872
vt 2.18373 -0.503638
vt 2.02659 -0.121515
vt 2.2525 -0.484393
vt 2.12581 -0.38748
vt 2.03527 -0.20592
vt 2.01029 -0.155818
vt 0.718612 1.46968
vt 0.722551 1.42
vt 0.664753 1.4544
vt 0.779009 1.44136
vt 0.790337 1.44565
vt 0.803356 1.45058
vt 0.804444 1.45099
vt 0.810396 1.45324
vt 0.913788 1.52507
vt 1.03352 1.53768
vt 1.03866 1.5605
vt 1.03764 1.53924
vt 1.03961 1.53999
vt 1.04013 1.54019
vt 1.04572 1.5423
vt 2.06315 -0.0446055
vt 0.351302 0.575015
vt 0.344709 0.602742
vt 0.41352 1.56403
vt 0.413992 1.56387
vt 0.412725 1.56401
vt 0.415038 1.56331
vt 0.35131 0.575177
vt 0.442072 1.50129
vt 0.415611 1.563
vt 0.449714 1.52119
vn -0.7966 0.39439 -0.458132
vn -0.795485 0.393906 -0.46048
vn -0.795485 0.393906 -0.46048
vn -0.807993 0.512393 -0.290863
vn -0.807993 0.512393 -0.290863
vn -0.807993 0.512393 -0.290863
vn -0.711341 0.695344 -0.102421
vn -0.711341 0.695344 -0.102421
vn -0.711341 0.695344 -0.102421
vn -0.711341 0.695344 -0.102421
vn -0.711341 0.695344 -0.102421
vn -0.492682 0.804055 0.332807
vn -0.492682 0.804055 0.332807
vn -0.492682 0.804055 0.332807
vn 0.597253 0.276132 -0.75302
vn 0.597253 0.276132 -0.75302
vn 0.597253 0.276132 -0.75302
vn 0.597253 0.276132 -0.75302
vn 0.597253 0.276132 -0.75302
vn -0.711341 0.695344 -0.102421
vn -0.592767 0.581949 -0.556744
vn -0.592767 0.581949 -0.556744
vn -0.592767 0.581949 -0.556744
vn -0.592767 0.581949 -0.556744
vn -0.795144 0.393758 -0.461195
vn -0.794933 0.393666 -0.461637
vn -0.794746 0.393585 -0.462028
vn 0.597253 0.276132 -0.75302
vn 0.597253 0.276132 -0.75302
vn 0.597253 0.276132 -0.75302
vn -0.241702 -0.224172 -0.944101
vn -0.241702 -0.224172 -0.944101
vn -0.241702 -0.224172 -0.944101
vn -0.241702 -0.224172 -0.944101
vn -0.241702 -0.224172 -0.944101
vn -0.794994 0.393693 -0.461509
vn -0.795352 0.393849 -0.460759
vn -0.387879 -0.770501 -0.505844
vn -0.387879 -0.770501 -0.505844
vn -0.387879 -0.770501 -0.505844
vn -0.387879 -0.770501 -0.505844
vn -0.387879 -0.770501 -0.505844
vn -0.387879 -0.770501 -0.505844
vn -0.71708 -0.694722 0.0561878
vn -0.71708 -0.694722 0.0561878
vn -0.71708 -0.694722 0.0561878
vn -0.71708 -0.694722 0.0561878
vn -0.71708 -0.694722 0.0561878
vn -0.71708 -0.694722 0.0561878
vn -0.71708 -0.694722 0.0561878
vn -0.71708 -0.694722 0.0561878
vn -0.71708 -0.694722 0.0561878
vn -0.71708 -0.694722 0.0561878
vn -0.71708 -0.694722 0.0561878
vn -0.71708 -0.694722 0.0561878
vn -0.778339 0.303499 0.549615
vn -0.778339 0.303499 0.549615
vn -0.778339 0.303499 0.549615
vn -0.492682 0.804055 0.332807
vn -0.492682 0.804055 0.332807
vn -0.71708 -0.694722 0.0561878
vn -0.71708 -0.694722 0.0561878
vn -0.71708 -0.694722 0.0561878
vn -0.387879 -0.770501 -0.505844
vn -0.387879 -0.770501 -0.505844
vn -0.387879 -0.770501 -0.505844
vn -0.387879 -0.770501 -0.505844
vn -0.807993 0.512393 -0.290863
vn -0.492682 0.804055 0.332807
vn -0.492682 0.804055 0.332807
vn -0.370281 0.835178 0.406657
vn -0.370281 0.835178 0.406657
vn -0.370281 0.835178 0.406657
vn -0.370281 0.835178 0.406657
vn -0.0342147 0.754193 0.655761
vn -0.0342147 0.754193 0.655761
vn -0.0342147 0.754193 0.655761
vn 0.960602 -0.131333 0.244941
vn 0.960602 -0.131333 0.244941
vn 0.960602 -0.131333 0.244941
vn 0.960602 -0.131333 0.244941
vn 0.597253 0.276132 -0.75302
vn 0.597253 0.276132 -0.75302
vn -0.370281 0.835178 0.406657
vn 0.597253 0.276132 -0.75302
vn -0.387879 -0.770501 -0.505844
vn -0.387879 -0.770501 -0.505844
vn -0.387879 -0.770501 -0.505844
vn -0.387879 -0.770501 -0.505844
vn -0.387879 -0.770501 -0.505844
vn -0.387879 -0.770501 -0.505844
vn -0.387879 -0.770501 -0.505844
vn 0.20036 -0.833426 0.515031
vn 0.20036 -0.833426 0.515031
vn 0.20036 -0.833426 0.515031
vn 0.20036 -0.833426 0.515031
vn 0.20036 -0.833426 0.515031
vn 0.20036 -0.833426 0.515031
vn 0.20036 -0.833426 0.515031
vn 0.20036 -0.833426 0.515031
vn 0.20036 -0.833426 0.515031
vn 0.20036 -0.833426 0.515031
vn 0.20036 -0.833426 0.515031
vn -0.387879 -0.770501 -0.505844
vn -0.387879 -0.770501 -0.505844
vn -0.387879 -0.770501 -0.505844
vn 0.20036 -0.833426 0.515031
vn 0.20036 -0.833426 0.515031
vn 0.20036 -0.833426 0.515031
vn -0.241702 -0.224172 -0.944101
vn -0.241702 -0.224172 -0.944101
vn -0.241702 -0.224172 -0.944101
vn -0.387879 -0.770501 -0.505844
vn -0.387879 -0.770501 -0.505844
vn -0.387879 -0.770501 -0.505844
vn 0.597253 0.276132 -0.75302
vn -0.241702 -0.224172 -0.944101
vn 0.597253 0.276132 -0.75302
vn 0.20036 -0.833426 0.515031
vn 0.20036 -0.833426 0.515031
vn 0.20036 -0.833426 0.515031
vn 0.20036 -0.833426 0.515031
vn 0.20036 -0.833426 0.515031
vn 0.20036 -0.833426 0.515031
vn 0.20036 -0.833426 0.515031
vn 0.20036 -0.833426 0.515031
vn 0.20036 -0.833426 0.515031
vn 0.20036 -0.833426 0.515031
vn 0.30561 0.165281 0.937702
vn 0.30561 0.165281 0.937702
vn 0.30561 0.165281 0.937702
vn 0.30561 0.165281 0.937702
vn 0.960602 -0.131333 0.244941
vn 0.960602 -0.131333 0.244941
vn 0.960602 -0.131333 0.244941
vn 0.960602 -0.131333 0.244941
vn 0.960602 -0.131333 0.244941
vn 0.960602 -0.131333 0.244941
vn 0.757263 -0.516171 0.400149
vn 0.757263 -0.516171 0.400149
vn 0.757263 -0.516171 0.400149
vn 0.757263 -0.516171 0.400149
vn 0.757263 -0.516171 0.400149
vn 0.757263 -0.516171 0.400149
vn 0.757263 -0.516171 0.400149
vn 0.757263 -0.516171 0.400149
vn 0.757263 -0.516171 0.400149
vn 0.757263 -0.516171 0.400149
vn 0.757263 -0.516171 0.400149
vn 0.757263 -0.516171 0.400149
vn 0.757263 -0.516171 0.400149
vn 0.757263 -0.516171 0.400149
vn 0.757263 -0.516171 0.400149
vn 0.960602 -0.131333 0.244941
vn -0.0342147 0.754193 0.655761
vn -0.0342147 0.754193 0.655761
vn 0.20036 -0.833426 0.515031
vn 0.20036 -0.833426 0.515031
vn 0.20036 -0.833426 0.515031
vn 0.20036 -0.833426 0.515031
vn -0.0342147 0.754193 0.655761
vn 0.20036 -0.833426 0.515031
vn 0.20036 -0.833426 0.515031
vn 0.20036 -0.833426 0.515031
f 1/1/1 2/2/2 3/3/3 
f 4/4/4 5/5/5 6/6/6 
f 7/7/7 8/8/8 9/9/9 
f 7/7/7 10/10/10 8/8/8 
f 11/11/11 10/10/10 7/7/7 
f 12/12/12 13/13/13 14/14/14 
f 15/15/15 16/16/16 17/17/17 
f 17/17/17 16/16/16 18/18/18 
f 19/19/19 17/17/17 18/18/18 
f 9/9/9 8/8/8 20/20/20 
f 21/21/21 22/22/22 23/23/23 
f 24/24/24 22/22/22 21/21/21 
f 25/25/25 26/26/26 2/2/2 
f 25/25/25 27/27/27 26/26/26 
f 28/28/28 29/29/29 30/30/30 
f 31/31/31 32/32/32 33/33/33 
f 31/31/31 33/33/33 34/34/34 
f 35/35/35 31/31/31 34/34/34 
f 2/2/2 26/26/26 36/36/36 
f 36/36/36 3/3/3 2/2/2 
f 37/37/37 3/3/3 36/36/36 
f 38/38/38 39/39/39 40/40/40 
f 41/41/41 39/39/39 38/38/38 
f 42/42/42 39/39/39 41/41/41 
f 43/43/43 39/39/39 42/42/42 
f 44/44/44 45/45/45 46/46/46 
f 44/44/44 46/46/46 47/47/47 
f 44/44/44 47/47/47 48/48/48 
f 48/48/48 49/49/49 44/44/44 
f 50/50/50 49/49/49 48/48/48 
f 50/50/50 51/51/51 49/49/49 
f 52/52/52 51/51/51 50/50/50 
f 52/52/52 53/53/53 51/51/51 
f 54/54/54 53/53/53 52/52/52 
f 55/55/55 53/53/53 54/54/54 
f 56/56/56 57/57/57 58/58/58 
f 59/59/59 60/60/60 13/13/13 
f 61/61/61 53/53/53 62/62/62 
f 63/63/63 53/53/53 61/61/61 
f 51/51/51 53/53/53 63/63/63 
f 64/64/64 65/65/65 66/66/66 
f 67/67/67 64/64/64 66/66/66 
f 39/39/39 67/67/67 66/66/66 
f 39/39/39 66/66/66 40/40/40 
f 6/6/6 5/5/5 68/68/68 
f 13/13/13 60/60/60 69/69/69 
f 69/69/69 14/14/14 13/13/13 
f 70/70/70 14/14/14 69/69/69 
f 71/71/71 72/72/72 73/73/73 
f 74/74/74 72/72/72 71/71/71 
f 75/75/75 76/76/76 77/77/77 
f 78/78/78 79/79/79 80/80/80 
f 80/80/80 81/81/81 78/78/78 
f 16/16/16 82/82/82 83/83/83 
f 73/73/73 72/72/72 84/84/84 
f 83/83/83 18/18/18 16/16/16 
f 85/85/85 18/18/18 83/83/83 
f 86/86/86 87/87/87 88/88/88 
f 86/86/86 89/89/89 87/87/87 
f 90/90/90 89/89/89 86/86/86 
f 91/91/91 89/89/89 90/90/90 
f 92/92/92 89/89/89 91/91/91 
f 93/93/93 94/94/94 95/95/95 
f 93/93/93 96/96/96 94/94/94 
f 97/97/97 96/96/96 93/93/93 
f 97/97/97 98/98/98 96/96/96 
f 99/99/99 98/98/98 97/97/97 
f 99/99/99 100/100/100 98/98/98 
f 101/101/101 100/100/100 99/99/99 
f 100/100/100 101/101/101 102/102/102 
f 100/100/100 102/102/102 103/103/103 
f 104/104/104 105/105/105 106/106/106 
f 104/104/104 41/41/41 105/105/105 
f 42/42/42 41/41/41 104/104/104 
f 103/103/103 102/102/102 107/107/107 
f 108/108/108 107/107/107 102/102/102 
f 108/108/108 109/109/109 107/107/107 
f 110/110/110 35/35/35 111/111/111 
f 112/112/112 35/35/35 110/110/110 
f 111/111/111 35/35/35 34/34/34 
f 106/106/106 105/105/105 113/113/113 
f 106/106/106 113/113/113 114/114/114 
f 114/114/114 113/113/113 88/88/88 
f 88/88/88 87/87/87 114/114/114 
f 88/88/88 113/113/113 115/115/115 
f 116/116/116 29/29/29 18/18/18 
f 30/30/30 29/29/29 116/116/116 
f 34/34/34 33/33/33 117/117/117 
f 29/29/29 118/118/118 18/18/18 
f 118/118/118 19/19/19 18/18/18 
f 102/102/102 101/101/101 119/119/119 
f 102/102/102 119/119/119 120/120/120 
f 120/120/120 121/121/121 102/102/102 
f 122/122/122 121/121/121 120/120/120 
f 122/122/122 123/123/123 121/121/121 
f 124/124/124 123/123/123 122/122/122 
f 124/124/124 125/125/125 123/123/123 
f 126/126/126 125/125/125 124/124/124 
f 126/126/126 127/127/127 125/125/125 
f 128/128/128 127/127/127 126/126/126 
f 129/129/129 130/130/130 131/131/131 
f 132/132/132 130/130/130 129/129/129 
f 133/133/133 134/134/134 135/135/135 
f 136/136/136 134/134/134 133/133/133 
f 137/137/137 134/134/134 136/136/136 
f 134/134/134 137/137/137 138/138/138 
f 139/139/139 140/140/140 141/141/141 
f 139/139/139 142/142/142 140/140/140 
f 139/139/139 143/143/143 142/142/142 
f 139/139/139 144/144/144 143/143/143 
f 139/139/139 145/145/145 144/144/144 
f 139/139/139 146/146/146 145/145/145 
f 147/147/147 146/146/146 139/139/139 
f 148/148/148 146/146/146 147/147/147 
f 147/147/147 149/149/149 148/148/148 
f 148/148/148 149/149/149 150/150/150 
f 149/149/149 151/151/151 150/150/150 
f 149/149/149 152/152/152 151/151/151 
f 149/149/149 153/153/153 152/152/152 
f 134/134/134 79/79/79 135/135/135 
f 80/80/80 79/79/79 134/134/134 
f 154/154/154 80/80/80 134/134/134 
f 77/77/77 155/155/155 156/156/156 
f 77/77/77 76/76/76 155/155/155 
f 157/157/157 158/158/158 159/159/159 
f 158/158/158 160/160/160 159/159/159 
f 127/127/127 159/159/159 160/160/160 
f 156/156/156 155/155/155 161/161/161 
f 125/125/125 127/127/127 160/160/160 
f 162/162/162 125/125/125 160/160/160 
f 162/162/162 160/160/160 163/163/163 
f 163/163/163 164/164/164 162/162/162 
