v 0.1865 -1.5365 -1.0289
v 0.230429 -1.77387 -1.11771
v 0.0760988 -1.7154 -0.98586
v 0.565141 -1.88435 -1.09625
v 0.230429 -1.77387 -1.11771
v 0.1865 -1.5365 -1.0289
v 0.561284 -1.89899 -1.10304
v 0.561284 -1.89899 -1.10304
v 0.0760987 -1.7154 -0.98586
v 0.230429 -1.77387 -1.11771
v 0.558185 -1.89781 -1.09335
v 0.465203 -1.86241 -0.802876
v -0.0460524 -1.66914 -0.907658
v 0.1865 -1.5365 -1.0289
v 0.0760988 -1.7154 -0.98586
v -0.0460523 -1.66914 -0.907658
v -0.0825856 -1.52509 -0.854586
v 0.1865 -1.5365 -1.0289
v -0.0460523 -1.66914 -0.907658
v -0.00621746 -1.46674 -0.891348
v 0.1865 -1.5365 -1.0289
v -0.00621746 -1.46674 -0.891348
v 0.2999 -1.43 -0.88
v 0.577381 -1.81793 -1.05135
v 0.1865 -1.5365 -1.0289
v 0.2999 -1.43 -0.88
v 0.573794 -1.85151 -1.08102
v 0.573794 -1.85151 -1.08102
v 0.565141 -1.88435 -1.09625
v 0.573794 -1.85151 -1.08102
v 0.558185 -1.89781 -1.09335
v 0.561284 -1.89899 -1.10304
v 0.577381 -1.81793 -1.05135
v 0.465203 -1.86241 -0.802876
v 0.639898 -1.67366 -1.05008
v 0.445344 -1.85485 -0.740834
v 0.445344 -1.85485 -0.740834
v -0.143512 -1.63222 -0.837759
v -0.130632 -1.5618 -0.831457
v -0.143512 -1.63222 -0.837759
v 0.038616 -1.46415 -0.632193
v -0.0825857 -1.52509 -0.854586
v -0.130632 -1.5618 -0.831457
v 0.0402795 -1.46284 -0.633312
v 0.0459013 -1.45843 -0.637096
v 0.0528288 -1.43024 -0.84335
v -0.00621754 -1.46674 -0.891348
v 0.0528289 -1.43024 -0.84335
v 0.129636 -1.37716 -0.830672
v 0.2999 -1.43 -0.88
v 0.0528289 -1.43024 -0.84335
v 0.297823 -1.39878 -0.865514
v 0.14523 -1.36638 -0.828098
v 0.14523 -1.36638 -0.828098
v 0.0869657 -1.48928 -0.603447
v 0.297823 -1.39878 -0.865514
v 0.0541721 -1.45193 -0.642662
v 0.14523 -1.36638 -0.828098
v 0.0529245 -1.45291 -0.641823
v 0.0541721 -1.45193 -0.642662
v 0.129636 -1.37716 -0.830672
v 0.049059 -1.45595 -0.639221
v 0.0459013 -1.45843 -0.637096
v 0.058158 -1.52308 -0.573212
v 0.049059 -1.45595 -0.639221
v 0.0402795 -1.46284 -0.633312
v 0.0564161 -1.52295 -0.573495
v 0.0564161 -1.52295 -0.573495
v -0.136506 -1.63474 -0.67238
v 0.058158 -1.52308 -0.573212
v 0.0444553 -1.52206 -0.575438
v -0.0453496 -1.52776 -0.596667
v 0.00399344 -1.51904 -0.582011
v -0.0217915 -1.51711 -0.5862
v -0.0444815 -1.52719 -0.59619
v -0.0453497 -1.52776 -0.596667
v -0.0444817 -1.52719 -0.59619
v 0.011899 -1.48514 -0.614212
v -0.177332 -1.61088 -0.690195
v -0.187764 -1.61539 -0.715883
v -0.194838 -1.61277 -0.783617
v -0.187764 -1.61539 -0.715883
v -0.194838 -1.61277 -0.783617
v -0.176928 -1.61947 -0.69859
v -0.176928 -1.61947 -0.69859
v -0.177332 -1.61088 -0.690195
v -0.187764 -1.61539 -0.715883
v -0.160505 -1.62566 -0.672381
v -0.160505 -1.62566 -0.672381
v -0.197515 -1.61178 -0.809244
v -0.19889 -1.61127 -0.822409
v -0.199556 -1.61102 -0.828791
v -0.201669 -1.61024 -0.849016
v -0.206818 -1.60833 -0.898321
v -0.143512 -1.63222 -0.837759
v -0.206818 -1.60833 -0.898321
v -0.173118 -1.58775 -0.868745
v -0.130632 -1.5618 -0.831457
v -0.173119 -1.58775 -0.868745
v -0.19889 -1.61127 -0.822409
v -0.197515 -1.61178 -0.809244
v -0.199556 -1.61102 -0.828791
v -0.201669 -1.61024 -0.849016
v -0.206818 -1.60833 -0.898321
v -0.136506 -1.63474 -0.67238
v -0.160505 -1.62566 -0.672381
v -0.166331 -1.60613 -0.663106
v -0.166331 -1.60613 -0.663106
v -0.166331 -1.60613 -0.663106
v -0.123544 -1.63964 -0.672379
v 0.423424 -1.8465 -0.672355
v 0.425379 -1.83762 -0.667205
v -0.123544 -1.63964 -0.672379
v 0.423424 -1.8465 -0.672355
v 0.43406 -1.79819 -0.644347
v 0.440905 -1.65532 -0.566495
v 0.117565 -1.52752 -0.56356
v 0.120755 -1.52776 -0.563042
v 0.441301 -1.64705 -0.561986
v 0.120755 -1.52776 -0.563042
v 0.441301 -1.64705 -0.561986
v 0.119685 -1.52655 -0.564322
v 0.119685 -1.52655 -0.564322
v 0.117565 -1.52752 -0.56356
v 0.120755 -1.52776 -0.563042
v 0.0971122 -1.50084 -0.591314
v 0.456094 -1.64533 -0.573161
v 0.0971122 -1.50084 -0.591314
v 0.440905 -1.65532 -0.566495
v 0.456094 -1.64533 -0.573161
v 0.441301 -1.64705 -0.561986
v 0.467189 -1.64405 -0.581542
v 0.45531 -1.73081 -0.622464
v 0.483261 -1.64219 -0.593682
v 0.45531 -1.73081 -0.622464
v 0.430655 -1.84925 -0.694947
v 0.483261 -1.64219 -0.593683
v 0.425379 -1.83762 -0.667205
v 0.439566 -1.78074 -0.638677
v 0.43406 -1.79819 -0.644347
v 0.439566 -1.78074 -0.638677
v 0.43406 -1.79819 -0.644347
v 0.423424 -1.8465 -0.672355
v 0.430656 -1.84925 -0.694947
v 0.58593 -1.56293 -0.77601
v 0.568702 -1.57623 -0.745415
v 0.483261 -1.64219 -0.593683
v 0.568702 -1.57623 -0.745415
v 0.467189 -1.64405 -0.581542
v 0.0869657 -1.48928 -0.603447
v 0.0529245 -1.45291 -0.641823
v 0.0541721 -1.45193 -0.642662
v 0.58593 -1.56293 -0.77601
v 0.606362 -1.48858 -0.903401
v 0.500897 -1.4191 -0.950762
v 0.500897 -1.4191 -0.950762
v 0.2999 -1.43 -0.88
v 0.297823 -1.39878 -0.865514
v 0.514687 -1.43082 -0.96109
v 0.514687 -1.43082 -0.96109
v 0.639898 -1.67367 -1.05008
v 0.2999 -1.43 -0.88
v 0.628897 -1.52365 -1.02011
v 0.639957 -1.53264 -1.02583
v 0.639898 -1.67367 -1.05008
v 0.639957 -1.53264 -1.02583
v 0.674164 -1.55377 -1.00164
v 0.674164 -1.55377 -1.00164
v 0.659435 -1.53281 -0.937673
v 0.64731 -1.51555 -0.885013
v 0.64731 -1.51555 -0.885013
v 0.606362 -1.48858 -0.903401
v 0.64731 -1.51555 -0.885013
v 0.659435 -1.53281 -0.937673
v 0.628897 -1.52365 -1.02011
v 0.514687 -1.43082 -0.96109
v 0.500897 -1.4191 -0.950762
v 0.674164 -1.55377 -1.00164
v 0.639957 -1.53264 -1.02583
v 0.577381 -1.81793 -1.05135
v 0.038616 -1.46415 -0.632193
v 0.011899 -1.48514 -0.614212
v 0.0444553 -1.52206 -0.575438
v 0.00399342 -1.51904 -0.582011
v -0.0200063 -1.51021 -0.59274
v -0.0200062 -1.51021 -0.59274
v -0.0200064 -1.51021 -0.592739
v -0.0444817 -1.52719 -0.59619
v -0.0217917 -1.51711 -0.5862
v -0.0217915 -1.51711 -0.5862
vt 0.0195 0.1706
vt 0.0117016 0.142268
vt 0.0340864 0.150652
vt 0.903977 0.398174
vt 0.935817 0.383777
vt 0.9591 0.418
vt 0.90298 0.39543
vt -1.10424 1.19675
vt -0.987064 0.677987
vt -1.11892 0.843024
vt -1.09456 1.19343
vt -0.804079 1.09394
vt -0.908862 0.54737
vt 0.0195 0.1706
vt 0.0340864 0.150652
vt 0.0524932 0.159469
vt 0.0503855 0.187847
vt 0.0195 0.1706
vt 0.0524932 0.159469
vt 0.0388967 0.194205
vt 0.9591 0.418
vt 0.983362 0.439172
vt 0.9498 0.4491
vt 0.906859 0.410649
vt 0.9591 0.418
vt 0.9498 0.4491
vt 0.906213 0.40433
vt 0.906213 0.40433
vt -1.44895 -1.50078
vt -1.43286 -1.46722
vt -1.44589 -1.5159
vt -1.45613 -1.51574
vt -1.4015 -1.43502
vt -1.13889 -1.52066
vt -1.40016 -1.27778
vt -1.07331 -1.52168
vt -0.742037 1.07269
vt -0.838963 0.443153
vt 0.0576135 0.183847
vt 0.06223 0.171705
vt -0.51811 0.815956
vt -0.741443 0.950063
vt -0.718216 1.01049
vt -0.519235 0.813843
vt -0.523034 0.806702
vt -0.730159 0.78474
vt -0.77836 0.854014
vt 0.97788 0.449769
vt 0.970084 0.456829
vt 0.9498 0.4491
vt 0.97788 0.449769
vt 0.950586 0.453387
vt 0.968501 0.458263
vt -0.613278 -0.0424991
vt -0.552257 -0.297927
vt -0.773089 -0.0285517
vt -0.517912 -0.244742
vt -0.714843 0.672426
vt -0.527781 0.797781
vt -0.528624 0.796197
vt -0.717428 0.69138
vt -0.525168 0.802691
vt 0.0490007 -0.602508
vt 0.0367186 -0.693399
vt 0.0458364 -0.599248
vt 0.0546342 -0.608313
vt 0.0384641 -0.693109
vt -0.0929689 -1.61336
vt 0.103003 -1.75857
vt -0.0947382 -1.61334
vt -0.080819 -1.61348
vt 0.0104054 -1.62852
vt -0.0397176 -1.61392
vt -0.0135251 -1.6142
vt 0.00952362 -1.6278
vt -0.482435 0.921242
vt -0.481956 0.920209
vt -0.500054 0.849893
vt -0.576358 1.07698
vt -0.602154 1.0881
vt -0.670174 1.09235
vt -0.717087 0.395806
vt -0.784821 0.388263
vt -0.699794 0.407387
vt -1.01062 1.34399
vt -1.00144 1.33623
vt -1.02952 1.33528
vt -0.981976 1.35721
vt -0.673585 0.424937
vt -0.810448 0.385409
vt -0.823613 0.383943
vt -0.829995 0.383232
vt -0.85022 0.380979
vt -0.899525 0.375488
vt 0.06223 0.171705
vt 0.071677 0.173418
vt 0.0654563 0.178031
vt 0.0576135 0.183846
vt -0.755661 1.06016
vt -0.70913 1.09479
vt -0.695909 1.09396
vt -0.715539 1.09519
vt -0.735849 1.09646
vt -0.785362 1.09955
vt -0.673584 0.450595
vt 0.127381 -1.75057
vt 0.133299 -1.72897
vt -0.97184 1.33724
vt -0.549154 1.06526
vt -0.673583 0.464453
vt -0.673558 1.04923
vt -0.467764 -1.935
vt 0.0898362 -1.76289
vt -0.465777 -1.94526
vt -0.476582 -1.88946
vt -0.483535 -1.72676
vt -0.155084 -1.6127
vt -0.158325 -1.61266
vt -0.483938 -1.71733
vt -0.587644 -0.352727
vt -0.923356 -0.41813
vt -0.586524 -0.350991
vt -0.0249358 -0.702074
vt -0.0228115 -0.703308
vt -0.0260084 -0.70384
vt -0.00231654 -0.664827
vt -0.938848 -0.407805
vt -0.562883 -0.314383
vt -1.57351 0.700428
vt -1.56256 0.716391
vt -1.56443 0.697868
vt -1.56115 0.730284
vt -1.65633 0.747118
vt -1.55911 0.750408
vt -0.948209 -1.40402
vt -1.02482 -1.52243
vt -0.91779 -1.31161
vt -0.995496 -1.51388
vt -0.965345 -1.45607
vt -0.971337 -1.47427
vt -1.7111 0.745264
vt -1.73025 0.744616
vt -1.00094 -1.5228
vt -0.696151 1.05697
vt -1.11049 -1.1979
vt -1.07816 -1.21698
vt -0.9673 -0.388843
vt -1.05678 -0.225547
vt -0.950468 -0.400061
vt 0.00785098 -0.648083
vt 0.041963 -0.595257
vt 0.0407127 -0.593969
vt -1.07483 -0.19262
vt -1.09623 -0.0452528
vt -0.98577 0.0321601
vt 0.92571 0.455389
vt 0.9498 0.4491
vt 0.950586 0.453387
vt 0.923844 0.454089
vt 0.923844 0.454089
vt 0.902819 0.428872
vt 0.9498 0.4491
vt 0.907795 0.44602
vt 0.906241 0.445238
vt 0.902819 0.428872
vt 0.906241 0.445238
vt 0.901372 0.444395
vt -1.34897 -1.15419
vt -1.28136 -1.14088
vt -1.2257 -1.12992
vt -1.13911 -0.0753095
vt -1.00387 -1.36765
vt -0.985331 -1.41663
vt -1.03843 -1.43659
vt -1.12155 -1.40653
vt -1.06204 -1.25955
vt -1.05162 -1.2415
vt -1.10293 -1.46085
vt -1.12731 -1.42077
vt 0.906859 0.410649
vt 0.0563012 -0.610031
vt 0.0830737 -0.637616
vt 0.0504497 -0.691114
vt 0.0909957 -0.684366
vt 0.115045 -0.670559
vt -0.478491 0.89042
vt 0.831286 -0.511729
vt 0.860125 -0.519953
vt 0.833389 -0.52117
vt 0.116834 -0.680065
vn -0.598176 0.181347 -0.780576
vn -0.598176 0.181347 -0.780576
vn -0.598176 0.181347 -0.780576
vn 0.181739 0.37391 -0.909484
vn 0.181739 0.37391 -0.909484
vn 0.181739 0.37391 -0.909484
vn 0.181739 0.37391 -0.909484
vn -0.353742 -0.935343 0.000763506
vn -0.353742 -0.935343 0.000763506
vn -0.353742 -0.935343 0.000763506
vn -0.353742 -0.935343 0.000763506
vn -0.353742 -0.935343 0.000763506
vn -0.353742 -0.935343 0.000763506
vn -0.506987 0.107103 -0.855274
vn -0.506987 0.107103 -0.855274
vn -0.506987 0.107103 -0.855274
vn -0.530526 0.171311 -0.830178
vn -0.530526 0.171311 -0.830178
vn -0.530526 0.171311 -0.830178
vn -0.530526 0.171311 -0.830178
vn -0.0807012 0.838773 -0.538467
vn -0.0807012 0.838773 -0.538467
vn -0.0807012 0.838773 -0.538467
vn 0.382708 0.588367 -0.712291
vn 0.382708 0.588367 -0.712291
vn 0.382708 0.588367 -0.712291
vn 0.382708 0.588367 -0.712291
vn 0.181739 0.37391 -0.909484
vn 0.86711 -0.378599 0.323703
vn 0.86711 -0.378599 0.323703
vn 0.86711 -0.378599 0.323703
vn 0.86711 -0.378599 0.323703
vn 0.86711 -0.378599 0.323703
vn 0.86711 -0.378599 0.323703
vn 0.86711 -0.378599 0.323703
vn 0.86711 -0.378599 0.323703
vn -0.353742 -0.935343 0.000763506
vn -0.353742 -0.935343 0.000763506
vn -0.530526 0.171311 -0.830178
vn -0.530526 0.171311 -0.830178
vn -0.576363 0.812043 0.0916072
vn -0.576363 0.812043 0.0916072
vn -0.576363 0.812043 0.0916072
vn -0.576363 0.812043 0.0916072
vn -0.576363 0.812043 0.0916072
vn -0.576363 0.812043 0.0916072
vn -0.576363 0.812043 0.0916072
vn -0.0807012 0.838773 -0.538467
vn -0.134247 0.409719 -0.90228
vn -0.134247 0.409719 -0.90228
vn -0.134247 0.409719 -0.90228
vn -0.134247 0.409719 -0.90228
vn -0.134247 0.409719 -0.90228
vn 0.297157 0.803118 0.51643
vn 0.297157 0.803118 0.51643
vn 0.297157 0.803118 0.51643
vn 0.297157 0.803118 0.51643
vn -0.576363 0.812043 0.0916072
vn -0.576363 0.812043 0.0916072
vn -0.576363 0.812043 0.0916072
vn -0.576363 0.812043 0.0916072
vn -0.576363 0.812043 0.0916072
vn -0.0643608 0.695182 0.715947
vn -0.0643608 0.695182 0.715947
vn -0.0643608 0.695182 0.715947
vn -0.0643608 0.695182 0.715947
vn -0.0643608 0.695182 0.715947
vn -0.175722 -0.46453 0.867948
vn -0.175722 -0.46453 0.867948
vn -0.175722 -0.46453 0.867948
vn -0.175722 -0.46453 0.867948
vn -0.175722 -0.46453 0.867948
vn -0.175722 -0.46453 0.867948
vn -0.175722 -0.46453 0.867948
vn -0.175722 -0.46453 0.867948
vn -0.576363 0.812043 0.0916072
vn -0.576363 0.812043 0.0916072
vn -0.576363 0.812043 0.0916072
vn -0.576363 0.812043 0.0916072
vn -0.576363 0.812043 0.0916072
vn -0.576363 0.812043 0.0916072
vn -0.353742 -0.935343 0.000763506
vn -0.353742 -0.935343 0.000763506
vn -0.353742 -0.935343 0.000763506
vn -0.80659 -0.43209 0.403374
vn -0.80659 -0.43209 0.403374
vn -0.80659 -0.43209 0.403374
vn -0.80659 -0.43209 0.403374
vn -0.353742 -0.935343 0.000763506
vn -0.353742 -0.935343 0.000763506
vn -0.353742 -0.935343 0.000763506
vn -0.353742 -0.935343 0.000763506
vn -0.353742 -0.935343 0.000763506
vn -0.353742 -0.935343 0.000763506
vn 0.678342 -0.0588181 -0.732389
vn 0.678366 -0.0587632 -0.732371
vn 0.67832 -0.058866 -0.732405
vn 0.678263 -0.0589955 -0.732447
vn -0.576363 0.812043 0.0916072
vn -0.576363 0.812043 0.0916072
vn -0.576363 0.812043 0.0916072
vn -0.576363 0.812043 0.0916072
vn -0.576363 0.812043 0.0916072
vn -0.576363 0.812043 0.0916072
vn -0.353742 -0.935343 0.000763506
vn -0.175722 -0.46453 0.867948
vn -0.175722 -0.46453 0.867948
vn -0.80659 -0.43209 0.403374
vn -0.576363 0.812043 0.0916072
vn -0.353742 -0.935343 0.000763506
vn -0.353742 -0.935343 0.000763506
vn -0.175722 -0.46453 0.867948
vn -0.175722 -0.46453 0.867948
vn -0.175722 -0.46453 0.867948
vn -0.175722 -0.46453 0.867948
vn -0.175722 -0.46453 0.867948
vn -0.175722 -0.46453 0.867948
vn -0.175722 -0.46453 0.867948
vn -0.175722 -0.46453 0.867948
vn 0.297157 0.803118 0.51643
vn 0.297157 0.803118 0.51643
vn 0.297157 0.803118 0.51643
vn -0.0643608 0.695182 0.715947
vn -0.0643608 0.695182 0.715947
vn -0.0643608 0.695182 0.715947
vn -0.0643608 0.695182 0.715947
vn 0.297157 0.803118 0.51643
vn 0.297157 0.803118 0.51643
vn 0.579256 -0.411255 0.703798
vn 0.579256 -0.411255 0.703798
vn 0.579256 -0.411255 0.703798
vn 0.579256 -0.411255 0.703798
vn 0.579256 -0.411255 0.703798
vn 0.579256 -0.411255 0.703798
vn 0.86711 -0.378599 0.323703
vn 0.86711 -0.378599 0.323703
vn 0.86711 -0.378599 0.323703
vn 0.86711 -0.378599 0.323703
vn 0.86711 -0.378599 0.323703
vn 0.86711 -0.378599 0.323703
vn 0.579256 -0.411255 0.703798
vn 0.579256 -0.411255 0.703798
vn 0.86711 -0.378599 0.323703
vn -0.353742 -0.935343 0.000763506
vn 0.86711 -0.378599 0.323703
vn 0.86711 -0.378599 0.323703
vn 0.297157 0.803118 0.51643
vn 0.297157 0.803118 0.51643
vn 0.297157 0.803118 0.51643
vn -0.0643608 0.695182 0.715947
vn -0.0643608 0.695182 0.715947
vn -0.0643608 0.695182 0.715947
vn 0.297157 0.803118 0.51643
vn 0.297157 0.803118 0.51643
vn 0.297157 0.803118 0.51643
vn -0.325424 0.38008 -0.865816
vn -0.325424 0.38008 -0.865816
vn -0.325424 0.38008 -0.865816
vn -0.325424 0.38008 -0.865816
vn -0.348176 0.159027 -0.923842
vn -0.348176 0.159027 -0.923842
vn -0.348176 0.159027 -0.923842
vn -0.348176 0.159027 -0.923842
vn -0.348176 0.159027 -0.923842
vn 0.625297 0.132011 -0.769141
vn 0.625297 0.132011 -0.769141
vn 0.625297 0.132011 -0.769141
vn 0.86711 -0.378599 0.323703
vn 0.86711 -0.378599 0.323703
vn 0.86711 -0.378599 0.323703
vn 0.297157 0.803118 0.51643
vn 0.584985 0.800921 -0.127744
vn 0.584985 0.800921 -0.127744
vn 0.584985 0.800921 -0.127744
vn 0.584985 0.800921 -0.127744
vn 0.584985 0.800921 -0.127744
vn 0.584985 0.800921 -0.127744
vn 0.584985 0.800921 -0.127744
vn 0.584985 0.800921 -0.127744
vn -0.348176 0.159027 -0.923842
vn -0.0643608 0.695182 0.715947
vn -0.0643608 0.695182 0.715947
vn -0.0643608 0.695182 0.715947
vn -0.0643608 0.695182 0.715947
vn -0.0643608 0.695182 0.715947
vn -0.576363 0.812043 0.0916072
vn -0.528926 0.65187 0.543419
vn -0.528926 0.65187 0.543419
vn -0.528926 0.65187 0.543419
vn -0.0643608 0.695182 0.715947
f 1/1/1 2/2/2 3/3/3 
f 4/4/4 5/5/5 6/6/6 
f 7/7/7 5/5/5 4/4/4 
f 8/8/8 9/9/9 10/10/10 
f 11/11/11 9/9/9 8/8/8 
f 12/12/12 9/9/9 11/11/11 
f 9/9/9 12/12/12 13/13/13 
f 14/14/14 15/15/15 16/16/16 
f 17/17/17 18/18/18 19/19/19 
f 20/20/20 18/18/18 17/17/17 
f 21/21/21 22/22/22 23/23/23 
f 24/24/24 25/25/25 26/26/26 
f 27/27/27 25/25/25 24/24/24 
f 4/4/4 6/6/6 28/28/28 
f 29/29/29 30/30/30 31/31/31 
f 29/29/29 31/31/31 32/32/32 
f 33/33/33 31/31/31 30/30/30 
f 34/34/34 31/31/31 33/33/33 
f 35/35/35 34/34/34 33/33/33 
f 36/36/36 34/34/34 35/35/35 
f 13/13/13 12/12/12 37/37/37 
f 13/13/13 37/37/37 38/38/38 
f 39/39/39 19/19/19 40/40/40 
f 17/17/17 19/19/19 39/39/39 
f 41/41/41 42/42/42 43/43/43 
f 44/44/44 42/42/42 41/41/41 
f 45/45/45 42/42/42 44/44/44 
f 42/42/42 45/45/45 46/46/46 
f 42/42/42 46/46/46 47/47/47 
f 23/23/23 22/22/22 48/48/48 
f 49/49/49 50/50/50 51/51/51 
f 49/49/49 52/52/52 50/50/50 
f 53/53/53 52/52/52 49/49/49 
f 54/54/54 55/55/55 56/56/56 
f 54/54/54 57/57/57 55/55/55 
f 58/58/58 59/59/59 60/60/60 
f 61/61/61 59/59/59 58/58/58 
f 61/61/61 62/62/62 59/59/59 
f 46/46/46 62/62/62 61/61/61 
f 46/46/46 45/45/45 62/62/62 
f 63/63/63 64/64/64 65/65/65 
f 66/66/66 64/64/64 63/63/63 
f 67/67/67 64/64/64 66/66/66 
f 68/68/68 69/69/69 70/70/70 
f 71/71/71 69/69/69 68/68/68 
f 71/71/71 72/72/72 69/69/69 
f 73/73/73 72/72/72 71/71/71 
f 74/74/74 72/72/72 73/73/73 
f 75/75/75 72/72/72 74/74/74 
f 76/76/76 77/77/77 78/78/78 
f 76/76/76 78/78/78 43/43/43 
f 43/43/43 79/79/79 76/76/76 
f 43/43/43 80/80/80 79/79/79 
f 81/81/81 80/80/80 43/43/43 
f 82/82/82 83/83/83 84/84/84 
f 85/85/85 86/86/86 87/87/87 
f 85/85/85 88/88/88 86/86/86 
f 84/84/84 38/38/38 89/89/89 
f 84/84/84 83/83/83 38/38/38 
f 38/38/38 83/83/83 90/90/90 
f 38/38/38 90/90/90 91/91/91 
f 38/38/38 91/91/91 92/92/92 
f 38/38/38 92/92/92 93/93/93 
f 38/38/38 93/93/93 94/94/94 
f 95/95/95 96/96/96 97/97/97 
f 95/95/95 97/97/97 98/98/98 
f 43/43/43 99/99/99 100/100/100 
f 101/101/101 43/43/43 100/100/100 
f 81/81/81 43/43/43 101/101/101 
f 102/102/102 100/100/100 99/99/99 
f 103/103/103 102/102/102 99/99/99 
f 104/104/104 103/103/103 99/99/99 
f 89/89/89 38/38/38 105/105/105 
f 106/106/106 69/69/69 107/107/107 
f 88/88/88 108/108/108 86/86/86 
f 76/76/76 79/79/79 109/109/109 
f 107/107/107 69/69/69 72/72/72 
f 38/38/38 110/110/110 105/105/105 
f 110/110/110 38/38/38 111/111/111 
f 112/112/112 113/113/113 114/114/114 
f 115/115/115 113/113/113 112/112/112 
f 116/116/116 113/113/113 115/115/115 
f 116/116/116 117/117/117 113/113/113 
f 116/116/116 118/118/118 117/117/117 
f 119/119/119 118/118/118 116/116/116 
f 120/120/120 121/121/121 122/122/122 
f 123/123/123 124/124/124 125/125/125 
f 123/123/123 126/126/126 124/124/124 
f 122/122/122 127/127/127 128/128/128 
f 122/122/122 121/121/121 127/127/127 
f 129/129/129 130/130/130 131/131/131 
f 129/129/129 132/132/132 130/130/130 
f 133/133/133 132/132/132 129/129/129 
f 133/133/133 134/134/134 132/132/132 
f 135/135/135 136/136/136 137/137/137 
f 135/135/135 138/138/138 136/136/136 
f 139/139/139 138/138/138 135/135/135 
f 140/140/140 138/138/138 139/139/139 
f 141/141/141 129/129/129 142/142/142 
f 133/133/133 129/129/129 141/141/141 
f 136/136/136 138/138/138 143/143/143 
f 111/111/111 38/38/38 144/144/144 
f 38/38/38 37/37/37 144/144/144 
f 145/145/145 136/136/136 36/36/36 
f 146/146/146 136/136/136 145/145/145 
f 137/137/137 136/136/136 146/146/146 
f 147/147/147 148/148/148 149/149/149 
f 149/149/149 148/148/148 56/56/56 
f 149/149/149 56/56/56 127/127/127 
f 128/128/128 127/127/127 56/56/56 
f 56/56/56 55/55/55 128/128/128 
f 150/150/150 64/64/64 126/126/126 
f 151/151/151 64/64/64 150/150/150 
f 65/65/65 64/64/64 151/151/151 
f 152/152/152 151/151/151 150/150/150 
f 126/126/126 64/64/64 124/124/124 
f 113/113/113 117/117/117 70/70/70 
f 70/70/70 69/69/69 113/113/113 
f 153/153/153 56/56/56 148/148/148 
f 154/154/154 56/56/56 153/153/153 
f 155/155/155 56/56/56 154/154/154 
f 156/156/156 157/157/157 158/158/158 
f 159/159/159 157/157/157 156/156/156 
f 160/160/160 161/161/161 162/162/162 
f 163/163/163 161/161/161 160/160/160 
f 164/164/164 161/161/161 163/163/163 
f 165/165/165 166/166/166 167/167/167 
f 168/168/168 36/36/36 35/35/35 
f 169/169/169 36/36/36 168/168/168 
f 169/169/169 145/145/145 36/36/36 
f 170/170/170 145/145/145 169/169/169 
f 154/154/154 153/153/153 171/171/171 
f 172/172/172 173/173/173 174/174/174 
f 172/172/172 174/174/174 175/175/175 
f 172/172/172 175/175/175 176/176/176 
f 177/177/177 172/172/172 176/176/176 
f 175/175/175 174/174/174 178/178/178 
f 175/175/175 178/178/178 179/179/179 
f 180/180/180 162/162/162 161/161/161 
f 43/43/43 78/78/78 41/41/41 
f 181/181/181 182/182/182 183/183/183 
f 181/181/181 183/183/183 67/67/67 
f 181/181/181 67/67/67 66/66/66 
f 182/182/182 184/184/184 183/183/183 
f 182/182/182 185/185/185 184/184/184 
f 78/78/78 77/77/77 186/186/186 
f 187/187/187 188/188/188 189/189/189 
f 184/184/184 185/185/185 190/190/190 
