v -0.160138 -0.894183 0.722027
v -0.154235 -0.809575 0.728623
v -0.204089 -0.886746 0.720013
v -0.154235 -0.809575 0.728623
v -0.160138 -0.894183 0.722027
v -0.0512775 -0.5926 0.79952
v -0.0512775 -0.5926 0.79952
v 0.00563336 -0.890306 0.677609
v -0.154235 -0.809575 0.728623
v 0.0788071 -0.894139 0.667035
v 0.0728656 -0.911653 0.696934
v 0.00563335 -0.890306 0.677609
v 0.078807 -0.894139 0.667035
v 0.0681714 -0.925489 0.720557
v -0.00790896 -0.927277 0.740956
v 0.0595083 -0.951024 0.764151
v 0.0595083 -0.951024 0.764151
v 0.0956113 -0.919179 0.82498
v -0.00790895 -0.927277 0.740956
v 0.0595085 -0.951024 0.764151
v 0.28267 -0.68155 0.903952
v 0.0956114 -0.91918 0.82498
v 0.0681714 -0.925489 0.720557
v 0.0728656 -0.911653 0.696934
v 0.265647 -0.653887 0.736484
v 0.078807 -0.894139 0.667035
v 0.265647 -0.653887 0.736484
v 0.226924 -0.556259 0.778956
v 0.199222 -0.486421 0.809339
v 0.062878 -0.449289 0.84061
v 0.1259 -0.439757 0.836453
v 0.1558 -0.593 0.8744
v 0.1259 -0.439757 0.836453
v 0.062878 -0.449289 0.84061
v 0.1259 -0.439757 0.836453
v 0.1558 -0.593 0.8744
v 0.166498 -0.403918 0.845231
v 0.166498 -0.403918 0.845231
v 0.166498 -0.403919 0.845231
v 0.191709 -0.463591 0.86504
v 0.199222 -0.486421 0.809339
v 0.191709 -0.463591 0.86504
v 0.191709 -0.463591 0.86504
v 0.1558 -0.593 0.8744
v 0.221111 -0.53281 0.892678
v 0.226924 -0.556259 0.778956
v 0.221111 -0.53281 0.892678
v 0.265647 -0.653887 0.736484
v 0.28267 -0.68155 0.903952
v 0.252699 -0.606423 0.931556
v 0.221111 -0.53281 0.892678
v 0.1558 -0.593 0.8744
v 0.252699 -0.606423 0.931556
v 0.2074 -0.7587 0.9512
v 0.2074 -0.7587 0.9512
v 0.26261 -0.629853 0.939679
v 0.252699 -0.606423 0.931556
v 0.236468 -0.763814 0.961102
v 0.288454 -0.690951 0.960861
v 0.288454 -0.690951 0.960861
v 0.236468 -0.763814 0.961102
v 0.287631 -0.689613 0.952761
v 0.26261 -0.629853 0.939679
v 0.288454 -0.690951 0.96086
v 0.287631 -0.689613 0.952761
v 0.284945 -0.685248 0.926341
v 0.284945 -0.685248 0.926341
v 0.21963 -0.782157 0.944085
v 0.236468 -0.763814 0.961102
v 0.2074 -0.7587 0.9512
v 0.21963 -0.782157 0.944085
v 0.0956113 -0.919179 0.82498
v -0.0133 -0.8568 0.8136
v -0.0133 -0.8568 0.8136
v -0.0471823 -0.913444 0.727445
v -0.0133 -0.8568 0.8136
v -0.0776354 -0.912332 0.732633
v -0.0471823 -0.913444 0.727445
v -0.127995 -0.910494 0.741213
v -0.127995 -0.910494 0.741213
v -0.113058 -0.88409 0.694761
v -0.0776354 -0.912332 0.732633
v -0.12882 -0.910075 0.740721
v -0.132052 -0.883095 0.697506
v -0.152846 -0.897883 0.72638
v -0.141293 -0.882611 0.698841
v -0.153167 -0.89772 0.726188
v -0.153167 -0.89772 0.726188
v -0.152846 -0.897883 0.72638
v -0.160138 -0.894183 0.722027
v -0.208442 -0.879093 0.708545
v -0.236031 -0.85748 0.720312
v -0.141293 -0.882611 0.698842
v -0.208442 -0.879093 0.708545
v -0.132052 -0.883095 0.697506
v -0.113058 -0.88409 0.694761
v -0.0699665 -0.886347 0.688534
v -0.0699666 -0.886347 0.688534
v -0.0471823 -0.913444 0.727445
v -0.236031 -0.85748 0.720312
v -0.204089 -0.886746 0.720013
v -0.236031 -0.85748 0.720312
v -0.208442 -0.879094 0.708545
v -0.204089 -0.886746 0.720013
v -0.0133 -0.8568 0.8136
v -0.0133 -0.8568 0.8136
v 0.062878 -0.449289 0.84061
v -0.0512775 -0.5926 0.79952
v 0.1558 -0.593 0.8744
v 0.2074 -0.7587 0.9512
v 0.1558 -0.593 0.8744
v -0.0133 -0.8568 0.8136
v -0.12882 -0.910075 0.740721
v -0.127995 -0.910494 0.741213
vt 0.462109 0.219576
vt 0.46422 0.230735
vt 0.457347 0.220593
vt 0.553382 0.548096
vt 0.55513 0.538049
vt 0.561467 0.579956
vt 0.161441 0.265154
vt 0.104148 0.586787
vt 0.265088 0.493106
vt 0.0304842 0.594168
vt -0.121575 1.07087
vt -0.0538581 1.04323
vt -0.127559 1.03622
vt -0.116847 1.09824
vt -0.0402183 1.11656
vt -0.108121 1.14875
vt 0.584701 0.539922
vt 0.589162 0.547836
vt 0.576001 0.540132
vt 0.857994 -0.739327
vt 1.00001 -0.390339
vt 0.919787 -0.69243
vt 0.813709 -0.713513
vt 0.789713 -0.699525
vt 0.829889 -0.37772
vt 0.75934 -0.68182
vt -0.157608 0.34502
vt -0.118625 0.238649
vt -0.0907381 0.162555
vt 0.04652 0.116657
vt -0.016924 0.10926
vt 0.5858 0.5912
vt 0.576655 0.607412
vt 0.569952 0.602196
vt 0.576655 0.607412
vt 0.5858 0.5912
vt 0.580154 0.613126
vt -0.0577943 0.0726639
vt 0.844831 -0.436889
vt 0.864649 -0.501665
vt 0.808921 -0.525637
vt 0.585323 0.60736
vt 0.585323 0.60736
vt 0.5858 0.5912
vt 0.591532 0.600315
vt 0.778524 -0.600763
vt 0.892301 -0.576865
vt 0.736031 -0.705781
vt 0.90358 -0.73784
vt 0.931198 -0.65696
vt 0.591532 0.600315
vt 0.5858 0.5912
vt 0.59906 0.592681
vt 0.6002 0.5734
vt 0.6002 0.5734
vt 0.601153 0.590281
vt 0.59906 0.592681
vt 0.603713 0.57378
vt 0.606611 0.584023
vt 1.05782 -0.394627
vt 1.05807 -0.484134
vt 1.04959 -0.394016
vt 0.939325 -0.682399
vt 0.960517 -0.748734
vt 0.952414 -0.747184
vt 0.92598 -0.742126
vt 1.02275 -0.392026
vt 1.04078 -0.508847
vt 0.603713 0.57378
vt 0.6002 0.5734
vt 0.602047 0.570652
vt 0.589162 0.547836
vt 0.575 0.5525
vt 0.575 0.5525
vt 0.570932 0.540254
vt 0.575 0.5525
vt 0.566899 0.539564
vt 0.570932 0.540254
vt 0.56023 0.538423
vt 0.080733 1.108
vt 0.0656886 1.05459
vt 0.0300104 1.10165
vt 0.0815636 1.10736
vt 0.0848193 1.05641
vt 0.105762 1.08876
vt 0.0941262 1.0573
vt 0.106086 1.08851
vt 0.556236 0.53813
vt 0.556287 0.538134
vt 0.113107 1.08311
vt 0.161759 1.06373
vt 0.347433 0.540791
vt 0.252059 0.571965
vt 0.319659 0.565191
vt 0.242757 0.572897
vt 0.223636 0.574813
vt 0.180255 0.57916
vt 0.0222863 1.05047
vt -0.000662127 1.09781
vt 0.454296 0.224481
vt 0.88152 0.449849
vt 0.881827 0.406527
vt 0.869742 0.441465
vt 0.157375 1.07751
vt 0.575 0.5525
vt 0.575 0.5525
vt 0.569952 0.602196
vt 0.561467 0.579956
vt 0.5858 0.5912
vt 0.6002 0.5734
vt 0.5858 0.5912
vt 0.575 0.5525
vt 0.560099 0.538413
vt 0.56023 0.538423
vn -0.0580747 -0.0735602 0.995598
vn -0.0580747 -0.0735602 0.995598
vn -0.0580747 -0.0735602 0.995598
vn -0.523443 -0.0298609 0.851537
vn -0.523443 -0.0298609 0.851537
vn -0.523443 -0.0298609 0.851537
vn -0.115203 0.357494 -0.926783
vn -0.115203 0.357494 -0.926783
vn -0.115203 0.357494 -0.926783
vn -0.115203 0.357494 -0.926783
vn -0.119374 -0.846173 -0.519366
vn -0.119374 -0.846173 -0.519366
vn -0.119374 -0.846173 -0.519366
vn -0.119374 -0.846173 -0.519366
vn -0.119374 -0.846173 -0.519366
vn -0.119374 -0.846173 -0.519366
vn -0.44158 -0.660118 0.60766
vn -0.44158 -0.660118 0.60766
vn -0.44158 -0.660118 0.60766
vn 0.801075 -0.572125 -0.175933
vn 0.801075 -0.572125 -0.175933
vn 0.801075 -0.572125 -0.175933
vn 0.801075 -0.572125 -0.175933
vn 0.801075 -0.572125 -0.175933
vn 0.801075 -0.572125 -0.175933
vn 0.801075 -0.572125 -0.175933
vn -0.115203 0.357494 -0.926783
vn -0.115203 0.357494 -0.926783
vn -0.115203 0.357494 -0.926783
vn -0.115203 0.357494 -0.926783
vn -0.115203 0.357494 -0.926783
vn 0.0268398 0.245211 0.969098
vn 0.0268398 0.245211 0.969098
vn 0.0268398 0.245211 0.969098
vn -0.343164 0.162141 0.925175
vn -0.343164 0.162141 0.925175
vn -0.343164 0.162141 0.925175
vn -0.115203 0.357494 -0.926783
vn 0.924377 0.380205 -0.031154
vn 0.924377 0.380205 -0.031154
vn 0.924377 0.380205 -0.031154
vn -0.343164 0.162141 0.925175
vn -0.415199 0.179715 0.891803
vn -0.415199 0.179715 0.891803
vn -0.415199 0.179715 0.891803
vn 0.924377 0.380205 -0.031154
vn 0.924377 0.380205 -0.031154
vn 0.924377 0.380205 -0.031154
vn 0.924377 0.380205 -0.031154
vn 0.924377 0.380205 -0.031154
vn -0.466403 0.248269 0.849018
vn -0.466403 0.248269 0.849018
vn -0.466403 0.248269 0.849018
vn -0.466403 0.248269 0.849018
vn -0.283078 0.205072 0.936916
vn -0.283078 0.205072 0.936916
vn -0.283078 0.205072 0.936916
vn -0.283078 0.205072 0.936916
vn -0.283078 0.205072 0.936916
vn 0.801075 -0.572125 -0.175933
vn 0.801075 -0.572125 -0.175933
vn 0.801075 -0.572125 -0.175933
vn 0.924377 0.380205 -0.031154
vn 0.924377 0.380205 -0.031154
vn 0.924377 0.380205 -0.031154
vn 0.924377 0.380205 -0.031154
vn 0.801075 -0.572125 -0.175933
vn 0.801075 -0.572125 -0.175933
vn -0.34729 -0.433345 0.831626
vn -0.34561 -0.432771 0.832624
vn -0.34561 -0.432771 0.832624
vn -0.336678 -0.429702 0.837857
vn -0.333177 -0.428488 0.839875
vn -0.44158 -0.660118 0.60766
vn -0.44158 -0.660118 0.60766
vn 0.0597834 -0.844721 0.531858
vn 0.0597834 -0.844721 0.531858
vn 0.0597834 -0.844721 0.531858
vn 0.0597834 -0.844721 0.531858
vn -0.119374 -0.846173 -0.519366
vn -0.119374 -0.846173 -0.519366
vn -0.119374 -0.846173 -0.519366
vn -0.119374 -0.846173 -0.519366
vn -0.119374 -0.846173 -0.519366
vn -0.119374 -0.846173 -0.519366
vn -0.119374 -0.846173 -0.519366
vn -0.119374 -0.846173 -0.519366
vn -0.523443 -0.0298609 0.851537
vn -0.523443 -0.0298609 0.851537
vn -0.119374 -0.846173 -0.519366
vn -0.119374 -0.846173 -0.519366
vn -0.115203 0.357494 -0.926783
vn -0.115203 0.357494 -0.926783
vn -0.115203 0.357494 -0.926783
vn -0.115203 0.357494 -0.926783
vn -0.115203 0.357494 -0.926783
vn -0.115203 0.357494 -0.926783
vn -0.119374 -0.846173 -0.519366
vn -0.119374 -0.846173 -0.519366
vn -0.0580747 -0.0735602 0.995598
vn -0.658888 -0.716787 -0.228216
vn -0.658888 -0.716787 -0.228216
vn -0.658888 -0.716787 -0.228216
vn -0.119374 -0.846173 -0.519366
vn -0.523443 -0.0298609 0.851537
vn -0.340053 0.00123679 0.940406
vn -0.340053 0.00123679 0.940406
vn -0.340053 0.00123679 0.940406
vn -0.340053 0.00123679 0.940406
vn -0.578411 0.18781 0.793831
vn -0.578411 0.18781 0.793831
vn -0.578411 0.18781 0.793831
vn -0.523443 -0.0298609 0.851537
vn -0.523443 -0.0298609 0.851537
f 1/1/1 2/2/2 3/3/3 
f 4/4/4 5/5/5 6/6/6 
f 7/7/7 8/8/8 9/9/9 
f 8/8/8 7/7/7 10/10/10 
f 11/11/11 12/12/12 13/13/13 
f 14/14/14 12/12/12 11/11/11 
f 14/14/14 15/15/15 12/12/12 
f 16/16/16 15/15/15 14/14/14 
f 17/17/17 18/18/18 19/19/19 
f 20/20/20 21/21/21 22/22/22 
f 23/23/23 21/21/21 20/20/20 
f 24/24/24 21/21/21 23/23/23 
f 24/24/24 25/25/25 21/21/21 
f 26/26/26 25/25/25 24/24/24 
f 10/10/10 7/7/7 27/27/27 
f 7/7/7 28/28/28 27/27/27 
f 7/7/7 29/29/29 28/28/28 
f 30/30/30 29/29/29 7/7/7 
f 30/30/30 31/31/31 29/29/29 
f 32/32/32 33/33/33 34/34/34 
f 35/35/35 36/36/36 37/37/37 
f 29/29/29 31/31/31 38/38/38 
f 39/39/39 40/40/40 41/41/41 
f 37/37/37 36/36/36 42/42/42 
f 43/43/43 44/44/44 45/45/45 
f 46/46/46 40/40/40 47/47/47 
f 41/41/41 40/40/40 46/46/46 
f 46/46/46 47/47/47 48/48/48 
f 48/48/48 47/47/47 49/49/49 
f 47/47/47 50/50/50 49/49/49 
f 51/51/51 52/52/52 53/53/53 
f 53/53/53 52/52/52 54/54/54 
f 55/55/55 56/56/56 57/57/57 
f 58/58/58 56/56/56 55/55/55 
f 58/58/58 59/59/59 56/56/56 
f 60/60/60 61/61/61 62/62/62 
f 63/63/63 64/64/64 65/65/65 
f 63/63/63 65/65/65 66/66/66 
f 63/63/63 66/66/66 49/49/49 
f 50/50/50 63/63/63 49/49/49 
f 67/67/67 22/22/22 21/21/21 
f 67/67/67 68/68/68 22/22/22 
f 62/62/62 68/68/68 67/67/67 
f 62/62/62 61/61/61 68/68/68 
f 69/69/69 70/70/70 71/71/71 
f 71/71/71 70/70/70 72/72/72 
f 72/72/72 70/70/70 73/73/73 
f 19/19/19 18/18/18 74/74/74 
f 74/74/74 75/75/75 19/19/19 
f 76/76/76 77/77/77 78/78/78 
f 77/77/77 76/76/76 79/79/79 
f 80/80/80 81/81/81 82/82/82 
f 83/83/83 81/81/81 80/80/80 
f 83/83/83 84/84/84 81/81/81 
f 85/85/85 84/84/84 83/83/83 
f 85/85/85 86/86/86 84/84/84 
f 85/85/85 87/87/87 86/86/86 
f 6/6/6 88/88/88 89/89/89 
f 6/6/6 5/5/5 88/88/88 
f 87/87/87 90/90/90 86/86/86 
f 91/91/91 86/86/86 90/90/90 
f 92/92/92 93/93/93 94/94/94 
f 9/9/9 93/93/93 92/92/92 
f 93/93/93 9/9/9 95/95/95 
f 95/95/95 9/9/9 96/96/96 
f 96/96/96 9/9/9 97/97/97 
f 82/82/82 81/81/81 98/98/98 
f 99/99/99 82/82/82 98/98/98 
f 99/99/99 98/98/98 12/12/12 
f 15/15/15 99/99/99 12/12/12 
f 9/9/9 8/8/8 97/97/97 
f 3/3/3 2/2/2 100/100/100 
f 101/101/101 102/102/102 103/103/103 
f 104/104/104 91/91/91 90/90/90 
f 6/6/6 89/89/89 105/105/105 
f 106/106/106 107/107/107 108/108/108 
f 109/109/109 107/107/107 106/106/106 
f 110/110/110 111/111/111 112/112/112 
f 105/105/105 89/89/89 113/113/113 
f 105/105/105 113/113/113 114/114/114 
