v 1.0354 -2.3608 0.2094
v 1.03226 -2.22872 0.286424
v 0.975333 -2.25963 0.3531
v 1.03226 -2.22872 0.286424
v 1.0354 -2.3608 0.2094
v 1.04781 -2.23278 0.224283
v 0.975333 -2.25963 0.3531
v 1.03226 -2.22872 0.286424
v 1.04781 -2.23278 0.224283
v 0.950087 -2.2763 0.37225
v 0.955394 -2.27159 0.37246
v 0.955394 -2.27159 0.37246
v 1.006 -2.5283 0.1447
v 0.975333 -2.25963 0.3531
v 0.943168 -2.29183 0.376307
v 0.923389 -2.32455 0.382531
v 0.811925 -2.43433 0.383117
v 1.006 -2.5283 0.1447
v 0.923389 -2.32455 0.382531
v 0.803227 -2.4522 0.375421
v 0.803227 -2.4522 0.375421
v 0.73281 -2.51801 0.282259
v 1.006 -2.5283 0.1447
v 0.754168 -2.49504 0.316167
v 0.733147 -2.5134 0.290778
v 0.73281 -2.51801 0.282259
v 0.733147 -2.5134 0.290777
v 0.733149 -2.51272 0.290594
v 0.730342 -2.5161 0.206415
v 0.72667 -2.60203 0.1271
v 0.728085 -2.53554 0.145071
v 0.730342 -2.5161 0.206415
v 0.921543 -2.30164 0.371118
v 0.728086 -2.53554 0.145071
v 0.733227 -2.49125 0.284832
v 0.806202 -2.40403 0.366547
v 0.921543 -2.30164 0.371118
v 0.806202 -2.40403 0.366547
v 0.811451 -2.43183 0.381745
v 0.923389 -2.32455 0.382531
v 0.943168 -2.29183 0.376307
v 0.950087 -2.2763 0.37225
v 0.72724 -2.54283 0.122082
v 0.72724 -2.54283 0.122082
v 0.725283 -2.55969 0.0688801
v 0.723013 -2.57924 0.00717067
v 0.886248 -2.4939 -0.195565
v 0.72667 -2.60203 0.1271
v 0.723013 -2.57924 0.00717066
v 1.006 -2.5283 0.1447
v 0.72667 -2.60203 0.1271
v 1.02162 -2.34684 -0.0957214
v 1.006 -2.5283 0.1447
v 0.886248 -2.4939 -0.195565
v 1.006 -2.5283 0.1447
v 1.02162 -2.34684 -0.0957214
v 1.07903 -2.25959 0.0339946
v 1.07903 -2.25959 0.0339946
v 1.0354 -2.3608 0.2094
v 1.006 -2.5283 0.1447
v 1.0725 -2.23922 0.125653
v 1.0725 -2.23922 0.125653
v 1.0725 -2.23922 0.125653
v 0.725283 -2.55969 0.0688801
v 1.02162 -2.34684 -0.0957214
v 0.723013 -2.57924 0.00717066
v 0.886248 -2.4939 -0.195565
v 1.07903 -2.25959 0.0339946
v 1.0354 -2.3608 0.2094
v 0.955394 -2.27159 0.37246
v 0.811925 -2.43433 0.383117
v 0.811925 -2.43433 0.383117
v 0.811451 -2.43183 0.381745
v 0.803227 -2.4522 0.375421
v 0.806202 -2.40403 0.366547
v 0.754168 -2.49504 0.316167
v 0.733226 -2.49125 0.284832
v 0.733149 -2.51272 0.290594
v 0.733147 -2.5134 0.290778
v 0.733226 -2.49125 0.284831
vt 0.7536 0.4167
vt 0.746884 0.42924
vt 0.738334 0.426193
vt 0.746884 0.42924
vt 0.7536 0.4167
vt 0.753848 0.428878
vt -0.14507 0.755822
vt -0.213256 0.692643
vt -0.276806 0.683617
vt -0.125486 0.785797
vt -0.125271 0.778701
vt 0.735296 0.424843
vt 0.7558 0.3999
vt 0.738334 0.426193
vt 0.734008 0.422741
vt 0.731925 0.41934
vt 0.727578 0.401564
vt 0.7558 0.3999
vt 0.731925 0.41934
vt 0.727913 0.399114
vt 0.727913 0.399114
vt 0.73356 0.384077
vt 0.7558 0.3999
vt 0.731347 0.389119
vt 0.732818 0.384836
vt -2.50885 0.306169
vt -2.50424 0.314693
vt -2.50356 0.31451
vt -2.50694 0.230284
vt -2.59287 0.150891
vt -2.52638 0.168899
vt -0.295079 1.10911
vt -0.126643 0.823964
vt -0.357813 1.12362
vt -0.214885 1.09056
vt -0.131318 0.97819
vt -0.615816 -2.24515
vt -0.491236 -2.33619
vt -0.496906 -2.3678
vt -0.61781 -2.27074
vt -0.639173 -2.23842
vt -0.646647 -2.22263
vt -0.381323 1.12906
vt -2.53367 0.145895
vt -2.55053 0.0926573
vt -2.57009 0.0309066
vt 0.785013 0.386857
vt 0.747061 0.370238
vt 0.758805 0.369732
vt 0.7558 0.3999
vt 0.747061 0.370238
vt 0.782723 0.410323
vt 0.7558 0.3999
vt 0.785013 0.386857
vt 0.7558 0.3999
vt 0.782723 0.410323
vt 0.773439 0.425883
vt 0.773439 0.425883
vt 0.7536 0.4167
vt 0.7558 0.3999
vt 0.764902 0.428304
vt 0.764902 0.428304
vt -0.377671 0.669291
vt -0.435731 1.14164
vt -0.604062 0.778494
vt -0.498839 1.15624
vt -0.706169 0.977226
vt -0.471407 0.677808
vt 0.7536 0.4167
vt -0.652378 -2.21844
vt -0.497418 -2.37065
vt -2.33623 0.77682
vt -2.33369 0.775422
vt -2.35431 0.765543
vt -2.30556 0.759934
vt -2.39767 0.688905
vt -2.39383 0.651221
vt -2.41556 0.655917
vt -2.41625 0.656067
vt -2.48208 0.308753
vn 0.789907 -0.294786 0.537725
vn 0.789907 -0.294786 0.537725
vn 0.789907 -0.294786 0.537725
vn 0.960847 -0.122365 0.248594
vn 0.960905 -0.122057 0.248524
vn 0.960841 -0.122401 0.248602
vn -0.644496 0.735389 -0.209352
vn -0.644496 0.735389 -0.209352
vn -0.644496 0.735389 -0.209352
vn -0.644496 0.735389 -0.209352
vn -0.644496 0.735389 -0.209352
vn 0.75216 -0.348143 0.559511
vn 0.75216 -0.348143 0.559511
vn 0.75216 -0.348143 0.559511
vn 0.75216 -0.348143 0.559511
vn 0.75216 -0.348143 0.559511
vn 0.535605 -0.540356 0.648955
vn 0.535605 -0.540356 0.648955
vn 0.535605 -0.540356 0.648955
vn 0.535605 -0.540356 0.648955
vn 0.199294 -0.865016 0.460467
vn 0.199294 -0.865016 0.460467
vn 0.199294 -0.865016 0.460467
vn 0.199294 -0.865016 0.460467
vn 0.199294 -0.865016 0.460467
vn -0.999384 0.0124011 0.032832
vn -0.999384 0.0124011 0.032832
vn -0.999384 0.0124011 0.032832
vn -0.999384 0.0124011 0.032832
vn -0.999384 0.0124011 0.032832
vn -0.999384 0.0124011 0.032832
vn -0.644496 0.735389 -0.209352
vn -0.644496 0.735389 -0.209352
vn -0.644496 0.735389 -0.209352
vn -0.644496 0.735389 -0.209352
vn -0.644496 0.735389 -0.209352
vn -0.377914 0.3882 0.840524
vn -0.377914 0.3882 0.840524
vn -0.377914 0.3882 0.840524
vn -0.377914 0.3882 0.840524
vn -0.377914 0.3882 0.840524
vn -0.377914 0.3882 0.840524
vn -0.644496 0.735389 -0.209352
vn -0.999384 0.0124011 0.032832
vn -0.999384 0.0124011 0.032832
vn -0.999384 0.0124011 0.032832
vn 0.261701 -0.946699 -0.187812
vn 0.261701 -0.946699 -0.187812
vn 0.261701 -0.946699 -0.187812
vn 0.261701 -0.946699 -0.187812
vn 0.199294 -0.865016 0.460467
vn 0.795517 -0.507361 -0.331267
vn 0.795517 -0.507361 -0.331267
vn 0.795517 -0.507361 -0.331267
vn 0.92535 -0.329065 -0.188263
vn 0.92535 -0.329065 -0.188263
vn 0.92535 -0.329065 -0.188263
vn 0.969516 -0.215335 0.116922
vn 0.969516 -0.215335 0.116922
vn 0.969516 -0.215335 0.116922
vn 0.969516 -0.215335 0.116922
vn 0.96083 -0.122457 0.248615
vn -0.644496 0.735389 -0.209352
vn -0.644496 0.735389 -0.209352
vn -0.644496 0.735389 -0.209352
vn -0.644496 0.735389 -0.209352
vn -0.644496 0.735389 -0.209352
vn -0.644496 0.735389 -0.209352
vn 0.75216 -0.348143 0.559511
vn -0.377914 0.3882 0.840524
vn -0.377914 0.3882 0.840524
vn -0.812837 0.153703 0.561846
vn -0.812837 0.153703 0.561846
vn -0.812837 0.153703 0.561846
vn -0.812837 0.153703 0.561846
vn -0.812837 0.153703 0.561846
vn -0.812837 0.153703 0.561846
vn -0.812837 0.153703 0.561846
vn -0.812837 0.153703 0.561846
vn -0.999384 0.0124011 0.032832
f 1/1/1 2/2/2 3/3/3 
f 4/4/4 5/5/5 6/6/6 
f 7/7/7 8/8/8 9/9/9 
f 10/10/10 7/7/7 9/9/9 
f 11/11/11 7/7/7 10/10/10 
f 12/12/12 13/13/13 14/14/14 
f 15/15/15 13/13/13 12/12/12 
f 13/13/13 15/15/15 16/16/16 
f 17/17/17 18/18/18 19/19/19 
f 20/20/20 18/18/18 17/17/17 
f 21/21/21 22/22/22 23/23/23 
f 24/24/24 22/22/22 21/21/21 
f 22/22/22 24/24/24 25/25/25 
f 26/26/26 27/27/27 28/28/28 
f 26/26/26 28/28/28 29/29/29 
f 29/29/29 30/30/30 26/26/26 
f 29/29/29 31/31/31 30/30/30 
f 32/32/32 33/33/33 34/34/34 
f 35/35/35 33/33/33 32/32/32 
f 36/36/36 33/33/33 35/35/35 
f 37/37/37 38/38/38 39/39/39 
f 37/37/37 39/39/39 40/40/40 
f 41/41/41 37/37/37 40/40/40 
f 42/42/42 37/37/37 41/41/41 
f 10/10/10 9/9/9 33/33/33 
f 34/34/34 33/33/33 9/9/9 
f 34/34/34 9/9/9 43/43/43 
f 30/30/30 31/31/31 44/44/44 
f 30/30/30 44/44/44 45/45/45 
f 30/30/30 45/45/45 46/46/46 
f 47/47/47 48/48/48 49/49/49 
f 50/50/50 48/48/48 47/47/47 
f 51/51/51 23/23/23 22/22/22 
f 52/52/52 53/53/53 54/54/54 
f 55/55/55 56/56/56 57/57/57 
f 58/58/58 59/59/59 60/60/60 
f 61/61/61 59/59/59 58/58/58 
f 6/6/6 5/5/5 62/62/62 
f 43/43/43 9/9/9 63/63/63 
f 43/43/43 63/63/63 64/64/64 
f 64/64/64 63/63/63 65/65/65 
f 65/65/65 66/66/66 64/64/64 
f 67/67/67 66/66/66 65/65/65 
f 63/63/63 68/68/68 65/65/65 
f 69/69/69 14/14/14 13/13/13 
f 42/42/42 41/41/41 70/70/70 
f 40/40/40 39/39/39 71/71/71 
f 72/72/72 73/73/73 74/74/74 
f 73/73/73 75/75/75 74/74/74 
f 74/74/74 75/75/75 76/76/76 
f 77/77/77 76/76/76 75/75/75 
f 76/76/76 77/77/77 78/78/78 
f 79/79/79 76/76/76 78/78/78 
f 29/29/29 28/28/28 80/80/80 
