v -1.18997 0.940199 -0.632995
v -1.15902 0.954168 -0.669458
v -1.20557 0.919266 -0.626372
v -1.18997 0.940199 -0.632995
v -1.14978 0.954015 -0.674124
v -1.15902 0.954168 -0.669458
v -1.18937 0.939464 -0.632255
v -0.856574 0.750622 -0.536803
v -0.857409 0.750778 -0.536586
v -1.17358 0.920139 -0.612819
v -0.857409 0.750778 -0.536586
v -1.17358 0.920139 -0.612819
v -0.853304 0.746405 -0.536302
v -0.853305 0.746405 -0.536302
v -0.856574 0.750622 -0.536803
v -0.857409 0.750778 -0.536586
v -0.854345 0.750205 -0.537383
v -0.854062 0.750152 -0.537457
v -1.14046 0.953861 -0.678834
v -0.854345 0.750205 -0.537383
v -0.854062 0.750152 -0.537457
v -1.14046 0.953861 -0.678834
v -1.23305 0.76768 -0.686932
v -1.14978 0.954015 -0.674124
v -0.927666 0.905532 -0.79948
v -0.972289 0.951083 -0.763824
v -0.927666 0.905532 -0.79948
v -0.97229 0.951083 -0.763824
v -0.850133 0.861906 -0.70023
v -0.82103 0.840659 -0.685079
v -0.682876 0.703982 -0.775738
v -0.680764 0.738262 -0.612057
v -0.675278 0.703946 -0.746769
v -0.678132 0.73634 -0.610687
v -0.678132 0.73634 -0.610687
v -0.665098 0.686361 -0.575945
v -0.675278 0.703946 -0.746769
v -0.672453 0.716181 -0.584704
v -0.678132 0.73634 -0.610687
v -0.673958 0.716462 -0.584313
v -0.672453 0.716181 -0.584704
v -0.680764 0.738262 -0.612057
v -0.820694 0.74391 -0.546138
v -0.845573 0.748564 -0.539665
v -0.82103 0.840659 -0.685079
v -0.846502 0.748738 -0.539424
v -0.847501 0.748925 -0.539164
v -0.850133 0.861906 -0.70023
v -0.972289 0.951083 -0.763824
v -0.847501 0.748924 -0.539164
v -0.852947 0.746025 -0.536277
v -0.846502 0.748738 -0.539424
v -0.845573 0.748564 -0.539666
v -0.820694 0.74391 -0.546138
v -0.79213 0.681238 -0.532059
v -0.673958 0.716462 -0.584313
v -0.781374 0.66978 -0.531313
v -0.665098 0.68636 -0.575945
v -0.689464 0.571872 -0.524938
v -0.781374 0.66978 -0.531313
v -1.23452 0.80979 -0.673883
v -0.689464 0.571872 -0.524938
v -0.792129 0.681238 -0.532059
v -0.852947 0.746025 -0.536277
v -1.20557 0.919266 -0.626372
v -1.23452 0.80979 -0.673884
v -1.15902 0.954168 -0.669458
v -1.23452 0.80979 -0.673884
v -1.23305 0.76768 -0.686932
v -0.775285 0.453024 -0.599081
v -0.829418 0.378058 -0.645849
v -0.775285 0.453024 -0.599081
v -0.829418 0.378058 -0.645849
v -0.791564 0.385247 -0.658601
v -0.710629 0.464766 -0.621402
v -0.773122 0.456019 -0.597213
v -0.773122 0.456019 -0.597213
v -0.689464 0.571872 -0.524938
v -0.689394 0.571882 -0.524965
v -0.668143 0.574921 -0.533125
v -0.656188 0.576631 -0.537716
v -0.668143 0.574921 -0.533125
v -0.656188 0.576631 -0.537716
v -0.648722 0.619959 -0.55644
v -0.648722 0.619959 -0.55644
v -0.631444 0.542565 -0.585008
v -0.638655 0.579139 -0.544449
v -0.638655 0.579139 -0.544449
v -0.631444 0.542565 -0.585008
v -0.638655 0.579139 -0.544449
v -0.631444 0.542565 -0.585008
v -0.710629 0.464766 -0.621402
v -0.67494 0.700109 -0.76289
v -0.67494 0.700109 -0.76289
v -0.67494 0.700109 -0.762889
v -0.682876 0.703982 -0.775737
v -0.702113 0.713371 -0.806881
v -0.702113 0.713371 -0.806881
v -0.835241 0.81439 -0.858792
v -0.835241 0.81439 -0.858792
v -1.14117 0.172881 -0.841709
v -0.927666 0.905532 -0.799481
v -1.14117 0.172881 -0.841709
v -0.835241 0.81439 -0.858792
v -1.13992 0.170079 -0.842103
v -1.12032 0.150101 -0.840448
v -1.14117 0.172881 -0.841709
v -1.13992 0.170079 -0.842102
v -1.09099 0.137085 -0.832504
v -1.11409 0.143634 -0.839965
v -1.09301 0.135594 -0.833827
v -1.09302 0.142936 -0.839624
v -1.09099 0.137085 -0.832504
v -1.09301 0.135594 -0.833827
v -1.00648 0.199314 -0.777268
v -0.978907 0.348228 -0.860632
v -0.993679 0.208743 -0.768898
v -0.974299 0.223014 -0.756231
v -0.954737 0.237419 -0.743444
v -0.954737 0.237419 -0.743444
v -0.974299 0.223014 -0.756231
v -0.903989 0.274789 -0.710274
v -0.832595 0.373659 -0.648594
v -0.832595 0.373659 -0.648594
v -0.796331 0.380563 -0.660792
v -0.702975 0.713791 -0.808275
v -0.791564 0.385247 -0.658601
v -0.796331 0.380563 -0.660792
v -0.702975 0.713791 -0.808275
v -0.834864 0.814052 -0.85888
v -0.834864 0.814052 -0.85888
v -0.75164 0.739444 -0.878426
v -1.13905 0.168123 -0.842377
v -1.13905 0.168123 -0.842376
v -1.13905 0.168123 -0.842377
v -0.978907 0.348228 -0.860632
v -1.12032 0.150101 -0.840448
v -0.75146 0.739282 -0.878468
v -0.978907 0.348228 -0.860632
v -0.75164 0.739444 -0.878426
v -0.737656 0.730717 -0.864423
v -0.75146 0.739282 -0.878468
v -0.737656 0.730717 -0.864422
v -0.746982 0.735268 -0.87952
v -0.746982 0.735268 -0.87952
v -0.746982 0.735268 -0.87952
v -0.830158 0.347328 -0.67634
v -0.903989 0.274789 -0.710274
v -0.903989 0.274789 -0.710274
v -0.830158 0.347328 -0.67634
v -1.09302 0.142936 -0.839624
v -1.11409 0.143634 -0.839965
v -1.09677 0.13665 -0.839293
v -1.10083 0.12984 -0.838934
v -1.09666 0.132908 -0.836211
v -1.10083 0.12984 -0.838934
v -1.09666 0.132908 -0.836211
v -1.09677 0.13665 -0.839293
v -1.10083 0.12984 -0.838934
v -1.23305 0.76768 -0.686932
v -0.993679 0.208743 -0.768898
v -1.00648 0.199314 -0.777268
v -1.18937 0.939463 -0.632255
v -1.20557 0.919266 -0.626372
v -1.17358 0.920139 -0.612819
v -1.18997 0.940199 -0.632995
v -0.672453 0.716181 -0.584704
vt 0.230452 0.455442
vt 0.225716 0.45837
vt 0.231692 0.452962
vt 1.25783 1.05649
vt 1.21585 1.09814
vt 1.2255 1.0944
vt 1.2572 1.05546
vt 0.909555 0.869275
vt 0.910427 0.869186
vt 1.24071 1.02847
vt 0.671253 -0.997573
vt 0.848049 -1.31883
vt 0.666688 -0.993672
vt 0.744316 0.887234
vt 0.747738 0.891358
vt 0.748612 0.891428
vt 0.745405 0.891172
vt 0.745109 0.891148
vt 1.20611 1.10192
vt 0.907226 0.869513
vt 0.906931 0.869543
vt 0.223503 0.459052
vt 0.226081 0.439748
vt 0.224615 0.458709
vt 0.1961 0.463074
vt 0.203444 0.46523
vt -0.772934 1.29301
vt -0.736776 1.3565
vt -0.672287 1.20563
vt -0.656923 1.16969
vt -0.748857 0.97595
vt -0.582874 0.996457
vt -0.719481 0.970122
vt -0.581484 0.993206
vt -0.627159 0.872536
vt -0.592396 0.820898
vt -0.763322 0.840354
vt -0.601161 0.851611
vt 0.723147 0.921778
vt 0.718787 0.888776
vt 0.717214 0.888937
vt 0.725897 0.924
vt 0.872073 0.873106
vt 0.898063 0.870449
vt 0.872424 1.04241
vt 0.899033 0.87035
vt 0.900077 0.870243
vt 0.902826 1.06698
vt 1.03043 1.17011
vt 0.738241 0.890598
vt 0.743942 0.886869
vt 0.737196 0.890515
vt 0.736223 0.890437
vt 0.710181 0.888354
vt 0.680282 0.82473
vt 0.556587 0.876066
vt 0.669023 0.81374
vt 0.547313 0.844943
vt 0.572818 0.719833
vt 0.586699 -0.92532
vt 0.732856 -1.39851
vt 0.484493 -0.837982
vt 0.59866 -0.935541
vt 0.666291 -0.993333
vt 0.847138 -1.35356
vt 0.228154 0.44326
vt 0.225716 0.45837
vt 0.228154 0.44326
vt 0.688896 -1.40215
vt 0.360427 -0.945662
vt 0.282169 -1.01358
vt 0.467135 -0.105105
vt 0.524898 -0.191136
vt 0.484506 -0.195104
vt 0.398146 -0.112646
vt 0.464828 -0.101669
vt 0.363553 -0.942949
vt 0.375562 0.0312816
vt 0.375487 0.0312696
vt 0.352811 0.0276289
vt 0.340055 0.0255807
vt 0.5505 0.725564
vt 0.537986 0.728778
vt 0.530172 0.775921
vt -0.57288 0.75251
vt -0.601465 0.673218
vt -0.560882 0.710469
vt 0.321346 0.0225769
vt 0.313653 -0.0319705
vt 0.519634 0.733491
vt 0.431621 0.852052
vt 0.344767 0.93018
vt 0.607501 1.01764
vt -0.779451 0.836542
vt -0.735828 0.967388
vt 0.611825 1.03262
vt 0.622306 1.06893
vt -0.780438 0.996704
vt -0.833079 1.16359
vt 0.18201 0.456771
vt 0.193036 0.382774
vt 0.1961 0.463074
vt 0.193036 0.382774
vt 0.18201 0.456771
vt 0.192725 0.382697
vt 0.0442054 -1.35685
vt 0.0679848 -1.37659
vt 0.0650598 -1.37559
vt 0.0306172 -1.32671
vt 0.0374537 -1.35091
vt 0.0290606 -1.32909
vt -0.0145194 1.34046
vt -0.0210514 1.33365
vt -0.0227162 1.33595
vt 0.0484199 1.23753
vt 0.214666 1.28495
vt 0.0589465 1.22297
vt 0.0748782 1.20093
vt 0.0909604 1.17868
vt 0.135356 -1.16673
vt 0.120318 -1.1897
vt 0.174367 -1.10715
vt 0.277577 -1.01757
vt 0.528288 -0.196184
vt 0.489593 -0.199961
vt 0.622775 1.07055
vt 0.255993 1.01003
vt 0.250764 1.01474
vt -0.781852 0.997633
vt -0.833169 1.16309
vt 0.181941 0.456783
vt 0.166683 0.45952
vt 0.192508 0.382644
vt 0.0630183 -1.37489
vt 0.192508 0.382644
vt 0.179074 0.410508
vt 0.190224 0.380963
vt 0.16665 0.459525
vt 0.179074 0.410508
vt -0.85299 1.05136
vt -0.838789 1.03505
vt -0.853033 1.05112
vt 0.641671 1.13601
vt 0.646752 1.15361
vt -0.854099 1.04511
vt 0.165829 0.459673
vt 0.213661 1.04811
vt 0.13268 1.12096
vt 0.604468 -0.309645
vt 0.525688 -0.234424
vt 0.187244 0.380927
vt 0.189682 0.38037
vt 0.18786 0.380052
vt 0.188527 0.379105
vt 0.0262566 -1.33337
vt 0.0230543 -1.33826
vt -0.0257147 1.3401
vt -0.0215367 1.34256
vt -0.0291394 1.34484
vt 0.226081 0.439748
vt 0.105421 -1.21246
vt 0.0955779 -1.22749
vt 1.12276 1.13219
vt 1.14004 1.11203
vt 1.10593 1.10542
vt 1.1234 1.13321
vt 0.555012 0.87594
vn -0.765778 0.415516 -0.490848
vn -0.765778 0.415516 -0.490848
vn -0.765778 0.415516 -0.490847
vn 0.289198 0.785904 0.546552
vn 0.289198 0.785904 0.546552
vn 0.289198 0.785904 0.546552
vn 0.289198 0.785904 0.546552
vn 0.289198 0.785904 0.546552
vn 0.289198 0.785904 0.546552
vn 0.289198 0.785904 0.546552
vn -0.367052 -0.286954 0.884833
vn -0.367052 -0.286954 0.884833
vn -0.367052 -0.286954 0.884833
vn 0.29548 0.335614 0.894458
vn 0.29548 0.335614 0.894458
vn 0.29548 0.335614 0.894458
vn 0.29548 0.335614 0.894458
vn 0.29548 0.335614 0.894458
vn 0.289198 0.785904 0.546552
vn 0.289198 0.785904 0.546552
vn 0.289198 0.785904 0.546552
vn -0.433043 0.252987 -0.865142
vn -0.433043 0.252987 -0.865142
vn -0.433043 0.252987 -0.865142
vn -0.433043 0.252987 -0.865142
vn -0.433043 0.252987 -0.865142
vn 0.636357 0.753326 -0.16598
vn 0.636357 0.753326 -0.16598
vn 0.636357 0.753326 -0.16598
vn 0.636357 0.753326 -0.16598
vn 0.636357 0.753326 -0.16598
vn 0.636357 0.753326 -0.16598
vn 0.636357 0.753326 -0.16598
vn 0.636357 0.753326 -0.16598
vn 0.972634 0.229798 -0.0343046
vn 0.972634 0.229798 -0.0343046
vn 0.972634 0.229798 -0.0343046
vn 0.972634 0.229798 -0.0343046
vn 0.289198 0.785904 0.546552
vn 0.289198 0.785904 0.546552
vn 0.289198 0.785904 0.546552
vn 0.289198 0.785904 0.546552
vn 0.289198 0.785904 0.546552
vn 0.289198 0.785904 0.546552
vn 0.289198 0.785904 0.546552
vn 0.289198 0.785904 0.546552
vn 0.289198 0.785904 0.546552
vn 0.289198 0.785904 0.546552
vn 0.289198 0.785904 0.546552
vn 0.29548 0.335614 0.894458
vn 0.29548 0.335614 0.894458
vn 0.29548 0.335614 0.894458
vn 0.29548 0.335614 0.894458
vn 0.29548 0.335614 0.894458
vn 0.29548 0.335614 0.894458
vn 0.29548 0.335614 0.894458
vn 0.29548 0.335614 0.894458
vn 0.29548 0.335614 0.894458
vn 0.29548 0.335614 0.894458
vn -0.367052 -0.286954 0.884833
vn -0.367052 -0.286954 0.884833
vn -0.367052 -0.286954 0.884833
vn -0.367052 -0.286954 0.884833
vn -0.367052 -0.286954 0.884833
vn -0.367052 -0.286954 0.884833
vn -0.765777 0.41552 -0.490845
vn -0.433043 0.252987 -0.865142
vn -0.433043 0.252987 -0.865142
vn -0.367052 -0.286954 0.884833
vn -0.367052 -0.286954 0.884833
vn -0.367052 -0.286954 0.884833
vn 0.348857 -0.66431 0.661053
vn 0.348857 -0.66431 0.661053
vn 0.348857 -0.66431 0.661053
vn 0.348857 -0.66431 0.661053
vn 0.348857 -0.66431 0.661053
vn -0.367052 -0.286954 0.884833
vn 0.348857 -0.66431 0.661053
vn 0.348857 -0.66431 0.661053
vn 0.348857 -0.66431 0.661053
vn 0.348857 -0.66431 0.661053
vn 0.29548 0.335614 0.894458
vn 0.29548 0.335614 0.894458
vn 0.29548 0.335614 0.894458
vn 0.972634 0.229798 -0.0343046
vn 0.972634 0.229798 -0.0343046
vn 0.972634 0.229798 -0.0343046
vn 0.348857 -0.66431 0.661053
vn 0.348857 -0.66431 0.661053
vn 0.29548 0.335614 0.894458
vn 0.695966 -0.444562 -0.563911
vn 0.695966 -0.444562 -0.563911
vn 0.695966 -0.444562 -0.563911
vn 0.972634 0.229798 -0.0343046
vn 0.636357 0.753326 -0.16598
vn 0.695966 -0.444562 -0.563911
vn 0.695966 -0.444562 -0.563911
vn 0.636357 0.753326 -0.16598
vn 0.636357 0.753326 -0.16598
vn -0.407582 0.170481 -0.897114
vn -0.407582 0.170481 -0.897114
vn -0.407582 0.170481 -0.897114
vn -0.178032 0.0587443 -0.98227
vn -0.178032 0.0587443 -0.98227
vn -0.178032 0.0587443 -0.98227
vn -0.367052 -0.286954 0.884833
vn -0.367052 -0.286954 0.884833
vn -0.367052 -0.286954 0.884833
vn -0.367052 -0.286954 0.884833
vn -0.367052 -0.286954 0.884833
vn -0.367052 -0.286954 0.884833
vn 0.695966 -0.444562 -0.563911
vn 0.695966 -0.444562 -0.563911
vn 0.695966 -0.444562 -0.563911
vn 0.695966 -0.444562 -0.563911
vn 0.695966 -0.444562 -0.563911
vn 0.695966 -0.444562 -0.563911
vn 0.695966 -0.444562 -0.563911
vn 0.695966 -0.444562 -0.563911
vn -0.367052 -0.286954 0.884833
vn -0.367052 -0.286954 0.884833
vn -0.367052 -0.286954 0.884833
vn -0.367052 -0.286954 0.884833
vn 0.348857 -0.66431 0.661053
vn 0.348857 -0.66431 0.661053
vn 0.695966 -0.444562 -0.563911
vn 0.695966 -0.444562 -0.563911
vn 0.695966 -0.444562 -0.563911
vn 0.636357 0.753326 -0.16598
vn 0.636357 0.753326 -0.16598
vn -0.178032 0.0587443 -0.98227
vn -0.178032 0.0587443 -0.98227
vn -0.178032 0.0587443 -0.98227
vn -0.367052 -0.286954 0.884833
vn 0.00842847 -0.0826033 -0.996547
vn 0.00662133 -0.0894212 -0.995972
vn 0.00853505 -0.0822011 -0.996579
vn -0.178032 0.0587443 -0.98227
vn -0.178032 0.0587443 -0.98227
vn 0.636357 0.753326 -0.16598
vn 0.636357 0.753326 -0.16598
vn 0.636357 0.753326 -0.16598
vn 0.695966 -0.444562 -0.563911
vn 0.695966 -0.444562 -0.563911
vn 0.636357 0.753326 -0.16598
vn -0.178032 0.0587443 -0.98227
vn 0.695966 -0.444562 -0.563911
vn 0.695966 -0.444562 -0.563911
vn 0.348857 -0.66431 0.661053
vn 0.348857 -0.66431 0.661053
vn 0.00853505 -0.0822011 -0.996579
vn 0.00873239 -0.0814562 -0.996639
vn 0.00883177 -0.081081 -0.996668
vn 0.00915325 -0.0798673 -0.996764
vn -0.367052 -0.286954 0.884833
vn -0.367052 -0.286954 0.884833
vn 0.695966 -0.444562 -0.563911
vn 0.695966 -0.444562 -0.563911
vn 0.695966 -0.444562 -0.563911
vn -0.407582 0.170481 -0.897114
vn -0.367052 -0.286954 0.884833
vn -0.367052 -0.286954 0.884833
vn -0.347664 0.508407 0.787814
vn -0.347664 0.508407 0.787814
vn -0.347664 0.508407 0.787814
vn -0.347664 0.508407 0.787814
vn 0.29548 0.335614 0.894458
f 1/1/1 2/2/2 3/3/3 
f 4/4/4 5/5/5 6/6/6 
f 7/7/7 5/5/5 4/4/4 
f 7/7/7 8/8/8 5/5/5 
f 7/7/7 9/9/9 8/8/8 
f 10/10/10 9/9/9 7/7/7 
f 11/11/11 12/12/12 13/13/13 
f 14/14/14 15/15/15 16/16/16 
f 14/14/14 17/17/17 15/15/15 
f 17/17/17 14/14/14 18/18/18 
f 19/19/19 20/20/20 21/21/21 
f 5/5/5 20/20/20 19/19/19 
f 5/5/5 8/8/8 20/20/20 
f 22/22/22 23/23/23 24/24/24 
f 22/22/22 25/25/25 23/23/23 
f 26/26/26 25/25/25 22/22/22 
f 27/27/27 28/28/28 29/29/29 
f 27/27/27 29/29/29 30/30/30 
f 30/30/30 31/31/31 27/27/27 
f 32/32/32 31/31/31 30/30/30 
f 32/32/32 33/33/33 31/31/31 
f 34/34/34 33/33/33 32/32/32 
f 35/35/35 36/36/36 37/37/37 
f 35/35/35 38/38/38 36/36/36 
f 39/39/39 40/40/40 41/41/41 
f 42/42/42 40/40/40 39/39/39 
f 42/42/42 43/43/43 40/40/40 
f 42/42/42 44/44/44 43/43/43 
f 45/45/45 44/44/44 42/42/42 
f 45/45/45 46/46/46 44/44/44 
f 45/45/45 47/47/47 46/46/46 
f 48/48/48 47/47/47 45/45/45 
f 48/48/48 21/21/21 47/47/47 
f 19/19/19 21/21/21 48/48/48 
f 49/49/49 19/19/19 48/48/48 
f 18/18/18 14/14/14 50/50/50 
f 50/50/50 14/14/14 51/51/51 
f 50/50/50 51/51/51 52/52/52 
f 52/52/52 51/51/51 53/53/53 
f 53/53/53 51/51/51 54/54/54 
f 54/54/54 51/51/51 55/55/55 
f 54/54/54 55/55/55 56/56/56 
f 56/56/56 55/55/55 57/57/57 
f 57/57/57 58/58/58 56/56/56 
f 57/57/57 59/59/59 58/58/58 
f 60/60/60 61/61/61 62/62/62 
f 63/63/63 61/61/61 60/60/60 
f 64/64/64 61/61/61 63/63/63 
f 13/13/13 61/61/61 64/64/64 
f 13/13/13 12/12/12 61/61/61 
f 65/65/65 61/61/61 12/12/12 
f 3/3/3 2/2/2 66/66/66 
f 67/67/67 23/23/23 68/68/68 
f 24/24/24 23/23/23 67/67/67 
f 69/69/69 70/70/70 61/61/61 
f 70/70/70 69/69/69 71/71/71 
f 72/72/72 73/73/73 74/74/74 
f 72/72/72 74/74/74 75/75/75 
f 76/76/76 72/72/72 75/75/75 
f 61/61/61 70/70/70 77/77/77 
f 62/62/62 61/61/61 77/77/77 
f 78/78/78 76/76/76 79/79/79 
f 79/79/79 76/76/76 80/80/80 
f 80/80/80 76/76/76 81/81/81 
f 82/82/82 83/83/83 84/84/84 
f 82/82/82 84/84/84 59/59/59 
f 59/59/59 84/84/84 58/58/58 
f 37/37/37 36/36/36 85/85/85 
f 85/85/85 86/86/86 37/37/37 
f 87/87/87 86/86/86 85/85/85 
f 88/88/88 75/75/75 89/89/89 
f 81/81/81 75/75/75 88/88/88 
f 81/81/81 76/76/76 75/75/75 
f 84/84/84 83/83/83 90/90/90 
f 91/91/91 92/92/92 93/93/93 
f 37/37/37 86/86/86 94/94/94 
f 31/31/31 33/33/33 95/95/95 
f 93/93/93 92/92/92 96/96/96 
f 96/96/96 92/92/92 97/97/97 
f 31/31/31 98/98/98 99/99/99 
f 31/31/31 99/99/99 27/27/27 
f 100/100/100 101/101/101 102/102/102 
f 103/103/103 104/104/104 105/105/105 
f 106/106/106 107/107/107 108/108/108 
f 106/106/106 109/109/109 107/107/107 
f 109/109/109 106/106/106 110/110/110 
f 109/109/109 110/110/110 111/111/111 
f 112/112/112 113/113/113 114/114/114 
f 112/112/112 115/115/115 113/113/113 
f 116/116/116 115/115/115 112/112/112 
f 116/116/116 117/117/117 115/115/115 
f 116/116/116 118/118/118 117/117/117 
f 118/118/118 116/116/116 119/119/119 
f 120/120/120 69/69/69 121/121/121 
f 122/122/122 69/69/69 120/120/120 
f 123/123/123 69/69/69 122/122/122 
f 71/71/71 69/69/69 123/123/123 
f 73/73/73 124/124/124 125/125/125 
f 74/74/74 73/73/73 125/125/125 
f 126/126/126 127/127/127 128/128/128 
f 97/97/97 127/127/127 126/126/126 
f 97/97/97 92/92/92 127/127/127 
f 98/98/98 129/129/129 130/130/130 
f 98/98/98 130/130/130 99/99/99 
f 105/105/105 104/104/104 131/131/131 
f 105/105/105 131/131/131 132/132/132 
f 105/105/105 132/132/132 133/133/133 
f 106/106/106 108/108/108 134/134/134 
f 135/135/135 136/136/136 137/137/137 
f 133/133/133 138/138/138 139/139/139 
f 133/133/133 132/132/132 138/138/138 
f 140/140/140 141/141/141 142/142/142 
f 140/140/140 130/130/130 141/141/141 
f 130/130/130 129/129/129 141/141/141 
f 126/126/126 128/128/128 143/143/143 
f 143/143/143 128/128/128 116/116/116 
f 143/143/143 116/116/116 144/144/144 
f 142/142/142 141/141/141 145/145/145 
f 139/139/139 138/138/138 146/146/146 
f 147/147/147 116/116/116 128/128/128 
f 147/147/147 119/119/119 116/116/116 
f 148/148/148 119/119/119 147/147/147 
f 124/124/124 149/149/149 150/150/150 
f 125/125/125 124/124/124 150/150/150 
f 137/137/137 136/136/136 151/151/151 
f 137/137/137 151/151/151 152/152/152 
f 152/152/152 151/151/151 153/153/153 
f 152/152/152 153/153/153 154/154/154 
f 155/155/155 110/110/110 156/156/156 
f 111/111/111 110/110/110 155/155/155 
f 157/157/157 158/158/158 114/114/114 
f 159/159/159 158/158/158 157/157/157 
f 114/114/114 158/158/158 112/112/112 
f 69/69/69 107/107/107 121/121/121 
f 102/102/102 101/101/101 160/160/160 
f 107/107/107 161/161/161 121/121/121 
f 161/161/161 107/107/107 162/162/162 
f 107/107/107 109/109/109 162/162/162 
f 163/163/163 164/164/164 165/165/165 
f 166/166/166 164/164/164 163/163/163 
f 58/58/58 167/167/167 56/56/56 
