v -0.7459 -1.9945 -0.9738
v -0.65477 -1.99982 -0.898822
v -0.8696 -2.0748 -0.6331
v -0.7459 -1.9945 -0.9738
v -0.638586 -1.94687 -0.95048
v -0.65477 -1.99982 -0.898822
v -0.638586 -1.94687 -0.95048
v -0.7459 -1.9945 -0.9738
v -0.638231 -1.94551 -0.950835
v -0.638231 -1.94551 -0.950835
v -0.638192 -1.94524 -0.950371
v -0.638586 -1.94687 -0.95048
v -0.638231 -1.94551 -0.950835
v -0.73955 -1.97609 -0.978059
v -0.638192 -1.94524 -0.950371
v -0.73955 -1.97609 -0.978059
v -0.7459 -1.9945 -0.9738
v -0.764543 -1.97945 -0.977471
v -0.73955 -1.97609 -0.978059
v -0.764543 -1.97945 -0.977471
v -0.7459 -1.9945 -0.9738
v -0.778376 -1.9817 -0.97784
v -1.13005 -1.91903 -0.777863
v -0.764543 -1.97944 -0.977471
v -0.778376 -1.9817 -0.97784
v -1.12992 -1.91878 -0.777448
v -0.637816 -1.94258 -0.945832
v -0.63781 -1.94254 -0.945761
v -1.12858 -1.91624 -0.773363
v -0.637484 -1.94024 -0.941837
v -1.06179 -1.78952 -0.569518
v -0.616658 -1.79336 -0.690975
v -0.614291 -1.77667 -0.662471
v -1.04386 -1.75549 -0.514789
v -0.609987 -1.74632 -0.610621
v -0.609987 -1.74632 -0.610621
v -0.6497 -1.87683 -0.486146
v -0.614291 -1.77667 -0.662471
v -0.609164 -1.74051 -0.600711
v -0.615658 -1.75539 -0.554286
v -0.628552 -1.78492 -0.462112
v -0.6497 -1.87683 -0.486146
v -0.628552 -1.78492 -0.462112
v -0.91742 -1.69719 -0.382291
v -0.960971 -2.07086 -0.487808
v -0.703214 -2.1094 -0.546961
v -0.711609 -2.14589 -0.556502
v -0.712963 -2.15178 -0.558041
v -0.704147 -2.13398 -0.630744
v -0.711609 -2.14589 -0.556502
v -0.712963 -2.15178 -0.558041
v -0.703214 -2.1094 -0.546961
v -0.684078 -2.05436 -0.638567
v -0.616658 -1.79336 -0.690975
v -0.65477 -1.99982 -0.898822
v -0.637484 -1.94024 -0.941837
v -0.637816 -1.94258 -0.945832
v -0.684078 -2.05436 -0.638567
v -0.8696 -2.0748 -0.6331
v -0.684078 -2.05436 -0.638567
v -0.704147 -2.13398 -0.630744
v -0.74077 -2.27928 -0.616468
v -0.8696 -2.0748 -0.6331
v -0.74077 -2.27928 -0.616468
v -0.893298 -2.2021 -0.540139
v -0.953549 -2.08525 -0.493547
v -0.8696 -2.0748 -0.6331
v -0.893298 -2.2021 -0.540139
v -0.960971 -2.07086 -0.487809
v -0.8696 -2.0748 -0.6331
v -0.960971 -2.07086 -0.487808
v -1.02989 -1.87405 -0.415326
v -0.8696 -2.0748 -0.6331
v -1.02989 -1.87405 -0.415326
v -1.06852 -1.84715 -0.45665
v -1.07803 -1.85309 -0.521702
v -1.13032 -1.92779 -0.754139
v -0.8696 -2.0748 -0.6331
v -1.07803 -1.85309 -0.521702
v -1.13032 -1.92779 -0.754139
v -1.0796 -2.0017 -0.8484
v -0.8696 -2.0748 -0.6331
v -1.13619 -1.93492 -0.784015
v -1.13708 -1.93599 -0.788512
v -1.08499 -1.99779 -0.848642
v -1.13728 -1.93624 -0.789535
v -1.08499 -1.99779 -0.848642
v -1.13728 -1.93624 -0.789535
v -1.13627 -1.93333 -0.78939
v -1.08072 -1.99834 -0.852058
v -1.1361 -1.93285 -0.789366
v -1.00401 -1.97759 -0.903857
v -1.13386 -1.92641 -0.789044
v -0.994294 -1.97496 -0.910418
v -1.13371 -1.92597 -0.789022
v -0.994294 -1.97496 -0.910419
v -1.13371 -1.92597 -0.789023
v -1.13208 -1.92288 -0.78405
v -0.994294 -1.97496 -0.910419
v -0.778376 -1.9817 -0.97784
v -1.00401 -1.97759 -0.903858
v -0.7459 -1.9945 -0.9738
v -1.08072 -1.99834 -0.852058
v -1.0796 -2.0017 -0.8484
v -1.08072 -1.99834 -0.852058
v -1.0796 -2.0017 -0.8484
v -1.08499 -1.99779 -0.848642
v -0.8696 -2.0748 -0.6331
v -1.0796 -2.0017 -0.8484
v -0.7459 -1.9945 -0.9738
v -1.13619 -1.93492 -0.784015
v -1.13005 -1.91903 -0.777863
v -1.13208 -1.92288 -0.78405
v -1.13032 -1.92779 -0.754139
v -1.12992 -1.91878 -0.777448
v -1.12858 -1.91624 -0.773363
v -1.06179 -1.78952 -0.569518
v -1.07803 -1.85309 -0.521702
v -1.04386 -1.75549 -0.514789
v -1.06852 -1.84715 -0.45665
v -1.01261 -1.6962 -0.419401
v -1.06023 -1.84197 -0.399996
v -1.04453 -1.79944 -0.389962
v -0.997783 -1.67279 -0.360085
v -0.997616 -1.66774 -0.373628
v -1.01261 -1.6962 -0.419401
v -0.997616 -1.66774 -0.373628
v -0.989475 -1.66927 -0.378387
v -0.750963 -1.71395 -0.517817
v -0.609164 -1.74051 -0.600711
v -0.609164 -1.74051 -0.600711
v -0.750963 -1.71395 -0.517817
v -0.615658 -1.75539 -0.554286
v -0.628552 -1.78492 -0.462112
v -0.91742 -1.69719 -0.382291
v -0.989475 -1.66927 -0.378387
v -0.977395 -1.67898 -0.365718
v -0.983287 -1.67719 -0.36409
v -0.987419 -1.67593 -0.362948
v -0.997616 -1.66774 -0.373628
v -0.997783 -1.67279 -0.360085
v -0.997783 -1.67279 -0.360085
v -1.04453 -1.79944 -0.389961
v -0.987419 -1.67593 -0.362949
v -0.983287 -1.67719 -0.36409
v -1.02989 -1.87405 -0.415326
v -0.977395 -1.67898 -0.365718
v -1.06023 -1.84197 -0.399996
v -1.06023 -1.84197 -0.399996
v -1.13386 -1.92641 -0.789044
v -1.1361 -1.93285 -0.789366
v -1.13627 -1.93333 -0.78939
v -1.13708 -1.93599 -0.788512
v -1.13728 -1.93624 -0.789535
v -1.13371 -1.92597 -0.789023
v -0.953549 -2.08525 -0.493547
v -0.726383 -2.2101 -0.573292
v -0.893298 -2.2021 -0.540139
v -0.747651 -2.30253 -0.597461
v -0.74077 -2.27928 -0.616468
v -0.726383 -2.2101 -0.573292
v -0.747651 -2.30253 -0.597462
v -0.747651 -2.30253 -0.597462
vt 0.1359 0.141
vt 0.130278 0.130839
vt 0.1726 0.1135
vt 0.1359 0.141
vt 0.123596 0.143373
vt 0.130278 0.130839
vt 0.123596 0.143373
vt 0.1359 0.141
vt 0.123545 0.143535
vt -0.940002 -2.04166
vt -0.939537 -2.04138
vt -0.939646 -2.04306
vt 0.787548 1.79245
vt 0.889696 1.83128
vt 0.787509 1.79192
vt 0.135031 0.143159
vt 0.1359 0.141
vt 0.137151 0.143134
vt 0.135031 0.143159
vt 0.137151 0.143134
vt 0.1359 0.141
vt 0.138193 0.143511
vt 1.2834 1.62922
vt 0.914894 1.83244
vt 0.928841 1.83388
vt 1.28326 1.62873
vt 0.78713 1.78666
vt 0.787124 1.78657
vt 1.28191 1.62393
vt 0.786795 1.78203
vt 1.21458 1.38406
vt 0.765798 1.49134
vt 0.763413 1.45831
vt 1.1965 1.31966
vt 0.759073 1.39823
vt -0.599191 -1.84148
vt -0.474497 -1.9777
vt -0.651132 -1.87199
vt -0.589263 -1.83565
vt -0.542757 -1.85164
vt -0.450421 -1.8834
vt 0.653811 -1.9371
vt 0.632338 -1.84217
vt 0.925651 -1.73503
vt 0.969871 -2.12323
vt 0.708148 -2.17731
vt 0.716673 -2.21499
vt 0.718048 -2.22107
vt -0.619349 -2.24042
vt -0.544977 -2.25376
vt -0.546518 -2.2598
vt -0.535419 -2.21633
vt -0.627186 -2.15831
vt -0.679686 -1.88876
vt -0.887898 -2.09835
vt -0.930988 -2.03636
vt -0.93499 -2.03871
vt 0.150768 0.107568
vt 0.1726 0.1135
vt 0.150768 0.107568
vt 0.159001 0.101038
vt 0.174026 0.0891217
vt 0.1726 0.1135
vt 0.174026 0.0891217
vt 0.18348 0.102701
vt 0.192117 0.115443
vt 0.1726 0.1135
vt 0.18348 0.102701
vt 0.193181 0.117013
vt 0.1726 0.1135
vt 0.193181 0.117013
vt 0.207522 0.139236
vt 0.1726 0.1135
vt 0.207522 0.139236
vt 0.203995 0.144174
vt 0.196141 0.144651
vt 0.179239 0.146694
vt 0.1726 0.1135
vt 0.196141 0.144651
vt 0.179239 0.146694
vt 0.1696 0.1465
vt 0.1726 0.1135
vt 0.177465 0.148886
vt 0.177198 0.149215
vt 0.169897 0.147066
vt 0.177137 0.14929
vt -2.26142 0.350079
vt -2.19796 0.42748
vt -2.19497 0.426764
vt -2.26198 0.344612
vt -2.19447 0.426645
vt -2.24059 0.252198
vt -2.18783 0.425057
vt -2.23788 0.240493
vt -2.18738 0.424949
vt 1.14653 1.77204
vt 1.28708 1.64235
vt 1.28544 1.6365
vt 0.159165 0.148738
vt 0.138193 0.143511
vt 0.160323 0.148545
vt 0.1359 0.141
vt 0.169465 0.147014
vt 0.1696 0.1465
vt 0.169465 0.147014
vt 0.1696 0.1465
vt 0.169897 0.147066
vt 0.1726 0.1135
vt 0.1696 0.1465
vt 0.1359 0.141
vt -0.827992 2.19847
vt -0.821803 2.18146
vt -0.828027 2.18575
vt -0.797939 2.18983
vt -0.821386 2.18117
vt -0.817276 2.17833
vt -0.612228 2.03682
vt -0.564129 2.10222
vt -0.557176 1.99883
vt -0.498693 2.09352
vt -0.461225 1.93261
vt -0.441705 2.08595
vt -0.431611 2.04062
vt -0.401558 1.90566
vt -0.415181 1.90083
vt 1.16499 1.20741
vt 1.14988 1.15355
vt 1.14167 1.15844
vt 0.901203 1.30162
vt 0.758243 1.38675
vt 0.0405475 -0.0934778
vt 0.128358 0.0478491
vt 0.0897259 -0.0930839
vt 0.187367 -0.0923019
vt 0.271923 0.208302
vt 0.276058 0.285567
vt 0.289479 0.270713
vt 0.291203 0.276844
vt 0.292413 0.281144
vt 0.2811 0.293681
vt 0.295446 0.29193
vt 1.00725 -1.70522
vt 1.05472 -1.83509
vt 0.996726 -1.70906
vt 0.992531 -1.7106
vt 1.03985 -1.91385
vt 0.986548 -1.71278
vt 1.07066 -1.8787
vt 0.210836 0.143759
vt -0.833051 2.18967
vt -0.833374 2.19649
vt -0.833399 2.197
vt -0.832515 2.19977
vt -0.833545 2.20007
vt -0.833029 2.1892
vt 0.962336 -2.13867
vt 0.731674 -2.28131
vt 0.901158 -2.26401
vt 0.753269 -2.37677
vt -0.605047 -2.39026
vt -0.561796 -2.31964
vt -0.586008 -2.41448
vt 0.176258 0.0872572
vn 0.101825 -0.975893 -0.193039
vn 0.101825 -0.975893 -0.193039
vn 0.101825 -0.975893 -0.193039
vn 0.433001 -0.693741 -0.575529
vn 0.433001 -0.693741 -0.575529
vn 0.433001 -0.693741 -0.575529
vn 0.334811 -0.320475 -0.886114
vn 0.334811 -0.320475 -0.886114
vn 0.334811 -0.320475 -0.886114
vn 0.969335 -0.238512 0.0591761
vn 0.969335 -0.238512 0.0591761
vn 0.969335 -0.238512 0.0591761
vn -0.12716 0.860525 -0.493283
vn -0.12716 0.860525 -0.493283
vn -0.12716 0.860525 -0.493283
vn 0.334811 -0.320475 -0.886114
vn 0.0077022 -0.227902 -0.973654
vn 0.0077022 -0.227902 -0.973654
vn 0.0077022 -0.227902 -0.973654
vn 0.0543224 -0.172571 -0.983498
vn 0.0543224 -0.172571 -0.983498
vn 0.0543224 -0.172571 -0.983498
vn -0.12716 0.860525 -0.493283
vn -0.12716 0.860525 -0.493283
vn -0.12716 0.860525 -0.493283
vn -0.12716 0.860525 -0.493283
vn -0.12716 0.860525 -0.493283
vn -0.12716 0.860525 -0.493283
vn -0.12716 0.860525 -0.493283
vn -0.12716 0.860525 -0.493283
vn -0.12716 0.860525 -0.493283
vn -0.12716 0.860525 -0.493283
vn -0.12716 0.860525 -0.493283
vn -0.12716 0.860525 -0.493283
vn -0.12716 0.860525 -0.493283
vn 0.969335 -0.238512 0.0591761
vn 0.969335 -0.238512 0.0591761
vn 0.969335 -0.238512 0.0591761
vn 0.969335 -0.238512 0.0591761
vn 0.969335 -0.238512 0.0591761
vn 0.969335 -0.238512 0.0591761
vn 0.173433 -0.28631 0.94231
vn 0.173433 -0.28631 0.94231
vn 0.173433 -0.28631 0.94231
vn 0.173433 -0.28631 0.94231
vn 0.173433 -0.28631 0.94231
vn 0.173433 -0.28631 0.94231
vn 0.173433 -0.28631 0.94231
vn 0.969335 -0.238512 0.0591761
vn 0.969335 -0.238512 0.0591761
vn 0.969335 -0.238512 0.0591761
vn 0.969335 -0.238512 0.0591761
vn 0.969335 -0.238512 0.0591761
vn 0.969335 -0.238512 0.0591761
vn 0.969335 -0.238512 0.0591761
vn 0.969335 -0.238512 0.0591761
vn 0.969335 -0.238512 0.0591761
vn 0.101825 -0.975893 -0.193039
vn -0.0190897 -0.0929982 -0.995483
vn -0.0190897 -0.0929982 -0.995483
vn -0.0190897 -0.0929982 -0.995483
vn -0.0190897 -0.0929982 -0.995483
vn -0.566301 -0.414718 -0.712259
vn -0.566301 -0.414718 -0.712259
vn -0.566301 -0.414718 -0.712259
vn -0.828189 -0.221794 -0.514695
vn -0.828144 -0.22176 -0.514782
vn -0.828181 -0.221788 -0.51471
vn -0.82819 -0.221795 -0.514693
vn -0.843423 -0.101024 -0.527667
vn -0.843423 -0.101024 -0.527667
vn -0.843423 -0.101024 -0.527667
vn -0.676099 -0.718225 0.164448
vn -0.676099 -0.718225 0.164448
vn -0.676099 -0.718225 0.164448
vn -0.676099 -0.718225 0.164448
vn -0.580014 -0.728459 0.364598
vn -0.580014 -0.728459 0.364598
vn -0.580014 -0.728459 0.364598
vn -0.569558 -0.767163 0.295066
vn -0.569558 -0.767163 0.295066
vn -0.569558 -0.767163 0.295066
vn -0.569558 -0.767163 0.295066
vn -0.569558 -0.767163 0.295066
vn -0.569558 -0.767163 0.295066
vn -0.569558 -0.767163 0.295066
vn -0.587132 0.242728 -0.772243
vn -0.587132 0.242728 -0.772243
vn -0.587132 0.242728 -0.772243
vn -0.587132 0.242728 -0.772243
vn -0.587132 0.242728 -0.772243
vn -0.587132 0.242728 -0.772243
vn -0.587132 0.242728 -0.772243
vn -0.587132 0.242728 -0.772243
vn -0.587132 0.242728 -0.772243
vn -0.12716 0.860525 -0.493283
vn -0.12716 0.860525 -0.493283
vn -0.12716 0.860525 -0.493283
vn -0.218205 -0.750543 -0.623756
vn -0.218205 -0.750543 -0.623756
vn -0.218205 -0.750543 -0.623756
vn -0.218205 -0.750543 -0.623756
vn -0.218205 -0.750543 -0.623756
vn -0.218205 -0.750543 -0.623756
vn -0.492514 -0.71028 -0.502924
vn -0.492514 -0.71028 -0.502924
vn -0.492514 -0.71028 -0.502924
vn -0.0748006 -0.964199 -0.254412
vn -0.0748006 -0.964199 -0.254412
vn -0.0748006 -0.964199 -0.254412
vn -0.940644 0.321684 0.108207
vn -0.940644 0.321684 0.108207
vn -0.940644 0.321684 0.108207
vn -0.940644 0.321684 0.108207
vn -0.940644 0.321684 0.108207
vn -0.940644 0.321684 0.108207
vn -0.940644 0.321684 0.108207
vn -0.940644 0.321684 0.108207
vn -0.940644 0.321684 0.108207
vn -0.940644 0.321684 0.108207
vn -0.940644 0.321684 0.108207
vn -0.940644 0.321684 0.108207
vn -0.940644 0.321684 0.108207
vn -0.940644 0.321684 0.108207
vn -0.940644 0.321684 0.108207
vn -0.12716 0.860525 -0.493283
vn -0.12716 0.860525 -0.493283
vn -0.12716 0.860525 -0.493283
vn -0.12716 0.860525 -0.493283
vn -0.12716 0.860525 -0.493283
vn 0.356612 0.874056 0.32993
vn 0.356612 0.874056 0.32993
vn 0.356612 0.874056 0.32993
vn 0.356612 0.874056 0.32993
vn 0.356612 0.874056 0.32993
vn 0.356612 0.874056 0.32993
vn 0.356612 0.874056 0.32993
vn 0.356612 0.874056 0.32993
vn 0.356612 0.874056 0.32993
vn 0.356612 0.874056 0.32993
vn 0.356612 0.874056 0.32993
vn 0.173433 -0.28631 0.94231
vn 0.173433 -0.28631 0.94231
vn 0.173433 -0.28631 0.94231
vn 0.173433 -0.28631 0.94231
vn 0.173433 -0.28631 0.94231
vn 0.173433 -0.28631 0.94231
vn 0.173433 -0.28631 0.94231
vn -0.676099 -0.718225 0.164448
vn -0.940644 0.321684 0.108207
vn -0.940644 0.321684 0.108207
vn -0.940644 0.321684 0.108207
vn -0.940644 0.321684 0.108207
vn -0.940644 0.321684 0.108207
vn -0.940644 0.321684 0.108207
vn 0.173433 -0.28631 0.94231
vn 0.173433 -0.28631 0.94231
vn 0.173433 -0.28631 0.94231
vn 0.173433 -0.28631 0.94231
vn 0.969335 -0.238512 0.0591761
vn 0.969335 -0.238512 0.0591761
vn 0.969335 -0.238512 0.0591761
vn -0.566301 -0.414718 -0.712259
f 1/1/1 2/2/2 3/3/3 
f 4/4/4 5/5/5 6/6/6 
f 7/7/7 8/8/8 9/9/9 
f 10/10/10 11/11/11 12/12/12 
f 13/13/13 14/14/14 15/15/15 
f 9/9/9 8/8/8 16/16/16 
f 17/17/17 18/18/18 19/19/19 
f 20/20/20 21/21/21 22/22/22 
f 23/23/23 24/24/24 25/25/25 
f 26/26/26 24/24/24 23/23/23 
f 26/26/26 27/27/27 24/24/24 
f 26/26/26 28/28/28 27/27/27 
f 29/29/29 28/28/28 26/26/26 
f 28/28/28 29/29/29 30/30/30 
f 30/30/30 29/29/29 31/31/31 
f 31/31/31 32/32/32 30/30/30 
f 31/31/31 33/33/33 32/32/32 
f 34/34/34 33/33/33 31/31/31 
f 33/33/33 34/34/34 35/35/35 
f 36/36/36 37/37/37 38/38/38 
f 39/39/39 37/37/37 36/36/36 
f 40/40/40 37/37/37 39/39/39 
f 37/37/37 40/40/40 41/41/41 
f 42/42/42 43/43/43 44/44/44 
f 42/42/42 44/44/44 45/45/45 
f 45/45/45 46/46/46 42/42/42 
f 45/45/45 47/47/47 46/46/46 
f 47/47/47 45/45/45 48/48/48 
f 49/49/49 50/50/50 51/51/51 
f 49/49/49 52/52/52 50/50/50 
f 53/53/53 52/52/52 49/49/49 
f 53/53/53 37/37/37 52/52/52 
f 37/37/37 53/53/53 54/54/54 
f 37/37/37 54/54/54 38/38/38 
f 54/54/54 53/53/53 55/55/55 
f 56/56/56 54/54/54 55/55/55 
f 55/55/55 12/12/12 56/56/56 
f 12/12/12 57/57/57 56/56/56 
f 57/57/57 12/12/12 11/11/11 
f 24/24/24 27/27/27 15/15/15 
f 15/15/15 14/14/14 24/24/24 
f 3/3/3 2/2/2 58/58/58 
f 59/59/59 60/60/60 61/61/61 
f 59/59/59 61/61/61 62/62/62 
f 63/63/63 64/64/64 65/65/65 
f 66/66/66 67/67/67 68/68/68 
f 69/69/69 67/67/67 66/66/66 
f 70/70/70 71/71/71 72/72/72 
f 73/73/73 74/74/74 75/75/75 
f 73/73/73 75/75/75 76/76/76 
f 77/77/77 78/78/78 79/79/79 
f 80/80/80 81/81/81 82/82/82 
f 83/83/83 81/81/81 80/80/80 
f 84/84/84 81/81/81 83/83/83 
f 84/84/84 85/85/85 81/81/81 
f 86/86/86 85/85/85 84/84/84 
f 87/87/87 88/88/88 89/89/89 
f 89/89/89 90/90/90 87/87/87 
f 91/91/91 90/90/90 89/89/89 
f 91/91/91 92/92/92 90/90/90 
f 93/93/93 92/92/92 91/91/91 
f 93/93/93 94/94/94 92/92/92 
f 95/95/95 94/94/94 93/93/93 
f 96/96/96 97/97/97 98/98/98 
f 96/96/96 98/98/98 25/25/25 
f 99/99/99 100/100/100 101/101/101 
f 101/101/101 100/100/100 102/102/102 
f 101/101/101 102/102/102 103/103/103 
f 103/103/103 102/102/102 104/104/104 
f 105/105/105 106/106/106 107/107/107 
f 108/108/108 109/109/109 110/110/110 
f 25/25/25 98/98/98 23/23/23 
f 111/111/111 112/112/112 113/113/113 
f 114/114/114 112/112/112 111/111/111 
f 115/115/115 112/112/112 114/114/114 
f 114/114/114 116/116/116 115/115/115 
f 114/114/114 117/117/117 116/116/116 
f 114/114/114 118/118/118 117/117/117 
f 118/118/118 119/119/119 117/117/117 
f 120/120/120 119/119/119 118/118/118 
f 120/120/120 121/121/121 119/119/119 
f 122/122/122 121/121/121 120/120/120 
f 123/123/123 121/121/121 122/122/122 
f 124/124/124 121/121/121 123/123/123 
f 125/125/125 121/121/121 124/124/124 
f 126/126/126 127/127/127 128/128/128 
f 129/129/129 126/126/126 128/128/128 
f 129/129/129 35/35/35 126/126/126 
f 130/130/130 35/35/35 129/129/129 
f 131/131/131 132/132/132 133/133/133 
f 132/132/132 134/134/134 133/133/133 
f 132/132/132 135/135/135 134/134/134 
f 132/132/132 136/136/136 135/135/135 
f 136/136/136 137/137/137 135/135/135 
f 136/136/136 138/138/138 137/137/137 
f 136/136/136 139/139/139 138/138/138 
f 140/140/140 139/139/139 136/136/136 
f 140/140/140 141/141/141 139/139/139 
f 142/142/142 143/143/143 144/144/144 
f 144/144/144 143/143/143 145/145/145 
f 145/145/145 143/143/143 146/146/146 
f 145/145/145 146/146/146 147/147/147 
f 147/147/147 146/146/146 45/45/45 
f 45/45/45 44/44/44 147/147/147 
f 143/143/143 148/148/148 146/146/146 
f 75/75/75 74/74/74 149/149/149 
f 35/35/35 34/34/34 126/126/126 
f 111/111/111 113/113/113 150/150/150 
f 151/151/151 111/111/111 150/150/150 
f 152/152/152 111/111/111 151/151/151 
f 153/153/153 111/111/111 152/152/152 
f 154/154/154 153/153/153 152/152/152 
f 150/150/150 113/113/113 155/155/155 
f 48/48/48 45/45/45 156/156/156 
f 156/156/156 157/157/157 48/48/48 
f 158/158/158 157/157/157 156/156/156 
f 157/157/157 158/158/158 159/159/159 
f 160/160/160 161/161/161 162/162/162 
f 49/49/49 161/161/161 160/160/160 
f 49/49/49 51/51/51 161/161/161 
f 65/65/65 64/64/64 163/163/163 
