v -1.2988 -0.0248 -0.4853
v -1.34791 0.0347874 -0.287297
v -1.2956 0.0464449 -0.502713
v -1.2988 -0.0248 -0.4853
v -1.34043 0.0215978 -0.271608
v -1.34791 0.0347874 -0.287297
v -1.31751 -0.0188104 -0.223542
v -1.31189 -0.028726 -0.211748
v -1.1969 -0.1888 -0.446
v -1.1969 -0.1888 -0.446
v -1.30838 -0.0368172 -0.202234
v -1.31189 -0.028726 -0.211748
v -1.30761 -0.0386042 -0.200133
v -1.30838 -0.0368172 -0.202234
v -1.30761 -0.0386042 -0.200133
v -1.26147 -0.0345818 -0.199964
v -1.26084 -0.0202023 -0.21617
v -1.31189 -0.028726 -0.211748
v -1.31751 -0.0188104 -0.223542
v -1.26689 0.0275978 -0.270872
v -1.28948 0.0367283 -0.283514
v -1.34043 0.0215978 -0.271608
v -1.29233 0.0378789 -0.285108
v -1.34791 0.0347874 -0.287297
v -1.34201 0.0579584 -0.31291
v -1.34201 0.0579584 -0.31291
v -1.34201 0.0579584 -0.31291
v -1.25005 0.0233498 -0.3376
v -1.2956 0.0464449 -0.502713
v -1.29233 0.0378789 -0.285108
v -1.28948 0.0367283 -0.283514
v -1.26689 0.0275978 -0.270872
v -1.25005 0.0233499 -0.3376
v -1.26689 0.0275979 -0.270872
v -1.26084 -0.0202022 -0.21617
v -1.18918 -0.180811 -0.257949
v -1.18272 -0.191736 -0.26774
v -1.15227 -0.131098 -0.504546
v -1.14528 -0.155573 -0.493634
v -1.14424 -0.159215 -0.49201
v -1.14342 -0.162086 -0.49073
v -1.17416 -0.206226 -0.280724
v -1.12986 -0.209595 -0.469548
v -1.12844 -0.214575 -0.467328
v -1.12587 -0.223581 -0.463312
v -1.13005 -0.280859 -0.347608
v -1.12248 -0.235461 -0.458016
v -1.11154 -0.312163 -0.375661
v -1.09172 -0.343197 -0.409981
v -1.09172 -0.343198 -0.409981
v -1.19128 -0.456567 -0.512034
v -1.12248 -0.235461 -0.458016
v -1.17925 -0.460685 -0.497647
v -1.09034 -0.348048 -0.407819
v -1.09034 -0.348048 -0.407819
v -1.26346 -0.371097 -0.415128
v -1.17925 -0.460685 -0.497647
v -1.11154 -0.312163 -0.375661
v -1.23209 -0.276769 -0.336822
v -1.13005 -0.28086 -0.347608
v -1.2246 -0.176778 -0.251974
v -1.17416 -0.206226 -0.280725
v -1.18272 -0.191736 -0.26774
v -1.18918 -0.180811 -0.257949
v -1.21489 -0.13731 -0.218965
v -1.23715 -0.139273 -0.219051
v -1.24811 -0.14024 -0.219093
v -1.2486 -0.140282 -0.219095
v -1.2246 -0.176778 -0.251974
v -1.2486 -0.140282 -0.219095
v -1.24925 -0.139157 -0.218885
v -1.2246 -0.176778 -0.251974
v -1.1969 -0.1888 -0.446
v -1.23209 -0.276769 -0.336822
v -1.1969 -0.1888 -0.446
v -1.27654 -0.350216 -0.396363
v -1.23209 -0.276769 -0.336822
v -1.1969 -0.1888 -0.446
v -1.26346 -0.371097 -0.415128
v -1.27654 -0.350216 -0.396363
v -1.15474 -0.216255 -0.497563
v -1.20808 -0.459523 -0.494594
v -1.19128 -0.456567 -0.512034
v -1.19128 -0.456567 -0.512034
v -1.20588 -0.494421 -0.524551
v -1.20808 -0.459523 -0.494594
v -1.19588 -0.481748 -0.514445
v -1.20588 -0.494421 -0.524551
v -1.19065 -0.475129 -0.509165
v -1.19044 -0.474865 -0.508955
v -1.18003 -0.461675 -0.498436
v -1.18003 -0.461675 -0.498436
v -1.20808 -0.459523 -0.494594
v -1.19044 -0.474865 -0.508955
v -1.19065 -0.475129 -0.509165
v -1.19588 -0.481748 -0.514445
v -1.20588 -0.494421 -0.524551
v -1.15474 -0.216255 -0.497563
v -1.12587 -0.223581 -0.463312
v -1.12844 -0.214575 -0.467328
v -1.12986 -0.209595 -0.469548
v -1.14342 -0.162086 -0.49073
v -1.15904 -0.162317 -0.508775
v -1.14424 -0.159215 -0.49201
v -1.14528 -0.155573 -0.493634
v -1.15227 -0.131098 -0.504546
v -1.18297 -0.0235319 -0.552504
v -1.20694 -0.025658 -0.579982
v -1.18474 -0.017346 -0.555262
v -1.18655 -0.0110037 -0.55809
v -1.18655 -0.0110036 -0.55809
v -1.20057 0.0108678 -0.533665
v -1.18474 -0.0173459 -0.555262
v -1.19219 0.00875223 -0.566898
v -1.19219 0.00875206 -0.566898
v -1.20641 0.0148087 -0.584051
v -1.20057 0.0108677 -0.533665
v -1.19219 0.00875214 -0.566898
v -1.20641 0.0148088 -0.584051
v -1.20776 0.0153825 -0.585676
v -1.25146 0.032617 -0.597426
v -1.20776 0.0153825 -0.585676
v -1.29322 0.0457003 -0.507814
v -1.20456 0.0118735 -0.517867
v -1.20456 0.0118736 -0.517867
v -1.18297 -0.0235318 -0.552504
v -1.205 0.0119847 -0.516123
v -1.21011 0.0132731 -0.495884
v -1.21011 0.013273 -0.495884
v -1.205 0.0119845 -0.516123
v -1.29322 0.0457003 -0.507814
v -1.2988 -0.0248 -0.4853
v -1.2956 0.0464449 -0.502713
v -1.25146 0.0326171 -0.597426
v -1.2988 -0.0248 -0.4853
v -1.25146 0.0326171 -0.597426
v -1.20694 -0.025658 -0.579982
v -1.20694 -0.025658 -0.579982
v -1.1969 -0.1888 -0.446
v -1.2988 -0.0248 -0.4853
v -1.15904 -0.162317 -0.508775
v -1.1969 -0.1888 -0.446
v -1.15904 -0.162317 -0.508775
v -1.15474 -0.216255 -0.497563
v -1.22931 0.024559 -0.611664
v -1.22931 0.024559 -0.611664
v -1.20926 0.0160221 -0.587487
v -1.20926 0.016022 -0.587487
v -1.22931 0.0245589 -0.611664
v -1.27654 -0.350216 -0.396363
v -1.24925 -0.139157 -0.218885
v -1.26147 -0.0345818 -0.199964
v -1.30761 -0.0386042 -0.200133
v -1.26063 -0.0345081 -0.199961
v -1.26063 -0.0345081 -0.199961
v -1.25918 -0.0333433 -0.201131
v -1.25918 -0.0333433 -0.201131
v -1.21489 -0.13731 -0.218965
v -1.25905 -0.0343708 -0.199955
v -1.21489 -0.13731 -0.218965
v -1.25905 -0.0343708 -0.199955
v -1.23715 -0.139273 -0.219051
v -1.24811 -0.14024 -0.219093
v -1.2486 -0.140282 -0.219095
v -1.25905 -0.0343708 -0.199955
v -1.09034 -0.348048 -0.407819
vt 0.232 0.3517
vt 0.256597 0.352374
vt 0.231735 0.359542
vt 0.232 0.3517
vt 0.257885 0.350764
vt 0.256597 0.352374
vt 0.261833 0.34583
vt 0.262802 0.34462
vt 0.2304 0.3355
vt 0.2304 0.3355
vt 0.263974 0.34367
vt 0.262802 0.34462
vt 0.264233 0.343461
vt 1.31631 0.127152
vt 1.31553 0.124394
vt 1.26929 0.126931
vt 1.26866 0.148596
vt 1.31982 0.139638
vt 1.32546 0.155042
vt 1.27472 0.221239
vt 1.29736 0.236759
vt 1.34843 0.217817
vt 1.30021 0.238715
vt 1.35593 0.238308
vt 1.35001 0.272844
vt 0.254181 0.355477
vt -0.299341 1.27309
vt -0.324043 1.17484
vt -0.489237 1.22564
vt -0.271525 1.21951
vt -0.269931 1.21644
vt -0.257282 1.19208
vt -0.0898319 0.47292
vt -0.0216163 0.482958
vt 0.0343056 0.436199
vt -0.00840474 0.260551
vt -0.0184141 0.248031
vt -0.2605 0.293592
vt -0.249345 0.268245
vt -0.247685 0.264473
vt -0.246376 0.261499
vt -0.0316884 0.231427
vt -0.224722 0.212298
vt -0.222452 0.20714
vt -0.218347 0.197814
vt -0.100063 0.145904
vt -0.212933 0.185511
vt -0.128741 0.110033
vt -0.163827 0.0739355
vt -0.384281 1.02413
vt -0.497974 1.16644
vt -0.276237 1.08058
vt -0.502105 1.14769
vt -0.389145 1.02158
vt 1.08416 -0.529507
vt 1.25754 -0.551781
vt 1.17321 -0.673496
vt 1.1054 -0.481335
vt 1.22613 -0.429198
vt 1.12393 -0.439313
vt 1.21862 -0.298059
vt 1.16811 -0.339124
vt 1.17668 -0.319673
vt 1.18315 -0.305006
vt 1.2089 -0.24661
vt 1.23119 -0.248159
vt 1.24217 -0.248921
vt 1.24266 -0.248955
vt 0.256049 0.332153
vt 0.260736 0.334701
vt 0.260774 0.334798
vt 0.256049 0.332153
vt 0.2304 0.3355
vt 0.243 0.32476
vt 0.2304 0.3355
vt 0.235995 0.318388
vt 0.243 0.32476
vt 0.2304 0.3355
vt 0.23273 0.316911
vt 0.235995 0.318388
vt 0.221849 0.334345
vt 0.218905 0.310658
vt 0.216185 0.311455
vt 0.216185 0.311455
vt 0.215459 0.307205
vt 0.218905 0.310658
vt -0.523228 1.17127
vt -0.535936 1.18546
vt -0.516589 1.16386
vt -0.516324 1.16356
vt -0.503097 1.1488
vt 1.17399 -0.674761
vt 1.20208 -0.67063
vt 1.18442 -0.691622
vt 1.18463 -0.69196
vt 1.18986 -0.700422
vt 1.19988 -0.716622
vt -0.256976 1.1316
vt -0.264323 1.0868
vt -0.255292 1.09152
vt -0.250297 1.09413
vt -0.202653 1.11902
vt -0.202884 1.14289
vt -0.199773 1.12053
vt -0.196121 1.12244
vt -0.171576 1.13526
vt -0.0637027 1.19162
vt -0.0658349 1.22809
vt -0.0574991 1.19486
vt -0.0511387 1.19819
vt -0.315238 0.417965
vt -0.290269 0.443424
vt -0.312347 0.411397
vt -0.324243 0.438425
vt -0.553453 1.1156
vt -0.570615 1.13105
vt -0.520204 1.12418
vt -0.0313265 1.20854
vt -0.0252526 1.23082
vt -0.0246772 1.23293
vt -0.583996 1.17949
vt -0.57224 1.13251
vt -0.49434 1.22316
vt -0.504398 1.12827
vt -0.274118 0.445801
vt -0.309528 0.40499
vt -0.272336 0.446063
vt -0.251645 0.449108
vt -0.482405 1.13395
vt -0.502654 1.12872
vt 0.231092 0.359617
vt 0.232 0.3517
vt 0.231735 0.359542
vt 0.219811 0.360928
vt 0.232 0.3517
vt 0.219811 0.360928
vt 0.216889 0.355132
vt 0.216889 0.355132
vt 0.2304 0.3355
vt 0.232 0.3517
vt 0.221677 0.340207
vt 0.2304 0.3355
vt 0.221677 0.340207
vt 0.221849 0.334345
vt 0.216764 0.360744
vt -0.0154745 1.26668
vt -0.0240358 1.23528
vt -0.574053 1.13414
vt -0.598242 1.15592
vt 1.27064 -0.523717
vt 1.24691 -0.175644
vt 1.25913 -0.0693714
vt 1.30527 -0.0733603
vt 1.25829 -0.0692982
vt 1.26844 0.126978
vt 1.26699 0.128625
vt 0.0496795 0.423344
vt 0.031448 0.310399
vt 0.0508816 0.422339
vt 1.21255 -0.17384
vt 1.25671 -0.0691621
vt 1.23481 -0.175788
vt 1.24577 -0.176747
vt 1.24626 -0.176789
vt 1.26686 0.127064
vt -0.161617 0.0689122
vn -0.971479 -0.0141829 -0.236703
vn -0.970249 -0.0195563 -0.241318
vn -0.971199 -0.0154223 -0.237769
vn -0.843213 -0.535431 -0.0480223
vn -0.843213 -0.535431 -0.0480223
vn -0.843213 -0.535431 -0.0480223
vn -0.843213 -0.535431 -0.0480223
vn -0.843213 -0.535431 -0.0480223
vn -0.843213 -0.535431 -0.0480223
vn -0.868574 -0.486592 -0.093845
vn -0.868574 -0.486592 -0.093845
vn -0.868574 -0.486592 -0.093845
vn -0.868574 -0.486592 -0.093845
vn -0.0675988 0.747581 0.660722
vn -0.0675988 0.747581 0.660722
vn -0.0675988 0.747581 0.660722
vn -0.0675988 0.747581 0.660722
vn -0.0675988 0.747581 0.660722
vn -0.0675988 0.747581 0.660722
vn -0.0675988 0.747581 0.660722
vn -0.0675988 0.747581 0.660722
vn -0.0675988 0.747581 0.660722
vn -0.0675988 0.747581 0.660722
vn -0.0675988 0.747581 0.660722
vn -0.0675988 0.747581 0.660722
vn -0.97025 -0.0195524 -0.241315
vn 0.359396 0.93266 0.0313107
vn 0.359396 0.93266 0.0313107
vn 0.359396 0.93266 0.0313107
vn 0.359396 0.93266 0.0313107
vn 0.359396 0.93266 0.0313107
vn 0.359396 0.93266 0.0313107
vn 0.912263 0.35303 0.207716
vn 0.912263 0.35303 0.207716
vn 0.912263 0.35303 0.207716
vn 0.912263 0.35303 0.207716
vn 0.912263 0.35303 0.207716
vn 0.912263 0.35303 0.207716
vn 0.912263 0.35303 0.207716
vn 0.912263 0.35303 0.207716
vn 0.912263 0.35303 0.207716
vn 0.912263 0.35303 0.207716
vn 0.912263 0.35303 0.207716
vn 0.912263 0.35303 0.207716
vn 0.912263 0.35303 0.207716
vn 0.912263 0.35303 0.207716
vn 0.912263 0.35303 0.207716
vn 0.912263 0.35303 0.207716
vn 0.912263 0.35303 0.207716
vn 0.75435 -0.075409 -0.652127
vn 0.75435 -0.075409 -0.652127
vn 0.75435 -0.075409 -0.652127
vn 0.75435 -0.075409 -0.652127
vn 0.75435 -0.075409 -0.652127
vn 0.0542694 -0.648417 0.759348
vn 0.0542694 -0.648417 0.759348
vn 0.0542694 -0.648417 0.759348
vn 0.0542694 -0.648417 0.759348
vn 0.0542694 -0.648417 0.759348
vn 0.0542694 -0.648417 0.759348
vn 0.0542694 -0.648417 0.759348
vn 0.0542694 -0.648417 0.759348
vn 0.0542694 -0.648417 0.759348
vn 0.0542694 -0.648417 0.759348
vn 0.0542694 -0.648417 0.759348
vn 0.0542694 -0.648417 0.759348
vn 0.0542694 -0.648417 0.759348
vn 0.0542694 -0.648417 0.759348
vn -0.868574 -0.486592 -0.093845
vn -0.868574 -0.486592 -0.093845
vn -0.868574 -0.486592 -0.093845
vn -0.968087 0.200311 -0.150612
vn -0.968087 0.200311 -0.150612
vn -0.968087 0.200311 -0.150612
vn -0.88226 0.462419 0.0882411
vn -0.88226 0.462419 0.0882411
vn -0.88226 0.462419 0.0882411
vn -0.724538 0.150647 -0.67257
vn -0.724538 0.150647 -0.67257
vn -0.724538 0.150647 -0.67257
vn -0.724538 0.150647 -0.67257
vn -0.724538 0.150647 -0.67257
vn -0.724538 0.150647 -0.67257
vn -0.679125 0.453 -0.577564
vn -0.679125 0.453 -0.577564
vn -0.679125 0.453 -0.577564
vn 0.75435 -0.075409 -0.652127
vn 0.75435 -0.075409 -0.652127
vn 0.75435 -0.075409 -0.652127
vn 0.75435 -0.075409 -0.652127
vn 0.75435 -0.075409 -0.652127
vn 0.0542694 -0.648417 0.759348
vn 0.0542694 -0.648417 0.759348
vn 0.0542694 -0.648417 0.759348
vn 0.0542694 -0.648417 0.759348
vn 0.0542694 -0.648417 0.759348
vn 0.0542694 -0.648417 0.759348
vn 0.75435 -0.075409 -0.652127
vn 0.75435 -0.075409 -0.652127
vn 0.75435 -0.075409 -0.652127
vn 0.75435 -0.075409 -0.652127
vn 0.75435 -0.075409 -0.652127
vn 0.75435 -0.075409 -0.652127
vn 0.75435 -0.075409 -0.652127
vn 0.75435 -0.075409 -0.652127
vn 0.75435 -0.075409 -0.652127
vn 0.75435 -0.075409 -0.652127
vn 0.75435 -0.075409 -0.652127
vn 0.75435 -0.075409 -0.652127
vn 0.75435 -0.075409 -0.652127
vn 0.912263 0.35303 0.207716
vn 0.912263 0.35303 0.207716
vn 0.912263 0.35303 0.207716
vn 0.912263 0.35303 0.207716
vn 0.359396 0.93266 0.0313107
vn 0.359396 0.93266 0.0313107
vn 0.359396 0.93266 0.0313107
vn 0.75435 -0.075409 -0.652127
vn 0.75435 -0.075409 -0.652127
vn 0.75435 -0.075409 -0.652127
vn 0.359396 0.93266 0.0313107
vn 0.359396 0.93266 0.0313107
vn 0.359396 0.93266 0.0313107
vn 0.359396 0.93266 0.0313107
vn 0.912263 0.35303 0.207716
vn 0.912263 0.35303 0.207716
vn 0.912263 0.35303 0.207716
vn 0.912263 0.35303 0.207716
vn 0.359396 0.93266 0.0313107
vn 0.359396 0.93266 0.0313107
vn -0.908108 -0.0604509 -0.414351
vn -0.908108 -0.0604509 -0.414351
vn -0.908108 -0.0604509 -0.414351
vn -0.908108 -0.0604509 -0.414351
vn -0.574621 -0.604229 -0.552013
vn -0.574621 -0.604229 -0.552013
vn -0.574621 -0.604229 -0.552013
vn -0.614039 -0.52315 -0.590991
vn -0.614039 -0.52315 -0.590991
vn -0.614039 -0.52315 -0.590991
vn -0.614039 -0.52315 -0.590991
vn -0.806463 -0.181284 -0.562809
vn -0.806463 -0.181284 -0.562809
vn -0.806463 -0.181284 -0.562809
vn -0.574621 -0.604229 -0.552013
vn 0.75435 -0.075409 -0.652127
vn 0.75435 -0.075409 -0.652127
vn 0.359396 0.93266 0.0313107
vn 0.359396 0.93266 0.0313107
vn 0.0542694 -0.648417 0.759348
vn 0.0118015 -0.176688 0.984196
vn 0.0118015 -0.176688 0.984196
vn 0.0118015 -0.176688 0.984196
vn 0.0118015 -0.176688 0.984196
vn -0.0675988 0.747581 0.660722
vn -0.0675988 0.747581 0.660722
vn 0.912263 0.35303 0.207716
vn 0.912263 0.35303 0.207716
vn 0.912263 0.35303 0.207716
vn 0.0118015 -0.176688 0.984196
vn 0.0118015 -0.176688 0.984196
vn 0.0118015 -0.176688 0.984196
vn 0.0118015 -0.176688 0.984196
vn 0.0118015 -0.176688 0.984196
vn -0.0675988 0.747581 0.660722
vn 0.912263 0.35303 0.207716
f 1/1/1 2/2/2 3/3/3 
f 4/4/4 5/5/5 6/6/6 
f 4/4/4 7/7/7 5/5/5 
f 4/4/4 8/8/8 7/7/7 
f 9/9/9 8/8/8 4/4/4 
f 10/10/10 11/11/11 12/12/12 
f 11/11/11 10/10/10 13/13/13 
f 14/14/14 15/15/15 16/16/16 
f 14/14/14 16/16/16 17/17/17 
f 14/14/14 17/17/17 18/18/18 
f 18/18/18 17/17/17 19/19/19 
f 20/20/20 19/19/19 17/17/17 
f 21/21/21 19/19/19 20/20/20 
f 22/22/22 19/19/19 21/21/21 
f 23/23/23 22/22/22 21/21/21 
f 24/24/24 22/22/22 23/23/23 
f 25/25/25 24/24/24 23/23/23 
f 3/3/3 2/2/2 26/26/26 
f 27/27/27 28/28/28 29/29/29 
f 30/30/30 28/28/28 27/27/27 
f 28/28/28 30/30/30 31/31/31 
f 28/28/28 31/31/31 32/32/32 
f 33/33/33 34/34/34 35/35/35 
f 33/33/33 35/35/35 36/36/36 
f 33/33/33 36/36/36 37/37/37 
f 37/37/37 38/38/38 33/33/33 
f 37/37/37 39/39/39 38/38/38 
f 37/37/37 40/40/40 39/39/39 
f 37/37/37 41/41/41 40/40/40 
f 41/41/41 37/37/37 42/42/42 
f 42/42/42 43/43/43 41/41/41 
f 42/42/42 44/44/44 43/43/43 
f 42/42/42 45/45/45 44/44/44 
f 46/46/46 45/45/45 42/42/42 
f 46/46/46 47/47/47 45/45/45 
f 47/47/47 46/46/46 48/48/48 
f 47/47/47 48/48/48 49/49/49 
f 50/50/50 51/51/51 52/52/52 
f 50/50/50 53/53/53 51/51/51 
f 54/54/54 53/53/53 50/50/50 
f 55/55/55 56/56/56 57/57/57 
f 58/58/58 56/56/56 55/55/55 
f 58/58/58 59/59/59 56/56/56 
f 60/60/60 59/59/59 58/58/58 
f 60/60/60 61/61/61 59/59/59 
f 62/62/62 61/61/61 60/60/60 
f 63/63/63 61/61/61 62/62/62 
f 61/61/61 63/63/63 64/64/64 
f 65/65/65 61/61/61 64/64/64 
f 66/66/66 61/61/61 65/65/65 
f 61/61/61 66/66/66 67/67/67 
f 61/61/61 67/67/67 68/68/68 
f 69/69/69 70/70/70 71/71/71 
f 69/69/69 71/71/71 10/10/10 
f 72/72/72 73/73/73 74/74/74 
f 75/75/75 76/76/76 77/77/77 
f 78/78/78 79/79/79 80/80/80 
f 81/81/81 79/79/79 78/78/78 
f 81/81/81 82/82/82 79/79/79 
f 83/83/83 82/82/82 81/81/81 
f 84/84/84 85/85/85 86/86/86 
f 51/51/51 87/87/87 88/88/88 
f 51/51/51 89/89/89 87/87/87 
f 51/51/51 90/90/90 89/89/89 
f 90/90/90 51/51/51 91/91/91 
f 92/92/92 93/93/93 94/94/94 
f 57/57/57 93/93/93 92/92/92 
f 93/93/93 57/57/57 56/56/56 
f 51/51/51 53/53/53 91/91/91 
f 94/94/94 93/93/93 95/95/95 
f 95/95/95 93/93/93 96/96/96 
f 96/96/96 93/93/93 97/97/97 
f 52/52/52 51/51/51 98/98/98 
f 52/52/52 98/98/98 99/99/99 
f 98/98/98 100/100/100 99/99/99 
f 98/98/98 101/101/101 100/100/100 
f 98/98/98 102/102/102 101/101/101 
f 103/103/103 102/102/102 98/98/98 
f 103/103/103 104/104/104 102/102/102 
f 103/103/103 105/105/105 104/104/104 
f 103/103/103 106/106/106 105/105/105 
f 103/103/103 107/107/107 106/106/106 
f 108/108/108 107/107/107 103/103/103 
f 108/108/108 109/109/109 107/107/107 
f 109/109/109 108/108/108 110/110/110 
f 111/111/111 112/112/112 113/113/113 
f 114/114/114 112/112/112 111/111/111 
f 115/115/115 116/116/116 117/117/117 
f 118/118/118 108/108/108 119/119/119 
f 110/110/110 108/108/108 118/118/118 
f 119/119/119 108/108/108 120/120/120 
f 121/121/121 116/116/116 122/122/122 
f 116/116/116 121/121/121 123/123/123 
f 117/117/117 116/116/116 123/123/123 
f 117/117/117 123/123/123 124/124/124 
f 125/125/125 126/126/126 112/112/112 
f 126/126/126 125/125/125 127/127/127 
f 126/126/126 127/127/127 128/128/128 
f 128/128/128 38/38/38 126/126/126 
f 33/33/33 38/38/38 128/128/128 
f 129/129/129 29/29/29 28/28/28 
f 29/29/29 129/129/129 130/130/130 
f 29/29/29 130/130/130 123/123/123 
f 131/131/131 132/132/132 133/133/133 
f 134/134/134 132/132/132 131/131/131 
f 135/135/135 136/136/136 137/137/137 
f 138/138/138 139/139/139 140/140/140 
f 141/141/141 139/139/139 138/138/138 
f 142/142/142 143/143/143 144/144/144 
f 137/137/137 136/136/136 145/145/145 
f 108/108/108 146/146/146 147/147/147 
f 120/120/120 108/108/108 147/147/147 
f 121/121/121 122/122/122 148/148/148 
f 121/121/121 148/148/148 149/149/149 
f 123/123/123 130/130/130 124/124/124 
f 113/113/113 112/112/112 126/126/126 
f 59/59/59 150/150/150 56/56/56 
f 13/13/13 10/10/10 71/71/71 
f 151/151/151 152/152/152 153/153/153 
f 152/152/152 151/151/151 154/154/154 
f 16/16/16 155/155/155 156/156/156 
f 17/17/17 16/16/16 156/156/156 
f 36/36/36 35/35/35 157/157/157 
f 36/36/36 157/157/157 158/158/158 
f 158/158/158 157/157/157 159/159/159 
f 160/160/160 161/161/161 162/162/162 
f 162/162/162 161/161/161 154/154/154 
f 154/154/154 151/151/151 162/162/162 
f 151/151/151 163/163/163 162/162/162 
f 163/163/163 151/151/151 164/164/164 
f 156/156/156 155/155/155 165/165/165 
f 49/49/49 48/48/48 166/166/166 
