v 1.15072 -0.99458 0.0156264
v 1.18576 -1.06092 -0.0245108
v 1.14797 -0.979302 0.0170879
v 1.18576 -1.06092 -0.0245108
v 1.15072 -0.99458 0.0156264
v 1.16368 -1.05451 -0.0323847
v 1.16368 -1.05451 -0.0323848
v 1.17153 -0.961644 -0.142145
v 1.18576 -1.06092 -0.0245108
v 1.1575 -1.00006 -0.0968715
v 1.1575 -1.00006 -0.0968709
v 1.1484 -0.977832 0.0162134
v 1.17153 -0.961644 -0.142145
v 1.14818 -0.979746 0.0146515
v 1.14797 -0.979302 0.0170881
v 1.1484 -0.977832 0.0162134
v 1.19724 -1.04427 -0.0440644
v 1.17969 -0.871058 -0.0473262
v 1.17969 -0.871058 -0.0473261
v 1.17259 -0.958741 -0.145565
v 1.17259 -0.95874 -0.145566
v 1.19724 -1.04427 -0.0440645
v 1.17969 -0.871058 -0.0473262
v 1.19724 -1.04427 -0.0440644
v 1.17259 -0.958741 -0.145565
v 1.15072 -0.99458 0.0156263
v 1.14797 -0.979302 0.0170879
v 1.14818 -0.979746 0.0146514
v 1.1575 -1.00006 -0.0968715
v 1.16368 -1.05451 -0.0323847
vt 0.797854 0.547467
vt 0.801956 0.539963
vt 0.798005 0.549064
vt -1.3728 -0.790899
vt -1.33424 -0.715044
vt -1.3485 -0.791601
vt -1.15681 0.65601
vt -1.16466 0.512236
vt -1.1789 0.666166
vt -1.15063 0.571615
vt -0.257376 0.728679
vt -0.143471 0.708914
vt -0.302979 0.688143
vt -0.145044 0.710832
vt -0.14259 0.710442
vt 0.798162 0.549201
vt 0.805098 0.541347
vt 0.809603 0.559116
vt -0.207472 0.597914
vt -0.306424 0.685081
vt -1.16572 0.507749
vt -1.19038 0.640482
vt 0.809603 0.559116
vt 0.805098 0.541347
vt 0.81848 0.547801
vt -0.0334162 1.1778
vt -0.0319527 1.16228
vt -0.0343924 1.16275
vt -0.14606 1.18437
vt -0.0814897 1.23906
vn 0.821614 0.0938396 0.562267
vn 0.821614 0.0938396 0.562267
vn 0.821614 0.0938396 0.562267
vn -0.416977 -0.621504 0.663222
vn -0.416977 -0.621504 0.663222
vn -0.416977 -0.621504 0.663222
vn 0.00826511 -0.763687 -0.645533
vn 0.00826511 -0.763687 -0.645533
vn 0.00826511 -0.763687 -0.645533
vn 0.00826511 -0.763687 -0.645533
vn -0.969711 0.212827 -0.119856
vn -0.969711 0.212827 -0.119856
vn -0.969711 0.212827 -0.119856
vn -0.969711 0.212827 -0.119856
vn -0.969711 0.212827 -0.119856
vn 0.821614 0.0938396 0.562267
vn 0.821614 0.0938396 0.562267
vn 0.821614 0.0938396 0.562267
vn -0.969711 0.212827 -0.119856
vn -0.969711 0.212827 -0.119856
vn 0.00826511 -0.763687 -0.645533
vn 0.00826511 -0.763687 -0.645533
vn 0.982814 0.0966237 -0.157291
vn 0.982814 0.0966237 -0.157291
vn 0.982814 0.0966237 -0.157291
vn -0.983797 -0.171898 -0.0509399
vn -0.983797 -0.171898 -0.0509399
vn -0.983797 -0.171898 -0.0509399
vn -0.983797 -0.171898 -0.0509399
vn -0.983797 -0.171898 -0.0509399
f 1/1/1 2/2/2 3/3/3 
f 4/4/4 5/5/5 6/6/6 
f 7/7/7 8/8/8 9/9/9 
f 10/10/10 8/8/8 7/7/7 
f 11/11/11 12/12/12 13/13/13 
f 14/14/14 12/12/12 11/11/11 
f 12/12/12 14/14/14 15/15/15 
f 3/3/3 2/2/2 16/16/16 
f 16/16/16 2/2/2 17/17/17 
f 16/16/16 17/17/17 18/18/18 
f 13/13/13 12/12/12 19/19/19 
f 13/13/13 19/19/19 20/20/20 
f 21/21/21 22/22/22 8/8/8 
f 23/23/23 24/24/24 25/25/25 
f 8/8/8 22/22/22 9/9/9 
f 26/26/26 27/27/27 28/28/28 
f 29/29/29 26/26/26 28/28/28 
f 30/30/30 26/26/26 29/29/29 
