v 0.854 1.9363 0.8144
v 0.939515 1.79276 0.834624
v 0.990215 1.8578 0.756516
v 0.939515 1.79276 0.834624
v 0.854 1.9363 0.8144
v 0.833869 1.83009 0.812462
v 0.939515 1.79276 0.834623
v 0.833869 1.83009 0.812462
v 0.892864 1.7265 0.781193
v 0.960068 1.77148 0.831546
v 0.960068 1.77148 0.831546
v 0.990215 1.8578 0.756516
v 0.960068 1.77148 0.831546
v 0.892864 1.7265 0.781193
v 0.899626 2.07818 0.273884
v 1.03275 1.99693 0.625058
v 1.03275 1.99693 0.625058
v 0.9635 2.0729 0.6295
v 0.990215 1.8578 0.756516
v 0.9635 2.0729 0.6295
v 1.03275 1.99693 0.625058
v 1.01699 2.08831 0.462814
v 1.00869 2.13638 0.377448
v 0.9635 2.0729 0.6295
v 1.00869 2.13638 0.377448
v 0.7989 2.1152 0.4893
v 0.7989 2.1152 0.4893
v 0.854 1.9363 0.8144
v 0.9635 2.0729 0.6295
v 0.293465 1.98667 0.54153
v 0.292848 1.9782 0.555836
v 0.2895 1.93226 0.633509
v 0.365914 1.92243 0.675779
v 0.289151 1.92746 0.641621
v 0.288943 1.92461 0.646435
v 0.29469 1.88701 0.628878
v 0.365914 1.92243 0.675779
v 0.288943 1.92461 0.646434
v 0.296703 1.87383 0.622725
v 0.326465 1.84387 0.618711
v 0.39524 1.79847 0.622014
v 0.398492 1.79632 0.62217
v 0.444175 1.92022 0.705616
v 0.444175 1.92022 0.705616
v 0.854 1.9363 0.8144
v 0.444175 1.92022 0.705616
v 0.721515 1.90714 0.80859
v 0.807481 1.84045 0.807475
v 0.854 1.9363 0.8144
v 0.721515 1.90714 0.80859
v 0.809945 1.83854 0.807443
v 0.809945 1.83854 0.807443
v 0.809945 1.83854 0.807443
v 0.806485 1.66867 0.716474
v 0.806485 1.66867 0.716474
v 0.775778 1.73863 0.559883
v 0.79623 1.66181 0.708792
v 0.775061 1.66748 0.703394
v 0.79623 1.66181 0.708791
v 0.807481 1.84045 0.807475
v 0.766096 1.66988 0.701108
v 0.721516 1.90714 0.80859
v 0.72942 1.67969 0.691756
v 0.766096 1.66988 0.701108
v 0.72942 1.67969 0.691756
v 0.775778 1.73863 0.559883
v 0.775061 1.66748 0.703394
v 0.79623 1.66181 0.708792
v 0.46999 1.74914 0.625605
v 0.45917 1.75628 0.625085
v 0.469989 1.74914 0.625605
v 0.411568 1.78769 0.622799
v 0.411423 1.80657 0.526556
v 0.411569 1.78769 0.622799
v 0.398492 1.79633 0.62217
v 0.458218 1.76068 0.605697
v 0.45917 1.75628 0.625085
v 0.459762 1.75917 0.608307
v 0.467485 1.75159 0.621369
v 0.469989 1.74914 0.625605
v 0.467485 1.75159 0.621369
v 0.464917 1.95234 0.217767
v 0.459762 1.75917 0.608307
v 0.42939 1.9476 0.237412
v 0.458218 1.76068 0.605697
v 0.411423 1.80657 0.526556
v 0.408861 1.80909 0.522224
v 0.335129 1.8814 0.397526
v 0.323965 1.92659 0.309672
v 0.320566 1.89568 0.372897
v 0.320566 1.89568 0.372897
v 0.312701 1.98405 0.360244
v 0.323965 1.92659 0.309672
v 0.316749 1.88993 0.415099
v 0.312269 1.98469 0.363736
v 0.316681 1.88982 0.415851
v 0.296809 2.00759 0.488752
v 0.314927 1.88718 0.43525
v 0.293465 1.98667 0.54153
v 0.293917 2.00322 0.520746
v 0.296336 2.0083 0.492582
v 0.352761 2.04063 0.332331
v 0.296809 2.00759 0.488752
v 0.296336 2.0083 0.492582
v 0.347924 2.03191 0.330901
v 0.312269 1.98469 0.363736
v 0.312701 1.98405 0.360244
v 0.314807 1.98092 0.343213
v 0.314807 1.98092 0.343213
v 0.316397 1.97857 0.330357
v 0.331451 2.00224 0.32603
v 0.316397 1.97857 0.330357
v 0.331451 2.00224 0.32603
v 0.347924 2.03191 0.330901
v 0.433475 2.01069 0.266986
v 0.321578 1.95243 0.306811
v 0.317444 1.97702 0.321889
v 0.317444 1.97702 0.321889
v 0.317444 1.97702 0.321889
v 0.321578 1.95243 0.30681
v 0.323135 1.94317 0.301133
v 0.323489 1.94106 0.29984
v 0.324575 1.93214 0.298328
v 0.324575 1.93214 0.298328
v 0.324739 1.93363 0.295279
v 0.42939 1.9476 0.237412
v 0.324739 1.93363 0.295279
v 0.323489 1.94106 0.29984
v 0.466514 1.9635 0.222456
v 0.464917 1.95234 0.217767
v 0.473526 1.95349 0.213006
v 0.466514 1.9635 0.222456
v 0.536986 1.94966 0.202676
v 0.473526 1.95349 0.213006
v 0.622013 1.94454 0.188836
v 0.536986 1.94966 0.202676
v 0.622013 1.94454 0.188836
v 0.473526 1.95349 0.213006
v 0.696323 1.94006 0.17674
v 0.433475 2.01069 0.266985
v 0.696323 1.94006 0.17674
v 0.323135 1.94317 0.301133
v 0.689695 2.1793 0.384685
v 0.722565 1.93848 0.172468
v 0.722565 1.93848 0.172468
v 0.722565 1.93848 0.172468
v 0.899626 2.07818 0.273884
v 0.941558 2.15061 0.331984
v 0.938492 2.10884 0.296145
v 1.01699 2.08831 0.462814
v 0.938492 2.10884 0.296145
v 1.00869 2.13638 0.377448
v 0.976552 2.13887 0.317945
v 0.995824 2.14649 0.340168
v 0.995823 2.14649 0.340168
v 0.941558 2.15061 0.331984
v 0.7989 2.1152 0.4893
v 0.941558 2.15061 0.331984
v 0.689695 2.1793 0.384686
v 0.689695 2.1793 0.384686
v 0.330495 2.05462 0.463861
v 0.7989 2.1152 0.4893
v 0.397723 2.13428 0.377981
v 0.402003 2.05565 0.309402
v 0.397724 2.13428 0.377981
v 0.402003 2.05565 0.309402
v 0.352761 2.04063 0.332331
v 0.379192 2.08823 0.340145
v 0.330495 2.05462 0.463861
v 0.379192 2.08823 0.340145
v 0.294145 2.01154 0.510295
v 0.294145 2.01154 0.510295
v 0.29395 2.0044 0.519265
v 0.293918 2.00322 0.520746
v 0.293465 1.98667 0.54153
v 0.29395 2.0044 0.519265
v 0.294145 2.01154 0.510295
v 0.397723 2.13428 0.377981
v 0.379192 2.08823 0.340145
v 0.99101 2.15027 0.326227
v 0.976552 2.13887 0.317945
v 0.99101 2.15027 0.326226
v 0.991011 2.15027 0.326227
v 0.324739 1.93363 0.295279
v 0.314165 1.88603 0.443672
v 0.307497 1.87598 0.517411
v 0.292848 1.9782 0.555836
v 0.307063 1.87532 0.522212
v 0.296703 1.87383 0.622725
v 0.30011 1.86484 0.599102
v 0.299726 1.86426 0.603343
v 0.298458 1.86235 0.617365
v 0.298458 1.86235 0.617365
v 0.299726 1.86426 0.603343
v 0.326466 1.84387 0.618711
v 0.298458 1.86235 0.617365
v 0.30011 1.86484 0.599102
v 0.307063 1.87532 0.522212
v 0.408861 1.80909 0.522224
v 0.39524 1.79847 0.622014
v 0.307497 1.87598 0.517411
v 0.314165 1.88603 0.443672
v 0.335129 1.8814 0.397526
v 0.314927 1.88718 0.43525
v 0.316681 1.88982 0.415851
v 0.316749 1.88993 0.415099
v 0.320566 1.89568 0.372897
v 0.29469 1.88701 0.628878
v 0.2895 1.93226 0.633509
v 0.289151 1.92746 0.641621
v 0.288943 1.92461 0.646435
v 0.854 1.9363 0.8144
vt 0.7425 0.8957
vt 0.740123 0.877677
vt 0.751148 0.880614
vt 0.740123 0.877677
vt 0.7425 0.8957
vt 0.732815 0.888015
vt -0.854196 1.97508
vt -0.742252 1.99776
vt -0.804763 1.89155
vt -0.875974 1.95483
vt 0.740648 0.874546
vt 0.512723 2.05695
vt 0.594656 1.97165
vt 0.539671 1.89385
vt -0.0143048 2.16624
vt 0.369173 2.19052
vt 0.769375 0.889856
vt 0.7684 0.9006
vt 0.751148 0.880614
vt 0.7684 0.9006
vt 0.769375 0.889856
vt 0.786776 0.899614
vt 0.795931 0.904748
vt 0.7684 0.9006
vt 0.795931 0.904748
vt 0.777 0.9215
vt 0.777 0.9215
vt 0.7425 0.8957
vt 0.7684 0.9006
vt 0.736296 0.963104
vt 0.73457 0.96224
vt 0.725199 0.957544
vt 0.725447 0.94803
vt 0.72422 0.957054
vt 0.723639 0.956763
vt -0.170928 1.96246
vt -0.246398 2.01567
vt -0.164839 2.00391
vt -0.173062 1.94793
vt -0.204598 1.91955
vt -0.277473 1.88094
vt -0.280919 1.87912
vt -0.329325 2.02763
vt 0.727286 0.93915
vt 0.7425 0.8957
vt 0.727286 0.93915
vt 0.732253 0.906104
vt 0.731191 0.890795
vt 0.7425 0.8957
vt 0.732253 0.906104
vt 0.73116 0.890356
vt 0.73116 0.890356
vt -0.716901 2.0029
vt -0.713235 1.81021
vt 0.468999 1.79386
vt 0.298003 1.82729
vt 0.460609 1.78199
vt -0.679938 1.80305
vt -0.702369 1.80055
vt -0.714291 2.0046
vt -0.670439 1.8041
vt -0.6232 2.0641
vt -0.631576 1.80842
vt -0.533471 -0.114614
vt -0.496504 -0.127355
vt -0.543229 -0.271679
vt -0.542507 -0.111499
vt -0.563845 -0.104144
vt -0.23501 -0.217486
vt -0.345215 1.84505
vt -0.356678 1.83898
vt -0.294775 1.87178
vt 0.238946 -0.640404
vt 0.336468 -0.629986
vt 0.335832 -0.645654
vt 0.319139 -0.576151
vt 0.338785 -0.572951
vt 0.321784 -0.574032
vt 0.335019 -0.563427
vt 0.339312 -0.559989
vt -0.232485 -0.222373
vt -0.229897 -0.673142
vt -0.224701 -0.23744
vt -0.194088 -0.653438
vt -0.223145 -0.240451
vt -0.175977 -0.331745
vt -0.173396 -0.336742
vt -0.0990768 -0.480589
vt -0.0878244 -0.579376
vt -0.0843977 -0.509
vt 1.84884 0.337521
vt 1.93767 0.325756
vt 1.87991 0.274286
vt 1.84305 0.379891
vt 1.93832 0.329273
vt 1.84295 0.380646
vt 1.96135 0.455219
vt 1.84029 0.400123
vt 1.9403 0.50806
vt 1.95695 0.487341
vt 1.96205 0.459078
vt 0.470512 -1.93495
vt 0.630026 -1.87799
vt 0.633933 -1.87835
vt 0.469054 -1.92499
vt 0.502538 -1.86617
vt 0.498977 -1.86584
vt 0.481609 -1.86424
vt 1.93453 0.308598
vt 1.93217 0.295646
vt 0.464087 -1.89106
vt 0.468499 -1.86302
vt 2.01714 -0.109616
vt 2.04946 -0.121043
vt 2.02634 -0.227438
vt 1.96287 -0.111367
vt 1.98965 -0.099901
vt 0.459864 -1.86222
vt 1.93061 0.287115
vt 1.90589 0.271688
vt 1.89658 0.265879
vt 1.89446 0.264557
vt 1.88549 0.26294
vt -0.0884392 -0.592002
vt -0.0886045 -0.595396
vt 1.9576 -0.239567
vt 1.94238 -0.120135
vt 1.95048 -0.116667
vt 1.97493 -0.278995
vt 1.96276 -0.280112
vt 1.96402 -0.289937
vt -0.557968 -1.62983
vt -0.628686 -1.60642
vt -0.565004 -1.61607
vt -0.714009 -1.59348
vt -0.302539 -0.685469
vt -0.388242 -0.695587
vt -0.238575 -0.677917
vt -0.463143 -0.70443
vt -0.524813 -1.69465
vt -0.788578 -1.58218
vt 1.95278 -0.115684
vt -0.781927 -1.89916
vt -0.814912 -1.57819
vt -0.489594 -0.707553
vt -0.125049 1.94514
vt -0.99259 -1.75018
vt -1.03467 -1.84297
vt -1.03159 -1.78793
vt 0.192005 2.24995
vt 0.0100038 2.21478
vt 0.0987858 2.28122
vt 0.0338093 2.2623
vt 0.0580762 2.28059
vt 0.799311 0.907278
vt 0.798233 0.912874
vt 0.777 0.9215
vt 0.798233 0.912874
vt 0.787166 0.93748
vt 0.787166 0.93748
vt 0.751359 0.96451
vt 0.777 0.9215
vt 0.769686 0.963737
vt -0.493232 -1.7564
vt -0.488937 -1.86074
vt 2.07532 -0.178327
vt 2.05895 -0.124398
vt 2.11082 -0.142731
vt 0.604643 -1.93561
vt 0.478481 -1.98937
vt 0.651996 -1.88002
vt 0.741449 0.964928
vt 0.73997 0.964404
vt 0.739725 0.964318
vt 0.736296 0.963104
vt 1.95813 0.485864
vt 1.96531 0.476923
vt 0.517065 -2.03843
vt -0.470341 -1.80116
vt 0.800575 0.908224
vt -1.06978 -1.8249
vt -1.08429 -1.83895
vt 0.0428526 2.28036
vt 1.88698 0.259891
vt 1.83914 0.408578
vt 1.82903 0.482611
vt 1.9318 0.522352
vt 1.82837 0.487431
vt 1.82687 0.588477
vt 1.81783 0.564627
vt 1.81725 0.568886
vt 1.81533 0.582963
vt -0.174921 1.93528
vt 0.316755 -0.76549
vt 0.332326 -0.731952
vt 0.330963 -0.76551
vt 0.312457 -0.765483
vt 0.234545 -0.765372
vt 0.234557 -0.643921
vt 0.335674 -0.64955
vt 0.229679 -0.765365
vt 0.15496 -0.765259
vt 0.108201 -0.74516
vt 0.146427 -0.765247
vt 0.126769 -0.765219
vt 0.126007 -0.765217
vt 0.0832443 -0.765157
vt 1.84012 0.594806
vt 1.8856 0.599952
vt 1.88078 0.608055
vt 1.87792 0.612865
vt 0.7425 0.8957
vn 0.551357 0.42925 0.715367
vn 0.551357 0.42925 0.715367
vn 0.551357 0.42925 0.715367
vn -0.198573 0.0197549 0.979887
vn -0.198573 0.0197549 0.979887
vn -0.198573 0.0197549 0.979887
vn -0.330697 -0.440285 0.834739
vn -0.330697 -0.440285 0.834739
vn -0.330697 -0.440285 0.834739
vn -0.330697 -0.440285 0.834739
vn 0.551357 0.42925 0.715367
vn 0.697896 -0.592924 -0.401725
vn 0.697896 -0.592924 -0.401725
vn 0.697896 -0.592924 -0.401725
vn 0.697896 -0.592924 -0.401725
vn 0.697896 -0.592924 -0.401725
vn 0.560892 0.471504 0.680503
vn 0.560892 0.471504 0.680503
vn 0.560892 0.471504 0.680503
vn 0.715941 0.635765 0.2885
vn 0.715941 0.635765 0.2885
vn 0.715941 0.635765 0.2885
vn 0.715941 0.635765 0.2885
vn 0.0356346 0.967566 0.250091
vn 0.0356346 0.967566 0.250091
vn 0.0356346 0.967566 0.250091
vn -0.186826 0.846964 0.497742
vn -0.186826 0.846964 0.497742
vn -0.208248 0.841564 0.498401
vn -0.173922 0.850008 0.49723
vn -0.173845 0.850026 0.497227
vn -0.17343 0.850121 0.497209
vn -0.17517 0.84972 0.497283
vn -0.173387 0.850131 0.497207
vn -0.173361 0.850137 0.497206
vn -0.330697 -0.440285 0.834739
vn -0.330697 -0.440285 0.834739
vn -0.330697 -0.440285 0.834739
vn -0.330697 -0.440285 0.834739
vn -0.330697 -0.440285 0.834739
vn -0.330697 -0.440285 0.834739
vn -0.330697 -0.440285 0.834739
vn -0.330697 -0.440285 0.834739
vn -0.177008 0.849294 0.49736
vn -0.194471 0.759875 0.6203
vn -0.194471 0.759875 0.6203
vn -0.194471 0.759875 0.6203
vn -0.031228 -0.0569431 0.997889
vn -0.031228 -0.0569431 0.997889
vn -0.031228 -0.0569431 0.997889
vn -0.031228 -0.0569431 0.997889
vn -0.198573 0.0197549 0.979887
vn -0.330697 -0.440285 0.834739
vn -0.330697 -0.440285 0.834739
vn 0.697896 -0.592924 -0.401725
vn 0.697896 -0.592924 -0.401725
vn 0.697896 -0.592924 -0.401725
vn -0.330697 -0.440285 0.834739
vn -0.330697 -0.440285 0.834739
vn -0.330697 -0.440285 0.834739
vn -0.330697 -0.440285 0.834739
vn -0.330697 -0.440285 0.834739
vn -0.330697 -0.440285 0.834739
vn -0.12536 -0.888617 -0.441186
vn -0.12536 -0.888617 -0.441186
vn -0.12536 -0.888617 -0.441186
vn -0.12536 -0.888617 -0.441186
vn -0.12536 -0.888617 -0.441186
vn -0.12536 -0.888617 -0.441186
vn -0.330697 -0.440285 0.834739
vn -0.330697 -0.440285 0.834739
vn -0.330697 -0.440285 0.834739
vn -0.538218 -0.827197 -0.161449
vn -0.538218 -0.827197 -0.161449
vn -0.538218 -0.827197 -0.161449
vn -0.538218 -0.827197 -0.161449
vn -0.538218 -0.827197 -0.161449
vn -0.538218 -0.827197 -0.161449
vn -0.538218 -0.827197 -0.161449
vn -0.538218 -0.827197 -0.161449
vn -0.12536 -0.888617 -0.441186
vn -0.12536 -0.888617 -0.441186
vn -0.12536 -0.888617 -0.441186
vn -0.12536 -0.888617 -0.441186
vn -0.12536 -0.888617 -0.441186
vn -0.12536 -0.888617 -0.441186
vn -0.12536 -0.888617 -0.441186
vn -0.12536 -0.888617 -0.441186
vn -0.12536 -0.888617 -0.441186
vn -0.12536 -0.888617 -0.441186
vn -0.989297 -0.102869 -0.103488
vn -0.989297 -0.102869 -0.103488
vn -0.989297 -0.102869 -0.103488
vn -0.989297 -0.102869 -0.103488
vn -0.989297 -0.102869 -0.103488
vn -0.989297 -0.102869 -0.103488
vn -0.989297 -0.102869 -0.103488
vn -0.989297 -0.102869 -0.103488
vn -0.989297 -0.102869 -0.103488
vn -0.989297 -0.102869 -0.103488
vn -0.989297 -0.102869 -0.103488
vn -0.84332 0.500403 -0.195982
vn -0.84332 0.500403 -0.195982
vn -0.84332 0.500403 -0.195982
vn -0.84332 0.500403 -0.195982
vn -0.84332 0.500403 -0.195982
vn -0.84332 0.500403 -0.195982
vn -0.84332 0.500403 -0.195982
vn -0.989297 -0.102869 -0.103488
vn -0.989297 -0.102869 -0.103488
vn -0.84332 0.500403 -0.195982
vn -0.84332 0.500403 -0.195982
vn -0.484167 0.396834 -0.779811
vn -0.484167 0.396834 -0.779811
vn -0.484167 0.396834 -0.779811
vn -0.484167 0.396834 -0.779811
vn -0.484167 0.396834 -0.779811
vn -0.84332 0.500403 -0.195982
vn -0.989297 -0.102869 -0.103488
vn -0.989297 -0.102869 -0.103488
vn -0.989297 -0.102869 -0.103488
vn -0.989297 -0.102869 -0.103488
vn -0.989297 -0.102869 -0.103488
vn -0.12536 -0.888617 -0.441186
vn -0.12536 -0.888617 -0.441186
vn -0.484167 0.396834 -0.779811
vn -0.484167 0.396834 -0.779811
vn -0.484167 0.396834 -0.779811
vn -0.484167 0.396834 -0.779811
vn -0.484167 0.396834 -0.779811
vn -0.484167 0.396834 -0.779811
vn -0.0832993 0.652426 -0.75326
vn -0.0832993 0.652426 -0.75326
vn -0.0832993 0.652426 -0.75326
vn -0.0832993 0.652426 -0.75326
vn -0.12536 -0.888617 -0.441186
vn -0.12536 -0.888617 -0.441186
vn -0.12536 -0.888617 -0.441186
vn -0.12536 -0.888617 -0.441186
vn -0.0832993 0.652426 -0.75326
vn -0.0832993 0.652426 -0.75326
vn -0.484167 0.396834 -0.779811
vn -0.0832993 0.652426 -0.75326
vn -0.0832993 0.652426 -0.75326
vn -0.12536 -0.888617 -0.441186
vn 0.697896 -0.592924 -0.401725
vn -0.0832993 0.652426 -0.75326
vn -0.0832993 0.652426 -0.75326
vn -0.0832993 0.652426 -0.75326
vn 0.697896 -0.592924 -0.401725
vn 0.697896 -0.592924 -0.401725
vn 0.697896 -0.592924 -0.401725
vn 0.697896 -0.592924 -0.401725
vn 0.697896 -0.592924 -0.401725
vn 0.0356346 0.967566 0.250091
vn 0.0356346 0.967566 0.250091
vn 0.181119 0.911453 0.36939
vn 0.181119 0.911453 0.36939
vn 0.181119 0.911453 0.36939
vn -0.133882 0.776608 0.615593
vn -0.133882 0.776608 0.615593
vn -0.133882 0.776608 0.615593
vn -0.133882 0.776608 0.615593
vn -0.0832993 0.652426 -0.75326
vn -0.0832993 0.652426 -0.75326
vn -0.484167 0.396834 -0.779811
vn -0.484167 0.396834 -0.779811
vn -0.484167 0.396834 -0.779811
vn -0.84332 0.500403 -0.195982
vn -0.84332 0.500403 -0.195982
vn -0.84332 0.500403 -0.195982
vn -0.133882 0.776608 0.615593
vn -0.133882 0.776608 0.615593
vn -0.133882 0.776608 0.615593
vn -0.133882 0.776608 0.615593
vn -0.989297 -0.102869 -0.103488
vn -0.989297 -0.102869 -0.103488
vn -0.84332 0.500403 -0.195982
vn -0.0832993 0.652426 -0.75326
vn 0.0356346 0.967566 0.250091
vn -0.0832993 0.652426 -0.75326
vn -0.0832993 0.652426 -0.75326
vn 0.697896 -0.592924 -0.401725
vn -0.989297 -0.102869 -0.103488
vn -0.989297 -0.102869 -0.103488
vn -0.989297 -0.102869 -0.103488
vn -0.989297 -0.102869 -0.103488
vn -0.989297 -0.102869 -0.103488
vn -0.989297 -0.102869 -0.103488
vn -0.989297 -0.102869 -0.103488
vn -0.989297 -0.102869 -0.103488
vn -0.989297 -0.102869 -0.103488
vn -0.330697 -0.440285 0.834739
vn -0.538218 -0.827197 -0.161449
vn -0.538218 -0.827197 -0.161449
vn -0.538218 -0.827197 -0.161449
vn -0.538218 -0.827197 -0.161449
vn -0.538218 -0.827197 -0.161449
vn -0.538218 -0.827197 -0.161449
vn -0.538218 -0.827197 -0.161449
vn -0.538218 -0.827197 -0.161449
vn -0.538218 -0.827197 -0.161449
vn -0.538218 -0.827197 -0.161449
vn -0.538218 -0.827197 -0.161449
vn -0.538218 -0.827197 -0.161449
vn -0.538218 -0.827197 -0.161449
vn -0.538218 -0.827197 -0.161449
vn -0.989297 -0.102869 -0.103488
vn -0.989297 -0.102869 -0.103488
vn -0.989297 -0.102869 -0.103488
vn -0.989297 -0.102869 -0.103488
vn 0.560892 0.471504 0.680503
f 1/1/1 2/2/2 3/3/3 
f 4/4/4 5/5/5 6/6/6 
f 7/7/7 8/8/8 9/9/9 
f 7/7/7 9/9/9 10/10/10 
f 3/3/3 2/2/2 11/11/11 
f 12/12/12 13/13/13 14/14/14 
f 12/12/12 14/14/14 15/15/15 
f 16/16/16 12/12/12 15/15/15 
f 17/17/17 18/18/18 19/19/19 
f 20/20/20 21/21/21 22/22/22 
f 20/20/20 22/22/22 23/23/23 
f 24/24/24 25/25/25 26/26/26 
f 27/27/27 28/28/28 29/29/29 
f 30/30/30 28/28/28 27/27/27 
f 31/31/31 28/28/28 30/30/30 
f 32/32/32 28/28/28 31/31/31 
f 32/32/32 33/33/33 28/28/28 
f 34/34/34 33/33/33 32/32/32 
f 35/35/35 33/33/33 34/34/34 
f 36/36/36 37/37/37 38/38/38 
f 39/39/39 37/37/37 36/36/36 
f 40/40/40 37/37/37 39/39/39 
f 41/41/41 37/37/37 40/40/40 
f 42/42/42 37/37/37 41/41/41 
f 37/37/37 42/42/42 43/43/43 
f 44/44/44 28/28/28 33/33/33 
f 45/45/45 46/46/46 47/47/47 
f 48/48/48 49/49/49 50/50/50 
f 51/51/51 49/49/49 48/48/48 
f 6/6/6 5/5/5 52/52/52 
f 53/53/53 9/9/9 8/8/8 
f 54/54/54 9/9/9 53/53/53 
f 15/15/15 14/14/14 55/55/55 
f 55/55/55 56/56/56 15/15/15 
f 55/55/55 57/57/57 56/56/56 
f 54/54/54 58/58/58 59/59/59 
f 60/60/60 58/58/58 54/54/54 
f 60/60/60 61/61/61 58/58/58 
f 62/62/62 61/61/61 60/60/60 
f 61/61/61 62/62/62 63/63/63 
f 64/64/64 65/65/65 66/66/66 
f 67/67/67 64/64/64 66/66/66 
f 68/68/68 67/67/67 66/66/66 
f 65/65/65 69/69/69 66/66/66 
f 63/63/63 70/70/70 71/71/71 
f 43/43/43 70/70/70 63/63/63 
f 43/43/43 72/72/72 70/70/70 
f 43/43/43 42/42/42 72/72/72 
f 73/73/73 74/74/74 75/75/75 
f 76/76/76 74/74/74 73/73/73 
f 77/77/77 74/74/74 76/76/76 
f 77/77/77 76/76/76 78/78/78 
f 79/79/79 77/77/77 78/78/78 
f 79/79/79 80/80/80 77/77/77 
f 66/66/66 69/69/69 81/81/81 
f 81/81/81 82/82/82 66/66/66 
f 83/83/83 82/82/82 81/81/81 
f 83/83/83 84/84/84 82/82/82 
f 85/85/85 84/84/84 83/83/83 
f 84/84/84 85/85/85 86/86/86 
f 84/84/84 86/86/86 87/87/87 
f 88/88/88 84/84/84 87/87/87 
f 88/88/88 89/89/89 84/84/84 
f 90/90/90 89/89/89 88/88/88 
f 91/91/91 92/92/92 93/93/93 
f 94/94/94 92/92/92 91/91/91 
f 94/94/94 95/95/95 92/92/92 
f 96/96/96 95/95/95 94/94/94 
f 96/96/96 97/97/97 95/95/95 
f 98/98/98 97/97/97 96/96/96 
f 97/97/97 98/98/98 99/99/99 
f 100/100/100 97/97/97 99/99/99 
f 101/101/101 97/97/97 100/100/100 
f 102/102/102 103/103/103 104/104/104 
f 105/105/105 103/103/103 102/102/102 
f 105/105/105 106/106/106 103/103/103 
f 106/106/106 105/105/105 107/107/107 
f 107/107/107 105/105/105 108/108/108 
f 109/109/109 93/93/93 92/92/92 
f 109/109/109 110/110/110 93/93/93 
f 108/108/108 111/111/111 112/112/112 
f 108/108/108 105/105/105 111/111/111 
f 113/113/113 114/114/114 115/115/115 
f 116/116/116 113/113/113 115/115/115 
f 117/117/117 113/113/113 116/116/116 
f 112/112/112 111/111/111 118/118/118 
f 119/119/119 120/120/120 110/110/110 
f 110/110/110 120/120/120 93/93/93 
f 93/93/93 120/120/120 121/121/121 
f 93/93/93 121/121/121 122/122/122 
f 93/93/93 122/122/122 123/123/123 
f 84/84/84 89/89/89 124/124/124 
f 84/84/84 124/124/124 125/125/125 
f 126/126/126 127/127/127 128/128/128 
f 126/126/126 128/128/128 129/129/129 
f 129/129/129 130/130/130 126/126/126 
f 129/129/129 131/131/131 130/130/130 
f 132/132/132 133/133/133 134/134/134 
f 133/133/133 132/132/132 135/135/135 
f 136/136/136 137/137/137 66/66/66 
f 136/136/136 66/66/66 82/82/82 
f 138/138/138 136/136/136 82/82/82 
f 137/137/137 139/139/139 66/66/66 
f 135/135/135 140/140/140 141/141/141 
f 135/135/135 132/132/132 140/140/140 
f 142/142/142 115/115/115 129/129/129 
f 116/116/116 115/115/115 142/142/142 
f 129/129/129 128/128/128 142/142/142 
f 141/141/141 140/140/140 143/143/143 
f 141/141/141 143/143/143 144/144/144 
f 139/139/139 145/145/145 66/66/66 
f 15/15/15 56/56/56 146/146/146 
f 144/144/144 143/143/143 147/147/147 
f 147/147/147 143/143/143 148/148/148 
f 147/147/147 148/148/148 149/149/149 
f 150/150/150 15/15/15 151/151/151 
f 16/16/16 15/15/15 150/150/150 
f 150/150/150 151/151/151 152/152/152 
f 152/152/152 151/151/151 153/153/153 
f 152/152/152 153/153/153 154/154/154 
f 26/26/26 25/25/25 155/155/155 
f 26/26/26 155/155/155 156/156/156 
f 157/157/157 158/158/158 159/159/159 
f 160/160/160 161/161/161 162/162/162 
f 160/160/160 163/163/163 161/161/161 
f 143/143/143 164/164/164 165/165/165 
f 143/143/143 140/140/140 164/164/164 
f 166/166/166 115/115/115 114/114/114 
f 167/167/167 166/166/166 114/114/114 
f 167/167/167 168/168/168 166/166/166 
f 102/102/102 169/169/169 170/170/170 
f 102/102/102 104/104/104 169/169/169 
f 169/169/169 104/104/104 171/171/171 
f 172/172/172 162/162/162 161/161/161 
f 173/173/173 162/162/162 172/172/172 
f 174/174/174 162/162/162 173/173/173 
f 175/175/175 162/162/162 174/174/174 
f 101/101/101 100/100/100 176/176/176 
f 176/176/176 177/177/177 101/101/101 
f 170/170/170 169/169/169 178/178/178 
f 165/165/165 164/164/164 179/179/179 
f 156/156/156 155/155/155 180/180/180 
f 181/181/181 148/148/148 182/182/182 
f 149/149/149 148/148/148 181/181/181 
f 154/154/154 153/153/153 183/183/183 
f 123/123/123 122/122/122 184/184/184 
f 99/99/99 98/98/98 185/185/185 
f 99/99/99 185/185/185 186/186/186 
f 186/186/186 187/187/187 99/99/99 
f 188/188/188 187/187/187 186/186/186 
f 188/188/188 189/189/189 187/187/187 
f 190/190/190 189/189/189 188/188/188 
f 191/191/191 189/189/189 190/190/190 
f 192/192/192 189/189/189 191/191/191 
f 40/40/40 39/39/39 193/193/193 
f 194/194/194 195/195/195 196/196/196 
f 197/197/197 195/195/195 194/194/194 
f 195/195/195 197/197/197 198/198/198 
f 195/195/195 198/198/198 199/199/199 
f 73/73/73 195/195/195 199/199/199 
f 73/73/73 200/200/200 195/195/195 
f 73/73/73 75/75/75 200/200/200 
f 201/201/201 199/199/199 198/198/198 
f 202/202/202 199/199/199 201/201/201 
f 203/203/203 199/199/199 202/202/202 
f 203/203/203 202/202/202 204/204/204 
f 203/203/203 204/204/204 205/205/205 
f 203/203/203 205/205/205 206/206/206 
f 203/203/203 206/206/206 207/207/207 
f 208/208/208 187/187/187 189/189/189 
f 209/209/209 187/187/187 208/208/208 
f 210/210/210 209/209/209 208/208/208 
f 211/211/211 210/210/210 208/208/208 
f 63/63/63 62/62/62 43/43/43 
f 60/60/60 54/54/54 53/53/53 
f 19/19/19 18/18/18 212/212/212 
