v 0.698124 -0.490311 -0.658819
v 0.706062 -0.50246 -0.659156
v 0.694317 -0.5026 -0.664849
v 0.706062 -0.50246 -0.659156
v 0.698124 -0.490311 -0.658819
v 0.781582 -0.507819 -0.63752
v 0.781582 -0.507819 -0.63752
v 0.702124 -0.482416 -0.613011
v 0.706062 -0.50246 -0.659156
v 0.724651 -0.45875 -0.546131
v 0.711931 -0.457063 -0.547898
v 0.726043 -0.400652 -0.610857
v 0.702124 -0.482416 -0.613011
v 0.711931 -0.457063 -0.547898
v 0.698124 -0.490311 -0.658819
v 0.694317 -0.5026 -0.664849
v 0.694317 -0.5026 -0.664849
v 0.727027 -0.395018 -0.628599
v 0.727027 -0.395018 -0.628599
v 0.741668 -0.389866 -0.623009
v 0.741668 -0.389866 -0.623009
v 0.727027 -0.395018 -0.628599
v 0.729349 -0.387435 -0.625607
v 0.741668 -0.389866 -0.623009
v 0.729349 -0.387435 -0.625607
v 0.728775 -0.389727 -0.62305
v 0.807381 -0.405143 -0.606575
v 0.726042 -0.400652 -0.610857
v 0.711931 -0.457063 -0.547898
v 0.724651 -0.45875 -0.546131
v 0.807381 -0.405143 -0.606575
v 0.724651 -0.45875 -0.546131
v 0.823828 -0.510817 -0.625417
v 0.823828 -0.510817 -0.625417
v 0.807381 -0.405143 -0.606575
v 0.823828 -0.510817 -0.625417
v 0.728776 -0.389727 -0.62305
v 0.729349 -0.387435 -0.625607
vt 0.917863 0.57352
vt 0.916769 0.57233
vt 0.918086 0.571888
vt 0.916769 0.57233
vt 0.917863 0.57352
vt 0.907019 0.574067
vt -0.808335 -0.784066
vt -0.727656 -0.751655
vt -0.731655 -0.80196
vt -0.750529 -0.680822
vt -0.737613 -0.681801
vt -0.581682 0.181418
vt -0.583837 0.266609
vt -0.518683 0.239525
vt -0.629674 0.275308
vt -0.635708 0.288171
vt -0.719729 -0.807267
vt -0.599435 0.175734
vt 0.914719 0.585719
vt 0.912866 0.58679
vt 0.912866 0.58679
vt 0.914719 0.585719
vt 0.914442 0.586756
vt -0.745836 0.203143
vt -0.733516 0.2067
vt -0.732943 0.203266
vt -0.811549 0.180708
vt -0.73021 0.186895
vt -0.716097 0.10236
vt -0.728818 0.0999181
vt -0.404189 1.00979
vt -0.457855 0.90736
vt -0.509978 1.03431
vt 0.901565 0.575039
vt 0.904319 0.587044
vt -0.85123 -0.774056
vt -0.593882 0.170166
vt -0.596442 0.167805
vn 0.414028 0.294416 -0.861336
vn 0.414028 0.294416 -0.861336
vn 0.414028 0.294416 -0.861336
vn 0.28302 0.210873 -0.935646
vn 0.28302 0.210873 -0.935646
vn 0.28302 0.210873 -0.935646
vn -0.173323 -0.908645 0.3799
vn -0.173323 -0.908645 0.3799
vn -0.173323 -0.908645 0.3799
vn -0.173323 -0.908645 0.3799
vn -0.173323 -0.908645 0.3799
vn -0.959422 0.279722 0.035578
vn -0.959422 0.279722 0.035578
vn -0.959422 0.279722 0.035578
vn -0.959422 0.279722 0.035578
vn -0.959422 0.279722 0.035578
vn -0.173323 -0.908645 0.3799
vn -0.959422 0.279722 0.035578
vn 0.28302 0.210873 -0.935646
vn 0.28302 0.210873 -0.935646
vn 0.251627 0.287578 -0.924112
vn 0.251627 0.287578 -0.924112
vn 0.251627 0.287578 -0.924112
vn 0.00591858 0.744105 0.668037
vn 0.00591858 0.744105 0.668037
vn 0.00591858 0.744105 0.668037
vn 0.00591858 0.744105 0.668037
vn 0.00591858 0.744105 0.668037
vn 0.00591858 0.744105 0.668037
vn 0.00591858 0.744105 0.668037
vn 0.608758 -0.0464671 0.791994
vn 0.608758 -0.0464671 0.791994
vn 0.608758 -0.0464671 0.791994
vn 0.28302 0.210873 -0.935646
vn 0.28302 0.210873 -0.935646
vn -0.173323 -0.908645 0.3799
vn -0.959422 0.279722 0.035578
vn -0.959422 0.279722 0.035578
f 1/1/1 2/2/2 3/3/3 
f 4/4/4 5/5/5 6/6/6 
f 7/7/7 8/8/8 9/9/9 
f 8/8/8 7/7/7 10/10/10 
f 11/11/11 8/8/8 10/10/10 
f 12/12/12 13/13/13 14/14/14 
f 15/15/15 13/13/13 12/12/12 
f 15/15/15 16/16/16 13/13/13 
f 8/8/8 17/17/17 9/9/9 
f 15/15/15 12/12/12 18/18/18 
f 19/19/19 20/20/20 5/5/5 
f 21/21/21 22/22/22 23/23/23 
f 24/24/24 25/25/25 26/26/26 
f 26/26/26 27/27/27 24/24/24 
f 28/28/28 27/27/27 26/26/26 
f 29/29/29 27/27/27 28/28/28 
f 30/30/30 27/27/27 29/29/29 
f 31/31/31 32/32/32 33/33/33 
f 34/34/34 20/20/20 35/35/35 
f 6/6/6 20/20/20 34/34/34 
f 6/6/6 5/5/5 20/20/20 
f 36/36/36 10/10/10 7/7/7 
f 18/18/18 12/12/12 37/37/37 
f 18/18/18 37/37/37 38/38/38 
