v 0.0435579 -0.013687 0.494094
v -0.00768235 -0.0442389 -0.0544855
v 0.0536666 -0.0169528 0.494354
v -0.00768235 -0.0442389 -0.0544854
v 0.043558 -0.013687 0.494094
v -0.00512725 -0.0392834 -0.0611709
v -0.00768235 -0.0442389 -0.0544855
v -0.00512728 -0.0392835 -0.0611709
v -0.00495166 -0.0457449 -0.0616615
v -0.00495166 -0.0457449 -0.0616615
v 0.019237 -0.0590843 -0.125227
v 0.07405 -0.023538 0.494877
v 0.051411 0.0009709 0.479226
v 0.0536667 -0.0169528 0.494354
v 0.0740501 -0.0235379 0.494878
v 0.043558 -0.013687 0.494094
v 0.051411 0.0009709 0.479226
v 0.0227607 0.014804 -0.134141
v 0.0227608 0.014804 -0.134141
v 0.019237 -0.0590843 -0.125227
v 0.025246 -0.062398 -0.141018
v 0.0252459 -0.062398 -0.141018
v 0.0591078 -0.0810719 -0.230003
v 0.0893871 -0.0915423 -0.237221
v 0.0791704 -0.0251922 0.495009
v 0.0791704 -0.0251922 0.495009
v 0.0796821 -0.0253574 0.495022
v 0.0899614 -0.0917409 -0.237358
v 0.079682 -0.0253575 0.495022
v 0.0898738 -0.0917106 -0.237337
v 0.0898738 -0.0917106 -0.237337
v 0.0893871 -0.0915423 -0.237221
v 0.0710933 0.020294 -0.261007
v 0.0719885 0.0278651 -0.263323
v 0.0900187 -0.0917607 -0.237372
v 0.0918873 -0.0924069 -0.237817
v 0.0981502 -0.0945725 -0.23931
v 0.0985947 -0.0947263 -0.239416
v 0.14298 -0.0458068 0.496649
v 0.0981502 -0.0945725 -0.23931
v 0.0985947 -0.0947263 -0.239416
v 0.0918873 -0.0924069 -0.237817
v 0.0900187 -0.0917607 -0.237372
v 0.0900101 -0.0917577 -0.23737
v 0.14298 -0.0458068 0.496649
v 0.143032 0.171986 0.305757
v 0.143032 0.171986 0.305757
v 0.0599471 0.0869253 -0.23144
v 0.0599471 0.0869253 -0.23144
v 0.0710933 0.020294 -0.261007
v 0.0591078 -0.0810719 -0.230003
v 0.0591078 -0.0810719 -0.230003
v 0.0719885 0.0278651 -0.263323
v 0.0808267 0.102614 -0.286185
v 0.0808267 0.102614 -0.286185
v 0.228142 0.0312017 -0.315841
v 0.141832 -0.109678 -0.249723
v 0.281184 -0.137283 -0.0438248
v 0.141832 -0.109678 -0.249723
v 0.180117 -0.0578043 0.497603
v 0.180117 -0.0578042 0.497603
v 0.187482 -0.0601839 0.497792
v 0.200028 -0.0642371 0.498114
v 0.187482 -0.0601839 0.497792
v 0.210023 -0.0686762 0.484311
v 0.200028 -0.0642371 0.498114
v 0.213685 -0.0703027 0.479254
v 0.298778 -0.140729 -0.0173718
v 0.217509 -0.0720014 0.473972
v 0.218222 -0.0723179 0.472988
v 0.34687 -0.150148 0.0549364
v 0.256801 -0.0894527 0.419707
v 0.220128 -0.0694128 0.475033
v 0.218222 -0.0723179 0.472988
v 0.256801 -0.0894527 0.419707
v 0.217509 -0.0720014 0.473972
v 0.213685 -0.0703027 0.479254
v 0.211192 -0.0645292 0.488515
v 0.210023 -0.0686762 0.484311
v 0.209941 -0.0638458 0.490402
v 0.211192 -0.0645292 0.488515
v 0.208698 -0.0615119 0.493494
v 0.209941 -0.0638458 0.490402
v 0.297721 -0.0146107 0.42947
v 0.220128 -0.0694128 0.475033
v 0.353562 -0.132895 0.280667
v 0.256801 -0.0894527 0.419707
v 0.353562 -0.132895 0.280667
v 0.385228 -0.14734 0.232509
v 0.38527 -0.14713 0.235105
v 0.385228 -0.14734 0.232509
v 0.385448 -0.146884 0.235089
v 0.38527 -0.14713 0.235105
v 0.387379 -0.144214 0.234916
v 0.387658 -0.143828 0.234891
v 0.480255 -0.0157719 0.226605
v 0.454668 -0.0597271 0.0813775
v 0.593943 0.141453 0.216431
v 0.606977 0.157025 0.173027
v 0.607145 0.158704 0.197913
v 0.607145 0.158704 0.197913
v 0.425314 0.0526115 0.337706
v 0.593943 0.141453 0.216431
v 0.601584 0.163576 0.195075
v 0.588912 0.174676 0.188608
v 0.481224 0.269009 0.133657
v 0.26088 0.391952 0.0826338
v 0.26088 0.391952 0.0826339
v 0.216098 0.329773 -0.0449042
v 0.118497 0.194253 -0.322871
v 0.118271 0.193865 -0.322784
v 0.0846326 0.134802 -0.29603
v 0.117965 0.193341 -0.322667
v 0.0846326 0.134802 -0.29603
v 0.117965 0.19334 -0.322667
v 0.144944 0.177524 -0.327368
v 0.0846326 0.134802 -0.29603
v 0.227976 0.125384 -0.340911
v 0.216098 0.329773 -0.0449042
v 0.227976 0.125384 -0.340911
v 0.144944 0.177523 -0.327368
v 0.342879 0.113099 -0.270255
v 0.242244 0.116425 -0.343238
v 0.268885 0.099696 -0.347584
v 0.268885 0.099696 -0.347584
v 0.342879 0.113099 -0.270255
v 0.228142 0.0312017 -0.315841
v 0.242244 0.116425 -0.343238
v 0.268885 0.099696 -0.347584
v 0.281184 -0.137283 -0.0438248
v 0.143913 -0.110397 -0.250219
v 0.143913 -0.110397 -0.250219
v 0.143913 -0.110397 -0.250219
v 0.378366 0.119527 -0.233168
v 0.298778 -0.140729 -0.0173718
v 0.390322 0.121693 -0.220673
v 0.34687 -0.150148 0.0549363
v 0.421693 0.127376 -0.187888
v 0.543459 0.149433 -0.0606338
v 0.591024 0.158049 -0.0109242
v 0.59307 0.156508 -0.00646124
v 0.594383 0.15552 -0.00359836
v 0.605915 0.146837 0.0215529
v 0.454668 -0.0597271 0.0813775
v 0.605953 0.146808 0.0216361
v 0.605953 0.146808 0.0216361
v 0.53073 0.216074 0.029021
v 0.606977 0.157025 0.173027
v 0.605953 0.146808 0.0216361
v 0.588912 0.174676 0.188608
v 0.481224 0.269009 0.133657
v 0.453383 0.290511 0.0802635
v 0.41997 0.322667 0.1024
v 0.41997 0.322667 0.1024
v 0.41997 0.322667 0.1024
v 0.26088 0.391952 0.0826339
v 0.453383 0.290511 0.0802635
v 0.543459 0.149433 -0.0606338
v 0.53073 0.216074 0.029021
v 0.591024 0.158049 -0.0109243
v 0.591024 0.158049 -0.0109242
v 0.59307 0.156508 -0.00646124
v 0.594383 0.15552 -0.00359836
v 0.421693 0.127376 -0.187888
v 0.390322 0.121693 -0.220673
v 0.378366 0.119527 -0.233168
v 0.601584 0.163576 0.195075
v 0.607145 0.158704 0.197913
v 0.38322 -0.157267 0.109591
v 0.38322 -0.157267 0.109591
v 0.38322 -0.157267 0.109591
v 0.119313 0.193619 -0.323187
v 0.118497 0.194253 -0.322871
v 0.118271 0.193865 -0.322784
v 0.118497 0.194253 -0.322871
v 0.119313 0.193619 -0.323187
v 0.117965 0.193341 -0.322667
v 0.119313 0.193619 -0.323187
v 0.416282 0.0478529 0.344202
v 0.313389 -0.00635581 0.418202
v 0.297721 -0.0146106 0.42947
v 0.31339 -0.00635583 0.418202
v 0.416282 0.0478529 0.344202
v 0.480255 -0.0157719 0.226605
v 0.425315 0.0526115 0.337706
v 0.593943 0.141453 0.216431
v 0.387658 -0.143828 0.234891
v 0.387379 -0.144214 0.234916
v 0.385448 -0.146884 0.235089
v 0.38527 -0.14713 0.235105
v 0.208698 -0.0615119 0.493494
v 0.201896 -0.0637358 0.497194
v 0.201896 -0.0637358 0.497194
v 0.200028 -0.0642371 0.498114
v 0.207156 -0.0623242 0.494603
v 0.207156 -0.0623242 0.494603
v 0.207156 -0.0623242 0.494603
vt 0.492484 0.0456553
vt -0.0579298 0.00637856
vt 0.492745 0.0562784
vt -0.0535834 0.0419253
vt 0.495728 -0.0105686
vt -0.0602778 0.0363606
vt -0.044282 -0.0481824
vt -0.0393265 -0.0553395
vt -0.0457879 -0.0558605
vt -0.0651298 0.00944117
vt -0.128908 0.0365698
vt 0.49327 0.0776991
vt 0.0181535 -0.315132
vt 0.0158559 -0.338583
vt -0.004906 -0.343881
vt 0.0261523 -0.335956
vt 0.48084 -0.0271799
vt -0.133345 -0.0243764
vt 0.014761 -0.133457
vt -0.0591274 -0.123873
vt -0.0624411 -0.140768
vt -0.144751 0.043309
vt -0.234034 0.0812865
vt -0.241276 0.11332
vt 0.493403 0.08308
vt -0.0101214 -0.345211
vt -0.0106426 -0.345344
vt -0.241414 0.113927
vt 0.493416 0.0836177
vt -0.241393 0.113834
vt -0.0405024 -0.159834
vt -0.0403288 -0.159335
vt 0.0750391 -0.149433
vt 0.0828493 -0.15101
vt -0.0405541 -0.159982
vt -0.0412207 -0.161896
vt -0.0434547 -0.168311
vt -0.0436133 -0.168766
vt 0.495048 0.150137
vt -0.243372 0.12259
vt -0.243479 0.12306
vt -0.241875 0.115965
vt -0.241427 0.113988
vt -0.241425 0.113979
vt -0.0751161 -0.361795
vt -0.0751693 -0.0721865
vt 0.307139 -0.220984
vt -0.230774 -0.105364
vt 0.0868824 -0.23762
vt 0.020251 -0.269218
vt -0.0811151 -0.235979
vt -0.0295277 -0.128321
vt 0.0278221 -0.271701
vt 0.10257 -0.296212
vt 0.159958 -0.166578
vt 0.0862912 -0.315756
vt -0.0590366 -0.213053
vt -0.0472334 0.309859
vt -0.25382 0.168802
vt 0.496005 0.189163
vt -0.112942 -0.371446
vt -0.120445 -0.373361
vt -0.133224 -0.376622
vt 0.496195 0.196904
vt 0.482669 0.220966
vt 0.496518 0.210088
vt 0.477594 0.224951
vt -0.0206919 0.327656
vt 0.472295 0.229114
vt 0.471307 0.229889
vt 0.0518581 0.376302
vt 0.417849 0.271876
vt -0.0340039 0.327156
vt -0.0318574 0.323743
vt -0.0752969 0.271458
vt -0.0310551 0.324708
vt -0.0267488 0.329892
vt -0.0239412 0.340729
vt -0.0226254 0.334855
vt -0.022533 0.342629
vt 0.156283 -0.220874
vt 0.159647 -0.22624
vt 0.157045 -0.223113
vt 0.211941 -0.119052
vt 0.150838 -0.204879
vt 0.0800569 0.028793
vt 0.128494 -0.139243
vt 0.278343 0.37733
vt 0.230025 0.41191
vt 0.232629 0.411886
vt 0.218845 0.10562
vt 0.221426 0.106119
vt 0.221442 0.105815
vt 0.221253 0.109414
vt 0.221229 0.109891
vt 0.212938 0.267917
vt 0.0676263 0.217296
vt 0.202758 0.461939
vt 0.159329 0.482192
vt 0.184229 0.483653
vt -0.547901 -0.0110934
vt -0.362694 -0.18302
vt -0.534453 -0.0362732
vt -0.542236 -0.00555905
vt -0.529329 0.00705098
vt -0.419641 0.114213
vt -0.195205 0.240301
vt 0.0837187 -0.470264
vt -0.0439895 -0.393921
vt -0.322327 -0.227533
vt -0.32224 -0.227083
vt -0.295451 -0.159127
vt -0.322123 -0.226476
vt 0.193163 -0.173282
vt 0.25355 -0.213291
vt 0.237234 -0.240382
vt 0.134759 -0.306767
vt 0.183448 -0.323468
vt -0.0801091 -0.146183
vt -0.0930437 0.213495
vt -0.00262818 0.17323
vt -0.218164 0.161622
vt -0.108581 0.220414
vt -0.13759 0.233333
vt -0.240224 0.258201
vt -0.151223 0.319138
vt -0.20369 0.180585
vt 0.174205 -0.337746
vt 0.156948 -0.364404
vt 0.109384 0.0958633
vt -0.128163 0.0201273
vt -0.254318 0.171004
vt -0.0597791 -0.215185
vt -0.108539 0.348363
vt 0.13983 0.10557
vt -0.0941572 0.35821
vt 0.223052 0.132104
vt -0.0564246 0.384045
vt 0.0900378 0.484324
vt 0.147251 0.523496
vt 0.152387 0.523803
vt 0.155682 0.524
vt 0.18463 0.525731
vt 0.253484 0.271994
vt 0.184725 0.525737
vt 0.00785051 0.473305
vt 0.0570804 -0.246095
vt 0.2013 -0.342216
vt 0.0496846 -0.34835
vt 0.216904 -0.316973
vt 0.161871 -0.173842
vt 0.108399 -0.138785
vt 0.130568 -0.0924274
vt -0.35725 0.175167
vt -0.30211 -0.264624
vt -0.128873 -0.286753
vt -0.338495 -0.228338
vt -0.43658 -0.0327678
vt -0.42272 -0.144343
vt -0.488376 -0.0788655
vt 0.0170762 -0.329747
vt 0.0215458 -0.332297
vt 0.0244129 -0.333933
vt -0.303986 0.0852406
vt -0.269827 0.115643
vt -0.256807 0.12723
vt 0.223379 -0.333815
vt 0.226222 -0.341207
vt 0.285957 0.152159
vt 0.106696 0.413072
vt 0.0958565 0.0963921
vt 0.025283 0.1608
vt 0.0261706 0.160185
vt 0.193364 -0.226599
vt 0.193753 -0.226841
vt 0.193119 -0.227716
vt 0.192841 -0.226271
vt 0.253837 -0.214734
vt -0.353494 -0.19088
vt -0.24869 -0.280421
vt -0.232731 -0.294056
vt 0.221145 -0.100187
vt 0.281587 0.0237009
vt 0.210647 0.153844
vt 0.286893 0.0345762
vt 0.385949 0.237613
vt 0.0678669 0.0856159
vt 0.0674366 0.0854103
vt 0.0644594 0.0839877
vt 0.0641847 0.0838563
vt -0.142055 -0.371527
vt -0.135126 -0.375638
vt -0.0134747 0.347996
vt -0.0113715 0.3484
vt -0.0193976 0.346858
vt -0.140484 -0.372869
vt 0.158742 -0.228096
vn -0.308292 -0.947787 0.081581
vn -0.308292 -0.947787 0.081581
vn -0.308292 -0.947787 0.081581
vn -0.857565 0.511781 0.0515987
vn -0.857565 0.511781 0.0515987
vn -0.857565 0.511781 0.0515987
vn -0.934504 0.00162423 -0.35595
vn -0.934504 0.00162423 -0.35595
vn -0.934504 0.00162423 -0.35595
vn -0.308292 -0.947787 0.081581
vn -0.308292 -0.947787 0.081581
vn -0.308292 -0.947787 0.081581
vn 0.190082 0.647094 0.738335
vn 0.190082 0.647094 0.738335
vn 0.190082 0.647094 0.738335
vn 0.190082 0.647094 0.738335
vn -0.857565 0.511781 0.0515987
vn -0.857565 0.511781 0.0515987
vn -0.934504 0.00162423 -0.35595
vn -0.934504 0.00162423 -0.35595
vn -0.934504 0.00162423 -0.35595
vn -0.308292 -0.947787 0.081581
vn -0.308292 -0.947787 0.081581
vn -0.308292 -0.947787 0.081581
vn -0.308292 -0.947787 0.081581
vn 0.190082 0.647094 0.738335
vn 0.190082 0.647094 0.738335
vn -0.308292 -0.947787 0.081581
vn -0.308292 -0.947787 0.081581
vn -0.308292 -0.947787 0.081581
vn -0.304302 -0.24553 -0.920389
vn -0.304302 -0.24553 -0.920389
vn -0.304302 -0.24553 -0.920389
vn -0.304302 -0.24553 -0.920389
vn -0.304302 -0.24553 -0.920389
vn -0.304302 -0.24553 -0.920389
vn -0.304302 -0.24553 -0.920389
vn -0.304302 -0.24553 -0.920389
vn -0.308292 -0.947787 0.081581
vn -0.308292 -0.947787 0.081581
vn -0.308292 -0.947787 0.081581
vn -0.308292 -0.947787 0.081581
vn -0.308292 -0.947787 0.081581
vn -0.308292 -0.947787 0.081581
vn 0.190082 0.647094 0.738335
vn 0.190082 0.647094 0.738335
vn -0.857565 0.511781 0.0515987
vn -0.857565 0.511781 0.0515987
vn -0.934504 0.00162423 -0.35595
vn -0.934504 0.00162423 -0.35595
vn -0.934504 0.00162423 -0.35595
vn -0.304302 -0.24553 -0.920389
vn -0.934504 0.00162423 -0.35595
vn -0.934504 0.00162423 -0.35595
vn -0.304302 -0.24553 -0.920389
vn -0.304302 -0.24553 -0.920389
vn -0.304302 -0.24553 -0.920389
vn -0.308292 -0.947787 0.081581
vn -0.308292 -0.947787 0.081581
vn -0.308292 -0.947787 0.081581
vn 0.190082 0.647094 0.738335
vn 0.190082 0.647094 0.738335
vn 0.190082 0.647094 0.738335
vn -0.308292 -0.947787 0.081581
vn -0.308292 -0.947787 0.081581
vn -0.308292 -0.947787 0.081581
vn -0.308292 -0.947787 0.081581
vn -0.308292 -0.947787 0.081581
vn -0.308292 -0.947787 0.081581
vn -0.308292 -0.947787 0.081581
vn -0.308292 -0.947787 0.081581
vn -0.308292 -0.947787 0.081581
vn 0.459642 -0.692828 0.555625
vn 0.459642 -0.692828 0.555625
vn 0.459642 -0.692828 0.555625
vn 0.459642 -0.692828 0.555625
vn 0.459642 -0.692828 0.555625
vn 0.459642 -0.692828 0.555625
vn 0.459642 -0.692828 0.555625
vn 0.459642 -0.692828 0.555625
vn 0.665457 -0.442279 0.601295
vn 0.665457 -0.442279 0.601295
vn 0.665457 -0.442279 0.601295
vn 0.665457 -0.442279 0.601295
vn 0.665457 -0.442279 0.601295
vn 0.665457 -0.442279 0.601295
vn 0.665457 -0.442279 0.601295
vn -0.308292 -0.947787 0.081581
vn -0.308292 -0.947787 0.081581
vn -0.308292 -0.947787 0.081581
vn 0.810918 -0.584175 0.0339365
vn 0.810918 -0.584175 0.0339365
vn 0.810918 -0.584175 0.0339365
vn 0.810918 -0.584175 0.0339365
vn 0.810918 -0.584175 0.0339365
vn 0.810918 -0.584175 0.0339365
vn 0.810918 -0.584175 0.0339365
vn 0.810918 -0.584175 0.0339365
vn 0.810918 -0.584175 0.0339365
vn 0.810918 -0.584175 0.0339365
vn 0.190082 0.647094 0.738335
vn 0.190082 0.647094 0.738335
vn 0.190082 0.647094 0.738335
vn 0.190082 0.647094 0.738335
vn 0.190082 0.647094 0.738335
vn 0.190082 0.647094 0.738335
vn 0.190082 0.647094 0.738335
vn -0.857565 0.511781 0.0515987
vn -0.857565 0.511781 0.0515987
vn -0.857565 0.511781 0.0515987
vn -0.857565 0.511781 0.0515987
vn -0.857565 0.511781 0.0515987
vn -0.857565 0.511781 0.0515987
vn -0.304302 -0.24553 -0.920389
vn -0.304302 -0.24553 -0.920389
vn -0.304302 -0.24553 -0.920389
vn -0.934504 0.00162423 -0.35595
vn -0.304302 -0.24553 -0.920389
vn 0.395801 0.763043 -0.510987
vn 0.395801 0.763043 -0.510987
vn 0.395801 0.763043 -0.510987
vn 0.395801 0.763043 -0.510987
vn 0.395801 0.763043 -0.510987
vn 0.395801 0.763043 -0.510987
vn 0.626441 -0.602063 -0.495067
vn 0.626441 -0.602063 -0.495067
vn 0.626441 -0.602063 -0.495067
vn -0.304302 -0.24553 -0.920389
vn -0.304302 -0.24553 -0.920389
vn 0.626441 -0.602063 -0.495067
vn 0.626441 -0.602063 -0.495067
vn -0.308292 -0.947787 0.081581
vn -0.304302 -0.24553 -0.920389
vn 0.626441 -0.602063 -0.495067
vn 0.626441 -0.602063 -0.495067
vn 0.626441 -0.602063 -0.495067
vn 0.626441 -0.602063 -0.495067
vn 0.626441 -0.602063 -0.495067
vn 0.626441 -0.602063 -0.495067
vn 0.626441 -0.602063 -0.495067
vn 0.626441 -0.602063 -0.495067
vn 0.626441 -0.602063 -0.495067
vn 0.626441 -0.602063 -0.495067
vn 0.626441 -0.602063 -0.495067
vn 0.626441 -0.602063 -0.495067
vn 0.810918 -0.584175 0.0339365
vn 0.673487 0.737202 -0.0543046
vn 0.673487 0.737202 -0.0543046
vn 0.673487 0.737202 -0.0543046
vn 0.673487 0.737202 -0.0543046
vn 0.673487 0.737202 -0.0543046
vn 0.673487 0.737202 -0.0543046
vn 0.673487 0.737202 -0.0543046
vn 0.190082 0.647094 0.738335
vn 0.395801 0.763043 -0.510987
vn 0.395801 0.763043 -0.510987
vn 0.395801 0.763043 -0.510987
vn 0.395801 0.763043 -0.510987
vn 0.395801 0.763043 -0.510987
vn 0.395801 0.763043 -0.510987
vn 0.673487 0.737202 -0.0543046
vn 0.673487 0.737202 -0.0543046
vn 0.673487 0.737202 -0.0543046
vn 0.395801 0.763043 -0.510987
vn 0.395801 0.763043 -0.510987
vn 0.395801 0.763043 -0.510987
vn 0.673487 0.737202 -0.0543046
vn 0.673487 0.737202 -0.0543046
vn 0.626441 -0.602063 -0.495067
vn -0.308292 -0.947787 0.081581
vn 0.810918 -0.584175 0.0339365
vn 0.395801 0.763043 -0.510987
vn 0.395801 0.763043 -0.510987
vn -0.3602 0.00193381 -0.932873
vn -0.3602 0.00193381 -0.932873
vn -0.3602 0.00193381 -0.932873
vn -0.3602 0.00193381 -0.932873
vn -0.304302 -0.24553 -0.920389
vn 0.190082 0.647094 0.738335
vn 0.190082 0.647094 0.738335
vn 0.190082 0.647094 0.738335
vn 0.665457 -0.442279 0.601295
vn 0.665457 -0.442279 0.601295
vn 0.665457 -0.442279 0.601295
vn 0.665457 -0.442279 0.601295
vn 0.665457 -0.442279 0.601295
vn 0.665457 -0.442279 0.601295
vn 0.665457 -0.442279 0.601295
vn 0.665457 -0.442279 0.601295
vn 0.665457 -0.442279 0.601295
vn 0.190082 0.647094 0.738335
vn 0.190082 0.647094 0.738335
vn 0.459642 -0.692828 0.555625
vn 0.459642 -0.692828 0.555625
vn 0.459642 -0.692828 0.555625
vn 0.190082 0.647094 0.738335
vn 0.665457 -0.442279 0.601295
f 1/1/1 2/2/2 3/3/3 
f 4/4/4 5/5/5 6/6/6 
f 7/7/7 8/8/8 9/9/9 
f 3/3/3 2/2/2 10/10/10 
f 3/3/3 10/10/10 11/11/11 
f 3/3/3 11/11/11 12/12/12 
f 13/13/13 14/14/14 15/15/15 
f 13/13/13 16/16/16 14/14/14 
f 6/6/6 5/5/5 17/17/17 
f 6/6/6 17/17/17 18/18/18 
f 19/19/19 20/20/20 8/8/8 
f 20/20/20 19/19/19 21/21/21 
f 12/12/12 11/11/11 22/22/22 
f 23/23/23 12/12/12 22/22/22 
f 24/24/24 12/12/12 23/23/23 
f 12/12/12 24/24/24 25/25/25 
f 15/15/15 26/26/26 13/13/13 
f 26/26/26 27/27/27 13/13/13 
f 25/25/25 28/28/28 29/29/29 
f 25/25/25 30/30/30 28/28/28 
f 25/25/25 24/24/24 30/30/30 
f 31/31/31 32/32/32 33/33/33 
f 34/34/34 31/31/31 33/33/33 
f 34/34/34 35/35/35 31/31/31 
f 34/34/34 36/36/36 35/35/35 
f 34/34/34 37/37/37 36/36/36 
f 38/38/38 37/37/37 34/34/34 
f 39/39/39 40/40/40 41/41/41 
f 39/39/39 42/42/42 40/40/40 
f 29/29/29 42/42/42 39/39/39 
f 29/29/29 43/43/43 42/42/42 
f 29/29/29 44/44/44 43/43/43 
f 29/29/29 28/28/28 44/44/44 
f 27/27/27 45/45/45 13/13/13 
f 13/13/13 45/45/45 46/46/46 
f 18/18/18 17/17/17 47/47/47 
f 18/18/18 47/47/47 48/48/48 
f 19/19/19 49/49/49 21/21/21 
f 50/50/50 21/21/21 49/49/49 
f 51/51/51 21/21/21 50/50/50 
f 52/52/52 33/33/33 32/32/32 
f 49/49/49 53/53/53 50/50/50 
f 53/53/53 49/49/49 54/54/54 
f 34/34/34 55/55/55 56/56/56 
f 57/57/57 34/34/34 56/56/56 
f 34/34/34 57/57/57 38/38/38 
f 58/58/58 41/41/41 59/59/59 
f 39/39/39 41/41/41 58/58/58 
f 39/39/39 58/58/58 60/60/60 
f 46/46/46 45/45/45 61/61/61 
f 46/46/46 61/61/61 62/62/62 
f 62/62/62 63/63/63 46/46/46 
f 64/64/64 65/65/65 66/66/66 
f 64/64/64 67/67/67 65/65/65 
f 68/68/68 67/67/67 64/64/64 
f 68/68/68 69/69/69 67/67/67 
f 68/68/68 70/70/70 69/69/69 
f 71/71/71 70/70/70 68/68/68 
f 70/70/70 71/71/71 72/72/72 
f 73/73/73 74/74/74 75/75/75 
f 73/73/73 76/76/76 74/74/74 
f 73/73/73 77/77/77 76/76/76 
f 78/78/78 77/77/77 73/73/73 
f 78/78/78 79/79/79 77/77/77 
f 78/78/78 80/80/80 79/79/79 
f 81/81/81 82/82/82 83/83/83 
f 81/81/81 84/84/84 82/82/82 
f 85/85/85 84/84/84 81/81/81 
f 85/85/85 86/86/86 84/84/84 
f 87/87/87 86/86/86 85/85/85 
f 72/72/72 71/71/71 88/88/88 
f 89/89/89 88/88/88 71/71/71 
f 89/89/89 90/90/90 88/88/88 
f 91/91/91 92/92/92 93/93/93 
f 91/91/91 94/94/94 92/92/92 
f 91/91/91 95/95/95 94/94/94 
f 91/91/91 96/96/96 95/95/95 
f 97/97/97 96/96/96 91/91/91 
f 97/97/97 98/98/98 96/96/96 
f 99/99/99 98/98/98 97/97/97 
f 100/100/100 98/98/98 99/99/99 
f 101/101/101 102/102/102 103/103/103 
f 104/104/104 102/102/102 101/101/101 
f 104/104/104 46/46/46 102/102/102 
f 105/105/105 46/46/46 104/104/104 
f 46/46/46 105/105/105 106/106/106 
f 46/46/46 106/106/106 107/107/107 
f 47/47/47 108/108/108 109/109/109 
f 48/48/48 47/47/47 109/109/109 
f 110/110/110 48/48/48 109/109/109 
f 111/111/111 48/48/48 110/110/110 
f 111/111/111 112/112/112 48/48/48 
f 113/113/113 112/112/112 111/111/111 
f 114/114/114 115/115/115 116/116/116 
f 114/114/114 116/116/116 55/55/55 
f 49/49/49 117/117/117 54/54/54 
f 116/116/116 118/118/118 55/55/55 
f 119/119/119 120/120/120 121/121/121 
f 122/122/122 120/120/120 119/119/119 
f 122/122/122 123/123/123 120/120/120 
f 122/122/122 124/124/124 123/123/123 
f 125/125/125 126/126/126 127/127/127 
f 56/56/56 128/128/128 129/129/129 
f 118/118/118 128/128/128 56/56/56 
f 118/118/118 56/56/56 55/55/55 
f 127/127/127 126/126/126 130/130/130 
f 130/130/130 131/131/131 127/127/127 
f 58/58/58 59/59/59 132/132/132 
f 57/57/57 56/56/56 133/133/133 
f 130/130/130 126/126/126 134/134/134 
f 134/134/134 135/135/135 130/130/130 
f 136/136/136 135/135/135 134/134/134 
f 136/136/136 137/137/137 135/135/135 
f 138/138/138 137/137/137 136/136/136 
f 139/139/139 137/137/137 138/138/138 
f 140/140/140 137/137/137 139/139/139 
f 141/141/141 137/137/137 140/140/140 
f 142/142/142 137/137/137 141/141/141 
f 137/137/137 142/142/142 143/143/143 
f 143/143/143 144/144/144 137/137/137 
f 145/145/145 144/144/144 143/143/143 
f 97/97/97 146/146/146 99/99/99 
f 147/147/147 148/148/148 149/149/149 
f 147/147/147 150/150/150 148/148/148 
f 151/151/151 150/150/150 147/147/147 
f 152/152/152 151/151/151 147/147/147 
f 153/153/153 151/151/151 152/152/152 
f 107/107/107 106/106/106 154/154/154 
f 155/155/155 119/119/119 156/156/156 
f 157/157/157 119/119/119 155/155/155 
f 157/157/157 158/158/158 119/119/119 
f 159/159/159 158/158/158 157/157/157 
f 158/158/158 159/159/159 160/160/160 
f 161/161/161 147/147/147 162/162/162 
f 162/162/162 147/147/147 163/163/163 
f 163/163/163 147/147/147 149/149/149 
f 164/164/164 119/119/119 158/158/158 
f 165/165/165 119/119/119 164/164/164 
f 166/166/166 119/119/119 165/165/165 
f 122/122/122 119/119/119 166/166/166 
f 150/150/150 167/167/167 148/148/148 
f 167/167/167 168/168/168 148/148/148 
f 137/137/137 144/144/144 169/169/169 
f 89/89/89 71/71/71 170/170/170 
f 97/97/97 91/91/91 171/171/171 
f 64/64/64 58/58/58 68/68/68 
f 60/60/60 58/58/58 64/64/64 
f 172/172/172 119/119/119 121/121/121 
f 173/173/173 119/119/119 172/172/172 
f 174/174/174 175/175/175 176/176/176 
f 177/177/177 174/174/174 176/176/176 
f 116/116/116 115/115/115 178/178/178 
f 46/46/46 179/179/179 102/102/102 
f 46/46/46 180/180/180 179/179/179 
f 180/180/180 46/46/46 181/181/181 
f 86/86/86 182/182/182 84/84/84 
f 86/86/86 183/183/183 182/182/182 
f 184/184/184 183/183/183 86/86/86 
f 184/184/184 185/185/185 183/183/183 
f 184/184/184 186/186/186 185/185/185 
f 187/187/187 184/184/184 86/86/86 
f 187/187/187 86/86/86 188/188/188 
f 188/188/188 86/86/86 189/189/189 
f 189/189/189 86/86/86 190/190/190 
f 181/181/181 46/46/46 191/191/191 
f 46/46/46 192/192/192 191/191/191 
f 46/46/46 63/63/63 192/192/192 
f 79/79/79 193/193/193 194/194/194 
f 80/80/80 193/193/193 79/79/79 
f 193/193/193 80/80/80 195/195/195 
f 191/191/191 192/192/192 196/196/196 
f 83/83/83 82/82/82 197/197/197 
f 8/8/8 20/20/20 9/9/9 
