v 0.456693 1.91119 -0.710579
v 0.433592 1.90341 -0.730443
v 0.450866 1.91515 -0.709908
v 0.433592 1.90341 -0.730443
v 0.456693 1.91119 -0.710579
v 0.379165 1.86267 -0.775657
v 0.341664 1.82788 -0.771718
v 0.433592 1.90341 -0.730443
v 0.379166 1.86267 -0.775657
v 0.347144 1.82673 -0.739741
v 0.356049 1.82487 -0.687784
v 0.377581 1.84214 -0.675945
v 0.450866 1.91515 -0.709908
v 0.450866 1.91515 -0.709908
v 0.377581 1.84214 -0.675944
v 0.45899 1.89209 -0.707199
v 0.456693 1.91119 -0.710579
v 0.45899 1.89209 -0.707199
v 0.399942 1.70194 -0.745935
v 0.372063 1.71089 -0.771204
v 0.36403 1.71346 -0.778484
v 0.353266 1.71692 -0.78824
v 0.379165 1.86267 -0.775657
v 0.353266 1.71692 -0.78824
v 0.341664 1.82788 -0.771719
v 0.350364 1.71931 -0.787297
v 0.350364 1.71931 -0.787297
v 0.347144 1.82673 -0.739741
v 0.341664 1.82788 -0.771718
v 0.350898 1.72055 -0.783341
v 0.356049 1.82487 -0.687784
v 0.352059 1.72325 -0.774732
v 0.359513 1.82414 -0.667571
v 0.352655 1.72464 -0.770319
v 0.358862 1.7391 -0.724306
v 0.368009 1.7604 -0.656506
v 0.359513 1.82414 -0.667571
v 0.368009 1.7604 -0.656506
v 0.380131 1.75152 -0.65777
v 0.405583 1.73287 -0.660422
v 0.359513 1.82414 -0.667571
v 0.428901 1.71579 -0.662853
v 0.430256 1.7148 -0.662994
v 0.480221 1.67819 -0.668201
v 0.485142 1.67459 -0.668714
v 0.458811 1.68304 -0.692579
v 0.485142 1.67459 -0.668714
v 0.416139 1.69674 -0.731255
v 0.416139 1.69674 -0.731255
v 0.358862 1.7391 -0.724306
v 0.399942 1.70194 -0.745935
v 0.405583 1.73287 -0.660422
v 0.380131 1.75152 -0.65777
v 0.368009 1.7604 -0.656506
v 0.428901 1.71579 -0.662853
v 0.430256 1.7148 -0.662994
v 0.458811 1.68304 -0.692579
v 0.480221 1.67819 -0.668201
v 0.485142 1.67459 -0.668714
v 0.372063 1.71089 -0.771204
v 0.352655 1.72464 -0.770319
v 0.36403 1.71346 -0.778484
v 0.352059 1.72325 -0.774732
v 0.350898 1.72055 -0.783341
v 0.353266 1.71692 -0.78824
v 0.350364 1.71931 -0.787297
vt 0.944273 0.909077
vt 0.947623 0.909336
vt 0.944155 0.910126
vt 0.947623 0.909336
vt 0.944273 0.909077
vt 0.956053 0.906664
vt -0.921838 -1.48143
vt -0.88015 -1.60027
vt -0.925816 -1.53259
vt -0.889541 -1.48472
vt -0.837064 -1.49006
vt -0.825107 -1.51761
vt -0.85941 -1.62095
vt 1.99109 0.613079
vt 1.91661 0.533655
vt 1.96756 0.620276
vt 1.98704 0.618891
vt 0.944418 0.906138
vt 0.957076 0.881848
vt 0.960677 0.884849
vt 0.961714 0.885714
vt 0.963104 0.886872
vt 0.151448 0.653321
vt 0.140124 0.633267
vt 0.150071 0.645449
vt 0.14045 0.633268
vt 1.66167 -0.718533
vt 1.76967 -0.672164
vt 1.77082 -0.704607
vt 1.66292 -0.714543
vt 1.76779 -0.619449
vt 1.66564 -0.70586
vt 1.76706 -0.598942
vt 1.66704 -0.70141
vt 1.68157 -0.655004
vt 1.70299 -0.586625
vt 1.89825 0.514073
vt 1.83323 0.519554
vt 1.82417 0.53161
vt 1.80515 0.556924
vt -0.816649 -1.49214
vt 1.78772 0.580114
vt 1.78671 0.581461
vt 1.74937 0.631154
vt 1.74569 0.636048
vt 0.949472 0.87551
vt 0.946071 0.872676
vt 0.954984 0.880104
vt -0.174345 -0.621311
vt -0.167017 -0.692514
vt -0.189829 -0.637595
vt -0.0996392 -0.650526
vt -0.0968415 -0.682066
vt -0.095509 -0.697087
vt -0.102202 -0.621632
vt -0.102351 -0.619953
vt -0.133555 -0.578412
vt -0.107843 -0.558038
vt -0.108384 -0.55194
vt -0.21648 -0.665624
vt -0.215546 -0.68941
vt -0.224158 -0.673699
vt -0.220201 -0.689112
vt -0.229281 -0.688532
vt -0.234448 -0.684521
vt -0.233453 -0.688265
vn 0.361334 0.645308 -0.673064
vn 0.361334 0.645308 -0.673064
vn 0.361334 0.645308 -0.673064
vn 0.661245 -0.0529 -0.748303
vn 0.661245 -0.0529 -0.748303
vn 0.661245 -0.0529 -0.748303
vn -0.665399 0.733173 0.140364
vn -0.665399 0.733173 0.140364
vn -0.665399 0.733173 0.140364
vn -0.665399 0.733173 0.140364
vn -0.665399 0.733173 0.140364
vn -0.665399 0.733173 0.140364
vn -0.665399 0.733173 0.140364
vn 0.243523 0.197306 0.949614
vn 0.243523 0.197306 0.949614
vn 0.243523 0.197306 0.949614
vn 0.243523 0.197306 0.949614
vn 0.661245 -0.0529 -0.748303
vn 0.661245 -0.0529 -0.748303
vn 0.661245 -0.0529 -0.748303
vn 0.661245 -0.0529 -0.748303
vn 0.661245 -0.0529 -0.748303
vn -0.214791 0.121825 -0.969032
vn -0.214791 0.121825 -0.969032
vn -0.214791 0.121825 -0.969032
vn -0.214791 0.121825 -0.969032
vn -0.981071 -0.102216 0.164472
vn -0.981071 -0.102216 0.164472
vn -0.981071 -0.102216 0.164472
vn -0.981071 -0.102216 0.164472
vn -0.981071 -0.102216 0.164472
vn -0.981071 -0.102216 0.164472
vn -0.981071 -0.102216 0.164472
vn -0.981071 -0.102216 0.164472
vn -0.981071 -0.102216 0.164472
vn -0.981071 -0.102216 0.164472
vn 0.243523 0.197306 0.949614
vn 0.243523 0.197306 0.949614
vn 0.243523 0.197306 0.949614
vn 0.243523 0.197306 0.949614
vn -0.665399 0.733173 0.140364
vn 0.243523 0.197306 0.949614
vn 0.243523 0.197306 0.949614
vn 0.243523 0.197306 0.949614
vn 0.243523 0.197306 0.949614
vn 0.661245 -0.0529 -0.748303
vn 0.661245 -0.0529 -0.748303
vn 0.661245 -0.0529 -0.748303
vn -0.538573 -0.780327 0.31785
vn -0.538573 -0.780327 0.31785
vn -0.538573 -0.780327 0.31785
vn -0.538573 -0.780327 0.31785
vn -0.538573 -0.780327 0.31785
vn -0.538573 -0.780327 0.31785
vn -0.538573 -0.780327 0.31785
vn -0.538573 -0.780327 0.31785
vn -0.538573 -0.780327 0.31785
vn -0.538573 -0.780327 0.31785
vn -0.538573 -0.780327 0.31785
vn -0.538573 -0.780327 0.31785
vn -0.538573 -0.780327 0.31785
vn -0.538573 -0.780327 0.31785
vn -0.538573 -0.780327 0.31785
vn -0.538573 -0.780327 0.31785
vn -0.538573 -0.780327 0.31785
vn -0.538573 -0.780327 0.31785
f 1/1/1 2/2/2 3/3/3 
f 4/4/4 5/5/5 6/6/6 
f 7/7/7 8/8/8 9/9/9 
f 10/10/10 8/8/8 7/7/7 
f 8/8/8 10/10/10 11/11/11 
f 8/8/8 11/11/11 12/12/12 
f 8/8/8 12/12/12 13/13/13 
f 14/14/14 15/15/15 16/16/16 
f 17/17/17 14/14/14 16/16/16 
f 6/6/6 5/5/5 18/18/18 
f 19/19/19 6/6/6 18/18/18 
f 20/20/20 6/6/6 19/19/19 
f 21/21/21 6/6/6 20/20/20 
f 22/22/22 6/6/6 21/21/21 
f 23/23/23 24/24/24 25/25/25 
f 25/25/25 24/24/24 26/26/26 
f 27/27/27 28/28/28 29/29/29 
f 30/30/30 28/28/28 27/27/27 
f 30/30/30 31/31/31 28/28/28 
f 32/32/32 31/31/31 30/30/30 
f 32/32/32 33/33/33 31/31/31 
f 34/34/34 33/33/33 32/32/32 
f 33/33/33 34/34/34 35/35/35 
f 33/33/33 35/35/35 36/36/36 
f 37/37/37 38/38/38 39/39/39 
f 37/37/37 39/39/39 40/40/40 
f 37/37/37 40/40/40 15/15/15 
f 12/12/12 11/11/11 41/41/41 
f 15/15/15 40/40/40 42/42/42 
f 15/15/15 42/42/42 43/43/43 
f 43/43/43 16/16/16 15/15/15 
f 44/44/44 16/16/16 43/43/43 
f 45/45/45 16/16/16 44/44/44 
f 46/46/46 18/18/18 47/47/47 
f 18/18/18 46/46/46 48/48/48 
f 19/19/19 18/18/18 48/48/48 
f 49/49/49 50/50/50 51/51/51 
f 50/50/50 49/49/49 52/52/52 
f 52/52/52 53/53/53 50/50/50 
f 53/53/53 54/54/54 50/50/50 
f 55/55/55 52/52/52 49/49/49 
f 56/56/56 55/55/55 49/49/49 
f 57/57/57 56/56/56 49/49/49 
f 58/58/58 56/56/56 57/57/57 
f 59/59/59 58/58/58 57/57/57 
f 51/51/51 50/50/50 60/60/60 
f 50/50/50 61/61/61 60/60/60 
f 60/60/60 61/61/61 62/62/62 
f 61/61/61 63/63/63 62/62/62 
f 62/62/62 63/63/63 64/64/64 
f 62/62/62 64/64/64 65/65/65 
f 65/65/65 64/64/64 66/66/66 
