v 0.750525 -1.51181 -0.932363
v 0.813335 -1.42496 -0.844673
v 0.80653 -1.47297 -0.854648
v 0.762569 -1.50101 -0.862183
v 0.813335 -1.42497 -0.844673
v 0.750525 -1.51181 -0.932363
v 0.764345 -1.49891 -0.856363
v 0.813335 -1.42496 -0.844673
v 0.764345 -1.49891 -0.856363
v 0.80653 -1.47297 -0.854648
v 0.764889 -1.49928 -0.856496
v 0.79948 -1.52269 -0.864982
v 0.786447 -1.52503 -0.882985
v 0.79948 -1.52269 -0.864982
v 0.744698 -1.53251 -0.940654
v 0.750525 -1.51181 -0.932363
v 0.744698 -1.53251 -0.940654
v 0.736687 -1.53146 -0.946986
v 0.739192 -1.52851 -0.938776
v 0.736687 -1.53146 -0.946985
v 0.741067 -1.5263 -0.932633
v 0.741578 -1.5257 -0.930958
v 0.786447 -1.52503 -0.882985
v 0.762568 -1.50101 -0.862184
v 0.741578 -1.5257 -0.930959
v 0.79948 -1.52269 -0.864982
v 0.764889 -1.49928 -0.856497
v 0.764345 -1.49891 -0.856363
v 0.744697 -1.53251 -0.940654
v 0.741067 -1.5263 -0.932634
v 0.739192 -1.52851 -0.938776
v 0.736686 -1.53146 -0.946986
vt 0.892672 0.452853
vt 0.885509 0.467015
vt 0.884984 0.461322
vt -0.773576 0.841703
vt -0.756035 0.750279
vt -0.843881 0.857327
vt -0.767746 0.838982
vt -0.857801 -1.57384
vt -0.808598 -1.64857
vt -0.850966 -1.62286
vt -0.809144 -1.64895
vt -0.843886 -1.67365
vt 0.886455 0.454177
vt 0.88444 0.455426
vt 0.89291 0.450177
vt 0.892672 0.452853
vt 0.89291 0.450177
vt 0.893956 0.449923
vt -0.850306 0.877506
vt -0.85853 0.881343
vt -0.844152 0.874634
vt -0.842474 0.873851
vt -1.20391 1.42234
vt -1.181 1.38986
vt -1.25675 1.38331
vt -1.18409 1.43265
vt -1.17474 1.39107
vt -1.17459 1.39041
vt -1.26743 1.38932
vt -1.25859 1.38315
vt -1.26536 1.38257
vt -1.2744 1.38179
vn 0.809549 0.00721439 -0.587008
vn 0.809549 0.00721439 -0.587008
vn 0.809549 0.00721439 -0.587008
vn -0.836494 0.544712 0.0597137
vn -0.836494 0.544712 0.0597137
vn -0.836494 0.544712 0.0597137
vn -0.836494 0.544712 0.0597137
vn 0.0928468 -0.215183 0.97215
vn 0.0928468 -0.215183 0.97215
vn 0.0928468 -0.215183 0.97215
vn 0.0928468 -0.215183 0.97215
vn 0.0928468 -0.215183 0.97215
vn 0.809549 0.00721439 -0.587008
vn 0.809549 0.00721439 -0.587008
vn 0.809549 0.00721439 -0.587008
vn 0.625297 0.132011 -0.769141
vn 0.625297 0.132011 -0.769141
vn 0.625297 0.132011 -0.769141
vn -0.836494 0.544712 0.0597137
vn -0.836494 0.544712 0.0597137
vn -0.836494 0.544712 0.0597137
vn -0.836494 0.544712 0.0597137
vn -0.436156 -0.79634 0.41906
vn -0.436156 -0.79634 0.41906
vn -0.436156 -0.79634 0.41906
vn -0.436156 -0.79634 0.41906
vn -0.436156 -0.79634 0.41906
vn -0.436156 -0.79634 0.41906
vn -0.436156 -0.79634 0.41906
vn -0.436156 -0.79634 0.41906
vn -0.436156 -0.79634 0.41906
vn -0.436156 -0.79634 0.41906
f 1/1/1 2/2/2 3/3/3 
f 4/4/4 5/5/5 6/6/6 
f 7/7/7 5/5/5 4/4/4 
f 8/8/8 9/9/9 10/10/10 
f 10/10/10 9/9/9 11/11/11 
f 10/10/10 11/11/11 12/12/12 
f 13/13/13 3/3/3 14/14/14 
f 13/13/13 1/1/1 3/3/3 
f 15/15/15 1/1/1 13/13/13 
f 16/16/16 17/17/17 18/18/18 
f 19/19/19 6/6/6 20/20/20 
f 6/6/6 19/19/19 21/21/21 
f 6/6/6 21/21/21 22/22/22 
f 4/4/4 6/6/6 22/22/22 
f 23/23/23 24/24/24 25/25/25 
f 26/26/26 24/24/24 23/23/23 
f 27/27/27 24/24/24 26/26/26 
f 27/27/27 28/28/28 24/24/24 
f 25/25/25 29/29/29 23/23/23 
f 29/29/29 25/25/25 30/30/30 
f 29/29/29 30/30/30 31/31/31 
f 29/29/29 31/31/31 32/32/32 
