v 1.2288 -1.3557 -0.0382
v 1.22851 -1.3528 -0.0382546
v 1.18142 -1.34859 0.0298403
v 1.2288 -1.3557 -0.0382
v 1.22855 -1.35519 -0.0394315
v 1.22851 -1.3528 -0.0382546
v 1.2288 -1.3557 -0.0382
v 1.22851 -1.35545 -0.0395666
v 1.22855 -1.35519 -0.0394315
v 1.21357 -1.44598 -0.085725
v 1.21361 -1.4451 -0.0857538
v 1.21365 -1.44421 -0.0857832
v 1.21365 -1.44414 -0.0857856
v 1.22851 -1.35545 -0.0395666
v 1.21365 -1.44414 -0.0857857
v 1.20845 -1.43968 -0.0843921
v 1.22851 -1.3528 -0.0382546
v 1.20828 -1.43953 -0.0843462
v 1.20814 -1.43941 -0.084307
v 1.18544 -1.33657 -0.0369553
v 1.1935 -1.42686 -0.0803843
v 1.18265 -1.41755 -0.0774758
v 1.16772 -1.37852 -0.0604872
v 1.17229 -1.40867 -0.0746989
v 1.16911 -1.40594 -0.0738458
v 1.16897 -1.40921 -0.0737405
v 1.16772 -1.37852 -0.0604872
v 1.16911 -1.40594 -0.0738458
v 1.16881 -1.41299 -0.0736187
v 1.16606 -1.34574 -0.0445226
v 1.16867 -1.41639 -0.073509
v 1.16855 -1.41923 -0.0734176
v 1.16853 -1.41968 -0.073403
v 1.1586 -1.35561 -0.0046064
v 1.16759 -1.4421 -0.0726808
v 1.16611 -1.47725 -0.0715483
v 1.16579 -1.48495 -0.0713004
v 1.14875 -1.36864 0.0480858
v 1.16577 -1.48553 -0.0712817
v 1.16181 -1.50552 -0.0531149
v 1.16571 -1.48686 -0.0712388
v 1.16181 -1.50552 -0.0531147
v 1.16571 -1.48686 -0.0712389
v 1.18483 -1.5035 -0.0763596
v 1.21205 -1.54584 -0.0691919
v 1.16099 -1.50942 -0.0493321
v 1.16099 -1.50942 -0.0493322
v 1.12757 -1.39664 0.161299
v 1.15426 -1.54162 -0.0180546
v 1.15258 -1.54965 -0.0102606
v 1.09479 -1.77161 0.269138
v 1.08357 -1.54874 0.377514
v 1.18142 -1.34859 0.0298403
v 1.12758 -1.39664 0.161299
v 1.08357 -1.54874 0.377514
v 1.12758 -1.39664 0.161298
v 1.18142 -1.34859 0.0298403
v 1.14875 -1.36864 0.0480859
v 1.1586 -1.35561 -0.00460632
v 1.16736 -1.34512 -0.044016
v 1.16607 -1.34574 -0.0445225
v 1.16607 -1.34574 -0.0445226
v 1.16736 -1.34512 -0.044016
v 1.17863 -1.33979 -0.0396153
v 1.17863 -1.33979 -0.0396153
v 1.18544 -1.33657 -0.0369553
v 1.1901 -1.33436 -0.0351331
v 1.1901 -1.33436 -0.0351331
v 1.21596 -1.32213 -0.0250341
v 1.21596 -1.32213 -0.0250342
v 1.21596 -1.32213 -0.0250342
v 1.2288 -1.3557 -0.0382
v 1.06682 -1.60663 0.459801
v 1.12536 -1.74351 0.165462
v 1.2288 -1.3557 -0.0382
v 1.06682 -1.60663 0.459801
v 1.17203 -1.63708 0.0391218
v 1.21205 -1.54584 -0.0691921
v 1.21002 -1.52541 -0.0831051
v 1.21205 -1.54584 -0.0691921
v 1.21262 -1.46725 -0.0850234
v 1.20828 -1.43953 -0.084346
v 1.21357 -1.44598 -0.0857249
v 1.21262 -1.46725 -0.0850233
v 1.20845 -1.43968 -0.084392
v 1.21361 -1.4451 -0.0857537
v 1.21365 -1.44414 -0.0857855
v 1.20814 -1.43941 -0.0843069
v 1.16759 -1.4421 -0.0726807
v 1.1935 -1.42686 -0.0803842
v 1.18265 -1.41755 -0.0774756
v 1.16853 -1.41968 -0.0734029
v 1.16855 -1.41923 -0.0734174
v 1.16867 -1.41639 -0.0735089
v 1.17229 -1.40867 -0.0746988
v 1.16881 -1.41299 -0.0736186
v 1.16897 -1.40921 -0.0737403
v 1.16911 -1.40594 -0.0738457
v 1.16611 -1.47725 -0.0715481
v 1.18483 -1.5035 -0.0763595
v 1.16579 -1.48495 -0.0713003
v 1.16577 -1.48553 -0.0712816
v 1.16571 -1.48686 -0.0712387
v 1.21002 -1.52541 -0.0831049
v 1.21002 -1.52541 -0.0831051
v 1.15258 -1.54965 -0.0102605
v 1.17203 -1.63708 0.0391219
v 1.15426 -1.54162 -0.0180545
v 1.11204 -1.74348 0.177978
v 1.11204 -1.74348 0.177978
v 1.10842 -1.76079 0.194794
v 1.10704 -1.76738 0.201189
v 1.10312 -1.78614 0.219406
v 1.09979 -1.80204 0.234849
v 1.09479 -1.77161 0.269138
v 1.09979 -1.80204 0.234849
v 1.10673 -1.78601 0.215911
v 1.11472 -1.76778 0.194273
v 1.11472 -1.76778 0.194273
v 1.12536 -1.74351 0.165462
v 1.10842 -1.76079 0.194794
v 1.10704 -1.76738 0.201189
v 1.10673 -1.78601 0.215912
v 1.10312 -1.78614 0.219406
v 1.09979 -1.80204 0.234849
v 1.06682 -1.60663 0.459801
v 1.22855 -1.35519 -0.0394314
vt 0.797 0.5094
vt 0.797075 0.509697
vt 0.787585 0.51128
vt 0.797 0.5094
vt 0.79715 0.509424
vt 0.797075 0.509697
vt 0.797 0.5094
vt 0.797161 0.509399
vt 0.79715 0.509424
vt 0.801032 0.500802
vt 0.80105 0.500877
vt 0.801067 0.500954
vt 0.801068 0.50096
vt -1.29515 1.23234
vt -1.28015 1.33232
vt -1.27489 1.32771
vt -1.29515 1.22938
vt -1.27472 1.32756
vt -1.27457 1.32743
vt -1.25166 1.21426
vt -1.2598 1.31444
vt -1.24884 1.30481
vt -1.23377 1.26229
vt -1.23838 1.29562
vt -1.23516 1.29279
vt -1.36776 -0.277515
vt -1.33704 -0.264248
vt -1.36449 -0.277643
vt -1.37154 -0.277368
vt -1.30425 -0.248241
vt -1.37495 -0.277234
vt -1.37778 -0.277124
vt -1.37824 -0.277106
vt -1.31412 -0.207634
vt -1.40067 -0.27623
vt -1.43585 -0.274856
vt -1.44354 -0.274556
vt -1.32716 -0.154031
vt -1.44412 -0.274533
vt -1.46413 -0.255954
vt -1.44546 -0.274481
vt -1.68356 -0.882354
vt -1.66214 -0.897619
vt -1.68123 -0.915053
vt -1.72984 -0.929955
vt -1.68803 -0.879168
vt -1.46803 -0.252087
vt -1.35518 -0.038859
vt -1.50026 -0.220113
vt -1.50829 -0.212145
vt -1.73039 0.0730574
vt -1.50738 0.181723
vt 0.787585 0.51128
vt 0.771155 0.507677
vt 0.746213 0.493195
vt 0.388316 -0.340766
vt 0.25574 -0.410863
vt 0.274141 -0.372597
vt 0.221 -0.387411
vt 0.181256 -0.400067
vt 0.180745 -0.398634
vt -1.2321 1.22583
vt -1.2334 1.22506
vt -1.24478 1.21833
vt 0.185694 -0.412518
vt 0.188376 -0.420043
vt 0.190214 -0.425198
vt -1.25637 1.21147
vt -1.28247 1.19603
vt 0.79593 0.513077
vt 0.200399 -0.45377
vt 0.797 0.5094
vt 0.736721 0.487684
vt 0.767906 0.475123
vt 0.797 0.5094
vt 0.736721 0.487684
vt 0.783864 0.484441
vt 0.797546 0.492429
vt 0.79947 0.493968
vt 0.797546 0.492429
vt 0.800614 0.498972
vt -1.44413 -1.18504
vt -1.45058 -1.1905
vt -1.47185 -1.18939
vt -1.44428 -1.18521
vt -1.44971 -1.19055
vt -1.44874 -1.1906
vt -1.44401 -1.18489
vt -1.4467 -1.1427
vt -1.43146 -1.16974
vt -1.42215 -1.1585
vt -1.42428 -1.14381
vt -1.42383 -1.14383
vt -1.42099 -1.14397
vt -1.41327 -1.14778
vt -1.41759 -1.14414
vt -1.41381 -1.14432
vt -1.41054 -1.14448
vt -1.48186 -1.14098
vt -1.50811 -1.1603
vt -1.48956 -1.1406
vt -1.49014 -1.14057
vt -1.49147 -1.1405
vt -1.53003 -1.18637
vt -1.70639 -0.938018
vt -1.73422 -0.84626
vt -1.83459 -0.826579
vt -1.725 -0.852825
vt -1.95673 -0.687717
vt -1.70224 -0.0197149
vt -1.71957 -0.00252452
vt -1.72615 0.0040123
vt -1.74492 0.0226353
vt -1.76084 0.0384221
vt 0.755732 0.472752
vt 0.75915 0.469869
vt 0.761533 0.471402
vt 0.764266 0.472998
vt -1.98462 -0.6785
vt -1.95677 -0.705997
vt -1.9766 -0.673554
vt -1.98416 -0.668168
vt -2.00555 -0.657848
vt -2.0057 -0.652825
vt -2.02395 -0.639818
vt -1.56531 0.265671
vt -1.29519 1.23205
vn 0.821614 0.0938396 0.562267
vn 0.821614 0.0938396 0.562267
vn 0.821614 0.0938396 0.562267
vn 0.982814 0.0966237 -0.157291
vn 0.982814 0.0966237 -0.157291
vn 0.982814 0.0966237 -0.157291
vn 0.975024 -0.0506578 -0.216247
vn 0.975024 -0.0506578 -0.216247
vn 0.975024 -0.0506578 -0.216247
vn 0.975024 -0.0506578 -0.216247
vn 0.975024 -0.0506578 -0.216247
vn 0.975024 -0.0506578 -0.216247
vn 0.975024 -0.0506578 -0.216247
vn 0.138784 0.439312 -0.887549
vn 0.138784 0.439312 -0.887549
vn 0.138784 0.439312 -0.887549
vn 0.138784 0.439312 -0.887549
vn 0.138784 0.439312 -0.887549
vn 0.138784 0.439312 -0.887549
vn 0.138784 0.439312 -0.887549
vn 0.138784 0.439312 -0.887549
vn 0.138784 0.439312 -0.887549
vn 0.138784 0.439312 -0.887549
vn 0.138784 0.439312 -0.887549
vn 0.138784 0.439312 -0.887549
vn -0.98389 0.0356407 -0.175186
vn -0.98389 0.0356407 -0.175186
vn -0.98389 0.0356407 -0.175186
vn -0.98389 0.0356407 -0.175186
vn -0.98389 0.0356407 -0.175186
vn -0.98389 0.0356407 -0.175186
vn -0.98389 0.0356407 -0.175186
vn -0.98389 0.0356407 -0.175186
vn -0.98389 0.0356407 -0.175186
vn -0.98389 0.0356407 -0.175186
vn -0.98389 0.0356407 -0.175186
vn -0.98389 0.0356407 -0.175186
vn -0.98389 0.0356407 -0.175186
vn -0.98389 0.0356407 -0.175186
vn -0.98389 0.0356407 -0.175186
vn -0.98389 0.0356407 -0.175186
vn -0.597085 -0.491105 -0.634275
vn -0.597085 -0.491105 -0.634275
vn -0.597085 -0.491105 -0.634275
vn -0.597085 -0.491105 -0.634275
vn -0.597085 -0.491105 -0.634275
vn -0.98389 0.0356407 -0.175186
vn -0.98389 0.0356407 -0.175186
vn -0.98389 0.0356407 -0.175186
vn -0.98389 0.0356407 -0.175186
vn -0.98389 0.0356407 -0.175186
vn -0.98389 0.0356407 -0.175186
vn 0.751232 0.458102 0.475177
vn 0.751232 0.458102 0.475177
vn 0.751232 0.458102 0.475177
vn -0.465086 0.875729 0.129586
vn -0.465086 0.875729 0.129586
vn -0.465086 0.875729 0.129586
vn -0.465086 0.875729 0.129586
vn -0.465086 0.875729 0.129586
vn -0.465086 0.875729 0.129586
vn 0.138784 0.439312 -0.887549
vn 0.138784 0.439312 -0.887549
vn 0.138784 0.439312 -0.887549
vn -0.465086 0.875729 0.129586
vn -0.465086 0.875729 0.129586
vn -0.465086 0.875729 0.129586
vn 0.138784 0.439312 -0.887549
vn 0.138784 0.439312 -0.887549
vn 0.821614 0.0938396 0.562267
vn -0.465086 0.875729 0.129586
vn 0.751232 0.458102 0.475177
vn 0.751232 0.458102 0.475177
vn 0.960574 -0.123825 0.248928
vn 0.960308 -0.125235 0.24925
vn 0.96054 -0.124007 0.24897
vn 0.96049 -0.124273 0.24903
vn 0.960417 -0.124657 0.249118
vn 0.975024 -0.0506578 -0.216247
vn 0.975024 -0.0506578 -0.216247
vn 0.975024 -0.0506578 -0.216247
vn -0.274383 -0.0194609 -0.961423
vn -0.274383 -0.0194609 -0.961423
vn -0.274383 -0.0194609 -0.961423
vn -0.274383 -0.0194609 -0.961423
vn -0.274383 -0.0194609 -0.961423
vn -0.274383 -0.0194609 -0.961423
vn -0.274383 -0.0194609 -0.961423
vn -0.274383 -0.0194609 -0.961423
vn -0.274383 -0.0194609 -0.961423
vn -0.274383 -0.0194609 -0.961423
vn -0.274383 -0.0194609 -0.961423
vn -0.274383 -0.0194609 -0.961423
vn -0.274383 -0.0194609 -0.961423
vn -0.274383 -0.0194609 -0.961423
vn -0.274383 -0.0194609 -0.961423
vn -0.274383 -0.0194609 -0.961423
vn -0.274383 -0.0194609 -0.961423
vn -0.274383 -0.0194609 -0.961423
vn -0.274383 -0.0194609 -0.961423
vn -0.274383 -0.0194609 -0.961423
vn -0.274383 -0.0194609 -0.961423
vn -0.274383 -0.0194609 -0.961423
vn -0.274383 -0.0194609 -0.961423
vn -0.597085 -0.491105 -0.634275
vn -0.597085 -0.491105 -0.634275
vn -0.597085 -0.491105 -0.634275
vn -0.597085 -0.491105 -0.634275
vn -0.597085 -0.491105 -0.634275
vn -0.98389 0.0356407 -0.175186
vn -0.98389 0.0356407 -0.175186
vn -0.98389 0.0356407 -0.175186
vn -0.98389 0.0356407 -0.175186
vn -0.98389 0.0356407 -0.175186
vn 0.960608 -0.123646 0.248887
vn 0.960619 -0.123588 0.248874
vn 0.960608 -0.123646 0.248887
vn 0.960593 -0.123723 0.248905
vn -0.597085 -0.491105 -0.634275
vn -0.597085 -0.491105 -0.634275
vn -0.597085 -0.491105 -0.634275
vn -0.597085 -0.491105 -0.634275
vn -0.597085 -0.491105 -0.634275
vn -0.597085 -0.491105 -0.634275
vn -0.597085 -0.491105 -0.634275
vn -0.98389 0.0356407 -0.175186
vn 0.138784 0.439312 -0.887549
f 1/1/1 2/2/2 3/3/3 
f 4/4/4 5/5/5 6/6/6 
f 7/7/7 8/8/8 9/9/9 
f 10/10/10 8/8/8 7/7/7 
f 11/11/11 8/8/8 10/10/10 
f 12/12/12 8/8/8 11/11/11 
f 13/13/13 8/8/8 12/12/12 
f 14/14/14 15/15/15 16/16/16 
f 16/16/16 17/17/17 14/14/14 
f 18/18/18 17/17/17 16/16/16 
f 19/19/19 17/17/17 18/18/18 
f 19/19/19 20/20/20 17/17/17 
f 21/21/21 20/20/20 19/19/19 
f 22/22/22 20/20/20 21/21/21 
f 22/22/22 23/23/23 20/20/20 
f 24/24/24 23/23/23 22/22/22 
f 25/25/25 23/23/23 24/24/24 
f 26/26/26 27/27/27 28/28/28 
f 29/29/29 27/27/27 26/26/26 
f 29/29/29 30/30/30 27/27/27 
f 31/31/31 30/30/30 29/29/29 
f 32/32/32 30/30/30 31/31/31 
f 33/33/33 30/30/30 32/32/32 
f 33/33/33 34/34/34 30/30/30 
f 35/35/35 34/34/34 33/33/33 
f 36/36/36 34/34/34 35/35/35 
f 37/37/37 34/34/34 36/36/36 
f 37/37/37 38/38/38 34/34/34 
f 39/39/39 38/38/38 37/37/37 
f 39/39/39 40/40/40 38/38/38 
f 41/41/41 40/40/40 39/39/39 
f 42/42/42 43/43/43 44/44/44 
f 42/42/42 44/44/44 45/45/45 
f 46/46/46 42/42/42 45/45/45 
f 47/47/47 38/38/38 40/40/40 
f 47/47/47 48/48/48 38/38/38 
f 49/49/49 48/48/48 47/47/47 
f 50/50/50 48/48/48 49/49/49 
f 48/48/48 50/50/50 51/51/51 
f 52/52/52 48/48/48 51/51/51 
f 53/53/53 54/54/54 55/55/55 
f 56/56/56 57/57/57 58/58/58 
f 58/58/58 57/57/57 59/59/59 
f 60/60/60 59/59/59 57/57/57 
f 61/61/61 59/59/59 60/60/60 
f 23/23/23 62/62/62 63/63/63 
f 23/23/23 63/63/63 64/64/64 
f 23/23/23 64/64/64 20/20/20 
f 65/65/65 57/57/57 66/66/66 
f 57/57/57 65/65/65 60/60/60 
f 66/66/66 57/57/57 67/67/67 
f 68/68/68 17/17/17 20/20/20 
f 17/17/17 68/68/68 69/69/69 
f 3/3/3 2/2/2 70/70/70 
f 67/67/67 57/57/57 71/71/71 
f 53/53/53 55/55/55 72/72/72 
f 72/72/72 55/55/55 73/73/73 
f 74/74/74 75/75/75 76/76/76 
f 77/77/77 75/75/75 74/74/74 
f 78/78/78 75/75/75 77/77/77 
f 79/79/79 7/7/7 80/80/80 
f 81/81/81 7/7/7 79/79/79 
f 10/10/10 7/7/7 81/81/81 
f 82/82/82 83/83/83 84/84/84 
f 82/82/82 85/85/85 83/83/83 
f 85/85/85 86/86/86 83/83/83 
f 85/85/85 87/87/87 86/86/86 
f 88/88/88 82/82/82 84/84/84 
f 89/89/89 88/88/88 84/84/84 
f 89/89/89 90/90/90 88/88/88 
f 90/90/90 89/89/89 91/91/91 
f 92/92/92 91/91/91 89/89/89 
f 93/93/93 91/91/91 92/92/92 
f 93/93/93 94/94/94 91/91/91 
f 91/91/91 94/94/94 95/95/95 
f 96/96/96 95/95/95 94/94/94 
f 97/97/97 95/95/95 96/96/96 
f 97/97/97 98/98/98 95/95/95 
f 99/99/99 89/89/89 84/84/84 
f 99/99/99 84/84/84 100/100/100 
f 101/101/101 99/99/99 100/100/100 
f 102/102/102 101/101/101 100/100/100 
f 103/103/103 102/102/102 100/100/100 
f 100/100/100 84/84/84 104/104/104 
f 45/45/45 44/44/44 105/105/105 
f 106/106/106 45/45/45 107/107/107 
f 106/106/106 108/108/108 45/45/45 
f 108/108/108 46/46/46 45/45/45 
f 109/109/109 106/106/106 107/107/107 
f 51/51/51 50/50/50 110/110/110 
f 51/51/51 110/110/110 111/111/111 
f 51/51/51 111/111/111 112/112/112 
f 51/51/51 112/112/112 113/113/113 
f 51/51/51 113/113/113 114/114/114 
f 115/115/115 116/116/116 117/117/117 
f 117/117/117 76/76/76 115/115/115 
f 118/118/118 76/76/76 117/117/117 
f 74/74/74 76/76/76 118/118/118 
f 119/119/119 109/109/109 120/120/120 
f 121/121/121 109/109/109 119/119/119 
f 122/122/122 121/121/121 119/119/119 
f 123/123/123 122/122/122 119/119/119 
f 124/124/124 122/122/122 123/123/123 
f 124/124/124 123/123/123 125/125/125 
f 109/109/109 107/107/107 120/120/120 
f 126/126/126 52/52/52 51/51/51 
f 14/14/14 17/17/17 127/127/127 
