v 0.0524869 2.13953 -0.407634
v 0.0483138 2.14752 -0.398884
v 0.101321 2.09857 -0.411371
v 0.048314 2.14752 -0.398884
v 0.0524872 2.13953 -0.407635
v 0.0451115 2.1381 -0.396187
v 0.0468982 2.14711 -0.396723
v 0.0440239 2.1379 -0.394499
v 0.0440238 2.1379 -0.394499
v 0.0612161 2.10672 -0.330209
v 0.046898 2.14711 -0.396723
v 0.0492758 2.10441 -0.353313
v 0.049276 2.10441 -0.353313
v 0.0440239 2.1379 -0.394499
v 0.0695577 2.09124 -0.360353
v 0.0695577 2.09124 -0.360353
v 0.0612162 2.10672 -0.330209
v 0.0492758 2.10441 -0.353313
v 0.0650962 2.10747 -0.322701
v 0.0655165 2.10755 -0.321888
v 0.0937953 2.0755 -0.368766
v 0.155052 2.09421 -0.231627
v 0.111671 2.11647 -0.232581
v 0.155052 2.09421 -0.231627
v 0.240354 2.13553 -0.22633
v 0.111671 2.11647 -0.232581
v 0.226197 2.05771 -0.230063
v 0.235413 2.05298 -0.22986
v 0.296433 2.02167 -0.228518
v 0.354461 1.99189 -0.227242
v 0.365155 1.9864 -0.227007
v 0.671556 2.16988 -0.20657
v 0.39866 1.96921 -0.22627
v 0.673917 2.15267 -0.207161
v 0.399321 1.96887 -0.226256
v 0.39932 1.96887 -0.226256
v 0.689976 2.17158 -0.225707
v 0.673917 2.15267 -0.207161
v 0.398798 1.96884 -0.227069
v 0.625191 2.18218 -0.360302
v 0.395607 1.96867 -0.232031
v 0.52242 2.14723 -0.448993
v 0.5464 2.1922 -0.393
v 0.625192 2.18218 -0.360303
v 0.52242 2.14723 -0.448993
v 0.693962 2.18399 -0.231134
v 0.625192 2.18218 -0.360303
v 0.5464 2.1922 -0.393
v 0.699275 2.18252 -0.236445
v 0.699275 2.18252 -0.236445
v 0.698208 2.18127 -0.235213
v 0.698208 2.18127 -0.235213
v 0.693962 2.18399 -0.231134
v 0.689976 2.17158 -0.225707
v 0.699275 2.18252 -0.236445
v 0.682653 2.1871 -0.219828
v 0.682653 2.1871 -0.219828
v 0.682653 2.1871 -0.219828
v 0.5464 2.1922 -0.393
v 0.66824 2.19405 -0.205739
v 0.66824 2.19405 -0.205739
v 0.669636 2.18388 -0.206089
v 0.671556 2.16988 -0.20657
v 0.673917 2.15267 -0.207161
v 0.669636 2.18388 -0.206089
v 0.507375 2.23952 -0.210767
v 0.66824 2.19405 -0.205739
v 0.507375 2.23952 -0.210767
v 0.507375 2.23952 -0.210767
v 0.5464 2.1922 -0.393
v 0.240354 2.13553 -0.22633
v 0.1787 2.0731 -0.3433
v 0.1787 2.0731 -0.3433
v 0.161832 2.23917 -0.237132
v 0.240354 2.13553 -0.22633
v 0.1787 2.0731 -0.3433
v 0.13749 2.22015 -0.27136
v 0.161832 2.23917 -0.237132
v 0.0483138 2.14752 -0.398884
v 0.1787 2.0731 -0.3433
v 0.146341 2.06082 -0.414816
v 0.171186 2.03998 -0.416717
v 0.1787 2.0731 -0.3433
v 0.239909 2.0173 -0.471968
v 0.171186 2.03998 -0.416717
v 0.239909 2.0173 -0.471968
v 0.1787 2.0731 -0.3433
v 0.28359 2.00827 -0.514779
v 0.239909 2.0173 -0.471968
v 0.28359 2.00827 -0.514779
v 0.281991 2.00221 -0.504076
v 0.278499 1.99167 -0.48455
v 0.278438 1.99149 -0.484207
v 0.27832 1.99113 -0.48355
v 0.277763 1.98945 -0.480433
v 0.276303 1.98504 -0.472266
v 0.273821 1.97755 -0.458387
v 0.276303 1.98504 -0.472266
v 0.30167 1.96369 -0.378107
v 0.273821 1.97755 -0.458387
v 0.348135 1.96615 -0.305851
v 0.352433 1.96638 -0.299168
v 0.277763 1.98945 -0.480432
v 0.353824 1.96645 -0.297004
v 0.27832 1.99113 -0.48355
v 0.363859 1.96699 -0.281399
v 0.364102 1.967 -0.281022
v 0.278438 1.99149 -0.484207
v 0.364227 1.96701 -0.280828
v 0.278499 1.99167 -0.48455
v 0.392642 1.96851 -0.236641
v 0.392642 1.96851 -0.236641
v 0.365155 1.9864 -0.227007
v 0.364227 1.96701 -0.280828
v 0.395607 1.96867 -0.232031
v 0.39866 1.96921 -0.22627
v 0.398798 1.96884 -0.227069
v 0.399321 1.96887 -0.226256
v 0.281991 2.00221 -0.504076
v 0.284714 2.00862 -0.514948
v 0.283858 2.00785 -0.514516
v 0.284714 2.00862 -0.514947
v 0.283857 2.00785 -0.514516
v 0.283589 2.00827 -0.514779
v 0.284714 2.00862 -0.514948
v 0.52242 2.14723 -0.448993
v 0.5464 2.1922 -0.393
v 0.283857 2.00785 -0.514516
v 0.354461 1.99189 -0.227242
v 0.364102 1.967 -0.281022
v 0.363859 1.96699 -0.281399
v 0.353824 1.96645 -0.297004
v 0.296433 2.02167 -0.228518
v 0.352433 1.96638 -0.299168
v 0.348135 1.96615 -0.305851
v 0.30167 1.96369 -0.378107
v 0.235413 2.05298 -0.22986
v 0.173998 2.02341 -0.396604
v 0.226197 2.05771 -0.230063
v 0.153481 2.03673 -0.389482
v 0.126911 2.05399 -0.38026
v 0.126911 2.05399 -0.38026
v 0.146341 2.06082 -0.414816
v 0.153481 2.03673 -0.389482
v 0.124429 2.0556 -0.379399
v 0.116932 2.06047 -0.376797
v 0.0937953 2.0755 -0.368766
v 0.101321 2.09857 -0.411371
v 0.0451117 2.1381 -0.396187
v 0.052487 2.13953 -0.407634
v 0.116932 2.06047 -0.376797
v 0.124429 2.0556 -0.379399
v 0.173998 2.02341 -0.396604
v 0.171186 2.03998 -0.416717
v 0.262932 1.96565 -0.427473
v 0.262932 1.96565 -0.427473
v 0.294185 1.96329 -0.389746
v 0.267217 1.96287 -0.42896
v 0.268648 1.96194 -0.429457
v 0.294185 1.96329 -0.389746
v 0.268648 1.96194 -0.429457
v 0.268648 1.96194 -0.429457
v 0.267217 1.96287 -0.42896
v 0.0478251 2.15008 -0.39744
v 0.13749 2.22015 -0.27136
v 0.0478252 2.15008 -0.39744
v 0.11173 2.1166 -0.232573
v 0.161832 2.23917 -0.237132
v 0.16952 2.24371 -0.224999
v 0.16952 2.24371 -0.224999
v 0.16952 2.24371 -0.224999
v 0.111729 2.1166 -0.232573
v 0.111671 2.11647 -0.232581
v 0.0655165 2.10755 -0.321888
v 0.0472448 2.14822 -0.396991
v 0.0650963 2.10747 -0.322701
v 0.047245 2.14822 -0.396991
v 0.0478253 2.15008 -0.39744
vt 0.220324 0.659051
vt 0.222039 0.659619
vt 0.215263 0.66207
vt 2.10462 -0.363955
vt 2.09656 -0.373588
vt 2.09512 -0.359971
vt 2.10421 -0.361371
vt 2.09491 -0.357963
vt 2.07002 -0.33759
vt 2.03661 -0.272134
vt 2.07989 -0.338368
vt 2.03413 -0.298126
vt -1.05482 -1.3642
vt -1.10128 -1.39041
vt -1.06276 -1.34029
vt 0.244703 -0.904965
vt 0.276422 -0.919517
vt 0.252111 -0.929038
vt 0.284323 -0.916423
vt 0.285179 -0.916088
vt 0.235851 -0.876195
vt 0.380156 -0.830527
vt 0.379153 -0.879286
vt 2.08297 0.145048
vt 2.12432 0.230498
vt 2.10525 0.101665
vt 2.04643 0.216195
vt 2.0417 0.225411
vt 2.01036 0.286433
vt 1.98056 0.344462
vt 1.97507 0.355157
vt 2.1587 0.662151
vt 1.95786 0.388663
vt 2.14147 0.664484
vt 1.95752 0.389323
vt -0.66047 1.45454
vt -0.65989 1.8089
vt -0.640301 1.7849
vt -0.661329 1.45409
vt -0.80206 1.76185
vt -0.66657 1.45138
vt -0.895742 1.65757
vt 0.8905 0.9497
vt 0.885019 0.942747
vt 0.899974 0.943845
vt 0.869589 0.936835
vt 0.885019 0.942747
vt 0.8905 0.9497
vt 0.870014 0.936354
vt -0.671233 1.82279
vt -0.669931 1.82119
vt 2.15025 0.655266
vt 2.15298 0.649382
vt 2.14053 0.642712
vt 2.15151 0.656894
vt 2.1561 0.633393
vt 0.868683 0.937858
vt 0.868683 0.937858
vt 0.8905 0.9497
vt 0.866311 0.939854
vt 2.16307 0.613244
vt 2.15286 0.614468
vt 2.13883 0.616151
vt 2.12157 0.61822
vt 2.1727 0.660253
vt 2.2284 0.497939
vt 2.18289 0.658873
vt 0.863271 0.95841
vt 0.236612 0.710951
vt 0.2076 0.7127
vt 0.236396 0.682235
vt 0.2185 0.6741
vt 0.2185 0.6741
vt 0.24374 0.674968
vt 0.236396 0.682235
vt 0.2185 0.6741
vt 0.239186 0.671688
vt 0.24374 0.674968
vt 0.222039 0.659619
vt 0.2185 0.6741
vt 0.210598 0.664854
vt 0.208023 0.66639
vt 0.2185 0.6741
vt 0.199004 0.668867
vt 0.208023 0.66639
vt 0.199004 0.668867
vt 0.2185 0.6741
vt 0.192289 0.669879
vt -1.18866 -1.16396
vt -1.23695 -1.12535
vt -1.22487 -1.12251
vt -1.20285 -1.1181
vt -1.20246 -1.11802
vt -1.20172 -1.11787
vt -1.1982 -1.11717
vt -1.18899 -1.11532
vt -1.17334 -1.11219
vt -0.920325 1.36293
vt -0.820866 1.3715
vt -0.905664 1.35661
vt -0.744545 1.41101
vt -0.737485 1.41467
vt -0.92895 1.36665
vt -0.7352 1.41585
vt -0.932243 1.36807
vt -0.718717 1.42438
vt -0.718318 1.42459
vt -0.932937 1.36837
vt -0.718113 1.4247
vt -0.9333 1.36853
vt -0.67144 1.44886
vt 0.37488 -0.56174
vt 0.385018 -0.594382
vt 0.328384 -0.586241
vt 0.379732 -0.559184
vt 0.385793 -0.556724
vt 0.384953 -0.556432
vt 0.385808 -0.555982
vt -0.953925 1.37742
vt -0.965408 1.38332
vt -0.964952 1.38218
vt -0.304006 -1.98823
vt -0.303149 -1.98734
vt -0.302881 -1.98784
vt 0.192253 0.669995
vt 0.199611 0.704447
vt 0.2076 0.7127
vt -1.23665 -1.12487
vt 0.38477 -0.606402
vt 0.32818 -0.586348
vt 0.327783 -0.586558
vt 0.311363 -0.59521
vt 0.383428 -0.671623
vt 0.309086 -0.59641
vt 0.302053 -0.600116
vt 0.226022 -0.64018
vt 0.382016 -0.740206
vt 0.206558 -0.780998
vt 0.381803 -0.750564
vt 0.214051 -0.805351
vt 0.223756 -0.836888
vt -1.08522 -1.2727
vt -1.12419 -1.26275
vt -1.09562 -1.24139
vt -1.08424 -1.27562
vt -1.08131 -1.28446
vt -1.07225 -1.31173
vt -1.12031 -1.32148
vt -1.10318 -1.38974
vt -1.11609 -1.38518
vt 0.2274 -0.848733
vt 0.224662 -0.839834
vt -1.10365 -1.21721
vt -1.12634 -1.23034
vt -1.13847 -1.11239
vt 0.174076 -0.675438
vt 0.213774 -0.646633
vt 0.172511 -0.670352
vt 0.171988 -0.668652
vt -0.83316 1.36514
vt -0.875107 1.34343
vt -1.14071 -1.10566
vt -1.14015 -1.10734
vt 0.222413 0.659604
vt 2.15817 -0.18628
vt 2.08308 -0.338619
vt 2.0472 -0.162271
vt 2.17855 -0.144923
vt 2.18341 -0.130666
vt 0.245436 0.675928
vt 2.23258 0.159784
vt 2.10538 0.101724
vt 2.04706 -0.162303
vt 2.0375 -0.262773
vt 2.08108 -0.338462
vt 2.03741 -0.263688
vt 2.10533 -0.361783
vt 2.10721 -0.362471
vn 0.575759 0.721601 -0.384441
vn 0.575759 0.721601 -0.384441
vn 0.575759 0.721601 -0.384441
vn -0.840465 0.135554 -0.524636
vn -0.840465 0.135554 -0.524636
vn -0.840465 0.135554 -0.524636
vn -0.840465 0.135554 -0.524636
vn -0.840465 0.135554 -0.524636
vn -0.843143 0.359523 0.399817
vn -0.843143 0.359523 0.399817
vn -0.843143 0.359523 0.399817
vn -0.843143 0.359523 0.399817
vn -0.590216 -0.661553 -0.462594
vn -0.590216 -0.661553 -0.462594
vn -0.590216 -0.661553 -0.462594
vn -0.439279 -0.842716 0.311231
vn -0.439279 -0.842716 0.311231
vn -0.439279 -0.842716 0.311231
vn -0.439279 -0.842716 0.311231
vn -0.439279 -0.842716 0.311231
vn -0.439279 -0.842716 0.311231
vn -0.439279 -0.842716 0.311231
vn -0.439279 -0.842716 0.311231
vn -0.0425499 -0.0401424 0.998288
vn -0.0425499 -0.0401424 0.998288
vn -0.0425499 -0.0401424 0.998288
vn -0.0425499 -0.0401424 0.998288
vn -0.0425499 -0.0401424 0.998288
vn -0.0425499 -0.0401424 0.998288
vn -0.0425499 -0.0401424 0.998288
vn -0.0425499 -0.0401424 0.998288
vn -0.0425499 -0.0401424 0.998288
vn -0.0425499 -0.0401424 0.998288
vn -0.0425499 -0.0401424 0.998288
vn -0.0425499 -0.0401424 0.998288
vn 0.541973 -0.776241 -0.322048
vn 0.541973 -0.776241 -0.322048
vn 0.541973 -0.776241 -0.322048
vn 0.541973 -0.776241 -0.322048
vn 0.541973 -0.776241 -0.322048
vn 0.541973 -0.776241 -0.322048
vn 0.541973 -0.776241 -0.322048
vn 0.361334 0.645308 -0.673064
vn 0.361334 0.645308 -0.673064
vn 0.361334 0.645308 -0.673064
vn 0.167264 0.980545 -0.102732
vn 0.167264 0.980545 -0.102732
vn 0.167264 0.980545 -0.102732
vn 0.167264 0.980545 -0.102732
vn 0.541973 -0.776241 -0.322048
vn 0.541973 -0.776241 -0.322048
vn 0.715193 0.0742313 0.694974
vn 0.715193 0.0742313 0.694974
vn 0.715193 0.0742313 0.694974
vn 0.715193 0.0742313 0.694974
vn 0.715193 0.0742313 0.694974
vn 0.167264 0.980545 -0.102732
vn 0.272633 0.943826 -0.186719
vn 0.272633 0.943826 -0.186719
vn 0.272633 0.943826 -0.186719
vn 0.715193 0.0742313 0.694974
vn 0.715193 0.0742313 0.694974
vn 0.715193 0.0742313 0.694974
vn 0.715193 0.0742313 0.694974
vn -0.0425499 -0.0401424 0.998288
vn -0.0425499 -0.0401424 0.998288
vn -0.0425499 -0.0401424 0.998288
vn 0.272633 0.943826 -0.186719
vn -0.330477 0.893886 -0.302907
vn -0.330477 0.893886 -0.302907
vn -0.330477 0.893886 -0.302907
vn -0.330477 0.893886 -0.302907
vn 0.670902 0.44659 -0.591987
vn 0.670902 0.44659 -0.591987
vn 0.670902 0.44659 -0.591987
vn 0.562371 0.485174 -0.669586
vn 0.562371 0.485174 -0.669586
vn 0.562371 0.485174 -0.669586
vn 0.562371 0.485174 -0.669586
vn 0.575759 0.721601 -0.384441
vn 0.575759 0.721601 -0.384441
vn 0.575759 0.721601 -0.384441
vn -0.0275299 0.912255 -0.408697
vn -0.0275299 0.912255 -0.408697
vn -0.0275299 0.912255 -0.408697
vn -0.327132 0.800214 -0.502635
vn -0.327132 0.800214 -0.502635
vn -0.327132 0.800214 -0.502635
vn -0.590216 -0.661553 -0.462594
vn -0.590216 -0.661553 -0.462594
vn -0.590216 -0.661553 -0.462594
vn -0.590216 -0.661553 -0.462594
vn -0.590216 -0.661553 -0.462594
vn -0.590216 -0.661553 -0.462594
vn -0.590216 -0.661553 -0.462594
vn -0.590216 -0.661553 -0.462594
vn -0.590216 -0.661553 -0.462594
vn 0.541973 -0.776241 -0.322048
vn 0.541973 -0.776241 -0.322048
vn 0.541973 -0.776241 -0.322048
vn 0.541973 -0.776241 -0.322048
vn 0.541973 -0.776241 -0.322048
vn 0.541973 -0.776241 -0.322048
vn 0.541973 -0.776241 -0.322048
vn 0.541973 -0.776241 -0.322048
vn 0.541973 -0.776241 -0.322048
vn 0.541973 -0.776241 -0.322048
vn 0.541973 -0.776241 -0.322048
vn 0.541973 -0.776241 -0.322048
vn 0.541973 -0.776241 -0.322048
vn 0.541973 -0.776241 -0.322048
vn -0.439279 -0.842716 0.311231
vn -0.439279 -0.842716 0.311231
vn -0.439279 -0.842716 0.311231
vn -0.439279 -0.842716 0.311231
vn -0.439279 -0.842716 0.311231
vn -0.439279 -0.842716 0.311231
vn -0.439279 -0.842716 0.311231
vn 0.541973 -0.776241 -0.322048
vn 0.541973 -0.776241 -0.322048
vn 0.541973 -0.776241 -0.322048
vn 0.0330282 -0.512897 -0.857814
vn 0.0330282 -0.512897 -0.857814
vn 0.0330282 -0.512897 -0.857814
vn -0.327132 0.800214 -0.502635
vn -0.327132 0.800214 -0.502635
vn -0.327132 0.800214 -0.502635
vn -0.590216 -0.661553 -0.462594
vn -0.439279 -0.842716 0.311231
vn -0.439279 -0.842716 0.311231
vn -0.439279 -0.842716 0.311231
vn -0.439279 -0.842716 0.311231
vn -0.439279 -0.842716 0.311231
vn -0.439279 -0.842716 0.311231
vn -0.439279 -0.842716 0.311231
vn -0.439279 -0.842716 0.311231
vn -0.439279 -0.842716 0.311231
vn -0.439279 -0.842716 0.311231
vn -0.439279 -0.842716 0.311231
vn -0.439279 -0.842716 0.311231
vn -0.439279 -0.842716 0.311231
vn -0.590216 -0.661553 -0.462594
vn -0.590216 -0.661553 -0.462594
vn -0.590216 -0.661553 -0.462594
vn -0.590216 -0.661553 -0.462594
vn -0.590216 -0.661553 -0.462594
vn -0.590216 -0.661553 -0.462594
vn -0.590216 -0.661553 -0.462594
vn -0.590216 -0.661553 -0.462594
vn -0.590216 -0.661553 -0.462594
vn -0.439279 -0.842716 0.311231
vn -0.439279 -0.842716 0.311231
vn -0.590216 -0.661553 -0.462594
vn -0.590216 -0.661553 -0.462594
vn -0.590216 -0.661553 -0.462594
vn -0.439279 -0.842716 0.311231
vn -0.439279 -0.842716 0.311231
vn -0.439279 -0.842716 0.311231
vn -0.439279 -0.842716 0.311231
vn 0.541973 -0.776241 -0.322048
vn 0.541973 -0.776241 -0.322048
vn -0.590216 -0.661553 -0.462594
vn -0.590216 -0.661553 -0.462594
vn 0.562371 0.485174 -0.669586
vn -0.843143 0.359523 0.399817
vn -0.843143 0.359523 0.399817
vn -0.843143 0.359523 0.399817
vn -0.843143 0.359523 0.399817
vn -0.843143 0.359523 0.399817
vn 0.670902 0.44659 -0.591987
vn -0.0425499 -0.0401424 0.998288
vn -0.0425499 -0.0401424 0.998288
vn -0.843143 0.359523 0.399817
vn -0.843143 0.359523 0.399817
vn -0.843143 0.359523 0.399817
vn -0.843143 0.359523 0.399817
vn -0.840465 0.135554 -0.524636
vn -0.840465 0.135554 -0.524636
f 1/1/1 2/2/2 3/3/3 
f 4/4/4 5/5/5 6/6/6 
f 6/6/6 7/7/7 4/4/4 
f 8/8/8 7/7/7 6/6/6 
f 9/9/9 10/10/10 11/11/11 
f 9/9/9 12/12/12 10/10/10 
f 13/13/13 14/14/14 15/15/15 
f 16/16/16 17/17/17 18/18/18 
f 16/16/16 19/19/19 17/17/17 
f 16/16/16 20/20/20 19/19/19 
f 21/21/21 20/20/20 16/16/16 
f 20/20/20 21/21/21 22/22/22 
f 22/22/22 23/23/23 20/20/20 
f 24/24/24 25/25/25 26/26/26 
f 27/27/27 25/25/25 24/24/24 
f 28/28/28 25/25/25 27/27/27 
f 25/25/25 28/28/28 29/29/29 
f 25/25/25 29/29/29 30/30/30 
f 25/25/25 30/30/30 31/31/31 
f 31/31/31 32/32/32 25/25/25 
f 33/33/33 32/32/32 31/31/31 
f 33/33/33 34/34/34 32/32/32 
f 35/35/35 34/34/34 33/33/33 
f 36/36/36 37/37/37 38/38/38 
f 39/39/39 37/37/37 36/36/36 
f 39/39/39 40/40/40 37/37/37 
f 41/41/41 40/40/40 39/39/39 
f 40/40/40 41/41/41 42/42/42 
f 43/43/43 44/44/44 45/45/45 
f 46/46/46 47/47/47 48/48/48 
f 49/49/49 47/47/47 46/46/46 
f 40/40/40 50/50/50 51/51/51 
f 40/40/40 51/51/51 37/37/37 
f 52/52/52 53/53/53 54/54/54 
f 55/55/55 53/53/53 52/52/52 
f 53/53/53 56/56/56 54/54/54 
f 46/46/46 48/48/48 57/57/57 
f 58/58/58 59/59/59 60/60/60 
f 56/56/56 61/61/61 62/62/62 
f 56/56/56 62/62/62 63/63/63 
f 56/56/56 63/63/63 54/54/54 
f 64/64/64 54/54/54 63/63/63 
f 25/25/25 32/32/32 65/65/65 
f 65/65/65 66/66/66 25/25/25 
f 67/67/67 66/66/66 65/65/65 
f 60/60/60 59/59/59 68/68/68 
f 69/69/69 70/70/70 71/71/71 
f 71/71/71 70/70/70 72/72/72 
f 73/73/73 74/74/74 75/75/75 
f 76/76/76 77/77/77 78/78/78 
f 76/76/76 79/79/79 77/77/77 
f 3/3/3 2/2/2 80/80/80 
f 80/80/80 81/81/81 3/3/3 
f 80/80/80 82/82/82 81/81/81 
f 83/83/83 84/84/84 85/85/85 
f 86/86/86 87/87/87 88/88/88 
f 89/89/89 90/90/90 91/91/91 
f 92/92/92 89/89/89 91/91/91 
f 93/93/93 89/89/89 92/92/92 
f 94/94/94 89/89/89 93/93/93 
f 95/95/95 89/89/89 94/94/94 
f 96/96/96 89/89/89 95/95/95 
f 96/96/96 97/97/97 89/89/89 
f 98/98/98 99/99/99 100/100/100 
f 98/98/98 101/101/101 99/99/99 
f 98/98/98 102/102/102 101/101/101 
f 103/103/103 102/102/102 98/98/98 
f 103/103/103 104/104/104 102/102/102 
f 105/105/105 104/104/104 103/103/103 
f 105/105/105 106/106/106 104/104/104 
f 105/105/105 107/107/107 106/106/106 
f 108/108/108 107/107/107 105/105/105 
f 108/108/108 109/109/109 107/107/107 
f 110/110/110 109/109/109 108/108/108 
f 109/109/109 110/110/110 111/111/111 
f 112/112/112 113/113/113 114/114/114 
f 115/115/115 113/113/113 112/112/112 
f 115/115/115 116/116/116 113/113/113 
f 117/117/117 116/116/116 115/115/115 
f 117/117/117 118/118/118 116/116/116 
f 42/42/42 41/41/41 111/111/111 
f 111/111/111 110/110/110 42/42/42 
f 119/119/119 42/42/42 110/110/110 
f 119/119/119 120/120/120 42/42/42 
f 121/121/121 120/120/120 119/119/119 
f 122/122/122 123/123/123 124/124/124 
f 88/88/88 87/87/87 125/125/125 
f 125/125/125 87/87/87 126/126/126 
f 127/127/127 126/126/126 87/87/87 
f 91/91/91 90/90/90 128/128/128 
f 113/113/113 129/129/129 114/114/114 
f 129/129/129 130/130/130 114/114/114 
f 129/129/129 131/131/131 130/130/130 
f 131/131/131 129/129/129 132/132/132 
f 129/129/129 133/133/133 132/132/132 
f 133/133/133 134/134/134 132/132/132 
f 133/133/133 135/135/135 134/134/134 
f 135/135/135 133/133/133 136/136/136 
f 136/136/136 133/133/133 137/137/137 
f 137/137/137 138/138/138 136/136/136 
f 138/138/138 137/137/137 139/139/139 
f 139/139/139 140/140/140 138/138/138 
f 140/140/140 139/139/139 22/22/22 
f 140/140/140 22/22/22 141/141/141 
f 142/142/142 143/143/143 144/144/144 
f 143/143/143 142/142/142 145/145/145 
f 143/143/143 145/145/145 146/146/146 
f 143/143/143 146/146/146 147/147/147 
f 143/143/143 147/147/147 148/148/148 
f 148/148/148 147/147/147 15/15/15 
f 15/15/15 14/14/14 148/148/148 
f 148/148/148 14/14/14 149/149/149 
f 148/148/148 149/149/149 150/150/150 
f 151/151/151 22/22/22 21/21/21 
f 152/152/152 22/22/22 151/151/151 
f 141/141/141 22/22/22 152/152/152 
f 144/144/144 143/143/143 153/153/153 
f 153/153/153 143/143/143 154/154/154 
f 153/153/153 154/154/154 155/155/155 
f 156/156/156 157/157/157 138/138/138 
f 158/158/158 157/157/157 156/156/156 
f 159/159/159 157/157/157 158/158/158 
f 100/100/100 160/160/160 161/161/161 
f 100/100/100 99/99/99 160/160/160 
f 136/136/136 138/138/138 157/157/157 
f 97/97/97 162/162/162 163/163/163 
f 97/97/97 163/163/163 155/155/155 
f 155/155/155 154/154/154 97/97/97 
f 97/97/97 154/154/154 89/89/89 
f 77/77/77 79/79/79 164/164/164 
f 165/165/165 166/166/166 167/167/167 
f 167/167/167 168/168/168 165/165/165 
f 169/169/169 168/168/168 167/167/167 
f 75/75/75 74/74/74 170/170/170 
f 25/25/25 171/171/171 172/172/172 
f 26/26/26 25/25/25 172/172/172 
f 173/173/173 167/167/167 174/174/174 
f 174/174/174 167/167/167 175/175/175 
f 174/174/174 175/175/175 176/176/176 
f 176/176/176 175/175/175 11/11/11 
f 11/11/11 10/10/10 176/176/176 
f 7/7/7 177/177/177 4/4/4 
f 177/177/177 178/178/178 4/4/4 
f 167/167/167 166/166/166 175/175/175 
