v 1.27443 1.02636 0.895774
v 1.28761 1.10003 0.880098
v 1.26122 1.13332 0.900144
v 1.28761 1.10003 0.880098
v 1.27443 1.02636 0.895774
v 1.27535 1.09738 0.877537
v 1.27535 1.09738 0.877537
v 1.26122 1.13332 0.900144
v 1.28761 1.10003 0.880098
v 1.24368 1.13363 0.899171
v 1.15175 1.12041 0.884332
v 1.15553 1.07149 0.852514
v 1.15186 1.07308 0.891106
v 1.15175 1.12041 0.884332
v 1.15553 1.07149 0.852514
v 1.15059 1.1353 0.89401
v 1.15186 1.07308 0.891106
v 1.24459 1.00614 0.893126
v 1.15059 1.1353 0.89401
v 1.24459 1.00614 0.893126
v 1.15186 1.07308 0.891106
v 1.15497 1.00556 0.869521
v 1.15502 1.01131 0.868036
v 1.24459 1.00614 0.893126
v 1.15497 1.00556 0.869521
v 1.15553 1.07149 0.852514
v 1.15502 1.01131 0.868036
v 1.15497 1.00556 0.869521
v 1.26122 1.13332 0.900144
v 1.27443 1.02636 0.895774
v 1.24368 1.13363 0.899171
v 1.15059 1.1353 0.89401
vt 0.72406 0.788079
vt 0.73021 0.794214
vt 0.727232 0.798757
vt 0.939772 -1.47013
vt 0.863807 -1.46141
vt 0.937039 -1.45763
vt -1.28076 -1.39886
vt -1.26661 -1.44131
vt -1.29305 -1.40248
vt -1.24904 -1.44104
vt -1.15696 -1.42185
vt -1.16076 -1.36349
vt 1.05352 0.778588
vt 1.10086 0.771855
vt 1.05193 0.739822
vt 1.11574 0.781598
vt 0.714551 0.799875
vt 0.720444 0.788034
vt 0.716995 0.805693
vt 0.720444 0.788034
vt 0.714551 0.799875
vt 0.710654 0.793079
vt 0.848285 -1.33888
vt 0.842949 -1.43189
vt 0.842351 -1.33921
vt 0.910336 -1.3354
vt 0.991742 0.755323
vt 0.985986 0.756806
vt 0.727232 0.798757
vt 0.72406 0.788079
vt 0.725609 0.799857
vt -1.15581 -1.4396
vn 0.641818 0.0480323 0.765351
vn 0.641818 0.0480323 0.765351
vn 0.641818 0.0480323 0.765351
vn 0.248492 -0.243926 -0.937418
vn 0.248492 -0.243926 -0.937418
vn 0.248492 -0.243926 -0.937418
vn 0.056081 0.547363 -0.835014
vn 0.056081 0.547363 -0.835014
vn 0.056081 0.547363 -0.835014
vn 0.056081 0.547363 -0.835014
vn 0.056081 0.547363 -0.835014
vn 0.056081 0.547363 -0.835014
vn -0.995425 -0.0157846 -0.094229
vn -0.995425 -0.0157846 -0.094229
vn -0.995425 -0.0157846 -0.094229
vn -0.995425 -0.0157846 -0.094229
vn -0.0561504 -0.0476835 0.997283
vn -0.0561504 -0.0476835 0.997283
vn -0.0561504 -0.0476835 0.997283
vn -0.240675 -0.305574 0.921249
vn -0.240675 -0.305574 0.921249
vn -0.240675 -0.305574 0.921249
vn 0.248492 -0.243926 -0.937418
vn 0.248492 -0.243926 -0.937418
vn 0.248492 -0.243926 -0.937418
vn 0.248492 -0.243926 -0.937418
vn -0.995425 -0.0157846 -0.094229
vn -0.995425 -0.0157846 -0.094229
vn -0.0561504 -0.0476835 0.997283
vn -0.0561504 -0.0476835 0.997283
vn -0.0561504 -0.0476835 0.997283
vn 0.056081 0.547363 -0.835014
f 1/1/1 2/2/2 3/3/3 
f 4/4/4 5/5/5 6/6/6 
f 7/7/7 8/8/8 9/9/9 
f 7/7/7 10/10/10 8/8/8 
f 7/7/7 11/11/11 10/10/10 
f 11/11/11 7/7/7 12/12/12 
f 13/13/13 14/14/14 15/15/15 
f 13/13/13 16/16/16 14/14/14 
f 17/17/17 18/18/18 19/19/19 
f 20/20/20 21/21/21 22/22/22 
f 23/23/23 24/24/24 25/25/25 
f 23/23/23 6/6/6 24/24/24 
f 26/26/26 6/6/6 23/23/23 
f 27/27/27 13/13/13 15/15/15 
f 28/28/28 13/13/13 27/27/27 
f 6/6/6 5/5/5 24/24/24 
f 29/29/29 18/18/18 30/30/30 
f 31/31/31 18/18/18 29/29/29 
f 19/19/19 18/18/18 31/31/31 
f 10/10/10 11/11/11 32/32/32 
