v -0.286032 1.80173 -0.684798
v 0.1404 1.9043 -0.7175
v -0.261887 1.72998 -0.705429
v -0.286032 1.80173 -0.684798
v -0.0892093 2.15833 -0.475596
v 0.1404 1.9043 -0.7175
v -0.102905 2.15852 -0.472019
v -0.266955 1.95872 -0.575729
v -0.130128 2.1589 -0.464908
v -0.253651 2.0682 -0.499666
v -0.130128 2.1589 -0.464908
v -0.253651 2.0682 -0.499666
v -0.205371 2.15574 -0.41908
v -0.130128 2.1589 -0.464908
v -0.205371 2.15574 -0.41908
v -0.199721 2.15271 -0.402136
v -0.102905 2.15852 -0.472019
v 0.00316921 2.13995 -0.393073
v -0.139664 2.14711 -0.38809
v -0.151947 2.14773 -0.387662
v -0.151947 2.14773 -0.387662
v -0.170119 2.14382 -0.381034
v -0.139664 2.14711 -0.388091
v -0.178081 2.14811 -0.385597
v -0.17998 2.14913 -0.386685
v -0.179979 2.14913 -0.386684
v -0.17998 2.14913 -0.386685
v -0.199721 2.15271 -0.402136
v -0.178081 2.14811 -0.385597
v -0.170119 2.14382 -0.381033
v -0.215987 2.15177 -0.417148
v -0.0990254 2.10554 -0.340286
v -0.0990255 2.10554 -0.340287
v 0.00316918 2.13994 -0.393074
v 0.0362067 2.10451 -0.352165
v 0.0479749 2.1127 -0.363506
v 0.0367691 2.13826 -0.394246
v 0.0367691 2.13826 -0.394245
v 0.0477038 2.13861 -0.40021
v -0.0892093 2.15833 -0.475596
v 0.0483493 2.13873 -0.401212
v -0.0263273 2.15746 -0.49202
v 0.0524865 2.13953 -0.407634
v -0.0263272 2.15746 -0.49202
v 0.0524863 2.13953 -0.407634
v 0.0756299 2.12012 -0.409405
v 0.0864282 2.11106 -0.410231
v 0.1404 1.9043 -0.7175
v -0.0263272 2.15746 -0.49202
v 0.143743 2.063 -0.414617
v 0.171186 2.03998 -0.416717
v 0.171186 2.03998 -0.416717
v 0.294601 1.96745 -0.586936
v 0.1404 1.9043 -0.7175
v 0.214496 2.02569 -0.451536
v 0.239909 2.0173 -0.471967
v 0.269974 2.01109 -0.501434
v 0.294601 1.96745 -0.586936
v 0.239909 2.0173 -0.471967
v 0.283589 2.00827 -0.514778
v 0.294601 1.96745 -0.586936
v 0.283589 2.00827 -0.514779
v 0.303076 1.96118 -0.553397
v 0.305997 1.95409 -0.559305
v 0.310634 1.94283 -0.568686
v 0.323001 1.9128 -0.593707
v 0.354119 1.83724 -0.656659
v 0.347878 1.82658 -0.735459
v 0.309489 1.89191 -0.756536
v 0.309489 1.89191 -0.756536
v 0.309489 1.89191 -0.756536
v 0.321013 1.70729 -0.782301
v 0.1404 1.9043 -0.7175
v 0.348594 1.74139 -0.784128
v 0.341664 1.82788 -0.771719
v 0.341663 1.82788 -0.771718
v 0.348594 1.74139 -0.784128
v 0.341664 1.82788 -0.771719
v 0.347878 1.82658 -0.735459
v 0.359917 1.74155 -0.716488
v 0.353652 1.72696 -0.762928
v 0.352516 1.72432 -0.771346
v 0.352139 1.72344 -0.774144
v 0.350364 1.71931 -0.787297
v 0.350364 1.71931 -0.787297
v 0.321013 1.70729 -0.782301
v 0.350364 1.71931 -0.787297
v 0.352138 1.72344 -0.774144
v 0.352516 1.72432 -0.771346
v 0.267672 1.68547 -0.773222
v 0.353651 1.72696 -0.762928
v 0.359917 1.74155 -0.716488
v 0.202134 1.65865 -0.762067
v 0.361069 1.74424 -0.707946
v 0.368009 1.7604 -0.656507
v 0.361202 1.7631 -0.633677
v 0.236557 1.73601 -0.517997
v 0.354318 1.76584 -0.610587
v 0.254242 1.7445 -0.516068
v 0.353328 1.76623 -0.607264
v 0.344664 1.76967 -0.578203
v 0.340365 1.77138 -0.563785
v 0.28806 1.76073 -0.512378
v 0.292801 1.77262 -0.507977
v 0.254242 1.7445 -0.516067
v 0.28806 1.76073 -0.512377
v 0.306693 1.83517 -0.483888
v 0.311441 1.81935 -0.490681
v 0.311441 1.81935 -0.490681
v 0.323002 1.9128 -0.593707
v 0.306693 1.83517 -0.483888
v 0.319968 1.80521 -0.512233
v 0.344664 1.76967 -0.578203
v 0.354119 1.83724 -0.656659
v 0.353328 1.76623 -0.607264
v 0.354319 1.76584 -0.610587
v 0.360228 1.81878 -0.666641
v 0.361202 1.7631 -0.633677
v 0.368009 1.7604 -0.656507
v 0.361069 1.74424 -0.707946
v 0.360228 1.81878 -0.666641
v 0.368009 1.7604 -0.656507
v 0.359513 1.82414 -0.667572
v 0.359513 1.82414 -0.667571
v 0.359513 1.82414 -0.667571
v 0.337539 1.77606 -0.556642
v 0.340365 1.77138 -0.563785
v 0.337539 1.77606 -0.556642
v 0.28806 1.76073 -0.512378
v 0.340365 1.77138 -0.563785
v 0.292801 1.77262 -0.507977
v 0.319968 1.80521 -0.512233
v 0.31144 1.81935 -0.490681
v 0.299302 1.8598 -0.473314
v 0.299302 1.8598 -0.473314
v 0.236557 1.73601 -0.517997
v 0.297065 1.86725 -0.470113
v 0.21051 1.99969 -0.409277
v 0.268648 1.96194 -0.429457
v 0.297065 1.86725 -0.470113
v 0.283593 2.00705 -0.513036
v 0.268648 1.96194 -0.429457
v 0.283857 2.00785 -0.514516
v 0.303077 1.96118 -0.553397
v 0.283857 2.00785 -0.514516
v 0.283589 2.00827 -0.514779
v 0.283593 2.00705 -0.513036
v 0.283857 2.00785 -0.514516
v 0.269973 2.01109 -0.501434
v 0.268648 1.96194 -0.429457
v 0.239909 2.0173 -0.471967
v 0.21051 1.99969 -0.409277
v 0.214496 2.02569 -0.451537
v 0.181592 2.01848 -0.39924
v 0.181592 2.01848 -0.39924
v -0.0670063 1.93495 -0.411911
v 0.146874 2.04102 -0.387189
v 0.11175 2.06384 -0.374998
v 0.0492757 2.10441 -0.353313
v 0.0362067 2.10451 -0.352165
v -0.0990254 2.10554 -0.340286
v -0.0670063 1.93495 -0.411911
v -0.00766851 1.6188 -0.544646
v 0.0743455 1.65816 -0.535697
v -0.0076685 1.6188 -0.544646
v 0.13171 1.6857 -0.529437
v 0.13171 1.6857 -0.529438
v 0.0541485 1.61604 -0.665989
v 0.0743455 1.65816 -0.535697
v -0.025517 1.6046 -0.568846
v -0.00766863 1.6188 -0.544646
v -0.025517 1.6046 -0.568846
v -0.0662526 1.62621 -0.592385
v -0.025517 1.6046 -0.568846
v -0.0662528 1.62621 -0.592385
v 0.0541485 1.61604 -0.665989
v -0.015388 1.67052 -0.753087
v 0.110399 1.62411 -0.734581
v 0.110399 1.62411 -0.734581
v 0.135601 1.62773 -0.765311
v -0.0153881 1.67052 -0.753087
v 0.202134 1.65865 -0.762067
v 0.135601 1.62773 -0.765311
v 0.1404 1.9043 -0.7175
v 0.267672 1.68547 -0.773222
v 0.202134 1.65865 -0.762067
v -0.0153881 1.67052 -0.753087
v -0.261887 1.72998 -0.705429
v -0.286032 1.80173 -0.684798
v -0.261887 1.72998 -0.705429
v -0.266955 1.95872 -0.575729
v -0.253651 2.0682 -0.499666
v -0.215987 2.15177 -0.417148
v -0.205371 2.15574 -0.41908
v -0.215987 2.15177 -0.417148
v -0.218436 2.1561 -0.416784
v -0.218436 2.1561 -0.416784
v -0.21675 2.1558 -0.415464
v -0.215177 2.15551 -0.414233
v -0.208735 2.15434 -0.409191
v -0.208735 2.15434 -0.409191
v -0.215177 2.15551 -0.414233
v -0.21675 2.1558 -0.415464
v -0.218436 2.1561 -0.416784
v 0.135601 1.62773 -0.765311
v 0.0483009 2.11062 -0.36095
v 0.0492757 2.10441 -0.353313
v 0.0483009 2.11062 -0.36095
v 0.0864279 2.11106 -0.410231
v 0.047975 2.1127 -0.363506
v 0.11175 2.06384 -0.374998
v 0.0492748 2.10441 -0.353313
v 0.143743 2.063 -0.414617
v 0.146873 2.04102 -0.387189
v 0.171185 2.03998 -0.416717
v 0.0756296 2.12012 -0.409405
v 0.0442694 2.13632 -0.392565
v 0.0442693 2.13632 -0.392565
v 0.0440236 2.1379 -0.394499
v 0.0440237 2.1379 -0.394498
v 0.0440229 2.1379 -0.394498
v 0.0477036 2.13861 -0.400211
v 0.0483489 2.13873 -0.401213
v 0.052486 2.13953 -0.407634
v 0.305997 1.95409 -0.559305
v 0.310634 1.94283 -0.568686
vt 0.187536 0.588301
vt 0.1651 0.6348
vt 0.181969 0.584637
vt 0.187536 0.588301
vt 0.220275 0.640033
vt 0.1651 0.6348
vt 0.221481 0.638881
vt 0.207769 0.605298
vt 0.223878 0.63659
vt 0.221879 0.617152
vt 0.223878 0.63659
vt 0.221879 0.617152
vt 0.229348 0.628435
vt 0.24306 0.800881
vt 0.318417 0.755132
vt 0.312757 0.737921
vt 0.215796 0.807842
vt 0.10956 0.726951
vt 0.25261 0.723166
vt 0.264912 0.72284
vt 0.238781 1.64705
vt 0.256987 1.63944
vt 0.226475 1.647
vt 0.264964 1.64568
vt 0.266866 1.64717
vt 0.292986 0.722098
vt 1.9002 -0.391434
vt 1.90411 -0.416454
vt 1.89909 -0.389293
vt 1.89441 -0.38031
vt 1.90309 -0.438585
vt 1.85261 -0.300104
vt 0.185761 1.5837
vt 0.083377 1.6464
vt 0.0502782 1.59231
vt 0.0384881 1.60628
vt 0.0497148 1.64626
vt 0.0759097 0.727842
vt 0.0649584 0.733787
vt 0.202079 0.811344
vt 0.064312 0.734796
vt 0.139102 0.827423
vt 0.0601685 0.741262
vt 0.214737 0.645324
vt 0.220324 0.659051
vt 0.217926 0.660482
vt 0.216807 0.66115
vt 0.1651 0.6348
vt 0.214737 0.645324
vt 0.210867 0.664693
vt 0.208023 0.66639
vt 0.208023 0.66639
vt 0.181584 0.664191
vt 0.1651 0.6348
vt 0.202339 0.667951
vt 0.199004 0.668867
vt 0.194382 0.669563
vt 0.181584 0.664191
vt 0.199004 0.668867
vt 0.192289 0.669879
vt -0.42355 1.59256
vt -0.35075 1.63372
vt -0.389713 1.58302
vt -0.395674 1.57539
vt -0.405138 1.56328
vt -0.430382 1.53098
vt -0.493896 1.4497
vt -0.573398 1.44327
vt -0.594664 1.519
vt 0.156889 0.649969
vt 0.156889 0.649969
vt 0.140669 0.628935
vt 0.1651 0.6348
vt 0.142407 0.635746
vt 0.150071 0.645449
vt -0.609982 1.44737
vt 1.68388 0.7157
vt 1.77082 0.704607
vt 1.76951 0.667819
vt 1.68404 0.647119
vt 1.66937 0.693956
vt 1.66671 0.702446
vt 1.66583 0.705268
vt 1.66167 0.718533
vt 0.14045 0.633268
vt -0.442338 0.996086
vt -0.447465 1.02778
vt -0.433968 1.0311
vt -0.431096 1.0318
vt -0.433021 0.938489
vt -0.422456 1.03393
vt -0.374797 1.04565
vt -0.421573 0.867723
vt -0.366031 1.04781
vt -0.31324 1.06079
vt -0.289811 1.0557
vt -0.171093 0.930971
vt -0.266115 1.05056
vt -0.169112 0.950583
vt -0.262704 1.04982
vt -0.23288 1.04334
vt -0.218083 1.04013
vt -0.165325 0.988084
vt -0.380815 1.45333
vt -0.342137 1.42423
vt -0.376059 1.44066
vt -0.394749 1.52035
vt -0.399512 1.50314
vt 1.76304 0.555961
vt 1.85791 0.65834
vt 1.7791 0.548148
vt 1.74869 0.579007
vt 1.71261 0.649174
vt 1.7812 0.72731
vt 1.70912 0.679493
vt 1.70872 0.68296
vt 1.76246 0.73856
vt 1.70594 0.707049
vt 1.7032 0.730868
vt 1.68674 0.638504
vt 1.76167 0.597907
vt 1.70299 0.586626
vt 1.76706 0.598943
vt 1.76791 0.739266
vt -0.504906 1.43561
vt 1.7191 0.626493
vt 1.71434 0.634132
vt 1.50764 0.641607
vt 1.49019 0.575744
vt 1.5023 0.648853
vt 1.50372 0.57553
vt 1.54082 0.596555
vt 1.55692 0.574691
vt 1.8041 0.535987
vt -0.387336 1.54714
vt -0.324398 1.41564
vt -0.385092 1.55526
vt -0.29827 1.70085
vt -0.356587 1.65828
vt 1.81167 0.532305
vt 1.95358 0.570081
vt 1.90779 0.485543
vt 1.9544 0.571578
vt 1.90702 0.614177
vt -0.350484 1.63322
vt -1.23695 1.12535
vt -1.23498 1.12453
vt -1.23665 1.12487
vt -1.22189 1.13739
vt -1.14071 1.10566
vt -1.18866 1.16396
vt -1.11795 1.17417
vt -1.16561 1.18851
vt -1.10662 1.20826
vt -0.269264 1.72202
vt -0.0198982 1.63982
vt -0.234437 1.74744
vt -0.199206 1.77316
vt -0.136539 1.8189
vt -0.123429 1.81942
vt 0.0122197 1.82483
vt 1.66633 -0.323765
vt 1.32113 -0.367613
vt -0.161686 1.33682
vt -0.0794189 1.29698
vt -0.219227 1.3647
vt -0.182833 0.814704
vt -0.322972 0.715329
vt -0.189257 0.751091
vt -0.223277 0.63803
vt -0.198441 0.660144
vt 1.30562 -0.397031
vt 1.32922 -0.443115
vt 0.391643 -1.09607
vt 0.4341 -1.1257
vt 0.308611 -1.19104
vt 0.381085 -1.29173
vt 0.249983 -1.2581
vt -0.393365 0.769909
vt -0.424902 0.794362
vt 0.16242 0.601873
vt 0.141554 0.611382
vt 0.145423 0.60475
vt 0.1651 0.6348
vt 0.141066 0.621059
vt 0.141554 0.611382
vt 0.16242 0.601873
vt 0.638 -1.26798
vt 1.52087 -0.668768
vt 1.44253 -0.664432
vt 1.69229 -0.582043
vt 1.81183 -0.521561
vt 0.229667 0.627035
vt 0.229348 0.628435
vt 0.229667 0.627035
vt 0.23004 0.627034
vt 0.331501 0.752922
vt 0.329812 0.75157
vt 0.328237 0.75031
vt 0.321785 0.745146
vt 1.90589 -0.427878
vt 1.90717 -0.436043
vt 1.90748 -0.438036
vt 1.90781 -0.440173
vt 0.223717 -1.28815
vt 0.0381615 1.60299
vt 0.0371849 1.59315
vt -1.06344 1.36906
vt -1.11902 1.3409
vt -1.06632 1.37069
vt -1.07928 1.29057
vt -1.05482 1.3642
vt -1.12397 1.26614
vt -1.09303 1.24917
vt -1.12634 1.23034
vt -1.11809 1.35499
vt -1.09909 1.38918
vt 0.0422006 1.64374
vt 0.0424467 1.64623
vt 0.0686441 0.728034
vt -1.10128 1.39041
vt -1.10772 1.38814
vt -1.10885 1.38774
vt -1.11609 1.38518
vt 1.89982 0.62065
vt 1.88839 0.630927
vn -0.130026 0.233341 -0.963663
vn -0.130026 0.233341 -0.963663
vn -0.130026 0.233341 -0.963663
vn -0.199219 0.575345 -0.793278
vn -0.199219 0.575345 -0.793278
vn -0.199219 0.575345 -0.793278
vn -0.199219 0.575345 -0.793278
vn -0.199219 0.575345 -0.793278
vn -0.199219 0.575345 -0.793278
vn -0.199219 0.575345 -0.793278
vn -0.376921 0.731236 -0.568528
vn -0.376921 0.731236 -0.568528
vn -0.376921 0.731236 -0.568528
vn 0.0549687 0.985892 0.1581
vn 0.0549687 0.985892 0.1581
vn 0.0549687 0.985892 0.1581
vn 0.0549687 0.985892 0.1581
vn 0.0549687 0.985892 0.1581
vn 0.0549687 0.985892 0.1581
vn 0.0549687 0.985892 0.1581
vn 0.0608408 0.778262 0.624986
vn 0.0608408 0.778262 0.624986
vn 0.0608408 0.778262 0.624986
vn 0.0608408 0.778262 0.624986
vn 0.0608408 0.778262 0.624986
vn 0.0549687 0.985892 0.1581
vn -0.608507 -0.401575 0.684439
vn -0.608507 -0.401575 0.684439
vn -0.608507 -0.401575 0.684439
vn -0.608507 -0.401575 0.684439
vn -0.608507 -0.401575 0.684439
vn -0.608507 -0.401575 0.684439
vn 0.0608408 0.778262 0.624986
vn 0.0608408 0.778262 0.624986
vn 0.0608408 0.778262 0.624986
vn 0.0608408 0.778262 0.624986
vn 0.0608408 0.778262 0.624986
vn 0.0549687 0.985892 0.1581
vn 0.0549687 0.985892 0.1581
vn 0.0549687 0.985892 0.1581
vn 0.0549687 0.985892 0.1581
vn 0.0549687 0.985892 0.1581
vn 0.0549687 0.985892 0.1581
vn 0.575759 0.721601 -0.384441
vn 0.575759 0.721601 -0.384441
vn 0.575759 0.721601 -0.384441
vn 0.575759 0.721601 -0.384441
vn 0.575759 0.721601 -0.384441
vn -0.199219 0.575345 -0.793278
vn 0.575759 0.721601 -0.384441
vn 0.575759 0.721601 -0.384441
vn -0.0275299 0.912255 -0.408697
vn -0.0275299 0.912255 -0.408697
vn -0.0275299 0.912255 -0.408697
vn -0.0275299 0.912255 -0.408697
vn -0.0275299 0.912255 -0.408697
vn -0.327132 0.800214 -0.502635
vn -0.327132 0.800214 -0.502635
vn -0.327132 0.800214 -0.502635
vn -0.327132 0.800214 -0.502635
vn 0.872666 0.469943 -0.13269
vn 0.872666 0.469943 -0.13269
vn 0.872666 0.469943 -0.13269
vn 0.872666 0.469943 -0.13269
vn 0.872666 0.469943 -0.13269
vn 0.872666 0.469943 -0.13269
vn 0.872666 0.469943 -0.13269
vn 0.872666 0.469943 -0.13269
vn 0.872666 0.469943 -0.13269
vn -0.0275299 0.912255 -0.408697
vn -0.214791 0.121825 -0.969032
vn -0.214791 0.121825 -0.969032
vn -0.214791 0.121825 -0.969032
vn -0.214791 0.121825 -0.969032
vn -0.214791 0.121825 -0.969032
vn 0.872666 0.469943 -0.13269
vn 0.981071 0.102216 -0.164472
vn 0.981071 0.102216 -0.164472
vn 0.981071 0.102216 -0.164472
vn 0.981071 0.102216 -0.164472
vn 0.981071 0.102216 -0.164472
vn 0.981071 0.102216 -0.164472
vn 0.981071 0.102216 -0.164472
vn 0.981071 0.102216 -0.164472
vn -0.214791 0.121825 -0.969032
vn 0.401567 -0.887814 0.224792
vn 0.401567 -0.887814 0.224792
vn 0.401567 -0.887814 0.224792
vn 0.401567 -0.887814 0.224792
vn 0.401567 -0.887814 0.224792
vn 0.401567 -0.887814 0.224792
vn 0.401567 -0.887814 0.224792
vn 0.401567 -0.887814 0.224792
vn 0.401567 -0.887814 0.224792
vn 0.401567 -0.887814 0.224792
vn 0.401567 -0.887814 0.224792
vn 0.401567 -0.887814 0.224792
vn 0.401567 -0.887814 0.224792
vn 0.401567 -0.887814 0.224792
vn 0.401567 -0.887814 0.224792
vn 0.401567 -0.887814 0.224792
vn 0.401567 -0.887814 0.224792
vn 0.401567 -0.887814 0.224792
vn 0.0783434 -0.373391 0.92436
vn 0.0783434 -0.373391 0.92436
vn 0.0783434 -0.373391 0.92436
vn 0.0783434 -0.373391 0.92436
vn 0.0783434 -0.373391 0.92436
vn 0.949404 0.172145 0.262674
vn 0.949404 0.172145 0.262674
vn 0.949404 0.172145 0.262674
vn 0.949404 0.172145 0.262674
vn 0.949404 0.172145 0.262674
vn 0.949404 0.172145 0.262674
vn 0.949404 0.172145 0.262674
vn 0.949404 0.172145 0.262674
vn 0.949404 0.172145 0.262674
vn 0.949404 0.172145 0.262674
vn 0.949404 0.172145 0.262674
vn 0.981071 0.102216 -0.164472
vn 0.981071 0.102216 -0.164472
vn 0.981071 0.102216 -0.164472
vn 0.981071 0.102216 -0.164472
vn 0.949404 0.172145 0.262674
vn 0.872666 0.469943 -0.13269
vn 0.949404 0.172145 0.262674
vn 0.949404 0.172145 0.262674
vn 0.663307 -0.477769 0.575986
vn 0.663307 -0.477769 0.575986
vn 0.663307 -0.477769 0.575986
vn 0.663307 -0.477769 0.575986
vn 0.663307 -0.477769 0.575986
vn 0.663307 -0.477769 0.575986
vn 0.949404 0.172145 0.262674
vn 0.0783434 -0.373391 0.92436
vn 0.0783434 -0.373391 0.92436
vn 0.0783434 -0.373391 0.92436
vn 0.0783434 -0.373391 0.92436
vn 0.0783434 -0.373391 0.92436
vn 0.949404 0.172145 0.262674
vn 0.949404 0.172145 0.262674
vn 0.949404 0.172145 0.262674
vn 0.949404 0.172145 0.262674
vn 0.949404 0.172145 0.262674
vn 0.872666 0.469943 -0.13269
vn 0.590216 0.661553 0.462594
vn 0.590216 0.661553 0.462594
vn 0.590216 0.661553 0.462594
vn 0.590216 0.661553 0.462594
vn 0.590216 0.661553 0.462594
vn 0.590216 0.661553 0.462594
vn 0.590216 0.661553 0.462594
vn 0.590216 0.661553 0.462594
vn 0.590216 0.661553 0.462594
vn 0.0783434 -0.373391 0.92436
vn 0.0783434 -0.373391 0.92436
vn 0.0783434 -0.373391 0.92436
vn 0.0783434 -0.373391 0.92436
vn 0.0783434 -0.373391 0.92436
vn 0.0783434 -0.373391 0.92436
vn 0.0783434 -0.373391 0.92436
vn -0.608507 -0.401575 0.684439
vn -0.608507 -0.401575 0.684439
vn 0.0783434 -0.373391 0.92436
vn 0.0783434 -0.373391 0.92436
vn 0.0783434 -0.373391 0.92436
vn 0.401567 -0.887814 0.224792
vn 0.401567 -0.887814 0.224792
vn 0.401567 -0.887814 0.224792
vn 0.401567 -0.887814 0.224792
vn 0.401567 -0.887814 0.224792
vn -0.608507 -0.401575 0.684439
vn -0.608507 -0.401575 0.684439
vn -0.281851 -0.898362 -0.336908
vn -0.281851 -0.898362 -0.336908
vn -0.281851 -0.898362 -0.336908
vn -0.281851 -0.898362 -0.336908
vn -0.281851 -0.898362 -0.336908
vn 0.401567 -0.887814 0.224792
vn 0.401567 -0.887814 0.224792
vn -0.0313323 0.170792 -0.984809
vn -0.0313323 0.170792 -0.984809
vn -0.0313323 0.170792 -0.984809
vn -0.0313323 0.170792 -0.984809
vn -0.214791 0.121825 -0.969032
vn -0.214791 0.121825 -0.969032
vn -0.130026 0.233341 -0.963663
vn -0.281851 -0.898362 -0.336908
vn -0.608507 -0.401575 0.684439
vn -0.608507 -0.401575 0.684439
vn -0.608507 -0.401575 0.684439
vn -0.608507 -0.401575 0.684439
vn -0.376921 0.731236 -0.568528
vn -0.173499 -0.0154317 -0.984713
vn -0.173499 -0.0154317 -0.984713
vn -0.173499 -0.0154317 -0.984713
vn 0.0549687 0.985892 0.1581
vn 0.0549687 0.985892 0.1581
vn 0.0549687 0.985892 0.1581
vn 0.0549687 0.985892 0.1581
vn -0.608507 -0.401575 0.684439
vn -0.608507 -0.401575 0.684439
vn -0.608507 -0.401575 0.684439
vn -0.608507 -0.401575 0.684439
vn -0.281851 -0.898362 -0.336908
vn 0.0608408 0.778262 0.624986
vn 0.0608408 0.778262 0.624986
vn 0.590216 0.661553 0.462594
vn 0.590216 0.661553 0.462594
vn 0.590216 0.661553 0.462594
vn 0.590216 0.661553 0.462594
vn 0.590216 0.661553 0.462594
vn 0.590216 0.661553 0.462594
vn 0.590216 0.661553 0.462594
vn 0.590216 0.661553 0.462594
vn 0.590216 0.661553 0.462594
vn 0.590216 0.661553 0.462594
vn 0.0608408 0.778262 0.624986
vn 0.0608408 0.778262 0.624986
vn 0.0549687 0.985892 0.1581
vn 0.590216 0.661553 0.462594
vn 0.590216 0.661553 0.462594
vn 0.590216 0.661553 0.462594
vn 0.590216 0.661553 0.462594
vn 0.949404 0.172145 0.262674
vn 0.949404 0.172145 0.262674
f 1/1/1 2/2/2 3/3/3 
f 4/4/4 5/5/5 6/6/6 
f 4/4/4 7/7/7 5/5/5 
f 8/8/8 7/7/7 4/4/4 
f 8/8/8 9/9/9 7/7/7 
f 10/10/10 9/9/9 8/8/8 
f 11/11/11 12/12/12 13/13/13 
f 14/14/14 15/15/15 16/16/16 
f 14/14/14 16/16/16 17/17/17 
f 16/16/16 18/18/18 17/17/17 
f 16/16/16 19/19/19 18/18/18 
f 19/19/19 16/16/16 20/20/20 
f 21/21/21 22/22/22 23/23/23 
f 21/21/21 24/24/24 22/22/22 
f 21/21/21 25/25/25 24/24/24 
f 20/20/20 16/16/16 26/26/26 
f 27/27/27 28/28/28 29/29/29 
f 29/29/29 28/28/28 30/30/30 
f 30/30/30 28/28/28 31/31/31 
f 30/30/30 31/31/31 32/32/32 
f 23/23/23 22/22/22 33/33/33 
f 34/34/34 23/23/23 33/33/33 
f 34/34/34 33/33/33 35/35/35 
f 34/34/34 35/35/35 36/36/36 
f 37/37/37 34/34/34 36/36/36 
f 17/17/17 18/18/18 38/38/38 
f 17/17/17 38/38/38 39/39/39 
f 39/39/39 40/40/40 17/17/17 
f 41/41/41 40/40/40 39/39/39 
f 41/41/41 42/42/42 40/40/40 
f 43/43/43 42/42/42 41/41/41 
f 44/44/44 45/45/45 46/46/46 
f 44/44/44 46/46/46 47/47/47 
f 44/44/44 47/47/47 48/48/48 
f 6/6/6 5/5/5 49/49/49 
f 48/48/48 47/47/47 50/50/50 
f 48/48/48 50/50/50 51/51/51 
f 52/52/52 53/53/53 54/54/54 
f 55/55/55 53/53/53 52/52/52 
f 56/56/56 53/53/53 55/55/55 
f 57/57/57 58/58/58 59/59/59 
f 60/60/60 58/58/58 57/57/57 
f 61/61/61 62/62/62 63/63/63 
f 61/61/61 63/63/63 64/64/64 
f 65/65/65 61/61/61 64/64/64 
f 61/61/61 65/65/65 66/66/66 
f 67/67/67 61/61/61 66/66/66 
f 61/61/61 67/67/67 68/68/68 
f 61/61/61 68/68/68 69/69/69 
f 54/54/54 53/53/53 70/70/70 
f 71/71/71 72/72/72 73/73/73 
f 71/71/71 74/74/74 72/72/72 
f 71/71/71 75/75/75 74/74/74 
f 69/69/69 68/68/68 76/76/76 
f 77/77/77 78/78/78 79/79/79 
f 77/77/77 79/79/79 80/80/80 
f 77/77/77 80/80/80 81/81/81 
f 82/82/82 77/77/77 81/81/81 
f 83/83/83 77/77/77 82/82/82 
f 84/84/84 77/77/77 83/83/83 
f 72/72/72 74/74/74 85/85/85 
f 86/86/86 87/87/87 88/88/88 
f 86/86/86 88/88/88 89/89/89 
f 89/89/89 90/90/90 86/86/86 
f 91/91/91 90/90/90 89/89/89 
f 92/92/92 90/90/90 91/91/91 
f 92/92/92 93/93/93 90/90/90 
f 94/94/94 93/93/93 92/92/92 
f 95/95/95 93/93/93 94/94/94 
f 96/96/96 93/93/93 95/95/95 
f 96/96/96 97/97/97 93/93/93 
f 98/98/98 97/97/97 96/96/96 
f 98/98/98 99/99/99 97/97/97 
f 100/100/100 99/99/99 98/98/98 
f 101/101/101 99/99/99 100/100/100 
f 102/102/102 99/99/99 101/101/101 
f 103/103/103 99/99/99 102/102/102 
f 104/104/104 105/105/105 106/106/106 
f 104/104/104 107/107/107 105/105/105 
f 108/108/108 107/107/107 104/104/104 
f 109/109/109 110/110/110 111/111/111 
f 112/112/112 110/110/110 109/109/109 
f 110/110/110 112/112/112 113/113/113 
f 110/110/110 113/113/113 114/114/114 
f 115/115/115 114/114/114 113/113/113 
f 116/116/116 114/114/114 115/115/115 
f 116/116/116 117/117/117 114/114/114 
f 117/117/117 116/116/116 118/118/118 
f 117/117/117 118/118/118 119/119/119 
f 120/120/120 121/121/121 122/122/122 
f 121/121/121 120/120/120 123/123/123 
f 124/124/124 114/114/114 117/117/117 
f 68/68/68 67/67/67 125/125/125 
f 123/123/123 120/120/120 79/79/79 
f 80/80/80 79/79/79 120/120/120 
f 113/113/113 112/112/112 126/126/126 
f 113/113/113 126/126/126 127/127/127 
f 128/128/128 129/129/129 130/130/130 
f 128/128/128 131/131/131 129/129/129 
f 128/128/128 132/132/132 131/131/131 
f 132/132/132 133/133/133 131/131/131 
f 111/111/111 110/110/110 134/134/134 
f 135/135/135 105/105/105 107/107/107 
f 135/135/135 136/136/136 105/105/105 
f 137/137/137 136/136/136 135/135/135 
f 137/137/137 138/138/138 136/136/136 
f 137/137/137 139/139/139 138/138/138 
f 140/140/140 141/141/141 142/142/142 
f 140/140/140 143/143/143 141/141/141 
f 144/144/144 143/143/143 140/140/140 
f 63/63/63 62/62/62 145/145/145 
f 146/146/146 147/147/147 148/148/148 
f 149/149/149 147/147/147 146/146/146 
f 149/149/149 150/150/150 147/147/147 
f 151/151/151 150/150/150 149/149/149 
f 151/151/151 152/152/152 150/150/150 
f 153/153/153 152/152/152 151/151/151 
f 154/154/154 152/152/152 153/153/153 
f 136/136/136 138/138/138 155/155/155 
f 155/155/155 156/156/156 136/136/136 
f 157/157/157 156/156/156 155/155/155 
f 158/158/158 156/156/156 157/157/157 
f 159/159/159 156/156/156 158/158/158 
f 160/160/160 156/156/156 159/159/159 
f 156/156/156 160/160/160 161/161/161 
f 32/32/32 31/31/31 162/162/162 
f 162/162/162 31/31/31 163/163/163 
f 164/164/164 156/156/156 165/165/165 
f 166/166/166 156/156/156 164/164/164 
f 156/156/156 166/166/166 136/136/136 
f 93/93/93 97/97/97 167/167/167 
f 167/167/167 168/168/168 93/93/93 
f 169/169/169 168/168/168 167/167/167 
f 169/169/169 170/170/170 168/168/168 
f 171/171/171 170/170/170 169/169/169 
f 163/163/163 31/31/31 172/172/172 
f 173/173/173 172/172/172 31/31/31 
f 174/174/174 175/175/175 176/176/176 
f 176/176/176 175/175/175 177/177/177 
f 176/176/176 177/177/177 178/178/178 
f 168/168/168 179/179/179 93/93/93 
f 93/93/93 179/179/179 180/180/180 
f 181/181/181 182/182/182 183/183/183 
f 184/184/184 182/182/182 181/181/181 
f 73/73/73 185/185/185 186/186/186 
f 73/73/73 72/72/72 185/185/185 
f 3/3/3 2/2/2 187/187/187 
f 177/177/177 175/175/175 188/188/188 
f 173/173/173 189/189/189 190/190/190 
f 191/191/191 189/189/189 173/173/173 
f 173/173/173 192/192/192 191/191/191 
f 31/31/31 192/192/192 173/173/173 
f 13/13/13 12/12/12 193/193/193 
f 194/194/194 195/195/195 196/196/196 
f 15/15/15 197/197/197 198/198/198 
f 15/15/15 198/198/198 199/199/199 
f 15/15/15 199/199/199 200/200/200 
f 15/15/15 200/200/200 16/16/16 
f 201/201/201 31/31/31 28/28/28 
f 31/31/31 201/201/201 202/202/202 
f 31/31/31 202/202/202 203/203/203 
f 31/31/31 203/203/203 204/204/204 
f 178/178/178 177/177/177 205/205/205 
f 206/206/206 35/35/35 207/207/207 
f 36/36/36 35/35/35 206/206/206 
f 208/208/208 209/209/209 210/210/210 
f 208/208/208 211/211/211 209/209/209 
f 212/212/212 211/211/211 208/208/208 
f 209/209/209 211/211/211 213/213/213 
f 213/213/213 211/211/211 214/214/214 
f 213/213/213 214/214/214 215/215/215 
f 215/215/215 214/214/214 154/154/154 
f 154/154/154 153/153/153 215/215/215 
f 210/210/210 209/209/209 216/216/216 
f 210/210/210 216/216/216 217/217/217 
f 37/37/37 36/36/36 218/218/218 
f 37/37/37 218/218/218 219/219/219 
f 39/39/39 38/38/38 220/220/220 
f 221/221/221 216/216/216 222/222/222 
f 217/217/217 216/216/216 221/221/221 
f 216/216/216 223/223/223 222/222/222 
f 223/223/223 216/216/216 224/224/224 
f 225/225/225 144/144/144 140/140/140 
f 226/226/226 225/225/225 140/140/140 
f 226/226/226 140/140/140 134/134/134 
f 110/110/110 226/226/226 134/134/134 
