v -0.800095 -1.34321 0.747636
v -1.21699 -1.02664 0.563528
v -0.796081 -1.37003 0.749022
v -0.758111 -1.34253 0.660575
v -1.21699 -1.02664 0.563528
v -0.800095 -1.34321 0.747636
v -0.950862 -1.16294 0.467745
v -0.752746 -1.34244 0.64945
v -0.781332 -1.29734 0.560968
v -0.747329 -1.34235 0.638219
v -0.781332 -1.29734 0.560968
v -0.747329 -1.34235 0.638219
v -0.783999 -1.63548 0.414462
v -0.809705 -1.60117 0.356176
v -0.809705 -1.60117 0.356176
v -0.835489 -1.60803 0.326171
v -0.781332 -1.29734 0.560968
v -0.811092 -1.61602 0.346165
v -0.811092 -1.61602 0.346166
v -1.15769 -1.61715 0.561372
v -0.835489 -1.60803 0.326171
v -0.783999 -1.63548 0.414463
v -0.782642 -1.63654 0.418251
v -0.841506 -1.6565 0.540855
v -0.880285 -1.66964 0.621627
v -0.909736 -1.67795 0.67565
v -0.903857 -1.67764 0.670724
v -0.903857 -1.67764 0.670724
v -0.902976 -1.66494 0.680088
v -0.909736 -1.67795 0.67565
v -0.887506 -1.66799 0.664032
v -0.870202 -1.60185 0.701604
v -0.858325 -1.65078 0.65209
v -0.720904 -1.50946 0.643943
v -0.843626 -1.55069 0.719051
v -0.823907 -1.51273 0.731996
v -1.3468 -1.2791 0.5005
v -0.843626 -1.55069 0.719051
v -0.823907 -1.51273 0.731996
v -0.870202 -1.60185 0.701604
v -1.15769 -1.61715 0.561372
v -0.902976 -1.66494 0.680088
v -0.909736 -1.67795 0.67565
v -1.24244 -1.59698 0.525001
v -1.24244 -1.59698 0.525001
v -0.985091 -1.55902 0.203561
v -0.985091 -1.55902 0.203561
v -0.950862 -1.16294 0.467745
v -1.05172 -1.37389 0.243627
v -1.01434 -1.54944 0.179586
v -1.05172 -1.37389 0.243626
v -1.01434 -1.54944 0.179586
v -1.21107 -1.51983 0.170055
v -1.26561 -1.51162 0.167412
v -1.0702 -1.28709 0.275293
v -1.29757 -1.50681 0.165864
v -1.09348 -1.17777 0.315172
v -1.32075 -1.50332 0.164741
v -1.09827 -1.1553 0.32337
v -1.32422 -1.5028 0.164573
v -1.11347 -1.08391 0.349414
v -1.33338 -1.50142 0.164129
v -1.13214 -1.06666 0.354105
v -1.13233 -1.0666 0.354105
v -1.3375 -1.5008 0.163929
v -1.13884 -1.0648 0.354111
v -1.13891 -1.06478 0.354111
v -1.33861 -1.50064 0.163876
v -1.14384 -1.06341 0.354116
v -1.14391 -1.06339 0.354116
v -1.33944 -1.50051 0.163835
v -1.1574 -1.05964 0.354129
v -1.47644 -1.42552 0.178271
v -1.17242 -1.05546 0.354143
v -1.17242 -1.05546 0.354143
v -1.15455 -1.02476 0.431271
v -1.1574 -1.05964 0.354129
v -1.26796 -1.02891 0.354235
v -1.49759 -1.27765 0.233319
v -1.26796 -1.02891 0.354235
v -1.44 -1.49474 0.19971
v -1.49759 -1.27765 0.233319
v -1.47644 -1.42552 0.178271
v -1.41938 -1.50461 0.230174
v -1.3468 -1.2791 0.5005
v -1.38093 -1.52302 0.287011
v -1.3468 -1.2791 0.5005
v -1.38093 -1.52302 0.287011
v -1.24244 -1.59698 0.525001
v -1.38093 -1.52302 0.287011
v -1.21107 -1.51983 0.170055
v -1.26561 -1.51162 0.167412
v -1.29757 -1.50681 0.165864
v -1.32075 -1.50332 0.164741
v -1.32422 -1.5028 0.164573
v -1.33338 -1.50142 0.164129
v -1.3375 -1.5008 0.163929
v -1.33861 -1.50064 0.163876
v -1.33944 -1.50051 0.163835
v -1.41938 -1.50461 0.230174
v -1.44 -1.49474 0.19971
v -1.43817 -1.48565 0.159052
v -1.43817 -1.48565 0.159052
v -1.44721 -1.48429 0.158614
v -1.44 -1.49474 0.19971
v -1.47644 -1.42552 0.178271
v -1.44721 -1.48429 0.158615
v -1.44721 -1.48429 0.158615
v -1.01434 -1.54944 0.179586
v -1.3468 -1.2791 0.5005
v -1.35363 -1.03193 0.343917
v -1.49759 -1.27765 0.233319
v -1.34579 -1.01969 0.349495
v -1.29779 -1.02061 0.354263
v -1.35363 -1.03193 0.343916
v -1.34579 -1.01969 0.349494
v -1.29779 -1.02061 0.354263
v -1.29862 -0.997664 0.403396
v -1.33866 -1.00925 0.354302
v -1.33866 -1.00925 0.354302
v -1.33914 -1.00931 0.354229
v -1.33914 -1.00931 0.354229
v -1.30855 -0.999407 0.398262
v -1.33866 -1.00925 0.354302
v -1.33914 -1.00931 0.354229
v -1.30855 -0.999407 0.398262
v -1.29914 -0.99636 0.41181
v -1.29862 -0.997664 0.403396
v -1.29914 -0.99636 0.41181
v -1.2962 -0.996962 0.406371
v -1.2962 -0.996962 0.406371
v -1.29152 -0.995609 0.412104
v -1.2434 -0.981679 0.471113
v -1.2434 -0.981679 0.471113
v -1.15455 -1.02476 0.431271
v -1.25047 -0.9806 0.48188
v -1.25047 -0.9806 0.48188
v -1.21699 -1.02664 0.563528
v -1.25464 -0.981952 0.475871
v -1.25464 -0.981952 0.475871
v -1.29152 -0.995609 0.412104
v -1.2434 -0.981679 0.471113
v -1.25047 -0.980601 0.48188
v -0.785564 -1.44028 0.752655
v -1.3468 -1.2791 0.5005
v -0.740344 -1.38653 0.639732
v -0.796081 -1.37003 0.749022
v -0.785564 -1.44028 0.752655
v -0.758111 -1.34253 0.660575
v -0.752746 -1.34244 0.64945
v -0.747329 -1.34235 0.638219
v -0.740344 -1.38653 0.639732
v -0.720904 -1.50946 0.643943
v -0.727631 -1.57368 0.598604
v -0.782562 -1.63651 0.418084
v -0.782562 -1.63651 0.418084
v -0.782562 -1.63651 0.418084
v -0.727631 -1.57368 0.598604
v -0.782642 -1.63654 0.418251
v -0.729133 -1.57456 0.599218
v -0.729133 -1.57456 0.599218
v -0.727631 -1.57368 0.598604
v -0.811142 -1.62294 0.632781
v -0.811142 -1.62294 0.632781
v -0.841506 -1.6565 0.540855
v -0.880284 -1.66964 0.621627
v -0.858325 -1.65078 0.65209
v -0.887506 -1.66799 0.664032
v -0.903856 -1.67764 0.670724
v -0.757369 -1.47212 0.705854
v -0.720904 -1.50946 0.643943
v -0.764346 -1.46497 0.717698
v -0.785042 -1.44377 0.752835
v -0.764346 -1.46497 0.717698
v -0.785042 -1.44377 0.752835
v -0.811787 -1.4894 0.739953
v -0.757369 -1.47212 0.705854
v -0.811787 -1.4894 0.739953
v -0.811787 -1.4894 0.739953
v -0.785042 -1.44377 0.752835
v -0.800095 -1.34321 0.747636
v -1.07889 -1.06145 0.397342
v -1.08439 -1.06287 0.390972
v -1.07889 -1.06145 0.397342
v -1.09233 -1.06492 0.381757
v -1.13884 -1.0648 0.354111
v -1.13233 -1.0666 0.354105
v -1.13214 -1.06666 0.354105
v -1.1162 -1.07109 0.35409
v -1.1162 -1.07109 0.354089
v -1.1162 -1.07109 0.35409
v -1.11347 -1.08391 0.349414
v -1.09233 -1.06492 0.381757
v -1.08439 -1.06287 0.390972
v -1.07889 -1.06145 0.397342
v -1.09827 -1.1553 0.32337
v -1.09348 -1.17777 0.315172
v -1.07021 -1.28709 0.275293
v -1.14384 -1.06341 0.354116
v -0.811092 -1.61602 0.346165
vt 0.373294 0.172515
vt 0.339736 0.227007
vt 0.373009 0.169291
vt 1.02909 -0.0666201
vt 0.92877 0.489899
vt 1.11908 -0.0313517
vt 0.82976 0.191946
vt 1.01759 -0.071127
vt 0.926124 -0.0230121
vt 1.00598 -0.0756767
vt -1.15932 -0.267168
vt -1.20476 -0.351343
vt -1.50065 -0.128216
vt -1.46601 -0.0646878
vt -1.17051 0.316792
vt -1.17792 0.356254
vt -0.842362 0.151331
vt -1.18655 0.324881
vt 0.602161 0.699127
vt 0.951937 0.909125
vt 0.626781 0.677851
vt 0.574819 0.770048
vt 0.573449 0.773977
vt 0.632853 0.897938
vt 0.671988 0.979603
vt 0.701711 1.03411
vt 0.695777 1.02924
vt -1.48722 -1.12163
vt -1.47241 -1.12715
vt -1.48758 -1.12929
vt -1.47597 -1.10493
vt -1.39886 -1.11677
vt -1.4559 -1.07514
vt -1.29116 -0.966599
vt -1.33922 -1.10834
vt -1.29497 -1.1021
vt 0.3203 0.2041
vt 0.362063 0.151654
vt 0.365977 0.154611
vt 0.356789 0.147668
vt 0.324941 0.160051
vt 0.350284 0.142753
vt 0.348942 0.141739
vt 0.317917 0.167289
vt 1.03747 0.869163
vt 0.777758 0.547382
vt -1.12499 0.548646
vt -0.697211 0.336869
vt -0.925041 0.567073
vt -1.11464 0.586265
vt 0.974863 1.19302
vt 0.9373 1.37984
vt 1.13499 1.35568
vt 1.18981 1.34898
vt 0.993437 1.10064
vt 1.22193 1.34506
vt 1.01683 0.984298
vt 1.24522 1.34221
vt 1.02164 0.960382
vt 1.24871 1.34178
vt 1.03691 0.884403
vt 1.25792 1.34066
vt 1.05568 0.866624
vt 1.05587 0.866575
vt 1.26206 1.34015
vt 1.06241 0.864887
vt 1.06248 0.864868
vt 1.26317 1.34002
vt 1.06744 0.863589
vt 1.0675 0.863572
vt 1.264 1.33992
vt 1.08106 0.86007
vt 1.40168 1.26478
vt 1.09616 0.85617
vt 0.866583 0.121509
vt 0.848157 0.038617
vt 0.851091 0.123274
vt 0.965104 0.110281
vt 1.42293 1.10701
vt 1.19217 0.831376
vt 0.287255 0.190117
vt 0.295411 0.210848
vt 0.286856 0.197522
vt 0.289868 0.188383
vt 0.3203 0.2041
vt 0.294744 0.18515
vt 0.3203 0.2041
vt 0.294744 0.18515
vt 0.317917 0.167289
vt 1.17723 0.620656
vt 1.00581 0.505954
vt 1.06086 0.50154
vt 1.09311 0.498955
vt 1.1165 0.49708
vt 1.12 0.496799
vt 1.12925 0.496058
vt 1.13341 0.495724
vt 1.13452 0.495635
vt 1.13536 0.495567
vt 1.21604 0.561139
vt 1.23684 0.529239
vt 1.235 0.487579
vt 1.36323 1.32779
vt 1.37231 1.32668
vt 0.287255 0.190117
vt 0.286856 0.197522
vt 0.283448 0.19185
vt 1.24412 0.486849
vt 0.807279 0.52187
vt 0.3203 0.2041
vt 0.309369 0.233644
vt 0.295411 0.210848
vt 0.310657 0.234672
vt 1.22214 0.823635
vt 1.27826 0.837922
vt 1.27039 0.824499
vt 0.995863 0.106775
vt 0.996725 0.0525465
vt 1.03801 0.101971
vt 1.26322 0.813027
vt 1.2637 0.813107
vt 1.42922 -0.189562
vt 1.3985 -0.234609
vt 1.42873 -0.189643
vt 0.31175 0.235544
vt 0.318217 0.235088
vt 0.320206 0.234947
vt 1.38853 -0.239955
vt 1.38905 -0.248469
vt 1.3861 -0.243003
vt 0.994224 0.0495517
vt 0.989403 0.0437805
vt 0.939782 -0.0156261
vt 0.833241 0.536092
vt 0.792057 0.437901
vt 0.844371 0.542654
vt 0.330497 0.234221
vt 0.339736 0.227007
vt 0.329614 0.234283
vt 1.34437 -0.314004
vt 1.3814 -0.248878
vt 1.33308 -0.309349
vt 1.34017 -0.320151
vt 0.372261 0.160843
vt 0.3203 0.2041
vt -1.30942 -0.898246
vt -1.29271 -1.0209
vt -1.36383 -1.01959
vt -1.26488 -0.924745
vt -1.26479 -0.912394
vt -1.2647 -0.899925
vt -1.24935 -0.355107
vt -1.37345 -0.36558
vt -1.43826 -0.320603
vt -1.50169 -0.132109
vt 0.573369 0.773809
vt 0.29713 -1.54887
vt 0.479068 -1.46855
vt 0.297298 -1.54895
vt 0.479688 -1.47029
vt -1.36705 -0.943227
vt -1.36602 -0.941693
vt -1.42345 -1.02696
vt 0.513514 -1.56541
vt 0.420866 -1.60917
vt 0.502272 -1.64884
vt 0.532975 -1.62014
vt 0.545011 -1.65399
vt 0.551755 -1.67295
vt -1.39606 -0.965185
vt -1.43386 -0.893573
vt -1.38882 -0.978885
vt -1.36737 -1.01953
vt -1.23929 -1.04794
vt -1.21458 -1.08669
vt -1.26777 -1.09826
vt -1.24762 -1.03488
vt 0.368383 0.156429
vt 0.368383 0.156429
vt 0.372224 0.160423
vt -1.26557 -1.0214
vt 0.756985 0.354283
vt 0.775795 0.0911882
vt 0.770129 0.08481
vt 0.783991 0.100414
vt 0.83195 0.125455
vt 0.825241 0.12622
vt 0.825046 0.126242
vt 0.8086 0.128116
vt 1.03966 0.870763
vt -0.598009 0.53397
vt -0.611851 0.535371
vt -0.591345 0.497519
vt -0.589126 0.48538
vt -0.587592 0.476988
vt -0.688957 0.543176
vt -0.713227 0.545633
vt -0.831291 0.557584
vt 0.837106 0.124868
vt -1.48101 -0.0547899
vn -0.41331 -0.0147971 0.91047
vn -0.41331 -0.0147971 0.91047
vn -0.41331 -0.0147971 0.91047
vn 0.511639 0.821041 0.253215
vn 0.511639 0.821041 0.253215
vn 0.511639 0.821041 0.253215
vn 0.511639 0.821041 0.253215
vn 0.511639 0.821041 0.253215
vn 0.511639 0.821041 0.253215
vn 0.511639 0.821041 0.253215
vn 0.933558 0.136269 -0.331512
vn 0.933558 0.136269 -0.331512
vn 0.933558 0.136269 -0.331512
vn 0.933558 0.136269 -0.331512
vn 0.657796 0.377775 -0.651606
vn 0.657796 0.377775 -0.651606
vn 0.657796 0.377775 -0.651606
vn 0.657796 0.377775 -0.651606
vn -0.13459 -0.965756 -0.221813
vn -0.13459 -0.965756 -0.221813
vn -0.13459 -0.965756 -0.221813
vn -0.13459 -0.965756 -0.221813
vn -0.13459 -0.965756 -0.221813
vn -0.13459 -0.965756 -0.221813
vn -0.13459 -0.965756 -0.221813
vn -0.13459 -0.965756 -0.221813
vn -0.13459 -0.965756 -0.221813
vn 0.566744 -0.514013 0.643888
vn 0.566744 -0.514013 0.643888
vn 0.566744 -0.514013 0.643888
vn 0.566744 -0.514013 0.643888
vn 0.566744 -0.514013 0.643888
vn 0.566744 -0.514013 0.643888
vn 0.566744 -0.514013 0.643888
vn 0.566744 -0.514013 0.643888
vn 0.566744 -0.514013 0.643888
vn -0.419916 -0.0720043 0.904702
vn -0.427771 -0.0771387 0.90059
vn -0.428684 -0.0777369 0.900104
vn -0.426539 -0.0763324 0.901242
vn -0.419916 -0.0720043 0.904702
vn -0.425019 -0.0753377 0.902044
vn -0.424706 -0.0751325 0.902209
vn -0.414487 -0.0684677 0.907476
vn -0.13459 -0.965756 -0.221813
vn -0.13459 -0.965756 -0.221813
vn 0.657796 0.377775 -0.651606
vn 0.657796 0.377775 -0.651606
vn 0.657796 0.377775 -0.651606
vn 0.657796 0.377775 -0.651606
vn 0.0990651 0.359578 -0.927842
vn 0.0990651 0.359578 -0.927842
vn 0.0990651 0.359578 -0.927842
vn 0.0990651 0.359578 -0.927842
vn 0.0990651 0.359578 -0.927842
vn 0.0990651 0.359578 -0.927842
vn 0.0990651 0.359578 -0.927842
vn 0.0990651 0.359578 -0.927842
vn 0.0990651 0.359578 -0.927842
vn 0.0990651 0.359578 -0.927842
vn 0.0990651 0.359578 -0.927842
vn 0.0990651 0.359578 -0.927842
vn 0.0990651 0.359578 -0.927842
vn 0.0990651 0.359578 -0.927842
vn 0.0990651 0.359578 -0.927842
vn 0.0990651 0.359578 -0.927842
vn 0.0990651 0.359578 -0.927842
vn 0.0990651 0.359578 -0.927842
vn 0.0990651 0.359578 -0.927842
vn 0.0990651 0.359578 -0.927842
vn 0.0990651 0.359578 -0.927842
vn 0.0990651 0.359578 -0.927842
vn 0.0990651 0.359578 -0.927842
vn 0.0990651 0.359578 -0.927842
vn 0.244274 0.880176 -0.406965
vn 0.244274 0.880176 -0.406965
vn 0.244274 0.880176 -0.406965
vn 0.244274 0.880176 -0.406965
vn 0.0990651 0.359578 -0.927842
vn 0.0990651 0.359578 -0.927842
vn -0.833183 -0.293591 0.468627
vn -0.833183 -0.293591 0.468627
vn -0.833183 -0.293591 0.468627
vn -0.833183 -0.293591 0.468627
vn -0.833183 -0.293591 0.468627
vn -0.833183 -0.293591 0.468627
vn -0.868401 -0.252184 0.426947
vn -0.868401 -0.252184 0.426947
vn -0.868401 -0.252184 0.426947
vn -0.13459 -0.965756 -0.221813
vn -0.13459 -0.965756 -0.221813
vn -0.13459 -0.965756 -0.221813
vn -0.13459 -0.965756 -0.221813
vn -0.13459 -0.965756 -0.221813
vn -0.13459 -0.965756 -0.221813
vn -0.13459 -0.965756 -0.221813
vn -0.13459 -0.965756 -0.221813
vn -0.13459 -0.965756 -0.221813
vn -0.13459 -0.965756 -0.221813
vn -0.13459 -0.965756 -0.221813
vn -0.13459 -0.965756 -0.221813
vn -0.13459 -0.965756 -0.221813
vn 0.0990651 0.359578 -0.927842
vn 0.0990651 0.359578 -0.927842
vn -0.88919 -0.455762 0.0402685
vn -0.88919 -0.455762 0.0402685
vn -0.88919 -0.455762 0.0402685
vn -0.13459 -0.965756 -0.221813
vn -0.13459 -0.965756 -0.221813
vn -0.825596 0.285504 0.486702
vn -0.825596 0.285504 0.486702
vn -0.833326 0.279201 0.47709
vn -0.825372 0.285684 0.486976
vn 0.0990651 0.359578 -0.927842
vn 0.0990651 0.359578 -0.927842
vn 0.0990651 0.359578 -0.927842
vn 0.244274 0.880176 -0.406965
vn 0.244274 0.880176 -0.406965
vn 0.244274 0.880176 -0.406965
vn 0.0990651 0.359578 -0.927842
vn 0.0990651 0.359578 -0.927842
vn -0.0908214 0.983246 -0.158045
vn -0.0908214 0.983246 -0.158045
vn -0.0908214 0.983246 -0.158045
vn -0.825183 0.285836 0.487208
vn -0.824338 0.286513 0.488239
vn -0.824078 0.286721 0.488556
vn -0.0908214 0.983246 -0.158045
vn -0.0908214 0.983246 -0.158045
vn -0.0908214 0.983246 -0.158045
vn 0.244274 0.880176 -0.406965
vn 0.244274 0.880176 -0.406965
vn 0.244274 0.880176 -0.406965
vn 0.511639 0.821041 0.253215
vn 0.511639 0.821041 0.253215
vn 0.511639 0.821041 0.253215
vn -0.822729 0.287796 0.490194
vn -0.821842 0.2885 0.491267
vn -0.822845 0.287704 0.490054
vn -0.0908214 0.983246 -0.158045
vn -0.0908214 0.983246 -0.158045
vn -0.0908214 0.983246 -0.158045
vn -0.0908214 0.983246 -0.158045
vn -0.41331 -0.0147971 0.91047
vn -0.41331 -0.0147971 0.91047
vn 0.889317 0.15536 0.43009
vn 0.889317 0.15536 0.43009
vn 0.889317 0.15536 0.43009
vn 0.889317 0.15536 0.43009
vn 0.889317 0.15536 0.43009
vn 0.889317 0.15536 0.43009
vn 0.933558 0.136269 -0.331512
vn 0.933558 0.136269 -0.331512
vn 0.933558 0.136269 -0.331512
vn 0.933558 0.136269 -0.331512
vn -0.13459 -0.965756 -0.221813
vn 0.54149 -0.831416 0.124645
vn 0.54149 -0.831416 0.124645
vn 0.54149 -0.831416 0.124645
vn 0.54149 -0.831416 0.124645
vn 0.566744 -0.514013 0.643888
vn 0.566744 -0.514013 0.643888
vn 0.566744 -0.514013 0.643888
vn 0.54149 -0.831416 0.124645
vn 0.54149 -0.831416 0.124645
vn 0.54149 -0.831416 0.124645
vn 0.54149 -0.831416 0.124645
vn 0.54149 -0.831416 0.124645
vn 0.54149 -0.831416 0.124645
vn 0.889317 0.15536 0.43009
vn 0.889317 0.15536 0.43009
vn 0.889317 0.15536 0.43009
vn 0.889317 0.15536 0.43009
vn 0.566744 -0.514013 0.643888
vn 0.566744 -0.514013 0.643888
vn 0.566744 -0.514013 0.643888
vn 0.566744 -0.514013 0.643888
vn -0.429244 -0.0781045 0.899805
vn -0.41331 -0.0147971 0.91047
vn -0.41331 -0.0147971 0.91047
vn 0.889317 0.15536 0.43009
vn 0.511639 0.821041 0.253215
vn 0.244274 0.880176 -0.406965
vn 0.244274 0.880176 -0.406965
vn 0.244274 0.880176 -0.406965
vn 0.244274 0.880176 -0.406965
vn 0.244274 0.880176 -0.406965
vn 0.244274 0.880176 -0.406965
vn 0.244274 0.880176 -0.406965
vn 0.0990651 0.359578 -0.927842
vn 0.657796 0.377775 -0.651606
vn 0.657796 0.377775 -0.651606
vn 0.657796 0.377775 -0.651606
vn 0.657796 0.377775 -0.651606
vn 0.657796 0.377775 -0.651606
vn 0.657796 0.377775 -0.651606
vn 0.657796 0.377775 -0.651606
vn 0.657796 0.377775 -0.651606
vn 0.244274 0.880176 -0.406965
vn 0.933558 0.136269 -0.331512
f 1/1/1 2/2/2 3/3/3 
f 4/4/4 5/5/5 6/6/6 
f 4/4/4 7/7/7 5/5/5 
f 8/8/8 7/7/7 4/4/4 
f 8/8/8 9/9/9 7/7/7 
f 10/10/10 9/9/9 8/8/8 
f 11/11/11 12/12/12 13/13/13 
f 11/11/11 13/13/13 14/14/14 
f 15/15/15 16/16/16 17/17/17 
f 16/16/16 15/15/15 18/18/18 
f 19/19/19 20/20/20 21/21/21 
f 22/22/22 20/20/20 19/19/19 
f 23/23/23 20/20/20 22/22/22 
f 24/24/24 20/20/20 23/23/23 
f 25/25/25 20/20/20 24/24/24 
f 25/25/25 26/26/26 20/20/20 
f 27/27/27 26/26/26 25/25/25 
f 28/28/28 29/29/29 30/30/30 
f 31/31/31 29/29/29 28/28/28 
f 31/31/31 32/32/32 29/29/29 
f 33/33/33 32/32/32 31/31/31 
f 32/32/32 33/33/33 34/34/34 
f 34/34/34 35/35/35 32/32/32 
f 36/36/36 35/35/35 34/34/34 
f 37/37/37 38/38/38 39/39/39 
f 37/37/37 40/40/40 38/38/38 
f 41/41/41 40/40/40 37/37/37 
f 41/41/41 42/42/42 40/40/40 
f 41/41/41 43/43/43 42/42/42 
f 41/41/41 37/37/37 44/44/44 
f 20/20/20 45/45/45 46/46/46 
f 21/21/21 20/20/20 46/46/46 
f 47/47/47 48/48/48 16/16/16 
f 47/47/47 49/49/49 48/48/48 
f 50/50/50 49/49/49 47/47/47 
f 51/51/51 52/52/52 53/53/53 
f 51/51/51 53/53/53 54/54/54 
f 54/54/54 55/55/55 51/51/51 
f 56/56/56 55/55/55 54/54/54 
f 56/56/56 57/57/57 55/55/55 
f 58/58/58 57/57/57 56/56/56 
f 58/58/58 59/59/59 57/57/57 
f 60/60/60 59/59/59 58/58/58 
f 60/60/60 61/61/61 59/59/59 
f 62/62/62 61/61/61 60/60/60 
f 62/62/62 63/63/63 61/61/61 
f 62/62/62 64/64/64 63/63/63 
f 65/65/65 64/64/64 62/62/62 
f 65/65/65 66/66/66 64/64/64 
f 65/65/65 67/67/67 66/66/66 
f 68/68/68 67/67/67 65/65/65 
f 67/67/67 68/68/68 69/69/69 
f 69/69/69 68/68/68 70/70/70 
f 70/70/70 68/68/68 71/71/71 
f 70/70/70 71/71/71 72/72/72 
f 72/72/72 71/71/71 73/73/73 
f 72/72/72 73/73/73 74/74/74 
f 75/75/75 76/76/76 77/77/77 
f 75/75/75 78/78/78 76/76/76 
f 74/74/74 79/79/79 80/80/80 
f 74/74/74 73/73/73 79/79/79 
f 81/81/81 82/82/82 83/83/83 
f 84/84/84 82/82/82 81/81/81 
f 84/84/84 85/85/85 82/82/82 
f 86/86/86 85/85/85 84/84/84 
f 87/87/87 88/88/88 89/89/89 
f 90/90/90 91/91/91 45/45/45 
f 92/92/92 91/91/91 90/90/90 
f 93/93/93 92/92/92 90/90/90 
f 94/94/94 93/93/93 90/90/90 
f 95/95/95 94/94/94 90/90/90 
f 96/96/96 95/95/95 90/90/90 
f 90/90/90 97/97/97 96/96/96 
f 97/97/97 90/90/90 98/98/98 
f 98/98/98 90/90/90 99/99/99 
f 90/90/90 100/100/100 99/99/99 
f 100/100/100 101/101/101 99/99/99 
f 99/99/99 101/101/101 102/102/102 
f 103/103/103 73/73/73 71/71/71 
f 104/104/104 73/73/73 103/103/103 
f 105/105/105 106/106/106 107/107/107 
f 101/101/101 108/108/108 102/102/102 
f 46/46/46 45/45/45 91/91/91 
f 91/91/91 109/109/109 46/46/46 
f 110/110/110 111/111/111 112/112/112 
f 111/111/111 110/110/110 113/113/113 
f 114/114/114 115/115/115 116/116/116 
f 80/80/80 115/115/115 114/114/114 
f 80/80/80 79/79/79 115/115/115 
f 117/117/117 118/118/118 78/78/78 
f 117/117/117 119/119/119 118/118/118 
f 120/120/120 114/114/114 121/121/121 
f 122/122/122 123/123/123 124/124/124 
f 125/125/125 113/113/113 126/126/126 
f 121/121/121 114/114/114 116/116/116 
f 126/126/126 113/113/113 127/127/127 
f 128/128/128 123/123/123 129/129/129 
f 128/128/128 124/124/124 123/123/123 
f 128/128/128 129/129/129 130/130/130 
f 78/78/78 118/118/118 131/131/131 
f 131/131/131 76/76/76 78/78/78 
f 132/132/132 76/76/76 131/131/131 
f 76/76/76 132/132/132 133/133/133 
f 134/134/134 5/5/5 135/135/135 
f 136/136/136 5/5/5 134/134/134 
f 137/137/137 110/110/110 138/138/138 
f 139/139/139 110/110/110 137/137/137 
f 127/127/127 110/110/110 139/139/139 
f 127/127/127 113/113/113 110/110/110 
f 129/129/129 140/140/140 141/141/141 
f 130/130/130 129/129/129 141/141/141 
f 142/142/142 141/141/141 140/140/140 
f 142/142/142 140/140/140 143/143/143 
f 144/144/144 2/2/2 145/145/145 
f 3/3/3 2/2/2 144/144/144 
f 146/146/146 147/147/147 148/148/148 
f 146/146/146 149/149/149 147/147/147 
f 146/146/146 150/150/150 149/149/149 
f 146/146/146 151/151/151 150/150/150 
f 13/13/13 12/12/12 152/152/152 
f 153/153/153 13/13/13 152/152/152 
f 154/154/154 13/13/13 153/153/153 
f 155/155/155 13/13/13 154/154/154 
f 23/23/23 22/22/22 156/156/156 
f 157/157/157 158/158/158 159/159/159 
f 158/158/158 160/160/160 159/159/159 
f 34/34/34 161/161/161 162/162/162 
f 161/161/161 34/34/34 163/163/163 
f 160/160/160 164/164/164 165/165/165 
f 159/159/159 160/160/160 165/165/165 
f 165/165/165 164/164/164 166/166/166 
f 164/164/164 167/167/167 166/166/166 
f 34/34/34 33/33/33 163/163/163 
f 167/167/167 168/168/168 166/166/166 
f 168/168/168 169/169/169 166/166/166 
f 146/146/146 170/170/170 171/171/171 
f 146/146/146 172/172/172 170/170/170 
f 172/172/172 146/146/146 173/173/173 
f 174/174/174 175/175/175 176/176/176 
f 177/177/177 174/174/174 176/176/176 
f 177/177/177 176/176/176 36/36/36 
f 177/177/177 36/36/36 34/34/34 
f 37/37/37 39/39/39 178/178/178 
f 179/179/179 144/144/144 145/145/145 
f 180/180/180 144/144/144 179/179/179 
f 173/173/173 146/146/146 148/148/148 
f 147/147/147 149/149/149 181/181/181 
f 135/135/135 5/5/5 182/182/182 
f 183/183/183 76/76/76 184/184/184 
f 185/185/185 76/76/76 183/183/183 
f 185/185/185 186/186/186 76/76/76 
f 187/187/187 186/186/186 185/185/185 
f 188/188/188 187/187/187 185/185/185 
f 189/189/189 188/188/188 185/185/185 
f 61/61/61 63/63/63 190/190/190 
f 191/191/191 48/48/48 192/192/192 
f 193/193/193 48/48/48 191/191/191 
f 48/48/48 193/193/193 194/194/194 
f 48/48/48 194/194/194 195/195/195 
f 182/182/182 5/5/5 7/7/7 
f 192/192/192 48/48/48 196/196/196 
f 196/196/196 48/48/48 197/197/197 
f 48/48/48 198/198/198 197/197/197 
f 198/198/198 48/48/48 49/49/49 
f 199/199/199 76/76/76 186/186/186 
f 77/77/77 76/76/76 199/199/199 
f 17/17/17 16/16/16 48/48/48 
f 200/200/200 14/14/14 13/13/13 
