v 0.992007 0.632522 -0.0271085
v 1.02948 0.488038 -0.0367051
v 0.959969 0.591976 -0.112631
v 1.02948 0.488038 -0.0367051
v 0.992007 0.632522 -0.0271085
v 1.10359 0.372124 0.138921
v 1.10359 0.372124 0.138921
v 0.963267 0.58685 -0.105441
v 1.02948 0.488038 -0.0367051
v 1.08917 0.391202 0.169016
v 1.09051 0.389126 0.171928
v 1.11827 0.347901 0.196937
v 1.10674 0.363905 0.207309
v 1.10875 0.380806 0.215173
v 1.09051 0.389126 0.171928
v 1.10674 0.363905 0.207309
v 1.09994 0.442392 0.204288
v 1.11154 0.404249 0.22608
v 1.11158 0.403958 0.22593
v 1.09994 0.442392 0.204288
v 1.11154 0.404249 0.226081
v 1.10359 0.372124 0.138921
v 1.11839 0.347735 0.19683
v 1.11839 0.347735 0.19683
v 1.10875 0.380806 0.215173
v 1.11827 0.347901 0.196937
v 1.11839 0.347735 0.19683
v 1.10674 0.363905 0.207309
v 1.11158 0.403958 0.22593
v 1.11154 0.404249 0.22608
v 1.09994 0.442392 0.204288
v 1.0578 0.51663 0.113938
v 1.0578 0.51663 0.113938
v 1.08917 0.391202 0.169016
v 0.963268 0.58685 -0.105441
v 1.02169 0.580239 0.0365227
v 0.992007 0.632522 -0.0271085
v 1.02169 0.580239 0.0365228
v 0.959969 0.591976 -0.112631
v 0.959969 0.591976 -0.112631
vt 0.859591 0.725513
vt 0.855528 0.708512
vt 0.869124 0.718981
vt 0.855528 0.708512
vt 0.859591 0.725513
vt 0.831913 0.698726
vt 0.104347 0.32523
vt -0.140131 0.0688304
vt -0.0713625 0.187759
vt 0.134457 0.301335
vt 0.13737 0.303802
vt 0.162391 0.353499
vt 0.172768 0.333775
vt 0.318098 0.618255
vt 0.326436 0.571322
vt 0.30116 0.610214
vt 0.379816 0.604848
vt 0.341591 0.629408
vt 0.823225 0.70473
vt 0.827149 0.708271
vt 0.823219 0.704766
vt 0.831913 0.698726
vt 0.824398 0.697772
vt 0.162283 0.353703
vt -1.08333 0.436664
vt -1.09303 0.39909
vt -1.09315 0.398894
vt -1.08128 0.418027
vt -1.08621 0.462187
vt -1.08617 0.462515
vt 0.827149 0.708271
vt 0.839816 0.715003
vt 0.454213 0.505271
vt 0.328516 0.568122
vt 0.524585 0.266437
vt 0.517959 0.41995
vt 0.570355 0.349821
vt 0.85067 0.720772
vt 0.529722 0.258533
vt -0.147325 0.0627389
vn 0.860629 0.252606 -0.442163
vn 0.860629 0.252606 -0.442163
vn 0.860629 0.252606 -0.442163
vn 0.93926 0.25862 -0.225624
vn 0.93926 0.25862 -0.225624
vn 0.93926 0.25862 -0.225624
vn -0.820265 -0.57115 -0.0308569
vn -0.820265 -0.57115 -0.0308569
vn -0.820265 -0.57115 -0.0308569
vn -0.820265 -0.57115 -0.0308569
vn -0.820265 -0.57115 -0.0308569
vn -0.820265 -0.57115 -0.0308569
vn -0.820265 -0.57115 -0.0308569
vn -0.923843 -0.0654797 0.377129
vn -0.923843 -0.0654797 0.377129
vn -0.923843 -0.0654797 0.377129
vn -0.923843 -0.0654797 0.377129
vn -0.923843 -0.0654797 0.377129
vn 0.966043 0.201072 -0.162268
vn 0.966043 0.201072 -0.162268
vn 0.966043 0.201072 -0.162268
vn 0.966043 0.201072 -0.162268
vn 0.966043 0.201072 -0.162268
vn -0.820265 -0.57115 -0.0308569
vn 0.191786 -0.432698 0.880903
vn 0.191786 -0.432698 0.880903
vn 0.191786 -0.432698 0.880903
vn 0.191786 -0.432698 0.880903
vn 0.191786 -0.432698 0.880903
vn 0.191786 -0.432698 0.880903
vn 0.93926 0.25862 -0.225624
vn 0.93926 0.25862 -0.225624
vn -0.923843 -0.0654797 0.377129
vn -0.923843 -0.0654797 0.377129
vn -0.923843 -0.0654797 0.377129
vn -0.923843 -0.0654797 0.377129
vn -0.923843 -0.0654797 0.377129
vn 0.93926 0.25862 -0.225624
vn -0.923843 -0.0654797 0.377129
vn -0.820265 -0.57115 -0.0308569
f 1/1/1 2/2/2 3/3/3 
f 4/4/4 5/5/5 6/6/6 
f 7/7/7 8/8/8 9/9/9 
f 7/7/7 10/10/10 8/8/8 
f 7/7/7 11/11/11 10/10/10 
f 12/12/12 11/11/11 7/7/7 
f 13/13/13 11/11/11 12/12/12 
f 14/14/14 15/15/15 16/16/16 
f 14/14/14 17/17/17 15/15/15 
f 18/18/18 17/17/17 14/14/14 
f 19/19/19 20/20/20 21/21/21 
f 19/19/19 22/22/22 20/20/20 
f 23/23/23 22/22/22 19/19/19 
f 12/12/12 7/7/7 24/24/24 
f 25/25/25 26/26/26 27/27/27 
f 25/25/25 28/28/28 26/26/26 
f 29/29/29 25/25/25 27/27/27 
f 30/30/30 25/25/25 29/29/29 
f 31/31/31 6/6/6 32/32/32 
f 17/17/17 33/33/33 34/34/34 
f 15/15/15 17/17/17 34/34/34 
f 33/33/33 35/35/35 34/34/34 
f 36/36/36 35/35/35 33/33/33 
f 36/36/36 37/37/37 35/35/35 
f 6/6/6 5/5/5 38/38/38 
f 32/32/32 6/6/6 38/38/38 
f 35/35/35 37/37/37 39/39/39 
f 9/9/9 8/8/8 40/40/40 
