v 0.891228 -0.345924 -0.559551
v 1.01191 -0.252421 -0.308603
v 0.970096 -0.455596 -0.414317
v 0.891228 -0.345924 -0.559551
v 0.869578 -0.354309 -0.418671
v 1.01191 -0.252421 -0.308603
v 0.806888 -0.399186 -0.46715
v 0.807381 -0.405143 -0.606575
v 0.727213 -0.456221 -0.528764
v 0.72465 -0.45875 -0.546131
v 0.723663 -0.458762 -0.531509
v 0.72465 -0.45875 -0.54613
v 0.730816 -0.462801 -0.529857
v 0.723663 -0.458763 -0.531509
v 0.744843 -0.470719 -0.526617
v 0.744843 -0.470719 -0.526617
v 0.727213 -0.456221 -0.528764
v 0.730816 -0.462801 -0.529857
v 0.806888 -0.399186 -0.46715
v 0.967472 -0.474649 -0.423621
v 0.967467 -0.47383 -0.423277
v 0.967436 -0.468523 -0.421044
v 0.869578 -0.354309 -0.418671
v 0.970096 -0.455596 -0.414317
v 1.01191 -0.252421 -0.308603
v 0.967436 -0.468523 -0.421044
v 0.891228 -0.345924 -0.559551
v 0.967436 -0.468523 -0.421043
v 0.887744 -0.348748 -0.569556
v 0.886018 -0.349959 -0.570351
v 0.887744 -0.348748 -0.569556
v 0.872817 -0.538369 -0.616808
v 0.807381 -0.405142 -0.606575
v 0.886018 -0.349959 -0.570351
v 0.823828 -0.510817 -0.625417
v 0.807381 -0.405142 -0.606575
v 0.823828 -0.510817 -0.625417
v 0.72465 -0.45875 -0.54613
v 0.872817 -0.538369 -0.616808
v 0.823827 -0.510817 -0.625417
v 0.906458 -0.557289 -0.610896
v 0.907603 -0.557933 -0.610695
v 0.968199 -0.596809 -0.475022
v 0.907603 -0.557933 -0.610695
v 0.967472 -0.474649 -0.423621
v 0.968199 -0.596809 -0.475022
v 0.967467 -0.47383 -0.423277
v 0.907603 -0.557933 -0.610695
v 0.887744 -0.348748 -0.569556
v 0.906458 -0.557289 -0.610896
v 0.968199 -0.596809 -0.475022
v 0.723663 -0.458762 -0.531509
vt 0.893213 0.596922
vt 0.864121 0.616178
vt 0.870643 0.590345
vt -0.58852 -0.541951
vt -0.447542 -0.519336
vt -0.337397 -0.69433
vt -0.496055 -0.44226
vt -0.635577 -0.439315
vt -0.557711 -0.344302
vt -0.57509 -0.340761
vt -0.560458 -0.339938
vt -0.54418 0.856251
vt -0.527897 0.863608
vt -0.529551 0.855394
vt -0.524656 0.879715
vt -0.723535 0.450027
vt -0.708009 0.433158
vt -0.715055 0.435954
vt -0.646927 0.531476
vt -0.727744 0.695321
vt -0.726867 0.695464
vt -0.721183 0.696385
vt -0.598866 0.608834
vt -0.707339 0.701654
vt -0.489748 0.78447
vt 0.871058 0.588701
vt 0.893213 0.596922
vt 0.871058 0.588701
vt 0.894319 0.596251
vt -0.599328 -0.535373
vt -0.598532 -0.537482
vt 0.895095 0.573313
vt 0.904319 0.587044
vt 0.894533 0.596053
vt 0.901565 0.575039
vt -0.404189 -1.00979
vt -0.509978 -1.03431
vt -0.457854 -0.90736
vt -0.614897 1.02444
vt -0.623511 0.968233
vt -0.608982 1.06303
vt -0.608781 1.06435
vt -0.473031 1.1362
vt 0.890501 0.572088
vt 0.871114 0.587943
vt 0.872238 0.572832
vt 0.871107 0.588045
vt 0.890501 0.572088
vt 0.894319 0.596251
vt 0.890652 0.572128
vt -0.858571 0.674111
vt -0.71073 0.428778
vn 0.89284 0.0491959 -0.447679
vn 0.893068 0.0492143 -0.447222
vn 0.89297 0.0492064 -0.447418
vn -0.562457 0.825986 -0.037277
vn -0.562457 0.825986 -0.037277
vn -0.562457 0.825986 -0.037277
vn -0.562457 0.825986 -0.037277
vn -0.562457 0.825986 -0.037277
vn -0.562457 0.825986 -0.037277
vn -0.562457 0.825986 -0.037277
vn -0.562457 0.825986 -0.037277
vn -0.485441 -0.873627 -0.0335167
vn -0.485441 -0.873627 -0.0335167
vn -0.485441 -0.873627 -0.0335167
vn -0.485441 -0.873627 -0.0335167
vn -0.397258 -0.357923 0.845031
vn -0.397258 -0.357923 0.845031
vn -0.397258 -0.357923 0.845031
vn -0.397258 -0.357923 0.845031
vn -0.397258 -0.357923 0.845031
vn -0.397258 -0.357923 0.845031
vn -0.397258 -0.357923 0.845031
vn -0.397258 -0.357923 0.845031
vn -0.397258 -0.357923 0.845031
vn -0.397258 -0.357923 0.845031
vn 0.892964 0.0492059 -0.44743
vn 0.917628 0.158767 -0.36435
vn 0.917628 0.158767 -0.36435
vn 0.917628 0.158767 -0.36435
vn -0.562457 0.825986 -0.037277
vn -0.562457 0.825986 -0.037277
vn 0.28302 0.210873 -0.935646
vn 0.28302 0.210873 -0.935646
vn 0.28302 0.210873 -0.935646
vn 0.28302 0.210873 -0.935646
vn -0.608758 0.0464675 -0.791994
vn -0.608758 0.0464675 -0.791994
vn -0.608758 0.0464675 -0.791994
vn -0.485441 -0.873627 -0.0335167
vn -0.485441 -0.873627 -0.0335167
vn -0.485441 -0.873627 -0.0335167
vn -0.485441 -0.873627 -0.0335167
vn -0.485441 -0.873627 -0.0335167
vn 0.917628 0.158767 -0.36435
vn 0.917628 0.158767 -0.36435
vn 0.917628 0.158767 -0.36435
vn 0.917628 0.158767 -0.36435
vn 0.28302 0.210873 -0.935646
vn 0.28302 0.210873 -0.935646
vn 0.28302 0.210873 -0.935646
vn -0.397258 -0.357923 0.845031
vn -0.397258 -0.357923 0.845031
f 1/1/1 2/2/2 3/3/3 
f 4/4/4 5/5/5 6/6/6 
f 4/4/4 7/7/7 5/5/5 
f 8/8/8 7/7/7 4/4/4 
f 8/8/8 9/9/9 7/7/7 
f 10/10/10 9/9/9 8/8/8 
f 10/10/10 11/11/11 9/9/9 
f 12/12/12 13/13/13 14/14/14 
f 13/13/13 12/12/12 15/15/15 
f 16/16/16 17/17/17 18/18/18 
f 19/19/19 17/17/17 16/16/16 
f 20/20/20 19/19/19 16/16/16 
f 21/21/21 19/19/19 20/20/20 
f 19/19/19 21/21/21 22/22/22 
f 23/23/23 19/19/19 22/22/22 
f 24/24/24 23/23/23 22/22/22 
f 24/24/24 25/25/25 23/23/23 
f 1/1/1 3/3/3 26/26/26 
f 27/27/27 28/28/28 29/29/29 
f 30/30/30 4/4/4 31/31/31 
f 4/4/4 30/30/30 8/8/8 
f 32/32/32 33/33/33 34/34/34 
f 35/35/35 33/33/33 32/32/32 
f 36/36/36 37/37/37 38/38/38 
f 39/39/39 12/12/12 40/40/40 
f 41/41/41 12/12/12 39/39/39 
f 42/42/42 12/12/12 41/41/41 
f 42/42/42 43/43/43 12/12/12 
f 44/44/44 45/45/45 46/46/46 
f 29/29/29 45/45/45 44/44/44 
f 29/29/29 47/47/47 45/45/45 
f 29/29/29 28/28/28 47/47/47 
f 48/48/48 34/34/34 49/49/49 
f 50/50/50 34/34/34 48/48/48 
f 32/32/32 34/34/34 50/50/50 
f 20/20/20 16/16/16 51/51/51 
f 12/12/12 43/43/43 15/15/15 
f 18/18/18 17/17/17 52/52/52 
