v 1.07304 1.62607 -0.177757
v 1.07053 1.53604 -0.179396
v 1.04818 1.64993 -0.198213
v 1.07053 1.53604 -0.179396
v 1.07304 1.62607 -0.177757
v 1.08214 1.61535 -0.164947
v 1.07053 1.53604 -0.179396
v 1.08214 1.61535 -0.164948
v 1.07232 1.61797 -0.154939
v 0.980095 1.28578 -0.174701
v 1.05934 1.62144 -0.141703
v 0.980095 1.28578 -0.174701
v 1.05934 1.62144 -0.141703
v 1.04743 1.63617 -0.160274
v 1.03892 1.64668 -0.173536
v 0.823093 1.29477 -0.380775
v 0.973407 1.25745 -0.177486
v 0.961514 1.20707 -0.182439
v 0.973406 1.25745 -0.177486
v 0.961514 1.20707 -0.182439
v 1.01208 1.21935 -0.225775
v 1.02224 1.27441 -0.217712
v 0.804588 1.25105 -0.395717
v 1.02224 1.27441 -0.217712
v 1.01208 1.21935 -0.225775
v 1.02355 1.28146 -0.216678
v 0.823093 1.29477 -0.380775
v 0.995026 1.70093 -0.241943
v 1.011 1.68119 -0.217046
v 1.04818 1.64993 -0.198213
v 0.995026 1.70093 -0.241943
v 1.03892 1.64668 -0.173536
v 1.011 1.68119 -0.217046
v 0.995026 1.70093 -0.241943
v 1.07304 1.62607 -0.177757
v 1.04743 1.63617 -0.160274
v 1.07232 1.61797 -0.154939
v 1.05934 1.62144 -0.141703
v 1.08214 1.61535 -0.164947
v 1.02355 1.28147 -0.216679
v 0.804588 1.25105 -0.395717
v 0.833227 1.15599 -0.338626
v 0.952196 1.16761 -0.186319
v 1.00225 1.19518 -0.224301
v 0.952196 1.16761 -0.186319
v 1.00659 1.20585 -0.224952
v 1.00715 1.20723 -0.225036
v 0.833227 1.15599 -0.338626
v 1.01208 1.21935 -0.225775
v 1.00715 1.20723 -0.225036
v 0.804588 1.25105 -0.395717
v 0.835515 1.1484 -0.334065
v 0.835515 1.1484 -0.334065
v 0.951534 1.1648 -0.186595
v 0.912261 0.998447 -0.202948
v 0.912105 0.997788 -0.203013
v 0.92779 0.987781 -0.22086
v 0.91226 0.998447 -0.202948
v 0.912105 0.997788 -0.203013
v 0.92816 0.987736 -0.221221
v 0.95065 1.03677 -0.226597
v 0.934423 0.986963 -0.22732
v 0.933222 0.98618 -0.228012
v 0.95065 1.03677 -0.226597
v 0.934423 0.986963 -0.22732
v 0.930325 0.984292 -0.229682
v 0.923327 0.979729 -0.233717
v 0.97096 1.09912 -0.225694
v 0.921506 0.978542 -0.234767
v 0.916807 0.975479 -0.237476
v 0.895342 0.966661 -0.250992
v 0.900573 0.964895 -0.246836
v 0.895342 0.966661 -0.250992
v 0.900573 0.964895 -0.246836
v 0.892178 0.966519 -0.237484
v 0.889409 0.968665 -0.255704
v 0.889409 0.968665 -0.255705
v 1.00225 1.19518 -0.224301
v 0.835515 1.1484 -0.334065
v 0.838688 0.985791 -0.295995
v 0.886036 0.967708 -0.23064
v 0.838688 0.985791 -0.295995
v 0.888427 0.969904 -0.227988
v 0.898989 0.979602 -0.216275
v 0.910253 0.989944 -0.203784
v 0.910253 0.989944 -0.203784
v 0.918329 0.988948 -0.211648
v 0.919947 0.988749 -0.213223
v 0.92779 0.987781 -0.22086
v 0.919947 0.988749 -0.213223
v 0.923327 0.979729 -0.233718
v 0.92816 0.987736 -0.221221
v 0.930325 0.984292 -0.229682
v 0.933222 0.98618 -0.228012
v 0.934423 0.986963 -0.22732
v 0.921506 0.978542 -0.234767
v 0.898989 0.979602 -0.216275
v 0.916807 0.975479 -0.237476
v 0.892178 0.966519 -0.237484
v 0.888427 0.969904 -0.227988
v 0.88945 0.967048 -0.234444
v 0.886036 0.967709 -0.23064
v 0.886036 0.967708 -0.23064
v 0.838688 0.985791 -0.295995
v 0.88945 0.967048 -0.234444
v 0.900573 0.964895 -0.246836
v 0.918329 0.988948 -0.211648
v 0.910253 0.989944 -0.203784
v 1.00659 1.20585 -0.224952
v 1.00225 1.19518 -0.224301
v 0.97096 1.09912 -0.225694
v 0.951533 1.1648 -0.186595
vt 0.862448 0.845748
vt 0.864176 0.835567
vt 0.86571 0.849168
vt 0.864176 0.835567
vt 0.862448 0.845748
vt 0.860783 0.844491
vt 1.63209 0.904673
vt 1.71352 0.903286
vt 1.71621 0.889281
vt 1.37512 0.835389
vt 1.71978 0.87076
vt 1.38701 0.458905
vt 1.72538 0.533368
vt 1.74022 0.511383
vt 1.75082 0.495683
vt 1.39607 0.19984
vt 1.35845 0.45262
vt 1.30766 0.441445
vt 1.34603 0.832403
vt 1.2943 0.827095
vt 1.30691 0.89363
vt 1.36345 0.89555
vt 0.907239 0.810639
vt 0.875172 0.80714
vt 0.877486 0.801158
vt 0.874876 0.807907
vt 0.903881 0.815094
vt 0.872682 0.85648
vt -0.795877 0.0691148
vt -0.776132 0.0209076
vt -0.821979 0.093269
vt -0.75026 0.0269012
vt 1.7856 0.444173
vt 1.8055 0.414699
vt -0.754686 -0.0129421
vt -0.736356 0.0140349
vt -0.730763 -0.0167551
vt -0.716887 -0.0039822
vt -0.741256 -0.0264146
vt 1.37069 0.895796
vt 1.352 0.176715
vt 1.25617 0.239431
vt 1.26788 0.43269
vt 1.28209 0.885443
vt 1.25378 0.822936
vt 1.29305 0.889058
vt 1.29446 0.889524
vt 0.901405 0.795
vt 0.877486 0.801158
vt 0.877948 0.799348
vt 0.907239 0.810639
vt 0.900939 0.79375
vt 1.24852 0.244441
vt 1.26505 0.432067
vt 1.09736 0.395165
vt 1.09669 0.395019
vt 1.06914 0.828686
vt 1.08009 0.80511
vt 1.07941 0.805041
vt 1.06909 0.829203
vt 1.11944 0.849306
vt 1.0683 0.837943
vt 0.885247 0.768663
vt 0.883491 0.775643
vt 0.88509 0.768754
vt 0.885624 0.768442
vt 0.886536 0.767908
vt 0.88149 0.784265
vt 0.886773 0.767769
vt 0.887385 0.767411
vt 0.890249 0.766519
vt 0.8895 0.766172
vt -0.335308 0.604067
vt -0.331142 0.60958
vt -0.321765 0.601057
vt -0.340033 0.597815
vt 0.891099 0.766912
vt 0.878406 0.79755
vt 0.900939 0.79375
vt 0.898365 0.770273
vt 1.06637 0.357227
vt 1.0846 0.276556
vt 1.06859 0.360787
vt 1.07836 0.37651
vt 1.08879 0.393279
vt 1.07136 0.804214
vt 1.07034 0.815484
vt 1.07013 0.817741
vt -1.18609 0.24426
vt -1.17784 0.251524
vt -1.1814 0.229159
vt -1.18648 0.243917
vt -1.18876 0.234809
vt -1.1918 0.237147
vt -1.19307 0.238117
vt -1.17948 0.227689
vt -1.1558 0.244703
vt -1.17454 0.223896
vt -1.14864 0.219882
vt -1.1447 0.22989
vt -1.14577 0.222837
vt -1.14218 0.226535
vt -0.314903 0.59482
vt -0.38043 0.54436
vt -0.318717 0.598287
vt -1.15747 0.210791
vt -1.17614 0.253021
vt -1.16765 0.260501
vt 0.878 0.799143
vt 0.878406 0.79755
vt 1.18346 0.863529
vt 1.2509 0.82264
vn 0.633299 -0.0035528 -0.773899
vn 0.633299 -0.0035528 -0.773899
vn 0.633299 -0.0035528 -0.773899
vn 0.810592 -0.0119227 -0.58549
vn 0.810592 -0.0119227 -0.58549
vn 0.810592 -0.0119227 -0.58549
vn 0.664933 -0.226935 0.711593
vn 0.664933 -0.226935 0.711593
vn 0.664933 -0.226935 0.711593
vn 0.664933 -0.226935 0.711593
vn 0.664933 -0.226935 0.711593
vn -0.78642 0.12622 0.604659
vn -0.78642 0.12622 0.604659
vn -0.78642 0.12622 0.604659
vn -0.78642 0.12622 0.604659
vn -0.78642 0.12622 0.604659
vn -0.78642 0.12622 0.604659
vn -0.78642 0.12622 0.604659
vn 0.664933 -0.226935 0.711593
vn 0.664933 -0.226935 0.711593
vn 0.664933 -0.226935 0.711593
vn 0.664933 -0.226935 0.711593
vn 0.633299 -0.0035528 -0.773899
vn 0.633299 -0.0035528 -0.773899
vn 0.633299 -0.0035528 -0.773899
vn 0.633299 -0.0035528 -0.773899
vn 0.633299 -0.0035528 -0.773899
vn 0.633299 -0.0035528 -0.773899
vn 0.520052 0.799584 0.300352
vn 0.520052 0.799584 0.300352
vn 0.520052 0.799584 0.300352
vn 0.520052 0.799584 0.300352
vn -0.78642 0.12622 0.604659
vn -0.78642 0.12622 0.604659
vn 0.520052 0.799584 0.300352
vn 0.520052 0.799584 0.300352
vn 0.520052 0.799584 0.300352
vn 0.520052 0.799584 0.300352
vn 0.520052 0.799584 0.300352
vn 0.664933 -0.226935 0.711593
vn -0.78642 0.12622 0.604659
vn -0.78642 0.12622 0.604659
vn -0.78642 0.12622 0.604659
vn 0.664933 -0.226935 0.711593
vn 0.664933 -0.226935 0.711593
vn 0.664933 -0.226935 0.711593
vn 0.664933 -0.226935 0.711593
vn 0.581502 -0.282908 -0.76277
vn 0.581502 -0.282908 -0.76277
vn 0.581502 -0.282908 -0.76277
vn 0.581502 -0.282908 -0.76277
vn 0.581502 -0.282908 -0.76277
vn -0.78642 0.12622 0.604659
vn -0.78642 0.12622 0.604659
vn -0.78642 0.12622 0.604659
vn -0.78642 0.12622 0.604659
vn 0.664933 -0.226935 0.711593
vn 0.664933 -0.226935 0.711593
vn 0.664933 -0.226935 0.711593
vn 0.664933 -0.226935 0.711593
vn 0.664933 -0.226935 0.711593
vn 0.664933 -0.226935 0.711593
vn 0.575225 -0.175813 -0.798878
vn 0.575225 -0.175813 -0.798878
vn 0.575225 -0.175813 -0.798878
vn 0.575225 -0.175813 -0.798878
vn 0.575225 -0.175813 -0.798878
vn 0.575225 -0.175813 -0.798878
vn 0.575225 -0.175813 -0.798878
vn 0.575225 -0.175813 -0.798878
vn 0.575225 -0.175813 -0.798878
vn 0.575225 -0.175813 -0.798878
vn -0.266848 -0.961003 -0.0725708
vn -0.266848 -0.961003 -0.0725708
vn -0.266848 -0.961003 -0.0725708
vn -0.266848 -0.961003 -0.0725708
vn 0.575225 -0.175813 -0.798878
vn 0.575225 -0.175813 -0.798878
vn 0.575225 -0.175813 -0.798878
vn 0.575225 -0.175813 -0.798878
vn -0.78642 0.12622 0.604659
vn -0.78642 0.12622 0.604659
vn -0.78642 0.12622 0.604659
vn -0.78642 0.12622 0.604659
vn -0.78642 0.12622 0.604659
vn 0.664933 -0.226935 0.711593
vn 0.664933 -0.226935 0.711593
vn 0.664933 -0.226935 0.711593
vn 0.309275 -0.850552 0.425335
vn 0.309275 -0.850552 0.425335
vn 0.309275 -0.850552 0.425335
vn 0.309275 -0.850552 0.425335
vn 0.309275 -0.850552 0.425335
vn 0.309275 -0.850552 0.425335
vn 0.309275 -0.850552 0.425335
vn 0.309275 -0.850552 0.425335
vn 0.309275 -0.850552 0.425335
vn 0.309275 -0.850552 0.425335
vn 0.309275 -0.850552 0.425335
vn 0.309275 -0.850552 0.425335
vn 0.309275 -0.850552 0.425335
vn 0.309275 -0.850552 0.425335
vn -0.266848 -0.961003 -0.0725708
vn -0.266848 -0.961003 -0.0725708
vn -0.266848 -0.961003 -0.0725708
vn 0.309275 -0.850552 0.425335
vn 0.309275 -0.850552 0.425335
vn 0.309275 -0.850552 0.425335
vn 0.581502 -0.282908 -0.76277
vn 0.581502 -0.282908 -0.76277
vn 0.664933 -0.226935 0.711593
vn 0.664933 -0.226935 0.711593
f 1/1/1 2/2/2 3/3/3 
f 4/4/4 5/5/5 6/6/6 
f 7/7/7 8/8/8 9/9/9 
f 9/9/9 10/10/10 7/7/7 
f 11/11/11 10/10/10 9/9/9 
f 12/12/12 13/13/13 14/14/14 
f 12/12/12 14/14/14 15/15/15 
f 12/12/12 15/15/15 16/16/16 
f 16/16/16 17/17/17 12/12/12 
f 17/17/17 16/16/16 18/18/18 
f 19/19/19 20/20/20 21/21/21 
f 21/21/21 22/22/22 19/19/19 
f 23/23/23 24/24/24 25/25/25 
f 23/23/23 26/26/26 24/24/24 
f 27/27/27 26/26/26 23/23/23 
f 27/27/27 2/2/2 26/26/26 
f 28/28/28 2/2/2 27/27/27 
f 3/3/3 2/2/2 28/28/28 
f 29/29/29 30/30/30 31/31/31 
f 29/29/29 32/32/32 30/30/30 
f 16/16/16 15/15/15 33/33/33 
f 16/16/16 33/33/33 34/34/34 
f 32/32/32 35/35/35 30/30/30 
f 36/36/36 35/35/35 32/32/32 
f 36/36/36 37/37/37 35/35/35 
f 36/36/36 38/38/38 37/37/37 
f 37/37/37 39/39/39 35/35/35 
f 7/7/7 10/10/10 40/40/40 
f 40/40/40 10/10/10 22/22/22 
f 22/22/22 10/10/10 19/19/19 
f 16/16/16 41/41/41 42/42/42 
f 43/43/43 16/16/16 42/42/42 
f 18/18/18 16/16/16 43/43/43 
f 44/44/44 20/20/20 45/45/45 
f 46/46/46 20/20/20 44/44/44 
f 47/47/47 20/20/20 46/46/46 
f 20/20/20 47/47/47 21/21/21 
f 48/48/48 49/49/49 50/50/50 
f 51/51/51 49/49/49 48/48/48 
f 48/48/48 50/50/50 52/52/52 
f 53/53/53 54/54/54 42/42/42 
f 53/53/53 55/55/55 54/54/54 
f 55/55/55 53/53/53 56/56/56 
f 57/57/57 58/58/58 59/59/59 
f 60/60/60 58/58/58 57/57/57 
f 60/60/60 61/61/61 58/58/58 
f 62/62/62 61/61/61 60/60/60 
f 63/63/63 64/64/64 65/65/65 
f 66/66/66 64/64/64 63/63/63 
f 67/67/67 64/64/64 66/66/66 
f 67/67/67 68/68/68 64/64/64 
f 69/69/69 68/68/68 67/67/67 
f 70/70/70 68/68/68 69/69/69 
f 70/70/70 71/71/71 68/68/68 
f 72/72/72 71/71/71 70/70/70 
f 73/73/73 74/74/74 75/75/75 
f 73/73/73 75/75/75 76/76/76 
f 77/77/77 78/78/78 71/71/71 
f 77/77/77 79/79/79 78/78/78 
f 80/80/80 79/79/79 77/77/77 
f 81/81/81 53/53/53 82/82/82 
f 83/83/83 53/53/53 81/81/81 
f 83/83/83 56/56/56 53/53/53 
f 84/84/84 56/56/56 83/83/83 
f 85/85/85 56/56/56 84/84/84 
f 59/59/59 86/86/86 87/87/87 
f 88/88/88 59/59/59 87/87/87 
f 57/57/57 59/59/59 88/88/88 
f 89/89/89 90/90/90 91/91/91 
f 89/89/89 91/91/91 92/92/92 
f 92/92/92 91/91/91 93/93/93 
f 94/94/94 92/92/92 93/93/93 
f 95/95/95 92/92/92 94/94/94 
f 91/91/91 90/90/90 96/96/96 
f 97/97/97 96/96/96 90/90/90 
f 97/97/97 98/98/98 96/96/96 
f 97/97/97 99/99/99 98/98/98 
f 100/100/100 99/99/99 97/97/97 
f 100/100/100 101/101/101 99/99/99 
f 100/100/100 102/102/102 101/101/101 
f 103/103/103 104/104/104 105/105/105 
f 105/105/105 104/104/104 76/76/76 
f 76/76/76 75/75/75 105/105/105 
f 99/99/99 106/106/106 98/98/98 
f 107/107/107 97/97/97 90/90/90 
f 108/108/108 97/97/97 107/107/107 
f 52/52/52 109/109/109 110/110/110 
f 52/52/52 50/50/50 109/109/109 
f 71/71/71 78/78/78 68/68/68 
f 111/111/111 44/44/44 112/112/112 
f 111/111/111 112/112/112 61/61/61 
f 61/61/61 112/112/112 58/58/58 
f 112/112/112 44/44/44 45/45/45 
f 42/42/42 54/54/54 43/43/43 
