v 0.576854 -2.29747 -0.761683
v 0.420936 -2.39735 -0.498359
v 0.414805 -2.28825 -0.783308
v 0.454624 -2.45954 -0.346078
v 0.423478 -2.44599 -0.377128
v 0.420936 -2.39735 -0.498359
v 0.423478 -2.44599 -0.377128
v 0.429053 -2.28714 -0.352306
v 0.417802 -2.21198 -0.76168
v 0.433082 -2.17231 -0.334363
v 0.434139 -2.14221 -0.329659
v 0.437433 -1.7278 -0.605986
v 0.434886 -1.78095 -0.634951
v 0.43406 -1.7982 -0.644348
v 0.43406 -1.7982 -0.644348
v 0.74709 -1.64102 -0.553985
v 0.417802 -2.21198 -0.76168
v 0.450305 -1.74669 -0.62762
v 0.464197 -1.70264 -0.613315
v 0.483262 -1.64219 -0.593683
v 0.67579 -1.58612 -0.54938
v 0.67579 -1.58612 -0.54938
v 0.760477 -1.64022 -0.499362
v 0.74709 -1.64102 -0.553985
v 0.676556 -1.57974 -0.514604
v 0.676631 -1.57911 -0.511193
v 0.676682 -1.57869 -0.508889
v 0.677203 -1.57435 -0.485247
v 0.677236 -1.57407 -0.483715
v 0.677236 -1.57407 -0.483715
v 0.448943 -1.72035 -0.263739
v 0.760477 -1.64022 -0.499362
v 0.45622 -1.60236 -0.331981
v 0.450336 -1.60311 -0.327941
v 0.448943 -1.72035 -0.263739
v 0.450336 -1.60311 -0.327941
v 0.447599 -1.75865 -0.269723
v 0.463541 -1.75722 -0.252831
v 0.448943 -1.72035 -0.263739
v 0.447599 -1.75865 -0.269723
v 0.463541 -1.75722 -0.252831
v 0.765799 -1.64445 -0.500363
v 0.786799 -1.66114 -0.50431
v 0.765799 -1.64445 -0.500363
v 0.786799 -1.66114 -0.50431
v 0.784655 -1.66995 -0.556412
v 0.784655 -1.66995 -0.556412
v 0.576854 -2.29747 -0.761683
v 0.414805 -2.28825 -0.783308
v 0.414805 -2.28825 -0.783308
v 0.795714 -1.67846 -0.557126
v 0.71278 -2.26767 -0.733123
v 0.804786 -1.68545 -0.557712
v 0.823758 -1.70006 -0.558937
v 0.924641 -2.06666 -0.645687
v 0.850541 -1.72068 -0.560667
v 0.947268 -2.01956 -0.629228
v 1.0466 -2.0565 -0.4804
v 0.924641 -2.06666 -0.645687
v 0.947268 -2.01956 -0.629228
v 0.924641 -2.06666 -0.645687
v 1.0466 -2.0565 -0.4804
v 0.71278 -2.26767 -0.733123
v 0.853498 -2.47349 -0.305475
v 0.847507 -2.48084 -0.306131
v 0.71278 -2.26767 -0.733123
v 0.847507 -2.48084 -0.306131
v 0.688829 -2.30543 -0.747183
v 0.688829 -2.30543 -0.747184
v 0.632322 -2.30223 -0.754728
v 0.847279 -2.48129 -0.306191
v 0.632322 -2.30223 -0.754728
v 0.688829 -2.30543 -0.747183
v 0.846744 -2.48132 -0.30612
v 0.587828 -2.49406 -0.271737
v 0.574948 -2.49432 -0.269949
v 0.563128 -2.49189 -0.274947
v 0.538068 -2.48676 -0.285544
v 0.498605 -2.47867 -0.302231
v 0.498605 -2.47867 -0.302232
v 0.540743 -2.43452 -0.25276
v 0.454623 -2.45954 -0.346078
v 0.539984 -2.44501 -0.254811
v 0.549677 -2.45868 -0.259008
v 0.540743 -2.43452 -0.25276
v 0.539984 -2.44501 -0.254811
v 0.548964 -2.32087 -0.230562
v 0.561381 -2.47519 -0.264075
v 0.570245 -2.02671 -0.173103
v 0.434138 -2.14221 -0.329659
v 0.548964 -2.32087 -0.230562
v 0.570245 -2.02671 -0.173103
v 0.433082 -2.17231 -0.334363
v 0.429052 -2.28714 -0.352306
v 0.423478 -2.44599 -0.377128
v 0.43932 -1.99457 -0.306589
v 0.437674 -1.72277 -0.603249
v 0.43932 -1.99457 -0.306589
v 0.437497 -1.72646 -0.605259
v 0.437497 -1.72646 -0.605258
v 0.464197 -1.70264 -0.613315
v 0.437433 -1.7278 -0.605986
v 0.437674 -1.72277 -0.603249
v 0.437807 -1.71998 -0.60173
v 0.438211 -1.71156 -0.597142
v 0.440276 -1.66845 -0.573652
v 0.438211 -1.71156 -0.597142
v 0.440276 -1.66845 -0.573652
v 0.546449 -1.96661 -0.190883
v 0.546449 -1.96661 -0.190883
v 0.873049 -1.72968 -0.520524
v 0.823758 -1.70006 -0.558937
v 0.873049 -1.72968 -0.520524
v 0.804786 -1.68545 -0.557712
v 0.795714 -1.67846 -0.557126
v 0.850541 -1.72068 -0.560667
v 0.859109 -1.72728 -0.561221
v 0.859109 -1.72728 -0.561221
v 0.995265 -1.83212 -0.570015
v 0.995265 -1.83212 -0.570014
v 1.0466 -2.0565 -0.4804
v 0.947268 -2.01956 -0.629228
v 1.00175 -1.83508 -0.56027
v 1.05197 -2.01872 -0.474819
v 1.00292 -1.83561 -0.558505
v 1.01094 -1.83927 -0.546445
v 0.892544 -1.74518 -0.524188
v 1.05197 -2.01872 -0.474819
v 1.01094 -1.83927 -0.546445
v 1.05402 -2.04676 -0.460936
v 0.886262 -1.74018 -0.523007
v 0.559692 -2.00006 -0.180988
v 0.783211 -2.16216 -0.231398
v 1.04315 -2.09657 -0.427314
v 0.814257 -2.1819 -0.239896
v 0.824881 -2.18866 -0.242804
v 0.980426 -2.28759 -0.285382
v 0.854933 -2.47139 -0.305248
v 1.04315 -2.09657 -0.427314
v 0.980426 -2.28759 -0.285382
v 1.0466 -2.0565 -0.4804
v 0.853498 -2.47349 -0.305475
v 0.846744 -2.48132 -0.30612
v 0.853498 -2.47349 -0.305475
v 0.854933 -2.47139 -0.305248
v 0.847507 -2.48084 -0.306131
v 0.847279 -2.48129 -0.306191
v 0.847279 -2.48129 -0.306191
v 0.587828 -2.49406 -0.271737
v 0.824881 -2.18866 -0.242804
v 0.814257 -2.1819 -0.239896
v 0.783211 -2.16216 -0.231398
v 0.568822 -2.48568 -0.267297
v 0.563202 -2.47776 -0.264863
v 0.563202 -2.47776 -0.264863
v 0.561381 -2.47519 -0.264075
v 0.563128 -2.49189 -0.274947
v 0.568822 -2.48568 -0.267297
v 0.574948 -2.49432 -0.269949
v 0.574948 -2.49432 -0.269949
v 0.538068 -2.48676 -0.285544
v 0.549677 -2.45868 -0.259008
v 0.539983 -2.44501 -0.254811
v 0.498605 -2.47867 -0.302231
v 0.570245 -2.02671 -0.173103
v 0.559692 -2.00006 -0.180988
v 0.980426 -2.28759 -0.285382
v 1.04315 -2.09657 -0.427314
v 1.0466 -2.0565 -0.4804
v 1.05402 -2.04676 -0.460936
v 1.0466 -2.0565 -0.4804
v 1.05197 -2.01872 -0.474819
v 1.05402 -2.04676 -0.460936
v 0.886262 -1.74018 -0.523007
v 0.892544 -1.74518 -0.524188
v 0.995265 -1.83212 -0.570014
v 1.00175 -1.83508 -0.56027
v 1.00292 -1.83561 -0.558505
v 1.01094 -1.83927 -0.546445
v 0.437807 -1.71998 -0.60173
v 0.449698 -1.60621 -0.344451
v 0.441302 -1.64705 -0.561986
v 0.449735 -1.64607 -0.568357
v 0.441302 -1.64705 -0.561986
v 0.450444 -1.64599 -0.568892
v 0.451512 -1.64586 -0.569699
v 0.483262 -1.64219 -0.593683
v 0.676556 -1.57974 -0.514604
v 0.483262 -1.64219 -0.593683
v 0.451512 -1.64586 -0.569699
v 0.67579 -1.58612 -0.54938
v 0.450444 -1.64599 -0.568892
v 0.449735 -1.64607 -0.568357
v 0.676631 -1.57911 -0.511193
v 0.676682 -1.57869 -0.50889
v 0.677203 -1.57435 -0.485247
v 0.677236 -1.57407 -0.483715
v 0.449698 -1.60621 -0.344451
v 0.45622 -1.60236 -0.331981
v 0.449789 -1.60577 -0.342089
v 0.449807 -1.60568 -0.341636
v 0.450335 -1.60311 -0.327941
v 0.449807 -1.60568 -0.341636
v 0.449789 -1.60577 -0.342089
v 0.441302 -1.64705 -0.561986
v 0.450305 -1.74669 -0.62762
v 0.434886 -1.78095 -0.634951
v 0.43406 -1.7982 -0.644348
vt 0.844417 0.364693
vt 0.808086 0.344498
vt 0.844711 0.348298
vt 0.791652 0.346412
vt 0.794106 0.343357
vt -2.3832 -0.484214
vt -2.43186 -0.362965
vt -2.27294 -0.337973
vt -2.19775 -0.747495
vt -2.15806 -0.319907
vt -2.12795 -0.315171
vt -1.71335 -0.591239
vt -1.76653 -0.620272
vt -1.78378 -0.629691
vt -0.409755 1.90504
vt -0.726005 1.72942
vt -0.39333 2.33513
vt -0.426167 1.85093
vt -0.440202 1.80466
vt -0.459463 1.74116
vt -0.653972 1.67529
vt -0.677564 -1.49619
vt -0.626913 -1.59636
vt -0.682228 -1.58617
vt -0.642348 -1.49295
vt -0.638893 -1.49263
vt -0.636561 -1.49241
vt -0.612619 -1.49021
vt -0.611067 -1.49007
vt -1.40685 0.830368
vt -1.56785 0.520555
vt -1.47966 0.909418
vt -1.43798 0.562596
vt -1.43881 0.555466
vt -1.7059 -0.248798
vt -1.58861 -0.31292
vt -1.74421 -0.254823
vt -1.79317 0.136869
vt -1.75618 0.118901
vt -1.79461 0.113643
vt -1.60843 0.527246
vt -1.48431 0.914473
vt -1.50268 0.934415
vt -0.627926 -1.60316
vt -0.631924 -1.62997
vt -0.684685 -1.63358
vt -0.763957 1.75794
vt -0.554018 2.4175
vt -0.390303 2.41441
vt -2.27406 -0.76921
vt -0.775129 1.76633
vt -0.691342 2.38115
vt -0.784294 1.77322
vt -0.803462 1.78763
vt -0.905382 2.16408
vt -0.83052 1.80796
vt -0.928242 2.11428
vt 0.8258 0.427
vt 0.842724 0.414032
vt 0.843234 0.420895
vt 0.842724 0.414032
vt 0.8258 0.427
vt 0.845701 0.381141
vt 0.794822 0.383806
vt 0.794665 0.382782
vt 0.845701 0.381141
vt 0.794665 0.382782
vt 0.845336 0.375403
vt -0.667145 2.42129
vt -0.610056 2.42023
vt 0.794651 0.382721
vt 0.845659 0.3707
vt 0.845336 0.375403
vt 0.794637 0.382674
vt 0.787944 0.360162
vt 0.787261 0.358727
vt 0.787404 0.357489
vt 0.787709 0.354862
vt 0.788187 0.350726
vt -2.51707 0.12531
vt -2.47277 0.190193
vt -2.49787 0.0632262
vt -2.4833 0.188185
vt -0.510872 -2.46045
vt -0.50185 -2.43552
vt -0.501083 -2.44622
vt -0.510152 -2.31974
vt -0.52269 -2.47764
vt -0.53164 -2.02003
vt -2.17947 0.0609745
vt -2.35874 0.211932
vt -2.06358 0.268204
vt -2.20967 0.0568411
vt -2.32489 0.0410736
vt -2.48428 0.0192616
vt -2.03133 0.0812473
vt -1.70832 -0.588495
vt -1.98024 -0.291942
vt -1.71201 -0.590509
vt -1.65155 -0.72243
vt -1.62542 -0.748165
vt -1.65302 -0.722843
vt -1.64751 -0.721289
vt -1.64445 -0.720427
vt -1.63521 -0.717822
vt -1.58792 -0.70449
vt -1.69711 -0.582373
vt -1.65398 -0.558828
vt -2.00327 0.238916
vt -1.83888 0.565251
vt -1.57812 1.01632
vt -0.687243 -1.68293
vt -0.648342 -1.74011
vt -0.686002 -1.65899
vt -0.685408 -1.64754
vt -0.688994 -1.71674
vt -0.689555 -1.72755
vt -0.839176 1.81447
vt -0.976733 1.91784
vt 0.842016 0.442883
vt 0.8258 0.427
vt 0.843234 0.420895
vt 0.840859 0.443231
vt 0.826254 0.431019
vt 0.840649 0.443294
vt 0.839218 0.443725
vt -1.59517 1.03484
vt -1.89623 1.14456
vt -1.69873 1.14727
vt -1.9271 1.13901
vt -1.58968 1.02887
vt -1.8757 0.571321
vt -2.05411 0.787996
vt -1.98192 1.1121
vt -2.07584 0.818878
vt -2.08328 0.829446
vt -2.19216 0.984166
vt 0.794887 0.38408
vt 0.819855 0.424699
vt 0.800608 0.408061
vt 0.8258 0.427
vt 0.794822 0.383806
vt -0.810835 -2.49211
vt -0.817655 -2.48431
vt -0.819104 -2.48221
vt -0.811606 -2.49165
vt -0.811375 -2.4921
vt 0.794651 0.382721
vt -0.549394 -2.49767
vt -0.788759 -2.1927
vt -0.778032 -2.1855
vt -0.746683 -2.16444
vt -0.530204 -2.48857
vt -0.524529 -2.48031
vt -1.02347 -2.17353
vt -1.02146 -2.17097
vt -1.02338 -2.19089
vt -1.02966 -2.1814
vt -1.03641 -2.18997
vt -0.536389 -2.49756
vt -0.995764 -2.19284
vt -1.00856 -2.15458
vt -0.997875 -2.14101
vt -0.952269 -2.1959
vt -1.90503 0.576158
vt -2.03683 0.255216
vt -0.945821 -2.29818
vt 0.819855 0.424699
vt 0.8258 0.427
vt 0.824312 0.428951
vt 0.8258 0.427
vt 0.826254 0.431019
vt 0.824312 0.428951
vt -0.650857 -1.75699
vt -0.652053 -1.76501
vt -0.69846 -1.89939
vt -0.688592 -1.90634
vt -0.686805 -1.9076
vt -0.674592 -1.9162
vt -1.70553 -0.586973
vt -1.59171 -0.329441
vt -1.63256 -0.547135
vt -1.56336 -0.708429
vt -1.56443 -0.697868
vt -1.56327 -0.709316
vt -1.56314 -0.710654
vt -1.55911 -0.750409
vt -0.795885 -0.272818
vt -0.876135 -0.0701445
vt -0.851796 -0.0384527
vt -0.831176 -0.270525
vt -0.850977 -0.0373865
vt -0.850434 -0.036679
vt -0.792423 -0.273043
vt -0.790086 -0.273194
vt -0.766094 -0.274753
vt -0.764538 -0.274854
vt -0.623213 -0.0463189
vt -0.610558 -0.0535812
vt -0.620815 -0.0465151
vt -0.620356 -0.0465526
vt -0.606458 -0.0476895
vt -1.59118 -0.326624
vt -1.59127 -0.327077
vt -0.843969 -0.0282607
vt -1.67375 -0.746529
vt -1.71134 -0.739283
vt -1.73026 -0.744617
vn -0.014759 -0.930311 -0.366474
vn -0.0166714 -0.930001 -0.367178
vn -0.0125867 -0.931156 -0.364404
vn -0.0170468 -0.929666 -0.368008
vn -0.0171135 -0.929765 -0.367756
vn -0.999009 0.0299099 0.0329462
vn -0.999009 0.0299099 0.0329462
vn -0.999009 0.0299099 0.0329462
vn -0.999009 0.0299099 0.0329462
vn -0.999009 0.0299099 0.0329462
vn -0.999009 0.0299099 0.0329462
vn -0.999009 0.0299099 0.0329462
vn -0.999009 0.0299099 0.0329462
vn -0.999009 0.0299099 0.0329462
vn 0.142334 0.264847 -0.953728
vn 0.142334 0.264847 -0.953728
vn 0.142334 0.264847 -0.953728
vn 0.142334 0.264847 -0.953728
vn 0.142334 0.264847 -0.953728
vn 0.142334 0.264847 -0.953728
vn 0.142334 0.264847 -0.953728
vn 0.596058 0.787313 -0.157649
vn 0.596058 0.787313 -0.157649
vn 0.596058 0.787313 -0.157649
vn 0.596058 0.787313 -0.157649
vn 0.596058 0.787313 -0.157649
vn 0.596058 0.787313 -0.157649
vn 0.596058 0.787313 -0.157649
vn 0.596058 0.787313 -0.157649
vn 0.477293 0.41771 0.773117
vn 0.477293 0.41771 0.773117
vn 0.477293 0.41771 0.773117
vn 0.477293 0.41771 0.773117
vn 0.477293 0.41771 0.773117
vn -0.999009 0.0299099 0.0329462
vn -0.999009 0.0299099 0.0329462
vn -0.999009 0.0299099 0.0329462
vn -0.721325 -0.0821487 0.687707
vn -0.721325 -0.0821487 0.687707
vn -0.721325 -0.0821487 0.687707
vn 0.477293 0.41771 0.773117
vn 0.477293 0.41771 0.773117
vn 0.477293 0.41771 0.773117
vn 0.596058 0.787313 -0.157649
vn 0.596058 0.787313 -0.157649
vn 0.596058 0.787313 -0.157649
vn 0.142334 0.264847 -0.953728
vn 0.142334 0.264847 -0.953728
vn 0.142334 0.264847 -0.953728
vn -0.999009 0.0299099 0.0329462
vn 0.142334 0.264847 -0.953728
vn 0.142334 0.264847 -0.953728
vn 0.142334 0.264847 -0.953728
vn 0.142334 0.264847 -0.953728
vn 0.142334 0.264847 -0.953728
vn 0.142334 0.264847 -0.953728
vn 0.142334 0.264847 -0.953728
vn 0.796639 -0.181152 -0.576671
vn 0.796639 -0.181152 -0.576671
vn 0.796639 -0.181152 -0.576671
vn 0.699194 -0.526626 -0.483522
vn 0.699194 -0.526626 -0.483522
vn 0.699194 -0.526626 -0.483522
vn 0.699194 -0.526626 -0.483522
vn 0.699194 -0.526626 -0.483522
vn 0.823648 -0.35892 -0.439067
vn 0.823648 -0.35892 -0.439067
vn 0.823648 -0.35892 -0.439067
vn 0.142334 0.264847 -0.953728
vn 0.142334 0.264847 -0.953728
vn -0.00339438 -0.929281 -0.369358
vn -0.014458 -0.930228 -0.366696
vn -0.0115893 -0.930193 -0.366888
vn -0.00342147 -0.929281 -0.369357
vn -0.0165414 -0.929356 -0.368814
vn -0.0166241 -0.929369 -0.368778
vn -0.016675 -0.929393 -0.368714
vn -0.0167828 -0.929445 -0.368578
vn -0.0169527 -0.929527 -0.368365
vn -0.721325 -0.0821487 0.687707
vn -0.721325 -0.0821487 0.687707
vn -0.721325 -0.0821487 0.687707
vn -0.721325 -0.0821487 0.687707
vn 0.138639 -0.199509 0.970039
vn 0.138639 -0.199509 0.970039
vn 0.138639 -0.199509 0.970039
vn 0.138639 -0.199509 0.970039
vn 0.138639 -0.199509 0.970039
vn 0.138639 -0.199509 0.970039
vn -0.721325 -0.0821487 0.687707
vn -0.721325 -0.0821487 0.687707
vn -0.721325 -0.0821487 0.687707
vn -0.721325 -0.0821487 0.687707
vn -0.721325 -0.0821487 0.687707
vn -0.721325 -0.0821487 0.687707
vn -0.721325 -0.0821487 0.687707
vn -0.999009 0.0299099 0.0329462
vn -0.999009 0.0299099 0.0329462
vn -0.999009 0.0299099 0.0329462
vn -0.579256 0.411256 -0.703798
vn -0.579256 0.411256 -0.703798
vn -0.579256 0.411256 -0.703798
vn -0.579256 0.411256 -0.703798
vn -0.579256 0.411256 -0.703798
vn -0.579256 0.411256 -0.703798
vn -0.579256 0.411256 -0.703798
vn -0.999009 0.0299099 0.0329462
vn -0.999009 0.0299099 0.0329462
vn -0.721325 -0.0821487 0.687707
vn 0.477293 0.41771 0.773117
vn 0.477293 0.41771 0.773117
vn 0.596058 0.787313 -0.157649
vn 0.596058 0.787313 -0.157649
vn 0.596058 0.787313 -0.157649
vn 0.596058 0.787313 -0.157649
vn 0.596058 0.787313 -0.157649
vn 0.596058 0.787313 -0.157649
vn 0.142334 0.264847 -0.953728
vn 0.142334 0.264847 -0.953728
vn 0.827258 -0.0346942 -0.560751
vn 0.827258 -0.0346942 -0.560751
vn 0.827258 -0.0346942 -0.560751
vn 0.827258 -0.0346942 -0.560751
vn 0.827258 -0.0346942 -0.560751
vn 0.827258 -0.0346942 -0.560751
vn 0.827258 -0.0346942 -0.560751
vn 0.477293 0.41771 0.773117
vn 0.477293 0.41771 0.773117
vn 0.477293 0.41771 0.773117
vn 0.477293 0.41771 0.773117
vn 0.477293 0.41771 0.773117
vn 0.477293 0.41771 0.773117
vn 0.477293 0.41771 0.773117
vn 0.477293 0.41771 0.773117
vn 0.477293 0.41771 0.773117
vn 0.477293 0.41771 0.773117
vn 0.477293 0.41771 0.773117
vn 0.795517 -0.507361 -0.331267
vn 0.795517 -0.507361 -0.331267
vn 0.795517 -0.507361 -0.331267
vn 0.795517 -0.507361 -0.331267
vn 0.795517 -0.507361 -0.331267
vn 0.138639 -0.199509 0.970039
vn 0.138639 -0.199509 0.970039
vn 0.138639 -0.199509 0.970039
vn 0.138639 -0.199509 0.970039
vn 0.138639 -0.199509 0.970039
vn 0.823648 -0.35892 -0.439067
vn 0.138639 -0.199509 0.970039
vn 0.138639 -0.199509 0.970039
vn 0.138639 -0.199509 0.970039
vn 0.138639 -0.199509 0.970039
vn 0.138639 -0.199509 0.970039
vn 0.138639 -0.199509 0.970039
vn -0.420518 -0.525325 0.739728
vn -0.420518 -0.525325 0.739728
vn -0.420518 -0.525325 0.739728
vn -0.420518 -0.525325 0.739728
vn -0.420518 -0.525325 0.739728
vn 0.138639 -0.199509 0.970039
vn -0.420518 -0.525325 0.739728
vn -0.420518 -0.525325 0.739728
vn -0.420518 -0.525325 0.739728
vn -0.420518 -0.525325 0.739728
vn 0.477293 0.41771 0.773117
vn -0.721325 -0.0821487 0.687707
vn 0.138639 -0.199509 0.970039
vn 0.92535 -0.329065 -0.188263
vn 0.92535 -0.329065 -0.188263
vn 0.92535 -0.329065 -0.188263
vn 0.944553 -0.0874376 -0.316503
vn 0.944553 -0.0874376 -0.316503
vn 0.944553 -0.0874376 -0.316503
vn 0.596058 0.787313 -0.157649
vn 0.596058 0.787313 -0.157649
vn 0.596058 0.787313 -0.157649
vn 0.596058 0.787313 -0.157649
vn 0.596058 0.787313 -0.157649
vn 0.596058 0.787313 -0.157649
vn -0.999009 0.0299099 0.0329462
vn -0.999009 0.0299099 0.0329462
vn -0.999009 0.0299099 0.0329462
vn -0.579256 0.411256 -0.703798
vn -0.579256 0.411256 -0.703798
vn -0.579256 0.411256 -0.703798
vn -0.579256 0.411256 -0.703798
vn -0.579256 0.411256 -0.703798
vn -0.23922 0.955931 -0.170204
vn -0.23922 0.955931 -0.170204
vn -0.23922 0.955931 -0.170204
vn -0.23922 0.955931 -0.170204
vn -0.23922 0.955931 -0.170204
vn -0.23922 0.955931 -0.170204
vn -0.23922 0.955931 -0.170204
vn -0.23922 0.955931 -0.170204
vn -0.23922 0.955931 -0.170204
vn -0.23922 0.955931 -0.170204
vn -0.23922 0.955931 -0.170204
vn -0.23922 0.955931 -0.170204
vn -0.23922 0.955931 -0.170204
vn -0.23922 0.955931 -0.170204
vn -0.23922 0.955931 -0.170204
vn -0.999009 0.0299099 0.0329462
vn -0.999009 0.0299099 0.0329462
vn -0.23922 0.955931 -0.170204
vn -0.579256 0.411256 -0.703798
vn -0.579256 0.411256 -0.703798
vn -0.579256 0.411256 -0.703798
f 1/1/1 2/2/2 3/3/3 
f 4/4/4 2/2/2 1/1/1 
f 5/5/5 2/2/2 4/4/4 
f 6/6/6 7/7/7 8/8/8 
f 8/8/8 9/9/9 6/6/6 
f 10/10/10 9/9/9 8/8/8 
f 9/9/9 10/10/10 11/11/11 
f 12/12/12 9/9/9 11/11/11 
f 13/13/13 9/9/9 12/12/12 
f 14/14/14 9/9/9 13/13/13 
f 15/15/15 16/16/16 17/17/17 
f 18/18/18 16/16/16 15/15/15 
f 19/19/19 16/16/16 18/18/18 
f 20/20/20 16/16/16 19/19/19 
f 21/21/21 16/16/16 20/20/20 
f 22/22/22 23/23/23 24/24/24 
f 25/25/25 23/23/23 22/22/22 
f 26/26/26 23/23/23 25/25/25 
f 27/27/27 23/23/23 26/26/26 
f 23/23/23 27/27/27 28/28/28 
f 29/29/29 23/23/23 28/28/28 
f 30/30/30 31/31/31 32/32/32 
f 33/33/33 31/31/31 30/30/30 
f 34/34/34 31/31/31 33/33/33 
f 35/35/35 36/36/36 37/37/37 
f 38/38/38 39/39/39 40/40/40 
f 41/41/41 42/42/42 31/31/31 
f 42/42/42 41/41/41 43/43/43 
f 44/44/44 45/45/45 46/46/46 
f 44/44/44 46/46/46 24/24/24 
f 24/24/24 23/23/23 44/44/44 
f 31/31/31 42/42/42 32/32/32 
f 17/17/17 16/16/16 47/47/47 
f 17/17/17 47/47/47 48/48/48 
f 17/17/17 48/48/48 49/49/49 
f 6/6/6 9/9/9 50/50/50 
f 48/48/48 47/47/47 51/51/51 
f 51/51/51 52/52/52 48/48/48 
f 53/53/53 52/52/52 51/51/51 
f 54/54/54 52/52/52 53/53/53 
f 54/54/54 55/55/55 52/52/52 
f 56/56/56 55/55/55 54/54/54 
f 55/55/55 56/56/56 57/57/57 
f 58/58/58 59/59/59 60/60/60 
f 61/61/61 62/62/62 63/63/63 
f 64/64/64 63/63/63 62/62/62 
f 65/65/65 63/63/63 64/64/64 
f 66/66/66 67/67/67 68/68/68 
f 69/69/69 70/70/70 52/52/52 
f 71/71/71 72/72/72 73/73/73 
f 74/74/74 72/72/72 71/71/71 
f 75/75/75 72/72/72 74/74/74 
f 72/72/72 75/75/75 1/1/1 
f 70/70/70 48/48/48 52/52/52 
f 76/76/76 1/1/1 75/75/75 
f 77/77/77 1/1/1 76/76/76 
f 78/78/78 1/1/1 77/77/77 
f 78/78/78 4/4/4 1/1/1 
f 79/79/79 4/4/4 78/78/78 
f 80/80/80 81/81/81 82/82/82 
f 83/83/83 81/81/81 80/80/80 
f 84/84/84 85/85/85 86/86/86 
f 84/84/84 87/87/87 85/85/85 
f 88/88/88 87/87/87 84/84/84 
f 87/87/87 88/88/88 89/89/89 
f 90/90/90 91/91/91 92/92/92 
f 91/91/91 90/90/90 93/93/93 
f 91/91/91 93/93/93 94/94/94 
f 91/91/91 94/94/94 81/81/81 
f 81/81/81 94/94/94 82/82/82 
f 94/94/94 95/95/95 82/82/82 
f 96/96/96 90/90/90 92/92/92 
f 97/97/97 11/11/11 98/98/98 
f 99/99/99 11/11/11 97/97/97 
f 12/12/12 11/11/11 99/99/99 
f 100/100/100 101/101/101 102/102/102 
f 103/103/103 101/101/101 100/100/100 
f 104/104/104 101/101/101 103/103/103 
f 105/105/105 101/101/101 104/104/104 
f 105/105/105 106/106/106 101/101/101 
f 107/107/107 37/37/37 108/108/108 
f 37/37/37 107/107/107 98/98/98 
f 38/38/38 40/40/40 96/96/96 
f 38/38/38 96/96/96 109/109/109 
f 43/43/43 41/41/41 110/110/110 
f 43/43/43 110/110/110 111/111/111 
f 112/112/112 45/45/45 113/113/113 
f 45/45/45 112/112/112 114/114/114 
f 45/45/45 114/114/114 115/115/115 
f 45/45/45 115/115/115 46/46/46 
f 112/112/112 113/113/113 116/116/116 
f 116/116/116 113/113/113 117/117/117 
f 57/57/57 56/56/56 118/118/118 
f 57/57/57 118/118/118 119/119/119 
f 120/120/120 121/121/121 122/122/122 
f 123/123/123 121/121/121 120/120/120 
f 123/123/123 124/124/124 121/121/121 
f 125/125/125 124/124/124 123/123/123 
f 126/126/126 124/124/124 125/125/125 
f 127/127/127 128/128/128 129/129/129 
f 127/127/127 130/130/130 128/128/128 
f 131/131/131 130/130/130 127/127/127 
f 111/111/111 130/130/130 131/131/131 
f 111/111/111 110/110/110 130/130/130 
f 130/130/130 110/110/110 132/132/132 
f 130/130/130 132/132/132 133/133/133 
f 133/133/133 134/134/134 130/130/130 
f 135/135/135 134/134/134 133/133/133 
f 136/136/136 134/134/134 135/135/135 
f 137/137/137 134/134/134 136/136/136 
f 138/138/138 139/139/139 140/140/140 
f 138/138/138 141/141/141 139/139/139 
f 142/142/142 141/141/141 138/138/138 
f 143/143/143 144/144/144 145/145/145 
f 143/143/143 146/146/146 144/144/144 
f 146/146/146 143/143/143 147/147/147 
f 68/68/68 67/67/67 148/148/148 
f 145/145/145 149/149/149 143/143/143 
f 150/150/150 149/149/149 145/145/145 
f 151/151/151 149/149/149 150/150/150 
f 152/152/152 149/149/149 151/151/151 
f 152/152/152 153/153/153 149/149/149 
f 152/152/152 154/154/154 153/153/153 
f 89/89/89 154/154/154 152/152/152 
f 89/89/89 88/88/88 154/154/154 
f 155/155/155 156/156/156 157/157/157 
f 155/155/155 157/157/157 158/158/158 
f 158/158/158 157/157/157 159/159/159 
f 149/149/149 153/153/153 160/160/160 
f 156/156/156 161/161/161 157/157/157 
f 162/162/162 161/161/161 156/156/156 
f 163/163/163 161/161/161 162/162/162 
f 163/163/163 164/164/164 161/161/161 
f 133/133/133 132/132/132 165/165/165 
f 166/166/166 96/96/96 92/92/92 
f 166/166/166 109/109/109 96/96/96 
f 167/167/167 150/150/150 145/145/145 
f 168/168/168 169/169/169 170/170/170 
f 171/171/171 172/172/172 173/173/173 
f 117/117/117 113/113/113 174/174/174 
f 117/117/117 174/174/174 175/175/175 
f 117/117/117 175/175/175 176/176/176 
f 176/176/176 175/175/175 177/177/177 
f 177/177/177 175/175/175 178/178/178 
f 178/178/178 175/175/175 179/179/179 
f 98/98/98 107/107/107 180/180/180 
f 98/98/98 180/180/180 97/97/97 
f 181/181/181 108/108/108 37/37/37 
f 182/182/182 108/108/108 181/181/181 
f 183/183/183 106/106/106 184/184/184 
f 106/106/106 183/183/183 185/185/185 
f 106/106/106 185/185/185 186/186/186 
f 106/106/106 186/186/186 101/101/101 
f 101/101/101 186/186/186 187/187/187 
f 188/188/188 189/189/189 190/190/190 
f 189/189/189 188/188/188 191/191/191 
f 188/188/188 190/190/190 192/192/192 
f 188/188/188 192/192/192 193/193/193 
f 193/193/193 194/194/194 188/188/188 
f 193/193/193 195/195/195 194/194/194 
f 193/193/193 196/196/196 195/195/195 
f 193/193/193 197/197/197 196/196/196 
f 197/197/197 193/193/193 198/198/198 
f 197/197/197 198/198/198 199/199/199 
f 200/200/200 199/199/199 198/198/198 
f 201/201/201 199/199/199 200/200/200 
f 201/201/201 202/202/202 199/199/199 
f 37/37/37 36/36/36 203/203/203 
f 37/37/37 203/203/203 204/204/204 
f 37/37/37 204/204/204 181/181/181 
f 205/205/205 198/198/198 193/193/193 
f 102/102/102 101/101/101 206/206/206 
f 207/207/207 102/102/102 206/206/206 
f 207/207/207 206/206/206 208/208/208 
